<svg xmlns="http://www.w3.org/2000/svg" width="391.333" height="142" viewBox="0 0 391.333 142"><g id="about-me-letters" fill="#A40612"><path id="about-me-m" d="M385.388 104.167c-3.498-4.33-7.532-6.82-13.562-6.185-4.62.485-8.31 2.086-11.066 5.56-2.57 3.235-3.47 7.026-1.475 10.957.63 1.244 1.7 2.298 2.687 3.327 3.144 3.282 7.194 2.696 10.368.387 1.392-1.013 1.75-3.415.98-4.766-.813-1.423-1.5-1.484-3.924-.685-.87.286-1.883.438-2.772.295-1.463-.23-2.283-1.564-2.27-3.22.01-1.635 1.043-3.164 2.77-3.467 2.67-.467 5.28-.63 7.65 1.397 3.27 2.793 5.11 6.328 3.91 10.344-1.57 5.255-4.77 9.614-10.383 11.397-2.103.668-4.37.805-6.483 1.447-2.677.816-5.215.342-7.695-.514-4.686-1.612-8.16-4.88-11.177-8.672-2.336-2.938-3.896-6.233-4.536-9.977-.403-2.35-1.145-4.64-1.542-6.985-.52-3.063-.83-6.162-1.27-9.238-.338-2.36-.835-4.702-1.083-7.07-.425-4.044-.7-8.104-1.05-12.152-.26-2.992-.56-5.98-.795-8.973-.196-2.54-.29-5.088-.488-7.627-.3-3.813-.69-7.62-.973-11.433-.23-3.103-.376-6.21-.513-9.32-.324-7.312 1.145-14.464 2.094-21.654.305-2.293.654-4.79 3.077-6.16.277-.157.443-.65.516-1.015.62-3.192-.9-5.355-4.717-6.058-.937-.173-1.91-.323-2.853-.26-2.29.15-4.624.207-6.84.727-2.522.592-3.384 3.192-1.783 5.21 1.415 1.783 1.742 3.734 1.612 5.847-.143 2.306-.29 4.62-.623 6.905-.332 2.274-.707 4.575-1.397 6.758-1.468 4.64-3.627 8.994-6.13 13.165-.56.933-1.327 1.74-2.077 2.707-2.26-1.544-2.953-2.844-3.188-5.924-.438-5.726-.668-11.473-1.294-17.178-.37-3.358.504-6.263 1.903-9.177.51-1.058.873-2.233 1.05-3.394.35-2.27-1.05-3.952-3.358-3.984-4.153-.058-8.312-.006-12.465.06-1.353.02-2.51.772-3.1 1.886-.587 1.11-.15 2.38.565 3.397.5.71 1.112 1.37 1.784 1.92 1.03.844 1.405 1.885 1.327 3.164-.112 1.833-.263 3.666-.296 5.5-.08 4.463-.283 8.894-1.3 13.28-.594 2.548-.73 5.2-1.132 7.795-.494 3.22-1.015 6.438-1.6 9.645-.184 1.008-.618 1.97-.917 2.958-.942 3.116-1.58 6.366-2.886 9.32-1.897 4.286-4.18 8.412-6.472 12.51-2.6 4.645-6.352 8.145-11.2 10.43-2.716 1.278-5.528 2.08-8.56 1.75-2.423-.263-4.827-.877-6.497-2.694-2.437-2.65-4.053-5.747-3.5-9.57.102-.708.107-1.437.11-2.152.012-5.064 2.165-9.06 6.055-12.196 1.916-1.546 5.433-1.466 7.84.187 1.39.95 2.017 3.447 1.435 5.71-.532 2.082-1.01 2.308-3.02 1.433-1.153-.502-3.013.048-3.774 1.114-.682.953-.4 2.416.777 3.367 2.4 1.94 5.295 2.576 8.077 1.568 2.697-.976 4.546-3.26 5.003-6.22.668-4.32-.13-8.298-2.596-12.08-2.645-4.054-6.523-5.354-10.852-5.288-4.84.075-8.853 2.653-11.93 6.168-4.382 5.002-6.73 10.95-6.548 17.74.103 3.715.487 7.33 2.894 10.415.482.62.777 1.392 1.152 2.097 2.843 5.354 6.42 9.85 12.8 11.166 1.322.272 2.603 1.02 3.914 1.04 3.866.065 7.75.116 11.312-1.92 1.92-1.1 4.14-1.69 5.994-2.866 2.735-1.73 5.42-3.61 7.834-5.758 1.62-1.438 2.826-3.388 4.04-5.226 1.448-2.19 2.92-4.41 3.993-6.792 1.324-2.943 2.277-6.06 3.34-9.115 1.124-3.226 2.178-6.476 3.288-9.704.145-.42.45-.78.688-1.175 1.663.36 2.282 1.622 2.972 2.768.915 1.526 1.915 2.96 3.55 3.794 1.835.937 3.177.714 4.468-.85.76-.916 1.342-1.975 2.035-2.944.736-1.027 1.415-2.124 2.3-3.01.953-.957 1.902-.693 2.41.53.21.505.297 1.075.354 1.625.607 5.784 1.204 11.57 1.798 17.355.824 8.02 1.935 15.992 4.078 23.787 1.327 4.823 2.664 9.646 3.894 14.496 1.058 4.18 3.59 7.572 5.813 11.11 1.13 1.797 3.095 3.103 4.093 4.944 1.076 1.99 2.766 2.897 4.582 3.525 4.348 1.506 8.725 3.06 13.215 3.99 4.547.94 9.3.745 13.613-1.126 4.026-1.746 8.062-3.484 10.977-7.26 3.738-4.848 6.478-9.877 6.576-16.15.073-4.06-1.05-7.628-3.605-10.793z"/><path id="about-me-bout" d="M231.532 3.105c-2.463-.152-4.123 1.48-6.115 2.393-1.058.486-2.205 1-3.336 1.064-5.97.334-11.954.455-17.925.8-3.498.202-6.994.58-10.465 1.073-4.182.593-8.22.57-12.028-1.583-.68-.384-1.494-.574-2.27-.732-2.68-.545-4.823 1.08-4.95 3.78-.08 1.755-.036 3.517-.047 5.275-.007 1.2-.064 2.4-.006 3.597.093 1.924 1.6 3.996 3.18 4.4 1.857.472 2.698-.79 3.637-2.065.542-.736 1.363-1.378 2.196-1.77 4.318-2.032 8.835-1.748 13.35-.86.455.09 1.072.817 1.117 1.295.236 2.525.478 5.07.403 7.598-.084 2.932-.69 5.853-.712 8.782-.03 4.268-.735 8.425-1.63 12.55-1.023 4.716-3.295 8.79-6.992 11.98-1.573 1.357-2.778 1.26-5.176-.35-1.126-.755-1.475-1.853-.742-3.564.513-1.2.483-2.292.197-3.61-1.98-.47-3.758-.93-5.55-1.314-4.214-.905-6.236 1.31-5.178 5.41 1.056 4.095-.19 7.718-2.95 10.79-1.504 1.672-3.7 1.223-4.55-.864-.414-1.013-.63-2.14-.748-3.233-.242-2.23.724-4.178 1.554-6.176.6-1.44 1.096-2.98 1.287-4.522.185-1.48-.6-2.525-2.085-2.755-2.818-.436-5.69-.875-8.41.598-2.017 1.094-2.314 1.638-1.49 3.82 1.3 3.456.462 6.412-1.93 9.04-1.306 1.436-3.422 1.72-4.97.544-.866-.655-1.606-1.54-2.222-2.446-1.835-2.697-3.587-5.447-5.963-7.73-1.69-1.623-3.69-2.586-6.007-2.607-6.202-.055-11.512 1.99-15.533 6.906-1.358 1.66-2.693 3.352-4.177 4.896-1.53 1.594-3.384 1.91-5.473.97-1.627-.73-2.71-1.898-3.418-3.492-2.462-5.537-6.854-8.14-12.79-8.392-.96-.04-1.93-.04-2.872-.193-2.902-.47-5.284-1.566-6.3-4.713-.53-1.646-1.167-3.22-1.547-4.948-1.646-7.475-2.54-14.992-2.312-22.656.07-2.356.65-4.365 2.196-6.145.426-.49.778-1.204.822-1.838.16-2.324-2.17-4.25-4.803-4.038-3.26.264-6.52.545-9.773.875-.857.086-1.742.265-2.53.597-2.21.927-2.755 2.905-1.013 4.486 1.524 1.383 1.595 2.998 1.667 4.743.02.472-.01.947.017 1.42.248 4.21.545 8.416.74 12.628.123 2.63-.04 5.28.163 7.9.347 4.45.87 8.884 1.344 13.322.396 3.724.876 7.44 1.225 11.17.27 2.906.4 5.827.592 8.742.21 3.22.68 6.405 1.787 9.438.623 1.71 1.514 3.406 3.5 3.928.798.21 1.688.11 2.535.09 5.457-.135 10.917-.217 16.37-.46 2.884-.128 5.593-.946 8.09-2.544 2.48-1.586 5.095-2.973 7.694-4.363 2.625-1.405 5.165-.978 7.332.918 2.732 2.394 5.638 4.367 9.15 5.472 3.145.99 6.282 1.055 9.384.158 3.827-1.105 6.892-3.48 9.694-6.27 1.86-1.854 3.833-3.62 5.913-5.22 2.524-1.938 4.174-1.648 6.216.903 1.183 1.48 2.28 3.04 3.313 4.63 2.542 3.916 7.768 4.188 11.354 2.614 4.668-2.048 8.316-5.558 11.9-9.056 2.157-2.105 4.59-3.685 7.29-4.927 1.7-.782 3.35-.604 4.812-.017.28 2.596.61 4.95.772 7.316.18 2.603.48 5.216-2.136 7.107-1.375.995-1.26 2.31.016 3.445 1.278 1.14 2.8 1.798 4.56 1.827 2.797.046 5.604.275 8.387.122 1.622-.09 3.325-.55 4.78-1.27 1.33-.655 2.28-1.826 2.002-3.69-.193-1.277-.676-2.3-1.53-3.126-1.31-1.267-1.74-2.773-1.753-4.528-.01-1.755-.16-3.507-.23-5.262-.233-5.654-.69-11.314-.582-16.963.048-2.524-.205-5.022-.146-7.537.108-4.377.006-8.76.095-13.14.05-2.546.276-5.09.463-7.633.153-2.133.362-4.263.544-6.33 3.02-1.11 9.084-1.052 11.855.124 2.788 1.183 5.532 2.466 8.33 3.63 2.124.883 3.128.19 3.23-2.12.18-3.97.405-7.94.49-11.914.024-1.25-.187-2.556-.566-3.747-.596-1.837-1.69-2.33-3.622-2.45zm-104.84 65.86c.005-2.173 1.836-3.93 4.15-3.978 1.46-.03 4.108 3.08 4.005 4.703-.092 1.44-3.112 3.533-4.985 3.455-2.175-.092-3.176-1.413-3.17-4.18zm-43.57 8.033c-.122-2.223-.266-4.5-.367-6.78-.08-1.81-.134-3.625-.154-5.438-.02-1.748.433-2.364 2.027-2.597 3.1-.454 6.016.095 8.654 1.848 1.2.798 1.824 1.902 1.94 3.377.4 5.124-1.678 8.038-6.796 9.28-1.654.4-3.307 1.243-5.302.31z"/><path id="about-me-e" d="M354.495 84.47c4.447.745 8.896 1.77 13.49 1.522 1.725-.092 3.492.306 5.215.624 1.232.23 2.477.516 3.287 1.72.574.853 1.69.874 2.387.45 1.11-.677 2.352-1.444 2.276-3.097-.174-3.968-.23-7.942-.528-11.9-.146-1.96-2.33-3.135-4.08-2.237-1.084.555-2.183 1.41-2.822 2.418-.883 1.39-2.09 1.91-3.523 2.11-.938.133-1.92.087-2.87.003-3.237-.284-6.47-.685-9.713-.918-2.41-.173-3.978-1.274-4.753-3.604 1.44-.916 2.972-.707 4.46-.782 1.658-.08 3.353-.05 4.967-.38 4.01-.824 7.35-2.845 10.002-6.01 2.308-2.754 2.937-5.855 2.255-9.318-.664-3.382-3.352-5.174-5.742-7.08-4.576-3.646-9.865-3.704-15.24-2.317-4.227 1.092-7.785 3.36-9.887 7.282-1.15 2.15-1.955 4.543-2.534 6.92-.52 2.143-.526 4.412-.75 6.626-.47 4.615 1.01 8.72 3.926 12.123 2.625 3.07 6.195 5.182 10.177 5.848zm8.123-25.553c-.06.46-.688 1.024-1.188 1.215-1.902.724-6.558.873-8.918.417-.113-2.22 1.688-4.47 4.1-4.463l5.224 1.304c.41.143.843 1.04.782 1.527z"/><path id="about-me-a" d="M65.3 82.893c-1.02-.854-2.277-1.818-2.644-2.98-.854-2.706-2.35-5.12-2.98-7.956-.95-4.252-2.545-8.356-3.825-12.536-1.856-6.064-3.78-12.11-5.48-18.22-1.423-5.103-2.512-10.3-3.86-15.424-.885-3.363-1.94-6.683-2.984-10-.33-1.045-.475-2.015.103-2.99.78-1.32.786-2.704.415-4.24-.607-.176-1.215-.517-1.805-.49-3.025.146-6.05.355-9.07.6-2.693.22-5.39.46-8.07.804-1.322.17-2.68.443-3.902.953-1.936.805-2.26 1.934-1.35 3.842.202.423.452.904.82 1.153 1.27.858 1.414 2.014 1.113 3.37-.154.7-.203 1.42-.355 2.122-1.156 5.293-2.46 10.558-3.462 15.88-1.638 8.69-3.88 17.23-6.125 25.768-1.397 5.31-3.218 10.507-4.806 15.77-.422 1.395-1.05 2.594-2.016 3.728-1.123 1.323-2.022 2.866-2.848 4.405-1.586 2.96-.256 5.395 3.113 5.842.867.115 1.818-.043 2.603.256 3.104 1.185 6.293.4 9.436.52 1.295.05 2.442-.657 3.287-2.066-.992-1.92-1.83-3.718-.953-5.935 2.967-7.512 4.23-15.5 6.327-23.252.22-.812.615-1.636 1.13-2.297 2.21-2.845 6.524-4.17 9.914-3.115.29.09.734.274.774.48.33 1.714 1.9 2.678 2.335 4.466.993 4.087 2.46 8.063 3.812 12.06.716 2.11 1.824 4.11 2.36 6.262 1.038 4.163 3.25 8.26.976 12.74-.54 1.067.09 1.896 1.26 2.456 1.78.855 3.513.754 5.283-.088 2.79-1.324 5.66-2.488 8.398-3.908 1.31-.68 2.526-1.66 3.55-2.73 1.845-1.932 1.567-3.542-.47-5.25zm-34.52-36.47c-1.215-.554-1.814-1.33-1.683-2.538.35-3.23.75-6.457 1.252-9.667.202-1.3.59-2.626 1.963-3.45 1.986 1.602 3.18 3.632 3.906 5.915.672 2.118 1.206 4.286 1.696 6.455.417 1.845.055 2.555-1.817 2.925-1.725.34-3.417 1.23-5.32.36z"/></g></svg>