<?xml version="1.0" encoding="utf-8"?>
<!-- Generator: Adobe Illustrator 16.0.0, SVG Export Plug-In . SVG Version: 6.00 Build 0)  -->
<!DOCTYPE svg PUBLIC "-//W3C//DTD SVG 1.1//EN" "http://www.w3.org/Graphics/SVG/1.1/DTD/svg11.dtd">
<svg version="1.1" id="about-me" xmlns="http://www.w3.org/2000/svg" xmlns:xlink="http://www.w3.org/1999/xlink" x="0px" y="0px"
	 width="391.333px" height="142px" viewBox="0 0 391.333 142" enable-background="new 0 0 391.333 142" xml:space="preserve">
<g id="about-me-letters">
	<path id="about-me-m" fill="#A40612" stroke="#A40612" stroke-miterlimit="10" d="M385.388,104.167
		c-3.498-4.331-7.532-6.819-13.562-6.185c-4.619,0.486-8.308,2.086-11.066,5.559c-2.571,3.236-3.469,7.027-1.475,10.958
		c0.631,1.245,1.7,2.299,2.687,3.328c3.144,3.282,7.194,2.696,10.368,0.387c1.392-1.013,1.75-3.415,0.979-4.766
		c-0.812-1.423-1.498-1.484-3.923-0.685c-0.87,0.287-1.883,0.438-2.773,0.295c-1.463-0.231-2.283-1.564-2.271-3.22
		c0.012-1.634,1.044-3.163,2.771-3.466c2.67-0.467,5.281-0.63,7.651,1.396c3.269,2.793,5.11,6.328,3.91,10.344
		c-1.571,5.253-4.772,9.613-10.382,11.396c-2.104,0.668-4.372,0.805-6.485,1.447c-2.677,0.816-5.215,0.342-7.696-0.514
		c-4.685-1.612-8.16-4.881-11.176-8.672c-2.336-2.938-3.896-6.233-4.537-9.976c-0.402-2.349-1.143-4.64-1.541-6.987
		c-0.519-3.063-0.83-6.162-1.27-9.238c-0.337-2.36-0.834-4.702-1.082-7.071c-0.424-4.043-0.699-8.103-1.049-12.151
		c-0.26-2.992-0.561-5.979-0.795-8.973c-0.197-2.539-0.289-5.088-0.489-7.627c-0.3-3.813-0.69-7.619-0.972-11.433
		c-0.228-3.103-0.375-6.211-0.512-9.319c-0.324-7.313,1.145-14.465,2.094-21.655c0.303-2.293,0.653-4.791,3.076-6.16
		c0.277-0.157,0.443-0.649,0.516-1.015c0.621-3.192-0.902-5.355-4.717-6.058c-0.937-0.173-1.91-0.323-2.853-0.261
		c-2.29,0.152-4.624,0.208-6.841,0.728c-2.521,0.592-3.383,3.192-1.782,5.209c1.415,1.784,1.742,3.735,1.612,5.848
		c-0.143,2.307-0.29,4.622-0.623,6.906c-0.331,2.274-0.706,4.575-1.396,6.758c-1.468,4.641-3.627,8.994-6.131,13.165
		c-0.559,0.933-1.326,1.74-2.076,2.707c-2.26-1.544-2.953-2.844-3.188-5.924c-0.438-5.727-0.668-11.474-1.294-17.179
		c-0.369-3.358,0.504-6.263,1.904-9.177c0.51-1.058,0.873-2.233,1.051-3.394c0.347-2.271-1.051-3.953-3.36-3.985
		c-4.153-0.058-8.31-0.006-12.464,0.059c-1.352,0.021-2.508,0.773-3.098,1.887c-0.588,1.109-0.151,2.379,0.564,3.397
		c0.501,0.71,1.112,1.372,1.784,1.922c1.03,0.843,1.405,1.884,1.327,3.163c-0.113,1.833-0.264,3.666-0.297,5.501
		c-0.08,4.462-0.283,8.893-1.301,13.279c-0.592,2.548-0.73,5.199-1.131,7.795c-0.494,3.221-1.014,6.439-1.598,9.646
		c-0.184,1.008-0.619,1.969-0.918,2.958c-0.943,3.116-1.579,6.366-2.885,9.32c-1.896,4.286-4.178,8.412-6.471,12.509
		c-2.6,4.646-6.352,8.146-11.199,10.43c-2.717,1.279-5.53,2.08-8.562,1.752c-2.422-0.263-4.826-0.878-6.496-2.695
		c-2.438-2.651-4.054-5.746-3.502-9.568c0.102-0.709,0.109-1.438,0.111-2.154c0.012-5.064,2.166-9.059,6.055-12.196
		c1.916-1.546,5.432-1.466,7.84,0.187c1.389,0.951,2.016,3.448,1.434,5.711c-0.532,2.082-1.01,2.308-3.021,1.433
		c-1.152-0.502-3.012,0.048-3.773,1.114c-0.682,0.953-0.4,2.416,0.777,3.367c2.401,1.94,5.295,2.577,8.077,1.569
		c2.697-0.976,4.546-3.261,5.003-6.221c0.668-4.319-0.129-8.297-2.596-12.079c-2.645-4.054-6.523-5.354-10.852-5.288
		c-4.84,0.075-8.852,2.653-11.93,6.168c-4.381,5.002-6.73,10.949-6.547,17.739c0.102,3.716,0.488,7.332,2.893,10.416
		c0.482,0.621,0.777,1.392,1.152,2.097c2.842,5.354,6.419,9.85,12.799,11.166c1.323,0.272,2.604,1.021,3.915,1.041
		c3.866,0.064,7.751,0.115,11.313-1.922c1.919-1.099,4.139-1.688,5.994-2.865c2.735-1.73,5.42-3.61,7.834-5.758
		c1.619-1.439,2.826-3.388,4.041-5.226c1.447-2.19,2.92-4.41,3.992-6.792c1.325-2.943,2.278-6.059,3.342-9.115
		c1.123-3.226,2.176-6.476,3.287-9.704c0.144-0.419,0.451-0.78,0.688-1.174c1.663,0.361,2.282,1.622,2.971,2.768
		c0.916,1.526,1.916,2.96,3.551,3.794c1.834,0.937,3.176,0.714,4.467-0.85c0.759-0.916,1.342-1.975,2.035-2.944
		c0.736-1.027,1.414-2.124,2.299-3.011c0.953-0.956,1.902-0.692,2.41,0.532c0.209,0.504,0.297,1.074,0.354,1.624
		c0.608,5.784,1.204,11.57,1.798,17.355c0.824,8.021,1.934,15.992,4.078,23.787c1.327,4.824,2.664,9.646,3.893,14.496
		c1.058,4.18,3.59,7.573,5.814,11.11c1.131,1.798,3.094,3.103,4.092,4.946c1.077,1.99,2.766,2.897,4.582,3.525
		c4.348,1.506,8.725,3.06,13.215,3.989c4.547,0.942,9.299,0.746,13.614-1.125c4.026-1.745,8.063-3.483,10.976-7.259
		c3.738-4.848,6.478-9.877,6.576-16.15C389.066,110.9,387.944,107.332,385.388,104.167z"/>
	<path id="about-me-bout" fill="#A40612" stroke="#A40612" stroke-miterlimit="10" d="M231.532,3.105
		c-2.463-0.152-4.123,1.479-6.115,2.393c-1.058,0.486-2.205,1.001-3.336,1.064c-5.972,0.334-11.955,0.455-17.926,0.8
		c-3.498,0.202-6.994,0.581-10.465,1.073c-4.182,0.593-8.219,0.569-12.028-1.583c-0.679-0.384-1.494-0.574-2.27-0.732
		c-2.68-0.545-4.823,1.079-4.949,3.779c-0.082,1.756-0.037,3.518-0.048,5.276c-0.007,1.199-0.064,2.401-0.006,3.597
		c0.094,1.924,1.6,3.996,3.182,4.399c1.856,0.473,2.697-0.788,3.636-2.064c0.542-0.736,1.363-1.378,2.196-1.771
		c4.318-2.031,8.835-1.747,13.35-0.858c0.455,0.09,1.072,0.816,1.117,1.294c0.236,2.525,0.477,5.069,0.403,7.598
		c-0.084,2.932-0.69,5.853-0.712,8.782c-0.031,4.268-0.736,8.425-1.631,12.55c-1.023,4.716-3.295,8.789-6.992,11.98
		c-1.573,1.357-2.778,1.26-5.176-0.349c-1.126-0.756-1.475-1.854-0.742-3.565c0.513-1.201,0.483-2.292,0.197-3.609
		c-1.98-0.472-3.758-0.93-5.551-1.315c-4.213-0.905-6.235,1.309-5.177,5.409c1.057,4.096-0.188,7.719-2.95,10.791
		c-1.503,1.672-3.698,1.223-4.55-0.864c-0.413-1.013-0.628-2.139-0.747-3.233c-0.242-2.23,0.724-4.178,1.554-6.176
		c0.6-1.441,1.096-2.982,1.287-4.523c0.185-1.481-0.599-2.525-2.085-2.755c-2.818-0.436-5.689-0.875-8.409,0.598
		c-2.018,1.093-2.315,1.637-1.492,3.82c1.302,3.455,0.463,6.411-1.928,9.039c-1.307,1.436-3.423,1.719-4.972,0.544
		c-0.865-0.655-1.605-1.541-2.221-2.446c-1.835-2.697-3.587-5.447-5.963-7.73c-1.689-1.623-3.691-2.586-6.007-2.607
		c-6.202-0.056-11.512,1.988-15.533,6.905c-1.358,1.66-2.693,3.352-4.177,4.896c-1.531,1.594-3.384,1.91-5.473,0.971
		c-1.627-0.732-2.709-1.899-3.418-3.493c-2.462-5.537-6.854-8.141-12.791-8.392c-0.958-0.041-1.928-0.041-2.871-0.193
		c-2.902-0.47-5.284-1.566-6.299-4.713c-0.531-1.646-1.168-3.221-1.548-4.948c-1.646-7.475-2.54-14.992-2.312-22.656
		c0.07-2.356,0.65-4.365,2.196-6.145c0.426-0.49,0.778-1.204,0.822-1.838c0.161-2.324-2.169-4.251-4.803-4.038
		c-3.26,0.264-6.519,0.545-9.772,0.875c-0.857,0.086-1.742,0.265-2.531,0.597c-2.208,0.928-2.754,2.906-1.012,4.487
		c1.524,1.383,1.595,2.998,1.667,4.743c0.019,0.473-0.012,0.948,0.016,1.42c0.248,4.21,0.545,8.417,0.741,12.629
		c0.122,2.631-0.042,5.279,0.162,7.901c0.347,4.448,0.871,8.883,1.344,13.321c0.396,3.724,0.876,7.44,1.225,11.169
		c0.272,2.907,0.402,5.828,0.593,8.743c0.21,3.22,0.681,6.405,1.787,9.438c0.624,1.709,1.515,3.407,3.5,3.928
		c0.799,0.209,1.689,0.111,2.536,0.091c5.457-0.136,10.917-0.218,16.37-0.46c2.884-0.129,5.593-0.947,8.091-2.545
		c2.48-1.586,5.094-2.973,7.693-4.363c2.626-1.406,5.166-0.979,7.333,0.917c2.732,2.394,5.638,4.367,9.149,5.472
		c3.146,0.989,6.283,1.055,9.385,0.158c3.827-1.105,6.892-3.479,9.694-6.27c1.86-1.854,3.833-3.619,5.913-5.219
		c2.524-1.939,4.174-1.649,6.216,0.903c1.184,1.479,2.281,3.038,3.314,4.629c2.542,3.916,7.768,4.188,11.354,2.614
		c4.668-2.048,8.316-5.557,11.9-9.055c2.157-2.106,4.59-3.685,7.29-4.928c1.699-0.783,3.351-0.605,4.812-0.018
		c0.281,2.596,0.61,4.95,0.773,7.317c0.179,2.604,0.479,5.217-2.136,7.108c-1.375,0.995-1.259,2.31,0.016,3.445
		c1.278,1.14,2.8,1.798,4.56,1.827c2.797,0.047,5.604,0.277,8.387,0.123c1.623-0.09,3.326-0.551,4.781-1.271
		c1.33-0.655,2.281-1.825,2.002-3.688c-0.193-1.278-0.676-2.301-1.531-3.127c-1.31-1.266-1.741-2.773-1.752-4.528
		c-0.01-1.754-0.16-3.507-0.231-5.262c-0.233-5.654-0.688-11.314-0.581-16.963c0.048-2.524-0.205-5.022-0.145-7.537
		c0.108-4.377,0.006-8.76,0.094-13.139c0.051-2.547,0.277-5.092,0.463-7.634c0.154-2.133,0.363-4.263,0.544-6.329
		c3.019-1.112,9.084-1.053,11.856,0.123c2.789,1.183,5.533,2.466,8.33,3.629c2.125,0.884,3.129,0.19,3.231-2.119
		c0.179-3.971,0.405-7.941,0.489-11.914c0.025-1.249-0.186-2.556-0.565-3.747C234.558,3.719,233.465,3.226,231.532,3.105z
		 M126.692,68.964c0.005-2.172,1.836-3.928,4.151-3.977c1.459-0.031,4.107,3.08,4.004,4.703c-0.092,1.44-3.112,3.533-4.985,3.455
		C127.687,73.053,126.686,71.732,126.692,68.964z M83.122,76.998c-0.122-2.223-0.266-4.5-0.367-6.779
		c-0.081-1.812-0.134-3.626-0.154-5.439c-0.02-1.748,0.432-2.364,2.026-2.597c3.101-0.454,6.016,0.095,8.654,1.848
		c1.2,0.797,1.823,1.901,1.938,3.376c0.4,5.124-1.677,8.038-6.795,9.28C86.77,77.087,85.117,77.93,83.122,76.998z"/>
	<path id="about-me-e" fill="#A40612" stroke="#A40612" stroke-miterlimit="10" d="M354.495,84.471
		c4.447,0.744,8.896,1.768,13.49,1.521c1.725-0.092,3.492,0.306,5.215,0.624c1.232,0.229,2.477,0.516,3.287,1.719
		c0.574,0.854,1.691,0.875,2.387,0.451c1.109-0.677,2.351-1.444,2.276-3.097c-0.174-3.967-0.231-7.941-0.528-11.898
		c-0.146-1.96-2.33-3.136-4.08-2.238c-1.084,0.555-2.183,1.409-2.822,2.418c-0.883,1.389-2.09,1.909-3.524,2.11
		c-0.938,0.132-1.919,0.086-2.87,0.002c-3.238-0.284-6.471-0.685-9.713-0.918c-2.412-0.173-3.977-1.274-4.753-3.604
		c1.438-0.917,2.97-0.709,4.458-0.783c1.659-0.081,3.354-0.049,4.967-0.381c4.01-0.823,7.35-2.844,10.002-6.01
		c2.309-2.753,2.938-5.854,2.256-9.317c-0.664-3.382-3.351-5.174-5.742-7.08c-4.576-3.646-9.865-3.704-15.239-2.317
		c-4.228,1.092-7.786,3.361-9.888,7.282c-1.15,2.149-1.955,4.543-2.534,6.92c-0.521,2.143-0.526,4.412-0.75,6.626
		c-0.47,4.614,1.009,8.72,3.926,12.122C346.943,81.693,350.513,83.805,354.495,84.471z M362.618,58.917
		c-0.059,0.459-0.688,1.024-1.189,1.215c-1.902,0.724-6.557,0.873-8.918,0.417c-0.113-2.219,1.688-4.47,4.101-4.462l5.222,1.304
		C362.247,57.533,362.679,58.429,362.618,58.917z"/>
	<path id="about-me-a" fill="#A40612" stroke="#A40612" stroke-miterlimit="10" d="M65.301,82.893
		c-1.02-0.855-2.278-1.819-2.645-2.981c-0.854-2.706-2.349-5.121-2.981-7.956c-0.949-4.252-2.544-8.356-3.824-12.536
		c-1.857-6.065-3.78-12.112-5.482-18.221c-1.422-5.103-2.511-10.299-3.859-15.424c-0.885-3.363-1.939-6.683-2.984-10.001
		c-0.329-1.044-0.475-2.014,0.103-2.988c0.782-1.32,0.787-2.705,0.416-4.242C43.438,8.37,42.83,8.029,42.24,8.057
		c-3.025,0.145-6.049,0.354-9.069,0.6c-2.694,0.22-5.39,0.458-8.07,0.803c-1.323,0.171-2.68,0.443-3.903,0.953
		c-1.936,0.805-2.261,1.934-1.35,3.842c0.202,0.423,0.452,0.904,0.82,1.153c1.271,0.858,1.414,2.014,1.113,3.369
		c-0.155,0.7-0.204,1.422-0.356,2.123c-1.156,5.293-2.459,10.558-3.462,15.879c-1.638,8.69-3.879,17.232-6.125,25.769
		c-1.397,5.31-3.218,10.507-4.806,15.769c-0.422,1.396-1.051,2.594-2.016,3.729c-1.123,1.323-2.022,2.866-2.848,4.405
		c-1.586,2.96-0.256,5.394,3.113,5.841c0.866,0.115,1.817-0.043,2.602,0.256c3.104,1.185,6.293,0.4,9.436,0.519
		c1.296,0.049,2.443-0.657,3.288-2.066c-0.992-1.919-1.829-3.718-0.953-5.934c2.967-7.512,4.23-15.499,6.327-23.253
		c0.219-0.812,0.614-1.636,1.129-2.297c2.211-2.845,6.524-4.169,9.914-3.115c0.289,0.09,0.734,0.274,0.774,0.479
		c0.33,1.715,1.9,2.679,2.335,4.467c0.993,4.088,2.459,8.064,3.812,12.06c0.716,2.112,1.824,4.112,2.36,6.263
		c1.038,4.163,3.25,8.26,0.976,12.74c-0.542,1.068,0.088,1.895,1.258,2.456c1.782,0.856,3.514,0.754,5.284-0.087
		c2.79-1.325,5.66-2.489,8.398-3.909c1.309-0.679,2.525-1.661,3.55-2.729C67.615,86.21,67.337,84.6,65.301,82.893z M30.779,46.423
		c-1.214-0.554-1.813-1.329-1.682-2.538c0.35-3.23,0.751-6.457,1.252-9.667c0.203-1.3,0.592-2.626,1.964-3.45
		c1.986,1.602,3.18,3.632,3.906,5.915c0.673,2.118,1.207,4.286,1.697,6.455c0.417,1.845,0.055,2.555-1.817,2.925
		C34.375,46.403,32.683,47.293,30.779,46.423z"/>
</g>
</svg>
