<?xml version="1.0" encoding="utf-8"?>
<!-- Generator: Adobe Illustrator 16.0.0, SVG Export Plug-In . SVG Version: 6.00 Build 0)  -->
<!DOCTYPE svg PUBLIC "-//W3C//DTD SVG 1.1//EN" "http://www.w3.org/Graphics/SVG/1.1/DTD/svg11.dtd">
<svg version="1.1" id="Layer_1" xmlns="http://www.w3.org/2000/svg" xmlns:xlink="http://www.w3.org/1999/xlink" x="0px" y="0px"
	 width="391.333px" height="142px" viewBox="0 0 391.333 142" enable-background="new 0 0 391.333 142" xml:space="preserve">
<g>
	<path fill="none" d="M134.847,69.691c0.104-1.623-2.545-4.734-4.004-4.703c-2.314,0.049-4.146,1.805-4.151,3.977
		c-0.007,2.769,0.995,4.089,3.169,4.181C131.735,73.223,134.755,71.131,134.847,69.691z"/>
	<path fill="none" d="M37.916,43.138c-0.49-2.169-1.023-4.337-1.697-6.455c-0.726-2.283-1.919-4.313-3.906-5.915
		c-1.373,0.824-1.762,2.15-1.964,3.45c-0.501,3.21-0.902,6.437-1.252,9.667c-0.131,1.209,0.468,1.984,1.682,2.538
		c1.904,0.87,3.596-0.02,5.32-0.36C37.971,45.693,38.333,44.983,37.916,43.138z"/>
	<path fill="none" d="M361.832,57.39l-5.222-1.304c-2.414-0.008-4.214,2.243-4.101,4.462c2.361,0.456,7.016,0.307,8.918-0.417
		c0.503-0.19,1.132-0.756,1.19-1.215C362.679,58.429,362.246,57.533,361.832,57.39z"/>
	<path fill="none" d="M95.219,67.406c-0.115-1.475-0.738-2.579-1.938-3.376c-2.638-1.753-5.553-2.302-8.654-1.848
		c-1.594,0.232-2.045,0.849-2.026,2.597c0.021,1.813,0.074,3.627,0.154,5.439c0.101,2.279,0.245,4.558,0.367,6.779
		c1.995,0.933,3.648,0.09,5.302-0.312C93.542,75.445,95.619,72.53,95.219,67.406z"/>
	<path fill="#A40612" d="M385.388,104.167c-3.498-4.331-7.532-6.82-13.561-6.185c-4.62,0.487-8.308,2.086-11.066,5.559
		c-2.572,3.237-3.47,7.028-1.476,10.958c0.632,1.245,1.701,2.299,2.687,3.328c3.143,3.283,7.194,2.697,10.369,0.387
		c1.391-1.013,1.75-3.415,0.979-4.766c-0.811-1.422-1.498-1.484-3.923-0.684c-0.87,0.287-1.883,0.437-2.774,0.295
		c-1.462-0.232-2.283-1.565-2.271-3.22c0.012-1.634,1.044-3.163,2.771-3.466c2.67-0.467,5.282-0.63,7.652,1.396
		c3.268,2.794,5.11,6.329,3.91,10.344c-1.571,5.253-4.772,9.613-10.382,11.397c-2.103,0.668-4.372,0.804-6.485,1.447
		c-2.677,0.816-5.215,0.342-7.696-0.514c-4.685-1.612-8.16-4.88-11.176-8.672c-2.336-2.938-3.896-6.233-4.538-9.975
		c-0.402-2.349-1.142-4.64-1.54-6.988c-0.519-3.063-0.83-6.161-1.27-9.238c-0.337-2.36-0.834-4.702-1.082-7.071
		c-0.423-4.043-0.699-8.102-1.049-12.152c-0.259-2.991-0.561-5.979-0.794-8.972c-0.198-2.539-0.29-5.088-0.49-7.627
		c-0.3-3.813-0.69-7.619-0.971-11.433c-0.228-3.103-0.375-6.211-0.513-9.319c-0.324-7.313,1.145-14.465,2.094-21.655
		c0.303-2.293,0.654-4.791,3.076-6.16c0.278-0.157,0.444-0.649,0.516-1.015c0.621-3.192-0.902-5.355-4.716-6.058
		c-0.937-0.173-1.911-0.323-2.853-0.261c-2.29,0.152-4.624,0.208-6.841,0.728c-2.522,0.592-3.382,3.192-1.782,5.209
		c1.415,1.784,1.742,3.735,1.612,5.848c-0.143,2.307-0.29,4.622-0.623,6.906c-0.331,2.274-0.706,4.575-1.396,6.758
		c-1.468,4.641-3.628,8.994-6.131,13.165c-0.559,0.933-1.326,1.74-2.077,2.707c-2.259-1.544-2.952-2.844-3.188-5.924
		c-0.438-5.727-0.668-11.474-1.294-17.179c-0.369-3.358,0.504-6.263,1.905-9.177c0.51-1.058,0.873-2.233,1.05-3.394
		c0.347-2.271-1.051-3.953-3.36-3.985c-4.154-0.058-8.31-0.006-12.464,0.059c-1.352,0.021-2.508,0.773-3.098,1.887
		c-0.588,1.109-0.151,2.379,0.565,3.397c0.501,0.71,1.112,1.372,1.784,1.922c1.03,0.843,1.405,1.884,1.327,3.163
		c-0.113,1.833-0.264,3.666-0.297,5.501c-0.08,4.462-0.283,8.893-1.301,13.279c-0.592,2.548-0.73,5.199-1.13,7.795
		c-0.495,3.221-1.014,6.439-1.598,9.646c-0.184,1.008-0.619,1.969-0.918,2.958c-0.943,3.116-1.579,6.366-2.885,9.32
		c-1.896,4.286-4.178,8.412-6.47,12.509c-2.6,4.646-6.352,8.146-11.2,10.43c-2.717,1.279-5.53,2.08-8.562,1.752
		c-2.422-0.263-4.826-0.878-6.496-2.695c-2.437-2.652-4.054-5.746-3.502-9.569c0.102-0.709,0.109-1.437,0.111-2.154
		c0.012-5.064,2.166-9.059,6.055-12.196c1.916-1.546,5.431-1.466,7.84,0.187c1.388,0.951,2.015,3.448,1.434,5.711
		c-0.533,2.082-1.01,2.308-3.022,1.433c-1.152-0.502-3.012,0.048-3.774,1.114c-0.681,0.953-0.4,2.416,0.777,3.367
		c2.402,1.941,5.295,2.577,8.078,1.57c2.697-0.976,4.545-3.261,5.003-6.221c0.668-4.319-0.129-8.297-2.596-12.079
		c-2.644-4.054-6.523-5.354-10.851-5.288c-4.841,0.075-8.852,2.653-11.93,6.168c-4.381,5.002-6.731,10.949-6.547,17.739
		c0.101,3.715,0.488,7.332,2.892,10.416c0.483,0.621,0.778,1.392,1.153,2.097c2.842,5.354,6.419,9.849,12.798,11.165
		c1.324,0.273,2.605,1.021,3.916,1.042c3.866,0.064,7.751,0.115,11.314-1.923c1.918-1.098,4.138-1.688,5.994-2.864
		c2.735-1.731,5.42-3.611,7.833-5.758c1.619-1.44,2.827-3.388,4.042-5.226c1.447-2.19,2.919-4.41,3.992-6.792
		c1.325-2.943,2.278-6.058,3.342-9.115c1.122-3.226,2.175-6.476,3.286-9.704c0.144-0.419,0.451-0.78,0.688-1.174
		c1.663,0.361,2.282,1.622,2.97,2.768c0.916,1.526,1.916,2.96,3.551,3.794c1.835,0.937,3.176,0.714,4.468-0.85
		c0.758-0.916,1.341-1.975,2.035-2.944c0.736-1.027,1.414-2.124,2.298-3.011c0.953-0.956,1.902-0.692,2.41,0.532
		c0.209,0.504,0.298,1.074,0.355,1.624c0.609,5.784,1.204,11.57,1.798,17.356c0.824,8.021,1.933,15.991,4.078,23.787
		c1.327,4.824,2.664,9.646,3.892,14.496c1.058,4.18,3.59,7.573,5.815,11.11c1.131,1.798,3.094,3.102,4.092,4.947
		c1.077,1.989,2.765,2.897,4.581,3.525c4.349,1.505,8.726,3.059,13.216,3.989c4.547,0.943,9.298,0.746,13.614-1.125
		c4.026-1.745,8.063-3.484,10.975-7.259c3.738-4.847,6.478-9.877,6.576-16.15C389.066,110.9,387.944,107.332,385.388,104.167z"/>
	<path fill="#A40612" d="M231.531,3.105c-2.462-0.152-4.122,1.479-6.114,2.393c-1.058,0.486-2.205,1.001-3.336,1.064
		c-5.972,0.334-11.955,0.455-17.926,0.8c-3.498,0.202-6.995,0.581-10.465,1.073c-4.182,0.593-8.219,0.569-12.028-1.583
		c-0.679-0.384-1.494-0.574-2.27-0.732c-2.68-0.545-4.823,1.079-4.949,3.779c-0.082,1.756-0.037,3.518-0.048,5.276
		c-0.007,1.199-0.064,2.401-0.006,3.597c0.094,1.924,1.6,3.996,3.182,4.399c1.856,0.473,2.697-0.788,3.636-2.064
		c0.542-0.736,1.363-1.378,2.196-1.771c4.318-2.031,8.835-1.747,13.349-0.858c0.456,0.09,1.073,0.816,1.118,1.294
		c0.236,2.525,0.476,5.069,0.403,7.598c-0.084,2.932-0.69,5.853-0.712,8.782c-0.031,4.268-0.736,8.425-1.631,12.55
		c-1.023,4.716-3.295,8.789-6.992,11.98c-1.573,1.357-2.778,1.26-5.176-0.349c-1.126-0.756-1.475-1.854-0.742-3.565
		c0.513-1.201,0.483-2.292,0.197-3.609c-1.98-0.472-3.758-0.93-5.551-1.315c-4.213-0.905-6.235,1.309-5.177,5.409
		c1.057,4.096-0.188,7.719-2.95,10.791c-1.503,1.672-3.698,1.223-4.55-0.864c-0.413-1.013-0.628-2.139-0.747-3.233
		c-0.242-2.23,0.724-4.178,1.554-6.176c0.6-1.441,1.096-2.982,1.287-4.523c0.185-1.481-0.599-2.525-2.085-2.755
		c-2.818-0.436-5.689-0.875-8.409,0.598c-2.018,1.093-2.315,1.637-1.492,3.82c1.302,3.455,0.463,6.411-1.928,9.039
		c-1.307,1.436-3.423,1.719-4.972,0.544c-0.865-0.655-1.605-1.541-2.221-2.446c-1.835-2.697-3.587-5.447-5.963-7.73
		c-1.689-1.623-3.691-2.586-6.007-2.607c-6.202-0.056-11.512,1.988-15.533,6.905c-1.358,1.66-2.693,3.352-4.177,4.896
		c-1.531,1.594-3.384,1.91-5.473,0.971c-1.627-0.732-2.709-1.899-3.418-3.493c-2.462-5.537-6.854-8.141-12.791-8.392
		c-0.958-0.041-1.928-0.041-2.871-0.193c-2.902-0.47-5.284-1.566-6.299-4.713c-0.531-1.646-1.168-3.221-1.548-4.948
		c-1.646-7.475-2.54-14.992-2.312-22.656c0.07-2.356,0.65-4.365,2.196-6.145c0.426-0.49,0.778-1.204,0.822-1.838
		c0.161-2.324-2.169-4.251-4.803-4.038c-3.26,0.264-6.519,0.545-9.772,0.875c-0.857,0.086-1.742,0.265-2.531,0.597
		c-2.208,0.928-2.754,2.906-1.012,4.487c1.524,1.383,1.595,2.998,1.667,4.743c0.019,0.473-0.012,0.948,0.016,1.42
		c0.248,4.21,0.545,8.417,0.741,12.629c0.122,2.631-0.042,5.279,0.162,7.901c0.347,4.448,0.871,8.883,1.344,13.321
		c0.396,3.724,0.876,7.44,1.225,11.169c0.272,2.907,0.402,5.828,0.593,8.743c0.21,3.22,0.681,6.406,1.787,9.438
		c0.624,1.71,1.515,3.408,3.5,3.928c0.799,0.21,1.689,0.111,2.536,0.091c5.457-0.135,10.917-0.217,16.37-0.46
		c2.884-0.129,5.593-0.947,8.091-2.544c2.48-1.587,5.094-2.973,7.693-4.364c2.626-1.406,5.166-0.979,7.333,0.917
		c2.732,2.393,5.638,4.367,9.149,5.472c3.146,0.989,6.283,1.055,9.385,0.158c3.827-1.106,6.892-3.479,9.694-6.27
		c1.86-1.854,3.833-3.619,5.913-5.218c2.524-1.94,4.174-1.65,6.216,0.903c1.184,1.48,2.281,3.038,3.314,4.629
		c2.542,3.916,7.768,4.189,11.354,2.614c4.668-2.048,8.316-5.556,11.9-9.055c2.157-2.106,4.59-3.684,7.29-4.928
		c1.699-0.783,3.351-0.605,4.812-0.018c0.281,2.596,0.61,4.951,0.773,7.318c0.179,2.604,0.479,5.217-2.136,7.108
		c-1.375,0.995-1.259,2.309,0.016,3.445c1.278,1.14,2.8,1.798,4.56,1.828c2.797,0.046,5.603,0.277,8.387,0.123
		c1.623-0.091,3.325-0.551,4.781-1.271c1.33-0.656,2.281-1.826,2.001-3.689c-0.192-1.278-0.675-2.3-1.531-3.127
		c-1.309-1.265-1.741-2.773-1.751-4.528c-0.011-1.754-0.16-3.507-0.232-5.262c-0.233-5.654-0.689-11.314-0.581-16.963
		c0.048-2.524-0.205-5.022-0.144-7.537c0.108-4.377,0.006-8.76,0.093-13.139c0.051-2.547,0.277-5.092,0.463-7.634
		c0.155-2.133,0.364-4.263,0.544-6.329c3.019-1.112,9.084-1.053,11.857,0.123c2.788,1.183,5.533,2.466,8.329,3.629
		c2.126,0.884,3.129,0.19,3.232-2.119c0.179-3.971,0.405-7.941,0.489-11.914c0.026-1.249-0.185-2.556-0.565-3.747
		C234.558,3.719,233.466,3.226,231.531,3.105z M126.692,68.964c0.005-2.172,1.836-3.928,4.151-3.977
		c1.459-0.031,4.107,3.08,4.004,4.703c-0.092,1.44-3.112,3.532-4.985,3.454C127.687,73.053,126.686,71.733,126.692,68.964z
		 M83.122,76.998c-0.122-2.222-0.266-4.5-0.367-6.779c-0.081-1.812-0.134-3.626-0.154-5.439c-0.02-1.748,0.432-2.364,2.026-2.597
		c3.101-0.454,6.016,0.095,8.654,1.848c1.2,0.797,1.823,1.901,1.938,3.376c0.4,5.124-1.677,8.039-6.795,9.28
		C86.77,77.087,85.117,77.93,83.122,76.998z"/>
	<path fill="#A40612" d="M354.495,84.471c4.447,0.744,8.895,1.767,13.49,1.521c1.725-0.092,3.492,0.306,5.214,0.624
		c1.233,0.229,2.478,0.516,3.288,1.719c0.574,0.854,1.691,0.875,2.386,0.451c1.11-0.677,2.351-1.444,2.277-3.097
		c-0.174-3.967-0.232-7.941-0.528-11.898c-0.146-1.96-2.33-3.136-4.081-2.238c-1.083,0.555-2.182,1.409-2.821,2.417
		c-0.883,1.389-2.09,1.91-3.525,2.111c-0.939,0.132-1.919,0.086-2.87,0.002c-3.239-0.284-6.471-0.685-9.713-0.918
		c-2.412-0.173-3.976-1.274-4.753-3.604c1.439-0.918,2.97-0.71,4.458-0.783c1.659-0.081,3.353-0.049,4.966-0.381
		c4.01-0.823,7.35-2.844,10.003-6.01c2.309-2.753,2.937-5.854,2.256-9.317c-0.664-3.382-3.351-5.174-5.742-7.08
		c-4.577-3.646-9.866-3.704-15.24-2.317c-4.228,1.092-7.786,3.361-9.887,7.282c-1.151,2.149-1.956,4.543-2.535,6.92
		c-0.521,2.143-0.526,4.412-0.75,6.626c-0.469,4.614,1.009,8.719,3.926,12.122C346.943,81.693,350.513,83.805,354.495,84.471z
		 M362.618,58.917c-0.059,0.459-0.688,1.024-1.19,1.215c-1.902,0.724-6.557,0.873-8.918,0.417c-0.113-2.219,1.687-4.47,4.101-4.462
		l5.222,1.304C362.246,57.533,362.679,58.429,362.618,58.917z"/>
	<path fill="#A40612" d="M65.301,82.892c-1.02-0.855-2.278-1.819-2.645-2.981c-0.854-2.706-2.349-5.121-2.981-7.956
		c-0.949-4.252-2.544-8.356-3.824-12.536c-1.857-6.065-3.78-12.112-5.482-18.221c-1.422-5.103-2.511-10.299-3.859-15.424
		c-0.885-3.363-1.939-6.683-2.984-10.001c-0.329-1.044-0.475-2.014,0.103-2.988c0.782-1.32,0.787-2.705,0.416-4.242
		c-0.607-0.173-1.215-0.514-1.805-0.486c-3.025,0.145-6.049,0.354-9.069,0.6c-2.694,0.22-5.39,0.458-8.07,0.803
		c-1.323,0.171-2.68,0.443-3.903,0.953c-1.936,0.805-2.261,1.934-1.35,3.842c0.202,0.423,0.452,0.904,0.82,1.153
		c1.271,0.858,1.414,2.014,1.113,3.369c-0.155,0.7-0.204,1.422-0.356,2.123c-1.156,5.293-2.459,10.558-3.462,15.879
		c-1.638,8.69-3.879,17.232-6.125,25.769c-1.397,5.31-3.218,10.507-4.806,15.768c-0.422,1.397-1.051,2.594-2.016,3.73
		c-1.123,1.323-2.022,2.866-2.848,4.405c-1.586,2.96-0.256,5.394,3.113,5.841c0.866,0.115,1.817-0.043,2.602,0.256
		c3.104,1.185,6.293,0.4,9.436,0.518c1.296,0.049,2.443-0.657,3.288-2.066c-0.992-1.919-1.829-3.718-0.953-5.934
		c2.967-7.512,4.23-15.498,6.327-23.253c0.219-0.812,0.614-1.636,1.129-2.297c2.211-2.845,6.524-4.169,9.914-3.115
		c0.289,0.09,0.734,0.274,0.774,0.479c0.33,1.715,1.9,2.679,2.335,4.467c0.993,4.088,2.459,8.064,3.812,12.06
		c0.716,2.112,1.824,4.113,2.36,6.263c1.038,4.163,3.25,8.26,0.976,12.74c-0.542,1.068,0.088,1.894,1.258,2.456
		c1.782,0.856,3.514,0.754,5.284-0.087c2.79-1.325,5.66-2.489,8.398-3.909c1.309-0.678,2.525-1.661,3.55-2.73
		C67.615,86.21,67.337,84.599,65.301,82.892z M30.779,46.423c-1.214-0.554-1.813-1.329-1.682-2.538
		c0.35-3.23,0.751-6.457,1.252-9.667c0.203-1.3,0.592-2.626,1.964-3.45c1.986,1.602,3.18,3.632,3.906,5.915
		c0.673,2.118,1.207,4.286,1.697,6.455c0.417,1.845,0.055,2.555-1.817,2.925C34.375,46.403,32.683,47.293,30.779,46.423z"/>
</g>
</svg>
