<svg id="aurelien-animation" xmlns="http://www.w3.org/2000/svg" width="1200" height="1200" viewBox="0 0 1200 1200"><g id="aurelien_1"><g id="echarpe"><path fill="#202020" d="M553.75 248.24c-.016.087-.022.23-.048.275-.033.032-.026.044-.06.11-.087.143-.19.296-.332.456-.27.318-.61.65-.992.98-.762.67-1.673 1.37-2.68 2.122-2.016 1.505-4.44 3.206-7.02 5.305-1.283 1.06-2.615 2.21-3.872 3.556-1.236 1.342-2.49 2.886-3.104 4.786-.548 1.915-.747 4.004-.394 6.09.39 2.08 1.34 4.09 2.722 5.84 2.772 3.527 6.817 6.163 11.094 8.564 2.15 1.206 4.39 2.35 6.663 3.55 1.135.6 2.28 1.214 3.418 1.877l.852.51c.336.212.558.374.844.563l1.63 1.102c4.378 3.017 8.58 6.418 12.8 9.847 4.217 3.425 8.47 6.852 13.01 9.767 4.538 2.953 9.323 5.262 14.4 7.018 5.097 1.832 10.104 3.872 15.078 5.24 2.474.752 4.918 1.497 7.325 2.23 1.19.394 2.42.668 3.626.97l3.588.89 6.965 1.728c2.28.52 4.54.904 6.72 1.345l6.357 1.243c2.04.405 4.088.7 6.017 1.04l10.655 1.753c6.43 1.07 11.4 1.972 14.41 2.583 2.842.56 7.698 1.627 13.98 3.343 6.27 1.73 13.978 4.175 22.263 7.84 1.046.433 2.076.942 3.122 1.448 1.045.51 2.102 1.022 3.17 1.543 1.05.563 2.107 1.133 3.178 1.71l1.607.872 1.585.95 3.122 1.873 3.242 1.848c2.174 1.29 4.39 2.4 6.63 3.55 9.025 4.597 18.964 8.474 28.873 12.042 9.915 3.583 19.838 6.888 28.968 10.434 9.138 3.518 17.47 7.29 24.385 11.11l2.53 1.424c.834.47 1.64.89 2.356 1.457.727.542 1.48 1.023 2.136 1.58l1.934 1.602c2.428 2.182 4.408 4.297 6.04 6.142 3.228 3.715 5.25 6.206 5.864 6.87.6.68-.647-.67-3.28-3.58-1.318-1.453-2.986-3.287-5.055-5.33l-1.63-1.56c-.586-.51-1.19-1.037-1.816-1.58-.612-.566-1.306-1.03-1.982-1.572-.662-.54-1.42-1.048-2.21-1.563l-1.187-.79-.074-.05-.038-.025c.02.013-.1-.063.036.022l-.16-.084-.32-.165-.648-.332-2.66-1.37c-1.79-.967-3.728-1.827-5.717-2.746-1.973-.95-4.076-1.793-6.223-2.69-2.132-.926-4.39-1.725-6.668-2.606-9.152-3.436-19.35-6.516-29.76-9.78-10.414-3.248-21.058-6.76-31.024-11.054-2.502-1.02-4.947-2.216-7.37-3.358-1.23-.56-2.38-1.167-3.516-1.772-1.142-.602-2.275-1.2-3.398-1.79l-.93-.503-.81-.45-1.605-.895c-1.065-.592-2.11-1.196-3.19-1.707l-3.17-1.58c-1.05-.508-2.115-.95-3.148-1.42-8.31-3.696-16.097-6.035-22.372-7.695-6.277-1.665-11.08-2.607-13.64-3.182-2.568-.55-7.58-1.613-14.45-2.923l-11.614-2.208-6.68-1.305-7.19-1.603-3.76-.84c-1.272-.28-2.563-.557-3.843-.94L629.415 334l-4.062-1.13c-1.357-.424-2.716-.903-4.09-1.358-2.742-.924-5.525-1.86-8.34-2.81-1.424-.442-2.77-1.02-4.146-1.568l-4.135-1.66c-1.383-.557-2.77-1.115-4.163-1.674l-2.092-.84c-.795-.345-1.436-.655-2.162-.986-5.65-2.623-10.847-6.17-15.602-9.995-4.77-3.827-9.18-7.873-13.667-11.568-2.264-1.856-4.454-3.605-6.783-5.27-2.18-1.66-4.644-2.965-7.04-4.34-4.804-2.715-9.562-5.396-13.393-8.98-.946-.905-1.83-1.86-2.62-2.88-.774-1.035-1.444-2.135-1.974-3.288-.517-1.163-.855-2.38-1.05-3.594-.155-1.22-.166-2.43-.017-3.588.06-.58.204-1.17.31-1.733l.22-.765.108-.378.08-.263.086-.2c.445-1.08 1.057-1.995 1.7-2.817 1.307-1.63 2.75-2.91 4.125-4.054 2.778-2.257 5.35-3.943 7.422-5.36 2.076-1.406 3.69-2.522 4.634-3.375.47-.414.774-.79.874-.963.01-.024.028-.042.048-.057.02-.022.024-.106.034-.14l.03-.128zM846.253 412.38c-.088-1.325-.165-4.25-.228-7.97-.057-1.86.09-3.915.143-6.083.09-2.163.122-4.453.342-6.7l.55-6.674c.22-2.152.5-4.19.725-6.034.12-.922.23-1.793.335-2.6l.154-1.16.2-1.113c.236-1.31.43-2.32.565-2.927.062-.287.166-.67.304-1.14.073-.238.138-.487.242-.772.116-.288.24-.596.374-.924.555-1.298 1.19-2.926 2.05-4.64 1.82-3.358 4.24-7.31 7.243-10.578l1.07-1.252c.36-.41.755-.783 1.125-1.17.75-.76 1.483-1.506 2.193-2.228 1.45-1.405 2.856-2.65 4.04-3.755 2.438-2.145 4.135-3.618 4.383-3.89.25-.27-.903 1.197-2.813 3.592-.967 1.19-2.032 2.67-3.245 4.25-.622.782-1.17 1.66-1.776 2.524-.583.88-1.245 1.744-1.793 2.682l-1.66 2.81c-.288.46-.55.933-.768 1.423-.233.482-.465.96-.693 1.436-.99 1.855-1.633 3.775-2.278 5.458-.152.423-.336.825-.448 1.228l-.32 1.163c-.21.74-.4 1.418-.57 2.02-.17.61-.342 1.105-.45 1.572l-.25 1.12c-.132.525-.424 1.54-.834 2.915l-.33 1.096-.09.294c-.016.07.02-.085.017-.066l-.003.01-.005.018-.01.038-.02.075-.04.15-.16.626-.724 2.76c-.498 1.97-1.147 4.157-1.675 6.473l-1.647 7.12c-.513 2.39-.925 4.752-1.362 6.957-.205 1.104-.433 2.16-.595 3.173l-.415 2.86c-.518 3.526-.855 5.834-.855 5.834zM600.978 260.255l4.657.01c.948-.023 1.957.07 3.043.156 1.088.087 2.25.18 3.48.276 4.9.607 10.893 1.597 17.434 3.444 6.54 1.828 13.653 4.334 20.94 7.354 7.294 3.012 14.766 6.52 22.148 10.156l10.987 5.488c3.63 1.854 7.188 3.556 10.712 5.413 3.47 1.75 6.878 3.71 10.093 5.553 1.596.94 3.16 1.864 4.69 2.766 1.515.92 2.993 1.82 4.432 2.695 11.46 7.074 20.3 12.522 24.2 14.793 3.69 2.12 12.34 7.817 24.18 13.287 5.94 2.646 12.706 5.21 20.042 6.702 1.845.29 3.71.58 5.586.874 1.836.176 3.875.31 5.816.468 3.943.372 7.867.474 11.788.626 7.85.26 15.672.287 22.978.365l10.545.19 9.484.404c11.81.69 19.855 2.2 21.196 2.287.668.077-.69-.04-3.603-.306l-5.474-.506c-2.177-.17-4.703-.188-7.49-.308-1.398-.033-2.857-.136-4.387-.12l-4.762.03c-1.643.01-3.34.024-5.084.038l-5.372.163-23.478.815c-4.085.112-8.27.106-12.402.134l-6.126-.192-3.04-.095-.38-.012-.187-.005-.156-.01-.098-.01-.774-.083-1.546-.17c-2.052-.248-4.115-.37-6.075-.843l-2.945-.594c-.98-.19-1.946-.384-2.875-.677l-5.517-1.58-5.147-1.84c-6.608-2.565-12.292-5.264-16.69-7.623-4.452-2.288-7.625-4.23-9.373-5.213-.864-.507-2.105-1.296-3.704-2.292-1.603-.993-3.537-2.222-5.736-3.67-4.43-2.86-9.92-6.58-16.16-10.712-3.112-2.077-6.43-4.214-9.888-6.418l-5.29-3.234-5.636-3.214c-7.644-4.18-15.63-8.703-23.546-12.917-7.926-4.226-15.85-8.167-23.405-11.38-7.55-3.228-14.735-5.696-20.983-7.325-1.568-.378-3.058-.81-4.495-1.095-1.44-.278-2.805-.54-4.085-.788-1.28-.287-2.484-.363-3.595-.527l-3.053-.392-5.876-.335zM606.24 247.58c.834.092 1.766.267 2.866.34 1.108.05 2.337.13 3.655.054 2.646-.082 5.716-.427 9.1-1.1 3.39-.657 7.098-1.587 11.088-2.677 3.994-1.078 8.26-2.35 12.855-3.42 9.217-1.94 19.47-3.884 30.364-5.118 2.717-.356 5.488-.507 8.273-.773 2.793-.177 5.617-.293 8.458-.387l4.28.015 2.148.008c.717.02 1.434.08 2.152.12l4.314.265.54.033.136.01.172.02.265.032 1.062.13 2.122.26 2.12.262c.707.082 1.43.26 2.145.388l4.3.84 4.18 1.08c.695.187 1.397.35 2.082.555l2.043.644c5.478 1.64 10.698 3.733 15.772 5.785 10.098 4.208 19.46 8.61 28.047 11.95 8.574 3.377 16.372 5.665 22.803 6.934 6.368 1.126 11.663 1.632 14.773 2.072l2.604.352c.992.13 2.115.33 3.326.406l8.578.784c1.638.132 3.35.366 5.19.444l5.76.288 6.24.32c2.155.12 4.388.082 6.68.134 18.334.387 40.71-.647 62.534-2.51l4.073-.338 4.065-.41 4.04-.407c1.344-.132 2.683-.254 3.99-.48l7.805-1.173c2.577-.36 5.104-.898 7.6-1.327 4.99-.88 9.797-1.84 14.368-2.728 2.278-.477 4.538-.805 6.698-1.17l6.287-1.068c8.082-1.404 14.91-2.706 19.93-3.825 2.51-.56 4.568-1.075 6.11-1.54 1.55-.492 2.535-.827 3.102-1.39.078-.092.14-.19.182-.275.046-.12.06-.217.066-.27.006-.103.02-.06-.02.138-.114.435-.494.696-.898.922-.853.47-2.274.976-4.248 1.57-3.94 1.18-10.037 2.66-17.658 4.334-3.812.836-8.003 1.72-12.497 2.632l-3.427.688-.874.173-.834.19-1.764.41c-2.37.548-4.802 1.11-7.288 1.687-2.484.582-5.047 1.112-7.64 1.687-2.6.563-5.228 1.17-7.95 1.642-2.714.504-5.46 1.014-8.23 1.53-2.766.374-5.554.754-8.357 1.135-22.504 2.93-46.06 4.91-65.456 5.278-4.848.062-9.426.22-13.66.045l-6.078-.143c-1.934-.067-3.76-.04-5.498-.2l-9.018-.648c-1.258-.095-2.386-.18-3.374-.253-.987-.076-1.8-.222-2.487-.303l-5.942-.832c-2.568-.38-5.674-.75-9.4-1.494-7.39-1.353-16.444-4.156-26.15-8.27-4.843-2.068-9.9-4.378-15.08-6.835-5.193-2.44-10.538-5-16.075-7.366-2.756-1.23-5.59-2.298-8.432-3.425-2.877-.99-5.758-2.068-8.722-2.857-1.474-.434-2.95-.88-4.43-1.173-1.488-.32-2.938-.702-4.464-.976l-4.653-.71c-.363-.05-.828-.14-1.108-.155l-1.15-.103-2.3-.21c-12.28-1.124-24.587-.167-35.906 1.172-5.666.667-11.087 1.536-16.244 2.393-5.115.773-9.835 1.98-14.24 3.04-4.396 1.07-8.44 2.012-12.064 2.658-3.623.644-6.815 1.04-9.466 1.113-1.323.045-2.504.025-3.54-.016-1.034-.096-1.937-.13-2.622-.245l-2.1-.36zM990.136 258.022c.174-.287.384-.627.812-1.267.22-.312.47-.73.84-1.196l1.474-1.632-.628-.316c-.153 1.327-.25 3.18-.72 5.348-.108.543-.2 1.117-.335 1.7l-.457 1.8c-.29 1.25-.7 2.54-1.12 3.894-1.687 5.416-4.31 11.504-6.85 17.433-2.564 5.925-4.938 11.74-6.43 16.556l-.547 1.75-.437 1.647c-.28 1.057-.55 2.027-.705 2.91l-.467 2.238c-.11.71-.204 1.3-.274 1.755-.138.918-.566 2.568-.787 4.44-.133.964-.362 2.02-.42 3.247-.076 1.21-.278 2.52-.245 3.91l-.03 2.147c-.02.735.07 1.48.1 2.247.06.763.056 1.55.163 2.336l.296 2.4c.476 3.233 1.188 6.605 2.17 9.89 1.885 6.598 4.477 12.904 6.295 17.766 1.863 4.854 3.022 8.257 3.258 8.798.21.55-1.027-2.16-3.27-6.534-2.222-4.387-5.522-10.416-8.45-17.08-1.412-3.356-2.77-6.853-3.718-10.377-.28-.867-.443-1.76-.654-2.63-.182-.874-.433-1.725-.55-2.588-.26-1.72-.584-3.378-.666-4.977-.064-.798-.128-1.574-.19-2.324-.037-.75-.02-1.48-.028-2.178l-.006-2.01c-.004-.637.078-1.263.112-1.842l.25-3.027.304-1.82.33-1.675.117-.563.063-.303.016-.078.027-.128.01-.04.046-.167.396-1.44c.28-1.03.596-2.19 1.047-3.41l.667-1.923c.24-.66.526-1.323.802-2.017 1.088-2.78 2.523-5.75 4.055-8.83 1.566-3.053 3.262-6.2 4.956-9.293 3.394-6.187 6.61-12.3 8.6-17.296.46-1.256.93-2.418 1.29-3.49l.902-2.887c.413-1.7.698-2.87.826-3.325.938.472 1.004.505 1.07.54-.797.863-1.472 1.44-1.89 2.03l-.943 1.25-.48.627zM697.54 295.575c2.448.503 6.582 1.132 11.784 1.098 5.223.052 11.543-.558 18.635-1.122 14.213-1.48 31.728.46 48.542 4.717 2.11.507 4.19 1.127 6.282 1.686 2.085.583 4.137 1.253 6.192 1.872L801.042 307c7.94 2.082 15.49 3.95 22.322 5.307 3.41.716 6.65 1.212 9.647 1.694 1.5.232 2.948.367 4.325.544l2.017.244.488.06.193.02.246.018.967.076c5.146.483 8.86.497 11.21.59l8.604.183c3.802.086 8.49.134 13.786.382 5.302.33 11.208.573 17.426 2.01l2.263.476 1.142.24c.384.096.776.227 1.166.34l4.71 1.415 1.186.36 1.142.44 2.292.89c1.525.606 3.086 1.144 4.56 1.88l4.475 2.08c1.468.732 2.9 1.524 4.347 2.28l2.154 1.144 2.098 1.214c1.39.81 2.772 1.614 4.143 2.41 2.696 1.655 5.36 3.26 7.903 4.868l3.783 2.38 3.557 2.395c4.655 3.11 8.847 6.045 12.554 8.335.92.587 1.8 1.148 2.635 1.683l2.456 1.384 4.034 2.27-.023-.01c3.16 1.748 5.943 3.05 8.252 3.83 1.142.43 2.146.778 3.005 1.034l2.095.668.044.014.09.004c3.02.156 5.022.373 6.244.525l.404.066.074.016s-.005 0-.007-.002l-.178-.122c-.117-.115-.156-.296-.145-.4-.012-.117.06-.32.197-.418.06-.05.14-.08.17-.09l.002-.002c.004-.003.014-.002-.02 0-.18.016-.394.017-.552.02h-.683c-.246 0-.23-.003.03-.014l.568-.022.402-.024.206-.02c.046-.004.052-.01.03-.003l-.162.078c-.104.068-.2.198-.234.32-.033.132-.028.207-.017.318.017.11.082.24.173.325.08.085.22.134.182.12l.008.006c-.143-.02-.296-.037-.46-.057l-.656-.057-1.57-.103c-1.14-.06-2.542-.143-4.008-.154l-.106-.002-.11-.03c-3.676-.982-8.54-2.356-13.646-5.164l.082.042-6.672-3.27-6.993-3.967-7.28-4.393-3.765-2.27-1.87-1.12-1.957-1.096c-5.235-2.958-10.618-5.89-16.05-8.645l-4.11-1.94c-.685-.316-1.36-.655-2.05-.953l-2.078-.853c-1.384-.562-2.752-1.148-4.126-1.68-1.393-.47-2.776-.938-4.15-1.4-.685-.232-1.367-.46-2.047-.69l-2.037-.518-4-1.028c-1.35-.3-2.772-.484-4.125-.727l-2.03-.34-1.004-.168-.25-.043-.062-.01.113.018-.03-.002-.123-.01-.49-.04c-2.613-.186-5.11-.467-7.546-.494l-3.546-.12-3.384-.016c-8.762.005-15.438.176-18.452.06-1.056-.026-2.584-.027-4.62-.166-2.017-.123-4.517-.223-7.215-.565-.683-.074-1.39-.15-2.117-.23l-1.16-.125-1.154-.175-4.924-.75c-3.41-.632-7.114-1.324-10.983-2.27-7.76-1.817-16.26-4.316-25.053-6.982l-6.664-2.007-1.684-.506-.42-.126-.53-.18-.825-.287-3.31-1.155c-2.208-.778-4.466-1.432-6.703-2.157-2.255-.657-4.52-1.293-6.778-1.912-9.082-2.37-18.16-4.034-26.734-4.76-8.538-.88-16.5-.2-23.36-.01-3.424.116-6.567.163-9.35.082-2.784-.107-5.206-.264-7.184-.555-.99-.105-1.875-.283-2.643-.416-.774-.124-1.408-.27-1.917-.396-1.024-.24-1.568-.37-1.568-.37z"/></g><g id="visage"><path fill="#202020" d="M565.123 239.62c1.07.59 4.365.757 7.595.576 1.61-.076 3.218-.22 4.427-.392l.422-.07.05-.01.025-.003h.003l-.135-.004h.007l.014-.004.115-.023.22-.045.796-.15 1.046-.167c.16-.037.434-.027.805.022.187.025.397.06.632.105l.832.062.958.083 1.062.016c.734.03 1.523-.016 2.312-.046 1.582-.083 3.173-.223 4.38-.318 1.21-.085 2.038-.142 2.162-.19.222-.094-2.233 1.484-5.077 3.228-1.457.834-3.06 1.692-4.527 2.195-1.392.57-2.804.768-3.255.83-.27.036-.654-.002-1.162-.074l-.87-.12-.244-.037-.126-.02-.064-.01h-.016l-.008-.002-.152-.005-.037-.007-.606-.125c-1.603-.37-3.41-.963-5.154-1.635-1.74-.68-3.392-1.437-4.583-2.17-.59-.348-1.073-.714-1.44-1.036-.17-.15-.23-.256-.306-.333-.063-.08-.097-.12-.097-.12zM578.578 206.822c.186.536.48 1.72.817 3.23.184.75.317 1.59.46 2.483.13.89.306 1.838.397 2.782.164 1.885.345 3.81.292 5.373-.003.785-.014 1.487-.032 2.06.055.187-.038 1.02.02.927.014.034-.006.065-.024.128-.007.057-.058.17-.08.208-.02.03-.046.07-.063.07l-.042.028c-.07.04-.087.032-.137.06-.26.154-.116.072-.12.05-.103.132.167.522.776.743.584.245 1.384.375 2.2.407 1.648.07 3.382-.22 4.66-.647 1.29-.41 2.138-1.036 2.243-1.174.102-.143-.276.677-1.255 1.655-.972.983-2.494 2.128-4.373 2.98-.94.428-1.976.78-3.13.942-1.133.155-2.498.13-3.853-.583-.673-.337-1.26-.9-1.696-1.464-.416-.582-.667-1.156-.828-1.655-.284-.997-.296-1.61-.277-2.017.01-.17.042-.52.096-.782l.227-.886.643-1.963c.565-1.517 1.046-3.445 1.576-5.342.418-1.9.867-3.78 1.083-5.237l.418-2.376zM545.614 218.59c-.45.117-1.277.293-2.496-.04-1.196-.304-2.554-1.08-3.766-2.048-2.435-1.938-4.13-4.723-4.417-5.557-.146-.388-.227-1.425-.096-2.74.13-1.313.506-2.918 1.195-4.323.7-1.416 1.76-2.542 2.708-2.987.927-.477 1.586-.456 1.664-.523.107-.03-.343.296-.75.955-.396.673-.654 1.664-.553 2.77.13 2.222 1.41 4.514 1.553 5.013.07.265.154 1.073.373 2.15.22 1.072.595 2.41 1.17 3.616.555 1.22 1.328 2.27 2.044 2.882.385.313.62.495.908.635l.462.196zM617.19 218.07c.306-.113 1.19-.202 1.933-.69.764-.455 1.378-1.242 1.8-2.067.856-1.694 1.013-3.533 1.17-3.96.143-.394 1.72-1.53 2.884-3.194.572-.814 1.032-1.74 1.202-2.557.187-.815.038-1.486-.007-1.57-.068-.082.38.244.845 1.015.466.763.87 1.953 1.018 3.198.362 2.503-.25 5.214-.546 5.753-.27.526-2.172 2.92-4.894 4.115-1.33.613-2.864.792-3.892.547-.48-.086-1.008-.286-1.177-.397l-.338-.194zM577.966 176.027c.09-.275.257-.7.483-1.235.115-.265.232-.57.388-.875l.584-.948c.837-1.404 2.225-2.855 3.826-4.13 3.25-2.513 7.17-3.892 8.208-4.134 1.035-.283 5.045.12 8.66.785 1.825.315 3.592.633 4.963.83 1.367.2 2.338.278 2.49.265.153-.02-.594.234-1.853.63-1.254.364-3.023.833-4.84 1.274-3.668.864-7.396 1.907-8.187 2.1-.84.138-4.91.166-8.467 1.4-1.785.604-3.37 1.582-4.452 2.385-.566.415-.996.913-1.314 1.188l-.49.464zM604.218 168.047c.034.024.155.115.124.094.002.02.024-.047.073.065.09.152.18.353.274.587.185.47.38 1.066.586 1.747l.66 2.263c.237.784.497 1.75.837 2.365l-1.623-.702 1.904-1.75c.626-.57 1.23-1.095 1.772-1.676 1.092-1.11 1.974-2.007 2.355-2.426l4.414-4.837.107 7.653c.008.473.113.568.125.655.068.19.02.832.604 2.402.26.766.643 1.754.855 2.934.115.58.15 1.227.12 1.85v.06l.004.07-.002.005-.002.01-.004.023-.016.09-.03.182-.063.363-.126.726c-.14.948-.416 1.97-.628 2.86-.223.897-.47 1.7-.66 2.41-.385 1.412-.63 2.414-.637 2.577-.003.164-.138-.662-.335-2.042-.09-.68-.194-1.492-.31-2.38-.14-.873-.254-1.725-.44-2.678l-.316-1.465-.078-.366c-.01.028-.06-.116-.084-.163-.05-.138-.13-.278-.203-.414-.295-.544-.785-1.13-1.286-1.762-.505-.627-1.033-1.322-1.423-2-.397-.668-.638-1.325-.728-1.68-.045-.147-.096-.364-.15-.834-.066-.454-.113-1.198.047-2.298l4.562 2.842-3.366 1.59c-1.515.696-3.37 1.37-4.773 1.89l-1.87.69-.31-1.632c-.16-.857-.14-1.423-.147-2.015 0-.576.02-1.105.038-1.6l.117-2.502c.03-.678.038-1.203.023-1.51-.002-.086-.012-.158.013-.122.015 0 .06.006.06-.02l-.065-.13zM615.443 187.412c.113-.208.34-.608.707-.998.402-.39 1.053-.812 1.828-.965.777-.184 1.627-.13 2.24-.033.637.104 1.035.217 1.2.308.122.07.28.493.324.985.07.516.045 1.103.08 1.697.024.59.147 1.178.384 1.623.227.44.51.705.553.72.042.007-.196.12-.685.246-.466.094-1.214.112-1.903-.022-.714-.123-1.364-.317-1.834-.438-.48-.137-.762-.185-.843-.26-.063-.047-.17-.354-.237-.673-.08-.327-.13-.724-.307-1.067-.082-.204-.222-.33-.364-.506-.13-.122-.256-.274-.443-.366-.422-.153-.7-.252-.7-.252zM615.783 189.043c.22.31.54.81.94 1.458l.652 1.075.618 1.323c.963 1.896 1.57 4.44 2.023 7.103l-2.577-.565c.46-1.462 1.177-2.845 2.12-4.076.942-1.224 2.136-2.31 3.592-3 .717-.34 1.766-.528 2.344-.595.645-.077 1.153-.1 1.574-.128.842-.046 1.23-.12 1.37-.16.092-.008.132-.025.187-.006.002.01-.007-.012.01.032l.066.162c.032.065.054.107.053.116.015.042.036.087.065.135l.044.062-.02-.026c-.013-.014-.024-.023-.033-.027-.06-.07-.138-.144-.214-.2-.013.028.05-.02.102-.032l.012-.002.007-.002c.017.584.003.158.007.287l-.002-.006-.003-.013-.028-.103c-.027-.072.04-.112.056-.17.057-.108.114-.22.173-.33-.01-.034-.008.135.054.07.2-.523.065-1.668.108-3.273.016-.215.048-.454.078-.677l.08-.503.086-.22c.065-.17.373-.96.557-1.185.418-.667.84-1.13 1.098-1.51.076-.1.128-.187.17-.266l.038-.063.02-.032.005-.007.003-.004c-.022.314-.006.082-.01.15l.005-.028.045-.235c.022-.14.072-.35.072-.43.003-.085.014-.175.028-.273-.01-.44-.153-.95-.407-1.42-.532-.947-1.33-1.77-1.95-2.492-.637-.723-1.097-1.38-1.32-1.87-.212-.5-.228-.808-.27-.888-.022-.167.213.67 1.644 1.558.692.47 1.642.947 2.72 1.757.526.426 1.12.917 1.59 1.695.13.174.214.4.317.61l.144.323.11.405.09.417.038.21.016.128.055.487.004.03.002.016v.01l-.02.263-.013.1-.028.2-.068.4c-.06.23-.125.466-.194.68l-.388 1.043c-.1.272-.19.56-.196.682.004.018.006.035.004.05l-.004.02-.01.11-.022.243-.01.122-.002.015v.008c-.008.05.06-.407.032-.212l.005.014.01.026c.05.21.186.71.353 1.242.17.576.372 1.21.48 2.008l.065.603c.025.183-.007.562-.03.83-.028.285-.08.606-.127.836l-.088.362-.044.175-.02.085-.007.02-.002.006-.112.273-.008.018-.034.073-.28.56c-.168.356-.485.723-.732 1.032-.59.625-1.262 1.048-1.8 1.275-.548.237-.945.324-1.217.375-.576.12-1.63.125-2.56-.007-.97-.132-1.835-.246-2.204-.257-.7.11-1.628.56-2.473 1.233-.85.667-1.627 1.53-2.19 2.373l-3.793 5.68.558-6.39c.275-3.165 0-5.885-.368-7.798-.204-.98-.466-1.78-.596-2.32l-.225-.845zM626.18 161.122l.126-.383c.05-.144.09-.41.122-.63.013-.44-.058-.913-.257-1.377-.37-.938-1.095-1.858-1.997-2.773-1.802-1.835-4.327-3.67-6.904-5.407-2.597-1.75-5.22-3.31-7.465-4.79l-.438-.304c-.152-.12-.3-.237-.448-.352l-.696-.537c-.445-.345-.854-.66-1.226-.973-.734-.607-1.314-1.105-1.62-1.386-.606-.54-1.815-2.117-3.39-3.907-1.577-1.806-3.632-3.798-6.137-5.295-5.058-3.208-10.732-4.93-11.215-5.08-.254-.05 1.053.054 3.226.252 1.084.135 2.382.323 3.816.558.723.16 1.477.33 2.25.5.384.093.8.17 1.17.28l1.116.34 1.125.343.564.174.283.086.07.02.16.07.148.06c.778.338 1.583.647 2.33 1.02.727.4 1.473.77 2.14 1.188.653.43 1.307.834 1.887 1.247 2.323 1.67 3.866 3.09 4.42 3.614.28.277.774.82 1.408 1.543.316.364.68.78 1.104 1.245l.65.723.17.19.086.097.043.048.02.024.01.01.007.007-.07-.064.323.33c1.978 1.913 4.687 4.396 7.088 6.957 2.414 2.574 4.656 5.245 5.843 7.7.6 1.208.885 2.442.71 3.37-.058.43-.297.94-.385 1.022l-.164.24zM588.585 130.25c.042-.017.088-.033.185-.056.056-.01.29-.11.32-.13.028-.028.05-.02.077-.038l1.805-1.27-1.776.22c-.96.117-2.9.243-5.345.36-2.437.097-5.355.21-8.252.325l-4.204.127-.502.013-.125.003c.005.002-.1-.002-.003.005l-.063.006-.25.024-.983.095c-.63.07-1.3.092-1.792.215-2.024.346-3.793.78-4.543.895-.712.13-2.42.18-4.734.23-2.325.03-5.265.01-8.23-.392l.066-2.76c1.747.382 3.104 1.164 4.333 1.912 1.204.778 2.278 1.55 3.23 2.205.95.665 1.796 1.185 2.443 1.558.667.34 1.116.554 1.242.596.283.065-1.292-.14-3.566-.924-1.138-.378-2.45-.876-3.83-1.316-1.362-.416-2.86-.798-4.01-.708l.092-3.887c2.563-.308 5.138-.908 7.27-1.415 2.146-.53 3.855-.905 4.533-1 .35-.056 1.053-.105 2.017-.143.487-.017 1.006-.053 1.632-.05l2.05.04c.76-.005 1.384.117 2.12.184.358.042.724.083 1.095.125l.083.005.018.003.035.006.07.012.143.026.284.053.574.11c1.533.292 3.133.6 4.715.9l8.433 1.672c2.28.46 3.833.782 3.963.825l.78.25-.81.935c-.013.014-.02 0-.036.005-.032.017.012-.006-.134.057-.243.092-.276.073-.32.083l-.095.012zM558.933 133.96c-.218.2-.58.498-1.05.865-.45.446-.994.903-1.504 1.53-1.068 1.19-2.165 2.744-3.348 4.325-.613.805-1.19 1.553-1.96 2.364l-.936.977c-.292.313-.75.636-1.104.928-.786.632-1.358.995-1.882 1.356-.52.354-.882.56-1.13.693-.418.22-1.405.473-2.665.77-1.25.304-2.71.682-4.158 1.377l-1.03-2.686 1.31.26c.226.04.452.094.687.126l.713.05 2.7.175c.814.018 1.513.164 2.01.24.498.078.81.12.894.113.168 0-.812.23-2.27.703-1.47.526-3.49 1.457-6.043 1.896l-5.354.92 4-4.446c1.323-1.47 2.863-2.647 4.066-3.417 1.203-.79 2.107-1.3 2.455-1.463.392-.18 1.755-.596 3.08-1.076l.51-.178c.088-.033.174-.055.272-.098l.32-.167 1.255-.653c.812-.46 1.682-1.018 2.566-1.605 1.76-1.18 3.58-2.347 5.085-3.03l1.062-.444c.31-.12.562-.16.778-.227l.67-.18zM541.755 148.413c-.152.285-.417.722-.768 1.27-.17.28-.383.57-.576.915l-.528 1.14c-.405.746-.636 1.702-.943 2.617-.226.98-.464 1.945-.623 2.996l-.526 3.1c-.207 1.027-.4 2.03-.654 2.93-.265.883-.542 1.767-.733 2.328-.21.592-.384 1.044-.505 1.31-.133.297-.483.812-.945 1.44-.45.622-1.034 1.375-1.688 2.19l-1.945 2.595-1.79 2.638-.764-.942c.765.102 1.635-.16 2.348-.418.716-.292 1.35-.628 1.822-1.003.504-.343.837-.74 1.084-1.038.212-.33.34-.56.37-.635.117-.42-.35 3.857-5.41 5.465l-2.15.684.424-2.814c.7-4.645 2.734-9.782 3.19-10.7.227-.43 1.1-1.745 2.003-3.17.926-1.526 1.935-3.603 3.076-5.767 1.16-2.16 2.627-4.146 4.01-5.41.31-.354.633-.53.903-.746l.706-.523.613-.45zM533.91 173.014c.223.524.496 1.773 1.102 3.218.59 1.443 1.415 3.096 2.284 4.792.847 1.697 1.712 3.455 2.216 5.113.127.408.267.797.355 1.16l.242.897c.14.54.23.985.27 1.246.1.64-.11 2.52-.58 4.67-.475 2.126-1.265 4.63-2.535 6.094l-.743-.566c1.41-.783 2.464-1.438 3.12-2.12.664-.667.885-1.27.928-1.38.02-.073.017.045-.018.33-.02.296-.127.73-.337 1.258-.417 1.044-1.4 2.297-2.385 3.438l-3.343 3.876.96-5.692c.244-1.452-.04-3.678-.346-5.432-.33-1.795-.645-3.246-.687-3.742-.02-.217-.018-.64-.003-1.22l.02-1.007.01-.284c.008-.047 0-.16.002-.24 0-.176 0-.36-.002-.547.035-1.502-.2-3.533-.44-5.608-.222-2.092-.432-4.117-.34-5.766-.013-.812.125-1.383.165-1.82l.086-.668zM539.08 194.518c.068.223.166.537.287.925.156.416.336.878.61 1.343.53.945 1.34 1.916 2.284 2.882.944.973 2.007 1.97 2.96 3.134.955 1.143 1.768 2.547 2.13 3.936l-3.522-1.792c.54-.396 1.12-.81 1.203-.97l.043-.055c-.05-.076.16.146.16.176.044.063.09.124.14.182.1.116.21.22.333.313.062.047.125.09.19.13l.05.028-.012-.007-.02-.01c-.056-.03-.103-.037-.135-.032-.368-.144-.75-.23-1.104-.257-.127-.004-.046.023-.076.032-.006-.01-.014-.043-.02-.062l-.037-.125-.07-.292c-.052-.212-.09-.362-.11-.45l-.008-.21-.066-.474c-.005-.333-.076-1.4-.063-3.504l.003-.19V199.11l-.002-.036v-.005l.002-.02.008-.084.033-.338.072-.7c.025-.237.05-.48.078-.725l.128-.834c.156-1.13.44-2.205.76-3.253.65-2.098 1.597-3.942 2.36-5.3.75-1.363 1.34-2.265 1.38-2.434.173-.343-.76 3.544-.64 7.49.014.49.027.982.095 1.468.056.483.087.973.188 1.407.096.462.135.828.257 1.323.11.48.22.944.32 1.383l.626 1.997c.184.69.326 1.214.354 1.555l.073 1.333-.007-.212-.033.598c-.007.15-.01.308-.035.593l-.038.413-.024.227c-.02.112-.044.228-.066.346-.053.238-.106.47-.193.73-.127.31-.288.63-.48.935-.372.533-.93 1.023-1.264 1.21-.79.505-1.312.69-1.943.99l-4.154 1.98.44-3.868c.093-.806-.13-1.986-.67-3.305-.54-1.322-1.3-2.74-1.874-4.135-.59-1.397-.922-2.752-.97-3.783-.01-.262-.022-.502-.02-.697.02-.177.035-.33.048-.453l.04-.386zM549.067 187.432c.154-.39.66-1.274.942-2.394.338-1.1.622-2.532 1.706-3.947l.202-.262.026-.033.006-.008c.15-.104.043-.03.078-.055l.003-.003.012-.013.044-.05.09-.097.353-.388c.257-.258.413-.51.763-.758l1.715-1.31.628-.48c.2-.148.298-.277.43-.392.244-.228.432-.39.56-.478l.3-.158.08-.047c.336-.214 3.104-.79 5.566-1.78 1.23-.5 2.41-1.086 3.13-1.868.36-.384.585-.86.602-1.285.02-.422-.105-.704-.14-.77-.043-.066.084.035.292.345.21.31.384.935.3 1.593-.152 1.337-.94 2.71-1.834 3.966-1.812 2.524-4.222 4.66-5.048 5.08-.05.022-.108.05-.467.222l.3-.158c-.44.19-1.705.69-2.916.914-.36.085-.58.125-.833.165-.267.06-.512.048-.847.164l-1.042.396c-.174.01-.438.174-.676.273-.97.563-1.946 1.716-2.796 2.487-.45.4-.872.757-1.12.878-.26.162-.41.252-.41.252zM566.836 172.974c.097-.297.242-.75.46-1.274.23-.498.54-1.116.986-1.764.866-1.31 2.237-2.73 3.75-4.036 1.506-1.32 3.114-2.586 4.36-3.797 1.26-1.206 2.134-2.354 2.64-3.2l4.68-7.836-.075 9.742c-.015 1.97-.435 3.306-.698 4.22-.31.9-.524 1.413-.687 1.724-.354.8-1.674 2.416-3.307 3.967-1.61 1.575-3.453 3.207-4.51 5.248-.615-.49-1.23-.98-1.643-1.312 1.356-.447 2.56-.613 3.68-.852 1.116-.226 2.124-.485 2.972-.843.85-.35 1.518-.827 1.945-1.284.433-.457.597-.86.655-.962.044-.12-.002.142-.19.7-.213.544-.702 1.328-1.495 2.046-.784.73-1.826 1.377-2.94 1.99-1.097.612-2.338 1.2-3.225 1.834l-3.42 2.444.787-4.546c.26-1.5.815-2.938 1.43-4.186.618-1.253 1.277-2.344 1.837-3.278 1.136-1.854 1.758-3.116 2-3.564.094-.194.345-.535.628-1.102.28-.573.674-1.352.826-2.533l4.737 1.96c-1.243 1.17-3.074 2.392-5.02 3.362-1.948.996-3.984 1.83-5.724 2.734-1.757.877-3.167 1.913-4.068 2.792l-.583.595c-.17.198-.31.394-.428.54l-.36.47zM555.914 151.282c.07.25.156.643.25 1.143.047.25.105.528.146.826l.067.967c.115 1.41-.02 3.108-.23 4.835-.497 3.438-1.33 6.742-1.6 7.82l-4.24-3.75.578-.413c.35-.262 1.345-.65 2.674-1.105l2.123-.834c.76-.296 1.584-.578 2.336-.944 3.144-1.288 5.993-3.07 6.236-3.25.102-.102-.302.513-1.005 1.532-.353.507-.775 1.125-1.26 1.788l-1.675 1.984-.896 1.043-.948.963c-.635.63-1.247 1.237-1.795 1.783-1.146 1.036-2.086 1.792-2.454 2.034l-.856.518-9.346 5.647 5.09-9.414c.59-1.094 2.818-4.217 4.432-7.15.848-1.483 1.435-2.948 1.838-4.04.186-.58.294-1.1.39-1.44l.144-.544zM572.916 141.577c.184.264.598.79.896 1.517.153.373.33.83.41 1.31.125.495.176 1.02.2 1.568.04.556-.016 1.087-.042 1.638-.058.51-.115 1.05-.19 1.498l-.37 2.124-2.486-4.25c.628-.125.8-.18.91-.2.222-.08.768.105 1.584.235.807.17 1.882.294 2.985.35 2.213.126 4.47-.105 4.63-.18.148-.1-1.277 1.453-3.204 2.9-.973.706-2.056 1.415-3.057 1.87-.972.498-1.862.72-2.17.78-.165.028-.532.003-1.68-.015l-6.52-.1 4-4.205 1.5-1.574c.556-.624 1.19-1.327 1.605-2.054.232-.364.38-.746.547-1.1.104-.343.244-.65.305-.982l.146-1.13zM594.932 151.25c.56-.308 2.214-.947 4.12-1.305.892-.207 1.806-.368 2.505-.546.695-.178 1.232-.306 1.503-.344-1.935 3.504-1.458 2.642-2.673 4.844-.207-.25-.255-.3-.292-.34-.19-.204-.428-.886-.636-1.75-.124-.84-.227-1.89-.246-2.85-.007-1.937-.144-3.8-.225-3.955-.04-.063.283.168.81.583l.925.748 1.018.902c.712.667 1.4 1.193 1.95 1.69.562.406.956.678 1.056.826.02.035.053.086.207.336l4.654 7.544-7.338-2.68c-.322-.12-.99-.415-1.785-.792-.748-.38-1.646-.885-2.406-1.316-.75-.44-1.524-.873-2.15-1.133l-.998-.462zM554.396 189.71c.14-.165.373-.4.68-.69.31-.292.67-.643 1.15-.947.948-.682 2.218-1.374 3.542-1.913 2.655-1.11 5.52-1.68 6.294-1.684.37-.022 1.245.268 2.32.708.86.273 1.34.643 1.93 1.02.56.38 1.115.792 1.653 1.21 1.075.832 2.084 1.683 2.834 2.35.373.333.683.62.89.83.102.105.182.193.213.245.013.023.03.05-.005.03-.014-.01-.01 0-.032-.026-.065-.07-.1-.158-.113-.22-.02-.126-.007-.15-.017-.096 0 .028-.003.08.02.158.01.038.028.08.054.122.034.05.06.077.048.07.037.067.014.064-.093.048-.22-.03-.56-.08-.98-.14-.882-.115-2.138-.25-3.434-.366-.646-.057-1.305-.108-1.924-.144l-.88-.034c-.13 0-.257.002-.38.003l-.16.012c-.03.01-.02.025-.053.032-.96.128-1.838.19-2.108.19-.582-.044-3.355-.813-6.085-1.053-.682-.07-1.342-.063-1.985-.098l-1.65.064-1.73.315zM585.893 191.377c.553-.674 2.72-2.478 5.234-3.893 2.464-1.46 5.245-2.507 6.054-2.645.747-.12 3.853.502 6.457 1.928 1.29.75 2.42 1.604 3.012 2.463.334.375.514.762.643 1.03.133.262.216.415.253.45.067.077-.406-.203-1.132-.502-.778-.256-1.86-.44-3.043-.377-2.36.09-4.91.945-5.48.98-.566.04-3.47-.233-6.367-.077-1.426.08-2.865.2-3.878.352-.514.058-.963.152-1.27.206l-.482.087zM557.175 198.062c.176-.26.6-.724 1.148-1.28.505-.6 1.308-1.093 2.247-1.64.48-.296.917-.41 1.383-.607.453-.168.917-.34 1.314-.45.763-.193 1.375-.31 1.634-.31.124 0 .324.07.578.193l.098.048.025.013.007.002.13.024.002.002.01.007.045.03.19.132.435.32c.578.457 1.22 1.05 1.888 1.58.67.535 1.375.993 2.05 1.188.672.226 1.287.02 1.354-.034.066-.078-.154.407-.822.872-.66.473-1.65.818-2.636 1.034-.984.216-1.987.327-2.748.4l-.513.05-.227.018-.106.007-.05.004h-.023c.057.012-.13-.022.128.024l-.023.003c-.233.04-.404.057-.494.046-.18-.02-.673-.234-1.34-.548-.312-.122-.66-.26-1.027-.402-.19-.075-.384-.15-.58-.23-.2-.077-.365-.097-.558-.152-.4-.1-.795-.196-1.163-.287-.435-.023-.852-.02-1.2-.03-.697-.014-1.155-.025-1.155-.025zM592.49 198.826c.117-.29.305-.872.81-1.466.255-.342.58-.598.95-.934.37-.27.796-.59 1.226-.818 1.77-.994 3.587-1.554 4.024-1.61.476-.054 2 .975 3.464 1.828.747.438 1.52.793 2.18.996.65.203 1.163.24 1.232.23.066-.024-.213.23-.76.645-.546.363-1.386.83-2.273 1.163-1.806.696-3.654 1.144-4.01 1.144-.42-.01-2.14-.746-3.69-1.147-.756-.187-1.572-.262-2.078-.248-.135-.016-.286.014-.424.056l-.348.086-.302.074zM543.094 205.803c.75 2.19 2.13 7.126 4.023 13.36 1.93 6.197 4.454 13.755 8.425 20.357 1.974 3.287 4.312 6.308 6.948 8.652 2.6 2.395 5.5 4.045 8.23 5.128 2.73 1.073 5.366 1.59 7.458 1.758 1.218.166 2.07.137 2.828.162.745.05 1.416-.037 1.897-.04 1.81-.095 6.383-.093 11.463-2.937 5.132-2.71 10.144-8.56 13.756-15.08 3.684-6.508 6.308-13.49 8.19-18.842 1.867-5.37 3.056-9.137 3.234-9.757.16-.626-.51 2.57-1.707 7.846-1.228 5.264-3.01 12.636-6.024 20.066-1.493 3.715-3.374 7.413-5.623 10.78-2.245 3.366-4.995 6.324-7.914 8.536-2.914 2.227-6.003 3.618-8.547 4.338-.627.224-1.242.312-1.8.455-.562.12-1.077.263-1.552.307-.946.123-1.7.223-2.228.266l-2.295.025c-.49.014-1.07-.067-1.683-.108-.592-.062-1.336-.09-1.938-.204l-1.982-.338-.264-.045-.21-.036-.07-.017-.144-.037-.583-.15-1.204-.31c-.82-.222-1.655-.54-2.527-.824-.85-.357-1.747-.692-2.627-1.132-1.78-.842-3.554-1.952-5.286-3.23-1.703-1.32-3.325-2.848-4.808-4.537-2.943-3.404-5.29-7.416-7.044-11.514-3.536-8.218-5.18-16.593-6.428-22.73l-1.966-10.167zM626.98 178.404c.313-.29 1.167-.78 2.014-1.547.418-.37.816-.857.9-1.31.085-.445-.068-.797-.283-1.31-.457-1.007-1.17-2.29-1.626-3.42l-.167-.418-.08-.2-.036-.1-.018-.047-.005-.012-.002-.005c-.01-.048.072.405.037.212l-.002-.003-.01-.02-.29-.62c-.17-.372-.29-.662-.346-.842-.03-.104-.052-.258-.062-.455l-.01-.314-.02-.258c-.04-.39.042-.83-.014-1.503-.15-1.344-.335-3.12-.39-4.463l.027.055c-.195-.726-.162-1.306-.156-1.82.018-.51.05-.95.028-1.336-.003-.385-.08-.716-.153-.96-.104-.244-.188-.402-.224-.445-.118-.105.484.25.972 1.05.482.742.957 1.956 1.504 2.383l.07.14c.45.557.918 1.14 1.377 1.712.48.622.947 1.23 1.37 1.78.428.647.804 1.374 1.084 1.914.315.6.372.863.425 1.055.034.16.065.478.092.915l.038.738.005.103v.013l.04.223v.033l-.003.048-.008.197c-.006.135-.012.274-.02.417-.02.583-.023 1.244-.02 2.013-.014.768.027 1.612-.158 2.69-.11.54-.28 1.134-.627 1.66-.165.27-.35.504-.567.69-.206.212-.418.368-.632.484-.852.514-1.57.625-2.17.734l-.812.103c-.222.01-.415.02-.573.025-.314.01-.494.02-.494.02z"/></g><g id="tshirt"><path fill="#202020" d="M514.41 353.67l.185 3.504c.05.712.165 1.49.253 2.32.1.828.175 1.714.36 2.634.55 3.71 1.666 8.142 3.14 13.02 1.473 4.88 3.35 10.202 5.183 15.854 1.82 5.652 3.553 11.676 4.49 17.93.286 1.554.367 3.142.537 4.716.14 1.58.202 3.085.305 4.62.186 3.05.37 6.066.548 9.01.328 5.897.52 11.546.744 16.622.094 5.086.09 9.62.117 13.312l.01 2.607c-.02.813-.07 1.57-.1 2.267l-.182 3.406c-.097 1.635-.335 4.43-.677 8.07l-.132 1.404-.017.18-.008.092-.025.2-.008.045-.068.36-.136.732-.583 3.103-1.323 6.94c-.554 2.47-1.218 5.075-1.866 7.767l-1.005 4.103-1.157 4.15c-.79 2.794-1.568 5.655-2.407 8.51l-2.552 8.578-2.506 8.468c-.41 1.39-.82 2.77-1.22 4.13-.378 1.364-.75 2.712-1.115 4.037-.727 2.654-1.43 5.217-2.096 7.654l-1.637 6.955c-1.11 4.32-1.666 8.055-2.168 10.802-.485 2.75-.79 4.532-.86 5.036-.12 1.013.368-4.106 1.414-12.54 1.294-8.385 3.534-20.022 6.387-31.975 2.766-11.958 5.647-24.42 7.345-34.524.258-1.25.423-2.513.584-3.733l.482-3.522.447-3.24.21-1.505c.033-.244.066-.484.1-.722l.05-.353.01-.087.007-.043-.018.138v-.022l.01-.17c.185-3.67.335-6.413.437-7.885l.25-3.208.19-2.302c.037-.42.074-.857.112-1.31l.05-1.42c.144-3.918.323-8.87.527-14.477.02-2.812.04-5.79.06-8.884.03-3.095.056-6.31.006-9.615-.03-3.3-.058-6.67-.087-10.065-.015-1.69-.108-3.3-.194-4.96-.188-1.646-.287-3.302-.58-4.942-.967-6.58-2.71-13.014-4.35-19.014-1.643-6-3.15-11.6-4.083-16.466-.947-4.865-1.347-8.953-1.426-11.85-.07-1.436.02-2.53.014-3.29l.023-1.155zM630.418 345.757l.702 3.38c.29 1.368.55 2.98 1.088 4.756.917 3.58 2.248 7.854 3.94 12.58 1.67 4.73 3.68 9.91 5.62 15.424.484 1.378.92 2.797 1.388 4.216l.694 2.143c.224.72.4 1.46.604 2.192.395 1.495.793 2.895 1.188 4.493.282 1.493.565 2.988.85 4.483.562 2.99 1.127 5.98 1.685 8.933.42 3.004.836 5.972 1.24 8.87l.597 4.303c.164 1.414.266 2.807.397 4.176l.707 7.87.164 1.85c.03.606.06 1.205.087 1.793l.156 3.41.264 6.027.106 2.562c.006.223.023.34.018.643 0 .19 0 .38-.002.563l-.005 1.062-.032 3.316c-.05 3.138-.444 10.668-1.014 20.277-.29 4.8-.615 10.116-.953 15.664l-.533 8.463-.137 2.145-.064 1.04-.018 1.077-.035 2.155c-.01.717.034 1.4.048 2.104.048 2.792.354 5.61.71 8.35.436 2.73.922 5.418 1.59 7.98 1.263 5.147 2.89 9.864 4.326 13.962 2.947 8.18 4.922 13.982 5.325 15.182l.032.097.103.115c.33.365.433.633.454.726.044.114.02.116.028.134.02.094.003.076-.02-.035-.02-.103-.164-.438-.51-.777l-.09-.09-.06-.145c-.563-1.358-1.503-3.653-2.784-6.628-1.28-2.978-2.908-6.63-4.66-10.805-1.742-4.175-3.612-8.89-5.05-14.05-1.445-5.16-2.492-10.702-2.797-16.382l-.097-2.057c-.015-.364-.037-.638-.045-1.075v-1.026l.005-4.09.01-8.004.038-14.625c.036-8.863.087-15.644.154-18.295l.11-3.2c.026-.692.057-1.46.09-2.296.013-.393.046-.912.044-1.25l-.003-1.396v-6.496c0-1.195.002-2.44.004-3.734 0-.647 0-1.305.002-1.974l-.076-2.033c-.262-11.054-1.34-24.487-3.323-37.773l-.082-.62-.01-.078-.005-.04.007.038-.03-.15-.064-.3-.252-1.2-.5-2.394c-.175-.794-.317-1.592-.516-2.377l-.616-2.342c-.778-3.113-1.707-6.142-2.57-9.066-.88-2.933-1.776-5.73-2.555-8.42-.396-1.338-.78-2.64-1.148-3.895-.355-1.262-.66-2.495-.97-3.667-.3-1.18-.62-2.29-.858-3.373l-.638-3.084-.556-2.7c-.137-.832-.22-1.597-.318-2.287-.365-2.762-.574-4.326-.574-4.326zM544.16 290.437c-2.475.98-8.008 2.954-15.116 5.31-3.54 1.208-7.473 2.514-11.506 4.064-2.033.734-4.052 1.623-6.11 2.46-2.014.94-4.084 1.805-6.04 2.88-.977.534-2 .986-2.933 1.58l-2.827 1.698c-.94.557-1.79 1.23-2.677 1.83-.877.61-1.755 1.203-2.535 1.898l-2.373 1.966c-.754.67-1.432 1.402-2.13 2.076-1.442 1.31-2.568 2.812-3.713 4.15-2.178 2.772-3.857 5.42-5.033 7.684l-.876 1.567-.578 1.342-.987 2.265c-.587 1.117-1.104 2.824-2.035 5.11-.804 2.372-1.76 5.404-2.598 8.902-.863 3.494-1.684 7.464-2.6 11.624-.5 2.084-.92 4.21-1.525 6.344l-.857 3.203c-.31 1.083-.636 2.103-.953 3.154l-.48 1.562c-.166.52-.38 1.04-.566 1.558l-1.147 3.07c-.83 1.98-1.625 3.92-2.454 5.763-1.633 3.7-3.235 7.1-4.472 10.12l-.91 2.168-.753 2.01c-.466 1.274-.93 2.393-1.196 3.385-.596 1.965-.975 3.244-1.065 3.608s.056-.38.388-1.983c.174-.8.36-1.825.65-3.015l1.116-4.046c.448-1.495.992-3.116 1.55-4.866.593-1.725 1.227-3.564 1.89-5.485 1.327-3.815 2.752-8 3.845-12.175 1.042-4.37 1.883-8.772 2.488-13.114l1.734-12.41c.34-1.928.664-3.75.962-5.43l1.1-4.6c.81-2.764 1.57-4.893 1.966-5.963l1.024-2.153.747-1.54.427-.876.094-.186.018-.028.036-.057.072-.115.146-.232.3-.476c.83-1.277 1.69-2.77 2.79-4.3.58-.745 1.187-1.52 1.816-2.326.628-.803 1.263-1.646 2.046-2.41l2.32-2.42c.787-.83 1.728-1.54 2.614-2.336.9-.783 1.81-1.586 2.833-2.27 1-.71 2-1.455 3.04-2.157 4.228-2.714 8.912-4.975 13.625-6.835 9.472-3.64 18.955-5.787 25.915-7.555 6.96-1.72 11.49-2.99 11.49-2.99zM455.652 402.922c1.03-.143 3.285-.497 6.184-.605 2.912-.165 6.453-.13 9.985.003 7.07.315 14.003.878 15.892 1.075 1.806.21 8.454 2.27 15.02 3.348l2.448.396 2.374.263c1.548.216 2.99.197 4.26.283 2.53.05 4.312-.08 4.6-.103.284-.046-1.123.335-3.49.945-1.187.25-2.624.504-4.206.775-1.582.16-3.32.45-5.09.513-7.115.497-14.77-.15-16.427-.42-.845-.125-3.252-.675-6.36-1.44-3.107-.77-6.904-1.733-10.612-2.592-3.704-.846-7.336-1.53-10.03-1.912-1.347-.22-2.51-.292-3.3-.395l-1.246-.135zM518.255 408.317c-.227-.754-.54-2.463-1.095-4.58-.532-2.11-1.256-4.646-1.997-7.175-1.505-5.04-2.895-10.188-3.1-11.668-.19-1.372.066-6.906 1.265-12.046.376-1.28.634-2.53 1.11-3.66.21-.56.416-1.102.612-1.615l.698-1.386c.39-.867.878-1.516 1.2-2 .322-.484.52-.792.56-.888.098-.19-.233.84-.647 2.486-.29 1.705-.596 4.048-.42 6.56.18 4.978 1.465 10.363 1.566 11.59.05.61.117 2.41.197 4.79l.295 8.244c.07 2.917.103 5.738-.002 7.89-.017 1.07-.126 1.912-.164 2.518l-.077.94zM641.318 382.255c1.132-.162 3.73-.378 6.857-1.16 3.14-.746 6.837-1.954 10.505-3.266 3.667-1.31 7.334-2.692 10.432-3.703 3.087-1.03 5.62-1.665 6.746-1.86.21-.027.48-.064 1.792-.24-.387.376-.773.753-2.614 2.55.174-1.017.604-3.13.52-6-.036-2.853-.556-6.355-1.346-9.72-1.553-6.757-4.074-12.903-4.34-13.437-.32-.503 3.22 4.484 6.385 10.988 1.597 3.24 3.02 6.906 3.882 10.347.895 3.427 1.002 6.698.8 8.664l-.21 2.074-2.38.453c-.496.095-.882.162-1.14.198-.872.096-3.46.39-6.922.97l-12.064 2.17c-4.272.735-8.522 1.2-11.69 1.232-.785.035-1.53-.01-2.175-.025-.652-.008-1.198-.05-1.64-.102l-1.397-.135zM506.524 569.088c2.624-.306 8.44-.866 15.847-1.543l12.1-1.085c2.147-.198 4.347-.363 6.564-.595l6.684-.802c8.927-1.045 17.835-2.09 25.13-2.943l9.617-1.003c2.664-.242 4.754-.355 6.01-.434 3.624-.277 14.795.038 26.723.232l4.497.072c1.5-.006 2.998-.01 4.482-.017l4.403-.01 4.23-.142 3.992-.127c1.284-.027 2.5-.17 3.658-.24l6.042-.425h-.002c6.14-.3 10.283-1.3 12.852-2.365 2.56-1.093 3.6-1.968 3.93-2.142.218-.15-.012.03-.626.49-.312.224-.7.55-1.213.878-.527.3-1.143.673-1.86 1.057-1.464.677-3.323 1.476-5.54 2-2.206.564-4.73.997-7.44 1.316l.107-.014-7.947 1.413c-2.78.45-5.674.76-8.596 1.156-5.848.656-11.824 1.153-17.337 1.506-11.018.707-20.195 1.152-22.97 1.315-1.072.045-3.165.095-6.01.148l-10.56.44c-8.242.38-18.416.846-28.317 1.3-4.946.297-9.817.226-14.35.31l-12.29.13-11.81.123z"/></g><g id="bras"><path fill="#202020" d="M469.078 409.654c.144 2.61.345 8.386.565 15.738.053 3.678.372 7.742.603 11.994.268 4.254.46 8.69.794 13.128 1.287 17.75 2.848 35.418 3.103 40.355.13 2.33.164 7.982.142 15.196l-.178 11.785c-.094 4.173-.11 8.508-.33 12.802l-.524 12.492c-.042.99-.083 1.965-.125 2.918l-.198 2.795c-.134 1.817-.26 3.54-.38 5.14-.47 6.395-.79 10.823-.803 11.554-.015.732-.093-2.962-.2-9.038-.056-3.036-.123-6.667-.194-10.643-.187-3.975-.39-8.292-.595-12.698l-.312-6.64-.433-6.585-.786-12.24c-.542-7.5-.948-13.336-1.04-15.48-.162-4.285-.557-24.925-.472-44.515.21-9.817.27-19.35.757-26.39l.606-11.668zM498.413 410.382c.202 1.26.497 3.285.86 5.886.166 1.3.418 2.742.557 4.31l.46 5.05c.386 3.582.5 7.556.727 11.73.115 2.086.1 4.218.156 6.377.032 2.158.1 4.345.062 6.523-.068 17.463-1.092 34.785-1.368 39.576-.285 4.547-2.843 21.817-3.98 38.44-.132 2.078-.306 4.146-.4 6.177l-.213 5.956-.102 2.845.01 2.726c.007 1.776.015 3.46.02 5.023-.02 1.567.064 3.01.136 4.306.068 1.298.13 2.45.18 3.43.107 1.96.184 3.228.222 3.583.076.71-.456-2.858-1.312-8.77-.347-2.963-.662-6.52-1.033-10.418l-.34-6.08c-.06-1.045-.118-2.104-.177-3.173l-.074-3.23c-.48-17.365.66-36.082.986-40.25.167-2.095.844-8.142 1.725-16.022.892-7.88 1.893-17.592 2.604-27.066.666-9.47.9-18.71.77-25.552.018-1.712-.075-3.286-.147-4.676l-.177-3.592-.153-3.11zM669.96 379.455c.167.123.35.255.54.397.185.143.308.298.484.46.328.352.66.82.973 1.357.616 1.09 1.1 2.528 1.46 4.19.726 3.333.924 7.557.81 12.255-.096 4.697-.608 9.918-1.008 15.3-.265 5.415-.592 11.122-.8 16.782-.285 5.67-.354 11.326-.47 16.716-.017 2.695.054 5.32.072 7.85l.042 3.715.005.453.02.4.05.9.098 1.764c.51 9.28.88 16.51.988 19.66l.062 2.99.14 4.343c.07 3.31.16 7.392.26 11.97l.462 31.32c.07 2.732-.028 5.462-.063 8.134l-.14 7.825c-.11 5.064-.133 9.777-.292 13.864-.346 8.173-.578 13.85-.578 14.782 0 .934-.15-3.778-.378-11.544-.072-1.94-.085-4.077-.217-6.353l-.382-7.238c-.263-5.066-.55-10.57-.84-16.186-.896-11.243-1.825-22.945-2.587-32.52-.732-9.614-1.345-17.11-1.418-19.852-.067-2.742-.112-10.695-.142-21.08.086-10.546.962-23.4 2.346-35.836l1.002-9.2c.175-1.52.315-2.97.512-4.5l.62-4.34c.828-5.642 1.446-10.853 1.567-15.298.133-4.433-.246-8.116-1.124-10.415-.415-1.142-.957-1.97-1.34-2.37-.156-.226-.413-.402-.533-.518l-.204-.177zM673.75 569.092c.443 1.516 1.28 4.904 2.398 9.196 1.08 4.3 2.455 9.51 3.482 14.835.297 1.322.484 2.67.717 3.995.23 1.326.448 2.64.574 3.942.145 1.3.312 2.567.418 3.8l.177 3.563c.018.59.07 1.068.056 1.706-.004.512-.007 1.004-.043 1.552-.05 1.078-.132 1.966-.225 2.806-.176 1.658-.392 2.915-.538 3.675-.282 1.433-1.27 4.836-3.026 8.96-1.756 4.116-4.283 8.984-7.522 13.214-1.617 2.107-3.4 4.06-5.308 5.603-1.896 1.552-3.898 2.684-5.73 3.303-1.828.63-3.45.783-4.614.714-.584.008-1.058-.064-1.413-.12-.353-.05-.59-.077-.694-.084-.21-.012.223-.025 1.13-.035.453.01 1.022-.118 1.686-.184.653-.17 1.407-.32 2.193-.657 1.584-.618 3.328-1.723 4.95-3.28 1.636-1.547 3.126-3.55 4.443-5.718 2.64-4.355 4.52-9.422 5.757-13.617 1.244-4.205 1.87-7.55 2.145-8.756l.78-3.373c.168-.79.35-1.713.507-2.665.075-.46.155-.953.218-1.546l.052-.432.023-.36.053-.87c.46-4.693.254-10.635-.21-16.44-.47-5.814-1.195-11.484-1.677-15.73l-.755-7zM652.917 648.408c-.065-.256-.14-.665-.222-1.187-.108-.528-.134-1.14-.125-1.874-.018-1.478.296-3.263.814-5.02 1.07-3.51 2.874-6.656 3.417-7.423.532-.773 3.495-2.713 6.193-4.566 1.357-.938 2.642-1.916 3.58-2.758.942-.834 1.528-1.522 1.61-1.636.066-.124-.138.565-.53 1.73-.443 1.12-1.137 2.69-1.992 4.207-1.704 3.078-3.663 6.123-4.126 6.728-.51.623-3.42 3.023-5.56 5.738-1.056 1.36-1.888 2.847-2.364 3.963-.27.564-.383 1.157-.514 1.513-.114.374-.18.585-.18.585zM653.4 626.098c.037-.32.31-.926.487-1.72.19-.76.313-1.68.386-2.58.123-1.786.24-3.7.475-4.227.156-.428 1.934-1.884 3.923-2.67.973-.405 1.966-.575 2.67-.646.732-.038 1.19-.02 1.25-.058.13-.05-1.022 1.15-1.543 2.617-.554 1.445-.76 3.142-.957 3.508-.09.164-.49.596-1.054 1.21-.565.618-1.315 1.423-2.114 2.177-.817.758-1.68 1.408-2.41 1.848-.348.22-.613.3-.81.403l-.302.14zM654.43 561.897c.38.638 1.042 2.113 1.97 3.943.9 1.83 2.025 4.038 3.07 6.315 1.07 2.264 1.965 4.672 2.577 6.75.267 1.052.47 2.018.626 2.806.092.812.147 1.446.162 1.83.023.36-.02.982-.23 1.794-.187.808-.393 1.797-.88 2.85-.754 2.16-2.43 4.406-4.158 6.22l-1.41 1.226c-.456.398-.895.783-1.39 1.077-.962.613-1.788 1.226-2.587 1.64-1.606.82-2.68 1.368-2.835 1.49-.4.198 3.115-2.765 5.335-6.698.14-.244.3-.475.422-.725l.32-.77c.207-.51.446-.996.618-1.492.236-1.035.59-1.953.627-2.856.055-.435.106-.846.155-1.225 0-.388-.002-.743-.003-1.058.01-.624.035-1.083.01-1.345 0-.257.034-.752.104-1.435.05-.687.028-1.583.04-2.608-.08-2.067-.398-4.72-.84-7.346l-1.25-7.182c-.297-1.94-.454-3.2-.454-3.2zM494.652 566.807c.662.366 1.596.872 2.65 1.918 1.062 1.014 2.24 2.408 3.407 4.086 2.35 3.354 4.624 7.83 6.443 12.492 1.84 4.66 3.158 9.538 3.863 13.67.693 4.132.718 7.53.57 9.027-.065.713-.21 1.947-.8 3.912-.127.488-.328 1.025-.56 1.606-.2.582-.517 1.207-.858 1.875-.734 1.312-1.733 2.865-3.475 4.19l-1.45 1.105-1.147-.778c-.602-.41-1.252-.827-1.877-1.315-.56-.562-1.22-1.082-1.717-1.75-.513-.656-1.046-1.323-1.44-2.076-.458-.724-.802-1.5-1.142-2.284-1.345-3.144-1.89-6.547-2.3-9.637-.385-3.1-.563-5.93-.763-8.065-.186-2.136-.406-3.584-.474-3.88-.076-.284.248.63.726 2.362.45 1.72 1.113 4.242 1.884 7.178.812 2.877 1.787 6.165 3.328 9.012.726 1.452 1.668 2.707 2.65 3.75.983 1.058 2.14 1.68 3.216 2.17-.894.113-1.768.224-2.643.333 1.234-1.255 1.918-2.978 2.27-4.474.35-1.5.46-2.715.54-3.315l.146-1.15c.05-.51.107-1.13.174-1.845.08-1.45.137-3.308.042-5.445-.2-4.273-.99-9.626-2.335-14.716-1.323-5.092-3.195-9.914-5.082-13.185-.92-1.643-1.894-2.885-2.59-3.627-.326-.378-.666-.664-.904-.853-.23-.19-.352-.293-.352-.293zM495.108 613.185c.546.862 1.29 3.05 1.73 6.018.227 1.477.382 3.133.412 4.89.027 1.76-.055 3.62-.44 5.525-.2.953-.453 1.92-.912 2.888-.454.956-1.086 1.964-2.162 2.75-1.063.807-2.58 1.134-3.812.994-1.214-.148-2.22-.54-3.037-.96-.446-.2-.775-.44-1.143-.656l-.266-.166-.065-.04-.033-.022-.016-.01-.008-.006-.253-.23-.095-.08c-.13-.116-.24-.203-.38-.335-.394-.44-.833-1.03-.988-1.328-.223-.362-.41-.704-.542-1.01-.586-1.25-.813-2.147-.96-2.704-.273-1.054-.432-3.55-.21-6.556.2-3.015.74-6.573 1.42-9.998.677-3.427 1.493-6.72 2.188-9.213.687-2.5 1.288-4.167 1.362-4.427.07-.275-.15 1.138-.27 3.563-.135 2.414-.222 5.794-.17 9.298.048 3.504.246 7.13.566 10.016.305 2.9.777 4.983.923 5.7.066.367.174 1.098.383 1.93.062.178.114.41.182.586l.1.267c.04.11.008.03-.004.072-.003.014-.038.01-.023.047l.176.208.18.215.012.013.005.007c.23.21-.307-.277-.25-.227l.02.018.043.036.083.07c.22.176.46.437.687.573.47.382.93.584 1.255.696.317.08.478.127.89-.105.397-.235.877-.797 1.273-1.487.406-.69.75-1.51 1.032-2.363 1.14-3.448 1.49-7.246 1.525-9.98.016-1.38-.063-2.515-.17-3.284-.06-.37-.093-.645-.156-.868l-.082-.327zM485.21 625.96c-.32.696-1.008 2.128-2.432 3.7-1.396 1.558-3.53 3.228-6.208 4.095l-.97.313-.622-1.243c-1.287-2.57-1.842-5.24-2.227-7.39-.344-2.154-.47-3.83-.485-4.556.007-.68.283-2.318.8-4.35.524-2.03 1.25-4.46 2.083-6.784.82-2.327 1.71-4.555 2.427-6.234.726-1.68 1.273-2.803 1.32-3 .1-.392-.49 4.108-.628 9.025-.086 2.455-.093 5-.068 7.062.04 2.064.114 3.644.083 4.222-.02.586-.247 2.297-.425 4.397-.155 2.083-.22 4.577.136 6.508l-1.95-1.14c1.36-.102 2.664-.452 3.827-.908 1.132-.518 2.155-1.062 2.927-1.65.41-.27.743-.542 1.03-.787.293-.234.55-.45.752-.663l.63-.62zM471.852 629.327c-.125.33-.318.887-.637 1.51-.32.64-.74 1.417-1.47 2.163-.388.346-.86.73-1.567.852-.714.132-1.533-.195-2.075-.66-1.11-.95-1.706-2.162-2.25-3.336-1.024-2.378-1.616-4.806-1.988-6.847l-.125-.752-.052-.365-.024-.18-.006-.043.002-.147v-.01l-.002-.02-.007-.08-.092-1.167c-.05-.702-.08-1.243-.08-1.57.007-.316.156-.946.356-1.71.21-.77.46-1.732.904-2.67.415-.96.853-2.02 1.48-3.038.296-.51.6-1.03.903-1.556l1.05-1.482c1.383-1.957 3.005-3.604 4.258-4.786 1.29-1.157 2.224-1.87 2.332-2.028.12-.15-.373.705-1.174 2.06-.383.69-.772 1.558-1.23 2.464-.384.95-.817 1.965-1.17 3.022-.308 1.078-.694 2.133-.873 3.207-.112.522-.222 1.037-.33 1.533-.06.502-.12.986-.177 1.444l-.16 1.272-.034 1.022c-.027.604-.063 1.048-.104 1.286-.044.23-.09.822-.2 1.56l-.184 1.26-.026.177-.014.09.003-.136v.014l-.003.02-.004.042c-.01.11-.023.222-.035.335l-.06.725c-.136 1.997-.2 4.604.197 6.846.16 1.104.647 2.115.843 2.272.06.1.28.17.642.055.35-.11.73-.346 1.062-.594.678-.513 1.187-1.03 1.552-1.42l.57-.636zM463.93 618.57c-.393.488-.932 1.27-1.888 2.02-.474.376-1.07.735-1.826.835-.765.12-1.632-.247-2.304-.84-.688-.585-1.265-1.338-1.803-2.134-.137-.224-.257-.35-.41-.66l-.332-.64c-.245-.393-.4-.943-.568-1.495-.604-2.165-.4-4.5.148-6.644 1.112-4.306 3.253-8.08 4.66-11.046.353-.737.664-1.42.91-2.025.296-.69.57-1.325.813-1.895l.998-2.424c.837-1.903 5.014-8.957 7.89-16.29 1.443-3.653 2.537-7.364 2.895-10.336.21-1.485.162-2.772.116-3.738-.163-.952-.285-1.586-.334-1.757-.05-.172.086.158.364.896.326.733.582 1.904.792 3.377.38 2.95.12 7.048-.606 11.197-1.403 8.327-4.586 16.867-5.46 18.725-.203.462-.675 1.362-1.347 2.578-.334.607-.714 1.224-1.13 1.936-.225.37-.46.758-.7 1.16l-.792 1.208c-1.09 1.615-2.312 3.293-3.458 5.075-1.143 1.776-2.216 3.658-2.888 5.57-.17.477-.276.95-.413 1.428-.052.467-.196.95-.188 1.404-.015.46-.04.933.03 1.294.03.203.01.377.07.613.08.254.16.504.24.752l.117.37.028.092-.042-.094.004.01.01.022.017.04.072.166c.096.218.185.444.288.645.197.415.402.806.62 1.143.438.68.91 1.17 1.37 1.303.46.16 1.04.047 1.562-.173.52-.217.986-.52 1.332-.77.354-.235.646-.49.84-.647l.298-.25z"/></g><g id="pantalon"><path fill="#202020" d="M446.25 993.09l2.12-16.247.757-5.667.99-6.184c.69-4.294 1.43-8.916 2.216-13.8.8-4.882 1.82-9.993 2.783-15.317l1.506-8.12c.535-2.745 1.14-5.518 1.717-8.33l1.776-8.52.902-4.317.227-1.085.268-1.102.53-2.155c.734-2.878 1.37-5.782 2.192-8.673l2.507-8.69c3.527-11.5 7.433-22.832 10.85-33.694 3.523-10.825 6.166-21.324 8.016-30.752l4.378-25.23c.614-3.495 1.16-6.59 1.62-9.223l1.175-6.503.588-2.7c.252-1.04.427-2.157.842-3.49.38-1.31.794-2.744 1.24-4.29l1.607-4.765c2.315-6.72 5.732-14.62 7.87-23.758l.212-.857.052-.216.026-.108.013-.054c.017-.085-.005.056 0 .02l.08-.452.32-1.826c.213-1.226.43-2.466.65-3.72l1.348-7.68 1.4-7.96.717-4.065.652-4.12 5.372-33.937 1.353-8.507c.448-2.82.88-5.625 1.403-8.393l2.922-16.222.703-3.9c.225-1.28.46-2.582.763-3.827.552-2.503 1.184-4.953 1.804-7.318 1.252-4.737 2.536-9.195 3.668-13.354 1.137-4.157 2.123-8.017 2.904-11.515.77-3.5 1.32-6.638 1.686-9.324.757-5.375.6-8.923.614-9.912-.006-.497.007-.243.035.677l.053 1.87c.02.783-.033 1.72-.054 2.802-.124 4.33-.948 10.94-2.702 18.977-1.68 8.05-4.368 17.505-6.373 27.956-.857 5.215-1.604 10.803-2.45 16.454l-1.26 8.6c-.43 2.895-.752 5.838-1.138 8.782l-4.466 35.462-1.087 8.628c-.407 2.83-.81 5.62-1.203 8.363l-2.294 15.784c-.09.626-.182 1.248-.272 1.865l-.066.462-.017.115-.022.138-.013.06-.05.234-.2.935c-.27 1.242-.534 2.466-.793 3.67-.277 1.196-.633 2.337-.937 3.476-.316 1.136-.612 2.258-.97 3.315-1.33 4.29-2.708 8.13-3.834 11.506-.59 1.694-1.098 3.275-1.55 4.737-.466 1.464-.9 2.813-1.2 4.004l-.885 3.216c-.24.967-.405 1.85-.565 2.55l-.575 2.61-.154.73-.166.863-.368 1.896c-.523 2.678-1.16 5.938-1.896 9.694l-5.48 27.734c-2.362 10.916-5.962 22.71-10.23 34.812-4.234 12.092-9.006 24.566-12.826 37.01l-.743 2.327-.66 2.368-1.304 4.722-.65 2.35-.31 1.133-.282 1.178-1.118 4.68-2.2 9.207c-.71 3.03-1.47 6.006-2.075 8.956-1.27 5.888-2.495 11.552-3.65 16.905-1.138 5.357-2.036 10.43-2.955 15.087-1.88 9.3-3.06 17.08-3.977 22.486l-1.41 8.476zM496.922 1001.658l-.115-2.517c-.033-.94.006-1.97.008-3.108.092-2.275.264-4.946.66-7.93.71-5.98 2.23-13.198 3.717-21.296.73-4.05 1.437-8.332 1.8-12.792l1.424-13.9c.266-2.376.458-4.784.793-7.204.344-2.42.69-4.86 1.04-7.313.735-4.9 1.316-9.897 2.27-14.808.88-4.93 1.762-9.858 2.633-14.728l2.993-14.3c.245-1.17.49-2.33.73-3.484l.09-.433.134-.504.225-.846.448-1.686 1.756-6.607c1.152-4.325 2.26-8.488 3.312-12.433l2.978-11.122c1-3.44 1.924-6.61 2.752-9.454l3.757-12.736c.772-2.504 2.085-6.798 3.964-12.338l6.926-19.987c1.343-3.816 2.713-7.854 4.225-12.006l4.674-12.842 4.877-13.372 1.236-3.386 1.15-3.38c.81-2.28 1.447-4.556 2.17-6.83 2.738-9.167 5.15-18.394 8.12-26.808 3.42-8.225 5.34-16.276 7.337-23.186 1.955-6.91 3.98-12.665 5.98-16.65 1.94-4.03 3.86-6.162 4.332-6.795.244-.317.126-.148-.31.448l-.89 1.208c-.328.54-.72 1.186-1.174 1.93-1.74 3.037-3.76 8.09-5.514 14.64-.897 3.27-1.76 6.9-2.674 10.807-.932 3.904-1.858 8.078-3.252 12.486-2.982 8.325-5.222 17.717-7.578 27.357-.61 2.414-1.185 4.83-1.86 7.276-.33 1.217-.644 2.45-.99 3.655l-1.067 3.588c-.19.618-.33 1.146-.56 1.837l-.572 1.775-1.14 3.537-2.262 7.01c-2.967 9.274-5.938 18.164-8.394 26.228l-6.53 20.914c-1.83 5.703-3.03 10.01-3.76 12.302-.727 2.29-2.14 6.76-4.06 12.824l-3.27 10.212c-1.187 3.763-2.375 7.896-3.694 12.263l-4.132 13.81-2.2 7.343-.14.467-.035.116-.018.06c.04-.158.003-.01.008-.03l-.057.236-.23.948-.463 1.905-.935 3.847c-2.614 10.295-4.898 21.138-7.043 31.845-.954 5.37-1.9 10.705-2.83 15.928-.784 5.265-1.47 10.44-2.175 15.414l-.516 3.696-.457 3.627c-.358 2.414-.766 4.754-1.23 7.005-.91 4.507-1.913 8.696-2.786 12.554-.875 3.855-1.64 7.377-2.2 10.508-.54 3.13-.956 5.862-1.135 8.117-.127 1.13-.17 2.128-.213 2.997-.06.865-.075 1.613-.063 2.227l.002 1.868zM580.244 1020.45l.428-2.512c.114-.962.246-2.043.337-3.21.16-2.337.173-5.07-.016-8.124-.37-6.117-1.768-13.43-3.206-21.646-.348-2.057-.688-4.174-.977-6.352-.326-2.175-.423-4.45-.593-6.706-.304-4.55-.72-9.253-.8-14.108-.4-9.704-.407-19.827-.578-29.92-.03-2.533-.062-5.065-.093-7.59v-7.523c0-4.992.003-9.924.004-14.74.005-4.817.01-9.52.013-14.048.045-4.53.198-8.896.287-13.03.41-16.54.76-29.44.962-35.02.096-2.643.33-7.158.667-13.053l.578-9.813c.213-3.575.482-7.433.604-11.506l1.078-26.605.297-7.133c.054-2.34.007-4.763-.023-7.18l-.25-14.595c-.31-19.44-.247-38.466.89-52.965.567-7.24 1.402-13.364 2.606-17.702.59-2.165 1.31-3.874 2.05-4.95.752-1.09 1.474-1.412 1.772-1.458.305-.08.14-.067-.392.184-.27.12-.594.427-.96.862-.342.47-.715 1.09-1.046 1.886-1.348 3.19-2.21 8.69-2.68 15.517-.95 13.702-.42 32.924.6 52.915.27 5.003.545 10.057.82 15.09l.4 7.544.153 3.79c.043 1.28.002 2.496.007 3.738l-.144 27.94c.032 8.568-.325 16.147-.48 22.217l-.443 13.046c-.205 4.893-.946 18.987-1.945 37.384l-.386 7.094c-.135 2.426-.28 4.908-.34 7.45-.16 5.076-.33 10.347-.502 15.732-.174 5.387-.35 10.89-.53 16.43-.19 5.473-.24 11.118-.367 16.65-.093 5.536-.252 11.048-.29 16.415l-.014 7.948-.006 3.895.135 3.846c.09 2.54.176 5.032.26 7.468l.064 1.814.016.45.036.395.08.882c.094 1.17.226 2.326.354 3.467.525 4.56 1.203 8.86 1.723 12.846 1.098 7.96 1.443 14.695.99 19.367-.098 1.167-.2 2.207-.358 3.114-.133.908-.248 1.677-.396 2.27-.257 1.204-.396 1.844-.396 1.844zM626.914 1010.43c.24-1.758.556-4.047.935-6.804.192-1.378.4-2.872.626-4.475.185-1.607.296-3.34.462-5.163l.492-5.764.13-1.527c.022-.517.045-1.038.066-1.566l.137-3.23.29-6.825c.06-2.354.057-4.786.09-7.282.265-19.973-1.15-44.22-1.166-68.482l-.594-68.207-.102-13.963-.02-3.188-.005-.775-.002-.193.01-.3.015-.382c.02-.51.037-1.012.056-1.508.074-1.987.146-3.88.212-5.673.076-1.793.114-3.475.212-5.063l.326-4.438c.208-2.726.38-4.97.508-6.663.127-1.6.407-3.737.714-6.376.34-2.63.65-5.766 1.196-9.28.53-3.515 1.074-7.453 1.767-11.705.714-4.246 1.436-8.842 2.3-13.67 3.338-19.344 8.017-42.7 11.055-65.74 3.262-23.013 4.046-45.8 2.72-63.183-.14-2.174-.248-4.27-.478-6.26-.1-.995-.195-1.968-.29-2.917-.094-.95-.17-1.875-.343-2.767-.586-3.576-1.12-6.758-1.636-9.426-.523-2.677-.862-4.887-1.115-6.546l-.523-3.256c-.17-.977.21.995 1.014 5.228.382 2.117 1.032 4.794 1.707 7.956.622 3.2 1.502 6.91 1.94 11.01.13 1.027.285 2.068.408 3.157.105 1.084.212 2.19.32 3.322.22 2.262.446 4.615.682 7.048l.173 1.84.084 1.876.17 3.833c.088 2.59.29 5.254.292 7.976-.034 5.442.082 11.13-.258 16.948l-.182 4.394c-.03.737-.06 1.476-.092 2.216l-.163 2.22-.67 8.97c-2.104 24.052-6.172 48.813-9.14 69.03-.765 5.057-1.44 9.83-2.042 14.24-.64 4.405-1.13 8.45-1.574 12.04-.227 1.797-.438 3.48-.633 5.038l-.457 4.3c-.28 2.604-.504 4.67-.66 6.115-.184 1.446-.378 3.567-.616 6.28l-.412 4.5c-.143 1.645-.348 3.406-.434 5.348l-.362 6.16-.198 3.345-.05.862-.015.763c-.01.586-.02 1.18-.028 1.777l-.258 15.532-1.334 76.025c-.276 13.253-.124 26.358-.203 38.564.003 3.05-.038 6.043-.097 8.97-.06 2.925-.076 5.78-.17 8.556l-.322 8.07c-.06 1.302-.083 2.58-.172 3.832l-.27 3.68-.503 6.882c-.165 2.183-.473 4.246-.68 6.183-.462 3.872-.796 7.248-1.35 9.96l-1.49 8.552zM534.897 585.58c1.18.11 3.074.315 5.5.594 1.208.17 2.574.22 4.038.32 1.468.08 3.035.228 4.7.274 6.66.26 14.728.03 22.753-.533 8.028-.556 16.02-1.41 22.595-2.088 6.567-.682 11.714-1.16 13.96-1.295 4.265-.22 21.187-.38 36.694 2.275l.533.09.22.29c1.24 1.63 2.44 3.297 3.114 5.188.718 1.85 1.132 3.762 1.165 5.592.076 1.827-.082 3.564-.333 5.18-.23 1.62-.548 3.127-.82 4.53-.57 2.798-.97 5.19-1.125 6.986l-.11 1.225-.025.974c-.007.56-.01.936-.013 1.102.01.35-.052-.394-.16-1.984-.05-1.586-.01-4.027.28-6.98.247-2.946.754-6.442.434-10.013-.186-1.775-.623-3.54-1.39-5.192-.784-1.647-1.965-3.126-3.273-4.51l1.156.584c-15.274-1.1-31.335.497-35.06.613-1.938.09-7.558.235-14.942.462-7.38.206-16.53.477-25.458.28-8.933-.16-17.598-.924-23.994-1.945-1.596-.264-3.068-.453-4.337-.712l-3.27-.7c-1.808-.39-2.833-.608-2.833-.608zM578.794 1019.552c.903.16 3.036.57 5.614.5 2.598-.063 5.687-.478 8.697-1.19 6.04-1.367 11.71-3.723 13.306-4.253 1.51-.483 7.654-1.435 13.448-3.135 2.892-.836 5.692-1.82 7.787-2.746 2.102-.908 3.49-1.76 3.7-1.918.197-.177-.715.815-2.422 2.224-1.705 1.404-4.218 3.197-6.98 4.826-5.486 3.334-11.963 5.983-13.472 6.406-1.49.45-8.916 1.98-16.092 1.92-3.578.007-7.072-.436-9.587-1.11-1.24-.35-2.3-.735-2.976-1.036l-1.02-.49zM446.767 994.04c.96.167 3.006.84 5.68 1.348 1.307.315 2.803.505 4.332.77 1.547.206 3.153.422 4.77.562 6.45.595 12.915.6 14.715.765 1.673.172 8.12 1.717 14.278 3.467 3.073.857 6.04 1.845 8.273 2.636 2.235.807 3.746 1.43 4.01 1.478.26.06-1.093-.094-3.293-.363l-3.876-.34c-1.457-.082-3.02-.212-4.638-.266-6.435-.282-13.482-.377-15.072-.6-1.557-.196-9.133-1.62-16.145-3.83-3.5-1.125-6.807-2.452-9.216-3.62-1.214-.542-2.11-1.105-2.787-1.445-.66-.36-1.033-.56-1.033-.56z"/></g><g id="chaussures"><path fill="#202020" d="M480.412 1034.98c.087.317.197.828.324 1.482l.21 1.084.31 1.246c.412 1.737 1.074 3.815 1.7 5.9.622 2.106 1.254 4.236 1.575 6.113.087.466.177.903.24 1.317.04.423.08.812.116 1.16l.074.93.02.363.004.08v.037l.002.02v.008l-.008.102c0 .044-.003.084-.005.12-.015.283-.11.758-.266 1.374l-.277 1.024c-.13.406-.303.875-.476 1.345-.65 1.93-1.834 3.925-3.105 5.71-1.28 1.776-2.64 3.312-3.632 4.557-.99 1.236-1.663 2.12-1.742 2.28-.077.16.173-.71.613-2.15.44-1.43 1.15-3.41 1.73-5.397 1.346-4.015 1.026-7.862 1.152-9.125l.165-1.243c.092-.613.22-1.395.272-2.327.19-1.83.197-4.234.24-6.622.013-2.383.13-4.777.32-6.565.086-.88.243-1.56.312-2.057l.13-.767zM447.188 1033.5c-2.116 1.76-9.488 7.54-17.424 12.62-3.957 2.552-8.077 4.886-11.575 6.616-3.495 1.734-6.352 2.874-7.62 3.3-1.19.408-4.188 1.115-8.082 1.566-3.884.48-8.683.548-13.254.002-4.582-.554-8.878-1.806-11.988-3.07-3.12-1.26-5.108-2.437-5.467-2.557-.176-.07.194.037.98.28.39.123.887.28 1.473.463l2.033.52c1.516.37 3.35.705 5.357.964 2.018.2 4.204.372 6.438.297 4.465-.038 9.046-.866 12.71-1.776 3.67-.913 6.438-1.96 7.477-2.253 1.03-.33 4.078-1.105 8.002-2.478 3.93-1.344 8.72-3.305 13.312-5.443 4.592-2.14 8.995-4.42 12.25-6.153l5.376-2.896zM369.452 1052.785c-.32 1.074-.878 2.796-1.49 5.044-.56 2.24-1.258 5.045-1.144 8.16.098 1.545.478 3.14 1.323 4.508.814 1.402 2.242 2.382 3.76 3.146.39.178.786.355 1.182.534l1.27.4c.83.31 1.754.426 2.633.637 1.814.326 3.624.522 5.56.678 7.5.665 15.016.143 21.216-.348 6.176-.518 11.096-.976 13.178-1.097 1.92-.146 6.662-.11 12.546.005 5.907.103 13.068.248 20.09-.08 7.014-.314 13.917-1.092 19.156-2.533 1.292-.4 2.524-.712 3.603-1.106l2.87-1.128c1.596-.81 2.693-1.398 3.127-1.628l.08-.067c.114-.085.214-.16.302-.228l.306-.163c.23-.13.386-.19.505-.29.232-.184.28-.22.316-.25.154-.13.084-.052-.207.2-.15.146-.344.252-.593.4l-.302.188c-.08.074-.155.15-.247.224l-.096.08c-.515.345-1.148.77-1.885 1.262-.376.237-.76.53-1.2.77-.445.232-.916.48-1.41.737-.495.26-1.015.53-1.555.813-.56.236-1.14.48-1.74.735l-1.87.776-2.02.68c-5.53 1.858-12.31 3.235-19.006 4.1-6.7.887-13.313 1.39-18.625 1.758-5.282.34-9.303.6-10.907.702-1.853.082-7.193.214-14.238.264-1.758.024-3.64-.027-5.584-.04-1.954-.073-3.978-.11-6.054-.258l-3.143-.23c-1.06-.087-2.15-.242-3.227-.362-2.214-.21-4.177-.66-6.326-1.02-2.138-.462-4.266-.954-6.298-1.815-2.027-.78-4.002-1.97-5.467-3.65-1.492-1.668-2.226-3.817-2.377-5.735-.028-.96-.054-1.888.08-2.747.062-.877.266-1.676.42-2.45.727-3.066 1.735-5.398 2.387-7.053.702-1.612 1.1-2.522 1.1-2.522zM419.468 1053.252c.23.032.635.153 1.117.324.49.194 1.07.266 1.557.31 1.076.105 1.946-.065 2.116-.015.082.024.092.296.102.73.045.404.073.998.195 1.57.208 1.17.66 2.336.722 2.375.07.01-.91.312-2.07.36-.584.054-1.2-.014-1.72-.07-.508-.086-.903-.216-1.013-.3-.233-.152-.86-1.554-1.055-2.87-.11-.722-.145-1.354-.05-1.734l.098-.678zM431.17 1049.487c.858-.364 4.85-.905 5.316-.757.21.046.397 1.168.645 2.352.238 1.177.537 2.406.602 2.442.064.035-.91.186-2.016.26-1.1.078-2.335.07-2.54-.045-.38-.233-2.007-4.253-2.007-4.253zM439.1 1043.43c.448-.122 1.674-.14 2.833-.172 1.16-.08 2.128-.17 2.348-.104.2.06.282 1.238.438 2.442.157 1.146.45 2.392.515 2.428.064.036-.9.178-2.045.207-1.108.015-2.273-.113-2.47-.243-.195-.112-.714-1.342-1.09-2.426-.296-1.083-.53-2.13-.53-2.13zM584.917 1041.078c.142.326.34.855.582 1.535.114.34.26.716.378 1.128l.332 1.347c.493 1.936.767 4.346.893 6.787.183 4.887-.322 9.682-.53 10.948-.197 1.24-2.265 5.52-3.835 9.71-.823 2.102-1.42 4.224-1.813 5.903-.367 1.675-.5 2.89-.51 3.083.006.194-.18-.773-.462-2.417-.097-.817-.192-1.807-.276-2.897-.022-1.078-.104-2.28-.05-3.477.093-4.85.807-9.922 1.03-10.994.233-1.12 2.177-6.13 3.302-10.968.574-2.427.85-4.837.955-6.61.064-.903 0-1.7.012-2.23-.008-.54-.01-.846-.01-.846zM621.41 1034.99c.19.637.397 2.207 1.157 3.92.724 1.728 1.956 3.566 3.367 5.233 1.418 1.67 3.005 3.22 4.307 4.567 1.31 1.336 2.322 2.504 2.71 3.053l.074.106.115.19.032.065.146.302c.104.225.217.495.34.806.246.6.527 1.424.82 2.37.596 1.874 1.116 4.037 1.665 6.194.555 2.127 1.08 4.222 1.66 5.775.14.394.27.758.39 1.085.148.316.28.597.395.836.23.48.393.792.45.87.133.145-.618-.503-1.703-1.723-1.05-1.226-2.38-3.03-3.645-4.933-1.24-1.874-2.53-3.823-3.586-5.416-.978-1.473-1.896-2.722-2.15-3.19l-1.888-3.42c-1.004-1.807-2.325-4.125-3.323-6.596-1.03-2.45-1.558-5.078-1.582-6.995-.005-.977.037-1.81.133-2.296l.118-.805zM580.916 1080.583c1.05-.02 3.348-.108 6.263.194 2.93.246 6.464.78 9.936 1.126.866.075 1.732.198 2.58.234.844.04 1.677.08 2.49.117.813.073 1.588-.022 2.334-.028.744-.04 1.463-.01 2.124-.102.656-.093 1.275-.18 1.85-.263l.818-.107.38-.05.023-.002c-.067.01.16-.02-.15.02h.007l.012-.004.05-.013.1-.024.192-.048c.503-.123.95-.23 1.328-.324.313-.104.57-.183.767-.236.694-.17 2.792-.532 5.416-1.228 2.64-.696 5.88-1.754 8.973-3.054 3.094-1.29 6.045-2.803 8.217-4.15 2.185-1.327 3.57-2.51 3.78-2.715.19-.23-.673 1.008-2.383 2.802-1.71 1.787-4.302 4.06-7.213 6.173-2.904 2.12-6.116 4.096-8.918 5.48-2.79 1.414-5.155 2.213-6.103 2.447-.242.057-.602.13-1.062.215-.222.037-.503.1-.743.124l-.783.08-.434.042-.227.02-.275.03-.13-.002-1.094-.02c-.758-.022-1.583-.045-2.46-.068-3.463-.317-7.556-1.2-11.286-2.416-3.732-1.178-7.28-2.43-9.897-3.152-.652-.207-1.267-.37-1.824-.484l-1.424-.33-1.234-.283zM601.113 1052.078c.412-.88 3.288-4.137 3.76-4.395.214-.125 1.276.504 2.41 1.135 1.125.635 2.316 1.265 2.398 1.242.08-.023-.612.8-1.457 1.662-.838.86-1.834 1.76-2.088 1.83-.275.103-1.498-.315-2.698-.69l-2.324-.784zM604.05 1061.087c.214-.422 1.07-1.336 1.833-2.24.325-.49.59-.942.782-1.28l.242-.41c.075-.11.154-.202.2-.233.18-.132 1.202.484 2.32 1.044 1.107.547 2.218 1.108 2.287 1.082.068-.027-.467.83-1.092 1.725-.62.888-1.466 1.788-1.683 1.87-.057.018-.178.02-.345.006-.193-.016-.45-.05-.728-.1-.56-.097-1.225-.257-1.817-.436-1.03-.507-2-1.027-2-1.027zM606.53 1069.088c.215-.405 1.012-1.3 1.764-2.145.668-.93 1.052-1.662 1.24-1.803.157-.12 1.034.606 2.05 1.227.995.607 2.065 1.205 2.13 1.18.065-.022-.423.8-1.046 1.67-.607.866-1.485 1.685-1.7 1.757-.17.09-1.587-.313-2.618-.77-.927-.57-1.82-1.116-1.82-1.116zM578.915 1081.434c.012.612-.02 1.908.597 3.204.575 1.324 1.86 2.536 3.486 3.38 3.283 1.72 7.807 2.29 12.234 2.396 8.94.203 17.634-1.762 19.99-2.214 1.126-.216 3.907-.446 7.414-1.04 3.485-.61 7.77-1.54 11.486-3.418.93-.466 1.81-1 2.596-1.618.79-.61 1.504-1.298 2.028-2.082.534-.777.898-1.64 1.065-2.52.16-.887.086-1.767-.058-2.578-.36-1.614-1.075-2.897-1.654-3.767-.567-.894-1.03-1.398-1.146-1.553-.13-.142.16.117.775.696.6.593 1.532 1.526 2.39 3.006.23.357.392.79.602 1.217.144.46.354.924.432 1.456.237 1.035.24 2.247-.065 3.43-.592 2.41-2.283 4.487-4.162 6.067-3.82 3.194-8.45 5.087-12.224 6.406-3.8 1.295-6.842 1.94-7.96 2.138-2.23.402-13.18 1.452-23.373-.585-2.54-.498-5.027-1.188-7.26-2.13-2.227-.937-4.215-2.17-5.56-3.692-.658-.77-1.156-1.58-1.438-2.368-.142-.39-.23-.774-.302-1.12-.034-.358-.093-.672-.088-.975l.03-.806c.028-.21.064-.37.087-.51l.078-.42zM444.81 1032.057c.746.05 2.362.275 4.407.596 1.016.2 2.168.262 3.345.35 1.183.074 2.38.214 3.595.25 2.462-.044 4.843.083 6.81-.157 1.954-.15 3.446-.207 4.103-.3.618-.04 2.104.147 4.042.45l3.187.282c1.137.104 2.338.248 3.52.24l3.485.088c1.12.045 2.144-.063 3.05-.084 1.808-.08 3.08-.15 3.278-.197.198-.05-.76.34-2.366.96-.808.31-1.773.678-2.83 1.082l-3.47 1.048-1.836.54c-.616.157-1.24.274-1.85.41-1.232.252-2.416.496-3.48.716-2.154.307-3.86.45-4.48.47-1.25.094-7.248-.83-12.6-2.527-2.685-.98-5.248-1.874-6.97-2.803l-2.94-1.413zM586.605 1041.58c.636-.304 2.038-.917 3.88-1.537 1.844-.643 4.114-1.317 6.383-1.948 4.554-1.24 8.99-2.434 10.205-2.688 1.17-.224 5.76.108 10.172-.22.556-.04 1.107-.083 1.648-.123.54-.07 1.068-.14 1.58-.205 1.04-.108 1.974-.343 2.816-.5 1.655-.37 2.798-.765 2.977-.837.17-.088-.616.488-1.966 1.438-.693.43-1.536.94-2.48 1.473-.96.474-2 1.057-3.106 1.504-4.402 1.96-9.434 3.248-10.55 3.385-1.146.197-6.626.18-11.7.08-2.536-.03-5.006-.03-6.813.03-.907.01-1.68.082-2.21.103-.533.027-.835.044-.835.044zM365.484 1070.284c.638.95 1.615 2.517 2.962 4.47 1.35 1.923 3.056 4.355 5.658 6.187 2.62 1.813 6.073 2.64 9.72 3.136 1.84.27 3.69.44 5.63.586l5.827.474c1.944.113 3.86.083 5.76.135 1.9.03 3.756.094 5.62.017 3.7-.09 7.208-.14 10.4-.302 1.59-.062 3.094-.122 4.487-.178l.964-.04.983-.06c.64-.04 1.25-.075 1.828-.11 2.31-.136 4.092-.23 5.174-.27 1.017-.002 2.645-.107 4.8-.164 2.15-.092 4.81-.028 7.803-.304 6.016-.21 13.216-1.368 20.57-2.06 3.55-.39 7.1-.893 9.893-2.473.662-.42 1.314-.882 1.787-1.455.288-.312.48-.62.684-.93.212-.303.374-.667.562-.995.682-1.37 1.133-2.796 1.503-4.13.73-2.68 1.126-5.046 1.428-6.823.288-1.775.482-2.98.556-3.43l.002-.02v-.044l.006-1.42c0-.296.032.235.09 1.42v.002l-.005.073-.297 5.04c-.17 2.188-.385 4.836-1.095 7.805-.186.742-.41 1.504-.707 2.282-.177.396-.285.762-.537 1.2l-.35.64c-.117.196-.223.333-.336.505-1.16 1.617-2.758 2.652-4.402 3.44-3.31 1.557-6.874 2.233-10.263 2.918-1.73.325-3.214.682-4.954 1.056l-4.954 1.077-2.393.514c-.793.127-1.572.25-2.336.37l-4.382.688c-.693.107-1.367.21-2.017.312-.653.088-1.29.136-1.898.2-1.22.12-2.334.23-3.328.325-1.986.185-3.493.33-4.336.368-.942.02-2.78.02-5.273.008-1.266-.01-2.698-.024-4.267-.04l-5.022-.17c-3.567-.09-7.6-.368-11.786-.602-2.103-.146-4.282-.412-6.453-.62-1.086-.11-2.176-.223-3.266-.334-1.062-.178-2.123-.354-3.18-.532-2.13-.37-4.177-.683-6.307-1.088-2.074-.395-4.116-.883-6.068-1.482-1.95-.6-3.832-1.394-5.437-2.477-1.615-1.07-2.88-2.4-3.863-3.682-1.958-2.588-3.072-4.917-3.917-6.507-.805-1.597-1.264-2.502-1.264-2.502z"/></g><g id="ventre"><path fill="#202020" d="M540.412 565.687c.422.72 1.366 3.22 2.27 5.698.993 2.453 1.893 4.78 2.015 5.486.105.664-.54 3.286-1.3 5.78-.818 2.516-1.66 4.8-1.652 5.004.008.205-.684-2.076-1.378-4.477-.725-2.41-1.61-5.03-1.64-5.622-.045-.57.295-3.66.682-6.462.513-2.776 1.002-5.406 1.002-5.406zM633.77 562.506c.294.346.91 1.086 1.507 2.145.633 1.063 1.263 2.42 1.824 3.81 1.1 2.793 1.957 5.54 2.102 6.27.134.725-.59 3.463-.885 6.16-.177 1.36-.18 2.713-.116 3.787.082 1.06.235 1.817.278 1.926.052.105-.344-.353-.996-1.167-.303-.417-.642-.935-1.015-1.515-.317-.59-.725-1.243-1.022-1.932-1.32-2.766-2.155-5.903-2.213-6.568-.088-.717.34-4.017.592-7.018.116-1.505.14-2.976.102-4.037-.006-.54-.086-1.026-.106-1.347-.033-.327-.05-.512-.05-.512z"/><path fill="#202020" d="M593.005 572.09c.182-.392.81-1.26 1.436-2.05.6-.806 1.105-1.53 1.255-1.597.132-.07.683.765 1.393 1.61.63.78 1.538 1.523 1.594 1.506.054-.016-.34.708-.996 1.478-.607.703-1.372 1.376-1.56 1.398-.168.005-1.042-.56-1.763-1.146l-1.358-1.2z" id="nombril"/></g><g id="chevilles"><path fill="#202020" d="M455.072 1031.142c-.222-2.426.3-16.176.686-18.332.367-2.06 7.162-14.527 7.306-15.135.146-.614-.985 14.526-1.42 16.35-.44 1.835-6.572 17.117-6.572 17.117zM478.058 1033.69c-.027-.528.023-1.66.122-3.086.08-.71.03-1.51.04-2.317-.02-.818.024-1.62-.036-2.468-.108-1.69-.17-3.318-.337-4.676-.124-1.344-.202-2.375-.22-2.832 0-.426.28-1.434.7-2.733.37-1.315.907-2.917 1.38-4.514.97-3.188 1.877-6.277 1.884-6.55-.01-.27.626 2.77 1.17 6.136.3 1.676.505 3.453.69 4.906.146 1.46.205 2.61.18 3.025-.022.826-1.03 4.815-2.36 8.424-.776 1.826-1.46 3.58-2.15 4.72l-1.062 1.962zM594.583 1041.08c-.15-.353-.364-1.117-.6-2.086-.26-.95-.57-2.096-.878-3.232-.63-2.27-1.19-4.574-1.2-5.22-.003-.307.268-1.026.678-1.927.425-.905 1.017-2.002 1.633-3.03 1.252-2.103 2.81-3.713 2.834-3.873.025-.087.04.405.05 1.17.014.388-.012.822.033 1.323l.147 1.583c.102 1.083.302 2.236.412 3.15.147.94.237 1.663.214 1.925-.05.513-.81 3.047-1.588 5.502-.42 1.258-.803 2.47-1.167 3.305-.34.85-.567 1.41-.567 1.41zM618.085 1034.57c-.176-.276-.348-.978-.77-1.708-.41-.714-.987-1.453-1.657-2.093-1.3-1.276-2.81-2.364-3.123-2.784-.262-.357-.51-2.423-.634-4.52-.06-1.034-.034-2.066.03-2.815.067-.756.17-1.243.138-1.31-.025-.072.245.24.65.718.437.475 1.044 1.096 1.735 1.72 1.362 1.232 2.96 2.626 3.198 3.058.213.387.97 2.688 1.18 5.15.08 1.247.01 2.397-.26 3.346-.09.475-.264.69-.342.918-.09.205-.143.32-.143.32z"/></g></g></svg>
