<?xml version="1.0" encoding="utf-8"?>
<!-- Generator: Adobe Illustrator 16.0.0, SVG Export Plug-In . SVG Version: 6.00 Build 0)  -->
<!DOCTYPE svg PUBLIC "-//W3C//DTD SVG 1.1//EN" "http://www.w3.org/Graphics/SVG/1.1/DTD/svg11.dtd">
<svg version="1.1" id="Layer_1" xmlns="http://www.w3.org/2000/svg" xmlns:xlink="http://www.w3.org/1999/xlink" x="0px" y="0px"
	 width="189.328px" height="5.138px" viewBox="0 0 189.328 5.138" enable-background="new 0 0 189.328 5.138" xml:space="preserve">
<path id="carte-postale-barre3" d="M187.412,3.196c0.076,0.8-0.506,1.191-1.098,0.938c-2.256-0.966-4.586-0.42-6.875-0.478
	c-2.486-0.062-4.984-0.118-7.463-0.048c-3.004,0.086-6.012,0.182-9.01,0.113c-3.23-0.071-6.453,0.17-9.689,0.088
	c-2.344-0.061-4.734,0.108-7.105,0.125c-4.273,0.025-8.561,0.22-12.82-0.025c-3.967-0.229-7.904,0.259-11.855,0.053
	c-3.66-0.191-7.33,0.021-10.98-0.113c-3.434-0.127-6.873,0.094-10.283-0.152c-3.199-0.23-6.336,0.369-9.518,0.24
	c-6.646-0.271-13.297-0.195-19.946-0.195c-1.92,0.001-3.851-0.309-5.759-0.196c-4.416,0.259-8.818-0.151-13.229-0.071
	c-2.204,0.041-4.415-0.168-6.622-0.17c-2.404-0.006-4.82,0.271-7.21,0.103c-2.138-0.151-4.267-0.078-6.392-0.072
	c-1.971,0.005-3.944-0.306-5.928,0.107c-1.531,0.319-3.109-0.046-4.642-0.21c-0.989-0.106-1.825,0.316-2.776,0.265
	C13.589,3.244,8.966,3.522,4.345,3.586C3.747,3.596,3.188,3.518,2.964,2.92c-0.088-0.232,0.188-0.85,0.338-0.787
	c0.779,0.313,1.176-0.44,1.804-0.55c0.847-0.146,1.713-0.11,2.478,0.021c3.51,0.598,7.03,0.252,10.541,0.283
	c3.498,0.032,7,0.021,10.504-0.119c2.25-0.092,4.519-0.021,6.783-0.062c6.521-0.117,13.045-0.054,19.566-0.033
	c4.564,0.016,9.13,0.057,13.693,0.12c3.766,0.054,7.531-0.161,11.291-0.077c4.654,0.105,9.312,0.115,13.965,0.19
	c2.901,0.047,5.807-0.093,8.704,0.042c3.244,0.15,6.49-0.266,9.713-0.008c5.123,0.408,10.242,0.104,15.359,0.181
	c4.383,0.065,8.777-0.183,13.146,0.076c4.93,0.291,9.867,0.286,14.785,0.295c3.826,0.007,7.688,0.072,11.533-0.207
	c1.645-0.119,3.385,0.103,5.084,0.106c3.516,0.012,7.035,0.045,10.549-0.062c1.188-0.037,2.373-0.229,3.574-0.205
	C187.343,2.139,187.345,2.102,187.412,3.196z"/>
</svg>
