<?xml version="1.0" encoding="utf-8"?>
<!-- Generator: Adobe Illustrator 16.0.0, SVG Export Plug-In . SVG Version: 6.00 Build 0)  -->
<!DOCTYPE svg PUBLIC "-//W3C//DTD SVG 1.1//EN" "http://www.w3.org/Graphics/SVG/1.1/DTD/svg11.dtd">
<svg version="1.1" id="Layer_1" xmlns="http://www.w3.org/2000/svg" xmlns:xlink="http://www.w3.org/1999/xlink" x="0px" y="0px"
	 width="196.837px" height="3.953px" viewBox="0 0 196.837 3.953" enable-background="new 0 0 196.837 3.953" xml:space="preserve">
<path id="carte-postale-barre1" d="M18.948,2.93c-3.943,0-7.887,0.017-11.828-0.012C6.251,2.912,5.454,3.6,4.492,3.001
	C4.05,2.725,3.599,2.453,3.663,2.027C3.736,1.539,4.337,1.33,4.81,1.368c3.209,0.258,6.426,0.202,9.633,0.097
	c4.822-0.158,9.648-0.166,14.473-0.309c2.232-0.066,4.506,0.074,6.76,0.1c0.199,0.002,0.467,0.105,0.588,0.012
	c1.442-1.114,2.717-0.249,4.086,0.217c0.676,0.23,1.496,0.022,2.25,0.033c5.187,0.073,10.371,0.176,15.558,0.223
	c5.005,0.045,10.009-0.113,15.013-0.163c5.623-0.055,11.248,0.131,16.873,0.171c5.901,0.042,11.805-0.055,17.704,0.079
	c4.941,0.112,9.887,0.042,14.826,0.081c5.676,0.044,11.357,0.085,17.037,0.083c6.293-0.002,12.588,0.008,18.881,0
	c3.857-0.005,7.719-0.118,11.572-0.028c4.225,0.098,8.445-0.086,12.668-0.059c3.637,0.023,7.293,0.077,10.936-0.148
	c0.277-0.017,0.568-0.026,0.836,0.037c0.678,0.161,0.889,0.7,0.768,1.29c-0.145,0.696-0.631,0.52-1.137,0.333
	c-1.094-0.403-2.252-0.192-3.373-0.194c-6.021-0.006-12.041,0.129-18.062,0.07c-3.275-0.031-6.549,0.044-9.824,0.051
	c-5.674,0.012-11.348-0.004-17.021-0.012c-4.037-0.005-8.078,0.09-12.109-0.055c-3.35-0.12-6.693-0.018-10.039-0.047
	c-7.432-0.068-14.865-0.024-22.299-0.039c-4.615-0.01-9.233,0.07-13.844-0.088c-6.303-0.219-12.606-0.176-18.903-0.116
	c-3.915,0.038-7.845,0.157-11.752,0.069c-7.847-0.176-15.691-0.08-23.536-0.166c-4.807-0.053-9.611-0.01-14.418-0.01
	C18.948,2.896,18.948,2.913,18.948,2.93z"/>
</svg>
