<svg xmlns="http://www.w3.org/2000/svg" width="189.328" height="5.138" viewBox="0 0 189.328 5.138"><path d="M187.412 3.196c.076.8-.506 1.19-1.098.938-2.256-.966-4.586-.42-6.875-.478-2.487-.062-4.985-.118-7.464-.048-3.004.086-6.012.182-9.01.113-3.23-.07-6.453.17-9.69.09-2.343-.062-4.733.107-7.104.124-4.273.025-8.56.22-12.82-.025-3.967-.23-7.904.258-11.855.052-3.66-.19-7.33.02-10.98-.113-3.434-.128-6.873.093-10.283-.153-3.2-.23-6.336.37-9.518.24-6.646-.27-13.297-.195-19.946-.195-1.92 0-3.85-.31-5.76-.196-4.415.26-8.817-.15-13.228-.07-2.204.04-4.415-.17-6.622-.17-2.404-.007-4.82.27-7.21.102-2.138-.15-4.267-.078-6.392-.072-1.97.005-3.944-.306-5.928.107-1.53.32-3.11-.046-4.642-.21-.99-.106-1.825.316-2.776.265-4.623-.254-9.246.024-13.867.088-.598.01-1.157-.068-1.38-.666-.09-.232.187-.85.337-.787.78.313 1.176-.44 1.804-.55.847-.146 1.713-.11 2.478.02 3.51.6 7.03.253 10.54.284 3.5.032 7 .02 10.505-.12 2.25-.09 4.518-.02 6.782-.06 6.52-.118 13.045-.055 19.566-.034 4.564.016 9.13.057 13.693.12 3.767.054 7.532-.16 11.292-.077 4.654.105 9.312.115 13.965.19 2.9.047 5.807-.093 8.704.042 3.245.15 6.49-.266 9.714-.008 5.123.408 10.242.104 15.36.18 4.382.066 8.776-.182 13.145.077 4.93.29 9.866.286 14.784.295 3.826.007 7.688.072 11.533-.207 1.645-.12 3.385.103 5.084.106 3.517.013 7.036.046 10.55-.06 1.188-.038 2.373-.23 3.574-.206.97.015.97-.022 1.038 1.072z"/></svg>