<?xml version="1.0" encoding="utf-8"?>
<!-- Generator: Adobe Illustrator 16.0.0, SVG Export Plug-In . SVG Version: 6.00 Build 0)  -->
<!DOCTYPE svg PUBLIC "-//W3C//DTD SVG 1.1//EN" "http://www.w3.org/Graphics/SVG/1.1/DTD/svg11.dtd">
<svg version="1.1" id="Layer_1" xmlns="http://www.w3.org/2000/svg" xmlns:xlink="http://www.w3.org/1999/xlink" x="0px" y="0px"
	 width="200.791px" height="5.533px" viewBox="0 0 200.791 5.533" enable-background="new 0 0 200.791 5.533" xml:space="preserve">
<path id="carte-postale-barre2" d="M193.875,2.958c-5.51,0.165-11.02,0.361-16.533,0.478c-2.199,0.046-4.416-0.244-6.604-0.088
	c-2.301,0.164-4.592,0.089-6.885,0.095c-5.168,0.014-10.336,0.185-15.5,0.319c-4.918,0.128-9.838,0.126-14.756,0.268
	c-3.52,0.101-7.047,0.248-10.562,0.133c-6.551-0.214-13.096,0.205-19.645,0.041c-4.098-0.103-8.192-0.246-12.292-0.275
	c-4.258-0.031-8.495,0.453-12.753,0.301c-3.261-0.115-6.522,0.01-9.789-0.143c-2.718-0.127-5.458,0.193-8.175,0.055
	C55.742,3.905,51.115,4.27,46.48,4.207c-5.169-0.068-10.347-0.141-15.509,0.074c-2.897,0.121-5.806,0.166-8.7,0.244
	c-1.917,0.051-3.869,0.037-5.763,0.221c-2.351,0.229-4.658-0.121-6.981-0.021C9.094,4.744,8.636,4.687,8.275,5.022
	C8.119,5.169,7.929,5.246,7.734,5.123C6.57,4.398,5.332,4.207,3.988,4.498C3.555,4.591,3.106,4.308,3.25,3.826
	C3.404,3.3,3.572,2.633,4.384,2.669c4.277,0.189,8.555,0.137,12.835,0.102c2.297-0.019,4.646,0.054,6.937-0.015
	c3.092-0.093,6.189-0.047,9.275-0.087c4.184-0.054,8.376-0.076,12.564-0.066c7.932,0.02,15.861-0.006,23.795-0.005
	c5.697,0,11.396,0.025,17.097,0.014c5.229-0.011,10.458-0.072,15.687-0.078c4.203-0.005,8.41,0.162,12.605,0.031
	c6.172-0.191,12.342-0.223,18.512-0.177c3.723,0.027,7.445-0.031,11.166,0.026c2.232,0.035,4.465,0.248,6.697,0.126
	c7.053-0.382,14.109-0.143,21.162-0.209c3.896-0.037,7.789-0.158,11.682-0.171c4.068-0.013,8.125-0.377,12.191-0.287
	c0.607,0.014,1.195-0.683,1.83-0.006c0.209,0.224,0.596,0.33,0.5,0.714c-0.104,0.416-0.494,0.479-0.855,0.482
	c-1.396,0.011-2.791,0.004-4.188,0.004C193.877,3.029,193.875,2.994,193.875,2.958z"/>
</svg>
