<svg xmlns="http://www.w3.org/2000/svg" id="carte_postale" viewBox="0 0 499.222 363.424" enable-background="new 0 0 499.222 363.424"><path id="carte-postale-bordure" d="M498.11 12.793c.22 1.608-1.118 2.716-1.772 4.11-.56 1.19-1.375 2.06-2.67 2.48-.646.21-1.287.88-1.242 1.4.05.61 1.023.544 1.582.796.24.107.527.112.795.154 1.525.235 2.28 1.024 2.29 2.592.02 1.917-.663 3.534-2.255 4.723-1.11.828-2.104 1.783-2.902 2.936-.514.746-.45 1.33.23 1.974 1.406 1.327 3.02 2.41 4.334 3.85 1.27 1.388 1.266 4.03.24 5.57-.79 1.184-2.143 1.457-3.002 2.452-1.354 1.566-1.328 2.41.572 3.19 1.723.71 2.824 1.95 3.56 3.476.51 1.07.052 2.354-.386 3.418-.547 1.333-1.193 2.642-2.662 3.35-.635.307-1.135.993-1.56 1.6-.517.74-.093 1.33.57 1.74.81.505 1.493 1.14 2.165 1.83.506.52.63 1.07.734 1.688.44 2.55-.837 4.437-2.462 6.143-.844.887-1.63 1.743-1.906 3-.223.98.078 1.57.938 2.03 1.47.79 2.844 1.684 3.645 3.26.898 1.772.48 4.375-1.674 5.71-.532.33-1.087.636-1.604.99-.596.408-1.2.92-1.104 1.693.096.772.793 1.14 1.473 1.418.982.402 1.895.8 2.605 1.728 1.39 1.815.83 3.544-.172 5.344-.59 1.058-1.584 1.713-2.63 2.294-1.788.992-1.83 2.616-.05 3.732 1.246.782 2.316 1.756 3.336 2.785.81.82 1.027 1.873.754 3.037-.38 1.613-.87 3.186-2.168 4.29-.795.68-1.62 1.283-2.3 2.115-1.34 1.633-1.222 2.938.433 4.182 1.46 1.102 3.207 2.045 3.33 4.203.088 1.526-.398 2.846-1.305 4.125-.867 1.223-2.262 1.584-3.297 2.487-.83.72-.79 1.195-.073 2.012 1.21 1.38 2.883 2.223 4.014 3.725.923 1.225.597 2.485.42 3.68-.09.625-.47 1.366-.763 2.03-.67 1.52-2.025 2.016-3.303 2.603-.814.374-1.383.873-1.47 1.696-.1.942.6 1.506 1.35 1.936.927.53 1.86 1.053 2.81 1.538 2.728 1.384 3.282 3.714 1.806 6.397-.73 1.322-1.836 1.842-3.053 2.33-.49.197-.928.41-1.326.756-1.017.884-.946 1.707.19 2.533 1.044.76 2.315 1.136 3.212 2.193.5.593.904 1.24.855 1.875-.1 1.28.088 2.63-.566 3.834-.604 1.11-1.73 1.658-2.698 2.316-1.15.783-2.076 2.213-1.967 3.62.045.57.363.92.838 1.215 2.7 1.682 3.865 4.334 4.137 7.312.172 1.878-.684 3.566-2.418 4.598-.668.397-1.205.928-1.713 1.482-.952 1.038-.862 1.902-.063 3.11.87 1.32 2.336 1.788 3.502 2.673.716.545 1.175 1.275 1.767 1.902.49.52-.094 1.127-.172 1.692-.11.785-.03 1.57-.38 2.365-.58 1.32-1.864 1.53-2.894 2.152-.628.38-1.35.64-1.9 1.105-1.345 1.14-1.058 2.398.614 3.516 1.275.854 2.494 1.78 3.3 3.168 1.163 2.004.476 3.877-.222 5.797-.53 1.472-1.762 2.19-2.99 2.888-2.033 1.152-2.232 3.844-.03 5.453 1.142.832 2.413 1.468 3.26 2.734 1.16 1.742 1.124 4.025-.16 5.702-.894 1.17-2.1 1.963-3.173 2.9-1.708 1.494-1.665 3.175.4 4.2 1.78.886 3.524 1.85 3.96 3.938.457 2.2 0 3.944-2.338 4.615-1.236.354-2.32 1.113-3.254 1.97-.975.89-.69 2.052.47 2.747 1.044.628 2.114 1.227 2.98 2.11 2.544 2.595 2.01 7.073-1.07 9.024-.6.38-1.183.797-1.72 1.26-1.12.974-.666 2.097.445 2.658.88.445 1.822.766 2.594 1.435 2.316 2.01 1.633 6.48-1.178 7.987-.782.42-1.708.73-2.224 1.498-.84 1.258-.152 3.192 1.41 3.887.803.353 1.488.887 2.254 1.295 1.564.837 2.086 3.407 1.188 4.962-.81 1.4-1.875 2.533-3.375 3.25-.744.354-1.766.59-1.805 1.646-.04 1.053 1.133 2.12 2.268 2.53 1.54.56 2.973 1.363 3.992 2.707 1.066 1.404.69 3.424-.648 5.376-.684 1-1.408 2.066-2.37 2.737-.544.38-1.147.85-1.813 1.104-.795.305-.81.792-.535 1.513.49 1.275 1.33 2.185 2.434 2.99 1.902 1.395 3.883 3.013 3.463 5.654-.478 2.97-1.878 5.546-4.815 6.94-.277.13-.568.218-.844.395-1.687 1.092-1.71 2.603-.038 3.766.895.62 1.875 1.09 2.73 1.798 3.067 2.54 1.62 6.338-.712 8.104-1.004.762-2.27 1.166-3.03 2.263-.638.917-.58 1.605.378 2.2 1.182.734 2.22 1.608 3.16 2.64 2.627 2.88 1.727 8.13-2.104 9.648-1.477.587-2.97-.146-4.37-.925-1.497-.834-2.31-2.343-3.638-3.324-.205-.152-.273-.552-.64-.398-.315.13-.308.48-.294.732.04.986-.11 1.943-.31 2.9-.304 1.48-1.622 2.692-3.3 3.002-.627.115-2.152-1.096-2.56-2.22-.493-1.358-1.198-2.578-1.976-3.778-.338-.52-.783-.9-1.248-1.272-.342-.272-.816-.366-1.088-.03-.777.97-1.61 1.882-1.834 3.228-.373 2.24-1.266 4.21-3.543 5.198-.957.415-1.727.158-2.465-.525-1.24-1.146-2.025-2.62-2.984-3.975-.936-1.32-1.645-2.806-2.84-3.938-.516-.485-1.08-.958-1.79-.64-.603.27-.94.8-.98 1.562-.076 1.43-.602 2.78-1.08 4.107-.646 1.774-2.52 2.065-4.244.834-1.48-1.057-2.555-2.477-3.6-3.915-.646-.887-1.48-1.5-2.348-2.13-1.576-1.145-2.918.33-3.117 1.7-.36 2.5-1.348 4.498-3.986 5.392-1.317.445-2.32-.076-3.27-.688-1.808-1.162-2.952-3.036-4.476-4.514-.44-.425-.887-.79-1.44-1.008-1.17-.457-1.62-.2-2.036.968-.354.996-.582 2.028-1.197 2.947-1.245 1.853-3.2 2.387-5.14 1.237-1.752-1.038-3.326-2.312-4.758-3.76-.65-.66-1.416-1.14-2.266-1.457-1.16-.438-2.03-.064-2.714 1.014-.866 1.37-1.728 2.744-2.657 4.068-.898 1.275-2.994 1.238-3.95.024-1.067-1.358-2.186-2.684-3.286-4.02-.84-1.02-1.99-1.243-3.228-1.223-.416.01-.64.326-.828.62-.492.768-.96 1.55-1.416 2.34-1.195 2.063-2.916 3.202-5.367 3.023-1.07-.078-1.81-.634-2.606-1.41-1.413-1.37-1.936-3.243-3.122-4.71-.87-1.072-1.364-1.14-2.27-.127-.5.554-.89 1.19-.935 2.005-.068 1.272-.604 2.345-1.617 3.147-2.027 1.606-4.63-.2-5.113-2.062-.4-1.536-1.196-2.81-2.79-3.368-1.577-.556-2.847.134-2.88 1.818-.05 2.562-1.86 3.47-3.666 4.484-.36.2-.755.105-1.044-.018-2.078-.878-3.918-2.063-4.96-4.18-.54-1.085-1.41-1.91-2.298-2.67-1.08-.924-2.054-.46-2.184.955-.05.514-.012 1.034-.02 1.55-.03 2.112-1.336 4.008-3.297 4.66-1.238.413-2.518.093-3.484-.59-.8-.566-1.664-1.114-2.348-1.925-1.063-1.263-2.658-1.854-4.14-2.52-.806-.362-1.485.296-1.624 1.46-.052.436.093.93-.063 1.31-.574 1.394-.492 2.002-2.762 2.056-2.143.05-3.35-.854-4.415-2.478-1.133-1.726-2.714-2.83-4.84-3.09-1.438-.173-2.274.48-2.18 1.94.07 1.114-.177 2.118-.75 3.042-.855 1.375-2.115 1.743-3.69 1.387-2.233-.508-3.827-1.904-5.435-3.41-1.273-1.192-2.602-2.435-4.555-2.453-1.815-.02-2.79.662-3.244 2.474-.532 2.14-1.812 3.618-3.97 3.93-1.478.21-2.558-.905-3.376-2.073-.613-.874-1.21-1.74-1.99-2.492-1.717-1.65-3.77-1.83-5.972-1.535-.387.053-.413.342-.565.635-.592 1.14-.662 2.432-1.207 3.597-.646 1.377-1.83 1.572-3.028 1.73-3.293.435-5.537-1.312-7.478-3.698-.693-.854-1.52-1.608-2.318-2.375-.977-.94-1.848-.872-2.578.248-.665 1.018-1.18 2.134-1.846 3.15-1.545 2.353-3.764 2.354-5.535.595-.835-.83-1.576-1.882-2.305-2.88-.703-.964-1.584-1.783-2.967-1.645-1.6.162-2.187 1.235-2.684 2.603-.4 1.1-.87 2.305-1.89 2.992-1.66 1.12-3.926.842-5.512-.587-.816-.732-1.656-1.42-2.262-2.41-.566-.936-1.685-1.37-2.71-1.766-.753-.29-1.352-.16-1.56.81-.122.57-.542 1.08-.654 1.65-.602 3.083-3.017 3.573-5.392 2.79-.937-.31-1.777-.79-2.42-1.644-1.168-1.543-2.787-2.535-4.554-3.27-.626-.263-2.017.44-2.277 1.088-.09.224-.17.45-.23.682-1.17 4.552-3.68 4.48-7.143 2.784-.842-.413-1.45-1.147-1.9-2.05-.755-1.518-1.882-2.76-3.475-3.44-.705-.3-1.34-.37-1.83.634-.692 1.427-.586 3.085-1.52 4.432-.676.977-1.583 1.854-2.617 1.865-.885.01-1.962.086-2.895-.895-.792-.832-1.452-1.608-1.806-2.663-.415-1.23-1.364-2.025-2.258-2.855-.732-.68-2.548-.144-3.432.98-.858 1.087-1.536 2.3-2.527 3.302-.747.754-1.423 1.33-2.583 1.372-2.12.073-3.867-.354-5.41-2.024-1.275-1.38-2.704-2.78-4.87-2.89-1.506-.074-2.34.41-3.27 1.525-.955 1.148-1.733 2.442-2.854 3.47-1.343 1.23-4.398 1.147-5.982.27-1.932-1.072-2.784-3.108-4.36-4.486-.57-.5-1.214-.938-1.845-.87-.647.066-.788.91-.934 1.528-.47 1.984-1.18 3.77-3.466 4.27-1.44.31-2.747.228-4.08-.662-2.017-1.35-3.453-3.27-5.187-4.887-.637-.595-1.383-.46-2.042-.73-.917-.372-1.244.643-1.603 1.357-.62 1.233-1.065 2.663-1.99 3.617-2.698 2.783-4.27 2.485-7.238.498-1.665-1.114-2.402-3.054-4.16-4.08-1.8-1.05-2.465-.94-3.555.1-1.245 1.188-1.895 2.76-2.998 4.03-1.584 1.823-4.183 2.025-5.933.337-1.685-1.63-3.374-3.254-5.06-4.882-1.45-1.4-3.49-1.187-4.592.502-.838 1.282-1.567 2.65-2.722 3.69-1.927 1.737-4.516 2.933-6.97 1.772-1.304-.614-2.245-1.74-2.844-3.066-.458-1.014-1.21-1.77-1.99-2.498-.803-.745-1.678-.532-2.225.383-.86 1.44-1.728 2.885-2.695 4.255-.805 1.14-3.634 1.27-4.962.48-1.596-.95-2.424-2.436-3.203-4.003-.283-.57-.702-1.05-1.17-1.492-.988-.932-2.206-.88-3.004.263-.8 1.146-1.627 2.248-2.575 3.29-2.147 2.36-5.675 2.895-8.54 1.48-2.19-1.077-3.377-2.985-4.782-4.744-.97-1.217-1.858-1.27-2.875-.097-.577.665-1.04 1.35-1.393 2.183-.722 1.704-4.128 3.207-6.018 2.77-2.5-.578-4.174-2.104-4.94-4.548-.242-.77-.523-1.448-1.358-1.635-.81-.178-1.426.307-1.8.93-1.057 1.77-2.92 2.522-4.543 3.447-2.116 1.21-5.297.24-6.88-1.703-.674-.825-1.35-1.65-1.976-2.515-1.07-1.478-2.666-1.776-4.326.115-.773.88-.995 2.052-1.695 2.973-.488.643-1.056 1.197-1.687 1.654-1.517 1.1-3.277.804-4.717-.767-1.207-1.314-2.4-2.64-3.915-3.61-1.23-.79-1.97-.655-3.04.376-1.42 1.37-2.84 2.75-4.632 3.646-2.266 1.134-4.524 1.6-6.963.318-2.85-1.495-4.31-3.938-4.612-6.94-.17-1.708.75-3.378 1.986-4.677.756-.795 1.585-1.542 2.475-2.18 1.908-1.37 1.66-2.546-.404-3.59-1.755-.886-3.384-2.06-3.938-4.005-.72-2.526.366-4.603 2.257-6.288.952-.85 2.005-1.57 3.007-2.353.666-.52 1.453-1.26 1.178-2.314-.298-1.146-1.274-1.76-2.292-2.04-.833-.228-1.435-.52-1.843-1.29-.176-.334-.526-.613-.858-.82-2.42-1.506-2.747-5.74-.868-7.937.896-1.048 1.84-2.058 2.787-3.062 1.583-1.68 1.478-3.02-.417-4.452-1.055-.797-1.864-1.812-2.59-2.885-1.2-1.77-.643-5.045 1.028-6.41 1.13-.92 2.263-1.837 3.398-2.75 2.335-1.88.962-4.732-.802-5.727-1.257-.71-2.728-1.293-3.47-2.59-1.002-1.748-.46-4.71 1.613-6.27.833-.63 1.663-1.265 2.463-1.937 1.008-.844 1.067-1.76.275-2.812-.79-1.047-1.832-1.828-2.847-2.607-2.708-2.08-2.89-5.74-.387-8.1.95-.897 2.062-1.563 3.017-2.438.832-.76.836-1.43.056-2.31-1.073-1.215-2.247-2.33-3.31-3.546-1.41-1.61-2.003-3.57-1.28-5.61.66-1.853 1.997-3.367 3.684-4.37 1.59-.94 1.968-2.352 2.108-3.954.058-.675-.57-.815-1.023-.96-.837-.272-1.52-.782-2.264-1.21-1.874-1.078-2.562-4.173-.977-6.29.895-1.194 1.988-2.237 2.92-3.407 1.432-1.798 1.598-2.872.03-4.835-.488-.61-1.268-.996-1.665-1.54-.466-.638-1.236-.304-1.604-.944-.416-.728-.816-1.45-1.04-2.25-.637-2.263.29-4.085 1.697-5.74.408-.48.905-.892 1.385-1.306 1.388-1.2 1.41-2.14.12-3.965-.853-1.212-2.01-2.1-3.04-3.126-.928-.924-.844-2.195-.69-3.31.205-1.46 1.047-2.604 2.398-3.395.922-.54 1.53-1.485 2.116-2.366.692-1.04.53-2.047-.487-3.192-.76-.855-1.596-1.65-2.455-2.408-.876-.77-1.07-1.783-1.2-2.844-.097-.8.445-1.27.853-1.86 1.136-1.653 2.47-3.03 4.294-3.927 2.876-1.416 2.315-3.997.282-5.683-1.057-.877-2.333-1.465-3.262-2.52-.827-.937-1.434-1.943-1.63-3.217-.123-.786-.655-1.423.213-2.246.586-.555 1.07-1.2 1.844-1.49 1.71-.64 2.714-2.034 2.88-3.658.12-1.172-.64-2.452-1.78-3.18-1.376-.878-2.08-2.47-3.556-3.24-.223-.117-.235-.57-.1-.893.817-1.972 1.89-3.716 3.68-5.017 1.42-1.032 1.98-2.628 2.1-4.364.06-.86-.346-1.33-1.144-1.67-.984-.418-2.154-.508-2.826-1.572-.245-.388-.585-.908-.458-1.17.806-1.662.378-3.723 2.208-5.137 1.23-.95 2.7-1.882 3.36-3.61.658-1.726.67-2.92-1.406-3.792-2.713-1.14-3.6-3.352-3.707-5.922-.04-.958.728-2.018 1.305-2.915.66-1.025 1.6-1.838 2.582-2.58.753-.57 1.24-1.424 1.51-2.24.377-1.138-.03-2.222-1.12-2.95-.957-.637-1.983-1.217-2.794-2.01-1.32-1.292-1.36-3.003-1.23-4.747.18-2.443 1.493-4.207 3.227-5.765.502-.45.907-.99 1.3-1.547.944-1.34.93-2.1-.18-3.255-.692-.72-1.477-1.328-2.338-1.83-1.084-.63-1.824-1.625-2.453-2.632-.607-.968-.78-2.102-.07-3.215 1.145-1.795 2.267-3.56 4.596-4.033.568-.115 1.33-.36 1.347-1.15.02-.87-.775-1.295-1.304-1.816-.344-.338-.894-.473-1.356-.685-2.274-1.043-3.06-4.236-1.722-6.232.725-1.08 1.466-2.165 2.145-3.277 1.257-2.062 1.777-4.304 1.28-6.736-.235-1.145-1.206-1.31-2.026-1.67-1.865-.814-3.145-2.44-2.74-4.178.54-2.328 1.426-4.582 3.476-6.107.093-.07.216-.097.316-.16 3.724-2.31 2.262-5.188-.336-6.955-2.452-1.668-2.707-5.913-.454-7.746.897-.73 1.836-1.533 2.41-2.506.94-1.586.884-3.633-1.905-4.805C5.76 32.06 5.16 31.28 4.59 30.4c-.545-.842-.403-1.594-.03-2.47.617-1.46 1.887-2.432 2.622-3.79.338-.625.764-1.204 1.08-1.838.878-1.77.522-3.082-1.018-4.306-2.257-1.794-3.867-3.957-3.97-7.01-.067-2.05.915-3.64 2.518-4.52 1.327-.715 2.98-.905 4.61-.366 2.297.76 4.65 1.345 6.976 2.023 1.854.54 2.36.227 3.378-1.457 1.25-2.07 2.782-3.915 5.158-4.844 1.76-.688 4.218.248 5.322 2.303.59 1.1 1.63 1.647 2.38 2.524.367.43.613.322.908-.13.28-.428.606-.816.823-1.294.96-2.106 2.62-3.298 4.92-3.398 1.983-.087 4.272 1.422 5.2 3.233.668 1.304 1.808 2.265 2.985 3.107.677.484 1.155.066 1.425-.66.505-1.353 1.12-2.65 1.807-3.93 1.082-2.017 5.186-2.968 6.828-.48.52.788 1.085 1.594 1.688 2.28 1.018 1.16 2.143 2.367 3.77 2.747.822.192 1.438-.214 1.91-.89 1-1.43 1.622-3.1 2.797-4.422 1.16-1.306 4.113-1.72 5.496-.667.99.753 1.87 1.597 2.272 2.907.17.552.93 1.144 1.53 1.3 1.58.408 3.177.446 4.28-1.14.47-.682 1.037-1.29 1.53-1.958 1.662-2.26 4.363-2.598 6.544-.62 1.107 1.006 1.614 2.456 2.803 3.357.503.382.953.86 1.504 1.147 1.804.938 2.808.62 4.022-1.267.685-1.066 1.347-2.11 2.288-3.01 1.468-1.4 3.306-1.437 4.742.047.793.82 1.488 1.692 2.09 2.664 1.073 1.727 3.196 1.75 4.392.083.75-1.047 1.533-2.065 2.463-2.963 1.392-1.344 2.01-1.394 3.977-.705 2.425.85 4.06 2.708 5.853 4.37.496.458.95.914 1.648 1.022.5.077.873-.09 1.058-.568.508-1.304.964-2.632 1.718-3.82.792-1.248 1.72-1.344 3.124-1.113 2.283.375 3.277 2.26 4.727 3.593 1.8 1.654 5.067 1.07 6.23-1.14.724-1.372 1.855-2.463 3.097-3.38.31-.23.843-.276 1.366-.186 2.722.47 4.337 2.294 5.553 4.53.53.975 1.267 1.79 1.793 2.77.584 1.088 2.13 1.173 2.74.144.684-1.153 1.567-2.18 2.075-3.45.723-1.812 3.627-3.154 5.632-2.645 1.816.462 3.446 1.215 4.598 2.825.518.723 1.208 1.36 1.927 1.893 1.19.882 2.81.038 3.8-1.94.88-1.76 2.205-2.888 4.148-3.397.932-.244 1.728.09 2.385.424 1.467.745 2.98 1.564 3.633 3.268.042.112.066.232.12.338 1.235 2.385 3.637 2.618 5.442.58.778-.88 1.11-2.043 2-2.846.637-.576 1.163-1.274 1.79-1.863 1.335-1.253 3.343-1.346 4.735-.18 1.12.936 1.938 2.13 2.687 3.385 1.825 3.057 4.47 4.097 7.652 1.486 1.966-1.612 3.662-3.61 6.125-4.612.895-.365 1.69-.257 2.52-.06 1.988.473 3.31 1.646 4.51 3.384.786 1.138 1.33 2.784 3.023 3.27 1.23.355 2.878-.27 3.478-1.436.637-1.235 1.18-2.513 2.138-3.586.99-1.107 3.29-1.682 4-1.1.81.663 1.518 1.477 2.17 2.303.79.998 1.458 2.093 2.212 3.12.98 1.334 2.164 1.76 3.297 1.168.713-.373 1.232-1.034 1.547-1.726.52-1.142.845-2.37 1.265-3.56.555-1.57 3.186-1.895 4.477-.57 1.138 1.163 2.01 2.53 2.66 3.983.655 1.468 1.975 1.348 3.1 1.496.937.124 1.488-.734 1.886-1.545.672-1.376 1.185-2.823 2.27-3.988 1.242-1.333 2.94-1.362 4.02.122.672.92 1.404 1.795 1.867 2.878.252.595.774 1.135 1.3 1.54.61.47 1.24.58 2.04.003 1.432-1.027 2.115-2.644 3.367-3.806 2.117-1.963 4.002-2.02 6.23-.135 1.79 1.513 3.096 3.524 5.104 4.82.55.354.98.737 1.57.362.63-.398 1.308-.898 1.2-1.75-.117-.935.533-1.65.533-2.57.002-.647.65-1.188 1.235-1.505 2.367-1.283 5.263-.408 6.707 1.9.584.93 1.26 1.826 2.01 2.625.855.908 1.988.892 3.122.587 1.014-.274 1.254-1.117 1.426-2 .354-1.81 1.45-3.016 3.127-3.655.774-.295 1.668.103 2.227.49 1.715 1.196 3.18 2.718 3.867 4.755.408 1.21 1.44 1.62 2.295 1.386.835-.23 2.27-.21 2.24-1.84-.013-.663.364-1.346.618-2 .877-2.25 3.133-3.18 5.27-2.053 1.245.656 2.42 1.497 2.983 2.912 1.097 2.75 3.607 3.062 5.676.764 1.185-1.32 2.58-2.43 3.67-3.85.538-.704 2.9-.697 3.702-.208 1.53.932 2.244 2.492 3.217 3.867.67.95 1.27 2.01 2.53 2.357.94.26 1.558 0 1.94-.955.452-1.13.975-2.24 1.553-3.313.722-1.342 3.02-1.687 4.274-.855 1.43.945 2.35 2.287 3.265 3.658.11.165.19.35.313.504.573.716 1.146 1.54 2.217 1.29.95-.22 1.253-1.032 1.5-1.92.277-.993.46-2.014.77-2.988.603-1.89 2.487-3.328 4.546-2.412 2.082.927 3.626 2.423 4.904 4.283.746 1.087 1.72 2.03 3.183 2.006 2.208-.034 2.585-.41 3.25-2.96.634-2.44 2.675-3.164 4.698-1.644 1.264.947 2.1 2.305 3.133 3.467 1.28 1.437 3.15 1.77 4.665.59.69-.537 1.234-1.21 1.69-1.93.94-1.5 2.085-2.674 3.89-3.09.73-.17 1.268-.77 2.18-.618 1.934.322 3.162 1.58 4.424 2.875.89.912 1.542 2.083 2.837 2.564.805.3 1.332.29 1.816-.623.625-1.175 1.154-2.43 2.135-3.403 1.098-1.09 3.217-1.296 4.354-.265 1.488 1.348 2.936 2.745 4.35 4.17 1.146 1.155 1.986 1.057 2.52-.465.356-1.023.878-1.955 1.462-2.837 1.244-1.88 3.977-2.195 5.71-.724.788.67 1.437 1.48 2.007 2.335.67 1.002 1.618 1.58 2.755 1.82 1.896.402 3.445-.887 3.834-2.657.67-3.06 3.735-3.71 5.99-2.574 1.944.98 3.21 2.46 4.257 4.195 1.215 2.01 3.102 2.164 4.627.31.924-1.122 2.053-2.08 2.816-3.322.998-1.61 2.543-1.52 4.084-1.394 1.69.14 2.86 1.17 3.95 2.38.92 1.02 1.9 2.003 2.968 2.86 1.043.834 1.826.605 2.814-.352 1.29-1.25 1.943-2.91 2.965-4.328.714-.992 3.265-1.618 4.325-1.013 1.67.954 3.254 1.892 4.148 3.83 1.162 2.507 5.498 3.206 7.68 1.45.928-.745 1.822-1.534 2.787-2.227 1.63-1.172 3.44-1.208 5.148-.323 3 1.568 5.575 5.317 5.403 8.766zm-378.934 340.47c.72.438 1.43-.49 2.113.102.714.62 1.48 1.18 2.217 1.774.142.113.372.27.187.474-.536.593.1.505.35.638.17.088.436.116.502.25.75 1.504 1.84 2.66 3.336 3.437 1.176.608 2.097.41 2.825-.656.58-.852 1.248-1.662 1.673-2.585.395-.857 1.69-1.28 1.255-2.546-.024-.07.178-.247.3-.343.95-.72 2.335-.645 3.332.17.272.224.582.34.82-.02.235-.354.493-.206.716-.058 1.002.668 2.082 1.348 2.713 2.33.613.954 1.3 1.845 2.003 2.71 1.13 1.396 3.612 1.514 4.64.208.964-1.227 1.828-2.552 2.41-4.014.524-1.312 1.115-2.418 2.78-2.524 1.105-.07 2.446.392 3.083 1.337 1.507 2.235 3.55 3.916 5.738 5.428.926.64 1.772.39 2.39-.544 1-1.51 1.878-3.096 3.058-4.49.61-.723 1.236-.855 2.09-.65 2.06.495 3.185 2.123 4.41 3.608.785.955 1.512 1.914 2.847 2.12 1.278.196 2.646.706 3.67-.48 1.048-1.217 2.11-2.438 2.886-3.87.578-1.065 1.91-1.728 3.148-1.553 2.523.356 4.67 1.388 6.413 3.323 1.328 1.478 2.905 2.534 5.064 1.63 1.245-.52 2-1.53 2.52-2.68.53-1.174 1.54-1.952 2.283-2.93.768-1.013 3.602-.446 4.445.46 1.293 1.393 2.434 2.897 3.187 4.66.512 1.197 1.79.755 2.653 1.216.353.187.786-.397 1.142-.818.94-1.114.676-2.556 1.262-3.756.792-1.623 2.135-2.434 3.8-2.538 1.528-.095 2.67.83 3.43 2.136.846 1.456 1.433 3.072 2.878 4.126 1.962 1.432 3.54.957 4.212-1.312.09-.308.18-.612.267-.92.64-2.307 4.358-3.966 6.636-2.384.65.45.84 1.26 1.303 1.746.985 1.038 2.04 2.057 3.324 2.802 1.55.896 2.993.407 3.507-1.274.22-.72.48-1.43.724-2.14.566-1.65 1.614-2.228 3.288-1.81.755.187 1.408.756 2.28.47.13-.044.466.21.544.395.308.732 1 1.166 1.37 1.805.535.926 1.265 1.64 2.042 2.31.728.626 1.533.675 2.424.187 1.153-.635 1.604-1.753 1.83-2.857.418-2.025 4.428-3.912 6.262-2.79.837.51 1.57 1.196 2.3 1.862.938.856 1.782 1.812 2.73 2.65.964.855 2.3.662 2.827-.4.46-.926 1.002-1.793 1.547-2.668 1.524-2.443 5.096-2.492 6.55-.014.725 1.23 1.51 2.386 2.493 3.425 1.258 1.33 2.907 1.587 4.486 1.3 1.447-.265 2.13-1.65 2.574-3.02.086-.263.147-.537.185-.81.076-.582.378-.9.886-1.248 1.193-.814 2.54-.856 3.822-.8 1.97.09 3.822.52 5.01 2.494.674 1.122 1.64 2.126 2.723 2.953 1.063.812 1.913.743 2.812-.247.73-.806.99-1.834 1.125-2.833.317-2.41 2.402-3.382 4.436-2.984 2.256.44 4.137 1.56 5.764 3.19 1.162 1.163 2.402 2.254 3.91 2.986 1.634.792 2.658.287 2.87-1.506.095-.787.098-1.586.327-2.354.418-1.386 1.686-2.312 3.09-2.406 1.285-.084 2.354.505 3.48.945 1.658.65 2.498 2.234 3.77 3.326.768.657 1.552 1.105 2.522.75.88-.324.782-1.23.817-1.96.04-.83-.124-1.855.76-2.187.657-.242 1.033-.79 1.66-1.004 1.146-.388 2.05.31 3.017.647 1.27.44 2.055 1.55 3.008 2.43.904.838 1.6 1.893 2.69 2.536 1.07.633 2.203.435 3.13-.412 1.148-1.05 1.21-2.382 1.256-3.77.045-1.3.447-2.41 1.82-2.89 1.25-.437 2.505-.582 3.557.41.706.665 1.376 1.364 1.757 2.33.652 1.65 1.627 3.11 3.295 3.91 1.438.69 2.482.23 2.734-1.333.24-1.512.784-2.697 1.967-3.746 1.526-1.355 4.55-1.366 5.83.253 1.035 1.31 1.98 2.688 3.004 4.01.715.926 1.334.89 1.916-.082.527-.88.693-1.873.96-2.848.193-.71.188-1.83 1.163-2.27 2.562-1.15 4.77.1 5.53 2.245.476 1.35.905 2.778 2.218 3.765 1.29.966 3.67.777 4.264-.586.283-.652.506-1.332.757-1.998 1.203-3.2 2.823-3.83 5.798-3.24 2.6.515 4.012 2.74 5.678 4.536.106.114.108.396.06.573-.207.72.302 1.172.744 1.406.568.304.883-.374 1.192-.73.872-1.015 1.11-2.36 1.77-3.5.827-1.424 2.052-1.862 3.6-1.988 2.218-.18 3.42 1.406 4.82 2.604 1.32 1.127 2.26 2.737 4.14 3.136.533.112 1.074.31 1.588-.05 1.156-.81 2.03-1.776 2.27-3.283.284-1.77 1.08-2.337 2.866-2.296 1.682.04 2.936 1.062 3.814 2.26.955 1.296 2.162 2.268 3.277 3.357 1.712 1.67 3.59.8 4.353-.79.59-1.23.506-2.588 1.117-3.81.826-1.647 2.336-2.416 4.154-1.832 1.75.562 2.89 1.86 3.932 3.26.662.89 1.312 1.778 2.104 2.563.678.674 1.408 1.23 2.398.847.94-.362 1.03-1.34 1.04-2.126.013-1.15.374-2.152.784-3.186.557-1.404 1.568-2.04 3.008-1.65 2.268.613 3.49 2.53 4.678 4.273 1.072 1.573 1.604 3.504 3.426 4.528.854.48 1.46.397 1.715-.542.56-2.048 1.81-3.822 2.26-5.92.095-.43.27-.95.696-1.324 1.303-1.144 3.146-1.01 4.338.356 1.344 1.544 2.426 3.246 3.13 5.174.237.65.714 1.384 1.276 1.186.645-.23 1.537-.333 1.756-1.48.252-1.322-.316-2.664.422-4.03.283-.52.48-1.002.98-1.09.64-.112 1.27-.254 1.9.46 1.404 1.602 2.996 3.042 4.83 4.154 1.09.66 2.826.198 3.334-.792 1.553-3.013.562-6.41-2.44-7.916-1.35-.676-1.93-1.718-1.974-3.062-.045-1.343.77-2.287 1.914-2.912 1.02-.558 1.95-1.198 2.748-2.064 1.605-1.737 1.443-3.52-.545-4.777-1.475-.936-2.496-2.243-3.432-3.687-1.078-1.657-.04-4.745 1.852-5.273 2.69-.75 3.56-2.943 4.406-5.164.15-.393.17-.938-.02-1.516-.69-2.127-2.302-3.12-4.185-3.958-1.014-.45-1.783-1.27-1.898-2.487-.182-1.863 1.63-4.66 3.518-5.174.84-.228 1.135-.817 1.49-1.4.363-.603.66-1.263.89-1.93.646-1.877-.022-3.093-1.9-3.845-1.27-.51-2.587-.892-3.64-1.94-2.006-1.996-1.537-4.016.89-5.14 1.644-.763 3.093-1.622 3.876-3.33.278-.6.577-1.2-.21-1.645-1.947-1.105-3.684-2.396-5.023-4.282-.893-1.252-1.148-2.777-.062-3.928.654-.69 1.354-1.358 2.2-1.79 1.093-.554 1.726-1.51 2.296-2.49.774-1.332.546-2.3-.603-3.355-.627-.574-1.43-.82-2.16-1.197-1.46-.754-2.336-2.4-1.844-3.86.383-1.146 1.404-1.84 2.258-2.647.605-.568 1.57-.408 2.054-1.154 1.365-2.114.594-5.056-1.56-6.34-1.105-.656-2.21-1.353-3.032-2.396-.94-1.188-1.084-3.638.402-4.53.93-.56 1.822-1.18 2.975-1.323 1.118-.14 2.054-.864 2.438-1.846.396-1.016-.08-1.943-.902-2.814-.78-.826-1.758-1.068-2.68-1.396-2.523-.898-3.006-4.45-1.238-6.158 1.197-1.16 2.342-2.375 3.52-3.553 1.63-1.624 1.584-3.114-.227-4.522-.778-.604-1.653-1.093-2.503-1.603-.705-.424-1.404-.882-1.6-1.72-.85-3.673-.363-4.696 2.42-6.767.512-.38 1.164-.416 1.617-.91 1.36-1.485 1.494-5.452-.56-6.586-1.022-.562-1.915-1.39-2.774-2.192-.99-.925-1.713-3.056-.254-4.544 1.24-1.266 3.117-1.61 4.16-3.178.537-.807 1.19-1.47 1.197-2.516.004-.94-.53-1.488-1.3-1.812-.938-.396-1.657-1.072-2.444-1.676-2.128-1.63-2.497-4.106-.833-6.193.615-.77 1.354-1.442 2.012-2.187 2.335-2.652 1.853-5.245-.528-7.574-.934-.914-2.133-1.623-2.846-2.673-.984-1.453.627-5.662 2.285-6.3 1.632-.63 2.38-1.944 3-3.424.323-.77-.798-1.146-.478-1.895-1.137-.165-1.738-1.176-2.66-1.7-.72-.405-1.602-.743-1.932-1.635-.36-.982.033-3.418 1.344-4.047 1.064-.513 2.09-1.142 3.064-1.812 2.586-1.77 1.773-3.8-.248-4.712-1.523-.69-3.076-1.408-4.242-2.734-1.023-1.167-.824-3.872.37-4.82 1.355-1.066 2.66-2.193 3.915-3.37 1.05-.98.752-3.288-.48-3.884-1.603-.773-2.726-2.053-3.74-3.424-.837-1.13-.626-2.185.458-3.1.878-.742 1.753-1.484 2.642-2.21.84-.69 1.36-1.65 1.812-2.56.645-1.3-.105-2.523-1.787-3.4-1.318-.686-2.324-1.627-2.64-3.145-.51-2.457.4-4.243 2.556-5.477.734-.42 1.26-1.103 1.736-1.788 1.333-1.925 1-4.09-.91-5.376-.526-.353-1.028-.743-1.517-1.126-2.322-1.833-3.146-5.805.06-7.396.735-.365 1.312-1.12 1.786-1.878 1.22-1.958 1.15-2.315-.733-3.49-.26-.163-.52-.166-.79-.226-.95-.213-2.394-1.977-2.462-2.937-.13-1.872 1.37-2.545 2.547-3.387.822-.59 1.578-1.15 2.035-2.09.633-1.307.195-2.645-1.1-3.356-.75-.412-1.482-.88-2.145-1.426-1.95-1.613-2.02-4.098-.387-6.014 1.3-1.526 2.79-2.88 3.203-4.98.197-.993.256-1.814-.756-2.446-.557-.346-.96-.908-1.543-1.277-.692-.436-1.18-2.495-.946-3.234.527-1.684 1.578-2.928 3.04-3.895 2.175-1.437 2.146-4.202-.03-5.618-.43-.28-.883-.532-1.346-.753-2.568-1.23-3-4.328-.908-6.247.834-.765 1.717-1.47 2.545-2.234.945-.87 1.215-2.542.537-2.99-1.39-.918-2.396-2.253-3.762-3.206-1.633-1.137-2-3.107-1.18-4.584 1.105-1.984 3.1-3.253 4.13-5.353.343-.697.534-1.41.474-1.977-.066-.634-.988-.322-1.537-.433-.973-.196-1.85-.573-2.408-1.47-.558-.896-.44-1.808.175-2.54.883-1.043 2.232-1.69 2.594-3.168.02-.075.188-.132.304-.162 1.55-.404 1.986-1.667 2.166-3.006.39-2.906-1.89-5.8-4.445-6.864-2.445-1.02-4.285.4-6.008 1.705-1.752 1.33-3.66 2.045-5.73 1.67-2.893-.523-4.94-2.294-6.324-4.96-1.162-2.237-2.686-2.253-4.137-.232-1.09 1.52-2.12 3.075-3.643 4.23-1.045.794-2.098.897-3.314.38-1.917-.812-3.022-2.493-4.382-3.9-2.73-2.833-5.023-1.962-6.434.782-.535 1.044-.916 2.173-2.11 2.686-3.126 1.343-5.353 1.97-7.267-1.7-.664-1.273-1.59-2.5-3.127-3.126-1.584-.645-2.518-.452-3.344 1.034-.62 1.11-1.21 2.248-2.19 3.112-.946.832-2.038 1.512-3.28 1.295-1.707-.297-3.186-1.158-4.297-2.57-.757-.96-1.538-1.918-2.722-2.4-1.316-.538-1.855-.334-2.58.813-.658 1.04-.938 2.235-1.465 3.326-.46.946-1.14 1.52-2.222 1.442-1.137-.08-2.145-.45-2.966-1.312-1.242-1.306-2.162-2.888-3.918-3.743-1.69-.822-2.58-.73-3.032 1.145-.275 1.146-.992 1.914-1.654 2.688-.396.46-1.12 1.15-1.88.917-.848-.262-1.728-.485-2.495-1.046-1.062-.776-1.74-1.935-2.758-2.7-1.033-.777-1.652-2.26-3.605-1.628-1.54.5-2.844 1.124-3.73 2.384-.555.79-1.145 1.535-1.877 2.106-2.096 1.636-5.256 2.35-7.34-.43-.924-1.23-1.973-2.383-3.252-3.3-.475-.342-.762-.33-1.217.04-.728.585-.814 1.428-.992 2.202-.467 2.04-2.05 3.206-4.23 3.126-3.096-.113-5-1.846-6.442-4.3-.717-1.218-1.625-2.098-3-2.506-.526-.156-.824-.152-.965.45-.273 1.182-.578 2.357-.883 3.53-.432 1.657-1.383 2.842-3.09 3.293-1.51.4-2.592-.3-3.578-1.36-.87-.937-1.592-1.963-2.21-3.07-.44-.787-1.222-1.413-1.98-1.353-.762.062-1.366.845-1.538 1.752-.073.38-.205.755-.353 1.116-.927 2.28-2.644 3.8-5.517 2.363-1.01-.506-1.735-1.232-2.384-2.102-.784-1.053-1.225-2.323-2.12-3.307-.638-.7-1.298-.922-2.23-.492-.454.21.294.796-.354.75-1.646-.115-2.23 1.172-2.87 2.268-.605 1.023-1.3 1.987-2.355 2.442-1.926.83-4.826-.06-6.188-1.767-.663-.83-1.27-1.714-1.85-2.607-.46-.705-1.074-1.236-1.888-1.235-.936 0-1.26.833-1.56 1.578-.105.257-.182.526-.28.785-.306.814-.675 1.577-1.208 2.29-1.69 2.262-5.504 2.244-6.797.32-.514-.762-1.162-1.346-1.39-2.436-.163-.772-1.095-1.893-2.167-2.415-1.276-.623-2.035-.402-2.633.94-.37.83-.623 1.71-.957 2.555-.346.875-.873 1.73-1.834 1.84-2.062.24-4.115.385-5.516-1.757-.516-.79-1.3-1.39-1.67-2.326-.236-.597-.825-.995-1.355-1.318-1.332-.812-2.808-.24-3.332 1.25-.312.894-.557 1.812-.84 2.715-.692 2.19-2.24 2.836-4.425 2.047-1.41-.51-2.234-1.604-3.154-2.624-1.366-1.515-2.82-2.896-4.706-3.76-.525-.242-.94-.34-1.396.128-.757.784-1.57 1.647-2.05 2.507-.718 1.287-1.774 1.87-2.87 2.58-1.336.87-3.12.25-4.182-.82-1.022-1.03-1.598-2.33-2.317-3.54-.762-1.274-1.62-1.378-2.46-.218-.42.576-.724 1.184-.843 1.94-.288 1.83-1.732 3.404-3.225 3.57-.697.08-1.43-.03-2.13-.15-1.786-.31-3.16-1.168-3.625-3.05-.298-1.206-1.218-1.918-2.044-2.71-.37-.354-.84-.25-1.25-.147-.437.108-.365.53-.387.897-.043.734-.135 1.466-.223 2.197-.23 1.916-3.467 4.15-5.34 3.72-2.62-.6-4.168-2.52-5.426-4.633-.92-1.542-3.012-1.99-4.183-.61-.86 1.013-1.707 2.066-2.416 3.157-.603.93-1.228 1.563-2.244 1.532-.948-.03-1.962.144-2.86-.383-1.692-.996-2.88-2.427-3.83-4.134-.874-1.566-2.2-3.05-4.3-2.574-2.064.467-3.137 2.034-4.33 3.452-.907 1.08-1.602 2.408-3.033 2.802-1.5.413-3.053.237-4.576-.127-.792-.19-1.42-.557-2.06-1.083-1.407-1.15-2.1-2.788-3.136-4.187-1.63-2.2-4.138-2.14-5.294.27-.603 1.255-1.247 2.43-2.114 3.533-1.292 1.644-2.885 2.27-4.88 1.732-2.203-.595-3.255-2.336-4.376-4.09-1.362-2.133-3.18-3-4.85-1.4-.886.848-1.75 1.854-2.167 3.157-.534 1.673-2.344 2.4-4.067 1.975-1.274-.315-2.172-1.062-3.005-1.994-.635-.71-1.29-1.415-2.005-2.042-2.13-1.867-3.985-1.54-5.537.77-.647.964-.92 2.074-1.53 3.035-1.33 2.098-3.398 3.01-5.664 1.614-1.598-.986-2.133-2.722-2.986-4.217-.75-1.315-1.653-2.438-3.013-3.118-.34-.17-.72-.396-1.202-.023-.908.7-1.876 1.315-2.572 2.254-1.655 2.234-3.925 3.188-6.625 2.844-1.34-.17-2.788-.415-3.51-1.958-.428-.918-1.346-1.495-2.25-1.863-.72-.295-1.538-.623-2.222.47-.57.91-1.125 1.823-1.572 2.793-.594 1.29-1.987 1.915-3.295 1.518-1.195-.36-2.073-1.09-2.835-2.035-.19-.236-.31-.748-.623-.657-1.12.325-1.5-.585-2.145-1.11-.64-.518-1.343-.973-2.068-1.366-.76-.413-1.606-.44-2.183.285-.865 1.087-1.71 2.21-2.398 3.413-.717 1.25-2.54 1.795-3.855 1.18-2.015-.94-3.51-2.318-4.556-4.29-.37-.695-1.042-1.175-2.07-.632-1.382.73-1.94 2.038-2.636 3.247-1.065 1.85-3.106 2.748-5.16 2.14-1.653-.487-2.82-1.61-3.69-3.026-.382-.62-.796-1.203-1.28-1.716-1.756-1.858-3.815-1.526-5.1.626-.717 1.205-1.665 2.31-2.992 2.94-.528.252-1.186.272-1.662.585-1.354.888-2.4.904-3.44-.297-1.017-1.176-1.79-2.542-2.58-3.887-.625-1.06-2.707-1.447-3.434-.624-.698.788-1.3 1.664-1.907 2.527-.92 1.31-1.758 2.675-3.27 3.435-.997.502-3.302.486-3.918-.355-1.225-1.672-3.054-2.75-4.177-4.516-.616-.97-1.657-1.424-2.832-1.312-1.194.115-1.563 1.088-1.895 2.037-.117.334-.115.707-.203 1.054-.266 1.053-.94 1.91-1.504 2.792-.47.736-2.652.63-3.58.06-1.46-.894-2.376-2.278-3.277-3.642-1.147-1.736-2.875-2.692-4.325-1.977-1.275.628-2.395 1.522-3.212 2.763-1.105 1.678-3.314 3.1-5.5 1.12-.632-.574-.967-1.35-1.14-2.183-.185-.9-1.375-1.948-2.257-2.153-1.768-.412-4.176 1.655-4.76 3.345-.436 1.266-.863 2.84-2.345 3.034-2.486.325-4.967-.217-7.34-1.01-2.506-.84-4.962-2.004-7.524-.207-.38.28-.61.512-.37 1.085.293.696.697 1.585.492 2.204-.514 1.55.532 2.442 1.274 3.295.715.82 1.596 1.567 2.248 2.437.808 1.077 1.517 2.295.928 3.804-.64 1.64-.953 3.41-2.34 4.705-.658.614-1.105 1.448-1.675 2.16-.57.71-.49 1.255.273 1.78 1.035.714 2.21 1.27 2.97 2.318.826 1.133 1.554 2.298 1.285 3.83-.342 1.952-1.705 3.14-3.05 4.388-1.836 1.706-1.883 4.45.3 5.774.687.418 1.22.99 1.687 1.617 1.72 2.312 1.696 4.747-.103 6.565-.685.69-1.508 1.243-2.245 1.884-1.555 1.354-2.275 3.12-2.372 5.138-.042.86.35 1.5 1.24 1.803.675.23 1.338.518 1.965.858.583.316 1.18.624 1.38 1.39.773 2.937.438 5.683-1.258 8.24-.832 1.252-1.778 2.43-2.254 3.904-.452 1.4-.225 2.458.898 3.08 1.11.612 2.075 1.36 2.908 2.332 1.15 1.34 1.133 3.527-.502 4.667-.828.576-1.65 1.235-2.662 1.51-1.176.323-2.125 1.102-2.233 2.22-.135 1.406.534 2.667 1.795 3.52 1.015.687 2.02 1.397 2.974 2.163 1.3 1.042 1.588 2.732.77 4.17-.792 1.394-1.864 2.582-2.963 3.72-.977 1.012-1.63 2.184-1.845 3.51-.213 1.326-.603 2.814.76 3.85.876.666 1.77 1.33 2.733 1.854 1.537.835 1.827 2.285 1.954 3.772.13 1.51-.836 2.548-1.908 3.43-1.384 1.136-2.692 2.29-3.286 4.076-.506 1.523.01 2.844 1.448 3.553 1.935.953 3.965 1.792 3.97 4.52.003 1.236-.29 2.42-.735 3.47-.314.748-.967 1.5-1.678 2.14-.503.452-1.13.854-1.618 1.388-.72.783-1.138 1.74-1.847 2.52-1.027 1.126-.604 2.065.952 2.5 2.802.785 3.542 1.678 2.957 4.402-.428 1.994-1.24 3.92-3.224 5.046-1.11.63-1.736 1.726-2.234 2.877-.17.388-.112.59.33.8 2.085 1 3.623 2.54 4.637 4.653.7 1.456.3 4.926-.9 5.93-.5.42-1.155.647-1.73.98-2.525 1.468-2.67 3.47-.853 5.3.245.245.58.414.896.575 1.147.588 2.176 1.364 2.994 2.33.8.944 1.46 2.034 1.41 3.375-.072 2.018-1.28 3.27-2.9 4.203-.77.44-1.6.79-2.238 1.41-1.86 1.802-2.467 3.3-.755 5.058.525.538 1.14.988 1.67 1.52 2.375 2.394 2.28 4.38.15 6.655-1.197 1.28-2.116 2.73-3.224 4.054-.32.383-.168.803.008 1.23.476 1.154 1.41 1.893 2.356 2.594 2.255 1.676 2.443 3.967 1.983 6.322-.21 1.074-1.165 1.848-1.817 2.297-1.165.805-1.89 1.684-2.252 2.97-.132.472-.117.83.36 1.236 1.542 1.317 2.776 2.916 3.993 4.54 1.524 2.036 1.753 4.383.598 6.668-.528 1.044-1.54 1.35-2.39 1.815-1.36.744-1.5 1.937-1.527 3.188-.024 1.09.838 1.664 1.718 1.907 3.737 1.034 4.066 7.162 1.116 8.98-.825.507-1.432 1.337-2.322 1.83-.487.268-.978.765-1.18 1.27-.958 2.393-.514 4.014 1.424 5.84.86.81 1.732 1.62 2.524 2.5.994 1.102 1.173 2.95.444 3.86-.962 1.196-1.96 2.334-3.26 3.226-1.752 1.2-2.326 3.912-.317 5.465.972.75 2.026 1.417 2.9 2.27 1.96 1.905 2.222 4.062-.38 5.786-.786.52-1.627 1.06-2.202 1.78-1.788 2.25-2.324 3.778.6 5.567 1.02.624 1.995 1.3 2.79 2.21 1.487 1.698 1.564 4.77.292 6.636-.947 1.384-2.232 2.19-3.7 2.91-1.888.926-2.433 3.236-1.212 4.638.84.963 1.706 1.895 2.734 2.685 1.6 1.23 1.907 3.834.815 5.54-.73 1.144-1.627 2.092-2.698 2.93-1.764 1.378-2.484 4.47-.943 5.83.705.623 1.492 1.157 2.21 1.748 1.098.904 2.666 1.01 3.413 2.62.932 2.004.232 5.434-1.854 6.43-1.543.736-2.938 1.546-3.785 3.12-.375.694-.527 2.207-.024 2.38 2.208.76 3.36 2.645 4.73 4.296 1.147 1.386 1.138 2.57.156 4.04-.863 1.29-2.264 1.956-3.3 3.034-.81.843-1.867 1.57-1.773 2.93.127 1.85.747 3.586 1.958 4.94.792.882 2.09 1.206 3.245 1.596.912.31 4.34-.94 4.766-1.754.758-1.444 1.886-2.528 3.234-3.388 1.617-1.03 4.108-.91 5.336.223 1.005.927 1.838 2.01 2.734 3.037 2.112 2.42 3.812 2.785 5.668-.63.49-.9.983-1.82 1.63-2.604 1.892-2.28 4.168-2.213 6.037-.165 1.207 1.322 2.328 2.735 4.003 3.624 1.677.89 3.362.98 4.876-.22.958-.76 1.903-1.527 2.763-2.423 1.987-2.067 4.6-1.465 5.37 1.296.512 1.835 1.72 2.89 3.35 3.312 1.258.324 2.674.507 3.834-.727 1.06-1.125 1.694-2.515 2.646-3.696.55-.687 1.006-1.63 1.976-1.356 1.763.49 3.53 1.07 4.384 3.007.924 2.095 2.685 3.26 4.81 3.88 2.2.644 5.497-1.26 6.313-3.575 1.185-3.36 4.752-3.903 6.868-1.438.903 1.052 1.75 2.126 2.392 3.364.762 1.475 1.997 2.057 3.452 1.477.89-.353 1.692-.932 2.136-1.908.42-.923.936-1.81 1.484-2.665.932-1.453 2.23-1.94 3.595-1.396 1.146.46 1.947 1.346 2.47 2.406.578 1.174 1.456 2.13 2.137 3.23.687 1.107 1.884 1.398 3.008.91 1.636-.71 3.115-1.574 4.105-3.23.853-1.423 1.543-3.17 3.468-3.577.893-.19 1.525-1.197 2.595-.83-.047.39-.45.09-.592.443z"/><path id="carte-postale-bigbar" d="M302.812 303.35c3.54 0 7.08.058 10.618-.027 1.385-.033 2.772.018 4.173-.148 1.096-.13 2.27-.044 3.412-.038 2.834.016 5.662.153 8.505.015 3.862-.19 7.743-.206 11.61-.117 2.8.062 5.582-.225 8.38-.154 2.723.067 5.448.02 8.172-.055 3.856-.104 7.71-.238 11.57-.196 4.552.048 9.103-.004 13.65-.028 5.457-.026 10.914-.062 16.37-.116 4.348-.043 8.69.023 13.035-.01 5.667-.046 11.34-.187 17.006-.353 4.56-.134 9.12-.22 13.688-.22 4.587 0 9.17-.074 13.753-.21 4.527-.135 9.062-.152 13.592-.145.45 0 .816-.166 1.23-.21 1.38-.143 1.927.19 2.03 1.572.107 1.458.176 2.914.535 4.342.137.538-1.21 1.728-1.85 1.55-1.92-.534-3.873-.284-5.783-.19-3.705.18-7.408.155-11.11.224-6.85.124-13.7.11-20.552.18-6.062.063-12.127.114-18.188.256-7.004.164-14.007.146-21.01.125-4.654-.012-9.326-.18-13.963.123-3.717.242-7.396-.11-11.094-.004-2.023.062-4.047.15-6.07.178-8.107.106-16.217.21-24.324.282-3.863.035-7.732-.136-11.59.035-5.81.26-11.62.156-17.43.3-2.784.07-5.577.184-8.38.06-1.997-.087-4.032.05-6.052.084-2.562.042-5.13-.062-7.685.062-2.506.12-5.047-.47-7.523.492-.87.338-2.482-1.083-2.338-1.962.118-.705.038-1.38.06-2.068.022-.696-.088-1.355-.31-1.995-.315-.894-.046-1.243.888-1.504 1.76-.487 3.518-.158 5.262-.15 1.294.007 2.596-.04 3.893.014.158.007.342-.063.477-.008 1.265.542 2.518-.144 3.793-.02 1.38.14 2.785.024 4.18.023 1.79-.003 3.58 0 5.37 0v.01z"/><path id="carte-postale-fill" fill="#fff" d="M492.468 325.94c2.688-.75 3.557-2.944 4.404-5.164.148-.394.168-.94-.02-1.517-.692-2.128-2.302-3.12-4.185-3.96-1.014-.45-1.783-1.268-1.9-2.484-.18-1.865 1.633-4.662 3.518-5.176.842-.23 1.135-.818 1.49-1.4.365-.604.66-1.264.893-1.93.645-1.878-.025-3.094-1.902-3.846-1.27-.51-2.586-.892-3.64-1.938-2.007-1.996-1.536-4.018.888-5.143 1.646-.762 3.094-1.62 3.88-3.326.274-.604.573-1.2-.212-1.646-1.95-1.104-3.684-2.395-5.025-4.282-.89-1.252-1.146-2.777-.062-3.926.656-.69 1.354-1.36 2.203-1.792 1.09-.552 1.723-1.51 2.295-2.49.773-1.332.543-2.3-.604-3.355-.628-.576-1.433-.82-2.16-1.198-1.462-.753-2.337-2.4-1.847-3.86.385-1.145 1.406-1.84 2.26-2.646.602-.57 1.568-.41 2.05-1.155 1.368-2.115.595-5.058-1.56-6.342-1.102-.655-2.21-1.35-3.03-2.394-.94-1.19-1.087-3.64.4-4.532.93-.56 1.823-1.18 2.976-1.32 1.116-.14 2.052-.867 2.437-1.85.4-1.016-.078-1.942-.9-2.813-.78-.827-1.756-1.07-2.682-1.396-2.52-.9-3.002-4.454-1.234-6.16 1.196-1.16 2.343-2.374 3.52-3.552 1.63-1.623 1.585-3.115-.226-4.52-.78-.605-1.654-1.092-2.504-1.603-.705-.424-1.404-.883-1.6-1.72-.852-3.674-.365-4.698 2.42-6.77.51-.378 1.162-.413 1.615-.908 1.36-1.485 1.494-5.452-.56-6.586-1.022-.56-1.913-1.39-2.774-2.19-.99-.926-1.71-3.056-.25-4.545 1.24-1.267 3.116-1.608 4.16-3.178.534-.808 1.187-1.47 1.194-2.517.006-.938-.53-1.487-1.3-1.812-.94-.396-1.655-1.07-2.444-1.675-2.127-1.628-2.494-4.107-.832-6.194.617-.772 1.355-1.443 2.012-2.19 2.338-2.65 1.854-5.242-.527-7.572-.932-.913-2.133-1.622-2.844-2.672-.987-1.453.626-5.662 2.282-6.3 1.63-.63 2.38-1.944 3-3.424.322-.772-.8-1.146-.48-1.895-1.135-.165-1.736-1.176-2.656-1.7-.72-.405-1.602-.743-1.934-1.635-.36-.982.035-3.418 1.344-4.047 1.066-.513 2.09-1.142 3.066-1.812 2.584-1.77 1.773-3.8-.25-4.712-1.52-.688-3.074-1.407-4.24-2.733-1.023-1.167-.824-3.872.37-4.82 1.355-1.066 2.66-2.193 3.915-3.37 1.047-.98.752-3.288-.48-3.884-1.604-.773-2.725-2.053-3.74-3.424-.836-1.13-.625-2.186.46-3.102.874-.74 1.75-1.483 2.64-2.21.84-.688 1.36-1.648 1.812-2.56.642-1.3-.106-2.522-1.79-3.4-1.316-.685-2.324-1.626-2.637-3.144-.512-2.457.398-4.243 2.553-5.477.732-.42 1.262-1.103 1.734-1.788 1.336-1.926 1.004-4.09-.908-5.377-.523-.353-1.025-.743-1.516-1.126-2.32-1.833-3.145-5.805.062-7.396.734-.364 1.31-1.12 1.785-1.877 1.22-1.958 1.148-2.315-.734-3.49-.26-.163-.522-.166-.79-.226-.95-.213-2.395-1.977-2.46-2.937-.134-1.873 1.37-2.546 2.546-3.388.822-.59 1.578-1.15 2.033-2.09.634-1.307.196-2.645-1.1-3.356-.75-.412-1.483-.88-2.144-1.426-1.95-1.614-2.02-4.1-.39-6.015 1.302-1.526 2.79-2.88 3.206-4.98.195-.993.256-1.814-.758-2.446-.555-.347-.96-.91-1.543-1.278-.688-.436-1.177-2.495-.944-3.234.53-1.683 1.58-2.927 3.04-3.894 2.175-1.437 2.146-4.202-.03-5.618-.43-.28-.883-.532-1.346-.753-2.568-1.23-3-4.328-.906-6.247.834-.765 1.717-1.47 2.545-2.234.944-.87 1.212-2.542.536-2.99-1.39-.918-2.396-2.253-3.764-3.206-1.633-1.137-2-3.107-1.178-4.584 1.105-1.984 3.1-3.253 4.13-5.353.343-.698.532-1.41.474-1.978-.068-.634-.988-.322-1.54-.433-.97-.197-1.847-.574-2.405-1.47s-.44-1.81.176-2.542c.878-1.042 2.23-1.688 2.593-3.167.018-.074.19-.13.303-.16 1.553-.405 1.988-1.668 2.168-3.007.39-2.906-1.895-5.8-4.445-6.864-2.448-1.02-4.288.398-6.01 1.704-1.75 1.33-3.66 2.045-5.73 1.67-2.892-.523-4.94-2.294-6.325-4.96-1.162-2.237-2.686-2.253-4.135-.232-1.09 1.52-2.12 3.075-3.645 4.23-1.045.794-2.096.898-3.314.38-1.913-.812-3.02-2.493-4.378-3.9-2.73-2.833-5.025-1.962-6.436.782-.535 1.044-.914 2.173-2.11 2.686-3.126 1.342-5.353 1.968-7.265-1.7-.663-1.274-1.59-2.502-3.126-3.127-1.586-.645-2.518-.452-3.348 1.034-.615 1.11-1.207 2.248-2.188 3.112-.945.83-2.04 1.51-3.28 1.294-1.706-.297-3.187-1.158-4.296-2.57-.756-.96-1.537-1.918-2.72-2.4-1.317-.538-1.856-.334-2.583.813-.66 1.04-.94 2.235-1.466 3.326-.458.946-1.138 1.52-2.22 1.442-1.14-.08-2.147-.45-2.97-1.312-1.24-1.306-2.16-2.888-3.918-3.743-1.688-.823-2.578-.73-3.03 1.144-.276 1.146-.992 1.914-1.655 2.688-.395.46-1.118 1.15-1.877.917-.85-.263-1.73-.486-2.496-1.047-1.063-.776-1.74-1.935-2.758-2.7-1.035-.777-1.654-2.26-3.605-1.628-1.54.5-2.846 1.124-3.73 2.384-.557.79-1.146 1.534-1.878 2.105-2.097 1.636-5.257 2.35-7.34-.43-.923-1.23-1.974-2.383-3.25-3.3-.478-.342-.763-.33-1.22.04-.727.585-.813 1.428-.99 2.202-.467 2.04-2.05 3.206-4.23 3.126-3.096-.113-5.002-1.846-6.443-4.3-.717-1.218-1.623-2.098-3-2.506-.527-.154-.826-.15-.964.453-.273 1.18-.578 2.356-.883 3.53-.432 1.656-1.383 2.84-3.09 3.292-1.51.4-2.592-.3-3.578-1.362-.87-.936-1.593-1.962-2.212-3.07-.44-.786-1.22-1.412-1.977-1.352-.76.062-1.367.845-1.54 1.752-.072.38-.204.756-.352 1.117-.927 2.28-2.644 3.8-5.517 2.363-1.01-.505-1.732-1.23-2.385-2.1-.782-1.054-1.223-2.324-2.117-3.308-.64-.702-1.3-.923-2.23-.493-.456.21.292.795-.356.75-1.645-.116-2.227 1.17-2.87 2.267-.603 1.023-1.3 1.987-2.355 2.442-1.927.83-4.826-.06-6.188-1.768-.664-.832-1.27-1.715-1.852-2.608-.46-.705-1.072-1.236-1.887-1.235-.934 0-1.257.832-1.56 1.577-.103.257-.18.526-.277.785-.31.813-.676 1.576-1.21 2.288-1.688 2.263-5.503 2.245-6.796.32-.514-.76-1.162-1.345-1.393-2.435-.162-.772-1.094-1.893-2.164-2.415-1.276-.622-2.035-.4-2.633.94-.37.83-.623 1.71-.957 2.556-.346.875-.875 1.73-1.836 1.84-2.06.24-4.115.385-5.514-1.757-.514-.79-1.3-1.392-1.67-2.327-.238-.597-.825-.995-1.357-1.318-1.332-.812-2.806-.24-3.33 1.25-.313.894-.558 1.812-.842 2.715-.69 2.192-2.24 2.837-4.423 2.048-1.41-.51-2.236-1.604-3.156-2.624-1.364-1.515-2.82-2.896-4.706-3.76-.523-.242-.938-.34-1.395.128-.76.783-1.572 1.646-2.052 2.506-.715 1.287-1.773 1.87-2.87 2.58-1.335.87-3.12.25-4.18-.82-1.023-1.03-1.6-2.33-2.318-3.54-.76-1.274-1.62-1.378-2.46-.218-.418.577-.723 1.185-.842 1.94-.29 1.83-1.732 3.405-3.223 3.572-.697.078-1.433-.03-2.133-.152-1.783-.31-3.156-1.167-3.624-3.05-.298-1.205-1.218-1.917-2.044-2.71-.37-.353-.84-.248-1.25-.146-.437.108-.365.53-.387.897-.043.735-.135 1.467-.223 2.198-.23 1.916-3.467 4.15-5.34 3.72-2.62-.6-4.168-2.52-5.426-4.633-.92-1.542-3.012-1.99-4.183-.61-.86 1.013-1.707 2.066-2.416 3.157-.604.928-1.23 1.562-2.245 1.53-.948-.028-1.962.146-2.86-.382-1.692-.995-2.88-2.426-3.83-4.133-.874-1.566-2.2-3.05-4.3-2.574-2.064.467-3.137 2.034-4.33 3.452-.907 1.08-1.602 2.408-3.033 2.802-1.5.413-3.054.237-4.577-.127-.792-.19-1.42-.556-2.06-1.082-1.407-1.15-2.1-2.788-3.136-4.187-1.63-2.2-4.14-2.14-5.295.27-.603 1.256-1.247 2.43-2.114 3.534-1.29 1.644-2.884 2.27-4.88 1.732-2.202-.595-3.254-2.336-4.375-4.09-1.362-2.133-3.18-3-4.85-1.4-.886.848-1.75 1.854-2.167 3.157-.534 1.673-2.344 2.4-4.067 1.975-1.273-.315-2.17-1.062-3.004-1.994-.635-.71-1.29-1.415-2.005-2.042-2.128-1.868-3.984-1.54-5.536.77-.647.963-.92 2.073-1.53 3.034-1.33 2.098-3.398 3.01-5.664 1.614-1.597-.985-2.132-2.72-2.985-4.216-.75-1.315-1.653-2.438-3.013-3.118-.342-.17-.72-.396-1.203-.023-.91.7-1.877 1.315-2.573 2.254-1.655 2.234-3.925 3.188-6.625 2.844-1.34-.17-2.79-.414-3.51-1.957-.43-.918-1.347-1.495-2.25-1.863-.72-.294-1.54-.622-2.223.47-.572.912-1.126 1.824-1.573 2.794-.594 1.29-1.987 1.915-3.295 1.518-1.196-.362-2.074-1.092-2.836-2.036-.19-.236-.31-.748-.623-.657-1.12.324-1.5-.586-2.145-1.11-.64-.52-1.343-.974-2.068-1.367-.76-.413-1.605-.44-2.182.285-.865 1.087-1.71 2.21-2.398 3.413-.716 1.25-2.54 1.796-3.854 1.182-2.015-.942-3.51-2.32-4.556-4.292-.37-.694-1.04-1.174-2.07-.63-1.38.728-1.938 2.037-2.635 3.246-1.065 1.85-3.106 2.748-5.16 2.14-1.653-.487-2.82-1.61-3.69-3.026-.382-.618-.796-1.202-1.28-1.715-1.756-1.858-3.815-1.526-5.1.626C84 6.347 83.05 7.453 81.724 8.083c-.528.25-1.186.27-1.662.584-1.353.888-2.398.904-3.438-.297-1.018-1.177-1.79-2.543-2.582-3.888-.624-1.062-2.706-1.448-3.433-.625-.698.788-1.3 1.664-1.907 2.527-.92 1.31-1.757 2.675-3.268 3.435-.998.5-3.303.485-3.92-.356-1.224-1.672-3.053-2.75-4.176-4.516-.616-.97-1.657-1.424-2.832-1.312-1.194.115-1.563 1.088-1.895 2.037-.118.334-.116.707-.204 1.054-.266 1.053-.94 1.91-1.504 2.792-.47.735-2.653.628-3.582.06-1.458-.895-2.375-2.28-3.276-3.643C42.897 4.2 41.17 3.245 39.72 3.96c-1.276.63-2.396 1.523-3.213 2.764-1.105 1.678-3.314 3.1-5.5 1.12-.632-.574-.967-1.35-1.14-2.183-.185-.898-1.375-1.947-2.257-2.152-1.767-.412-4.175 1.655-4.758 3.345-.437 1.266-.864 2.84-2.346 3.034-2.486.325-4.967-.217-7.34-1.01-2.506-.84-4.962-2.003-7.524-.206-.37.28-.6.512-.36 1.085.29.696.695 1.585.49 2.204-.514 1.55.532 2.442 1.274 3.295.715.82 1.596 1.567 2.248 2.437.808 1.077 1.517 2.295.928 3.804-.64 1.64-.953 3.41-2.34 4.705-.658.614-1.105 1.448-1.675 2.16-.57.71-.49 1.255.273 1.78 1.035.714 2.21 1.27 2.97 2.318.826 1.133 1.554 2.298 1.285 3.83-.342 1.952-1.705 3.14-3.05 4.388-1.836 1.706-1.883 4.45.3 5.774.687.418 1.22.99 1.687 1.617 1.72 2.312 1.696 4.747-.103 6.565-.685.69-1.508 1.243-2.245 1.884-1.555 1.354-2.275 3.12-2.372 5.138-.042.86.35 1.5 1.24 1.803.675.23 1.338.518 1.965.858.583.316 1.18.624 1.38 1.39.773 2.937.438 5.683-1.258 8.24-.832 1.252-1.778 2.43-2.254 3.904-.452 1.4-.225 2.458.898 3.08 1.11.612 2.075 1.36 2.908 2.332 1.15 1.34 1.133 3.527-.502 4.667-.828.576-1.65 1.235-2.662 1.51-1.176.323-2.125 1.102-2.233 2.22-.135 1.406.534 2.667 1.795 3.52 1.015.687 2.02 1.397 2.974 2.163 1.3 1.042 1.588 2.732.77 4.17-.792 1.394-1.864 2.582-2.963 3.72-.977 1.012-1.63 2.184-1.845 3.51-.213 1.326-.603 2.814.76 3.85.876.666 1.77 1.33 2.733 1.854 1.537.835 1.827 2.285 1.954 3.772.13 1.51-.836 2.548-1.908 3.43-1.384 1.136-2.692 2.29-3.286 4.076-.506 1.523.01 2.844 1.448 3.553 1.935.953 3.965 1.792 3.97 4.52.003 1.236-.29 2.42-.735 3.47-.314.748-.967 1.5-1.678 2.14-.503.452-1.13.854-1.618 1.388-.72.783-1.138 1.74-1.847 2.52-1.027 1.126-.604 2.065.952 2.5 2.802.785 3.542 1.678 2.957 4.402-.428 1.994-1.24 3.92-3.224 5.046-1.11.63-1.736 1.726-2.234 2.877-.17.388-.112.59.33.8 2.085 1 3.623 2.54 4.637 4.653.7 1.456.3 4.926-.9 5.93-.5.42-1.155.647-1.73.98-2.525 1.468-2.67 3.47-.853 5.3.245.245.58.414.896.575 1.147.588 2.176 1.364 2.994 2.33.8.944 1.46 2.034 1.41 3.375-.072 2.018-1.28 3.27-2.9 4.203-.77.44-1.6.79-2.238 1.41-1.86 1.802-2.467 3.3-.755 5.058.525.538 1.14.988 1.67 1.52 2.375 2.394 2.28 4.38.15 6.655-1.197 1.28-2.116 2.73-3.224 4.054-.32.383-.168.803.008 1.23.476 1.154 1.41 1.893 2.356 2.594 2.255 1.676 2.443 3.967 1.983 6.322-.21 1.074-1.165 1.848-1.817 2.297-1.165.805-1.89 1.684-2.252 2.97-.132.472-.117.83.36 1.236 1.542 1.317 2.776 2.916 3.993 4.54 1.524 2.036 1.753 4.383.598 6.668-.528 1.044-1.54 1.35-2.39 1.815-1.36.744-1.5 1.937-1.527 3.188-.024 1.09.838 1.664 1.718 1.907 3.737 1.034 4.066 7.162 1.116 8.98-.825.507-1.432 1.337-2.322 1.83-.487.268-.978.765-1.18 1.27-.958 2.393-.514 4.014 1.424 5.84.86.81 1.732 1.62 2.524 2.5.994 1.102 1.173 2.95.444 3.86-.962 1.196-1.96 2.334-3.26 3.226-1.752 1.2-2.326 3.912-.317 5.465.972.75 2.026 1.417 2.9 2.27 1.96 1.905 2.222 4.062-.38 5.786-.786.52-1.627 1.06-2.202 1.78-1.788 2.25-2.324 3.778.6 5.567 1.02.624 1.995 1.3 2.79 2.21 1.487 1.698 1.564 4.77.292 6.636-.947 1.384-2.232 2.19-3.7 2.91-1.888.926-2.433 3.236-1.212 4.638.84.963 1.706 1.895 2.734 2.685 1.6 1.23 1.907 3.834.815 5.54-.73 1.144-1.627 2.092-2.698 2.93-1.764 1.378-2.484 4.47-.943 5.83.705.623 1.492 1.157 2.21 1.748 1.098.904 2.666 1.01 3.413 2.62.932 2.004.232 5.434-1.854 6.43-1.543.736-2.938 1.546-3.785 3.12-.375.694-.527 2.207-.024 2.38 2.208.76 3.36 2.645 4.73 4.296 1.147 1.386 1.138 2.57.156 4.04-.863 1.29-2.264 1.956-3.3 3.034-.81.843-1.867 1.57-1.773 2.93.127 1.85.747 3.586 1.958 4.94.792.882 2.09 1.206 3.245 1.596.912.31 4.34-.94 4.766-1.754.758-1.444 1.886-2.528 3.234-3.388 1.617-1.03 4.108-.91 5.336.223 1.005.927 1.838 2.01 2.734 3.037 2.112 2.42 3.812 2.785 5.668-.63.49-.9.983-1.82 1.63-2.604 1.892-2.28 4.168-2.213 6.037-.165 1.207 1.322 2.328 2.735 4.003 3.624 1.677.89 3.362.98 4.876-.22.958-.76 1.903-1.527 2.763-2.423 1.987-2.067 4.6-1.465 5.37 1.296.512 1.835 1.72 2.89 3.35 3.312 1.258.324 2.674.507 3.834-.727 1.06-1.125 1.694-2.515 2.646-3.696.55-.687 1.006-1.63 1.976-1.356 1.763.49 3.53 1.07 4.384 3.007.924 2.095 2.685 3.26 4.81 3.88 2.2.644 5.497-1.26 6.313-3.575 1.185-3.36 4.752-3.903 6.868-1.438.903 1.052 1.75 2.126 2.392 3.364.762 1.475 1.997 2.057 3.452 1.477.89-.353 1.692-.932 2.136-1.908.42-.923.936-1.81 1.484-2.665.932-1.453 2.23-1.94 3.595-1.396 1.146.46 1.947 1.346 2.47 2.406.578 1.174 1.456 2.13 2.137 3.23.687 1.107 1.884 1.398 3.008.91 1.636-.71 3.115-1.574 4.105-3.23.853-1.423 1.543-3.17 3.468-3.577.893-.19 1.525-1.197 2.595-.83-.044.39-.447.09-.59.442.72.438 1.432-.492 2.114.102.715.62 1.48 1.18 2.218 1.774.142.114.372.27.187.475-.536.593.1.505.35.638.17.09.436.117.502.25.748 1.505 1.84 2.66 3.335 3.437 1.176.61 2.097.41 2.825-.654.58-.852 1.248-1.662 1.673-2.585.395-.856 1.69-1.28 1.255-2.545-.024-.07.178-.247.3-.343.95-.722 2.335-.646 3.332.168.272.225.582.34.82-.02.235-.353.493-.205.716-.057 1.002.67 2.082 1.35 2.713 2.33.612.955 1.3 1.846 2.002 2.71 1.132 1.396 3.613 1.515 4.64.207.965-1.225 1.83-2.55 2.412-4.012.523-1.312 1.114-2.418 2.78-2.524 1.104-.07 2.445.393 3.082 1.338 1.507 2.236 3.55 3.917 5.738 5.43.925.638 1.77.39 2.39-.545 1-1.51 1.877-3.096 3.057-4.49.61-.723 1.237-.855 2.09-.65 2.06.495 3.186 2.122 4.41 3.608.786.956 1.513 1.915 2.848 2.12 1.278.197 2.646.707 3.67-.48 1.048-1.215 2.11-2.437 2.886-3.867.577-1.066 1.91-1.73 3.147-1.554 2.524.356 4.672 1.388 6.414 3.323 1.327 1.478 2.904 2.534 5.063 1.63 1.245-.52 2-1.53 2.52-2.68.53-1.174 1.54-1.952 2.283-2.93.768-1.013 3.602-.446 4.445.46 1.293 1.393 2.434 2.897 3.187 4.66.513 1.197 1.79.755 2.654 1.216.353.187.786-.397 1.142-.818.94-1.114.676-2.556 1.262-3.756.792-1.623 2.135-2.434 3.8-2.538 1.528-.095 2.67.83 3.43 2.136.846 1.456 1.433 3.072 2.878 4.126 1.962 1.432 3.54.957 4.212-1.312.09-.308.18-.612.267-.92.64-2.307 4.358-3.967 6.636-2.385.65.45.84 1.26 1.303 1.747.985 1.038 2.04 2.057 3.324 2.802 1.55.896 2.993.407 3.507-1.274.22-.72.48-1.43.724-2.14.567-1.65 1.615-2.228 3.29-1.81.754.187 1.407.756 2.28.468.13-.043.463.212.54.396.31.73 1.003 1.166 1.372 1.805.535.925 1.266 1.64 2.043 2.31.726.626 1.53.675 2.422.187 1.154-.635 1.604-1.753 1.832-2.857.415-2.025 4.427-3.912 6.26-2.79.836.51 1.57 1.196 2.3 1.862.936.855 1.783 1.81 2.732 2.65.963.853 2.297.66 2.824-.4.46-.927 1.002-1.794 1.547-2.67 1.524-2.442 5.097-2.492 6.553-.013.722 1.23 1.507 2.386 2.49 3.425 1.26 1.33 2.908 1.587 4.486 1.3 1.446-.265 2.13-1.65 2.573-3.02.086-.263.147-.537.187-.81.075-.582.38-.898.887-1.248 1.192-.813 2.536-.855 3.82-.8 1.972.09 3.82.52 5.01 2.495.674 1.122 1.638 2.126 2.722 2.953 1.062.812 1.913.743 2.81-.247.73-.806.99-1.834 1.124-2.833.32-2.41 2.404-3.382 4.438-2.985 2.256.44 4.137 1.563 5.764 3.192 1.162 1.163 2.402 2.254 3.91 2.986 1.635.792 2.658.287 2.87-1.506.095-.787.1-1.588.328-2.354.418-1.386 1.685-2.312 3.09-2.406 1.285-.084 2.353.504 3.478.945 1.66.65 2.498 2.234 3.77 3.326.77.657 1.552 1.105 2.522.75.88-.324.78-1.23.815-1.96.04-.83-.123-1.855.764-2.187.654-.243 1.03-.79 1.657-1.004 1.147-.388 2.053.31 3.02.647 1.268.44 2.055 1.55 3.006 2.43.904.838 1.6 1.89 2.69 2.536 1.07.633 2.203.435 3.13-.412 1.148-1.05 1.21-2.382 1.256-3.77.045-1.3.447-2.41 1.82-2.89 1.252-.437 2.506-.582 3.557.41.706.665 1.376 1.364 1.757 2.33.65 1.65 1.625 3.11 3.293 3.91 1.44.69 2.484.23 2.734-1.333.24-1.512.785-2.697 1.967-3.746 1.528-1.355 4.552-1.366 5.833.253 1.035 1.31 1.98 2.688 3.002 4.01.717.925 1.336.89 1.916-.082.53-.88.694-1.873.962-2.848.193-.71.187-1.83 1.164-2.27 2.562-1.15 4.77.1 5.527 2.245.477 1.35.906 2.778 2.22 3.765 1.288.966 3.67.777 4.264-.586.284-.652.505-1.332.756-1.998 1.204-3.2 2.823-3.83 5.798-3.24 2.6.515 4.01 2.74 5.68 4.536.104.112.106.396.06.57-.208.724.3 1.175.742 1.41.568.303.884-.375 1.193-.732.87-1.014 1.11-2.36 1.77-3.5.826-1.423 2.052-1.86 3.6-1.987 2.22-.18 3.42 1.406 4.82 2.604 1.322 1.128 2.262 2.738 4.14 3.137.536.11 1.077.31 1.587-.05 1.158-.81 2.033-1.776 2.27-3.283.286-1.77 1.08-2.337 2.866-2.296 1.686.04 2.94 1.062 3.816 2.26.953 1.296 2.16 2.268 3.275 3.356 1.71 1.672 3.587.8 4.35-.79.59-1.23.51-2.588 1.12-3.81.824-1.646 2.334-2.415 4.152-1.83 1.75.56 2.893 1.86 3.934 3.258.662.892 1.312 1.78 2.104 2.564.678.674 1.408 1.23 2.398.847.94-.364 1.03-1.34 1.04-2.126.013-1.15.374-2.152.782-3.186.56-1.403 1.568-2.04 3.01-1.65 2.268.614 3.488 2.53 4.678 4.274 1.07 1.57 1.602 3.504 3.424 4.528.855.48 1.46.396 1.717-.543.56-2.05 1.81-3.823 2.26-5.922.093-.43.27-.95.694-1.325 1.307-1.142 3.148-1.007 4.338.358 1.348 1.545 2.43 3.247 3.133 5.175.234.65.713 1.383 1.275 1.186.646-.228 1.535-.332 1.754-1.48.254-1.322-.314-2.663.422-4.03.283-.52.48-1 .98-1.09.64-.11 1.273-.253 1.902.462 1.402 1.6 2.996 3.04 4.832 4.153 1.09.66 2.822.198 3.334-.792 1.55-3.013.56-6.41-2.443-7.916-1.347-.676-1.925-1.718-1.97-3.062-.047-1.343.766-2.287 1.912-2.912 1.02-.558 1.95-1.198 2.75-2.064 1.604-1.74 1.44-3.52-.547-4.778-1.475-.937-2.494-2.244-3.434-3.688-1.08-1.656-.044-4.744 1.848-5.273zM27.418 200.254c-.862-.016-2.112-1.268-2.117-2.118-.006-1.204 1.168-2.636 2.16-2.63.944.006 1.856 1.23 1.877 2.514.017 1.043-1.02 2.25-1.92 2.233zm2.174 17.103c.007 1.27-.817 2.203-1.972 2.234-1.088.03-1.926-.816-1.942-1.968-.02-1.366 1.056-2.624 2.248-2.63.825-.002 1.66 1.18 1.666 2.364zm-2.726-37.483c-.937-.062-1.554-.884-1.514-2.02.043-1.24.64-2.05 1.555-1.94 1.118.132 2.368.883 2.248 1.808-.143 1.097-1.25 2.22-2.29 2.153zm-1.518-58.348c.052-1.172 1.006-2.1 2.153-2.093.924.005 1.653.966 1.605 2.112-.05 1.17-.926 2.234-1.823 2.208-1.166-.033-1.99-.98-1.934-2.227zm1.367-16.258c-.906.012-1.583-.85-1.58-2.01.004-1.134.84-2.036 1.872-2.018 1.083.018 2.134.922 2.12 1.824-.015 1.035-1.28 2.19-2.412 2.203zm.595 150.023c1.263-.02 1.66.516 1.69 2.277.014.908-1.35 2.215-2.376 2.274-.9.055-1.815-.957-1.806-1.988.013-1.456 1.065-2.54 2.492-2.562zM25.097 68.853c.032-.48 1.527-1.836 2.034-1.844.69-.01 1.752 1.38 1.738 2.272-.017.997-1.02 2.065-1.947 2.07-.79.004-1.89-1.503-1.823-2.5zm2.747 171.223c-1.213-.02-2.303-1.103-2.26-2.243.052-1.333.79-2.09 1.984-2.033 1.442.07 2.34.88 2.26 2.04-.064.94-1.225 2.25-1.984 2.236zm-.192-76.976c-.887.02-1.66-.77-1.702-1.742-.06-1.415.73-2.454 1.904-2.503 1.122-.047 1.883.698 1.943 1.902.063 1.23-.93 2.314-2.145 2.343zm2.135-22.284c-.02 1.427-.976 2.365-2.396 2.35-1.04-.01-1.64-.65-1.62-1.732.02-1.16 1.097-2.472 2.01-2.454.602.013 2.014 1.305 2.007 1.836zm-.526-54.59c-.1 1.005-1.315 2.187-2.21 2.154-.83-.03-1.628-.984-1.573-1.875.08-1.28.683-2.012 1.62-1.964 1.367.07 2.258.764 2.164 1.686zm-2.57-36.458c1.226.062 2.197.806 2.183 1.75-.015 1.02-1.37 2.587-2.252 2.605-1.178.022-1.846-.8-1.823-2.25.16-1.69.752-2.163 1.892-2.105zm-2.277 225.83c.028-.814 1.36-2.38 2.353-2.288 1.28.117 2.08.938 2.034 2.266-.045 1.287-1.073 2.303-2.268 2.236-1.046-.058-2.154-1.166-2.12-2.213zm3.06 22.152c-.933.053-1.936-.89-1.958-1.835-.044-1.957.468-2.684 1.91-2.705 1.512-.023 2.435.64 2.47 1.775.03.948-1.52 2.714-2.422 2.765zm67.435 15.115c-1.08.025-2.336-1.335-2.364-2.565-.03-1.39 1.234-2.805 2.527-2.825 1.03-.017 2.48 1.263 2.52 2.218.056 1.395-1.417 3.14-2.682 3.172zm18.5-.396c-1.308.024-2.67-1.143-2.722-2.333-.063-1.462 1.206-2.513 3.075-2.543 1.316-.02 2.313.786 2.296 1.862-.02 1.43-1.392 2.988-2.648 3.013zm18.782-.074c-1.003.012-1.767-.83-1.775-1.955-.013-1.817.948-2.972 2.49-2.983 1.08-.01 2.27 1.1 2.302 2.15.042 1.307-1.54 2.772-3.017 2.79zm19.29-.023c-1.607.012-2.59-.69-2.573-1.835.022-1.423 1.272-3.003 2.36-2.98 1.448.027 2.39 1.125 2.387 2.778-.003 1.263-.82 2.027-2.175 2.037zm21.81.565c-1.293-.018-1.95-.645-1.922-1.83.035-1.387 1.59-3.263 2.715-3.273.904-.01 2.14 1.604 2.134 2.784-.008 1.468-1.112 2.344-2.926 2.318zm23.953-.398c-1.145-.03-2.502-1.534-2.506-2.795-.004-1.488.92-2.608 2.163-2.62 1.1-.008 3.19 1.723 3.303 2.625.14 1.126-1.988 2.814-2.96 2.79zm22.386-.76c-1.292-.002-2.34-1.083-2.35-2.428-.012-1.238.84-2.43 1.762-2.46 1.24-.043 2.975 1.62 2.958 2.833-.014 1.073-1.15 2.055-2.37 2.054zm21.34-.638c-1.634-.023-2.787-1.122-2.76-2.626.024-1.4 1.356-2.622 2.878-2.635 1.474-.013 2.777 1 2.816 2.188.055 1.654-1.322 3.1-2.933 3.074zm22.48-1.382c-.794.57-1.708.77-3.067.777-.584.018-1.444-.136-1.71-1.29-.294-1.278.522-2.945 1.72-3.48 1.57-.707 3.195-.098 3.883 1.528.425 1.013.027 1.85-.827 2.465zm208.842-.96c-1.922-.535-3.873-.285-5.785-.19-3.703.18-7.408.154-11.11.223-6.85.124-13.7.11-20.55.18-6.062.063-12.13.114-18.19.256-7.003.163-14.004.145-21.008.124-4.654-.012-9.326-.18-13.963.123-3.717.242-7.398-.11-11.094-.004-2.023.062-4.047.15-6.07.178-8.107.107-16.217.21-24.326.283-3.86.035-7.732-.136-11.588.035-5.812.26-11.622.155-17.433.3-2.782.07-5.575.183-8.377.06-1.998-.088-4.033.05-6.053.083-2.562.043-5.127-.06-7.685.063-2.505.12-5.046-.47-7.522.492-.87.338-2.482-1.083-2.336-1.962.116-.705.04-1.38.06-2.068.02-.696-.09-1.355-.312-1.995-.316-.894-.048-1.243.887-1.504 1.76-.486 3.518-.157 5.262-.148 1.294.006 2.595-.042 3.894.013.157.008.342-.06.476-.007 1.265.542 2.518-.142 3.793-.017 1.38.137 2.784.02 4.18.02h5.37v.017c3.54 0 7.082.06 10.62-.026 1.384-.033 2.77.018 4.172-.148 1.097-.13 2.27-.045 3.412-.04 2.833.017 5.66.154 8.504.016 3.86-.19 7.743-.206 11.61-.117 2.8.06 5.58-.226 8.38-.155 2.723.066 5.447.018 8.172-.056 3.855-.105 7.71-.24 11.57-.197 4.552.05 9.103-.003 13.65-.027 5.457-.026 10.914-.062 16.37-.115 4.347-.042 8.692.023 13.035-.01 5.668-.046 11.34-.187 17.006-.353 4.562-.134 9.123-.22 13.688-.22 4.586 0 9.168-.074 13.752-.21 4.527-.135 9.062-.152 13.592-.145.45 0 .816-.166 1.23-.21 1.38-.143 1.928.19 2.03 1.572.106 1.458.177 2.914.534 4.342.135.53-1.21 1.72-1.85 1.543z"/><g id="carte-postale-points"><path id="carte-postale-point-23" d="M260.382 310.537c-.586.018-1.446-.136-1.71-1.29-.294-1.278.52-2.945 1.718-3.48 1.57-.707 3.197-.098 3.883 1.528.428 1.013.03 1.85-.825 2.465-.792.57-1.706.77-3.066.777z"/><path id="carte-postale-point-22" d="M241.087 305.88c1.474-.013 2.777 1 2.816 2.188.056 1.654-1.322 3.102-2.933 3.074-1.635-.023-2.788-1.122-2.76-2.626.024-1.403 1.356-2.622 2.877-2.635z"/><path id="carte-postale-point-21" d="M217.28 309.354c-.01-1.238.84-2.43 1.763-2.46 1.24-.043 2.975 1.62 2.958 2.833-.014 1.07-1.15 2.055-2.37 2.054-1.29-.002-2.338-1.083-2.35-2.426z"/><path id="carte-postale-point-20" d="M196.9 307.126c1.1-.01 3.19 1.722 3.303 2.624.14 1.126-1.99 2.814-2.96 2.79-1.145-.03-2.502-1.534-2.506-2.795-.004-1.488.92-2.608 2.163-2.62z"/><path id="carte-postale-point-19" d="M173.29 312.938c-1.293-.018-1.95-.645-1.922-1.83.035-1.387 1.59-3.263 2.715-3.273.904-.01 2.14 1.604 2.134 2.784-.008 1.468-1.112 2.344-2.926 2.318z"/><path id="carte-postale-point-18" d="M151.48 312.373c-1.607.012-2.59-.69-2.573-1.835.022-1.423 1.272-3.003 2.36-2.98 1.448.027 2.39 1.125 2.387 2.778-.003 1.263-.82 2.027-2.175 2.037z"/><path id="carte-postale-point-17" d="M132.905 307.456c1.08-.01 2.27 1.1 2.303 2.15.042 1.308-1.542 2.77-3.017 2.787-1.002.014-1.766-.827-1.774-1.953-.014-1.818.947-2.97 2.49-2.984z"/><path id="carte-postale-point-16" d="M113.408 312.47c-1.308.024-2.67-1.143-2.722-2.333-.063-1.462 1.206-2.513 3.075-2.543 1.316-.02 2.313.786 2.296 1.862-.02 1.43-1.392 2.988-2.648 3.013z"/><path id="carte-postale-point-15" d="M94.908 312.865c-1.08.025-2.336-1.335-2.364-2.565-.03-1.39 1.234-2.805 2.527-2.825 1.03-.017 2.48 1.263 2.52 2.218.056 1.395-1.417 3.14-2.682 3.172z"/><path id="carte-postale-point-14" d="M27.425 293.21c1.51-.023 2.434.64 2.47 1.775.03.945-1.52 2.714-2.423 2.765-.933.053-1.936-.89-1.958-1.835-.044-1.957.468-2.684 1.91-2.705z"/><path id="carte-postale-point-13" d="M28.8 275.573c-.045 1.29-1.073 2.303-2.268 2.238-1.046-.06-2.154-1.165-2.12-2.212.03-.817 1.362-2.384 2.354-2.29 1.28.12 2.08.94 2.034 2.265z"/><path id="carte-postale-point-12" d="M29 257.567c.014.908-1.35 2.215-2.376 2.274-.9.055-1.815-.957-1.806-1.988.013-1.457 1.065-2.54 2.492-2.562 1.263-.02 1.66.516 1.69 2.277z"/><path id="carte-postale-point-11" d="M25.585 237.833c.05-1.333.79-2.09 1.983-2.033 1.442.07 2.34.88 2.26 2.04-.064.94-1.226 2.25-1.984 2.236-1.213-.02-2.302-1.102-2.26-2.243z"/><path id="carte-postale-point-10" d="M27.62 219.593c-1.088.03-1.926-.816-1.942-1.968-.02-1.366 1.056-2.624 2.248-2.63.825-.005 1.66 1.177 1.666 2.36.007 1.27-.818 2.205-1.972 2.238z"/><path id="carte-postale-point-9" d="M29.337 198.02c.017 1.044-1.02 2.25-1.92 2.233-.86-.016-2.11-1.268-2.116-2.118-.006-1.204 1.168-2.636 2.16-2.63.944.006 1.856 1.226 1.877 2.514z"/><path id="carte-postale-point-8" d="M25.352 177.854c.043-1.24.64-2.05 1.555-1.94 1.118.132 2.368.883 2.248 1.808-.142 1.095-1.25 2.22-2.288 2.15-.938-.06-1.555-.883-1.515-2.018z"/><path id="carte-postale-point-7" d="M27.854 158.854c1.122-.047 1.883.698 1.943 1.902.062 1.23-.93 2.314-2.146 2.343-.886.02-1.66-.772-1.7-1.743-.06-1.414.73-2.453 1.904-2.503z"/><path id="carte-postale-point-6" d="M27.392 143.167c-1.042-.01-1.64-.65-1.62-1.733.02-1.16 1.096-2.472 2.01-2.454.6.013 2.013 1.305 2.005 1.835-.02 1.428-.976 2.366-2.395 2.352z"/><path id="carte-postale-point-5" d="M27.283 123.752c-1.167-.033-1.99-.98-1.935-2.228.052-1.172 1.006-2.1 2.153-2.093.924.006 1.653.967 1.605 2.113-.048 1.172-.925 2.235-1.822 2.21z"/><path id="carte-postale-point-4" d="M26.715 105.267c-.906.012-1.583-.85-1.58-2.01.004-1.134.84-2.036 1.872-2.018 1.083.018 2.134.922 2.12 1.824-.015 1.035-1.28 2.19-2.412 2.203z"/><path id="carte-postale-point-3" d="M25.477 86.505c.08-1.28.683-2.012 1.62-1.964 1.367.07 2.258.764 2.164 1.686-.1 1.005-1.315 2.187-2.21 2.154-.83-.03-1.63-.984-1.573-1.875z"/><path id="carte-postale-point-2" d="M28.868 69.282c-.017.997-1.02 2.065-1.947 2.07-.79.004-1.89-1.503-1.823-2.5.032-.48 1.527-1.836 2.034-1.844.69-.01 1.752 1.38 1.738 2.274z"/><path id="carte-postale-point-1" d="M24.798 51.875c.16-1.69.75-2.165 1.892-2.106 1.227.06 2.198.805 2.184 1.75-.015 1.02-1.37 2.586-2.252 2.604-1.18.022-1.847-.8-1.824-2.25z"/></g></svg>
