<svg xmlns="http://www.w3.org/2000/svg" width="196.837" height="3.953" viewBox="0 0 196.837 3.953"><path d="M18.948 2.93c-3.943 0-7.887.017-11.828-.012-.87-.006-1.666.682-2.628.083-.442-.275-.893-.547-.83-.973.074-.488.675-.697 1.148-.66 3.21.26 6.426.203 9.633.098 4.822-.158 9.648-.166 14.473-.31 2.232-.065 4.506.075 6.76.1.2.003.467.106.588.013 1.442-1.114 2.717-.25 4.086.217.676.23 1.496.022 2.25.033 5.187.073 10.37.176 15.558.223 5.005.046 10.01-.112 15.013-.162 5.624-.055 11.25.13 16.874.17 5.9.043 11.805-.054 17.704.08 4.94.112 9.887.042 14.826.08 5.676.045 11.357.086 17.037.084 6.294-.002 12.59.008 18.882 0 3.857-.005 7.72-.118 11.572-.028 4.225.098 8.445-.086 12.668-.06 3.637.024 7.293.078 10.936-.147.277-.017.568-.026.836.037.678.16.89.7.768 1.29-.145.696-.63.52-1.137.333-1.094-.403-2.252-.192-3.373-.194-6.02-.006-12.04.13-18.062.07-3.275-.03-6.55.044-9.824.05-5.674.013-11.348-.003-17.02-.01-4.038-.006-8.08.09-12.11-.056-3.35-.12-6.693-.018-10.04-.047-7.43-.068-14.864-.024-22.298-.04-4.615-.01-9.233.07-13.844-.087-6.303-.22-12.606-.176-18.903-.116-3.914.038-7.844.157-11.75.07-7.848-.177-15.692-.08-23.537-.167-4.807-.053-9.61-.01-14.418-.01-.007.016-.007.033-.007.05z"/></svg>