<svg xmlns="http://www.w3.org/2000/svg" width="200.791" height="5.533" viewBox="0 0 200.791 5.533"><path d="M193.875 2.958c-5.51.165-11.02.36-16.533.478-2.2.046-4.416-.244-6.604-.088-2.3.164-4.592.09-6.885.095-5.168.014-10.336.185-15.5.32-4.918.127-9.838.125-14.756.267-3.52.1-7.047.248-10.562.133-6.55-.214-13.096.205-19.645.04-4.098-.102-8.192-.245-12.292-.274-4.258-.032-8.495.452-12.753.3-3.26-.115-6.522.01-9.79-.143-2.717-.127-5.457.193-8.174.055-4.638-.237-9.265.128-13.9.065-5.17-.068-10.347-.14-15.51.074-2.896.122-5.805.167-8.7.245-1.916.05-3.868.037-5.762.22-2.35.23-4.658-.12-6.98-.02-.434.02-.892-.038-1.253.297-.156.147-.346.224-.54.1C6.57 4.4 5.33 4.208 3.987 4.5c-.433.093-.882-.19-.738-.672.154-.526.322-1.193 1.134-1.157 4.277.188 8.555.136 12.835.1 2.296-.018 4.645.055 6.936-.014 3.092-.093 6.19-.047 9.275-.087 4.185-.055 8.377-.077 12.565-.067 7.932.02 15.86-.006 23.795-.005 5.697 0 11.396.025 17.097.014 5.23-.01 10.458-.072 15.687-.078 4.203-.005 8.41.162 12.605.03 6.17-.19 12.34-.222 18.51-.176 3.724.027 7.446-.03 11.167.026 2.232.035 4.465.248 6.697.126 7.053-.382 14.11-.143 21.162-.21 3.896-.036 7.79-.157 11.682-.17 4.068-.013 8.125-.377 12.19-.287.608.014 1.196-.683 1.83-.006.21.224.597.33.5.714-.103.417-.493.48-.854.483-1.396.01-2.79.004-4.188.004v-.11z"/></svg>