<?xml version="1.0" encoding="utf-8"?>
<!-- Generator: Adobe Illustrator 16.0.0, SVG Export Plug-In . SVG Version: 6.00 Build 0)  -->
<!DOCTYPE svg PUBLIC "-//W3C//DTD SVG 1.1//EN" "http://www.w3.org/Graphics/SVG/1.1/DTD/svg11.dtd">
<svg version="1.1" id="contact" xmlns="http://www.w3.org/2000/svg" xmlns:xlink="http://www.w3.org/1999/xlink" x="0px" y="0px"
	 width="502px" height="240px" viewBox="0 0 502 240" enable-background="new 0 0 502 240" xml:space="preserve">
<g id="contact-points">
	<g id="contact-point-t2">
		<path id="d5b_1_" fill="#D7FFFB" d="M491.416,119.771c0.015,0.797-0.463,1.142-1.178,1.217c-1.005,0.105-1.74-0.457-1.861-1.382
			c-0.109-0.84,0.167-1.41,1.075-1.516C490.328,117.986,491.357,118.877,491.416,119.771z"/>
		<path id="d5h_1_" fill="#D7FFFB" d="M490.332,110.149c-0.101,0.815-0.801,1.097-1.509,1.163c-0.727,0.066-1.483-0.12-1.684-1.003
			c-0.152-0.683,0.854-1.739,1.62-1.774C489.521,108.5,490.304,109.265,490.332,110.149z"/>
		<path id="d4_1_" fill="#D7FFFB" d="M479.321,113.293c0.917,0.01,1.512,0.703,1.46,1.711c-0.035,0.759-1.104,1.531-2.162,1.336
			c-0.679-0.125-1.693-0.034-1.804-1.146C476.711,114.129,477.849,113.278,479.321,113.293z"/>
		<path id="d3_1_" fill="#D7FFFB" d="M468.607,116.062c-0.898,0.032-1.599-0.319-1.723-1.247c-0.12-0.9,1.032-1.73,2.201-1.688
			c0.896,0.035,1.543,0.363,1.525,1.398C470.601,115.485,469.835,116.068,468.607,116.062z"/>
		<path id="d2_1_" fill="#D7FFFB" d="M456.489,113.375c1.097,0.014,1.978,0.932,1.898,1.978c-0.067,0.924-0.842,1.68-1.683,1.642
			c-1.013-0.045-1.696-0.814-1.693-1.902C455.016,113.951,455.521,113.361,456.489,113.375z"/>
		<path id="d1_1_" fill="#D7FFFB" d="M445.973,115.9c-0.016,0.734-1.399,1.67-2.362,1.596c-0.938-0.072-1.627-0.844-1.546-1.736
			c0.076-0.842,1.077-1.864,1.862-1.905C444.59,113.82,445.987,115.217,445.973,115.9z"/>
		<path id="g5b" fill="#D7FFFB" d="M370.07,119.151c-1.109,0.009-1.936-0.682-1.875-1.666c0.053-0.828,0.294-1.604,1.35-1.612
			c1.116-0.009,2.329,0.988,2.4,1.93C372.005,118.576,371.221,119.143,370.07,119.151z"/>
		<path id="g5h" fill="#D7FFFB" d="M369.967,111.502c-1.406-0.004-2.16-0.559-2.146-1.5c0.018-0.861,0.802-1.521,1.793-1.504
			c0.941,0.016,2.16,1.191,1.972,2.008C371.381,111.365,370.576,111.407,369.967,111.502z"/>
		<path id="g4" fill="#D7FFFB" d="M380.372,115.078c-1.312-0.031-2.349-0.812-2.353-1.772c-0.002-0.826,0.783-1.457,1.812-1.454
			c1.396,0.004,2.385,0.842,2.383,2.077C382.213,115.258,381.25,115.115,380.372,115.078z"/>
		<path id="g3_1_" fill="#D7FFFB" d="M390.199,115.539c-0.764-0.099-1.266-0.59-1.219-1.545c0.047-0.941,0.963-1.72,1.938-1.668
			c0.693,0.036,1.621,1.039,1.632,1.77C392.557,114.703,391.242,115.574,390.199,115.539z"/>
		<path id="g2_1_" fill="#D7FFFB" d="M402.141,114.533c-0.26,0.764-0.986,1.024-1.801,1.043c-1.104,0.027-2.104-0.791-2.037-1.578
			c0.062-0.726,1.038-1.57,1.812-1.567C401.059,112.435,402.139,113.478,402.141,114.533z"/>
		<path id="g1_1_" fill="#D7FFFB" d="M412.148,113.308c1.35-0.013,2.008,0.676,2.068,1.905c0.051,1.007-0.513,1.468-1.392,1.574
			c-1.005,0.123-2.073-1.033-2.062-2.158C410.779,113.61,411.374,113.248,412.148,113.308z"/>
		<path id="_x31_0_3_" fill="#D7FFFB" d="M426.979,114.851c0.62,0.157,1.274,0.603,1.42,1.428c0.188,1.056-1.088,2.255-2.266,2.253
			c-0.917-0.001-1.48-0.501-1.664-1.355C424.295,116.357,425.776,114.914,426.979,114.851z"/>
		<path id="_x39__4_" fill="#D7FFFB" d="M428.332,129.064c0.067,0.828-1.022,1.67-2.214,1.742c-0.96,0.058-1.525-0.404-1.638-1.315
			c-0.104-0.853,0.978-1.833,2.048-1.966C427.321,127.428,428.262,128.23,428.332,129.064z"/>
		<path id="_x38__4_" fill="#D7FFFB" d="M428.256,140.791c-0.022,0.934-0.908,1.703-1.934,1.686
			c-1.062-0.02-1.631-0.693-1.607-1.914c0.017-0.883,1.226-1.881,2.146-1.772C427.463,138.861,428.276,140.027,428.256,140.791z"/>
		<path id="_x37__5_" fill="#D7FFFB" d="M426.609,153.449c-0.992,0.059-1.687-0.68-1.708-1.816c-0.017-0.789,0.88-1.605,1.896-1.73
			c0.605-0.071,1.717,1.088,1.8,1.884C428.668,152.449,427.54,153.395,426.609,153.449z"/>
		<path id="_x36__3_" fill="#D7FFFB" d="M426.007,166.773c-1.037-0.041-1.74-0.851-1.638-1.883c0.093-0.938,1.096-1.718,2.216-1.722
			c0.851-0.004,1.834,0.942,1.866,1.797C428.483,165.803,427.108,166.818,426.007,166.773z"/>
		<path id="_x35__3_" fill="#D7FFFB" d="M426.201,179.451c-0.861,0.049-1.439-0.256-1.406-1.322c0.042-1.34,0.793-2.131,2.021-2.045
			c0.668,0.047,1.688,1.309,1.643,2.025C428.408,178.852,427.395,179.473,426.201,179.451z"/>
		<path id="_x34__3_" fill="#D7FFFB" d="M423.935,190.959c-0.02-0.764,1.033-1.705,1.941-1.736c0.697-0.023,1.729,1.092,1.794,1.945
			c0.066,0.875-0.849,1.645-1.935,1.621C424.793,192.771,423.959,191.922,423.935,190.959z"/>
		<path id="_x33__3_" fill="#D7FFFB" d="M425.9,205.984c-1.167-0.019-1.831-0.609-1.858-1.662c-0.03-1.102,0.977-2.129,2.091-2.137
			c0.771-0.004,1.929,1.239,1.96,2.106C428.122,205.139,427.003,206.002,425.9,205.984z"/>
		<path id="_x32__3_" fill="#D7FFFB" d="M427.598,216.205c0.012,0.914-0.858,1.652-1.933,1.645
			c-1.075-0.014-1.674-0.551-1.699-1.527c-0.032-1.112,0.793-2.188,1.696-2.211C426.392,214.09,427.588,215.385,427.598,216.205z"/>
		<path id="_x31_d_1_" fill="#D7FFFB" d="M434.859,226.6c0.137,0.74-0.331,1.031-0.93,1.109c-1.249,0.164-2.04-0.6-2.228-1.928
			c-0.134-0.934,0.308-1.375,1.111-1.482C433.656,224.186,434.776,225.502,434.859,226.6z"/>
		<path id="_x31_g_1_" fill="#D7FFFB" d="M419.729,223.766c0.731-0.082,1.423,0.725,1.543,1.801
			c0.095,0.854-0.658,1.836-1.431,1.865c-0.803,0.027-1.962-0.988-1.983-1.742C417.838,225.078,419.04,223.84,419.729,223.766z"/>
	</g>
	<g id="contact-point-c2">
		<path id="_x35_b_1_" fill="#D7FFFB" d="M386.85,216.922c0.137-1.762,0.575-2.349,1.7-2.271c1.125,0.076,2.279,1.146,2.218,2.062
			c-0.072,1.052-1.369,2.104-2.467,2.004C387.008,218.6,386.742,218.271,386.85,216.922z"/>
		<path id="_x35_h_2_" fill="#D7FFFB" d="M387.041,176.746c-0.104,0.777-0.055,1.656-1.218,1.68c-1.5,0.027-3.119-1.271-3.044-2.453
			c0.068-1.012,1.099-2.105,1.938-2.061C385.99,173.979,387.062,175.287,387.041,176.746z"/>
		<path id="_x34_b_2_" fill="#D7FFFB" d="M380.919,221.209c-0.032,1.078-1.448,2.441-2.485,2.395
			c-1.221-0.061-2.164-0.947-2.18-2.057c-0.021-1.344,1.036-2.678,2.123-2.686C379.585,218.855,380.952,220.117,380.919,221.209z"/>
		<path id="_x34_h_2_" fill="#D7FFFB" d="M371.164,173.635c0.005-1.365,0.727-2.441,1.665-2.48c1.501-0.062,3.009,1.205,2.959,2.484
			c-0.043,1.096-1.558,2.496-2.745,2.543C371.949,176.223,371.158,175.15,371.164,173.635z"/>
		<path id="_x33_b_2_" fill="#D7FFFB" d="M365.061,216.703c1.067,0.021,2.699,1.709,2.614,2.704
			c-0.065,0.765-1.54,1.806-2.518,1.778c-1.222-0.035-2.173-0.924-2.19-2.043C362.945,217.859,363.957,216.682,365.061,216.703z"/>
		<path id="_x33_h_2_" fill="#D7FFFB" d="M366.236,178.682c-0.117,1.26-1.006,1.859-2.562,1.736
			c-1.312-0.104-2.079-0.938-1.938-2.104c0.176-1.465,0.941-2.111,2.351-1.98C365.889,176.502,366.393,177.051,366.236,178.682z"/>
		<path id="_x32_b_2_" fill="#D7FFFB" d="M358.461,209.682c0.029,1.258-0.803,2.266-1.908,2.312
			c-1.215,0.051-2.721-1.123-2.781-2.169c-0.065-1.12,1.16-2.71,2.146-2.782C357.132,206.953,358.428,208.297,358.461,209.682z"/>
		<path id="_x32_h_1_" fill="#D7FFFB" d="M356.367,188.99c-1.084,0.049-2.35-0.953-2.396-1.902
			c-0.068-1.289,0.877-2.271,2.193-2.283c1.061-0.014,1.898,0.834,1.967,1.977C358.189,187.828,357.296,188.951,356.367,188.99z"/>
		<path id="_x31__4_" fill="#D7FFFB" d="M356.096,197.145c0.029,1.25-0.602,1.955-1.562,2.277c-0.896,0.299-1.557-0.252-1.91-1.023
			c-0.26-0.562-0.78-1.002-0.762-1.709c0.023-0.965,0.994-2.395,1.879-2.518c1.107-0.154,1.431,0.828,1.896,1.521
			C355.941,196.154,356.117,196.699,356.096,197.145z"/>
	</g>
	<g id="contact-point-a">
		<path id="_x39__3_" fill="#D7FFFB" d="M327.506,226.453c1.65,0.037,2.547,0.654,2.535,1.752c-0.008,1.053-0.951,1.736-2.385,1.73
			c-1.484-0.006-2.129-0.601-2.088-1.927C325.609,226.729,325.996,226.418,327.506,226.453z"/>
		<path id="_x38__3_" fill="#D7FFFB" d="M326.479,216.629c0.015,1.193-0.711,1.887-1.944,1.854c-0.938-0.022-1.8-0.864-1.854-1.819
			c-0.066-1.144,0.709-2.084,1.742-2.111C325.678,214.52,326.461,215.309,326.479,216.629z"/>
		<path id="_x37__4_" fill="#D7FFFB" d="M321.625,205.371c-1.309-0.029-2.104-0.717-2.041-1.771c0.094-1.652,0.859-2.496,2.268-2.5
			c0.984-0.004,2.146,1.14,2.16,2.123C324.023,204.338,322.848,205.398,321.625,205.371z"/>
		<path id="_x36_h" fill="#D7FFFB" d="M320.654,194.125c-0.949,0.035-1.803-0.746-1.854-1.693c-0.058-1.074,1.067-2.354,2.124-2.416
			c1.226-0.072,2.146,0.725,2.214,1.908C323.214,193.191,322.227,194.064,320.654,194.125z"/>
		<path id="_x35_h_1_" fill="#D7FFFB" d="M316.714,178.848c1.159,0.031,2.366,1.215,2.319,2.271
			c-0.055,1.114-1.088,2.028-2.246,1.981c-1.291-0.055-2.287-0.904-2.281-1.947C314.512,179.891,315.541,178.812,316.714,178.848z"
			/>
		<path id="_x34_b_1_" fill="#D7FFFB" d="M313.494,215.504c-0.057,1.051-1.164,1.893-2.365,1.797
			c-0.977-0.076-1.818-0.938-1.828-1.863c-0.01-1.047,1.129-2.151,2.143-2.084C312.709,213.438,313.555,214.326,313.494,215.504z"/>
		<path id="_x34_h_1_" fill="#D7FFFB" d="M307.562,176.766c-0.058,1.045-0.97,1.812-2.101,1.771c-1.271-0.049-2.108-0.922-2.017-2.1
			c0.085-1.052,0.966-1.81,2.093-1.804C306.75,174.646,307.627,175.568,307.562,176.766z"/>
		<path id="_x33_b_1_" fill="#D7FFFB" d="M301.012,219.67c-0.001,1.082-0.697,1.805-1.751,1.811
			c-1.362,0.01-2.507-0.965-2.452-2.088c0.043-0.848,1.047-1.812,1.902-1.828C300.145,217.539,301.012,218.334,301.012,219.67z"/>
		<path id="_x33_h_1_" fill="#D7FFFB" d="M293.271,183.275c-1.035,0.006-1.715-0.68-1.767-1.786
			c-0.053-1.093,0.777-1.878,1.976-1.87c1.092,0.008,1.916,0.711,1.949,1.66C295.471,182.459,294.598,183.27,293.271,183.275z"/>
		<path id="_x32_b_1_" fill="#D7FFFB" d="M288.68,217.357c-1.218-0.045-1.686-0.572-1.592-1.799
			c0.083-1.086,0.814-1.938,1.682-1.953c1.082-0.021,2.213,1.102,2.109,2.092C290.775,216.703,289.852,217.398,288.68,217.357z"/>
		<path id="_x32_h" fill="#D7FFFB" d="M286.361,192.438c-0.971-0.004-1.559-0.654-1.516-1.684c0.043-1.082,0.631-1.768,1.479-1.727
			c1.002,0.051,1.748,0.854,1.731,1.863C288.046,191.836,287.379,192.441,286.361,192.438z"/>
		<path id="_x31__3_" fill="#D7FFFB" d="M285.596,202.475c-0.043,1.053-1.119,2.258-2.025,2.265
			c-0.963,0.008-1.684-0.941-1.657-2.185c0.021-0.998,1.174-1.967,2.312-1.938C285.023,200.635,285.634,201.461,285.596,202.475z"/>
	</g>
	<g id="contact-point-t1">
		<path id="d5h" fill="#D7FFFB" d="M309.348,109.26c-1.166,0.021-2.049-0.78-2.014-1.822c0.033-0.934,1.055-1.721,2.217-1.707
			c0.961,0.011,1.764,0.878,1.734,1.876C311.259,108.586,310.49,109.241,309.348,109.26z"/>
		<path id="d5b" fill="#D7FFFB" d="M309.824,115.938c0.854,0.01,1.742,0.97,1.685,1.875c-0.05,0.771-1.022,1.589-1.813,1.523
			c-0.688-0.059-1.635-1.312-1.579-2.076C308.186,116.207,309.003,116.105,309.824,115.938z"/>
		<path id="d4" fill="#D7FFFB" d="M299.521,112.856c0.035,1.167-0.877,2.042-2.11,2.024c-1.109-0.018-2.078-0.739-2.104-1.574
			c-0.033-0.952,1.311-2.174,2.469-2.249C298.828,110.989,299.482,111.662,299.521,112.856z"/>
		<path id="d3" fill="#D7FFFB" d="M286.753,115.154c-1.767,0.021-2.55-0.537-2.526-1.805c0.021-1.081,1.23-2.233,2.375-2.258
			c1.276-0.028,2.152,0.939,2.125,2.35C288.699,114.82,288.337,115.135,286.753,115.154z"/>
		<path id="d2" fill="#D7FFFB" d="M275.105,114.944c-1.318,0.026-2.269-0.78-2.266-1.927c0.003-1.114,0.928-1.939,2.248-2.008
			c1.178-0.062,2.688,1.238,2.624,2.256C277.66,114.1,276.389,114.92,275.105,114.944z"/>
		<path id="d1" fill="#D7FFFB" d="M264.896,116.125c-1.445,0.014-2.297-0.685-2.234-1.828c0.062-1.109,0.908-1.889,2.025-1.864
			c1.021,0.021,1.914,0.903,1.99,1.966C266.75,115.373,265.984,116.115,264.896,116.125z"/>
		<path id="g4h" fill="#D7FFFB" d="M199.688,107.291c-0.029,1.008-1.369,2.082-2.546,2.039c-1.041-0.037-2.019-0.815-2.062-1.643
			c-0.049-0.909,1.596-2.199,2.757-2.164C198.861,105.556,199.716,106.371,199.688,107.291z"/>
		<path id="g4b" fill="#D7FFFB" d="M202.104,116.748c0.038,0.947-0.981,2.073-1.917,2.121c-0.943,0.047-2.195-0.961-2.24-1.803
			c-0.039-0.703,1.405-2.045,2.305-2.145C201.055,114.834,202.068,115.834,202.104,116.748z"/>
		<path id="g3" fill="#D7FFFB" d="M213.138,114.18c-1.047,0.012-2.283-1.045-2.261-1.934c0.033-1.357,1-2.404,2.172-2.353
			c1.025,0.045,1.953,1.104,2.021,2.306C215.132,113.258,214.244,114.166,213.138,114.18z"/>
		<path id="g2" fill="#D7FFFB" d="M224.314,110.752c0.902,0.02,2.129,1.314,2.088,2.207c-0.052,1.148-1.236,2.168-2.431,2.092
			c-1.179-0.074-2.126-1.049-2.094-2.152C221.906,111.929,223.269,110.728,224.314,110.752z"/>
		<path id="g1" fill="#D7FFFB" d="M236.102,114.939c-1.288,0.01-2.761-1.186-2.703-2.191c0.064-1.119,1.579-2.219,3.02-2.193
			c1.082,0.019,1.764,0.736,1.74,1.83C238.132,113.603,237.062,114.933,236.102,114.939z"/>
		<path id="_x31_0_2_" fill="#D7FFFB" d="M250.777,112.283c1.389,0.012,2.323,0.891,2.264,2.131
			c-0.055,1.162-0.827,1.943-1.916,1.937c-1.541-0.011-2.352-0.588-2.372-1.696C248.727,113.383,249.674,112.274,250.777,112.283z"
			/>
		<path id="_x39__2_" fill="#D7FFFB" d="M253.466,127.709c-0.028,0.137-0.062,0.541-0.202,0.9c-0.367,0.938-1.918,1.576-2.777,1.176
			c-0.748-0.35-0.939-1.462-0.365-2.512c0.218-0.398,0.539-0.801,0.914-1.043c0.493-0.316,1.017-0.9,1.692-0.428
			C253.277,126.188,253.496,126.785,253.466,127.709z"/>
		<path id="_x38__2_" fill="#D7FFFB" d="M253.953,141.412c-0.032,1.006-1.373,2.309-2.355,2.289c-1-0.021-1.811-0.875-1.748-1.842
			c0.084-1.312,1.107-2.656,1.955-2.568C253.025,139.416,253.988,140.365,253.953,141.412z"/>
		<path id="_x37__3_" fill="#D7FFFB" d="M252.314,154.805c-1.316-0.041-2.122-0.738-2.038-1.768
			c0.086-1.072,1.183-2.264,2.086-2.268c1.174-0.008,2.303,1.127,2.267,2.278C254.593,154.223,253.768,154.848,252.314,154.805z"/>
		<path id="_x36__2_" fill="#D7FFFB" d="M252.969,168.723c-1.1-0.055-2.191-0.906-2.221-1.732c-0.034-1.004,1.369-2.483,2.24-2.362
			c0.904,0.127,1.935,1.455,1.875,2.42C254.807,167.98,253.916,168.768,252.969,168.723z"/>
		<path id="_x35__2_" fill="#D7FFFB" d="M254.791,179.186c0.045,1.07-0.961,1.955-2.227,1.959c-1.383,0.004-2.445-0.762-2.417-1.738
			c0.031-1.047,1.334-2.293,2.372-2.268C253.602,177.166,254.752,178.201,254.791,179.186z"/>
		<path id="_x34__2_" fill="#D7FFFB" d="M252.044,192.922c-1.517-0.018-2.302-0.664-2.238-1.852c0.051-0.963,1.442-2.15,2.514-2.146
			c0.839,0.005,1.927,1.169,1.97,2.113C254.346,192.195,253.462,192.936,252.044,192.922z"/>
		<path id="_x33__2_" fill="#D7FFFB" d="M249.551,203.285c0.045-1.117,1.754-2.977,2.76-3c0.832-0.02,2.084,1.639,2.002,2.648
			c-0.092,1.129-1.201,1.871-2.651,1.774C250.236,204.616,249.516,204.129,249.551,203.285z"/>
		<path id="_x32__2_" fill="#D7FFFB" d="M251.621,211.84c0.623-0.068,1.504,0.957,1.552,1.811c0.063,1.117-1.093,2.33-2.378,2.494
			c-0.989,0.127-1.874-0.401-2.018-1.205C248.615,214.025,250.507,211.963,251.621,211.84z"/>
		<path id="_x31_d" fill="#D7FFFB" d="M263.543,225.938c0.02,0.728-1.58,2.299-2.355,2.316c-0.455,0.012-1.928-1.584-1.959-2.123
			c-0.058-0.963,1.021-2.146,2.06-2.248C262.117,223.799,263.521,225.078,263.543,225.938z"/>
		<path id="_x31_g" fill="#D7FFFB" d="M242.363,227.674c-1.177-0.027-2.004-0.68-1.983-1.562c0.022-0.965,1.087-1.94,2.087-1.916
			c1.033,0.025,1.915,0.81,1.951,1.73C244.459,227.041,243.68,227.705,242.363,227.674z"/>
	</g>
	<g id="contact-point-n">
		<path id="_x31_1_1_" fill="#D7FFFB" d="M220.67,216.664c-0.021,0.771-0.918,1.455-1.891,1.445c-1.025-0.012-2.252-1.055-2.15-1.83
			c0.083-0.629,1.484-1.631,2.186-1.561C219.515,214.791,220.687,216.018,220.67,216.664z"/>
		<path id="_x31_0_1_" fill="#D7FFFB" d="M218.557,208.25c-1.365-0.041-2.168-0.543-2.197-1.371
			c-0.043-1.213,1.307-2.654,2.377-2.541c0.957,0.104,2.084,1.379,2.078,2.354C220.811,207.695,219.943,208.293,218.557,208.25z"/>
		<path id="_x39__1_" fill="#D7FFFB" d="M216.941,195.014c-1.211,0.004-2.152-0.897-2.166-2.074
			c-0.012-0.987,1.151-1.979,2.312-1.969c1.056,0.008,2.167,0.938,2.197,1.838C219.322,193.963,218.214,195.008,216.941,195.014z"/>
		<path id="_x38__1_" fill="#D7FFFB" d="M212.503,176.615c1.015,0.018,2.22,1.256,2.271,2.332c0.045,0.939-1.16,2.143-2.164,2.16
			c-1.248,0.021-2.195-0.812-2.219-1.957C210.356,177.562,211.164,176.592,212.503,176.615z"/>
		<path id="_x37__2_" fill="#D7FFFB" d="M205.437,169.32c0.007,0.916-1.082,1.812-2.157,1.777c-1.053-0.033-2.326-0.916-2.389-1.658
			c-0.08-0.945,1.139-2.31,2.044-2.282C204.08,167.189,205.43,168.355,205.437,169.32z"/>
		<path id="_x36__1_" fill="#D7FFFB" d="M191.515,168.205c0.01,1.5-0.752,2.156-2.483,2.139c-1.371-0.014-2.089-0.711-2.072-2.014
			c0.017-1.316,1.125-2.646,2.247-2.693C190.388,165.584,191.506,166.83,191.515,168.205z"/>
		<path id="_x35__1_" fill="#D7FFFB" d="M174.122,158.506c0.885,0.051,2.015,1.418,1.939,2.35c-0.094,1.146-1.113,2.131-2.16,2.084
			c-1.309-0.057-2.258-1.213-2.127-2.592C171.872,159.311,172.98,158.439,174.122,158.506z"/>
		<path id="_x34__1_" fill="#D7FFFB" d="M181.297,174.139c-0.044,0.838-1.253,1.805-2.246,1.797
			c-1.175-0.01-2.069-0.987-2.012-2.205c0.056-1.188,1.088-2.264,2.116-2.205C179.885,171.566,181.339,173.34,181.297,174.139z"/>
		<path id="_x33__1_" fill="#D7FFFB" d="M175.939,186.463c-0.004-1.238,0.921-2.277,2.136-2.398c0.752-0.074,1.99,1.438,2.036,2.49
			c0.056,1.273-0.87,2.381-2.05,2.447C176.745,189.076,175.946,188.121,175.939,186.463z"/>
		<path id="_x32__1_" fill="#D7FFFB" d="M177.898,200.062c1.253,0.158,2.276,1.467,2.068,2.647
			c-0.161,0.914-1.074,1.435-2.197,1.248c-0.995-0.164-1.924-1.569-1.783-2.697C176.097,200.385,176.826,199.93,177.898,200.062z"/>
		<path id="_x31__2_" fill="#D7FFFB" d="M180.557,216.396c-0.065,1.125-0.935,2.08-1.866,2.051
			c-1.003-0.033-2.038-1.029-2.014-1.939c0.027-1.051,1.194-2.123,2.194-2.016C179.861,214.6,180.613,215.447,180.557,216.396z"/>
	</g>
	<g id="contact-point-o">
		<path id="_x37__1_" fill="#D7FFFB" d="M148.256,197.105c-1.308-0.025-2.194-0.818-2.199-1.97
			c-0.004-0.954,1.164-2.026,2.232-2.051c1.121-0.022,2.187,1.34,2.108,2.696C150.351,196.568,149.446,197.129,148.256,197.105z"/>
		<path id="_x36_b" fill="#D7FFFB" d="M146.586,210.08c-0.021,1.162-0.839,1.952-1.955,1.891c-1.06-0.061-2.389-1.385-2.327-2.315
			c0.059-0.886,1.151-1.854,2.12-1.882C145.608,207.739,146.609,208.809,146.586,210.08z"/>
		<path id="_x35_b" fill="#D7FFFB" d="M134.132,221.48c-1.144-0.041-2.503-1.263-2.456-2.203c0.053-1.045,1.483-2.223,2.698-2.221
			c0.995,0,2.015,1.188,1.951,2.272C136.266,220.324,135.052,221.516,134.132,221.48z"/>
		<path id="_x35_h" fill="#D7FFFB" d="M148.604,180.855c-0.009,0.908-1.233,2.008-2.263,2.035c-1.101,0.028-2.057-1.154-1.969-2.438
			c0.065-0.945,1.104-1.957,2.021-1.968C147.421,178.477,148.616,179.758,148.604,180.855z"/>
		<path id="_x34_b" fill="#D7FFFB" d="M121.154,219.311c0.907-0.024,2.156,1.217,2.17,2.16c0.018,1.146-1.084,2.328-2.203,2.365
			c-1.254,0.043-2.038-0.633-2.025-1.744C119.113,220.654,120.084,219.34,121.154,219.311z"/>
		<path id="_x34_h" fill="#D7FFFB" d="M138.961,172.992c-1.396-0.008-2.654-1.258-2.593-2.576c0.043-0.934,0.792-1.668,1.692-1.66
			c1.292,0.01,3.102,1.6,3,2.637C140.979,172.215,139.953,172.998,138.961,172.992z"/>
		<path id="_x33_b" fill="#D7FFFB" d="M110.979,219.268c-1.195-0.057-1.993-0.971-1.955-2.24c0.033-1.096,0.793-1.883,1.758-1.819
			c1.294,0.08,2.137,1.062,2.095,2.431C112.843,218.748,112.175,219.322,110.979,219.268z"/>
		<path id="_x33_h" fill="#D7FFFB" d="M122.89,170.918c-1.167-0.033-1.947-0.838-1.901-1.965c0.048-1.166,1.276-2.518,2.229-2.451
			c1.056,0.074,2.076,1.213,2.044,2.285C125.225,170.057,124.226,170.953,122.89,170.918z"/>
		<path id="_x32_b" fill="#D7FFFB" d="M102.828,204.396c0.001-1.268,0.616-1.891,1.867-1.895c1.17-0.002,2.406,1.332,2.324,2.512
			c-0.063,0.906-0.958,1.74-1.895,1.766C103.699,206.814,102.827,205.91,102.828,204.396z"/>
		<path id="_x32_a" fill="#D7FFFB" d="M111.442,179.336c-1.405-0.021-2.321-0.787-2.269-1.893c0.055-1.17,1.369-2.639,2.376-2.658
			c1.144-0.021,2.28,1.363,2.193,2.672C113.66,178.67,112.817,179.357,111.442,179.336z"/>
		<path id="_x31__1_" fill="#D7FFFB" d="M104.776,192.166c-0.988-0.039-1.889-1.066-1.805-2.062
			c0.092-1.094,1.115-2.076,2.187-2.104c0.951-0.023,2.284,1.566,2.236,2.67C107.359,191.5,106.1,192.219,104.776,192.166z"/>
	</g>
	<g id="contact-point-c1">
		<path id="_x32_5" fill="#D7FFFB" d="M81.17,207.357c0.025,1.574-0.938,2.727-2.299,2.748c-0.95,0.016-2.344-1.648-2.392-2.855
			c-0.04-0.99,1.394-2.656,2.29-2.66C79.885,204.584,81.15,206.043,81.17,207.357z"/>
		<path id="_x32_4" fill="#D7FFFB" d="M66.233,216.391c-1.254-0.026-2.189-0.898-2.183-2.037c0.007-1.364,1.083-2.453,2.396-2.422
			c1.181,0.027,2.249,1.16,2.204,2.338C68.605,215.432,67.484,216.416,66.233,216.391z"/>
		<path id="_x32_3" fill="#D7FFFB" d="M55.744,215.66c0.014,1.141-1.054,1.93-2.767,2.045c-1.115,0.074-2.327-1.295-2.271-2.566
			c0.044-0.996,1.354-1.99,2.614-1.983C54.481,213.157,55.728,214.447,55.744,215.66z"/>
		<path id="_x32_2" fill="#D7FFFB" d="M39.477,214.479c-1.232,0.011-1.866-0.684-1.815-1.981c0.046-1.16,1.703-2.688,2.91-2.688
			c1.147,0,2.196,0.938,2.257,2.01C42.913,213.273,41.42,214.461,39.477,214.479z"/>
		<path id="_x32_1" fill="#D7FFFB" d="M28.146,198.293c1.471-0.021,2.564,0.787,2.581,1.914c0.019,1.252-1.17,2.508-2.386,2.521
			c-1.319,0.013-2.83-1.408-2.88-2.711C25.422,198.994,26.474,198.318,28.146,198.293z"/>
		<path id="_x32_0" fill="#D7FFFB" d="M18.2,188.402c-0.042-1.439,0.763-2.559,1.875-2.604c1.068-0.041,2.478,1.502,2.488,2.726
			c0.01,1.254-0.881,2.125-2.281,2.229C19.132,190.838,18.241,189.832,18.2,188.402z"/>
		<path id="_x31_9" fill="#D7FFFB" d="M16.674,170.609c-1.43,0.033-2.502-1.234-2.477-2.926c0.016-1.095,1.062-2.107,2.189-2.125
			c1.335-0.019,2.555,1.188,2.632,2.598C19.093,169.541,18.101,170.58,16.674,170.609z"/>
		<path id="_x31_8" fill="#D7FFFB" d="M16.52,146.379c1.339-0.246,2.416,1.393,2.445,2.395c0.038,1.304-1.058,2.332-2.477,2.377
			c-1.254,0.039-2.464-1.297-2.444-2.703C14.059,147.348,15.219,146.379,16.52,146.379z"/>
		<path id="_x31_7" fill="#D7FFFB" d="M16.943,132.689c-0.021-1.451,1.202-2.861,2.55-2.941c0.893-0.053,2.283,1.166,2.298,2.018
			c0.027,1.504-1.177,2.902-2.542,2.955C17.801,134.775,16.962,134.037,16.943,132.689z"/>
		<path id="_x31_6" fill="#D7FFFB" d="M26.845,118.149c0.058,1.019-1.471,2.646-2.55,2.716c-1.327,0.086-2.333-1.1-2.464-2.906
			c-0.084-1.151,0.936-2.053,2.332-2.06C25.383,115.894,26.784,117.068,26.845,118.149z"/>
		<path id="_x31_5" fill="#D7FFFB" d="M33.463,99.846c1.416,0.059,2.546,1.152,2.484,2.4c-0.067,1.34-1.695,2.762-3.162,2.762
			c-1.402-0.002-2.302-1.152-2.208-2.827C30.646,100.938,32.067,99.787,33.463,99.846z"/>
		<path id="_x31_4" fill="#D7FFFB" d="M41.066,92.07c-1.176-0.031-2.634-1.572-2.525-2.669c0.087-0.88,1.819-2.399,2.702-2.37
			c1.289,0.043,2.558,1.402,2.528,2.707C43.736,91.264,42.746,92.116,41.066,92.07z"/>
		<path id="_x31_3" fill="#D7FFFB" d="M53.351,82.494c-1.34-0.011-2.774-1.418-2.758-2.705c0.01-0.787,1.602-2.17,2.556-2.221
			c1.098-0.057,2.853,1.645,2.875,2.786C56.047,81.535,54.835,82.504,53.351,82.494z"/>
		<path id="_x31_2" fill="#D7FFFB" d="M64.432,73.885c-0.007-1.377,0.84-2.346,2.042-2.338c1.523,0.012,2.673,0.935,2.64,2.119
			c-0.033,1.196-1.216,2.369-2.475,2.453C65.458,76.198,64.438,75.166,64.432,73.885z"/>
		<path id="_x31_1" fill="#D7FFFB" d="M83.019,73.846c-1.118,0.001-1.853-0.764-1.877-1.958c-0.028-1.319,0.917-2.431,2.057-2.423
			c1.128,0.009,2.248,1.166,2.241,2.313C85.432,72.934,84.367,73.844,83.019,73.846z"/>
		<path id="_x31_0" fill="#D7FFFB" d="M99.406,79.407c0.002-1.295,0.433-1.678,1.923-1.706c1.65-0.033,3.192,1.159,3.217,2.484
			c0.02,1.011-1.278,2.164-2.417,2.148C100.6,82.314,99.404,81.028,99.406,79.407z"/>
		<path id="_x39_" fill="#D7FFFB" d="M109.939,97.692c-0.068,1.011-1.484,2.083-2.625,1.986c-1.182-0.099-2.233-1.359-2.088-2.5
			c0.111-0.87,1.309-1.923,2.186-1.921C108.633,95.26,110.014,96.592,109.939,97.692z"/>
		<path id="_x38_" fill="#D7FFFB" d="M97.339,111.207c0.007-1.658,0.557-2.244,2.087-2.224c1.45,0.021,2.516,0.896,2.478,2.033
			c-0.045,1.353-1.133,2.483-2.418,2.515C98.229,113.561,97.333,112.59,97.339,111.207z"/>
		<path id="_x37_" fill="#D7FFFB" d="M86.882,113.09c-0.042,1.464-0.84,2.328-2.148,2.326c-1.192-0.002-2.449-1.242-2.499-2.465
			c-0.049-1.197,1.134-2.091,2.708-2.047C86.175,110.938,86.918,111.776,86.882,113.09z"/>
		<path id="_x36_" fill="#D7FFFB" d="M74.993,106.584c0,1.099-0.752,1.732-2.038,1.72c-1.198-0.013-2.516-1.229-2.559-2.36
			c-0.033-0.881,1.2-2.005,2.253-2.053C73.917,103.832,74.993,105.068,74.993,106.584z"/>
		<path id="_x35_" fill="#D7FFFB" d="M65.417,96.943c-1.409,0-2.048-0.729-2.029-2.312c0.015-1.235,0.564-1.881,1.608-1.885
			c1.426-0.008,2.585,1.139,2.583,2.557C67.578,96.385,66.843,96.943,65.417,96.943z"/>
		<path id="_x34_" fill="#D7FFFB" d="M55.363,55.312c1.294-0.039,2.985,1.089,3.062,2.105c0.08,1.069-0.448,1.804-1.447,2.191
			c-0.998,0.389-2.226,0.045-2.688-0.789c-0.189-0.341-0.268-0.742-0.415-1.107C53.181,55.998,53.571,55.365,55.363,55.312z"/>
		<path id="_x33_" fill="#D7FFFB" d="M55.375,46.02c0.954-0.036,2.441,1.026,2.533,1.809c0.101,0.869-1.289,2.254-2.358,2.349
			c-1.143,0.101-2.32-0.945-2.41-2.141C53.063,47.023,54.125,46.066,55.375,46.02z"/>
		<path id="_x32_" fill="#D7FFFB" d="M56.39,39.88c-1.193-0.037-1.597-0.534-1.531-1.882c0.077-1.555,0.859-2.459,2.075-2.4
			c1.213,0.06,2.326,1.195,2.28,2.327C59.167,39.101,57.97,39.93,56.39,39.88z"/>
		<path id="_x31_" fill="#D7FFFB" d="M63.867,26.382c0.008,1.063-0.997,1.988-2.238,2.06c-0.946,0.054-1.792-0.844-1.743-1.851
			c0.055-1.138,0.875-2.016,1.932-2.068C62.938,24.468,63.856,25.301,63.867,26.382z"/>
	</g>
</g>
<g id="contact-lettres">
	<path id="contact-lettres-o-interieur" fill="#1D7056" stroke="#1D7056" stroke-miterlimit="10" d="M141.726,191.215
		c0.166,5.697-1.646,10.838-4.745,15.488c-1.678,2.52-4.008,4.553-6.792,5.842c-3.777,1.748-7.604,0.994-11.443-0.021
		c-3.047-0.811-5.423-2.473-6.744-5.264c-1.225-2.588-1.899-5.406-1.467-8.326c0.557-3.768,0.895-7.586,2.527-11.119
		c1.245-2.694,2.697-5.219,4.91-7.268c0.929-0.859,1.794-1.834,2.497-2.883c1.258-1.883,3.074-2.373,5.146-2.398
		c2.081-0.029,4.136,0.289,6.165,0.662c3.834,0.707,6.575,2.738,8.199,6.471C141.226,185.266,141.644,188.186,141.726,191.215z
		 M126.797,177.455c-1.622-0.096-3.049,0.486-4.222,1.465c-3.524,2.938-6.506,6.371-8.131,10.713
		c-1.494,3.992-1.951,8.19-1.796,12.469c0.077,2.115,0.885,3.889,2.231,5.396c3.209,3.604,7.442,4.512,11.932,3.756
		c5.039-0.846,8.292-4.188,10.293-8.75c1.413-3.223,2.233-6.588,2.539-10.133c0.35-4.059-0.453-7.703-2.728-11.062
		c-0.987-1.457-2.305-2.459-3.998-2.822C130.896,178.053,128.839,177.791,126.797,177.455z"/>
	<path id="contact-lettres-a-interieur" fill="#1D7056" stroke="#1D7056" stroke-miterlimit="10" d="M289.02,202.857
		c0.228-4.279,1.304-8.33,3.431-12.076c0.67-1.18,1.334-2.374,2.135-3.465c3.093-4.207,7.056-5.771,12.062-3.508
		c3.138,1.416,5.343,3.645,7.351,6.502c3.295,4.686,2.144,9.26,0.625,13.899c-0.604,1.838-1.354,3.711-2.676,5.291
		c-2.861,3.424-7.767,6.019-12.429,4.646c-0.914-0.271-1.867-0.453-2.793-0.614c-3.246-0.567-4.969-2.933-6.643-5.354
		C288.986,206.592,288.959,204.725,289.02,202.857z M314.107,197.311c0.283-2.367-0.293-4.459-1.773-6.295
		c-0.648-0.807-1.189-1.748-1.979-2.385c-2.723-2.199-5.271-4.648-9.42-3.023c-2.3,0.9-3.908,2.33-5.289,4.166
		c-1.549,2.062-2.209,4.558-3.119,6.931c-1.576,4.104-1.205,8.032,0.748,11.907c0.646,1.277,1.555,2.314,2.857,2.744
		c4.021,1.32,7.983,1.314,11.626-1.184C312.279,207.073,314.061,202.594,314.107,197.311z"/>
	<path id="contact-lettres-c1" fill="#1D7056" stroke="#1D7056" stroke-miterlimit="10" d="M53.125,98.375
		c-3.682,2.877-6.903,6.181-9.523,10.133c-2.154,3.25-4.612,6.298-6.646,9.64c-2.152,3.536-4.076,7.206-5.59,11.038
		c-0.802,2.029-1.259,4.291-1.171,6.547c0.066,1.695-0.17,3.344-0.57,4.97c-0.482,1.959-0.566,3.916-0.381,5.924
		c0.791,8.588,2.423,17.041,4.061,25.489c1.022,5.271,2.911,10.289,5.206,15.104c2.244,4.707,5.846,8.104,10.822,10.146
		c4.649,1.905,9.433,3.028,14.38,3.018c3.021-0.01,5.878-1.377,8.506-2.94c3.035-1.81,5.939-3.873,8.053-6.709
		c1.925-2.58,3.99-5.176,4.557-8.531c0.115-0.68,0.24-1.352,0.981-1.792c1.396-0.831,1.954-0.718,2.443,0.821
		c0.913,2.873,2.268,5.563,2.953,8.555c0.917,3.998,0.593,7.869-0.035,11.816c-0.609,3.821-2.039,7.338-3.677,10.801
		c-1.377,2.908-3.409,5.312-5.847,7.334c-2.508,2.08-5.082,4.106-7.801,5.896c-1.893,1.244-3.932,2.449-6.413,2.234
		c-0.625-0.055-1.287,0.033-1.902,0.178c-5.021,1.174-10.084,1.066-15.199,0.823c-4.511-0.216-8.815-1.173-13.119-2.403
		c-2.73-0.781-5.201-2.104-7.518-3.594c-4.087-2.623-7.991-5.539-11.377-9.084c-1.512-1.58-2.751-3.354-3.541-5.354
		c-1.236-3.134-2.801-6.074-4.578-8.914c-0.431-0.688-0.781-1.396-1.024-2.146c-1.472-4.543-3.138-9.021-4.199-13.699
		c-0.854-3.765-1.066-7.578-1.253-11.396c-0.055-1.117-0.207-2.215-0.338-3.312c-0.738-6.135-0.256-12.293-0.437-18.435
		c-0.198-6.7,0.958-13.2,2.498-19.641c0.961-4.018,2.214-7.973,3.862-11.791c0.947-2.193,1.631-4.496,2.458-6.741
		c2.289-6.214,5.326-12.073,8.267-17.979c0.771-1.549,1.877-2.943,2.913-4.348c3.64-4.935,7.101-10.041,11.969-13.9
		c1.562-1.238,2.987-2.633,4.576-3.83c1.627-1.226,2.56-3.252,4.643-3.956c0.441-0.149,0.339-0.623,0.262-1.039
		c-0.247-1.333-0.472-2.671-0.666-4.011c-0.667-4.612-0.147-9.198,0.668-13.712c0.803-4.451,1.573-8.917,3.119-13.224
		c4.021-11.206,11.088-20.001,20.78-26.765c2.366-1.651,5.112-2.603,7.77-3.647c1.919-0.755,3.948-1.241,5.872-2.038
		c0.901-0.373,1.862-0.677,2.632,0.634c0.699,1.189,0.121,1.749-0.56,2.452c-3.569,3.688-6.569,7.783-8.821,12.408
		c-1.437,2.954-2.178,6.108-2.971,9.286c-1.18,4.729-1.958,9.525-2.884,14.295c-0.878,4.525-1.63,9.08-0.955,13.736
		c0.282,1.946,0.42,2.104,2.355,1.959c2.786-0.208,5.488-0.995,8.31-1.004c5.602-0.016,10.958,1.22,16.006,3.459
		c4.596,2.039,8.977,4.619,12.61,8.166c2.31,2.255,4.639,4.509,6.013,7.617c1.053,2.381,2.611,4.531,3.5,7.037
		c1.499,4.223,2.733,8.479,2.792,13.008c0.073,5.531-1.106,10.83-3.746,15.629c-1.702,3.097-3.967,5.91-6.884,8.123
		c-1.67,1.269-3.383,2.287-5.407,2.83c-4.852,1.299-9.687,2.854-14.785,2.429c-4.19-0.349-8.375-0.828-12.306-2.608
		c-2.902-1.313-5.82-2.585-8.71-3.928c-4.062-1.888-6.346-5.333-8.831-8.624c-2.42-3.205-3.789-6.997-5.122-10.766
		c-0.159-0.449-0.362-0.885-0.578-1.311C53.535,98.608,53.355,98.543,53.125,98.375z M87.326,185.43
		c-1.176,0.475-1.485,1.307-1.823,2.107c-0.657,1.564-1.577,2.973-2.785,4.146c-2.284,2.221-4.576,4.45-7.232,6.229
		c-2.915,1.953-5.904,3.719-9.456,4.401c-2.087,0.402-4.125,0.273-6.18,0.142c-4.65-0.306-9.187-1.154-13.386-3.295
		c-2.957-1.507-5.486-3.601-7.512-6.199c-1.908-2.448-4.495-4.565-4.58-8.069c-2.054-4.188-2.932-8.744-4.038-13.222
		c-1.262-5.108-2.389-10.244-2.609-15.543c-0.204-4.924-1.253-9.758-0.938-14.772c0.308-4.907,1.083-9.66,2.361-14.373
		c0.374-1.379,0.52-2.836,1.02-4.164c1.873-4.969,5.303-9.012,8.254-13.316c1.837-2.681,4.14-5.051,6.478-7.342
		c2.623-2.57,5.108-5.311,8.031-7.535c5.607-4.268,11.879-7.43,18.23-10.41c2.382-1.117,4.949-1.92,7.625-1.797
		c2.782,0.127,5.553,0.494,8.326,0.783c0.891,0.094,1.631,0.562,2.397,1.016c1.814,1.074,2.985,2.875,4.661,4.056
		c2.067,1.456,3.008,3.534,3.428,5.812c0.43,2.334,0.766,4.791-0.745,6.955c-1.72,2.465-6.979,4.809-10.504,2.825
		c-3.308-1.86-6.173-4.225-8.042-7.625c-1.458-2.651-2.765-5.376-3.974-8.149c-0.254-0.584-0.575-1.137-0.844-1.713
		c-0.26-0.556-0.721-0.68-1.177-0.398c-2.781,1.715-5.851,2.872-8.645,4.572c-2.323,1.416-4.371,3.168-6.521,4.801
		c-1.641,1.247-1.68,1.23-1.068,3.23c1.789,5.854,4.562,11.062,8.961,15.491c2.209,2.226,4.665,3.874,7.358,5.205
		c4.523,2.235,9.32,3.833,14.333,4.454c3.799,0.472,7.597,0.361,11.364-0.897c2.22-0.744,4.24-1.815,6.307-2.805
		c4.217-2.02,7.347-5.104,9.458-9.413c2.831-5.778,3.542-11.838,3.452-18.125c-0.056-3.876-1.38-7.384-3.257-10.618
		c-1.715-2.955-3.807-5.719-5.963-8.379c-1.025-1.266-1.931-2.755-3.399-3.604c-1.97-1.14-4.211-1.901-5.282-4.175
		c-0.051-0.108-0.287-0.12-0.428-0.194c-4.405-2.319-9.03-4.112-13.987-4.593c-7.668-0.744-15.246,0.105-22.714,1.996
		c-2.272,0.576-4.237,1.82-6.368,2.676c-3.198,1.283-6.126,3.011-9.015,4.826c-2.011,1.266-4.035,2.511-5.801,4.147
		c-3.761,3.484-6.892,7.529-10.226,11.388c-3.91,4.526-7.014,9.619-10.08,14.75c-2.835,4.742-4.704,9.888-6.779,14.945
		c-1.967,4.794-3.26,9.829-4.721,14.801c-1.098,3.733-1.923,7.541-2.587,11.369c-0.641,3.698-0.535,7.459-0.574,11.202
		c-0.012,1.113-0.178,2.224-0.254,3.337c-0.301,4.372-0.33,8.737-0.043,13.118c0.344,5.269,1.354,10.42,2.346,15.584
		c0.858,4.474,2.056,8.834,3.773,13.062c1.273,3.143,3.446,5.697,5.239,8.498c0.699,1.094,1.018,2.334,1.749,3.393
		c1.787,2.58,3.815,4.861,6.526,6.57c4.249,2.682,8.497,5.361,13.148,7.277c4.774,1.969,9.786,2.49,14.954,2.396
		c6.309-0.115,12.334-1.232,18.18-3.603c5.878-2.386,10.07-6.731,13.342-11.854c2.825-4.425,4.004-9.533,3.825-14.875
		C88.797,192.426,88.568,188.945,87.326,185.43z M46.852,66.707c3.623-1.675,7.477-2.219,10.849-4.119
		c1.532-0.864,3.211-1.402,4.901-1.905c3.659-1.089,3.695-1.115,3.203-5.021c-0.644-5.114-0.227-10.171,0.799-15.179
		c1.056-5.152,2.537-10.204,3.849-15.295c1.106-4.292,2.851-8.272,5.128-12.065c1.003-1.67,2.251-3.226,3.012-5.247
		c-1.274-0.115-2.179,0.426-3.07,0.88c-5.222,2.66-9.833,6.212-14.198,10.066c-3.618,3.194-8.238,10.948-9.794,15.566
		c-1.854,5.498-4.018,10.883-4.758,16.712c-0.553,4.358-0.794,8.717-0.751,13.1C46.03,65.021,46.374,65.742,46.852,66.707z
		 M79.131,85.258c-0.239,0-0.478,0.005-0.716,0c-1.916-0.043-2.278,0.486-1.28,2.19c0.45,0.771,0.642,1.609,1.03,2.382
		c1.888,3.754,3.63,7.592,7.009,10.352c1.986,1.622,4.038,2.449,6.497,1.122c1.322-0.714,2.763-1.324,3.614-2.617
		c0.872-1.326,0.082-2.548-0.542-3.735c-0.069-0.132-0.05-0.312-0.069-0.47c-0.273-2.244-1.571-3.756-3.459-4.849
		c-0.825-0.479-1.609-1.047-2.476-1.43C85.659,86.842,82.645,85.23,79.131,85.258z"/>
	<path id="contact-lettres-t2" fill="#1D7056" stroke="#1D7056" stroke-miterlimit="10" d="M363.084,114.799
		c-1.284-1.168-2.385-2.186-3.502-3.183c-2.15-1.921-3.15-4.584-4.428-7.044c-0.58-1.121,0.566-2.393,0.24-3.705
		c-0.109-0.451,0.649-0.637,1.139-0.484c0.836,0.264,1.662,0.572,2.471,0.914c4.982,2.1,10.309,2.57,15.576,3.383
		c5.242,0.809,10.521,0.637,15.771,0.683c7.559,0.067,15.129-0.274,22.678-0.731c3.809-0.23,7.619-0.418,11.428-0.696
		c0.938-0.069,1.905,0.081,2.854,0.194c2.405,0.293,4.767-0.416,7.147-0.319c3.986,0.159,7.975,0.606,11.966,0.321
		c5.906-0.42,11.758,0.613,17.648,0.527c4.149-0.059,8.302-0.082,12.451-0.193c2.632-0.07,5.22-0.242,7.817-0.668
		c2.647-0.433,5.002-1.557,7.371-2.689c0.502-0.24,0.964-0.645,1.485-0.742c1.071-0.201,1.679-0.804,2.055-1.779
		c0.138-0.358,0.46-0.646,0.696-0.967c0.426-0.57,0.991-0.77,1.684-0.65c0.803,0.14,0.936,0.779,1.037,1.421
		c0.907,5.733-0.1,10.915-4.371,15.157c-0.278,0.275-0.497,0.611-0.858,1.062c2.474,1.352,3.896,3.52,4.909,5.966
		c1.107,2.673,1.499,5.528,1.645,8.382c0.096,1.859-0.646,2.225-2.378,1.484c-0.436-0.187-0.876-0.418-1.227-0.728
		c-6.019-5.313-13.287-6.985-21.021-6.981c-7.257,0.004-14.506,0.507-21.765,0.668c-4.548,0.102-8.974,1.424-13.231,3.074
		c-3.566,1.383-4.321,2.868-4.126,6.592c0.165,3.146,0.095,6.311-0.003,9.461c-0.084,2.787-0.268,5.576-0.545,8.35
		c-0.391,3.887-0.988,7.75-1.153,11.662c-0.104,2.396-0.231,4.783-0.115,7.188c0.219,4.545,0.283,9.1,0.513,13.646
		c0.195,3.883,0.61,7.756,0.778,11.64c0.12,2.791,0.246,5.625-0.087,8.385c-0.44,3.647,0.093,7.172,0.715,10.699
		c0.907,5.142,3.369,9.719,5.535,14.392c0.531,1.146,1.188,2.229,2.356,2.942c0.646,0.396,1.036,1.018,1.082,1.971
		c0.063,1.336-0.469,1.799-1.628,2.164c-3.272,1.033-6.378,0.81-9.481-0.688c-1.847-0.892-4.011-1.146-5.367-2.938
		c-0.765-1.008-1.24-2.239-2.397-3.062c-1.298,0.983-2.579,2.041-3.94,2.976c-2.804,1.92-5.754,3.291-9.318,3.229
		c-2.34-0.039-4.598-0.488-6.893-0.742c-0.657-0.071-1.408-0.308-1.51-1.271c-0.098-0.939,0.535-1.125,1.162-1.533
		c5.014-3.277,8.472-7.541,9.25-13.771c0.601-4.763,0.894-9.533,1.229-14.312c0.462-6.517,0.841-13.039,0.847-19.563
		c0.006-5.023,0.383-10.031,0.405-15.05c0.034-7.252,0.134-14.504,0.107-21.754c-0.013-3.907-0.164-7.812-0.079-11.728
		c0.059-2.75-0.43-5.547-1.455-8.188c-0.309-0.789-0.816-1.354-1.43-1.879c-2.561-2.203-5.605-3.314-8.862-3.941
		c-3.237-0.623-6.472-0.385-9.745-0.18c-4.771,0.301-9.572,0.195-14.359,0.176c-5.595-0.024-10.93,0.77-15.865,3.717
		c-1.68,1.002-3.553,1.72-5.264,2.748c-0.986,0.592-1.775,1.291-2.553,2.096c-0.857,0.89-1.646,0.665-1.809-0.547
		c-0.354-2.67-0.019-5.26,1.354-7.635c1.277-2.219,2.747-4.296,4.646-6.043C362.598,115.465,362.77,115.189,363.084,114.799z
		 M496.642,102.795c-0.869-0.388-1.241,0.058-1.679,0.406c-1.315,1.051-2.759,1.901-4.363,2.424
		c-3.719,1.213-7.545,2.086-11.442,2.127c-6.366,0.067-12.722,0.545-19.083,0.57c-8.21,0.033-16.422,0.018-24.628-0.181
		c-3.896-0.095-7.784,0.336-11.706-0.212c-2.149-0.301-4.434-0.116-6.678,0.126c-3.627,0.392-7.301,0.54-10.948,0.489
		c-5.337-0.073-10.669-0.472-16.005-0.627c-6.779-0.197-13.561-0.396-20.275-1.445c-3.764-0.587-7.632-0.719-11.126-2.516
		c-0.256-0.131-0.584-0.311-1.112,0.258c2.44,3.283,3.67,7.701,8.53,8.834c0.521,0.121,1.156,0.436,1.187,1.056
		c0.026,0.604-0.158,1.159-0.881,1.526c-0.904,0.459-1.692,1.168-2.49,1.82c-2.271,1.853-3.57,4.293-4.293,7.172
		c2.412-1.34,5.16-1.576,7.479-2.865c2.211-1.229,4.665-1.621,7.039-2.139c5.298-1.156,10.725-1.596,16.125-1.904
		c7.182-0.409,14.341-0.166,21.102,2.845c2.211,0.983,4.592,2.016,5.879,3.979c1.812,2.762,3.185,5.838,3.219,9.351
		c0.078,7.645-0.459,15.28-0.178,22.93c0.053,1.406,0.248,2.848,0.035,4.272c-0.604,4.052-0.289,8.128-0.31,12.193
		c-0.015,2.219,0.2,4.442,0.134,6.657c-0.066,2.138-0.561,4.24-0.329,6.414c0.166,1.576,0.229,3.205,0.019,4.769
		c-0.444,3.328-0.242,6.666-0.354,9.998c-0.125,3.66,0.163,7.33-0.383,10.981c-0.447,2.996-1.075,5.955-1.859,8.871
		c-0.945,3.515-2.715,6.59-5.379,9.142c-0.658,0.629-1.564,1.077-1.984,2.026c5.004,0.986,5.834,0.947,9.474-1.156
		c1.354-0.784,2.614-1.764,3.81-2.832c0.801-0.717,1.555-1.356,1.786-2.434c0.191-0.895,0.717-1.438,1.632-1.438
		c0.763,0.002,1.666,1.131,1.769,2.066c0.287,2.653,2.8,5.633,5.1,6.032c1.337,0.231,2.671,0.513,4.019,0.658
		c1.214,0.131,2.449,0.455,4.059,0.03c-1.812-1.467-2.606-3.241-3.416-5.019c-2.854-6.271-5.249-12.653-5.17-19.694
		c0.006-0.474-0.146-0.946-0.184-1.424c-0.268-3.496-1.168-6.934-1.079-10.455c0.157-6.309-0.821-12.565-0.687-18.877
		c0.072-3.33-0.336-6.666,0.104-10c0.222-1.658,0.396-3.328,0.46-4.998c0.191-4.854,0.415-9.709,0.447-14.565
		c0.04-5.994,1.238-11.903,1.164-17.901c-0.021-1.591,0.684-2.96,2.099-3.812c3.062-1.843,6.146-3.688,9.738-4.291
		c4.556-0.767,9.114-1.47,13.759-1.468c3.341,0,6.688-0.006,10.018-0.229c3.002-0.198,5.972-0.49,9.008-0.449
		c4.584,0.062,8.715,1.646,12.98,2.876c1.999,0.576,3.405,2.012,5.042,3.129c0.774,0.53,1.248,0.291,1.207-0.571
		c-0.104-2.113-0.677-4.027-2.242-5.589c-1.298-1.293-2.647-2.499-4.172-3.526c-1.354-0.912-1.337-1.645-0.058-2.74
		c0.241-0.208,0.443-0.479,0.717-0.633C495.252,110.605,495.57,106.521,496.642,102.795z"/>
	<path id="contact-lettres-t1" fill="#1D7056" stroke="#1D7056" stroke-miterlimit="10" d="M251.184,226.676
		c-1.882,1.764-3.773,3.354-5.447,5.146c-3.217,3.441-7.179,5.152-11.789,5.71c-2.168,0.265-4.3-0.101-6.449-0.005
		c-0.771,0.033-1.424-0.305-1.713-1.067c-0.293-0.776,0.293-1.125,0.815-1.522c2.961-2.271,4.966-5.312,7.043-8.355
		c3.226-4.73,5.621-9.814,7.392-15.225c1.381-4.217,1.592-8.607,1.867-12.996c0.199-3.172,0.024-6.344,0.568-9.525
		c0.452-2.645,0.234-5.412,0.205-8.125c-0.023-2.152-0.219-4.304,0.146-6.447c0.08-0.469,0.047-0.959,0.017-1.438
		c-0.289-4.53-0.259-9.071-0.47-13.603c-0.256-5.5-0.129-11.002-0.336-16.492c-0.144-3.82,0.025-7.656-0.487-11.472
		c-0.259-1.932-1.076-3.34-2.388-4.774c-3.05-3.338-6.987-4.469-11.18-5.326c-7.232-1.479-14.433-0.801-21.665-0.059
		c-4,0.412-7.825,1.416-11.631,2.621c-2.445,0.774-4.828,1.627-6.681,3.51c-0.446,0.453-1.009,0.545-1.54,0.313
		c-0.586-0.258-0.634-0.836-0.615-1.437c0.108-3.438,1.643-6.285,3.708-8.899c1.129-1.429,2.324-2.806,3.479-4.195
		c-0.781-1.172-2.035-1.661-2.936-2.564c-3.175-3.186-5.164-7.008-6.155-11.367c-0.312-1.373,0.303-2.029,1.686-1.662
		c0.741,0.195,1.506,0.36,2.228,0.777c5.088,2.942,10.743,3.939,16.479,4.532c4.904,0.506,9.824,0.869,14.738,1.288
		c5.414,0.462,10.828,0.064,16.241-0.02c1.956-0.031,3.929-0.257,5.867,0.164c1.131,0.246,2.235-0.021,3.333-0.103
		c4.68-0.347,9.376-0.036,14.048-0.401c8.008-0.626,16.035-0.965,24.058-1.082c3.735-0.057,7.468-0.287,11.188-0.443
		c4.439-0.188,8.947-0.313,13.295-1.383c4.269-1.049,8.433-2.451,11.685-5.664c0.455-0.45,0.931-0.709,1.679-0.66
		c1.504,0.101,1.889,0.484,1.239,1.83c-0.354,0.735-0.636,1.416-0.616,2.25c0.075,3.432-0.876,6.606-2.334,9.688
		c-0.533,1.127-1.304,1.963-2.158,2.803c-0.646,0.631-0.882,1.301,0.182,1.881c1.721,0.941,2.453,2.688,3.191,4.344
		c1.186,2.648,1.582,5.498,1.787,8.376c0.049,0.678,0.082,1.35-0.622,1.625c-0.598,0.232-1.108,0.697-1.957,0.207
		c-5.17-2.996-10.811-4.779-16.696-5.461c-7.055-0.814-14.156-1.354-21.271-1.047c-3.646,0.158-7.316,0.332-10.881,1.262
		c-2.071,0.543-3.725,1.441-5.196,3.318c-1.438,1.834-2.782,3.59-3.604,5.756c-0.625,1.647-0.901,3.317-0.983,5.104
		c-0.181,3.897-0.728,7.779-0.562,11.697c0.205,4.86,0.307,9.723,0.6,14.584c0.26,4.27,0.113,8.571,0.107,12.856
		c-0.002,2.836,0.11,5.735,0.438,8.569c0.338,2.931,0.071,5.853,0.371,8.781c0.515,5.062,0.612,10.164,1.053,15.24
		c0.316,3.648,0.372,7.332,1.367,10.873c1.431,5.074,3.885,9.586,7.791,13.225c0.562,0.521,1.285,0.582,1.929,0.859
		c0.619,0.271,1.383,0.203,1.873,0.915c1.396,2.019,1.026,3.216-1.415,3.604c-4.387,0.703-8.729,0.731-12.862-1.312
		c-1.066-0.526-2.273-0.78-3.316-1.346c-2.49-1.349-4.646-3.062-5.947-5.701C252.486,228.234,251.707,227.406,251.184,226.676z
		 M189.674,123.336c0.133,0.125,0.266,0.252,0.398,0.377c0.797-0.354,1.592-0.709,2.392-1.057c3.896-1.691,7.944-2.914,12.146-3.488
		c6.149-0.842,12.315-1.448,18.549-1.092c4.246,0.243,8.373,0.838,12.338,2.473c4.982,2.059,7.92,5.775,8.986,10.953
		c0.461,2.237,0.752,4.51,0.678,6.854c-0.086,2.689-0.019,5.398,0.326,8.105c0.289,2.271,0.469,4.629,0.062,6.914
		c-0.621,3.477-0.379,6.961-0.399,10.449c-0.027,5.027,0.68,10.027,0.621,15.045c-0.084,7.24-0.259,14.482-0.777,21.709
		c-0.131,1.826-0.08,3.688-0.388,5.469c-0.637,3.68-1.532,7.297-2.872,10.822c-2.203,5.803-5.379,11.02-8.96,16.029
		c-0.468,0.653-1.309,1.082-1.487,2.299c3.012-0.918,5.998-1.164,8.481-2.84c3.724-2.512,7.113-5.402,9.207-9.496
		c0.386-0.75,0.802-1.105,1.606-1.117c0.912-0.014,1.524,0.354,1.81,1.244c0.098,0.303,0.229,0.598,0.368,0.883
		c1.826,3.678,3.992,6.949,7.74,9.125c3.806,2.207,7.707,2.711,12.037,2.207c-0.187-0.389-0.229-0.666-0.392-0.791
		c-4.521-3.494-7.084-8.293-9.254-13.434c-1.087-2.576-1.602-5.271-1.593-7.926c0.017-5.892-0.712-11.732-0.983-17.599
		c-0.246-5.33-0.444-10.681-0.719-16.015c-0.354-6.922-0.412-13.858-0.625-20.789c-0.072-2.375-0.371-4.75-0.303-7.116
		c0.092-3.188,0.309-6.363-0.094-9.552c-0.33-2.619-0.297-5.287,0.041-7.879c0.562-4.312,2.799-7.944,5.539-11.213
		c1.047-1.248,2.299-2.452,3.977-2.958c3.607-1.09,7.339-1.681,11.07-1.665c6.916,0.027,13.854-0.023,20.732,0.891
		c4.981,0.661,9.969,1.317,14.713,3.127c1.775,0.676,3.594,1.25,5.467,1.896c0.48-3.788-1.188-6.526-3.859-8.73
		c-1.376-1.135-2.814-2.183-4.906-1.818c-1.207,0.211-1.729-0.707-1.582-2.043c0.105-0.961,0.797-1.603,1.814-1.305
		c2.322,0.68,3.625-0.634,4.785-2.23c1.521-2.092,2.438-4.475,2.992-6.984c0.133-0.609,0.717-1.285-0.013-2.02
		c-2.024,1.121-4.014,2.299-6.188,3.086c-7.627,2.761-15.573,3.212-23.573,3.258c-6.392,0.036-12.781-0.167-19.168,0.121
		c-6.608,0.297-13.209,0.796-19.83,0.816c-4.709,0.014-9.419,0.045-14.127,0.125c-4.135,0.07-8.277,0.463-12.395,0.273
		c-5.255-0.242-10.521-0.51-15.757-0.993c-4.59-0.423-9.178-1.083-13.627-2.478c-2.171-0.68-4.25-1.577-6.497-2.559
		c-0.038,1.35,0.592,2.266,1.067,3.088c2.083,3.598,4.142,7.33,9.118,7.316c-0.229,1.93-0.219,1.943-1.424,2.754
		C193.441,116.224,191.634,119.834,189.674,123.336z"/>
	<path id="contact-lettres-n" fill="#1D7056" stroke="#1D7056" stroke-miterlimit="10" d="M185.757,196.371
		c-0.103,6.922,1.307,13.613,2.84,20.318c0.903,3.942,2.344,7.541,4.718,10.8c0.816,1.12,0.481,1.718-0.932,1.817
		c-0.636,0.045-1.286-0.039-1.915,0.045c-3.325,0.453-6.073-0.939-8.687-2.707c-1.755-1.188-1.704-1.199-3.42-0.064
		c-4.277,2.824-9.079,3.764-14.106,3.762c-1.395,0-1.563-0.354-0.902-1.604c0.967-1.831,2.601-3.204,3.507-5.104
		c0.515-1.077,1.006-2.123,1.313-3.301c1.8-6.908,2.672-13.935,2.92-21.056c0.075-2.149,0.267-4.299,0.345-6.45
		c0.186-5.117-0.48-10.197-0.764-15.295c-0.131-2.355,0.069-4.72-0.482-7.085c-0.933-3.999-2.629-7.467-5.812-10.139
		c-1.635-1.373-3.116-2.918-4.994-4.01c-1.177-0.683-1.154-1.279-0.146-2.258c1.013-0.982,2.327-1.438,3.641-1.711
		c6.357-1.314,12.307-0.383,17.862,3.148c3.998,2.541,8.332,4.139,13.16,4.543c4.312,0.36,8.612,0.151,12.914,0.307
		c0.315,0.01,0.659,0.074,0.942-0.023c2.595-0.906,4.506,0.639,6.528,1.787c2.457,1.396,3.531,3.77,4.383,6.283
		c0.56,1.652,1.578,3.074,2.123,4.766c1.594,4.938,2.824,9.969,3.523,15.082c0.569,4.156,0.789,8.375,0.846,12.6
		c0.08,6.123,0.229,12.267,1.455,18.3c0.453,2.228,1.422,4.244,3.584,5.424c0.336,0.183,0.642,0.476,0.871,0.785
		c0.866,1.168,0.664,1.765-0.701,2.258c-2.93,1.062-5.959,1.035-8.994,0.779c-1.065-0.091-1.93-0.804-2.684-1.47
		c-0.769-0.678-1.283-0.649-2.031-0.047c-3.312,2.676-7.228,3.123-11.287,2.898c-0.528-0.027-1.09-0.293-1.545-0.586
		c-0.905-0.58-0.95-1.719,0.023-2.053c2.137-0.734,2.781-2.521,3.393-4.324c1.548-4.562,2.307-9.25,1.947-14.089
		c-0.457-6.122-0.908-12.243-2.23-18.263c-0.497-2.263-1.092-4.506-1.958-6.646c-1.114-2.748-3.095-4.924-5.669-6.267
		c-2.355-1.227-4.866-0.666-6.955,0.939c-3.157,2.43-5.007,5.709-5.87,9.586C185.901,190.801,185.799,193.582,185.757,196.371z
		 M190.33,226.762c-1.309-1.439-1.835-3.123-2.54-4.725c-1.207-2.742-1.292-5.746-2.076-8.58c-2.066-7.469-2.53-15.068-2.14-22.764
		c0.307-6.059,2.925-10.87,7.912-14.271c1.954-1.332,4.142-2.373,6.704-1.82c4.497,0.971,7.104,3.963,8.59,8.082
		c0.265,0.73,0.433,1.512,0.748,2.242c1.526,3.539,2.032,7.367,2.514,11.102c0.298,2.317,0.765,4.679,0.763,7.072
		c-0.001,1.18-0.16,2.396,0.033,3.562c0.836,5.034,0.108,9.971-0.827,14.899c-0.393,2.062-1.321,3.953-2.102,5.941
		c2.764,0.156,5.717-1.369,7.668-3.846c1.236-1.572,2.178-1.652,3.191-0.039c1.941,3.088,5.146,3.615,9.157,2.381
		c-1.609-1.799-2.666-3.588-3.082-5.686c-0.435-2.185-0.761-4.394-1.05-6.603c-0.61-4.681-0.459-9.399-0.682-14.103
		c-0.246-5.188-0.384-10.388-1.734-15.418c-1.238-4.614-2.85-9.131-4.17-13.727c-0.498-1.73-1.34-3.234-2.284-4.713
		c-0.57-0.893-1.318-1.623-2.371-1.922c-2.22-0.633-4.42-1.271-6.788-1.211c-3.114,0.078-6.232-0.027-9.35-0.047
		c-5.396-0.035-10.444-1.426-14.988-4.285c-3.112-1.957-6.407-3.141-10.005-3.701c-3.15-0.492-6.241-0.689-9.601,0.74
		c1.121,0.803,2.021,1.424,2.895,2.082c1.207,0.906,2.363,1.82,3.317,3.062c3.668,4.778,4.849,10.37,5.332,16.141
		c0.324,3.863,0.193,7.766,0.311,11.646c0.097,3.183-0.113,6.349-0.257,9.521c-0.191,4.216-0.184,8.442-0.595,12.646
		c-0.579,5.906-2.036,11.567-5.163,16.703c-0.11,0.183-0.098,0.438-0.174,0.813c4.233-0.248,7.755-1.858,10.7-4.727
		c1.69-1.646,2.125-1.741,3.445,0.128c1.271,1.8,3.12,2.728,4.995,3.567C187.65,227.377,188.887,227.777,190.33,226.762z"/>
	<path id="contact-lettres-c2" fill="#1D7056" stroke="#1D7056" stroke-miterlimit="10" d="M392.079,193.49
		c-1.106-0.371-1.229-1.365-1.644-2.092c-1.477-2.588-3.266-4.92-5.729-6.601c-3.727-2.534-9.828-2.014-13.452,0.74
		c-2.269,1.726-3.758,3.838-4.642,6.485c-0.9,2.715-1.939,5.392-1.932,8.312c0.012,2.945,1.098,5.336,3.229,7.438
		c6.2,6.108,13.214,5.776,20.587,2.812c3.145-1.268,5.98-3.002,7.768-6.049c0.324-0.559,0.623-1.201,1.424-1.01
		c0.877,0.215,0.922,0.994,1.021,1.715c0.456,3.413-0.219,6.648-1.398,9.85c-2.617,7.104-7.942,11.234-14.765,13.871
		c-3.554,1.373-7.243,2.031-10.985,2.037c-2.764,0.002-5.435-0.721-7.961-2.146c-4.68-2.637-8.431-6.318-11.69-10.407
		c-4.181-5.237-5.772-11.567-6.774-18.146c-0.746-4.905,0.633-9.266,2.221-13.672c2.404-6.674,6.477-12.237,11.883-16.754
		c2.438-2.035,5.306-3.556,8.281-4.711c1.465-0.569,2.865-1.276,4.446-1.649c4.517-1.062,8.179,0.43,11.806,2.979
		c2.906,2.043,5.319,4.545,7.636,7.135c3.214,3.598,4.798,7.812,3.646,12.721C394.451,188.896,393.947,191.502,392.079,193.49z
		 M392.322,188.832c1.205-3.707,1.729-6.968,0.171-10.115c-2.152-4.354-5.607-7.641-9.368-10.654
		c-3.396-2.721-7.361-3.186-11.244-2.293c-4.005,0.92-7.714,2.834-11.027,5.498c-6.312,5.074-10.362,11.592-12.826,19.18
		c-1.594,4.906-1.27,9.888-0.204,14.854c0.604,2.82,1.646,5.486,3.047,7.986c1.967,3.51,4.672,6.473,7.461,9.326
		c3.826,3.92,8.36,6.346,14.022,6.031c1.994-0.109,3.994-0.232,5.969-0.511c3.025-0.42,5.894-1.295,8.471-3.062
		c4.382-3.008,8.15-6.465,9.398-11.909c0.434-1.886,1.123-3.754,0.81-6.06c-2.076,1.892-4.094,3.373-6.356,4.504
		c-3.916,1.957-8.146,2.734-12.426,3.189c-1.869,0.199-3.832,0.08-5.621-0.779c-1.431-0.688-2.947-1.246-4.266-2.106
		c-1.719-1.123-3.506-2.269-4.43-4.238c-1.809-3.854-1.842-7.825-0.823-11.899c0.764-3.06,1.995-5.909,3.753-8.486
		c2.3-3.379,5.184-5.908,9.533-6.451c3.764-0.473,7.023,0.75,10.188,2.414C388.802,184.43,390.646,186.174,392.322,188.832z"/>
	<path id="contact-lettres-a-exterieur" fill="#1D7056" stroke="#1D7056" stroke-miterlimit="10" d="M308.84,168.561
		c2.447,0.146,4.915-0.621,7.357,0.014c2.849,0.74,5.498,1.716,7.736,3.845c1.557,1.479,3.043,2.989,4.527,4.533
		c2.007,2.086,2.439,4.547,2.655,7.188c0.291,3.562,0.166,7.131,0.299,10.691c0.172,4.607,0.133,9.23,0.664,13.832
		c0.235,2.047,0.039,4.121,0.312,6.195c0.601,4.562,2.017,8.801,4.422,12.703c1.164,1.891,2.095,3.94,3.861,5.424
		c0.904,0.759,0.605,1.572-0.266,2.162c-1.258,0.853-2.584,1.621-4.141,1.716c-1.672,0.104-3.354,0.161-5.025,0.101
		c-2.115-0.079-3.938-0.808-5.668-2.188c-2.135-1.703-4.061-3.598-6-5.488c-1.002-0.979-1.537-2.223-1.947-3.527
		c-0.217-0.682-0.438-1.363-0.635-2.053c-0.256-0.896-0.762-0.896-1.426-0.432c-1.438,1.014-2.851,2.061-4.32,3.018
		c-5.562,3.627-11.4,4.203-17.52,1.504c-0.361-0.16-0.732-0.311-1.111-0.424c-5.031-1.531-8.295-5.102-10.77-9.496
		c-1.722-3.062-2.98-6.348-4.183-9.64c-0.722-1.974-0.278-4.093-0.302-6.123c-0.055-4.858,0.8-9.636,1.938-14.368
		c0.828-3.436,2.999-6.023,5.188-8.492c5.254-5.933,11.998-9.375,19.799-10.664C305.771,168.352,307.324,168.561,308.84,168.561z
		 M338.302,233.537c-0.229-0.904-0.868-1.521-1.405-2.207c-4.099-5.23-6.354-11.264-6.894-17.789
		c-0.513-6.186-0.416-12.418-0.612-18.629c-0.138-4.363-0.158-8.732-0.998-13.055c-0.494-2.533-1.627-4.715-3.67-6.203
		c-1.464-1.064-3.16-1.84-4.646-2.916c-1.328-0.963-2.856-1.297-4.438-1.497c-0.631-0.079-1.259-0.194-1.893-0.263
		c-3.661-0.396-7.32-0.689-10.963,0.16c-4.479,1.043-8.489,3.133-12.264,5.666c-3.416,2.297-6.438,4.989-7.453,9.271
		c-0.125,0.529-0.545,0.98-0.729,1.504c-2.021,5.664-3.884,11.354-2.123,17.48c0.239,0.84,0.354,1.715,0.519,2.575
		c0.578,3.087,1.599,6.027,3.373,8.613c2.556,3.717,5.771,6.81,9.463,9.407c1.412,0.994,2.923,1.537,4.705,1.39
		c1.433-0.121,2.863-0.323,4.283-0.379c5.646-0.226,9.943-3.006,13.707-6.894c0.389-0.399,0.66-1.063,1.293-0.83
		c0.709,0.265,0.978,0.879,0.963,1.718c-0.045,2.891,0.863,5.452,2.785,7.657c2.834,3.252,6.4,5.154,10.598,6.004
		C334.128,234.777,336.314,235.124,338.302,233.537z"/>
	<path id="contact-lettres-o-exterieur" fill="#1D7056" stroke="#1D7056" stroke-miterlimit="10" d="M127.263,159.086
		c2.58,0.455,5.419-0.025,8.132,0.9c1.588,0.541,3.086,1.346,4.53,2.087c2.933,1.509,6.062,2.644,8.62,5.013
		c1.756,1.627,3.238,3.471,4.934,5.125c1.037,1.014,1.456,2.514,1.776,3.879c1.213,5.18,2.797,10.32,2.465,15.73
		c-0.333,5.447-0.7,10.906-3.077,15.959c-2.229,4.734-5.297,8.854-9.313,12.227c-2.251,1.893-4.469,3.814-6.899,5.502
		c-1.839,1.275-3.926,1.707-5.951,2.354c-5.015,1.604-10.082,2.201-15.303,0.812c-1.684-0.445-3.369-0.912-5.05-1.375
		c-3.354-0.924-6.23-2.959-8.154-5.605c-2.453-3.377-4.362-7.198-5.585-11.305c-1.973-6.625-2.089-13.252-1.017-20.065
		c0.726-4.609,1.649-9.104,3.758-13.246c3.03-5.951,6.66-11.397,12.816-14.726C118.519,159.881,121.226,159.041,127.263,159.086z
		 M124.396,227.094c6.018,0.305,11.299-1.543,15.998-5.271c2.008-1.593,3.997-3.218,5.738-5.072c2.721-2.905,5.352-5.931,6.72-9.774
		c1.444-4.058,2.335-8.242,2.895-12.519c0.515-3.937,0.407-7.789-0.837-11.584c-0.122-0.371-0.076-0.795-0.169-1.183
		c-1.242-5.114-3.146-9.812-7.852-12.832c-1.341-0.86-2.771-1.567-4.089-2.442c-3.777-2.513-7.781-4.129-12.384-4.623
		c-5.877-0.629-11.213,0.646-16.382,3.24c-2.078,1.041-3.337,2.915-4.855,4.524c-1.578,1.674-3.101,3.385-4.197,5.459
		c-0.662,1.252-1.265,2.529-1.927,3.777c-1.693,3.191-3.055,6.562-3.495,10.098c-0.874,7.036-1.442,14.098,0.827,21.068
		c1.315,4.041,3.569,7.408,6.327,10.539c1.471,1.67,3.386,2.582,5.336,3.506C115.971,225.865,119.952,227.426,124.396,227.094z"/>
	<path id="contact-lettres-t2-fill" fill="#1D7056" d="M496.642,102.795c-1.07,3.726-1.39,7.811-5.367,10.047
		c-0.271,0.152-0.475,0.425-0.717,0.632c-1.28,1.097-1.298,1.829,0.057,2.741c1.522,1.026,2.874,2.232,4.174,3.525
		c1.564,1.561,2.141,3.477,2.24,5.59c0.041,0.861-0.432,1.102-1.207,0.57c-1.636-1.117-3.043-2.553-5.042-3.129
		c-4.268-1.229-8.396-2.814-12.979-2.876c-3.036-0.041-6.005,0.251-9.007,0.45c-3.329,0.221-6.679,0.228-10.019,0.227
		c-4.644-0.002-9.204,0.703-13.759,1.467c-3.593,0.604-6.676,2.449-9.738,4.291c-1.416,0.854-2.115,2.221-2.099,3.812
		c0.075,6-1.124,11.908-1.164,17.9c-0.031,4.857-0.256,9.713-0.447,14.566c-0.063,1.67-0.237,3.342-0.459,4.998
		c-0.439,3.334-0.032,6.67-0.104,10c-0.14,6.311,0.843,12.569,0.687,18.877c-0.09,3.521,0.812,6.959,1.078,10.455
		c0.036,0.479,0.188,0.951,0.184,1.425c-0.078,7.04,2.316,13.425,5.171,19.694c0.809,1.774,1.604,3.551,3.416,5.018
		c-1.607,0.424-2.846,0.102-4.059-0.031c-1.349-0.146-2.682-0.426-4.019-0.656c-2.3-0.4-4.812-3.378-5.101-6.033
		c-0.103-0.938-1.006-2.065-1.769-2.067c-0.915,0-1.438,0.545-1.631,1.438c-0.232,1.073-0.986,1.717-1.787,2.436
		c-1.191,1.066-2.452,2.047-3.812,2.829c-3.637,2.104-4.467,2.146-9.471,1.157c0.42-0.949,1.326-1.396,1.984-2.027
		c2.664-2.551,4.434-5.625,5.378-9.143c0.785-2.914,1.413-5.875,1.858-8.869c0.548-3.65,0.26-7.322,0.385-10.982
		c0.109-3.33-0.094-6.668,0.354-9.998c0.211-1.562,0.147-3.189-0.019-4.768c-0.229-2.174,0.263-4.277,0.329-6.416
		c0.066-2.215-0.146-4.438-0.137-6.656c0.021-4.064-0.293-8.143,0.312-12.193c0.212-1.426,0.018-2.867-0.035-4.272
		c-0.281-7.648,0.256-15.285,0.178-22.931c-0.037-3.51-1.406-6.588-3.219-9.35c-1.287-1.965-3.668-2.996-5.88-3.98
		c-6.76-3.008-13.919-3.252-21.103-2.842c-5.398,0.308-10.825,0.747-16.125,1.903c-2.375,0.518-4.826,0.91-7.037,2.141
		c-2.317,1.287-5.066,1.521-7.479,2.863c0.721-2.879,2.021-5.319,4.293-7.172c0.797-0.651,1.586-1.36,2.49-1.82
		c0.723-0.367,0.907-0.922,0.88-1.526c-0.026-0.62-0.663-0.935-1.188-1.056c-4.858-1.133-6.087-5.551-8.528-8.834
		c0.529-0.567,0.857-0.389,1.113-0.258c3.494,1.797,7.361,1.929,11.123,2.516c6.72,1.049,13.496,1.249,20.277,1.445
		c5.336,0.156,10.668,0.554,16.004,0.627c3.648,0.051,7.321-0.098,10.948-0.489c2.244-0.243,4.526-0.427,6.679-0.126
		c3.92,0.548,7.812,0.117,11.705,0.212c8.206,0.198,16.418,0.214,24.629,0.181c6.361-0.025,12.715-0.503,19.082-0.57
		c3.898-0.041,7.728-0.914,11.443-2.127c1.604-0.522,3.047-1.373,4.363-2.424C495.399,102.853,495.771,102.407,496.642,102.795z
		 M426.007,166.773c1.103,0.043,2.478-0.972,2.444-1.808c-0.032-0.854-1.019-1.801-1.866-1.797c-1.12,0.004-2.123,0.783-2.216,1.722
		C424.267,165.926,424.97,166.732,426.007,166.773z M380.371,115.076c0.879,0.039,1.842,0.182,1.844-1.147
		c0.002-1.235-0.982-2.073-2.383-2.077c-1.027-0.003-1.812,0.628-1.812,1.454C378.025,114.267,379.061,115.047,380.371,115.076z
		 M425.9,205.984c1.104,0.018,2.224-0.848,2.189-1.691c-0.031-0.867-1.188-2.109-1.96-2.104c-1.114,0.006-2.121,1.035-2.091,2.136
		C424.069,205.375,424.733,205.967,425.9,205.984z M426.979,114.851c-1.201,0.063-2.684,1.507-2.51,2.323
		c0.184,0.855,0.747,1.355,1.664,1.356c1.178,0.002,2.45-1.196,2.266-2.253C428.253,115.453,427.599,115.006,426.979,114.851z
		 M427.598,216.205c-0.01-0.816-1.206-2.113-1.936-2.098c-0.903,0.021-1.729,1.098-1.696,2.211c0.025,0.979,0.624,1.518,1.699,1.527
		C426.738,217.857,427.608,217.119,427.598,216.205z M426.201,179.451c1.19,0.021,2.206-0.602,2.257-1.344
		c0.048-0.719-0.975-1.979-1.643-2.025c-1.229-0.084-1.979,0.707-2.021,2.045C424.762,179.195,425.34,179.5,426.201,179.451z
		 M423.935,190.959c0.024,0.965,0.858,1.812,1.804,1.83c1.086,0.021,2.001-0.746,1.935-1.621c-0.064-0.854-1.095-1.973-1.794-1.945
		C424.968,189.254,423.915,190.195,423.935,190.959z M445.973,115.9c0.016-0.684-1.383-2.081-2.046-2.046
		c-0.785,0.041-1.786,1.063-1.862,1.905c-0.081,0.893,0.604,1.664,1.546,1.736C444.572,117.571,445.957,116.637,445.973,115.9z
		 M479.321,113.293c-1.474-0.015-2.608,0.836-2.506,1.901c0.107,1.11,1.125,1.021,1.804,1.146c1.062,0.195,2.127-0.577,2.162-1.336
		C480.831,113.998,480.238,113.304,479.321,113.293z M426.609,153.449c0.933-0.055,2.061-1,1.988-1.664
		c-0.083-0.796-1.191-1.957-1.8-1.883c-1.02,0.123-1.913,0.94-1.896,1.729C424.924,152.771,425.617,153.508,426.609,153.449z
		 M456.489,113.375c-0.968-0.014-1.475,0.576-1.478,1.717c-0.003,1.088,0.684,1.856,1.693,1.902
		c0.841,0.038,1.612-0.718,1.683-1.642C458.465,114.306,457.584,113.388,456.489,113.375z M428.256,140.791
		c0.021-0.764-0.793-1.93-1.396-2c-0.921-0.109-2.13,0.891-2.146,1.771c-0.021,1.22,0.547,1.896,1.607,1.914
		C427.348,142.494,428.232,141.725,428.256,140.791z M428.332,129.064c-0.07-0.834-1.013-1.638-1.804-1.539
		c-1.07,0.133-2.149,1.113-2.048,1.966c0.109,0.911,0.676,1.374,1.636,1.315C427.31,130.734,428.401,129.893,428.332,129.064z
		 M370.07,119.151c1.148-0.009,1.937-0.575,1.875-1.351c-0.071-0.94-1.284-1.938-2.4-1.93c-1.056,0.008-1.297,0.786-1.35,1.613
		C368.136,118.47,368.959,119.16,370.07,119.151z M402.141,114.533c-0.002-1.056-1.082-2.099-2.025-2.103
		c-0.771-0.003-1.75,0.842-1.812,1.567c-0.066,0.785,0.936,1.605,2.037,1.578C401.152,115.558,401.881,115.297,402.141,114.533z
		 M412.148,113.308c-0.772-0.06-1.369,0.303-1.383,1.321c-0.014,1.125,1.059,2.281,2.062,2.158c0.879-0.106,1.439-0.567,1.393-1.574
		C414.156,113.983,413.496,113.295,412.148,113.308z M369.967,111.502c0.609-0.096,1.414-0.138,1.615-0.996
		c0.189-0.816-1.027-1.992-1.973-2.008c-0.99-0.018-1.774,0.643-1.791,1.504C367.807,110.943,368.561,111.5,369.967,111.502z
		 M419.729,223.766c-0.688,0.074-1.891,1.312-1.871,1.924c0.021,0.754,1.184,1.771,1.983,1.742c0.771-0.029,1.522-1.012,1.431-1.865
		C421.15,224.489,420.46,223.684,419.729,223.766z M390.199,115.539c1.046,0.035,2.357-0.836,2.351-1.444
		c-0.011-0.729-0.938-1.733-1.632-1.771c-0.975-0.05-1.891,0.728-1.938,1.668C388.934,114.949,389.436,115.44,390.199,115.539z
		 M468.606,116.062c1.229,0.006,1.993-0.577,2.008-1.537c0.018-1.035-0.629-1.363-1.525-1.398c-1.169-0.043-2.321,0.787-2.201,1.688
		C467.01,115.742,467.707,116.094,468.606,116.062z M434.859,226.6c-0.083-1.098-1.203-2.414-2.043-2.301
		c-0.807,0.107-1.245,0.553-1.111,1.482c0.188,1.328,0.979,2.092,2.228,1.928C434.528,227.631,434.994,227.34,434.859,226.6z
		 M491.417,119.771c-0.062-0.895-1.089-1.785-1.966-1.682c-0.907,0.105-1.187,0.676-1.074,1.516
		c0.121,0.924,0.856,1.489,1.861,1.381C490.953,120.912,491.431,120.568,491.417,119.771z M490.332,110.149
		c-0.028-0.885-0.812-1.649-1.569-1.614c-0.768,0.035-1.772,1.092-1.62,1.773c0.197,0.883,0.957,1.07,1.686,1.003
		C489.533,111.246,490.233,110.965,490.332,110.149z"/>
	<path id="contact-lettres-c2-fill" fill="#1D7056" d="M392.021,189.116c-1.676-2.657-3.521-4.401-5.771-5.587
		c-3.163-1.662-6.428-2.883-10.188-2.413c-4.353,0.544-7.233,3.073-9.535,6.45c-1.756,2.58-2.988,5.432-3.75,8.488
		c-1.02,4.073-0.984,8.047,0.822,11.901c0.924,1.971,2.711,3.114,4.428,4.237c1.316,0.861,2.834,1.418,4.267,2.105
		c1.789,0.859,3.752,0.979,5.622,0.779c4.275-0.455,8.51-1.23,12.426-3.188c2.266-1.133,4.28-2.615,6.354-4.506
		c0.316,2.307-0.375,4.176-0.807,6.059c-1.248,5.447-5.02,8.904-9.4,11.91c-2.575,1.771-5.441,2.644-8.469,3.062
		c-1.976,0.273-3.976,0.396-5.969,0.508c-5.662,0.312-10.197-2.109-14.021-6.027c-2.789-2.856-5.496-5.819-7.461-9.33
		c-1.4-2.5-2.443-5.166-3.049-7.985c-1.062-4.97-1.389-9.944,0.205-14.854c2.461-7.586,6.514-14.104,12.826-19.18
		c3.312-2.662,7.021-4.576,11.027-5.498c3.883-0.891,7.85-0.428,11.242,2.294c3.763,3.015,7.218,6.302,9.367,10.655
		C393.748,182.148,393.229,185.408,392.021,189.116z M358.16,209.967c-0.033-1.385-1.33-2.73-2.543-2.644
		c-0.986,0.071-2.213,1.661-2.146,2.782c0.062,1.045,1.566,2.221,2.781,2.168C357.359,212.23,358.189,211.225,358.16,209.967z
		 M370.863,173.92c-0.006,1.518,0.785,2.586,1.879,2.545c1.189-0.047,2.701-1.445,2.744-2.543c0.053-1.279-1.457-2.545-2.959-2.482
		C371.59,171.479,370.867,172.555,370.863,173.92z M380.617,221.494c0.031-1.094-1.335-2.354-2.541-2.348
		c-1.09,0.006-2.145,1.34-2.123,2.686c0.016,1.105,0.959,1.996,2.18,2.057C379.17,223.936,380.586,222.57,380.617,221.494z
		 M355.794,197.43c0.021-0.445-0.153-0.99-0.46-1.449c-0.465-0.694-0.786-1.68-1.896-1.522c-0.881,0.123-1.853,1.553-1.877,2.519
		c-0.021,0.707,0.502,1.146,0.76,1.709c0.355,0.771,1.02,1.321,1.91,1.022C355.195,199.383,355.826,198.68,355.794,197.43z
		 M364.759,216.986c-1.104-0.021-2.114,1.158-2.093,2.438c0.018,1.121,0.973,2.011,2.189,2.043c0.979,0.027,2.449-1.014,2.519-1.776
		C367.459,218.695,365.827,217.008,364.759,216.986z M365.936,178.965c0.155-1.631-0.348-2.18-2.148-2.346
		c-1.406-0.13-2.176,0.518-2.352,1.98c-0.14,1.166,0.629,1.998,1.939,2.104C364.932,180.826,365.816,180.227,365.936,178.965z
		 M386.74,177.027c0.021-1.457-1.051-2.766-2.321-2.834c-0.84-0.045-1.867,1.051-1.938,2.061c-0.078,1.186,1.543,2.482,3.043,2.455
		C386.688,178.688,386.639,177.809,386.74,177.027z M356.068,189.273c0.928-0.039,1.82-1.162,1.762-2.211
		c-0.062-1.144-0.904-1.986-1.965-1.978c-1.317,0.013-2.266,0.996-2.194,2.285C353.719,188.32,354.982,189.322,356.068,189.273z
		 M386.548,217.207c-0.104,1.352,0.159,1.676,1.452,1.793c1.098,0.104,2.395-0.953,2.466-2.004c0.062-0.914-1.092-1.988-2.217-2.062
		S386.686,215.443,386.548,217.207z"/>
	<path id="contact-lettres-a-fill" fill="#1D7056" d="M338,233.82c-1.984,1.588-4.174,1.24-6.402,0.789
		c-4.193-0.851-7.764-2.752-10.596-6.004c-1.922-2.205-2.83-4.771-2.786-7.658c0.013-0.838-0.254-1.453-0.962-1.717
		c-0.633-0.234-0.906,0.43-1.293,0.83c-3.764,3.887-8.062,6.668-13.707,6.893c-1.422,0.055-2.854,0.258-4.284,0.379
		c-1.782,0.148-3.292-0.395-4.706-1.391c-3.688-2.599-6.906-5.689-9.461-9.406c-1.777-2.587-2.795-5.527-3.373-8.613
		c-0.162-0.859-0.277-1.734-0.52-2.574c-1.762-6.133,0.104-11.816,2.123-17.481c0.188-0.521,0.605-0.974,0.73-1.503
		c1.018-4.278,4.036-6.977,7.453-9.271c3.771-2.533,7.784-4.623,12.262-5.668c3.645-0.85,7.305-0.558,10.965-0.158
		c0.633,0.066,1.262,0.183,1.893,0.262c1.58,0.201,3.111,0.535,4.438,1.498c1.484,1.076,3.184,1.853,4.646,2.916
		c2.043,1.484,3.176,3.668,3.669,6.203c0.841,4.318,0.861,8.688,0.999,13.055c0.196,6.211,0.1,12.443,0.612,18.628
		c0.538,6.526,2.795,12.56,6.893,17.789C337.132,232.299,337.771,232.916,338,233.82z M288.718,203.143
		c-0.06,1.865-0.032,3.732,1.062,5.32c1.675,2.424,3.396,4.787,6.645,5.354c0.926,0.162,1.878,0.349,2.792,0.615
		c4.663,1.371,9.563-1.225,12.427-4.646c1.321-1.582,2.074-3.453,2.678-5.291c1.52-4.644,2.672-9.218-0.623-13.899
		c-2.012-2.859-4.215-5.087-7.352-6.503c-5.008-2.262-8.972-0.698-12.062,3.509c-0.802,1.09-1.466,2.285-2.136,3.465
		C290.021,194.812,288.945,198.861,288.718,203.143z M321.324,205.654c1.224,0.027,2.398-1.031,2.388-2.146
		c-0.015-0.982-1.177-2.127-2.16-2.123c-1.407,0.006-2.175,0.85-2.269,2.5C319.223,204.938,320.016,205.627,321.324,205.654z
		 M316.412,179.131c-1.172-0.033-2.201,1.043-2.207,2.307c-0.006,1.043,0.99,1.894,2.281,1.945c1.156,0.049,2.191-0.865,2.244-1.98
		C318.781,180.346,317.572,179.164,316.412,179.131z M320.354,194.408c1.572-0.061,2.562-0.934,2.485-2.199
		c-0.067-1.188-0.989-1.98-2.214-1.912c-1.057,0.062-2.182,1.344-2.125,2.416C318.552,193.664,319.404,194.443,320.354,194.408z
		 M327.205,226.736c-1.51-0.035-1.896,0.277-1.938,1.559c-0.041,1.326,0.604,1.92,2.088,1.928c1.435,0.006,2.377-0.68,2.386-1.731
		C329.752,227.393,328.855,226.773,327.205,226.736z M313.193,215.789c0.062-1.18-0.785-2.064-2.051-2.15
		c-1.015-0.068-2.152,1.037-2.144,2.086c0.009,0.926,0.853,1.783,1.828,1.861C312.029,217.682,313.139,216.838,313.193,215.789z
		 M300.711,219.955c0-1.336-0.868-2.131-2.301-2.104c-0.855,0.015-1.86,0.979-1.902,1.828c-0.055,1.119,1.09,2.096,2.451,2.088
		C300.014,221.758,300.709,221.037,300.711,219.955z M292.973,183.561c1.324-0.008,2.197-0.815,2.156-1.996
		c-0.033-0.95-0.857-1.653-1.949-1.66c-1.197-0.008-2.025,0.777-1.975,1.869C291.257,182.881,291.936,183.564,292.973,183.561z
		 M307.262,177.049c0.064-1.195-0.812-2.119-2.023-2.127c-1.127-0.008-2.006,0.75-2.09,1.803c-0.094,1.178,0.744,2.051,2.015,2.098
		C306.293,178.863,307.205,178.094,307.262,177.049z M285.294,202.758c0.038-1.014-0.571-1.84-1.374-1.857
		c-1.137-0.026-2.29,0.939-2.311,1.938c-0.024,1.242,0.695,2.189,1.658,2.186C284.175,205.018,285.252,203.811,285.294,202.758z
		 M326.177,216.914c-0.017-1.32-0.8-2.109-2.06-2.078c-1.033,0.025-1.812,0.971-1.742,2.109c0.059,0.955,0.916,1.797,1.854,1.82
		C325.467,218.799,326.191,218.107,326.177,216.914z M288.378,217.643c1.173,0.041,2.097-0.654,2.2-1.66
		c0.104-0.991-1.027-2.11-2.109-2.092c-0.865,0.017-1.6,0.865-1.682,1.953C286.695,217.068,287.16,217.598,288.378,217.643z
		 M286.061,192.723c1.019,0.004,1.687-0.604,1.698-1.547c0.017-1.012-0.731-1.812-1.731-1.861c-0.852-0.041-1.438,0.644-1.479,1.726
		C284.503,192.066,285.09,192.717,286.061,192.723z"/>
	<path id="contact-lettres-t1-fill" fill="#1D7056" d="M189.674,123.336c1.959-3.5,3.767-7.112,7.273-9.473
		c1.205-0.811,1.194-0.824,1.422-2.754c-4.976,0.014-7.036-3.719-9.118-7.316c-0.475-0.821-1.105-1.738-1.067-3.088
		c2.246,0.98,4.325,1.877,6.497,2.559c4.449,1.394,9.037,2.054,13.627,2.478c5.236,0.483,10.502,0.751,15.756,0.993
		c4.118,0.189,8.262-0.203,12.395-0.273c4.709-0.08,9.419-0.111,14.128-0.125c6.62-0.021,13.222-0.52,19.829-0.816
		c6.389-0.287,12.779-0.084,19.168-0.121c8-0.045,15.949-0.497,23.576-3.258c2.174-0.787,4.16-1.965,6.188-3.085
		c0.729,0.733,0.146,1.409,0.01,2.019c-0.553,2.51-1.471,4.893-2.989,6.984c-1.162,1.597-2.466,2.91-4.787,2.23
		c-1.021-0.298-1.709,0.342-1.813,1.305c-0.146,1.337,0.375,2.254,1.582,2.044c2.094-0.365,3.53,0.683,4.906,1.817
		c2.674,2.205,4.344,4.944,3.86,8.731c-1.875-0.646-3.689-1.221-5.468-1.896c-4.744-1.811-9.729-2.467-14.713-3.127
		c-6.881-0.916-13.815-0.863-20.733-0.891c-3.729-0.016-7.461,0.575-11.069,1.665c-1.677,0.506-2.929,1.708-3.976,2.957
		c-2.74,3.27-4.978,6.901-5.539,11.215c-0.339,2.592-0.371,5.26-0.041,7.879c0.399,3.188,0.187,6.361,0.093,9.551
		c-0.068,2.367,0.229,4.743,0.303,7.117c0.211,6.93,0.271,13.865,0.625,20.787c0.272,5.336,0.473,10.684,0.721,16.014
		c0.271,5.865,1,11.707,0.981,17.602c-0.008,2.652,0.507,5.35,1.593,7.924c2.17,5.142,4.733,9.938,9.254,13.435
		c0.162,0.125,0.205,0.401,0.391,0.791c-4.33,0.504-8.229,0-12.035-2.207c-3.75-2.176-5.916-5.444-7.741-9.123
		c-0.142-0.285-0.272-0.58-0.368-0.885c-0.283-0.89-0.896-1.259-1.809-1.242c-0.805,0.013-1.223,0.365-1.607,1.116
		c-2.094,4.093-5.482,6.982-9.207,9.494c-2.484,1.677-5.471,1.924-8.482,2.841c0.18-1.218,1.021-1.644,1.488-2.3
		c3.581-5.012,6.756-10.229,8.961-16.028c1.338-3.524,2.234-7.146,2.871-10.819c0.309-1.781,0.256-3.646,0.387-5.47
		c0.521-7.228,0.694-14.47,0.778-21.709c0.058-5.021-0.649-10.021-0.62-15.045c0.02-3.488-0.223-6.974,0.398-10.451
		c0.408-2.282,0.229-4.642-0.061-6.912c-0.346-2.709-0.412-5.418-0.328-8.106c0.074-2.344-0.215-4.613-0.676-6.853
		c-1.068-5.178-4.005-8.896-8.986-10.952c-3.965-1.638-8.094-2.23-12.338-2.474c-6.234-0.356-12.4,0.25-18.549,1.09
		c-4.203,0.576-8.25,1.797-12.146,3.49c-0.799,0.346-1.595,0.704-2.392,1.057C189.939,123.588,189.807,123.461,189.674,123.336z
		 M236.102,114.939c0.96-0.007,2.03-1.337,2.057-2.557c0.023-1.092-0.658-1.811-1.738-1.829c-1.441-0.025-2.956,1.075-3.02,2.192
		C233.341,113.754,234.813,114.949,236.102,114.939z M275.105,114.944c1.283-0.024,2.557-0.845,2.606-1.679
		c0.063-1.02-1.446-2.317-2.624-2.256c-1.32,0.068-2.245,0.895-2.248,2.008C272.838,114.164,273.787,114.972,275.105,114.944z
		 M249.551,203.285c-0.035,0.846,0.686,1.331,2.109,1.426c1.451,0.096,2.561-0.646,2.65-1.775c0.084-1.012-1.17-2.668-2.002-2.646
		C251.305,200.311,249.596,202.168,249.551,203.285z M224.314,110.752c-1.046-0.023-2.408,1.177-2.437,2.146
		c-0.032,1.104,0.915,2.079,2.094,2.153c1.194,0.076,2.379-0.944,2.431-2.094C226.443,112.066,225.217,110.771,224.314,110.752z
		 M286.753,115.154c1.584-0.02,1.946-0.334,1.974-1.713c0.027-1.41-0.849-2.378-2.125-2.35c-1.145,0.024-2.354,1.177-2.375,2.258
		C284.203,114.619,284.986,115.176,286.753,115.154z M252.044,192.922c1.418,0.014,2.302-0.729,2.245-1.883
		c-0.043-0.943-1.131-2.109-1.969-2.113c-1.07-0.006-2.463,1.184-2.515,2.146C249.742,192.258,250.527,192.907,252.044,192.922z
		 M253.953,141.412c0.035-1.046-0.928-1.996-2.148-2.123c-0.848-0.086-1.871,1.258-1.955,2.57c-0.062,0.967,0.748,1.818,1.748,1.84
		C252.58,143.721,253.921,142.418,253.953,141.412z M254.791,179.186c-0.041-0.983-1.189-2.02-2.271-2.047
		c-1.036-0.024-2.339,1.221-2.372,2.268c-0.029,0.978,1.033,1.742,2.417,1.738C253.83,181.141,254.836,180.256,254.791,179.186z
		 M250.777,112.283c-1.104-0.009-2.05,1.1-2.024,2.372c0.021,1.107,0.831,1.685,2.372,1.696c1.089,0.007,1.861-0.773,1.916-1.938
		C253.1,113.174,252.166,112.295,250.777,112.283z M252.314,154.805c1.453,0.043,2.277-0.582,2.314-1.756
		c0.036-1.15-1.093-2.285-2.268-2.279c-0.903,0.006-2,1.195-2.085,2.269C250.193,154.064,250.998,154.764,252.314,154.805z
		 M213.138,114.18c1.106-0.014,1.994-0.922,1.933-1.98c-0.068-1.203-0.996-2.261-2.021-2.306c-1.171-0.052-2.139,0.995-2.172,2.353
		C210.854,113.135,212.09,114.191,213.138,114.18z M251.621,211.84c-1.114,0.123-3.008,2.188-2.844,3.1
		c0.145,0.804,1.028,1.332,2.018,1.205c1.285-0.164,2.441-1.377,2.378-2.494C253.125,212.797,252.244,211.771,251.621,211.84z
		 M263.543,225.938c-0.021-0.858-1.426-2.139-2.256-2.055c-1.037,0.104-2.117,1.285-2.061,2.248
		c0.031,0.539,1.504,2.135,1.959,2.123C261.964,228.236,263.562,226.664,263.543,225.938z M199.688,107.291
		c0.028-0.92-0.826-1.734-1.852-1.767c-1.161-0.036-2.805,1.255-2.758,2.164c0.043,0.826,1.021,1.604,2.062,1.644
		C198.318,109.373,199.658,108.299,199.688,107.291z M299.521,112.856c-0.039-1.194-0.69-1.867-1.75-1.799
		c-1.16,0.075-2.502,1.297-2.469,2.249c0.029,0.835,0.996,1.557,2.107,1.574C298.645,114.899,299.557,114.023,299.521,112.856z
		 M252.969,168.723c0.947,0.045,1.838-0.74,1.895-1.676c0.061-0.967-0.971-2.293-1.875-2.42c-0.87-0.123-2.272,1.357-2.239,2.361
		C250.777,167.816,251.869,168.668,252.969,168.723z M253.466,127.709c0.03-0.926-0.188-1.521-0.737-1.904
		c-0.678-0.475-1.199,0.111-1.692,0.428c-0.375,0.242-0.696,0.644-0.914,1.043c-0.574,1.05-0.381,2.162,0.365,2.511
		c0.857,0.401,2.41-0.236,2.777-1.175C253.406,128.25,253.438,127.848,253.466,127.709z M264.896,116.125
		c1.088-0.009,1.854-0.752,1.781-1.728c-0.076-1.062-0.972-1.944-1.99-1.966c-1.117-0.024-1.965,0.755-2.025,1.863
		C262.6,115.439,263.451,116.138,264.896,116.125z M309.348,109.26c1.144-0.019,1.911-0.674,1.938-1.652
		c0.025-0.998-0.773-1.865-1.734-1.876c-1.162-0.013-2.184,0.772-2.217,1.707C307.299,108.48,308.182,109.28,309.348,109.26z
		 M202.104,116.748c-0.036-0.914-1.05-1.912-1.854-1.826c-0.898,0.099-2.344,1.441-2.305,2.145c0.047,0.842,1.299,1.85,2.241,1.803
		C201.123,118.821,202.143,117.694,202.104,116.748z M242.363,227.674c1.316,0.029,2.098-0.635,2.055-1.748
		c-0.036-0.922-0.918-1.705-1.951-1.73c-1-0.024-2.064,0.951-2.087,1.916C240.359,226.994,241.186,227.646,242.363,227.674z
		 M309.824,115.938c-0.819,0.169-1.641,0.27-1.713,1.322c-0.055,0.764,0.895,2.018,1.582,2.076c0.789,0.065,1.766-0.752,1.812-1.523
		C311.564,116.906,310.678,115.946,309.824,115.938z"/>
	<path id="contact-lettres-n-fill" fill="#1D7056" d="M190.029,227.045c-1.443,1.018-2.68,0.615-3.704,0.156
		c-1.875-0.842-3.724-1.77-4.995-3.566c-1.32-1.869-1.754-1.771-3.445-0.127c-2.945,2.865-6.467,4.479-10.7,4.725
		c0.076-0.377,0.063-0.633,0.174-0.813c3.126-5.135,4.584-10.795,5.163-16.703c0.411-4.198,0.404-8.43,0.595-12.646
		c0.144-3.174,0.354-6.34,0.257-9.521c-0.118-3.883,0.013-7.782-0.311-11.646c-0.483-5.771-1.663-11.36-5.332-16.141
		c-0.954-1.242-2.11-2.156-3.317-3.063c-0.873-0.656-1.773-1.277-2.895-2.082c3.36-1.429,6.451-1.231,9.601-0.74
		c3.598,0.562,6.893,1.744,10.005,3.703c4.544,2.856,9.593,4.25,14.989,4.284c3.116,0.021,6.235,0.125,9.35,0.046
		c2.367-0.062,4.568,0.58,6.787,1.211c1.054,0.299,1.801,1.03,2.371,1.922c0.945,1.479,1.789,2.981,2.285,4.713
		c1.32,4.597,2.933,9.111,4.17,13.728c1.351,5.031,1.487,10.229,1.733,15.418c0.224,4.699,0.071,9.422,0.683,14.102
		c0.289,2.209,0.614,4.418,1.049,6.604c0.418,2.097,1.474,3.887,3.082,5.687c-4.01,1.233-7.215,0.707-9.156-2.383
		c-1.014-1.611-1.955-1.533-3.191,0.039c-1.949,2.478-4.904,4.002-7.668,3.848c0.78-1.989,1.709-3.879,2.102-5.942
		c0.936-4.933,1.662-9.864,0.826-14.9c-0.192-1.162-0.033-2.38-0.032-3.561c0.002-2.396-0.464-4.756-0.763-7.071
		c-0.48-3.731-0.987-7.562-2.514-11.103c-0.316-0.729-0.484-1.513-0.749-2.242c-1.485-4.119-4.092-7.111-8.589-8.082
		c-2.562-0.551-4.75,0.49-6.704,1.822c-4.986,3.398-7.604,8.211-7.912,14.271c-0.39,7.69,0.073,15.296,2.14,22.763
		c0.784,2.836,0.869,5.838,2.076,8.58C188.194,223.922,188.721,225.605,190.029,227.045z M191.215,168.488
		c-0.009-1.375-1.128-2.619-2.308-2.568c-1.122,0.049-2.23,1.377-2.247,2.693c-0.017,1.303,0.701,2,2.072,2.014
		C190.462,170.646,191.225,169.988,191.215,168.488z M175.639,186.748c0.006,1.656,0.805,2.611,2.123,2.539
		c1.18-0.066,2.106-1.174,2.05-2.449c-0.046-1.051-1.284-2.562-2.036-2.486C176.56,184.471,175.635,185.51,175.639,186.748z
		 M212.201,176.898c-1.338-0.021-2.146,0.947-2.111,2.537c0.023,1.145,0.97,1.977,2.219,1.955c1.003-0.019,2.208-1.22,2.164-2.16
		C214.422,178.154,213.217,176.918,212.201,176.898z M173.822,158.789c-1.142-0.062-2.25,0.807-2.349,1.842
		c-0.13,1.377,0.819,2.535,2.127,2.592c1.047,0.047,2.066-0.938,2.16-2.084C175.837,160.209,174.707,158.84,173.822,158.789z
		 M180.996,174.422c0.042-0.797-1.412-2.57-2.142-2.611c-1.028-0.059-2.061,1.019-2.116,2.205c-0.057,1.217,0.837,2.195,2.012,2.205
		C179.743,176.229,180.951,175.26,180.996,174.422z M216.641,195.297c1.271-0.006,2.381-1.049,2.344-2.205
		c-0.029-0.898-1.142-1.828-2.197-1.838c-1.162-0.01-2.324,0.979-2.313,1.969C214.488,194.398,215.43,195.301,216.641,195.297z
		 M218.257,208.535c1.386,0.043,2.253-0.557,2.258-1.559c0.005-0.978-1.121-2.252-2.078-2.354c-1.071-0.117-2.422,1.325-2.378,2.541
		C216.089,207.991,216.892,208.492,218.257,208.535z M205.136,169.605c-0.007-0.965-1.354-2.131-2.502-2.164
		c-0.906-0.025-2.124,1.336-2.044,2.283c0.062,0.739,1.336,1.625,2.388,1.657C204.054,171.416,205.142,170.521,205.136,169.605z
		 M177.598,200.348c-1.074-0.135-1.802,0.322-1.912,1.199c-0.141,1.127,0.789,2.533,1.783,2.697c1.123,0.186,2.037-0.337,2.197-1.25
		C179.874,201.812,178.852,200.504,177.598,200.348z M180.257,216.682c0.056-0.949-0.696-1.799-1.686-1.904
		c-1-0.106-2.167,0.964-2.194,2.015c-0.024,0.91,1.011,1.908,2.014,1.94C179.322,218.762,180.192,217.807,180.257,216.682z
		 M220.369,216.947c0.018-0.646-1.154-1.873-1.855-1.943c-0.7-0.068-2.104,0.934-2.186,1.562c-0.103,0.772,1.125,1.815,2.149,1.828
		C219.451,218.402,220.348,217.717,220.369,216.947z"/>
	<path id="contact-lettres-o-fill" fill="#1D7056" d="M124.096,227.377c-4.444,0.332-8.426-1.229-12.347-3.086
		c-1.95-0.925-3.865-1.834-5.336-3.504c-2.757-3.133-5.012-6.5-6.327-10.539c-2.27-6.977-1.701-14.035-0.827-21.07
		c0.439-3.535,1.801-6.904,3.495-10.096c0.662-1.248,1.266-2.527,1.927-3.781c1.096-2.074,2.619-3.785,4.197-5.459
		c1.518-1.609,2.777-3.482,4.855-4.525c5.169-2.592,10.505-3.868,16.382-3.239c4.604,0.493,8.607,2.11,12.384,4.623
		c1.318,0.877,2.748,1.582,4.089,2.442c4.705,3.021,6.609,7.717,7.852,12.834c0.093,0.385,0.047,0.81,0.169,1.181
		c1.244,3.795,1.353,7.647,0.837,11.584c-0.56,4.274-1.451,8.461-2.895,12.521c-1.369,3.846-3.999,6.868-6.72,9.772
		c-1.741,1.856-3.73,3.479-5.738,5.073C135.395,225.834,130.113,227.682,124.096,227.377z M141.426,191.5
		c-0.083-3.029-0.5-5.951-1.749-8.816c-1.624-3.729-4.365-5.764-8.199-6.471c-2.028-0.373-4.083-0.689-6.165-0.662
		c-2.072,0.027-3.887,0.518-5.146,2.398c-0.703,1.051-1.568,2.023-2.497,2.885c-2.213,2.049-3.666,4.57-4.91,7.268
		c-1.632,3.533-1.97,7.353-2.527,11.117c-0.432,2.922,0.243,5.74,1.467,8.328c1.321,2.791,3.697,4.453,6.744,5.264
		c3.838,1.019,7.666,1.771,11.443,0.021c2.784-1.289,5.114-3.324,6.792-5.844C139.78,202.336,141.592,197.195,141.426,191.5z
		 M111.141,179.621c1.375,0.021,2.219-0.666,2.3-1.877c0.087-1.309-1.049-2.693-2.193-2.672c-1.007,0.02-2.321,1.488-2.376,2.658
		C108.82,178.834,109.736,179.6,111.141,179.621z M133.831,221.766c0.92,0.033,2.135-1.156,2.193-2.15
		c0.064-1.084-0.956-2.272-1.951-2.272c-1.215-0.002-2.645,1.177-2.698,2.222C131.328,220.502,132.687,221.725,133.831,221.766z
		 M138.66,173.275c0.993,0.007,2.019-0.775,2.1-1.601c0.101-1.036-1.709-2.627-3-2.637c-0.9-0.007-1.648,0.728-1.692,1.66
		C136.006,172.02,137.263,173.27,138.66,173.275z M104.475,192.451c1.324,0.053,2.583-0.668,2.618-1.496
		c0.047-1.104-1.285-2.695-2.236-2.672c-1.071,0.025-2.094,1.012-2.187,2.104C102.587,191.381,103.488,192.412,104.475,192.451z
		 M120.853,219.594c-1.068,0.029-2.041,1.346-2.058,2.783c-0.013,1.107,0.771,1.785,2.025,1.744
		c1.119-0.037,2.221-1.223,2.203-2.367C123.009,220.812,121.76,219.568,120.853,219.594z M102.528,204.68
		c-0.001,1.514,0.871,2.42,2.296,2.383c0.937-0.022,1.832-0.856,1.895-1.766c0.082-1.178-1.154-2.515-2.324-2.51
		C103.144,202.791,102.529,203.414,102.528,204.68z M122.589,171.201c1.336,0.037,2.335-0.859,2.372-2.131
		c0.031-1.072-0.988-2.211-2.044-2.283c-0.952-0.064-2.181,1.285-2.229,2.449C120.642,170.361,121.423,171.17,122.589,171.201z
		 M146.285,210.363c0.023-1.271-0.978-2.34-2.162-2.307c-0.968,0.024-2.061,0.993-2.12,1.879c-0.062,0.934,1.267,2.258,2.327,2.315
		C145.446,212.316,146.263,211.525,146.285,210.363z M147.955,197.391c1.19,0.021,2.096-0.537,2.141-1.322
		c0.079-1.356-0.987-2.721-2.108-2.696c-1.069,0.022-2.237,1.096-2.232,2.051C145.761,196.57,146.646,197.364,147.955,197.391z
		 M148.304,181.141c0.011-1.1-1.184-2.381-2.211-2.369c-0.916,0.01-1.956,1.021-2.021,1.967c-0.088,1.283,0.868,2.468,1.969,2.438
		C147.071,183.146,148.295,182.047,148.304,181.141z M110.68,219.551c1.195,0.057,1.863-0.521,1.898-1.631
		c0.042-1.371-0.8-2.352-2.095-2.432c-0.965-0.062-1.725,0.727-1.758,1.82C108.686,218.582,109.484,219.496,110.68,219.551z"/>
	<path id="contact-lettres-c1b-fill" fill="#1D7056" d="M114.054,81.873c-1.715-2.955-3.807-5.718-5.963-8.379
		c-1.025-1.265-1.931-2.754-3.399-3.604c-1.97-1.139-4.211-1.901-5.282-4.176c-0.051-0.107-0.287-0.119-0.428-0.193
		c-4.405-2.318-9.03-4.111-13.987-4.593c-7.668-0.744-15.246,0.106-22.714,1.997c-2.272,0.574-4.237,1.818-6.368,2.675
		c-3.198,1.284-6.126,3.011-9.015,4.827c-2.011,1.265-4.035,2.51-5.801,4.146c-3.761,3.484-6.892,7.529-10.226,11.389
		c-3.91,4.525-7.014,9.619-10.08,14.748c-2.835,4.744-4.704,9.889-6.779,14.946c-1.967,4.794-3.26,9.83-4.721,14.8
		c-1.098,3.735-1.923,7.541-2.587,11.371c-0.641,3.696-0.535,7.459-0.574,11.202c-0.012,1.113-0.178,2.224-0.254,3.336
		c-0.301,4.371-0.33,8.736-0.043,13.117c0.344,5.271,1.354,10.422,2.346,15.586c0.858,4.472,2.056,8.834,3.773,13.062
		c1.273,3.141,3.446,5.697,5.239,8.498c0.699,1.092,1.018,2.334,1.749,3.391c1.787,2.58,3.815,4.863,6.526,6.572
		c4.249,2.682,8.497,5.361,13.148,7.277c4.774,1.969,9.786,2.49,14.954,2.396c6.309-0.115,12.334-1.232,18.18-3.604
		c5.878-2.385,10.07-6.73,13.342-11.854c2.825-4.427,4.004-9.535,3.825-14.877c-0.117-3.511-0.346-6.99-1.589-10.507
		c-1.176,0.476-1.485,1.308-1.823,2.107c-0.657,1.565-1.577,2.973-2.785,4.147c-2.284,2.221-4.576,4.451-7.232,6.23
		c-2.915,1.951-5.904,3.719-9.456,4.4c-2.087,0.401-4.125,0.272-6.18,0.143c-4.65-0.307-9.187-1.156-13.386-3.295
		c-2.957-1.508-5.486-3.602-7.512-6.199c-1.908-2.451-4.495-4.566-4.58-8.07c-2.054-4.188-2.932-8.744-4.038-13.221
		c-1.262-5.109-2.389-10.246-2.609-15.543c-0.204-4.926-1.253-9.76-0.938-14.773c0.308-4.908,1.083-9.66,2.361-14.373
		c0.374-1.379,0.52-2.836,1.02-4.164c1.873-4.97,5.303-9.013,8.254-13.317c1.837-2.68,4.14-5.05,6.478-7.341
		c2.623-2.571,5.108-5.311,8.031-7.534c5.607-4.269,11.879-7.431,18.23-10.41c2.382-1.119,4.949-1.92,7.625-1.797
		c2.782,0.127,5.553,0.494,8.326,0.782c0.891,0.093,1.631,0.562,2.397,1.017c1.814,1.072,2.985,2.873,4.661,4.055
		c2.067,1.456,3.008,3.534,3.428,5.812c0.43,2.332,0.766,4.791-0.745,6.953c-1.72,2.465-6.979,4.809-10.504,2.826
		c-3.308-1.861-6.173-4.225-8.042-7.625c-1.458-2.652-2.765-5.376-3.974-8.15c-0.254-0.582-0.575-1.136-0.844-1.713
		c-0.26-0.555-0.721-0.679-1.177-0.397c-2.781,1.715-5.851,2.872-8.645,4.573c-2.323,1.414-4.371,3.166-6.521,4.8
		c-1.641,1.247-1.68,1.229-1.068,3.229c1.789,5.854,4.562,11.062,8.961,15.492c2.209,2.225,4.665,3.874,7.358,5.205
		c4.523,2.234,9.32,3.832,14.333,4.453c3.799,0.472,7.597,0.361,11.364-0.897c2.22-0.742,4.24-1.813,6.307-2.804
		c4.217-2.021,7.347-5.104,9.458-9.413c2.831-5.777,3.542-11.838,3.452-18.125C117.255,88.615,115.931,85.107,114.054,81.873z
		 M78.769,204.588c1.116-0.006,2.38,1.453,2.401,2.77c0.025,1.574-0.938,2.728-2.299,2.748c-0.95,0.017-2.344-1.647-2.392-2.854
		C76.439,206.258,77.873,204.592,78.769,204.588z M66.446,211.932c1.181,0.027,2.249,1.16,2.204,2.338
		c-0.044,1.162-1.167,2.146-2.417,2.121c-1.254-0.026-2.189-0.898-2.183-2.037C64.057,212.988,65.133,211.9,66.446,211.932z
		 M53.32,213.152c1.162,0.005,2.408,1.295,2.424,2.508c0.014,1.141-1.054,1.93-2.767,2.045c-1.115,0.074-2.327-1.295-2.271-2.566
		C50.75,214.141,52.06,213.146,53.32,213.152z M40.572,209.805c1.147,0.002,2.196,0.937,2.257,2.01
		c0.084,1.461-1.409,2.646-3.352,2.664c-1.232,0.01-1.866-0.684-1.815-1.981C37.707,211.336,39.364,209.805,40.572,209.805z
		 M19.493,129.748c0.893-0.053,2.283,1.166,2.298,2.018c0.027,1.504-1.177,2.902-2.542,2.955c-1.447,0.057-2.286-0.684-2.305-2.031
		C16.921,131.238,18.144,129.828,19.493,129.748z M16.52,146.379c1.339-0.246,2.416,1.393,2.445,2.395
		c0.038,1.304-1.058,2.332-2.477,2.377c-1.254,0.039-2.464-1.297-2.444-2.703C14.059,147.348,15.219,146.379,16.52,146.379z
		 M16.674,170.609c-1.43,0.033-2.502-1.234-2.477-2.926c0.016-1.095,1.062-2.107,2.189-2.125c1.335-0.019,2.555,1.188,2.632,2.598
		C19.093,169.541,18.101,170.58,16.674,170.609z M20.281,190.754c-1.149,0.084-2.041-0.922-2.082-2.354
		c-0.042-1.439,0.763-2.56,1.875-2.604c1.068-0.043,2.478,1.5,2.488,2.726C22.572,189.777,21.681,190.648,20.281,190.754z
		 M28.146,198.293c1.471-0.021,2.564,0.787,2.581,1.914c0.019,1.252-1.17,2.508-2.386,2.521c-1.319,0.013-2.83-1.408-2.88-2.711
		C25.422,198.994,26.474,198.318,28.146,198.293z M24.295,120.865c-1.327,0.086-2.333-1.1-2.464-2.906
		c-0.084-1.151,0.936-2.053,2.332-2.06c1.221-0.006,2.622,1.169,2.683,2.25C26.903,119.168,25.374,120.795,24.295,120.865z
		 M32.786,105.008c-1.402-0.002-2.302-1.152-2.208-2.827c0.068-1.243,1.49-2.394,2.886-2.335c1.416,0.059,2.546,1.152,2.484,2.4
		C35.88,103.586,34.253,105.008,32.786,105.008z M41.066,92.07c-1.176-0.031-2.634-1.572-2.525-2.669
		c0.087-0.88,1.819-2.399,2.702-2.37c1.289,0.043,2.558,1.402,2.528,2.707C43.736,91.264,42.746,92.116,41.066,92.07z
		 M53.351,82.494c-1.34-0.011-2.774-1.418-2.758-2.705c0.01-0.787,1.602-2.17,2.556-2.221c1.098-0.057,2.853,1.645,2.875,2.786
		C56.047,81.535,54.835,82.504,53.351,82.494z M66.639,76.119c-1.181,0.079-2.201-0.953-2.208-2.233
		c-0.007-1.376,0.84-2.347,2.042-2.337c1.523,0.011,2.673,0.934,2.64,2.119C69.082,74.863,67.899,76.035,66.639,76.119z
		 M83.019,73.846c-1.118,0.001-1.853-0.764-1.877-1.958c-0.028-1.319,0.917-2.431,2.057-2.423c1.128,0.009,2.248,1.166,2.241,2.313
		C85.432,72.934,84.367,73.844,83.019,73.846z M65.417,96.943c-1.409,0-2.048-0.729-2.029-2.312
		c0.015-1.235,0.564-1.881,1.608-1.885c1.426-0.008,2.585,1.139,2.583,2.557C67.578,96.385,66.843,96.943,65.417,96.943z
		 M72.955,108.303c-1.198-0.012-2.516-1.229-2.559-2.36c-0.033-0.881,1.2-2.005,2.253-2.053c1.268-0.058,2.344,1.179,2.344,2.694
		C74.993,107.683,74.241,108.315,72.955,108.303z M84.733,115.416c-1.192-0.002-2.449-1.242-2.499-2.465
		c-0.049-1.197,1.134-2.091,2.708-2.047c1.233,0.035,1.977,0.873,1.939,2.186C86.84,114.554,86.041,115.418,84.733,115.416z
		 M99.487,113.53c-1.256,0.03-2.153-0.94-2.147-2.323c0.007-1.658,0.557-2.244,2.087-2.224c1.45,0.021,2.516,0.896,2.478,2.033
		C101.859,112.369,100.771,113.5,99.487,113.53z M102.129,82.334c-1.529-0.021-2.726-1.307-2.724-2.927
		c0.002-1.295,0.433-1.678,1.923-1.706c1.65-0.033,3.192,1.159,3.217,2.484C104.564,81.196,103.267,82.351,102.129,82.334z
		 M107.314,99.679c-1.182-0.099-2.233-1.359-2.088-2.5c0.111-0.87,1.309-1.923,2.186-1.921c1.221,0.002,2.602,1.332,2.528,2.435
		C109.872,98.703,108.456,99.774,107.314,99.679z"/>
	<path id="contact-lettres-c1h-fill" fill="#1D7056" d="M57.701,62.588c1.532-0.864,3.211-1.402,4.901-1.905
		c3.659-1.089,3.695-1.115,3.203-5.021c-0.644-5.114-0.227-10.171,0.799-15.179c1.056-5.152,2.537-10.204,3.849-15.295
		c1.106-4.292,2.851-8.272,5.128-12.065c1.003-1.67,2.251-3.226,3.012-5.247c-1.274-0.115-2.179,0.426-3.07,0.88
		c-5.222,2.66-9.833,6.212-14.198,10.066c-3.618,3.194-8.238,10.948-9.794,15.566c-1.854,5.498-4.018,10.883-4.758,16.712
		c-0.553,4.358-0.794,8.717-0.751,13.1c0.008,0.82,0.353,1.542,0.831,2.508C50.474,65.032,54.329,64.488,57.701,62.588z
		 M56.977,59.61c-0.998,0.388-2.226,0.045-2.688-0.789c-0.189-0.341-0.268-0.741-0.415-1.108c-0.692-1.715-0.303-2.348,1.489-2.4
		c1.294-0.039,2.985,1.089,3.062,2.105C58.504,58.488,57.977,59.223,56.977,59.61z M61.817,24.522
		c1.122-0.055,2.04,0.778,2.049,1.859c0.008,1.063-0.997,1.988-2.238,2.06c-0.946,0.054-1.792-0.844-1.743-1.851
		C59.941,25.453,60.761,24.574,61.817,24.522z M54.859,37.999c0.077-1.555,0.859-2.459,2.075-2.4c1.213,0.06,2.326,1.195,2.28,2.327
		c-0.047,1.175-1.245,2.004-2.825,1.956C55.197,39.845,54.792,39.348,54.859,37.999z M55.375,46.02
		c0.954-0.036,2.441,1.026,2.533,1.809c0.101,0.869-1.289,2.254-2.358,2.349c-1.143,0.101-2.32-0.945-2.41-2.141
		C53.063,47.023,54.125,46.066,55.375,46.02z"/>
</g>
</svg>
