<?xml version="1.0" encoding="utf-8"?>
<!-- Generator: Adobe Illustrator 16.0.0, SVG Export Plug-In . SVG Version: 6.00 Build 0)  -->
<!DOCTYPE svg PUBLIC "-//W3C//DTD SVG 1.1//EN" "http://www.w3.org/Graphics/SVG/1.1/DTD/svg11.dtd">
<svg version="1.1" id="contact" xmlns="http://www.w3.org/2000/svg" xmlns:xlink="http://www.w3.org/1999/xlink" x="0px" y="0px"
	 width="502px" height="240px" viewBox="57.5 64.5 502 240" enable-background="new 57.5 64.5 502 240" xml:space="preserve">
<g id="contact-points">
	<g id="contact-point-t2">
		<path id="d5b_1_" fill="#22252E" d="M548.861,183.54c0.015,0.798-0.463,1.141-1.177,1.217c-1.005,0.107-1.741-0.457-1.862-1.382
			c-0.109-0.84,0.167-1.41,1.075-1.516C547.773,181.756,548.803,182.646,548.861,183.54z"/>
		<path id="d5h_1_" fill="#22252E" d="M547.777,173.919c-0.1,0.815-0.8,1.097-1.508,1.163c-0.726,0.067-1.484-0.12-1.683-1.003
			c-0.153-0.682,0.854-1.739,1.62-1.774C546.966,172.27,547.749,173.034,547.777,173.919z"/>
		<path id="d4_1_" fill="#22252E" d="M536.767,177.063c0.917,0.009,1.511,0.703,1.46,1.71c-0.036,0.759-1.103,1.532-2.163,1.336
			c-0.678-0.125-1.693-0.034-1.803-1.145C534.156,177.898,535.294,177.048,536.767,177.063z"/>
		<path id="d3_1_" fill="#22252E" d="M526.053,179.831c-0.899,0.032-1.598-0.319-1.722-1.247c-0.12-0.9,1.032-1.73,2.201-1.687
			c0.897,0.034,1.543,0.363,1.526,1.398C528.046,179.255,527.28,179.838,526.053,179.831z"/>
		<path id="d2_1_" fill="#22252E" d="M513.935,177.144c1.096,0.014,1.977,0.932,1.899,1.978c-0.068,0.924-0.842,1.68-1.683,1.642
			c-1.012-0.045-1.696-0.815-1.693-1.902C512.461,177.72,512.967,177.131,513.935,177.144z"/>
		<path id="d1_1_" fill="#22252E" d="M503.418,179.67c-0.016,0.735-1.4,1.67-2.363,1.596c-0.939-0.072-1.627-0.844-1.546-1.737
			c0.077-0.841,1.078-1.864,1.863-1.905C502.035,177.59,503.433,178.987,503.418,179.67z"/>
		<path id="g5b" fill="#22252E" d="M427.517,182.921c-1.111,0.009-1.936-0.682-1.876-1.666c0.052-0.828,0.294-1.605,1.349-1.613
			c1.116-0.008,2.329,0.989,2.401,1.93C429.45,182.346,428.665,182.912,427.517,182.921z"/>
		<path id="g5h" fill="#22252E" d="M427.412,175.271c-1.406-0.003-2.161-0.558-2.146-1.499c0.016-0.862,0.8-1.521,1.792-1.505
			c0.941,0.016,2.161,1.192,1.971,2.008C428.826,175.135,428.021,175.177,427.412,175.271z"/>
		<path id="g4" fill="#22252E" d="M437.817,178.847c-1.312-0.031-2.347-0.811-2.351-1.772c-0.003-0.826,0.782-1.457,1.811-1.454
			c1.398,0.004,2.385,0.842,2.383,2.077C439.658,179.027,438.695,178.885,437.817,178.847z"/>
		<path id="g3_1_" fill="#22252E" d="M447.645,179.308c-0.764-0.098-1.266-0.589-1.218-1.545c0.047-0.941,0.963-1.719,1.936-1.668
			c0.694,0.037,1.621,1.04,1.632,1.77C450.002,178.473,448.688,179.344,447.645,179.308z"/>
		<path id="g2_1_" fill="#22252E" d="M459.585,178.303c-0.259,0.763-0.986,1.024-1.8,1.043c-1.104,0.027-2.104-0.792-2.037-1.579
			c0.062-0.725,1.038-1.57,1.812-1.567C458.504,176.204,459.584,177.247,459.585,178.303z"/>
		<path id="g1_1_" fill="#22252E" d="M469.594,177.077c1.349-0.013,2.008,0.676,2.069,1.906c0.05,1.006-0.513,1.467-1.392,1.574
			c-1.003,0.122-2.073-1.034-2.061-2.159C468.225,177.38,468.819,177.017,469.594,177.077z"/>
		<path id="_x31_0_3_" fill="#22252E" d="M484.424,178.62c0.62,0.157,1.274,0.603,1.419,1.428c0.187,1.056-1.087,2.255-2.265,2.253
			c-0.917-0.001-1.481-0.501-1.664-1.356C481.74,180.127,483.222,178.683,484.424,178.62z"/>
		<path id="_x39__4_" fill="#22252E" d="M485.777,192.834c0.068,0.828-1.022,1.67-2.214,1.742c-0.96,0.058-1.525-0.403-1.637-1.315
			c-0.104-0.852,0.977-1.833,2.048-1.966C484.767,191.197,485.707,192.001,485.777,192.834z"/>
		<path id="_x38__4_" fill="#22252E" d="M485.701,204.561c-0.023,0.932-0.908,1.703-1.933,1.685
			c-1.062-0.019-1.631-0.694-1.608-1.914c0.016-0.883,1.225-1.882,2.146-1.773C484.908,202.631,485.722,203.797,485.701,204.561z"/>
		<path id="_x37__5_" fill="#22252E" d="M484.055,217.219c-0.992,0.059-1.686-0.679-1.708-1.816c-0.016-0.79,0.88-1.607,1.897-1.731
			c0.606-0.073,1.717,1.087,1.8,1.882C486.113,216.219,484.985,217.164,484.055,217.219z"/>
		<path id="_x36__3_" fill="#22252E" d="M483.452,230.544c-1.037-0.041-1.74-0.85-1.638-1.883c0.093-0.938,1.096-1.718,2.216-1.722
			c0.851-0.003,1.834,0.944,1.866,1.798C485.929,229.572,484.554,230.588,483.452,230.544z"/>
		<path id="_x35__3_" fill="#22252E" d="M483.646,243.221c-0.861,0.049-1.439-0.256-1.406-1.322c0.042-1.34,0.793-2.131,2.021-2.045
			c0.668,0.047,1.688,1.307,1.642,2.026C485.854,242.62,484.84,243.242,483.646,243.221z"/>
		<path id="_x34__3_" fill="#22252E" d="M481.38,254.729c-0.02-0.764,1.033-1.705,1.941-1.737c0.698-0.024,1.729,1.091,1.794,1.946
			c0.067,0.875-0.848,1.643-1.934,1.621C482.238,256.54,481.404,255.691,481.38,254.729z"/>
		<path id="_x33__3_" fill="#22252E" d="M483.346,269.755c-1.167-0.019-1.831-0.61-1.859-1.663c-0.03-1.101,0.977-2.129,2.091-2.136
			c0.771-0.005,1.929,1.239,1.96,2.106C485.567,268.907,484.448,269.771,483.346,269.755z"/>
		<path id="_x32__3_" fill="#22252E" d="M485.043,279.975c0.011,0.914-0.859,1.653-1.933,1.643
			c-1.075-0.012-1.673-0.549-1.699-1.527c-0.032-1.113,0.793-2.189,1.696-2.211C483.837,277.859,485.033,279.154,485.043,279.975z"
			/>
		<path id="_x31_d_1_" fill="#22252E" d="M492.305,290.369c0.136,0.74-0.331,1.031-0.929,1.109c-1.249,0.164-2.04-0.598-2.228-1.927
			c-0.133-0.933,0.308-1.375,1.112-1.483C491.102,287.955,492.222,289.271,492.305,290.369z"/>
		<path id="_x31_g_1_" fill="#22252E" d="M477.173,287.534c0.732-0.081,1.423,0.725,1.543,1.801c0.095,0.854-0.657,1.836-1.43,1.865
			c-0.803,0.028-1.962-0.987-1.984-1.741C475.283,288.848,476.485,287.609,477.173,287.534z"/>
	</g>
	<g id="contact-point-c2">
		<path id="_x35_b_1_" fill="#22252E" d="M444.294,280.691c0.138-1.762,0.576-2.348,1.701-2.272s2.279,1.147,2.217,2.062
			c-0.071,1.051-1.369,2.104-2.466,2.004C444.453,282.368,444.188,282.042,444.294,280.691z"/>
		<path id="_x35_h_2_" fill="#22252E" d="M444.486,240.516c-0.103,0.777-0.053,1.656-1.217,1.68c-1.5,0.027-3.12-1.271-3.043-2.455
			c0.068-1.01,1.097-2.105,1.937-2.06C443.436,237.748,444.507,239.056,444.486,240.516z"/>
		<path id="_x34_b_2_" fill="#22252E" d="M438.364,284.979c-0.032,1.078-1.448,2.441-2.485,2.394
			c-1.221-0.06-2.164-0.948-2.18-2.056c-0.021-1.344,1.036-2.678,2.123-2.685C437.03,282.625,438.397,283.887,438.364,284.979z"/>
		<path id="_x34_h_2_" fill="#22252E" d="M428.609,237.405c0.005-1.366,0.727-2.442,1.665-2.481
			c1.501-0.062,3.009,1.204,2.959,2.484c-0.043,1.096-1.556,2.496-2.745,2.542C429.395,239.992,428.604,238.921,428.609,237.405z"/>
		<path id="_x33_b_2_" fill="#22252E" d="M422.505,280.473c1.068,0.021,2.7,1.709,2.615,2.704c-0.066,0.765-1.54,1.806-2.517,1.778
			c-1.221-0.034-2.174-0.923-2.191-2.043C420.391,281.63,421.402,280.451,422.505,280.473z"/>
		<path id="_x33_h_2_" fill="#22252E" d="M423.682,242.451c-0.118,1.26-1.005,1.859-2.561,1.736
			c-1.312-0.104-2.079-0.938-1.939-2.103c0.176-1.464,0.942-2.111,2.35-1.981C423.334,240.271,423.837,240.82,423.682,242.451z"/>
		<path id="_x32_b_2_" fill="#22252E" d="M415.906,273.451c0.029,1.258-0.803,2.265-1.908,2.311
			c-1.215,0.051-2.721-1.123-2.782-2.169c-0.065-1.12,1.161-2.71,2.147-2.782C414.577,270.723,415.873,272.066,415.906,273.451z"/>
		<path id="_x32_h_1_" fill="#22252E" d="M413.812,252.76c-1.084,0.049-2.349-0.953-2.397-1.902
			c-0.067-1.289,0.877-2.272,2.194-2.285c1.061-0.012,1.9,0.835,1.967,1.977C415.635,251.598,414.741,252.721,413.812,252.76z"/>
		<path id="_x31__4_" fill="#22252E" d="M413.54,260.914c0.03,1.25-0.601,1.955-1.562,2.277c-0.895,0.299-1.556-0.252-1.91-1.024
			c-0.26-0.562-0.78-1.001-0.762-1.708c0.025-0.965,0.996-2.395,1.879-2.518c1.108-0.154,1.431,0.828,1.896,1.522
			C413.387,259.924,413.562,260.469,413.54,260.914z"/>
	</g>
	<g id="contact-point-a">
		<path id="_x39__3_" fill="#22252E" d="M384.951,290.223c1.65,0.037,2.547,0.655,2.535,1.752c-0.008,1.053-0.951,1.737-2.385,1.731
			c-1.484-0.006-2.129-0.601-2.088-1.927C383.055,290.499,383.441,290.188,384.951,290.223z"/>
		<path id="_x38__3_" fill="#22252E" d="M383.923,280.398c0.015,1.194-0.71,1.886-1.944,1.854c-0.94-0.023-1.799-0.865-1.855-1.82
			c-0.068-1.143,0.708-2.084,1.742-2.111C383.123,278.288,383.906,279.078,383.923,280.398z"/>
		<path id="_x37__4_" fill="#22252E" d="M379.07,269.141c-1.309-0.029-2.103-0.717-2.041-1.771c0.094-1.653,0.859-2.497,2.267-2.501
			c0.985-0.003,2.147,1.14,2.16,2.123C381.469,268.107,380.292,269.168,379.07,269.141z"/>
		<path id="_x36_h" fill="#22252E" d="M378.1,257.895c-0.949,0.035-1.802-0.746-1.853-1.695c-0.058-1.074,1.067-2.354,2.124-2.416
			c1.225-0.071,2.146,0.725,2.214,1.91C380.659,256.961,379.672,257.834,378.1,257.895z"/>
		<path id="_x35_h_1_" fill="#22252E" d="M374.159,242.616c1.159,0.032,2.366,1.215,2.319,2.271
			c-0.053,1.115-1.088,2.029-2.246,1.981c-1.291-0.054-2.287-0.903-2.281-1.946C371.957,243.659,372.986,242.583,374.159,242.616z"
			/>
		<path id="_x34_b_1_" fill="#22252E" d="M370.939,279.273c-0.056,1.05-1.164,1.893-2.365,1.797
			c-0.977-0.077-1.819-0.938-1.828-1.863c-0.01-1.047,1.129-2.152,2.143-2.085C370.154,277.207,370.999,278.096,370.939,279.273z"/>
		<path id="_x34_h_1_" fill="#22252E" d="M365.008,240.534c-0.057,1.045-0.969,1.813-2.1,1.772c-1.27-0.048-2.108-0.921-2.016-2.098
			c0.084-1.052,0.965-1.81,2.092-1.803C364.195,238.416,365.072,239.339,365.008,240.534z"/>
		<path id="_x33_b_1_" fill="#22252E" d="M358.457,283.439c-0.001,1.082-0.697,1.804-1.751,1.811
			c-1.362,0.009-2.507-0.966-2.452-2.088c0.042-0.848,1.046-1.812,1.902-1.828C357.589,281.309,358.457,282.104,358.457,283.439z"/>
		<path id="_x33_h_1_" fill="#22252E" d="M350.718,247.046c-1.036,0.005-1.715-0.68-1.767-1.787
			c-0.053-1.092,0.777-1.877,1.975-1.87c1.092,0.008,1.916,0.711,1.949,1.66C352.916,246.229,352.043,247.038,350.718,247.046z"/>
		<path id="_x32_b_1_" fill="#22252E" d="M346.124,281.127c-1.217-0.045-1.685-0.572-1.591-1.798
			c0.083-1.087,0.814-1.938,1.682-1.953c1.082-0.021,2.213,1.101,2.109,2.091C348.221,280.473,347.297,281.169,346.124,281.127z"/>
		<path id="_x32_h" fill="#22252E" d="M343.807,256.207c-0.971-0.004-1.558-0.655-1.516-1.684c0.043-1.082,0.631-1.767,1.48-1.726
			c1.002,0.05,1.748,0.853,1.732,1.863C345.491,255.605,344.824,256.212,343.807,256.207z"/>
		<path id="_x31__3_" fill="#22252E" d="M343.04,266.243c-0.042,1.053-1.119,2.259-2.024,2.265
			c-0.963,0.008-1.685-0.941-1.658-2.184c0.02-0.999,1.173-1.967,2.31-1.939C342.469,264.404,343.079,265.23,343.04,266.243z"/>
	</g>
	<g id="contact-point-t1">
		<path id="d5h" fill="#22252E" d="M366.792,173.03c-1.165,0.02-2.048-0.781-2.013-1.823c0.033-0.934,1.054-1.72,2.217-1.707
			c0.961,0.011,1.763,0.878,1.734,1.876C368.704,172.356,367.936,173.011,366.792,173.03z"/>
		<path id="d5b" fill="#22252E" d="M367.27,179.707c0.854,0.01,1.742,0.97,1.684,1.875c-0.049,0.771-1.023,1.589-1.814,1.523
			c-0.688-0.058-1.635-1.312-1.58-2.075C365.63,179.976,366.448,179.875,367.27,179.707z"/>
		<path id="d4" fill="#22252E" d="M356.966,176.626c0.036,1.167-0.877,2.042-2.11,2.024c-1.11-0.017-2.078-0.739-2.106-1.574
			c-0.033-0.952,1.31-2.174,2.469-2.249C356.273,174.759,356.928,175.431,356.966,176.626z"/>
		<path id="d3" fill="#22252E" d="M344.198,178.924c-1.767,0.022-2.55-0.537-2.526-1.805c0.02-1.081,1.23-2.233,2.374-2.258
			c1.277-0.028,2.153,0.94,2.126,2.35C346.145,178.59,345.782,178.905,344.198,178.924z"/>
		<path id="d2" fill="#22252E" d="M332.552,178.714c-1.319,0.026-2.269-0.781-2.266-1.927c0.003-1.114,0.927-1.939,2.248-2.008
			c1.178-0.061,2.688,1.238,2.624,2.256C335.105,177.869,333.834,178.689,332.552,178.714z"/>
		<path id="d1" fill="#22252E" d="M322.343,179.895c-1.446,0.013-2.298-0.685-2.235-1.829c0.062-1.109,0.908-1.888,2.026-1.864
			c1.021,0.021,1.913,0.903,1.99,1.966C324.195,179.142,323.43,179.885,322.343,179.895z"/>
		<path id="g4h" fill="#22252E" d="M257.133,171.06c-0.03,1.008-1.37,2.083-2.546,2.04c-1.041-0.038-2.019-0.816-2.062-1.643
			c-0.048-0.909,1.596-2.199,2.757-2.164C256.306,169.325,257.161,170.14,257.133,171.06z"/>
		<path id="g4b" fill="#22252E" d="M259.55,180.518c0.038,0.947-0.981,2.073-1.917,2.12c-0.943,0.047-2.195-0.96-2.241-1.802
			c-0.039-0.703,1.406-2.045,2.305-2.144C258.5,178.604,259.514,179.603,259.55,180.518z"/>
		<path id="g3" fill="#22252E" d="M270.583,177.949c-1.047,0.012-2.283-1.045-2.261-1.934c0.034-1.357,1-2.403,2.172-2.352
			c1.025,0.045,1.953,1.104,2.022,2.306C272.577,177.028,271.689,177.936,270.583,177.949z"/>
		<path id="g2" fill="#22252E" d="M281.76,174.521c0.902,0.02,2.128,1.315,2.088,2.207c-0.052,1.149-1.236,2.169-2.431,2.093
			c-1.179-0.075-2.126-1.049-2.094-2.153C279.351,175.698,280.714,174.497,281.76,174.521z"/>
		<path id="g1" fill="#22252E" d="M293.547,178.709c-1.288,0.01-2.761-1.185-2.703-2.192c0.064-1.118,1.579-2.218,3.02-2.193
			c1.081,0.019,1.763,0.737,1.739,1.83C295.577,177.372,294.507,178.702,293.547,178.709z"/>
		<path id="_x31_0_2_" fill="#22252E" d="M308.223,176.053c1.389,0.012,2.322,0.89,2.264,2.13c-0.055,1.163-0.828,1.944-1.916,1.937
			c-1.542-0.011-2.352-0.588-2.373-1.696C306.172,177.152,307.119,176.044,308.223,176.053z"/>
		<path id="_x39__2_" fill="#22252E" d="M310.911,191.479c-0.029,0.136-0.061,0.54-0.202,0.901
			c-0.368,0.938-1.919,1.575-2.778,1.174c-0.747-0.348-0.939-1.461-0.365-2.511c0.218-0.399,0.539-0.8,0.915-1.042
			c0.493-0.317,1.015-0.901,1.693-0.428C310.722,189.957,310.941,190.554,310.911,191.479z"/>
		<path id="_x38__2_" fill="#22252E" d="M311.399,205.182c-0.033,1.006-1.374,2.308-2.357,2.288
			c-0.999-0.021-1.809-0.874-1.747-1.84c0.084-1.312,1.107-2.657,1.954-2.57C310.471,203.186,311.433,204.135,311.399,205.182z"/>
		<path id="_x37__3_" fill="#22252E" d="M309.76,218.573c-1.316-0.04-2.122-0.738-2.038-1.767c0.087-1.072,1.183-2.262,2.087-2.267
			c1.173-0.007,2.303,1.128,2.266,2.279C312.038,217.991,311.212,218.617,309.76,218.573z"/>
		<path id="_x36__2_" fill="#22252E" d="M310.414,232.491c-1.1-0.053-2.191-0.905-2.22-1.732c-0.035-1.003,1.369-2.484,2.239-2.362
			c0.905,0.126,1.935,1.454,1.876,2.42C312.251,231.75,311.362,232.536,310.414,232.491z"/>
		<path id="_x35__2_" fill="#22252E" d="M312.237,242.954c0.044,1.071-0.961,1.955-2.227,1.959
			c-1.383,0.004-2.445-0.761-2.416-1.738c0.031-1.047,1.334-2.292,2.372-2.267C311.047,240.936,312.197,241.971,312.237,242.954z"/>
		<path id="_x34__2_" fill="#22252E" d="M309.489,256.691c-1.516-0.016-2.301-0.664-2.238-1.85c0.051-0.964,1.443-2.152,2.514-2.146
			c0.839,0.004,1.926,1.169,1.97,2.113C311.79,255.965,310.907,256.705,309.489,256.691z"/>
		<path id="_x33__2_" fill="#22252E" d="M306.996,267.055c0.045-1.117,1.754-2.976,2.759-3c0.833-0.02,2.085,1.639,2.002,2.648
			c-0.092,1.129-1.2,1.871-2.651,1.775C307.682,268.386,306.961,267.898,306.996,267.055z"/>
		<path id="_x32__2_" fill="#22252E" d="M309.067,275.609c0.622-0.069,1.503,0.957,1.551,1.81c0.064,1.117-1.092,2.331-2.378,2.495
			c-0.989,0.127-1.874-0.402-2.017-1.205C306.06,277.796,307.952,275.732,309.067,275.609z"/>
		<path id="_x31_d" fill="#22252E" d="M320.988,289.707c0.019,0.727-1.58,2.299-2.356,2.316c-0.455,0.012-1.927-1.584-1.959-2.123
			c-0.057-0.963,1.023-2.145,2.06-2.248C319.562,287.568,320.966,288.848,320.988,289.707z"/>
		<path id="_x31_g" fill="#22252E" d="M299.808,291.443c-1.176-0.027-2.004-0.68-1.983-1.563c0.022-0.964,1.087-1.94,2.087-1.916
			c1.033,0.026,1.915,0.81,1.951,1.731C301.905,290.811,301.125,291.475,299.808,291.443z"/>
	</g>
	<g id="contact-point-n">
		<path id="_x31_1_1_" fill="#22252E" d="M278.115,280.434c-0.021,0.77-0.918,1.455-1.891,1.445c-1.025-0.011-2.251-1.055-2.15-1.83
			c0.083-0.628,1.485-1.63,2.186-1.56C276.96,278.561,278.132,279.787,278.115,280.434z"/>
		<path id="_x31_0_1_" fill="#22252E" d="M276.002,272.02c-1.365-0.041-2.168-0.543-2.198-1.371
			c-0.043-1.213,1.307-2.656,2.378-2.541c0.957,0.104,2.083,1.379,2.078,2.354C278.256,271.465,277.389,272.062,276.002,272.02z"/>
		<path id="_x39__1_" fill="#22252E" d="M274.387,258.782c-1.211,0.005-2.153-0.897-2.167-2.074
			c-0.011-0.987,1.152-1.978,2.313-1.969c1.056,0.009,2.167,0.938,2.197,1.838C276.768,257.732,275.659,258.777,274.387,258.782z"/>
		<path id="_x38__1_" fill="#22252E" d="M269.948,240.385c1.015,0.018,2.22,1.256,2.271,2.332c0.044,0.94-1.161,2.143-2.164,2.16
			c-1.249,0.021-2.195-0.812-2.219-1.956C267.802,241.331,268.609,240.361,269.948,240.385z"/>
		<path id="_x37__2_" fill="#22252E" d="M262.882,233.091c0.006,0.915-1.082,1.811-2.158,1.777
			c-1.052-0.033-2.325-0.917-2.388-1.658c-0.08-0.947,1.138-2.309,2.044-2.283C261.526,230.96,262.875,232.126,262.882,233.091z"/>
		<path id="_x36__1_" fill="#22252E" d="M248.96,231.974c0.01,1.5-0.752,2.157-2.483,2.139c-1.371-0.014-2.089-0.711-2.072-2.014
			c0.017-1.316,1.125-2.645,2.247-2.693C247.833,229.354,248.951,230.6,248.96,231.974z"/>
		<path id="_x35__1_" fill="#22252E" d="M231.567,222.275c0.885,0.05,2.015,1.419,1.939,2.35c-0.094,1.146-1.113,2.13-2.16,2.084
			c-1.309-0.057-2.258-1.214-2.127-2.592C229.317,223.08,230.426,222.21,231.567,222.275z"/>
		<path id="_x34__1_" fill="#22252E" d="M238.742,237.908c-0.044,0.837-1.253,1.804-2.246,1.797
			c-1.175-0.009-2.069-0.988-2.012-2.205c0.056-1.187,1.088-2.263,2.116-2.205C237.33,235.337,238.784,237.11,238.742,237.908z"/>
		<path id="_x33__1_" fill="#22252E" d="M233.385,250.232c-0.004-1.238,0.921-2.277,2.136-2.398c0.752-0.075,1.99,1.438,2.036,2.489
			c0.056,1.274-0.87,2.381-2.05,2.448C234.19,252.846,233.391,251.891,233.385,250.232z"/>
		<path id="_x32__1_" fill="#22252E" d="M235.344,263.833c1.253,0.157,2.276,1.466,2.068,2.647
			c-0.161,0.914-1.074,1.434-2.197,1.248c-0.995-0.164-1.924-1.569-1.783-2.697C233.542,264.154,234.271,263.698,235.344,263.833z"
			/>
		<path id="_x31__2_" fill="#22252E" d="M238.002,280.166c-0.065,1.126-0.935,2.081-1.866,2.051
			c-1.003-0.033-2.038-1.029-2.014-1.939c0.027-1.051,1.194-2.123,2.194-2.016C237.306,278.368,238.058,279.217,238.002,280.166z"/>
	</g>
	<g id="contact-point-o">
		<path id="_x37__1_" fill="#22252E" d="M205.701,260.875c-1.308-0.025-2.194-0.818-2.199-1.969
			c-0.004-0.955,1.164-2.027,2.232-2.051c1.121-0.023,2.187,1.34,2.108,2.697C207.796,260.339,206.891,260.898,205.701,260.875z"/>
		<path id="_x36_b" fill="#22252E" d="M204.031,273.85c-0.021,1.162-0.839,1.952-1.955,1.89c-1.06-0.06-2.389-1.384-2.327-2.316
			c0.059-0.885,1.151-1.854,2.12-1.881C203.053,271.509,204.054,272.577,204.031,273.85z"/>
		<path id="_x35_b" fill="#22252E" d="M191.577,285.251c-1.144-0.042-2.503-1.263-2.456-2.204c0.053-1.045,1.483-2.222,2.698-2.221
			c0.995,0.001,2.015,1.189,1.951,2.273C193.711,284.094,192.497,285.285,191.577,285.251z"/>
		<path id="_x35_h" fill="#22252E" d="M206.05,244.626c-0.009,0.907-1.233,2.007-2.263,2.034c-1.101,0.029-2.057-1.153-1.969-2.438
			c0.065-0.945,1.104-1.957,2.021-1.967C204.866,242.246,206.061,243.527,206.05,244.626z"/>
		<path id="_x34_b" fill="#22252E" d="M178.599,283.079c0.907-0.024,2.156,1.218,2.17,2.161c0.018,1.146-1.084,2.328-2.203,2.365
			c-1.254,0.043-2.038-0.633-2.025-1.744C176.558,284.425,177.53,283.109,178.599,283.079z"/>
		<path id="_x34_h" fill="#22252E" d="M196.406,236.762c-1.396-0.008-2.654-1.258-2.593-2.577c0.043-0.933,0.792-1.667,1.692-1.66
			c1.292,0.009,3.102,1.6,3,2.636C198.425,235.985,197.398,236.768,196.406,236.762z"/>
		<path id="_x33_b" fill="#22252E" d="M168.425,283.037c-1.195-0.057-1.993-0.971-1.955-2.241c0.033-1.095,0.793-1.882,1.758-1.819
			c1.294,0.08,2.137,1.06,2.095,2.43C170.288,282.518,169.62,283.092,168.425,283.037z"/>
		<path id="_x33_h" fill="#22252E" d="M180.335,234.687c-1.167-0.032-1.947-0.838-1.901-1.965c0.048-1.165,1.276-2.516,2.229-2.45
			c1.056,0.073,2.076,1.212,2.044,2.285C182.67,233.826,181.671,234.723,180.335,234.687z"/>
		<path id="_x32_b" fill="#22252E" d="M160.273,268.165c0.001-1.267,0.616-1.89,1.867-1.894c1.17-0.002,2.406,1.332,2.324,2.512
			c-0.063,0.906-0.958,1.74-1.895,1.765C161.144,270.584,160.272,269.68,160.273,268.165z"/>
		<path id="_x32_a" fill="#22252E" d="M168.887,243.105c-1.405-0.021-2.321-0.787-2.269-1.892c0.055-1.169,1.369-2.639,2.376-2.658
			c1.144-0.021,2.28,1.364,2.193,2.672C171.105,242.439,170.262,243.128,168.887,243.105z"/>
		<path id="_x31__1_" fill="#22252E" d="M162.221,255.936c-0.988-0.039-1.889-1.068-1.805-2.062
			c0.092-1.094,1.115-2.077,2.187-2.104c0.951-0.024,2.284,1.566,2.236,2.67C164.804,255.27,163.545,255.988,162.221,255.936z"/>
	</g>
	<g id="contact-point-c1">
		<path id="_x32_5" fill="#22252E" d="M138.615,271.127c0.025,1.574-0.938,2.727-2.299,2.748c-0.95,0.016-2.344-1.648-2.392-2.855
			c-0.04-0.99,1.394-2.656,2.29-2.66C137.33,268.354,138.595,269.812,138.615,271.127z"/>
		<path id="_x32_4" fill="#22252E" d="M123.678,280.159c-1.254-0.026-2.189-0.898-2.183-2.036c0.007-1.365,1.083-2.453,2.396-2.422
			c1.181,0.027,2.249,1.16,2.204,2.337C126.051,279.201,124.929,280.186,123.678,280.159z"/>
		<path id="_x32_3" fill="#22252E" d="M113.189,279.43c0.014,1.141-1.054,1.93-2.767,2.045c-1.115,0.075-2.327-1.295-2.271-2.567
			c0.044-0.996,1.354-1.99,2.614-1.984C111.927,276.927,113.173,278.217,113.189,279.43z"/>
		<path id="_x32_2" fill="#22252E" d="M96.922,278.247c-1.232,0.011-1.866-0.683-1.815-1.981c0.046-1.16,1.703-2.69,2.91-2.69
			c1.147,0.001,2.196,0.937,2.257,2.01C100.358,277.044,98.865,278.23,96.922,278.247z"/>
		<path id="_x32_1" fill="#22252E" d="M85.592,262.062c1.471-0.022,2.564,0.787,2.581,1.914c0.019,1.252-1.17,2.508-2.386,2.521
			c-1.319,0.013-2.83-1.408-2.88-2.71C82.867,262.764,83.919,262.088,85.592,262.062z"/>
		<path id="_x32_0" fill="#22252E" d="M75.645,252.172c-0.042-1.439,0.763-2.558,1.875-2.604c1.068-0.041,2.478,1.502,2.488,2.726
			c0.01,1.254-0.881,2.125-2.281,2.229C76.577,254.607,75.686,253.602,75.645,252.172z"/>
		<path id="_x31_9" fill="#22252E" d="M74.119,234.38c-1.43,0.032-2.502-1.235-2.477-2.927c0.016-1.094,1.062-2.108,2.189-2.124
			c1.335-0.019,2.555,1.186,2.632,2.597C76.538,233.31,75.546,234.349,74.119,234.38z"/>
		<path id="_x31_8" fill="#22252E" d="M73.965,210.148c1.339-0.246,2.416,1.393,2.445,2.395c0.038,1.303-1.058,2.331-2.477,2.376
			c-1.254,0.04-2.464-1.297-2.444-2.703C71.504,211.117,72.664,210.148,73.965,210.148z"/>
		<path id="_x31_7" fill="#22252E" d="M74.388,196.459c-0.021-1.451,1.202-2.861,2.55-2.941c0.893-0.053,2.283,1.166,2.298,2.016
			c0.027,1.504-1.177,2.904-2.542,2.956C75.246,198.546,74.407,197.807,74.388,196.459z"/>
		<path id="_x31_6" fill="#22252E" d="M84.29,181.919c0.058,1.019-1.471,2.646-2.55,2.716c-1.327,0.086-2.333-1.1-2.464-2.907
			c-0.084-1.151,0.936-2.052,2.332-2.059C82.828,179.663,84.229,180.838,84.29,181.919z"/>
		<path id="_x31_5" fill="#22252E" d="M90.908,163.615c1.416,0.059,2.546,1.152,2.484,2.4c-0.067,1.341-1.695,2.763-3.162,2.762
			c-1.402-0.001-2.302-1.152-2.208-2.827C88.091,164.707,89.512,163.557,90.908,163.615z"/>
		<path id="_x31_4" fill="#22252E" d="M98.511,155.84c-1.176-0.032-2.634-1.573-2.525-2.669c0.087-0.88,1.819-2.399,2.702-2.37
			c1.289,0.043,2.558,1.402,2.528,2.707C101.181,155.033,100.191,155.886,98.511,155.84z"/>
		<path id="_x31_3" fill="#22252E" d="M110.796,146.263c-1.34-0.01-2.774-1.417-2.758-2.704c0.01-0.788,1.602-2.171,2.556-2.221
			c1.098-0.057,2.853,1.644,2.875,2.786C113.492,145.305,112.281,146.274,110.796,146.263z"/>
		<path id="_x31_2" fill="#22252E" d="M121.877,137.654c-0.007-1.376,0.84-2.346,2.042-2.337c1.523,0.011,2.673,0.934,2.64,2.119
			c-0.033,1.196-1.216,2.369-2.475,2.452C122.904,139.968,121.884,138.936,121.877,137.654z"/>
		<path id="_x31_1" fill="#22252E" d="M140.464,137.615c-1.118,0.001-1.853-0.764-1.877-1.958c-0.028-1.319,0.917-2.431,2.057-2.422
			c1.128,0.008,2.248,1.165,2.241,2.313C142.877,136.703,141.812,137.613,140.464,137.615z"/>
		<path id="_x31_0" fill="#22252E" d="M156.851,143.177c0.002-1.295,0.433-1.678,1.923-1.707c1.65-0.032,3.192,1.16,3.217,2.485
			c0.02,1.011-1.278,2.164-2.417,2.149C158.045,146.084,156.849,144.798,156.851,143.177z"/>
		<path id="_x39_" fill="#22252E" d="M167.385,161.462c-0.068,1.011-1.484,2.083-2.625,1.986c-1.182-0.099-2.233-1.359-2.088-2.5
			c0.111-0.87,1.309-1.923,2.186-1.921C166.078,159.03,167.459,160.361,167.385,161.462z"/>
		<path id="_x38_" fill="#22252E" d="M154.784,174.977c0.007-1.659,0.557-2.245,2.087-2.224c1.45,0.02,2.516,0.895,2.478,2.033
			c-0.045,1.353-1.133,2.483-2.418,2.515C155.675,177.33,154.778,176.359,154.784,174.977z"/>
		<path id="_x37_" fill="#22252E" d="M144.327,176.859c-0.042,1.464-0.84,2.329-2.148,2.326c-1.192-0.002-2.449-1.242-2.499-2.465
			c-0.049-1.196,1.134-2.09,2.708-2.046C143.62,174.708,144.364,175.546,144.327,176.859z"/>
		<path id="_x36_" fill="#22252E" d="M132.438,170.354c0,1.098-0.752,1.732-2.038,1.719c-1.198-0.012-2.516-1.229-2.559-2.36
			c-0.033-0.881,1.2-2.005,2.253-2.053C131.362,167.602,132.438,168.838,132.438,170.354z"/>
		<path id="_x35_" fill="#22252E" d="M122.863,160.713c-1.409,0-2.048-0.729-2.029-2.312c0.015-1.236,0.564-1.881,1.608-1.886
			c1.426-0.007,2.585,1.14,2.583,2.557C125.023,160.155,124.288,160.713,122.863,160.713z"/>
		<path id="_x34_" fill="#22252E" d="M112.808,119.082c1.294-0.039,2.985,1.089,3.062,2.105c0.08,1.07-0.448,1.804-1.447,2.192
			c-0.998,0.388-2.226,0.045-2.688-0.789c-0.189-0.341-0.268-0.742-0.415-1.108C110.626,119.767,111.016,119.135,112.808,119.082z"
			/>
		<path id="_x33_" fill="#22252E" d="M112.82,109.789c0.954-0.036,2.441,1.026,2.533,1.809c0.101,0.869-1.289,2.254-2.358,2.349
			c-1.143,0.101-2.32-0.945-2.41-2.141C110.509,110.793,111.57,109.836,112.82,109.789z"/>
		<path id="_x32_" fill="#22252E" d="M113.835,103.65c-1.193-0.037-1.597-0.534-1.531-1.882c0.077-1.555,0.859-2.459,2.075-2.4
			c1.213,0.06,2.326,1.195,2.28,2.327C116.612,102.87,115.415,103.699,113.835,103.65z"/>
		<path id="_x31_" fill="#22252E" d="M121.312,90.152c0.008,1.063-0.997,1.988-2.238,2.06c-0.946,0.054-1.792-0.844-1.743-1.851
			c0.055-1.138,0.875-2.016,1.932-2.068C120.384,88.238,121.302,89.071,121.312,90.152z"/>
	</g>
</g>
<g id="contact-lettres">
	<path id="o-interieur" fill="#1D7056" stroke="#1D7056" stroke-miterlimit="10" d="M199.171,254.984
		c0.166,5.697-1.646,10.838-4.745,15.488c-1.678,2.519-4.008,4.553-6.792,5.842c-3.777,1.748-7.604,0.994-11.443-0.022
		c-3.047-0.81-5.423-2.472-6.744-5.263c-1.225-2.588-1.899-5.407-1.467-8.327c0.557-3.767,0.895-7.585,2.527-11.119
		c1.245-2.694,2.697-5.218,4.91-7.267c0.929-0.859,1.794-1.834,2.497-2.883c1.258-1.882,3.074-2.372,5.146-2.399
		c2.081-0.028,4.136,0.289,6.165,0.663c3.834,0.708,6.575,2.738,8.199,6.47C198.671,249.034,199.089,251.954,199.171,254.984z
		 M184.242,241.225c-1.622-0.095-3.049,0.487-4.222,1.465c-3.524,2.938-6.506,6.371-8.131,10.713
		c-1.494,3.992-1.951,8.19-1.796,12.467c0.077,2.117,0.885,3.889,2.231,5.398c3.209,3.604,7.442,4.512,11.932,3.756
		c5.039-0.846,8.292-4.187,10.293-8.75c1.413-3.223,2.233-6.588,2.539-10.133c0.35-4.059-0.453-7.703-2.728-11.062
		c-0.987-1.457-2.305-2.46-3.998-2.823C188.342,241.822,186.284,241.561,184.242,241.225z"/>
	<path id="a-interieur" fill="#1D7056" stroke="#1D7056" stroke-miterlimit="10" d="M346.464,266.627
		c0.228-4.279,1.304-8.33,3.431-12.076c0.67-1.18,1.334-2.374,2.135-3.464c3.091-4.208,7.054-5.771,12.062-3.508
		c3.136,1.416,5.341,3.644,7.349,6.501c3.295,4.686,2.144,9.26,0.625,13.9c-0.603,1.838-1.354,3.711-2.676,5.291
		c-2.861,3.424-7.765,6.019-12.428,4.646c-0.914-0.27-1.867-0.454-2.792-0.615c-3.246-0.568-4.969-2.932-6.642-5.354
		C346.432,270.361,346.404,268.493,346.464,266.627z M371.553,261.08c0.284-2.368-0.293-4.46-1.773-6.295
		c-0.649-0.807-1.19-1.749-1.979-2.385c-2.722-2.199-5.271-4.649-9.419-3.023c-2.3,0.9-3.909,2.329-5.289,4.166
		c-1.55,2.062-2.209,4.557-3.12,6.93c-1.576,4.104-1.205,8.033,0.748,11.907c0.646,1.278,1.555,2.315,2.858,2.745
		c4.022,1.32,7.983,1.314,11.626-1.184C369.725,270.843,371.505,266.363,371.553,261.08z"/>
	<path id="c1" fill="#1D7056" stroke="#1D7056" stroke-miterlimit="10" d="M110.571,162.145c-3.682,2.876-6.903,6.18-9.523,10.133
		c-2.154,3.25-4.612,6.297-6.646,9.639c-2.152,3.536-4.076,7.206-5.59,11.038c-0.802,2.029-1.259,4.29-1.171,6.546
		c0.066,1.696-0.17,3.344-0.57,4.97c-0.482,1.959-0.566,3.916-0.381,5.923c0.791,8.588,2.423,17.041,4.061,25.49
		c1.022,5.271,2.911,10.29,5.206,15.104c2.244,4.707,5.846,8.104,10.822,10.145c4.649,1.906,9.433,3.029,14.38,3.018
		c3.021-0.01,5.878-1.377,8.506-2.941c3.035-1.809,5.939-3.874,8.053-6.709c1.925-2.581,3.99-5.177,4.557-8.532
		c0.115-0.68,0.24-1.352,0.981-1.792c1.396-0.831,1.954-0.718,2.443,0.822c0.913,2.873,2.268,5.564,2.953,8.554
		c0.917,3.998,0.593,7.869-0.035,11.816c-0.609,3.823-2.039,7.338-3.677,10.801c-1.377,2.909-3.409,5.312-5.847,7.335
		c-2.508,2.079-5.082,4.107-7.801,5.895c-1.893,1.244-3.932,2.449-6.413,2.235c-0.625-0.054-1.287,0.033-1.902,0.177
		c-5.021,1.174-10.084,1.068-15.199,0.824c-4.511-0.216-8.815-1.173-13.119-2.404c-2.73-0.781-5.201-2.104-7.518-3.593
		c-4.087-2.624-7.991-5.54-11.377-9.084c-1.512-1.581-2.751-3.354-3.541-5.354c-1.236-3.133-2.801-6.074-4.578-8.913
		c-0.431-0.688-0.781-1.398-1.024-2.148c-1.472-4.543-3.138-9.02-4.199-13.698c-0.854-3.765-1.066-7.579-1.253-11.396
		c-0.055-1.118-0.207-2.216-0.338-3.312c-0.738-6.135-0.256-12.292-0.437-18.434c-0.198-6.7,0.958-13.201,2.498-19.64
		c0.961-4.017,2.214-7.973,3.862-11.791c0.947-2.193,1.631-4.496,2.458-6.741c2.289-6.214,5.326-12.074,8.267-17.979
		c0.771-1.549,1.877-2.944,2.913-4.348c3.64-4.935,7.101-10.041,11.969-13.9c1.562-1.239,2.987-2.634,4.576-3.831
		c1.627-1.225,2.56-3.251,4.643-3.956c0.441-0.149,0.339-0.623,0.262-1.039c-0.247-1.333-0.472-2.67-0.666-4.011
		c-0.667-4.612-0.147-9.198,0.668-13.712c0.803-4.451,1.573-8.917,3.119-13.224c4.021-11.206,11.088-20.001,20.78-26.765
		c2.366-1.651,5.112-2.603,7.77-3.648c1.919-0.755,3.948-1.241,5.872-2.038c0.901-0.373,1.862-0.677,2.632,0.634
		c0.699,1.189,0.121,1.749-0.56,2.452c-3.569,3.688-6.569,7.783-8.821,12.408c-1.437,2.954-2.178,6.108-2.971,9.286
		c-1.18,4.729-1.958,9.525-2.884,14.295c-0.878,4.525-1.63,9.08-0.955,13.736c0.282,1.945,0.42,2.104,2.355,1.959
		c2.786-0.208,5.488-0.995,8.31-1.003c5.602-0.016,10.958,1.219,16.006,3.459c4.596,2.039,8.977,4.619,12.61,8.166
		c2.31,2.254,4.639,4.508,6.013,7.616c1.053,2.382,2.611,4.532,3.5,7.037c1.499,4.223,2.733,8.479,2.792,13.008
		c0.073,5.532-1.106,10.83-3.746,15.63c-1.702,3.096-3.967,5.91-6.884,8.123c-1.67,1.268-3.383,2.287-5.407,2.829
		c-4.852,1.299-9.687,2.854-14.785,2.429c-4.19-0.349-8.375-0.829-12.306-2.609c-2.902-1.314-5.82-2.585-8.71-3.928
		c-4.062-1.888-6.346-5.333-8.831-8.624c-2.42-3.205-3.789-6.997-5.122-10.766c-0.159-0.449-0.362-0.885-0.578-1.31
		C110.98,162.378,110.801,162.312,110.571,162.145z M144.771,249.198c-1.176,0.475-1.485,1.307-1.823,2.108
		c-0.657,1.565-1.577,2.973-2.785,4.147c-2.284,2.221-4.576,4.452-7.232,6.231c-2.915,1.953-5.904,3.719-9.456,4.402
		c-2.087,0.402-4.125,0.273-6.18,0.141c-4.65-0.305-9.187-1.155-13.386-3.295c-2.957-1.507-5.486-3.6-7.512-6.199
		c-1.908-2.45-4.495-4.566-4.58-8.07c-2.054-4.189-2.932-8.745-4.038-13.221c-1.262-5.11-2.389-10.245-2.609-15.543
		c-0.204-4.925-1.253-9.759-0.938-14.773c0.308-4.908,1.083-9.661,2.361-14.374c0.374-1.379,0.52-2.836,1.02-4.164
		c1.873-4.969,5.303-9.012,8.254-13.317c1.837-2.68,4.14-5.05,6.478-7.341c2.623-2.571,5.108-5.311,8.031-7.535
		c5.607-4.268,11.879-7.43,18.23-10.41c2.382-1.118,4.949-1.92,7.625-1.797c2.782,0.127,5.553,0.494,8.326,0.783
		c0.891,0.093,1.631,0.562,2.397,1.016c1.814,1.073,2.985,2.874,4.661,4.055c2.067,1.456,3.008,3.534,3.428,5.812
		c0.43,2.333,0.766,4.791-0.745,6.954c-1.72,2.465-6.979,4.809-10.504,2.826c-3.308-1.861-6.173-4.225-8.042-7.625
		c-1.458-2.652-2.765-5.376-3.974-8.15c-0.254-0.583-0.575-1.136-0.844-1.713c-0.26-0.555-0.721-0.679-1.177-0.398
		c-2.781,1.715-5.851,2.872-8.645,4.573c-2.323,1.415-4.371,3.167-6.521,4.8c-1.641,1.247-1.68,1.23-1.068,3.23
		c1.789,5.854,4.562,11.062,8.961,15.492c2.209,2.225,4.665,3.874,7.358,5.205c4.523,2.234,9.32,3.832,14.333,4.453
		c3.799,0.471,7.597,0.362,11.364-0.898c2.22-0.743,4.24-1.815,6.307-2.804c4.217-2.02,7.347-5.104,9.458-9.413
		c2.831-5.778,3.542-11.838,3.452-18.125c-0.056-3.876-1.38-7.384-3.257-10.619c-1.715-2.955-3.807-5.718-5.963-8.379
		c-1.025-1.265-1.931-2.754-3.399-3.604c-1.97-1.139-4.211-1.901-5.282-4.175c-0.051-0.108-0.287-0.12-0.428-0.194
		c-4.405-2.319-9.03-4.112-13.987-4.593c-7.668-0.744-15.246,0.106-22.714,1.997c-2.272,0.575-4.237,1.819-6.368,2.675
		c-3.198,1.284-6.126,3.011-9.015,4.827c-2.011,1.265-4.035,2.51-5.801,4.147c-3.761,3.484-6.892,7.529-10.226,11.388
		c-3.91,4.526-7.014,9.619-10.08,14.749c-2.835,4.743-4.704,9.888-6.779,14.946c-1.967,4.794-3.26,9.83-4.721,14.8
		c-1.098,3.735-1.923,7.541-2.587,11.37c-0.641,3.698-0.535,7.459-0.574,11.203c-0.012,1.113-0.178,2.223-0.254,3.336
		c-0.301,4.372-0.33,8.737-0.043,13.118c0.344,5.269,1.354,10.421,2.346,15.585c0.858,4.472,2.056,8.834,3.773,13.063
		c1.273,3.141,3.446,5.697,5.239,8.498c0.699,1.092,1.018,2.334,1.749,3.391c1.787,2.58,3.815,4.863,6.526,6.572
		c4.249,2.681,8.497,5.361,13.148,7.277c4.774,1.969,9.786,2.491,14.954,2.396c6.309-0.115,12.334-1.232,18.18-3.602
		c5.878-2.384,10.07-6.732,13.342-11.854c2.825-4.425,4.004-9.534,3.825-14.876C146.242,256.195,146.013,252.715,144.771,249.198z
		 M104.297,130.477c3.623-1.675,7.477-2.219,10.849-4.12c1.532-0.864,3.211-1.402,4.901-1.905c3.659-1.089,3.695-1.115,3.203-5.021
		c-0.644-5.114-0.227-10.171,0.799-15.179c1.056-5.152,2.537-10.204,3.849-15.295c1.106-4.292,2.851-8.272,5.128-12.065
		c1.003-1.67,2.251-3.226,3.012-5.247c-1.274-0.115-2.179,0.426-3.07,0.88c-5.222,2.66-9.833,6.212-14.198,10.066
		c-3.618,3.194-8.238,10.948-9.794,15.566c-1.854,5.498-4.018,10.883-4.758,16.712c-0.553,4.358-0.794,8.717-0.751,13.1
		C103.475,128.791,103.819,129.512,104.297,130.477z M136.576,149.027c-0.239,0-0.478,0.005-0.716,0
		c-1.916-0.043-2.278,0.486-1.28,2.191c0.45,0.77,0.642,1.609,1.03,2.382c1.888,3.754,3.63,7.591,7.009,10.351
		c1.986,1.622,4.038,2.45,6.497,1.122c1.322-0.713,2.763-1.324,3.614-2.617c0.872-1.326,0.082-2.548-0.542-3.735
		c-0.069-0.132-0.05-0.312-0.069-0.47c-0.273-2.244-1.571-3.756-3.459-4.849c-0.825-0.478-1.609-1.047-2.476-1.43
		C143.104,150.612,140.09,149,136.576,149.027z"/>
	<path id="t2" fill="#1D7056" stroke="#1D7056" stroke-miterlimit="10" d="M420.529,178.569c-1.284-1.169-2.385-2.186-3.502-3.183
		c-2.151-1.921-3.151-4.584-4.428-7.044c-0.58-1.121,0.567-2.393,0.241-3.705c-0.11-0.452,0.65-0.637,1.138-0.484
		c0.836,0.263,1.662,0.572,2.471,0.913c4.983,2.1,10.308,2.571,15.576,3.383c5.243,0.809,10.522,0.637,15.771,0.683
		c7.559,0.067,15.13-0.275,22.679-0.732c3.807-0.23,7.619-0.417,11.426-0.696c0.94-0.069,1.906,0.081,2.854,0.195
		c2.405,0.292,4.766-0.416,7.147-0.32c3.987,0.159,7.975,0.606,11.966,0.322c5.906-0.42,11.758,0.612,17.649,0.527
		c4.15-0.059,8.301-0.083,12.451-0.194c2.632-0.07,5.22-0.242,7.818-0.667c2.648-0.433,5.002-1.557,7.371-2.69
		c0.502-0.24,0.964-0.644,1.486-0.742c1.072-0.202,1.678-0.804,2.054-1.78c0.138-0.358,0.46-0.646,0.697-0.966
		c0.425-0.571,0.991-0.77,1.683-0.65c0.803,0.139,0.935,0.778,1.037,1.42c0.908,5.733-0.099,10.915-4.371,15.157
		c-0.278,0.276-0.497,0.612-0.858,1.063c2.472,1.351,3.896,3.519,4.909,5.966c1.107,2.673,1.499,5.528,1.644,8.382
		c0.095,1.86-0.646,2.224-2.378,1.484c-0.435-0.186-0.876-0.417-1.226-0.727c-6.019-5.314-13.287-6.985-21.021-6.981
		c-7.257,0.003-14.506,0.506-21.764,0.667c-4.548,0.101-8.974,1.424-13.233,3.075c-3.566,1.383-4.321,2.868-4.126,6.592
		c0.166,3.146,0.095,6.309-0.002,9.461c-0.084,2.786-0.267,5.575-0.545,8.348c-0.39,3.887-0.989,7.75-1.154,11.662
		c-0.103,2.397-0.231,4.784-0.115,7.188c0.219,4.545,0.283,9.099,0.512,13.645c0.196,3.883,0.611,7.756,0.779,11.639
		c0.12,2.791,0.246,5.625-0.087,8.385c-0.441,3.648,0.093,7.172,0.715,10.699c0.907,5.141,3.369,9.718,5.535,14.391
		c0.531,1.146,1.188,2.229,2.357,2.943c0.646,0.395,1.036,1.017,1.082,1.97c0.064,1.336-0.468,1.799-1.628,2.165
		c-3.273,1.033-6.378,0.809-9.482-0.689c-1.846-0.891-4.01-1.146-5.367-2.938c-0.765-1.008-1.24-2.24-2.398-3.062
		c-1.298,0.984-2.579,2.041-3.941,2.976c-2.803,1.919-5.754,3.29-9.318,3.229c-2.34-0.039-4.598-0.489-6.893-0.743
		c-0.657-0.072-1.408-0.307-1.509-1.27c-0.097-0.939,0.536-1.124,1.162-1.533c5.013-3.277,8.471-7.542,9.251-13.771
		c0.599-4.763,0.892-9.533,1.229-14.312c0.462-6.516,0.84-13.038,0.847-19.563c0.005-5.024,0.382-10.031,0.405-15.05
		c0.034-7.251,0.133-14.503,0.108-21.754c-0.012-3.908-0.165-7.81-0.08-11.726c0.059-2.751-0.429-5.548-1.455-8.188
		c-0.308-0.788-0.816-1.352-1.428-1.878c-2.561-2.204-5.607-3.316-8.864-3.943c-3.237-0.623-6.471-0.384-9.745-0.178
		c-4.771,0.3-9.572,0.195-14.36,0.174c-5.594-0.024-10.929,0.77-15.865,3.717c-1.679,1.002-3.552,1.72-5.263,2.748
		c-0.987,0.593-1.776,1.291-2.553,2.096c-0.857,0.89-1.646,0.665-1.808-0.546c-0.354-2.671-0.018-5.26,1.354-7.636
		c1.278-2.218,2.747-4.296,4.646-6.043C420.043,179.234,420.215,178.959,420.529,178.569z M554.087,166.565
		c-0.87-0.388-1.242,0.057-1.679,0.405c-1.316,1.052-2.759,1.902-4.363,2.425c-3.719,1.213-7.545,2.086-11.443,2.127
		c-6.367,0.067-12.721,0.544-19.083,0.57c-8.21,0.033-16.422,0.017-24.628-0.181c-3.896-0.094-7.785,0.336-11.706-0.212
		c-2.15-0.301-4.434-0.116-6.678,0.126c-3.627,0.392-7.3,0.54-10.948,0.49c-5.337-0.074-10.668-0.472-16.004-0.627
		c-6.781-0.198-13.561-0.397-20.277-1.446c-3.763-0.587-7.631-0.719-11.125-2.515c-0.256-0.132-0.584-0.311-1.113,0.257
		c2.441,3.284,3.67,7.702,8.53,8.834c0.521,0.122,1.157,0.436,1.186,1.056c0.027,0.604-0.157,1.159-0.88,1.526
		c-0.905,0.46-1.693,1.169-2.491,1.82c-2.272,1.853-3.571,4.294-4.293,7.172c2.412-1.34,5.161-1.576,7.479-2.864
		c2.211-1.229,4.665-1.622,7.039-2.14c5.298-1.155,10.725-1.595,16.125-1.903c7.182-0.41,14.341-0.166,21.101,2.843
		c2.212,0.985,4.592,2.016,5.88,3.98c1.812,2.762,3.183,5.839,3.218,9.35c0.078,7.644-0.459,15.281-0.177,22.93
		c0.052,1.406,0.247,2.847,0.035,4.273c-0.604,4.051-0.289,8.128-0.31,12.194c-0.013,2.219,0.201,4.442,0.134,6.657
		c-0.066,2.138-0.56,4.241-0.329,6.415c0.166,1.575,0.229,3.204,0.019,4.768c-0.446,3.328-0.243,6.666-0.354,9.998
		c-0.125,3.66,0.163,7.33-0.383,10.982c-0.447,2.995-1.075,5.955-1.86,8.87c-0.945,3.515-2.714,6.591-5.378,9.142
		c-0.658,0.629-1.565,1.078-1.985,2.027c5.004,0.986,5.834,0.947,9.473-1.157c1.354-0.784,2.615-1.763,3.809-2.831
		c0.801-0.717,1.555-1.357,1.787-2.434c0.191-0.895,0.716-1.438,1.631-1.438c0.763,0.002,1.666,1.131,1.768,2.067
		c0.288,2.655,2.8,5.633,5.1,6.033c1.337,0.233,2.67,0.513,4.018,0.659c1.213,0.131,2.449,0.455,4.058,0.031
		c-1.812-1.468-2.607-3.242-3.416-5.019c-2.853-6.271-5.249-12.654-5.17-19.694c0.006-0.474-0.146-0.947-0.183-1.424
		c-0.267-3.496-1.168-6.934-1.079-10.456c0.157-6.308-0.822-12.565-0.686-18.876c0.072-3.33-0.336-6.666,0.104-10
		c0.221-1.658,0.395-3.328,0.459-4.998c0.192-4.854,0.416-9.71,0.448-14.567c0.04-5.994,1.239-11.903,1.164-17.902
		c-0.02-1.589,0.683-2.959,2.098-3.811c3.063-1.842,6.146-3.688,9.739-4.291c4.555-0.765,9.115-1.468,13.758-1.467
		c3.341,0.001,6.688-0.006,10.018-0.227c3.002-0.199,5.971-0.491,9.007-0.45c4.584,0.062,8.715,1.647,12.981,2.877
		c1.999,0.576,3.406,2.011,5.042,3.128c0.775,0.531,1.248,0.291,1.207-0.571c-0.103-2.113-0.676-4.028-2.242-5.589
		c-1.298-1.293-2.648-2.499-4.172-3.526c-1.354-0.913-1.337-1.645-0.057-2.741c0.242-0.208,0.444-0.48,0.716-0.632
		C552.697,174.375,553.016,170.291,554.087,166.565z"/>
	<path id="t1" fill="#1D7056" stroke="#1D7056" stroke-miterlimit="10" d="M308.629,290.445c-1.882,1.764-3.773,3.354-5.448,5.146
		c-3.216,3.441-7.178,5.153-11.789,5.71c-2.167,0.264-4.299-0.1-6.448-0.005c-0.772,0.033-1.424-0.304-1.713-1.067
		c-0.294-0.777,0.292-1.125,0.815-1.524c2.961-2.269,4.966-5.312,7.043-8.356c3.226-4.73,5.621-9.815,7.392-15.223
		c1.381-4.217,1.591-8.609,1.867-12.996c0.199-3.172,0.024-6.344,0.568-9.527c0.452-2.644,0.235-5.412,0.205-8.125
		c-0.023-2.152-0.219-4.303,0.146-6.448c0.08-0.467,0.047-0.959,0.017-1.437c-0.289-4.53-0.258-9.072-0.469-13.602
		c-0.257-5.5-0.13-11.002-0.336-16.493c-0.144-3.82,0.025-7.656-0.488-11.471c-0.259-1.931-1.076-3.34-2.388-4.775
		c-3.049-3.338-6.987-4.468-11.179-5.326c-7.233-1.479-14.433-0.801-21.665-0.058c-4,0.411-7.826,1.415-11.631,2.621
		c-2.445,0.775-4.828,1.627-6.681,3.509c-0.446,0.453-1.009,0.546-1.54,0.314c-0.586-0.257-0.634-0.836-0.615-1.435
		c0.108-3.44,1.643-6.286,3.708-8.9c1.129-1.429,2.324-2.806,3.479-4.196c-0.781-1.172-2.035-1.661-2.936-2.564
		c-3.175-3.186-5.164-7.008-6.155-11.368c-0.312-1.372,0.303-2.029,1.686-1.662c0.741,0.196,1.506,0.361,2.228,0.778
		c5.088,2.942,10.743,3.939,16.479,4.532c4.905,0.506,9.825,0.869,14.739,1.288c5.414,0.462,10.827,0.065,16.241-0.02
		c1.956-0.031,3.929-0.256,5.867,0.165c1.131,0.246,2.235-0.021,3.333-0.103c4.68-0.347,9.377-0.036,14.049-0.401
		c8.008-0.626,16.034-0.965,24.057-1.083c3.736-0.056,7.467-0.287,11.188-0.443c4.44-0.187,8.948-0.313,13.296-1.382
		c4.268-1.049,8.432-2.452,11.684-5.665c0.455-0.45,0.93-0.708,1.678-0.659c1.504,0.1,1.889,0.483,1.24,1.829
		c-0.354,0.736-0.635,1.417-0.617,2.251c0.076,3.431-0.876,6.606-2.334,9.687c-0.533,1.127-1.303,1.963-2.158,2.802
		c-0.645,0.632-0.882,1.301,0.18,1.881c1.721,0.942,2.455,2.689,3.193,4.344c1.184,2.649,1.582,5.498,1.787,8.377
		c0.049,0.678,0.082,1.349-0.622,1.624c-0.597,0.233-1.11,0.698-1.957,0.208c-5.17-2.996-10.81-4.78-16.697-5.46
		c-7.054-0.815-14.157-1.356-21.271-1.048c-3.646,0.158-7.317,0.333-10.881,1.262c-2.072,0.542-3.724,1.442-5.197,3.319
		c-1.439,1.833-2.783,3.589-3.605,5.756c-0.625,1.647-0.902,3.317-0.984,5.104c-0.18,3.898-0.727,7.778-0.562,11.697
		c0.205,4.861,0.306,9.722,0.6,14.583c0.259,4.269,0.112,8.572,0.108,12.857c-0.002,2.837,0.11,5.736,0.438,8.571
		c0.338,2.929,0.072,5.851,0.371,8.781c0.515,5.062,0.613,10.164,1.053,15.241c0.317,3.648,0.372,7.332,1.368,10.873
		c1.43,5.074,3.884,9.586,7.791,13.224c0.562,0.522,1.285,0.581,1.928,0.86c0.619,0.271,1.382,0.203,1.873,0.914
		c1.396,2.019,1.027,3.215-1.415,3.606c-4.386,0.703-8.729,0.731-12.863-1.312c-1.067-0.527-2.274-0.78-3.317-1.345
		c-2.49-1.348-4.646-3.062-5.947-5.702C309.932,292.004,309.153,291.176,308.629,290.445z M247.119,187.106
		c0.133,0.125,0.266,0.251,0.398,0.377c0.797-0.353,1.592-0.71,2.392-1.057c3.896-1.692,7.944-2.914,12.146-3.489
		c6.149-0.842,12.315-1.448,18.549-1.091c4.245,0.243,8.373,0.837,12.338,2.473c4.982,2.057,7.919,5.775,8.986,10.953
		c0.461,2.237,0.751,4.509,0.677,6.852c-0.085,2.69-0.018,5.399,0.327,8.107c0.289,2.271,0.469,4.629,0.061,6.913
		c-0.621,3.477-0.379,6.962-0.399,10.45c-0.028,5.027,0.679,10.027,0.621,15.045c-0.084,7.241-0.259,14.483-0.778,21.709
		c-0.131,1.826-0.079,3.688-0.387,5.469c-0.637,3.679-1.533,7.297-2.872,10.822c-2.204,5.803-5.379,11.018-8.96,16.029
		c-0.468,0.655-1.309,1.082-1.488,2.299c3.012-0.917,5.998-1.164,8.482-2.84c3.724-2.512,7.113-5.402,9.207-9.495
		c0.385-0.751,0.802-1.106,1.607-1.118c0.912-0.014,1.525,0.354,1.809,1.244c0.096,0.303,0.227,0.598,0.368,0.883
		c1.826,3.678,3.993,6.949,7.741,9.125c3.805,2.207,7.707,2.711,12.037,2.207c-0.187-0.389-0.229-0.666-0.391-0.791
		c-4.521-3.494-7.085-8.293-9.254-13.434c-1.087-2.575-1.601-5.27-1.593-7.925c0.017-5.892-0.712-11.733-0.983-17.599
		c-0.247-5.33-0.446-10.679-0.719-16.014c-0.355-6.921-0.413-13.858-0.625-20.788c-0.073-2.375-0.372-4.75-0.303-7.118
		c0.092-3.188,0.308-6.362-0.093-9.55c-0.33-2.62-0.297-5.288,0.041-7.879c0.563-4.312,2.799-7.946,5.539-11.214
		c1.047-1.248,2.299-2.451,3.976-2.957c3.608-1.09,7.339-1.681,11.071-1.665c6.916,0.028,13.853-0.024,20.732,0.89
		c4.982,0.662,9.969,1.318,14.714,3.127c1.775,0.677,3.593,1.25,5.466,1.896c0.481-3.788-1.188-6.527-3.86-8.732
		c-1.376-1.134-2.814-2.182-4.906-1.817c-1.207,0.21-1.729-0.707-1.582-2.044c0.106-0.961,0.796-1.602,1.815-1.304
		c2.322,0.68,3.625-0.634,4.785-2.231c1.521-2.092,2.438-4.475,2.992-6.984c0.133-0.609,0.717-1.286-0.012-2.019
		c-2.025,1.121-4.014,2.298-6.188,3.085c-7.627,2.761-15.574,3.212-23.574,3.258c-6.391,0.036-12.781-0.167-19.168,0.121
		c-6.609,0.297-13.209,0.796-19.83,0.816c-4.709,0.014-9.419,0.046-14.127,0.126c-4.134,0.07-8.277,0.463-12.395,0.273
		c-5.254-0.242-10.521-0.51-15.756-0.993c-4.59-0.423-9.178-1.083-13.627-2.478c-2.171-0.68-4.25-1.577-6.497-2.559
		c-0.038,1.35,0.592,2.267,1.067,3.088c2.083,3.598,4.142,7.331,9.118,7.317c-0.229,1.929-0.219,1.943-1.423,2.754
		C250.886,179.993,249.079,183.604,247.119,187.106z"/>
	<path id="n" fill="#1D7056" stroke="#1D7056" stroke-miterlimit="10" d="M243.202,260.141c-0.103,6.922,1.307,13.614,2.84,20.318
		c0.903,3.943,2.344,7.542,4.718,10.8c0.816,1.12,0.481,1.718-0.932,1.818c-0.636,0.045-1.286-0.04-1.915,0.045
		c-3.325,0.453-6.073-0.94-8.687-2.708c-1.755-1.188-1.704-1.198-3.42-0.064c-4.277,2.824-9.079,3.764-14.106,3.762
		c-1.395,0-1.563-0.354-0.902-1.604c0.967-1.831,2.601-3.204,3.507-5.104c0.515-1.078,1.006-2.123,1.313-3.301
		c1.8-6.908,2.672-13.934,2.92-21.054c0.075-2.151,0.267-4.3,0.345-6.452c0.186-5.117-0.48-10.197-0.764-15.294
		c-0.131-2.356,0.069-4.72-0.482-7.085c-0.933-3.999-2.629-7.466-5.812-10.139c-1.635-1.373-3.116-2.917-4.994-4.008
		c-1.177-0.683-1.154-1.281-0.146-2.259c1.013-0.982,2.327-1.438,3.641-1.71c6.357-1.316,12.307-0.383,17.862,3.148
		c3.998,2.541,8.332,4.139,13.16,4.543c4.312,0.361,8.612,0.152,12.914,0.306c0.315,0.011,0.659,0.075,0.942-0.023
		c2.595-0.906,4.506,0.639,6.528,1.787c2.458,1.396,3.532,3.769,4.383,6.283c0.56,1.653,1.579,3.075,2.124,4.765
		c1.593,4.938,2.823,9.97,3.523,15.083c0.569,4.157,0.789,8.375,0.845,12.599c0.08,6.123,0.229,12.266,1.456,18.299
		c0.453,2.227,1.422,4.245,3.583,5.424c0.336,0.183,0.642,0.476,0.872,0.785c0.866,1.168,0.663,1.764-0.702,2.258
		c-2.929,1.062-5.958,1.035-8.994,0.779c-1.065-0.089-1.929-0.802-2.684-1.468c-0.768-0.678-1.282-0.651-2.031-0.048
		c-3.312,2.676-7.227,3.123-11.287,2.9c-0.528-0.028-1.089-0.293-1.545-0.586c-0.905-0.58-0.95-1.718,0.024-2.053
		c2.137-0.734,2.781-2.52,3.393-4.324c1.547-4.564,2.306-9.25,1.946-14.089c-0.456-6.122-0.908-12.243-2.23-18.262
		c-0.497-2.263-1.091-4.506-1.958-6.646c-1.114-2.748-3.094-4.924-5.669-6.265c-2.355-1.226-4.866-0.666-6.955,0.94
		c-3.157,2.428-5.007,5.709-5.87,9.585C243.346,254.57,243.244,257.352,243.202,260.141z M247.775,290.531
		c-1.309-1.44-1.835-3.123-2.54-4.725c-1.207-2.742-1.292-5.746-2.076-8.58c-2.066-7.467-2.53-15.069-2.14-22.763
		c0.307-6.058,2.925-10.87,7.912-14.271c1.954-1.332,4.142-2.373,6.704-1.821c4.497,0.97,7.103,3.962,8.589,8.081
		c0.265,0.732,0.433,1.513,0.749,2.244c1.526,3.539,2.032,7.367,2.513,11.101c0.298,2.317,0.765,4.677,0.763,7.071
		c-0.001,1.181-0.16,2.396,0.033,3.561c0.836,5.036,0.109,9.971-0.827,14.901c-0.392,2.063-1.321,3.953-2.101,5.942
		c2.763,0.156,5.717-1.369,7.667-3.846c1.237-1.572,2.178-1.652,3.192-0.039c1.942,3.088,5.147,3.616,9.157,2.381
		c-1.609-1.799-2.666-3.588-3.082-5.685c-0.435-2.185-0.761-4.394-1.05-6.603c-0.61-4.68-0.458-9.4-0.682-14.101
		c-0.246-5.187-0.383-10.388-1.733-15.419c-1.239-4.615-2.85-9.13-4.17-13.726c-0.498-1.731-1.34-3.235-2.285-4.713
		c-0.57-0.891-1.318-1.623-2.371-1.922c-2.22-0.631-4.42-1.271-6.788-1.211c-3.114,0.079-6.233-0.026-9.35-0.046
		c-5.395-0.035-10.444-1.426-14.988-4.285c-3.112-1.958-6.407-3.14-10.005-3.702c-3.15-0.492-6.241-0.689-9.601,0.74
		c1.121,0.804,2.021,1.425,2.895,2.082c1.207,0.908,2.363,1.821,3.317,3.064c3.668,4.779,4.849,10.37,5.332,16.14
		c0.324,3.863,0.193,7.765,0.311,11.647c0.097,3.182-0.113,6.347-0.257,9.521c-0.191,4.215-0.184,8.442-0.595,12.644
		c-0.579,5.907-2.036,11.569-5.163,16.704c-0.11,0.182-0.098,0.438-0.174,0.813c4.233-0.247,7.755-1.858,10.7-4.725
		c1.69-1.646,2.125-1.742,3.445,0.127c1.271,1.8,3.12,2.728,4.995,3.567C245.095,291.146,246.332,291.548,247.775,290.531z"/>
	<path id="c2" fill="#1D7056" stroke="#1D7056" stroke-miterlimit="10" d="M449.524,257.26c-1.106-0.371-1.228-1.365-1.642-2.092
		c-1.477-2.588-3.266-4.92-5.73-6.6c-3.726-2.534-9.828-2.014-13.452,0.74c-2.268,1.725-3.758,3.838-4.641,6.487
		c-0.901,2.714-1.94,5.39-1.931,8.313c0.012,2.945,1.098,5.336,3.229,7.438c6.201,6.109,13.214,5.776,20.587,2.811
		c3.144-1.267,5.981-3.002,7.768-6.049c0.324-0.557,0.622-1.201,1.424-1.008c0.876,0.213,0.922,0.993,1.02,1.713
		c0.456,3.414-0.219,6.649-1.398,9.85c-2.617,7.104-7.944,11.234-14.765,13.871c-3.554,1.373-7.243,2.031-10.986,2.037
		c-2.763,0.002-5.434-0.72-7.961-2.145c-4.679-2.637-8.43-6.32-11.69-10.408c-4.18-5.238-5.774-11.568-6.775-18.146
		c-0.747-4.905,0.633-9.265,2.22-13.671c2.405-6.674,6.476-12.239,11.882-16.754c2.437-2.035,5.306-3.555,8.282-4.712
		c1.465-0.569,2.865-1.277,4.447-1.649c4.517-1.062,8.179,0.43,11.805,2.978c2.907,2.043,5.32,4.544,7.636,7.135
		c3.213,3.596,4.797,7.812,3.645,12.719C451.896,252.667,451.393,255.271,449.524,257.26z M449.768,252.602
		c1.206-3.707,1.728-6.968,0.17-10.115c-2.152-4.354-5.607-7.641-9.368-10.655c-3.396-2.721-7.361-3.185-11.244-2.293
		c-4.005,0.92-7.714,2.834-11.027,5.498c-6.313,5.074-10.364,11.592-12.827,19.179c-1.593,4.907-1.269,9.887-0.205,14.854
		c0.604,2.82,1.646,5.486,3.047,7.986c1.967,3.51,4.672,6.473,7.461,9.328c3.826,3.919,8.361,6.344,14.024,6.03
		c1.993-0.11,3.993-0.233,5.968-0.509c3.025-0.42,5.893-1.295,8.47-3.062c4.382-3.007,8.152-6.464,9.399-11.909
		c0.433-1.885,1.123-3.754,0.809-6.06c-2.076,1.892-4.093,3.373-6.356,4.505c-3.916,1.957-8.146,2.734-12.426,3.189
		c-1.87,0.199-3.833,0.08-5.622-0.779c-1.43-0.688-2.947-1.246-4.265-2.107c-1.718-1.123-3.505-2.269-4.429-4.238
		c-1.808-3.854-1.841-7.827-0.824-11.901c0.764-3.058,1.996-5.909,3.753-8.487c2.3-3.378,5.184-5.908,9.534-6.451
		c3.763-0.471,7.024,0.75,10.188,2.414C446.247,248.199,448.093,249.943,449.768,252.602z"/>
	<path id="a-exterieur" fill="#1D7056" stroke="#1D7056" stroke-miterlimit="10" d="M366.285,232.329
		c2.447,0.145,4.915-0.621,7.357,0.014c2.849,0.74,5.498,1.715,7.737,3.845c1.556,1.479,3.043,2.989,4.528,4.533
		c2.007,2.086,2.441,4.547,2.656,7.189c0.291,3.561,0.166,7.131,0.299,10.691c0.171,4.608,0.132,9.231,0.664,13.832
		c0.236,2.047,0.039,4.121,0.312,6.197c0.599,4.562,2.015,8.799,4.421,12.702c1.165,1.89,2.094,3.942,3.862,5.425
		c0.905,0.758,0.606,1.571-0.265,2.162c-1.258,0.852-2.584,1.62-4.14,1.715c-1.673,0.103-3.354,0.161-5.026,0.1
		c-2.116-0.079-3.938-0.807-5.668-2.187c-2.135-1.703-4.06-3.597-6-5.489c-1.002-0.979-1.537-2.221-1.948-3.527
		c-0.216-0.682-0.437-1.363-0.634-2.053c-0.256-0.897-0.762-0.896-1.426-0.43c-1.437,1.012-2.85,2.059-4.32,3.016
		c-5.562,3.627-11.402,4.203-17.519,1.504c-0.362-0.16-0.733-0.31-1.112-0.424c-5.032-1.531-8.295-5.101-10.769-9.496
		c-1.722-3.061-2.981-6.347-4.183-9.639c-0.721-1.974-0.278-4.093-0.301-6.123c-0.055-4.859,0.799-9.635,1.939-14.369
		c0.828-3.434,2.999-6.023,5.188-8.492c5.254-5.932,11.998-9.375,19.799-10.663C363.217,232.12,364.77,232.329,366.285,232.329z
		 M395.747,297.307c-0.229-0.904-0.869-1.521-1.406-2.207c-4.098-5.231-6.353-11.264-6.893-17.789
		c-0.513-6.185-0.416-12.418-0.612-18.629c-0.138-4.363-0.158-8.733-0.999-13.054c-0.493-2.534-1.626-4.716-3.669-6.203
		c-1.464-1.065-3.161-1.84-4.646-2.917c-1.328-0.962-2.857-1.296-4.438-1.497c-0.631-0.08-1.259-0.195-1.892-0.263
		c-3.662-0.397-7.321-0.689-10.963,0.16c-4.478,1.044-8.49,3.133-12.263,5.667c-3.417,2.296-6.438,4.989-7.454,9.271
		c-0.125,0.529-0.545,0.98-0.73,1.504c-2.021,5.664-3.883,11.352-2.123,17.481c0.24,0.839,0.355,1.714,0.518,2.575
		c0.579,3.086,1.598,6.027,3.374,8.613c2.554,3.718,5.771,6.81,9.462,9.408c1.413,0.995,2.922,1.538,4.705,1.389
		c1.432-0.121,2.863-0.323,4.284-0.379c5.646-0.224,9.944-3.006,13.707-6.893c0.388-0.4,0.66-1.064,1.293-0.83
		c0.708,0.264,0.976,0.879,0.962,1.717c-0.044,2.891,0.864,5.453,2.786,7.658c2.833,3.252,6.401,5.154,10.597,6.004
		C391.573,298.547,393.761,298.894,395.747,297.307z"/>
	<path id="o-exterieur" fill="#1D7056" stroke="#1D7056" stroke-miterlimit="10" d="M184.708,222.856
		c2.58,0.455,5.419-0.027,8.132,0.9c1.588,0.542,3.086,1.345,4.53,2.087c2.933,1.508,6.062,2.644,8.62,5.012
		c1.756,1.627,3.238,3.47,4.934,5.126c1.037,1.013,1.456,2.513,1.776,3.879c1.213,5.178,2.797,10.32,2.465,15.731
		c-0.333,5.446-0.7,10.906-3.077,15.958c-2.229,4.735-5.297,8.854-9.313,12.227c-2.251,1.891-4.469,3.814-6.899,5.502
		c-1.839,1.275-3.926,1.707-5.951,2.354c-5.015,1.604-10.082,2.201-15.303,0.812c-1.684-0.447-3.369-0.913-5.05-1.375
		c-3.354-0.924-6.23-2.959-8.154-5.606c-2.453-3.377-4.362-7.2-5.585-11.306c-1.973-6.625-2.089-13.251-1.017-20.065
		c0.726-4.61,1.649-9.104,3.758-13.247c3.03-5.95,6.66-11.397,12.816-14.724C175.964,223.65,178.671,222.811,184.708,222.856z
		 M181.841,290.863c6.018,0.304,11.299-1.543,15.998-5.271c2.008-1.593,3.997-3.217,5.738-5.073c2.721-2.905,5.352-5.929,6.72-9.774
		c1.444-4.058,2.335-8.243,2.895-12.519c0.515-3.936,0.407-7.789-0.837-11.584c-0.122-0.371-0.076-0.795-0.169-1.181
		c-1.242-5.116-3.146-9.812-7.852-12.833c-1.341-0.861-2.771-1.567-4.089-2.443c-3.777-2.512-7.781-4.129-12.384-4.623
		c-5.877-0.629-11.213,0.646-16.382,3.24c-2.078,1.042-3.337,2.916-4.855,4.525c-1.578,1.674-3.101,3.386-4.197,5.459
		c-0.662,1.252-1.265,2.531-1.927,3.779c-1.693,3.191-3.055,6.561-3.495,10.097c-0.874,7.036-1.442,14.097,0.827,21.069
		c1.315,4.041,3.569,7.408,6.327,10.539c1.471,1.67,3.386,2.582,5.336,3.506C173.416,289.635,177.397,291.195,181.841,290.863z"/>
	<path id="t2-fill" fill="#1D7056" d="M554.087,166.565c-1.071,3.725-1.39,7.81-5.368,10.046c-0.271,0.152-0.474,0.425-0.716,0.632
		c-1.281,1.097-1.298,1.829,0.056,2.741c1.523,1.027,2.874,2.233,4.173,3.526c1.566,1.561,2.141,3.476,2.241,5.589
		c0.041,0.862-0.431,1.102-1.207,0.571c-1.635-1.117-3.043-2.552-5.042-3.128c-4.267-1.229-8.396-2.815-12.98-2.877
		c-3.036-0.041-6.005,0.251-9.007,0.45c-3.329,0.221-6.678,0.228-10.018,0.227c-4.643-0.001-9.204,0.703-13.758,1.467
		c-3.593,0.604-6.676,2.449-9.739,4.291c-1.416,0.852-2.116,2.221-2.098,3.811c0.075,6-1.124,11.909-1.164,17.902
		c-0.032,4.857-0.256,9.713-0.448,14.567c-0.064,1.669-0.238,3.34-0.459,4.998c-0.44,3.334-0.033,6.67-0.104,10
		c-0.139,6.31,0.843,12.569,0.686,18.876c-0.089,3.521,0.812,6.96,1.079,10.456c0.036,0.478,0.188,0.95,0.182,1.424
		c-0.078,7.04,2.318,13.425,5.171,19.694c0.809,1.775,1.604,3.551,3.416,5.018c-1.607,0.424-2.845,0.101-4.058-0.031
		c-1.348-0.146-2.681-0.426-4.018-0.658c-2.3-0.4-4.812-3.377-5.1-6.033c-0.102-0.938-1.005-2.066-1.768-2.068
		c-0.915,0-1.438,0.545-1.631,1.438c-0.232,1.075-0.986,1.717-1.787,2.435c-1.192,1.067-2.453,2.047-3.81,2.83
		c-3.638,2.105-4.468,2.145-9.472,1.157c0.42-0.949,1.327-1.397,1.985-2.028c2.664-2.55,4.433-5.625,5.378-9.141
		c0.785-2.915,1.413-5.875,1.859-8.87c0.547-3.651,0.259-7.323,0.384-10.983c0.111-3.33-0.093-6.668,0.354-9.998
		c0.21-1.562,0.147-3.19-0.019-4.767c-0.229-2.174,0.263-4.278,0.329-6.415c0.067-2.215-0.146-4.438-0.135-6.657
		c0.021-4.066-0.293-8.143,0.311-12.194c0.212-1.426,0.017-2.867-0.035-4.273c-0.282-7.649,0.255-15.286,0.177-22.93
		c-0.036-3.51-1.406-6.588-3.218-9.35c-1.288-1.964-3.668-2.995-5.88-3.98c-6.76-3.009-13.919-3.253-21.102-2.843
		c-5.399,0.308-10.826,0.748-16.125,1.903c-2.374,0.518-4.827,0.911-7.038,2.14c-2.317,1.288-5.066,1.523-7.479,2.864
		c0.722-2.878,2.021-5.319,4.293-7.172c0.798-0.651,1.586-1.36,2.491-1.82c0.723-0.367,0.907-0.921,0.88-1.526
		c-0.027-0.62-0.663-0.934-1.187-1.056c-4.859-1.132-6.088-5.55-8.529-8.834c0.529-0.567,0.857-0.389,1.113-0.257
		c3.494,1.796,7.362,1.928,11.124,2.515c6.719,1.049,13.496,1.249,20.278,1.446c5.336,0.155,10.667,0.553,16.004,0.627
		c3.648,0.05,7.321-0.098,10.948-0.49c2.244-0.243,4.526-0.427,6.678-0.126c3.92,0.548,7.811,0.118,11.706,0.212
		c8.206,0.198,16.418,0.214,24.628,0.181c6.362-0.026,12.715-0.503,19.083-0.57c3.898-0.041,7.726-0.915,11.443-2.127
		c1.604-0.523,3.047-1.374,4.363-2.425C552.845,166.622,553.217,166.177,554.087,166.565z M483.452,230.544
		c1.102,0.043,2.477-0.972,2.444-1.807c-0.032-0.854-1.017-1.802-1.866-1.798c-1.12,0.004-2.123,0.783-2.216,1.722
		C481.712,229.695,482.415,230.503,483.452,230.544z M437.816,178.846c0.879,0.039,1.842,0.181,1.844-1.148
		c0.002-1.235-0.983-2.073-2.383-2.077c-1.027-0.003-1.812,0.628-1.811,1.454C435.472,178.036,436.506,178.816,437.816,178.846z
		 M483.346,269.755c1.104,0.017,2.223-0.848,2.19-1.692c-0.031-0.867-1.188-2.11-1.96-2.105c-1.114,0.007-2.121,1.035-2.091,2.136
		C481.515,269.145,482.179,269.736,483.346,269.755z M484.424,178.62c-1.202,0.063-2.684,1.507-2.51,2.324
		c0.183,0.855,0.747,1.355,1.664,1.356c1.178,0.002,2.45-1.197,2.265-2.253C485.698,179.222,485.044,178.776,484.424,178.62z
		 M485.043,279.975c-0.01-0.818-1.206-2.113-1.936-2.097c-0.903,0.021-1.729,1.097-1.696,2.211c0.026,0.979,0.624,1.517,1.699,1.527
		C484.184,281.628,485.054,280.889,485.043,279.975z M483.646,243.221c1.192,0.021,2.207-0.601,2.257-1.343
		c0.048-0.719-0.974-1.979-1.642-2.026c-1.229-0.085-1.979,0.707-2.021,2.044C482.207,242.965,482.785,243.27,483.646,243.221z
		 M481.38,254.729c0.024,0.965,0.858,1.812,1.803,1.83c1.086,0.021,2.001-0.746,1.934-1.621c-0.065-0.855-1.095-1.972-1.794-1.946
		C482.413,253.023,481.36,253.965,481.38,254.729z M503.418,179.67c0.015-0.683-1.383-2.081-2.046-2.046
		c-0.785,0.041-1.786,1.064-1.863,1.905c-0.081,0.893,0.605,1.665,1.546,1.737C502.018,181.341,503.402,180.406,503.418,179.67z
		 M536.767,177.063c-1.473-0.015-2.609,0.835-2.506,1.901c0.108,1.11,1.125,1.02,1.803,1.145c1.062,0.196,2.127-0.577,2.163-1.336
		C538.276,177.767,537.684,177.073,536.767,177.063z M484.055,217.219c0.932-0.055,2.06-1,1.989-1.665
		c-0.083-0.795-1.192-1.956-1.8-1.882c-1.019,0.124-1.913,0.941-1.897,1.731C482.369,216.54,483.062,217.278,484.055,217.219z
		 M513.935,177.144c-0.968-0.013-1.474,0.576-1.477,1.718c-0.003,1.087,0.683,1.856,1.693,1.902
		c0.841,0.038,1.613-0.718,1.683-1.642C515.91,178.075,515.029,177.157,513.935,177.144z M485.701,204.561
		c0.021-0.764-0.793-1.93-1.396-2.001c-0.921-0.109-2.13,0.89-2.146,1.773c-0.021,1.219,0.547,1.895,1.608,1.914
		C484.793,206.264,485.678,205.493,485.701,204.561z M485.777,192.834c-0.07-0.833-1.012-1.637-1.803-1.539
		c-1.071,0.133-2.15,1.114-2.048,1.966c0.11,0.912,0.676,1.374,1.636,1.315C484.755,194.504,485.847,193.662,485.777,192.834z
		 M427.517,182.921c1.148-0.009,1.935-0.575,1.874-1.35c-0.072-0.941-1.285-1.938-2.401-1.93c-1.055,0.008-1.297,0.786-1.349,1.613
		C425.581,182.239,426.404,182.93,427.517,182.921z M459.585,178.303c-0.001-1.056-1.081-2.099-2.025-2.103
		c-0.772-0.003-1.75,0.842-1.812,1.567c-0.067,0.786,0.935,1.606,2.037,1.579C458.599,179.327,459.326,179.066,459.585,178.303z
		 M469.594,177.077c-0.773-0.06-1.369,0.303-1.382,1.321c-0.014,1.125,1.058,2.281,2.061,2.159c0.879-0.107,1.44-0.568,1.392-1.574
		C471.602,177.753,470.941,177.064,469.594,177.077z M427.412,175.271c0.609-0.095,1.414-0.137,1.615-0.996
		c0.19-0.816-1.028-1.992-1.971-2.008c-0.992-0.017-1.776,0.643-1.792,1.505C425.251,174.713,426.006,175.269,427.412,175.271z
		 M477.173,287.534c-0.688,0.075-1.89,1.312-1.871,1.925c0.022,0.754,1.183,1.771,1.984,1.741c0.771-0.029,1.523-1.011,1.43-1.865
		C478.596,288.259,477.905,287.453,477.173,287.534z M447.645,179.308c1.045,0.036,2.357-0.835,2.35-1.444
		c-0.011-0.729-0.938-1.733-1.632-1.771c-0.973-0.05-1.889,0.727-1.936,1.668C446.379,178.719,446.881,179.21,447.645,179.308z
		 M526.052,179.832c1.229,0.006,1.994-0.577,2.008-1.537c0.017-1.035-0.629-1.364-1.526-1.398c-1.169-0.043-2.321,0.787-2.201,1.687
		C524.455,179.512,525.152,179.863,526.052,179.832z M492.305,290.369c-0.083-1.098-1.203-2.414-2.043-2.301
		c-0.806,0.108-1.245,0.552-1.112,1.483c0.188,1.329,0.979,2.091,2.228,1.927C491.974,291.4,492.439,291.109,492.305,290.369z
		 M548.862,183.541c-0.061-0.894-1.089-1.785-1.966-1.682c-0.907,0.106-1.185,0.676-1.074,1.516
		c0.121,0.925,0.857,1.489,1.862,1.382C548.398,184.681,548.876,184.338,548.862,183.541z M547.777,173.919
		c-0.028-0.885-0.812-1.649-1.569-1.615c-0.768,0.036-1.773,1.093-1.62,1.774c0.197,0.883,0.957,1.07,1.684,1.003
		C546.979,175.016,547.679,174.734,547.777,173.919z"/>
	<path id="c2-fill" fill="#1D7056" d="M449.467,252.886c-1.675-2.657-3.521-4.401-5.771-5.586
		c-3.163-1.663-6.427-2.884-10.188-2.414c-4.352,0.544-7.234,3.074-9.535,6.451c-1.756,2.579-2.989,5.431-3.751,8.488
		c-1.018,4.073-0.984,8.047,0.823,11.901c0.924,1.971,2.711,3.115,4.428,4.238c1.317,0.861,2.835,1.419,4.266,2.107
		c1.789,0.859,3.752,0.979,5.622,0.779c4.277-0.455,8.51-1.232,12.426-3.189c2.265-1.132,4.28-2.614,6.355-4.505
		c0.315,2.306-0.376,4.175-0.808,6.059c-1.247,5.446-5.019,8.903-9.4,11.91c-2.576,1.769-5.442,2.642-8.469,3.062
		c-1.975,0.274-3.975,0.397-5.968,0.508c-5.663,0.312-10.198-2.11-14.023-6.028c-2.789-2.856-5.496-5.819-7.461-9.33
		c-1.4-2.499-2.443-5.165-3.048-7.985c-1.063-4.969-1.388-9.946,0.205-14.854c2.462-7.587,6.513-14.105,12.827-19.179
		c3.312-2.663,7.021-4.578,11.027-5.498c3.883-0.892,7.85-0.428,11.243,2.293c3.762,3.014,7.217,6.301,9.368,10.655
		C451.193,245.918,450.673,249.178,449.467,252.886z M415.605,273.736c-0.033-1.385-1.33-2.73-2.543-2.643
		c-0.986,0.072-2.213,1.662-2.147,2.782c0.062,1.046,1.567,2.22,2.782,2.169C414.805,276,415.635,274.993,415.605,273.736z
		 M428.309,237.689c-0.006,1.517,0.785,2.587,1.879,2.545c1.19-0.046,2.702-1.446,2.745-2.542c0.051-1.28-1.458-2.546-2.959-2.484
		C429.035,235.247,428.312,236.323,428.309,237.689z M438.062,285.264c0.033-1.093-1.334-2.354-2.541-2.348
		c-1.088,0.006-2.144,1.341-2.123,2.686c0.016,1.105,0.959,1.996,2.18,2.055C436.615,287.704,438.031,286.341,438.062,285.264z
		 M413.239,261.198c0.021-0.445-0.153-0.99-0.46-1.449c-0.465-0.694-0.786-1.679-1.896-1.522c-0.882,0.123-1.853,1.553-1.878,2.518
		c-0.021,0.707,0.502,1.146,0.761,1.708c0.355,0.772,1.018,1.323,1.91,1.024C412.641,263.152,413.271,262.448,413.239,261.198z
		 M422.204,280.757c-1.104-0.021-2.114,1.157-2.093,2.438c0.018,1.121,0.972,2.01,2.191,2.043c0.977,0.027,2.449-1.014,2.517-1.777
		C424.904,282.466,423.272,280.777,422.204,280.757z M423.381,242.734c0.155-1.631-0.348-2.18-2.15-2.345
		c-1.406-0.13-2.174,0.517-2.35,1.981c-0.14,1.165,0.628,1.998,1.939,2.103C422.376,244.596,423.262,243.995,423.381,242.734z
		 M444.186,240.798c0.021-1.458-1.051-2.766-2.322-2.834c-0.84-0.045-1.867,1.05-1.937,2.06c-0.078,1.184,1.543,2.483,3.043,2.455
		C444.134,242.456,444.084,241.577,444.186,240.798z M413.514,253.044c0.928-0.04,1.82-1.163,1.762-2.212
		c-0.064-1.143-0.905-1.986-1.965-1.977c-1.318,0.013-2.265,0.996-2.195,2.285C411.164,252.09,412.428,253.092,413.514,253.044z
		 M443.993,280.977c-0.105,1.351,0.159,1.676,1.452,1.793c1.097,0.102,2.395-0.953,2.466-2.004c0.062-0.914-1.092-1.988-2.217-2.062
		C444.569,278.63,444.131,279.214,443.993,280.977z"/>
	<path id="a-fill" fill="#1D7056" d="M395.445,297.59c-1.985,1.588-4.174,1.241-6.402,0.789c-4.193-0.85-7.763-2.752-10.596-6.004
		c-1.922-2.205-2.83-4.77-2.786-7.658c0.013-0.838-0.254-1.453-0.962-1.717c-0.633-0.234-0.906,0.43-1.293,0.83
		c-3.764,3.887-8.062,6.669-13.707,6.893c-1.422,0.055-2.854,0.258-4.284,0.379c-1.783,0.149-3.292-0.394-4.706-1.39
		c-3.689-2.599-6.907-5.69-9.461-9.407c-1.777-2.587-2.795-5.527-3.374-8.613c-0.162-0.861-0.276-1.736-0.519-2.576
		c-1.76-6.131,0.103-11.816,2.123-17.481c0.188-0.522,0.606-0.974,0.731-1.503c1.017-4.279,4.037-6.975,7.454-9.271
		c3.771-2.533,7.785-4.623,12.262-5.667c3.643-0.85,7.303-0.558,10.963-0.16c0.633,0.068,1.262,0.183,1.893,0.263
		c1.58,0.201,3.111,0.535,4.439,1.497c1.484,1.077,3.182,1.852,4.646,2.917c2.043,1.485,3.176,3.668,3.669,6.203
		c0.841,4.319,0.861,8.688,0.999,13.054c0.196,6.211,0.1,12.444,0.612,18.628c0.539,6.526,2.795,12.558,6.893,17.789
		C394.577,296.068,395.218,296.686,395.445,297.59z M346.163,266.911c-0.06,1.866-0.032,3.733,1.062,5.321
		c1.674,2.424,3.396,4.787,6.643,5.354c0.925,0.162,1.878,0.347,2.792,0.615c4.663,1.371,9.565-1.224,12.427-4.646
		c1.321-1.582,2.074-3.453,2.676-5.291c1.52-4.643,2.672-9.217-0.623-13.901c-2.01-2.858-4.214-5.085-7.35-6.501
		c-5.008-2.262-8.971-0.7-12.061,3.508c-0.802,1.09-1.465,2.285-2.136,3.464C347.466,258.581,346.391,262.632,346.163,266.911z
		 M378.77,269.425c1.223,0.027,2.398-1.032,2.387-2.147c-0.014-0.983-1.176-2.127-2.16-2.123c-1.407,0.004-2.174,0.848-2.268,2.5
		C376.668,268.708,377.461,269.396,378.77,269.425z M373.857,242.9c-1.172-0.033-2.201,1.043-2.207,2.306
		c-0.006,1.043,0.99,1.894,2.281,1.946c1.158,0.048,2.193-0.866,2.245-1.981C376.227,244.115,375.018,242.934,373.857,242.9z
		 M377.799,258.178c1.572-0.06,2.561-0.933,2.485-2.199c-0.068-1.188-0.99-1.982-2.214-1.912c-1.057,0.062-2.182,1.343-2.125,2.416
		C375.997,257.434,376.85,258.213,377.799,258.178z M384.65,290.506c-1.51-0.035-1.897,0.277-1.938,1.559
		c-0.041,1.326,0.604,1.92,2.089,1.927c1.434,0.006,2.376-0.679,2.385-1.732C387.197,291.162,386.302,290.544,384.65,290.506z
		 M370.639,279.559c0.061-1.18-0.785-2.066-2.051-2.151c-1.014-0.068-2.152,1.038-2.143,2.085c0.009,0.927,0.853,1.785,1.828,1.863
		C369.475,281.45,370.584,280.607,370.639,279.559z M358.156,283.725c0-1.336-0.868-2.131-2.301-2.105
		c-0.856,0.015-1.86,0.98-1.902,1.828c-0.055,1.121,1.09,2.097,2.451,2.088C357.459,285.527,358.154,284.807,358.156,283.725z
		 M350.417,247.33c1.325-0.008,2.198-0.816,2.157-1.997c-0.033-0.95-0.858-1.653-1.949-1.66c-1.197-0.007-2.025,0.778-1.975,1.87
		C348.702,246.65,349.38,247.335,350.417,247.33z M364.707,240.818c0.064-1.195-0.812-2.119-2.023-2.127
		c-1.127-0.007-2.007,0.75-2.091,1.803c-0.094,1.177,0.745,2.05,2.015,2.097C363.738,242.633,364.65,241.863,364.707,240.818z
		 M342.739,266.527c0.038-1.014-0.571-1.84-1.374-1.858c-1.137-0.026-2.29,0.94-2.311,1.938c-0.024,1.242,0.696,2.19,1.659,2.185
		C341.62,268.786,342.697,267.58,342.739,266.527z M383.622,280.684c-0.017-1.32-0.8-2.11-2.06-2.078
		c-1.033,0.026-1.812,0.969-1.742,2.11c0.059,0.954,0.916,1.796,1.855,1.82C382.912,282.568,383.637,281.878,383.622,280.684z
		 M345.823,281.411c1.173,0.042,2.096-0.654,2.2-1.66c0.104-0.991-1.027-2.11-2.109-2.091c-0.866,0.016-1.6,0.865-1.682,1.953
		C344.141,280.839,344.605,281.366,345.823,281.411z M343.505,256.491c1.019,0.005,1.687-0.603,1.699-1.546
		c0.017-1.012-0.731-1.813-1.731-1.862c-0.852-0.041-1.438,0.644-1.481,1.726C341.948,255.836,342.535,256.486,343.505,256.491z"/>
	<path id="t1-fill" fill="#1D7056" d="M247.119,187.106c1.959-3.501,3.767-7.113,7.273-9.473c1.205-0.811,1.195-0.825,1.423-2.754
		c-4.976,0.013-7.036-3.719-9.118-7.317c-0.475-0.821-1.105-1.738-1.067-3.088c2.246,0.981,4.325,1.878,6.497,2.559
		c4.449,1.394,9.037,2.054,13.627,2.478c5.236,0.483,10.502,0.751,15.756,0.993c4.118,0.19,8.261-0.203,12.395-0.273
		c4.708-0.081,9.418-0.112,14.127-0.126c6.621-0.02,13.221-0.519,19.829-0.816c6.388-0.287,12.779-0.084,19.168-0.121
		c8-0.045,15.949-0.497,23.576-3.258c2.174-0.787,4.16-1.965,6.187-3.085c0.729,0.733,0.146,1.41,0.011,2.019
		c-0.554,2.51-1.471,4.892-2.99,6.984c-1.162,1.597-2.465,2.911-4.787,2.231c-1.02-0.298-1.709,0.342-1.814,1.304
		c-0.146,1.337,0.375,2.254,1.582,2.044c2.092-0.365,3.53,0.683,4.906,1.817c2.674,2.206,4.343,4.945,3.861,8.732
		c-1.875-0.646-3.69-1.219-5.467-1.896c-4.744-1.81-9.73-2.466-14.714-3.127c-6.881-0.915-13.815-0.862-20.733-0.89
		c-3.731-0.016-7.461,0.575-11.07,1.665c-1.676,0.506-2.928,1.709-3.975,2.957c-2.741,3.268-4.977,6.901-5.54,11.214
		c-0.338,2.592-0.371,5.26-0.041,7.879c0.401,3.188,0.186,6.361,0.093,9.55c-0.068,2.368,0.23,4.744,0.303,7.118
		c0.211,6.93,0.27,13.866,0.625,20.788c0.273,5.335,0.472,10.683,0.719,16.013c0.271,5.865,1,11.707,0.983,17.6
		c-0.007,2.654,0.506,5.35,1.593,7.925c2.169,5.14,4.733,9.938,9.254,13.434c0.161,0.125,0.204,0.402,0.39,0.791
		c-4.33,0.504-8.23,0-12.036-2.208c-3.749-2.175-5.916-5.445-7.741-9.123c-0.142-0.285-0.272-0.58-0.368-0.884
		c-0.284-0.89-0.896-1.258-1.809-1.243c-0.805,0.012-1.223,0.366-1.607,1.117c-2.094,4.092-5.483,6.983-9.207,9.495
		c-2.485,1.676-5.471,1.923-8.482,2.84c0.179-1.217,1.021-1.644,1.488-2.299c3.581-5.013,6.756-10.228,8.96-16.03
		c1.339-3.524,2.235-7.144,2.872-10.82c0.309-1.781,0.256-3.644,0.387-5.469c0.52-7.227,0.694-14.469,0.778-21.709
		c0.058-5.02-0.649-10.019-0.621-15.045c0.02-3.488-0.222-6.973,0.399-10.45c0.408-2.283,0.228-4.641-0.061-6.913
		c-0.345-2.708-0.412-5.417-0.327-8.107c0.074-2.343-0.216-4.614-0.677-6.852c-1.067-5.178-4.004-8.896-8.986-10.953
		c-3.965-1.636-8.093-2.23-12.338-2.473c-6.234-0.356-12.4,0.25-18.549,1.091c-4.202,0.575-8.25,1.796-12.146,3.489
		c-0.799,0.347-1.595,0.705-2.392,1.057C247.385,187.357,247.252,187.231,247.119,187.106z M293.547,178.709
		c0.96-0.007,2.03-1.337,2.057-2.556c0.023-1.093-0.659-1.811-1.739-1.83c-1.441-0.025-2.956,1.075-3.02,2.193
		C290.786,177.524,292.259,178.719,293.547,178.709z M332.552,178.714c1.282-0.025,2.556-0.845,2.606-1.679
		c0.064-1.019-1.446-2.317-2.624-2.256c-1.321,0.069-2.245,0.895-2.248,2.008C330.283,177.934,331.232,178.741,332.552,178.714z
		 M306.996,267.055c-0.035,0.846,0.686,1.331,2.11,1.426c1.451,0.095,2.559-0.647,2.651-1.776c0.083-1.011-1.17-2.668-2.002-2.647
		C308.75,264.079,307.041,265.938,306.996,267.055z M281.76,174.521c-1.046-0.023-2.409,1.177-2.437,2.146
		c-0.032,1.104,0.916,2.079,2.094,2.153c1.195,0.076,2.379-0.944,2.431-2.093C283.888,175.836,282.662,174.541,281.76,174.521z
		 M344.198,178.924c1.584-0.02,1.946-0.334,1.974-1.713c0.027-1.41-0.849-2.378-2.126-2.35c-1.144,0.025-2.354,1.177-2.374,2.258
		C341.648,178.388,342.432,178.946,344.198,178.924z M309.489,256.691c1.418,0.014,2.301-0.728,2.246-1.883
		c-0.044-0.944-1.131-2.109-1.97-2.113c-1.07-0.006-2.462,1.184-2.514,2.146C307.188,256.027,307.973,256.677,309.489,256.691z
		 M311.399,205.182c0.034-1.046-0.928-1.996-2.15-2.123c-0.847-0.087-1.87,1.258-1.954,2.57c-0.062,0.967,0.748,1.819,1.747,1.84
		C310.025,207.49,311.366,206.188,311.399,205.182z M312.237,242.954c-0.041-0.983-1.19-2.019-2.271-2.046
		c-1.037-0.025-2.34,1.22-2.372,2.267c-0.029,0.978,1.033,1.742,2.416,1.738C311.276,244.909,312.281,244.025,312.237,242.954z
		 M308.223,176.053c-1.104-0.009-2.05,1.099-2.025,2.372c0.021,1.107,0.831,1.685,2.373,1.696c1.088,0.007,1.861-0.774,1.916-1.937
		C310.545,176.943,309.612,176.065,308.223,176.053z M309.76,218.573c1.453,0.044,2.278-0.582,2.315-1.755
		c0.037-1.15-1.093-2.286-2.266-2.279c-0.905,0.005-2,1.195-2.087,2.267C307.638,217.834,308.444,218.533,309.76,218.573z
		 M270.583,177.949c1.107-0.013,1.994-0.921,1.933-1.98c-0.069-1.203-0.997-2.261-2.022-2.306c-1.171-0.051-2.138,0.995-2.172,2.352
		C268.3,176.904,269.535,177.961,270.583,177.949z M309.067,275.609c-1.115,0.123-3.008,2.187-2.844,3.1
		c0.144,0.803,1.028,1.332,2.017,1.205c1.286-0.164,2.442-1.378,2.378-2.495C310.57,276.566,309.689,275.54,309.067,275.609z
		 M320.988,289.707c-0.022-0.859-1.426-2.139-2.256-2.055c-1.036,0.104-2.117,1.285-2.06,2.248c0.032,0.539,1.504,2.135,1.959,2.123
		C319.409,292.006,321.007,290.434,320.988,289.707z M257.133,171.06c0.028-0.92-0.827-1.734-1.852-1.766
		c-1.161-0.036-2.805,1.255-2.757,2.164c0.043,0.826,1.021,1.605,2.062,1.643C255.763,173.142,257.103,172.068,257.133,171.06z
		 M356.966,176.626c-0.038-1.195-0.69-1.867-1.749-1.799c-1.16,0.075-2.502,1.297-2.469,2.249c0.029,0.835,0.996,1.557,2.107,1.574
		C356.089,178.669,357.002,177.793,356.966,176.626z M310.414,232.491c0.948,0.045,1.837-0.74,1.895-1.675
		c0.059-0.966-0.971-2.293-1.876-2.42c-0.87-0.122-2.273,1.359-2.239,2.362C308.223,231.586,309.314,232.438,310.414,232.491z
		 M310.911,191.479c0.03-0.926-0.189-1.522-0.737-1.905c-0.678-0.474-1.2,0.111-1.693,0.428c-0.376,0.241-0.697,0.642-0.915,1.042
		c-0.574,1.05-0.381,2.163,0.365,2.511c0.858,0.401,2.41-0.236,2.778-1.174C310.851,192.02,310.882,191.616,310.911,191.479z
		 M322.343,179.895c1.087-0.009,1.853-0.752,1.781-1.728c-0.077-1.062-0.972-1.945-1.99-1.966c-1.118-0.024-1.965,0.755-2.026,1.864
		C320.044,179.209,320.896,179.907,322.343,179.895z M366.792,173.03c1.144-0.019,1.912-0.674,1.938-1.653
		c0.027-0.998-0.773-1.865-1.734-1.876c-1.163-0.013-2.184,0.773-2.217,1.707C364.744,172.25,365.627,173.05,366.792,173.03z
		 M259.55,180.518c-0.036-0.915-1.05-1.913-1.854-1.826c-0.899,0.098-2.344,1.441-2.305,2.144c0.046,0.842,1.298,1.849,2.241,1.802
		C258.569,182.591,259.588,181.464,259.55,180.518z M299.808,291.443c1.317,0.029,2.098-0.635,2.055-1.748
		c-0.036-0.922-0.918-1.705-1.951-1.731c-1-0.024-2.065,0.952-2.087,1.916C297.804,290.764,298.631,291.416,299.808,291.443z
		 M367.27,179.707c-0.82,0.169-1.64,0.27-1.713,1.323c-0.054,0.763,0.894,2.017,1.582,2.075c0.789,0.066,1.766-0.752,1.813-1.523
		C369.011,180.676,368.123,179.716,367.27,179.707z"/>
	<path id="n-fill" fill="#1D7056" d="M247.474,290.814c-1.443,1.018-2.68,0.615-3.704,0.156c-1.875-0.84-3.724-1.768-4.995-3.566
		c-1.32-1.869-1.754-1.772-3.445-0.127c-2.945,2.865-6.467,4.478-10.7,4.725c0.076-0.377,0.063-0.633,0.174-0.814
		c3.126-5.135,4.584-10.795,5.163-16.703c0.411-4.2,0.404-8.43,0.595-12.645c0.144-3.175,0.354-6.34,0.257-9.521
		c-0.118-3.883,0.013-7.783-0.311-11.646c-0.483-5.77-1.663-11.36-5.332-16.14c-0.954-1.243-2.11-2.156-3.317-3.064
		c-0.873-0.657-1.773-1.278-2.895-2.082c3.36-1.429,6.451-1.232,9.601-0.74c3.598,0.562,6.893,1.744,10.005,3.702
		c4.544,2.858,9.593,4.25,14.988,4.285c3.117,0.02,6.236,0.125,9.35,0.046c2.367-0.061,4.568,0.58,6.788,1.211
		c1.053,0.299,1.8,1.031,2.371,1.922c0.945,1.478,1.788,2.981,2.285,4.713c1.32,4.596,2.932,9.111,4.17,13.726
		c1.35,5.031,1.487,10.231,1.733,15.419c0.223,4.699,0.071,9.421,0.682,14.1c0.289,2.209,0.615,4.418,1.05,6.604
		c0.417,2.096,1.473,3.886,3.082,5.686c-4.01,1.234-7.215,0.707-9.157-2.383c-1.014-1.611-1.955-1.533-3.192,0.039
		c-1.949,2.477-4.903,4.002-7.667,3.848c0.78-1.99,1.708-3.879,2.101-5.943c0.936-4.932,1.663-9.865,0.827-14.902
		c-0.193-1.162-0.034-2.379-0.033-3.56c0.002-2.396-0.464-4.755-0.763-7.071c-0.48-3.732-0.987-7.562-2.513-11.102
		c-0.316-0.73-0.484-1.512-0.749-2.243c-1.486-4.118-4.092-7.111-8.589-8.081c-2.562-0.552-4.75,0.489-6.704,1.821
		c-4.986,3.4-7.604,8.212-7.912,14.271c-0.39,7.691,0.073,15.296,2.14,22.762c0.784,2.836,0.869,5.838,2.076,8.581
		C245.639,287.691,246.166,289.375,247.474,290.814z M248.66,232.258c-0.009-1.375-1.128-2.62-2.308-2.568
		c-1.122,0.048-2.23,1.377-2.247,2.693c-0.017,1.303,0.701,2,2.072,2.014C247.907,234.415,248.67,233.758,248.66,232.258z
		 M233.084,250.518c0.006,1.656,0.805,2.612,2.123,2.539c1.18-0.067,2.106-1.174,2.05-2.449c-0.046-1.051-1.284-2.563-2.036-2.488
		C234.005,248.239,233.08,249.279,233.084,250.518z M269.647,240.669c-1.338-0.022-2.146,0.946-2.112,2.536
		c0.024,1.145,0.97,1.977,2.219,1.956c1.003-0.019,2.208-1.22,2.164-2.16C271.867,241.925,270.662,240.688,269.647,240.669z
		 M231.267,222.559c-1.142-0.064-2.25,0.805-2.349,1.841c-0.13,1.378,0.819,2.535,2.127,2.592c1.047,0.046,2.066-0.938,2.16-2.084
		C233.282,223.979,232.152,222.609,231.267,222.559z M238.441,238.192c0.042-0.798-1.412-2.571-2.142-2.612
		c-1.028-0.058-2.061,1.018-2.116,2.205c-0.057,1.216,0.837,2.196,2.012,2.205C237.188,239.997,238.396,239.029,238.441,238.192z
		 M274.086,259.066c1.272-0.006,2.381-1.049,2.343-2.205c-0.029-0.899-1.141-1.829-2.197-1.838c-1.161-0.01-2.324,0.98-2.313,1.969
		C271.933,258.169,272.875,259.07,274.086,259.066z M275.702,272.305c1.386,0.043,2.253-0.556,2.258-1.559
		c0.005-0.977-1.121-2.251-2.078-2.354c-1.071-0.117-2.422,1.326-2.378,2.541C273.534,271.761,274.337,272.262,275.702,272.305z
		 M262.581,233.375c-0.007-0.965-1.355-2.131-2.502-2.164c-0.906-0.025-2.124,1.336-2.044,2.283
		c0.062,0.741,1.336,1.625,2.388,1.658C261.499,235.186,262.587,234.29,262.581,233.375z M235.043,264.117
		c-1.074-0.135-1.802,0.322-1.912,1.199c-0.141,1.127,0.789,2.533,1.783,2.697c1.123,0.185,2.037-0.336,2.197-1.25
		C237.319,265.583,236.297,264.273,235.043,264.117z M237.702,280.45c0.056-0.948-0.696-1.798-1.686-1.904
		c-1-0.106-2.167,0.964-2.194,2.015c-0.024,0.91,1.011,1.908,2.014,1.94C236.767,282.531,237.637,281.576,237.702,280.45z
		 M277.814,280.717c0.018-0.646-1.154-1.873-1.855-1.943c-0.7-0.069-2.103,0.933-2.186,1.562c-0.102,0.774,1.125,1.817,2.15,1.829
		C276.896,282.173,277.793,281.486,277.814,280.717z"/>
	<path id="o-fill" fill="#1D7056" d="M181.541,291.146c-4.444,0.332-8.426-1.229-12.347-3.086c-1.95-0.924-3.865-1.834-5.336-3.504
		c-2.757-3.132-5.012-6.5-6.327-10.539c-2.27-6.975-1.701-14.035-0.827-21.07c0.439-3.536,1.801-6.904,3.495-10.096
		c0.662-1.248,1.266-2.527,1.927-3.781c1.096-2.074,2.619-3.786,4.197-5.459c1.518-1.609,2.777-3.482,4.855-4.525
		c5.169-2.593,10.505-3.869,16.382-3.24c4.604,0.494,8.607,2.111,12.384,4.623c1.318,0.876,2.748,1.582,4.089,2.443
		c4.705,3.021,6.609,7.717,7.852,12.833c0.093,0.385,0.047,0.809,0.169,1.181c1.244,3.794,1.353,7.648,0.837,11.584
		c-0.56,4.274-1.451,8.46-2.895,12.519c-1.369,3.847-3.999,6.869-6.72,9.773c-1.741,1.857-3.73,3.481-5.738,5.074
		C192.84,289.604,187.558,291.451,181.541,291.146z M198.871,255.27c-0.083-3.03-0.5-5.951-1.749-8.817
		c-1.624-3.729-4.365-5.763-8.199-6.47c-2.028-0.374-4.083-0.691-6.165-0.663c-2.072,0.028-3.887,0.518-5.146,2.399
		c-0.703,1.05-1.568,2.023-2.497,2.884c-2.213,2.049-3.666,4.571-4.91,7.267c-1.632,3.534-1.97,7.353-2.527,11.118
		c-0.432,2.921,0.243,5.74,1.467,8.328c1.321,2.791,3.697,4.453,6.744,5.263c3.838,1.019,7.666,1.771,11.443,0.022
		c2.784-1.289,5.114-3.324,6.792-5.843C197.225,266.105,199.037,260.966,198.871,255.27z M168.586,243.391
		c1.375,0.021,2.219-0.666,2.3-1.877c0.087-1.309-1.049-2.694-2.193-2.672c-1.007,0.019-2.321,1.488-2.376,2.658
		C166.265,242.604,167.181,243.368,168.586,243.391z M191.276,285.535c0.92,0.033,2.135-1.157,2.193-2.151
		c0.064-1.084-0.956-2.272-1.951-2.272c-1.215-0.002-2.645,1.176-2.698,2.221C188.773,284.271,190.132,285.493,191.276,285.535z
		 M196.105,237.046c0.993,0.006,2.019-0.777,2.1-1.601c0.101-1.036-1.709-2.626-3-2.636c-0.9-0.007-1.648,0.727-1.692,1.66
		C193.451,235.789,194.708,237.039,196.105,237.046z M161.92,256.221c1.324,0.053,2.583-0.668,2.618-1.496
		c0.047-1.104-1.285-2.695-2.236-2.672c-1.071,0.026-2.094,1.012-2.187,2.104C160.032,255.15,160.933,256.182,161.92,256.221z
		 M178.298,283.363c-1.068,0.029-2.041,1.346-2.058,2.783c-0.013,1.109,0.771,1.785,2.025,1.744
		c1.119-0.037,2.221-1.222,2.203-2.367C180.454,284.581,179.205,283.338,178.298,283.363z M159.973,268.449
		c-0.001,1.514,0.871,2.419,2.296,2.383c0.937-0.023,1.832-0.857,1.895-1.766c0.082-1.178-1.154-2.514-2.324-2.51
		C160.589,266.561,159.974,267.184,159.973,268.449z M180.034,234.971c1.336,0.037,2.335-0.86,2.372-2.13
		c0.031-1.073-0.988-2.212-2.044-2.285c-0.952-0.065-2.181,1.286-2.229,2.45C178.087,234.132,178.868,234.939,180.034,234.971z
		 M203.73,274.133c0.023-1.271-0.978-2.34-2.162-2.307c-0.968,0.025-2.061,0.994-2.12,1.88c-0.062,0.933,1.267,2.257,2.327,2.315
		C202.891,276.086,203.708,275.296,203.73,274.133z M205.4,261.159c1.19,0.022,2.096-0.536,2.141-1.321
		c0.079-1.357-0.987-2.722-2.108-2.697c-1.069,0.022-2.237,1.096-2.232,2.051C203.206,260.341,204.092,261.134,205.4,261.159z
		 M205.749,244.91c0.011-1.1-1.184-2.381-2.211-2.369c-0.916,0.009-1.956,1.021-2.021,1.966c-0.088,1.284,0.868,2.468,1.969,2.438
		C204.516,246.917,205.74,245.816,205.749,244.91z M168.125,283.32c1.195,0.056,1.863-0.52,1.898-1.631
		c0.042-1.371-0.8-2.35-2.095-2.431c-0.965-0.062-1.725,0.726-1.758,1.82C166.131,282.352,166.929,283.266,168.125,283.32z"/>
	<path id="c1b-fill" fill="#1D7056" d="M171.499,145.643c-1.715-2.955-3.807-5.718-5.963-8.379
		c-1.025-1.265-1.931-2.754-3.399-3.604c-1.97-1.139-4.211-1.901-5.282-4.175c-0.051-0.108-0.287-0.12-0.428-0.194
		c-4.405-2.319-9.03-4.112-13.987-4.593c-7.668-0.744-15.246,0.106-22.714,1.997c-2.272,0.575-4.237,1.819-6.368,2.675
		c-3.198,1.284-6.126,3.011-9.015,4.827c-2.011,1.265-4.035,2.51-5.801,4.147c-3.761,3.484-6.892,7.529-10.226,11.388
		c-3.91,4.526-7.014,9.619-10.08,14.749c-2.835,4.743-4.704,9.888-6.779,14.946c-1.967,4.794-3.26,9.83-4.721,14.8
		c-1.098,3.735-1.923,7.541-2.587,11.37c-0.641,3.698-0.535,7.459-0.574,11.203c-0.012,1.113-0.178,2.223-0.254,3.336
		c-0.301,4.372-0.33,8.737-0.043,13.118c0.344,5.269,1.354,10.421,2.346,15.585c0.858,4.472,2.056,8.834,3.773,13.063
		c1.273,3.141,3.446,5.697,5.239,8.498c0.699,1.092,1.018,2.334,1.749,3.391c1.787,2.58,3.815,4.863,6.526,6.572
		c4.249,2.681,8.497,5.361,13.148,7.277c4.774,1.969,9.786,2.491,14.954,2.396c6.309-0.115,12.334-1.232,18.18-3.602
		c5.878-2.384,10.07-6.732,13.342-11.854c2.825-4.425,4.004-9.534,3.825-14.876c-0.117-3.51-0.346-6.99-1.589-10.507
		c-1.176,0.475-1.485,1.307-1.823,2.108c-0.657,1.565-1.577,2.973-2.785,4.147c-2.284,2.221-4.576,4.452-7.232,6.231
		c-2.915,1.953-5.904,3.719-9.456,4.402c-2.087,0.402-4.125,0.273-6.18,0.141c-4.65-0.305-9.187-1.156-13.386-3.295
		c-2.957-1.507-5.486-3.6-7.512-6.199c-1.908-2.45-4.495-4.566-4.58-8.07c-2.054-4.189-2.932-8.745-4.038-13.221
		c-1.262-5.11-2.389-10.245-2.609-15.543c-0.204-4.925-1.253-9.759-0.938-14.773c0.308-4.908,1.083-9.661,2.361-14.374
		c0.374-1.379,0.52-2.836,1.02-4.164c1.873-4.969,5.303-9.012,8.254-13.317c1.837-2.68,4.14-5.05,6.478-7.341
		c2.623-2.571,5.108-5.311,8.031-7.535c5.607-4.268,11.879-7.43,18.23-10.41c2.382-1.118,4.949-1.92,7.625-1.797
		c2.782,0.127,5.553,0.494,8.326,0.783c0.891,0.093,1.631,0.562,2.397,1.016c1.814,1.073,2.985,2.874,4.661,4.055
		c2.067,1.456,3.008,3.534,3.428,5.812c0.43,2.333,0.766,4.791-0.745,6.954c-1.72,2.465-6.979,4.809-10.504,2.826
		c-3.308-1.861-6.173-4.225-8.042-7.625c-1.458-2.652-2.765-5.376-3.974-8.15c-0.254-0.583-0.575-1.136-0.844-1.713
		c-0.26-0.555-0.721-0.679-1.177-0.398c-2.781,1.715-5.851,2.872-8.645,4.573c-2.323,1.415-4.371,3.167-6.521,4.8
		c-1.641,1.247-1.68,1.23-1.068,3.23c1.789,5.854,4.562,11.062,8.961,15.492c2.209,2.225,4.665,3.874,7.358,5.205
		c4.523,2.234,9.32,3.832,14.333,4.453c3.799,0.471,7.597,0.362,11.364-0.898c2.22-0.743,4.24-1.815,6.307-2.804
		c4.217-2.02,7.347-5.104,9.458-9.413c2.831-5.778,3.542-11.838,3.452-18.125C174.7,152.385,173.376,148.877,171.499,145.643z
		 M136.214,268.357c1.116-0.006,2.38,1.453,2.401,2.77c0.025,1.574-0.938,2.727-2.299,2.748c-0.95,0.016-2.344-1.648-2.392-2.855
		C133.885,270.027,135.318,268.361,136.214,268.357z M123.891,275.701c1.181,0.027,2.249,1.16,2.204,2.337
		c-0.044,1.163-1.167,2.147-2.417,2.121c-1.254-0.026-2.189-0.898-2.183-2.036C121.502,276.758,122.578,275.67,123.891,275.701z
		 M110.765,276.922c1.162,0.005,2.408,1.295,2.424,2.508c0.014,1.141-1.054,1.93-2.767,2.045c-1.115,0.075-2.327-1.295-2.271-2.567
		C108.195,277.91,109.505,276.916,110.765,276.922z M98.017,273.574c1.147,0.001,2.196,0.936,2.257,2.01
		c0.084,1.46-1.409,2.646-3.352,2.663c-1.232,0.011-1.866-0.683-1.815-1.981C95.152,275.105,96.809,273.574,98.017,273.574z
		 M76.938,193.518c0.893-0.053,2.283,1.166,2.298,2.016c0.027,1.504-1.177,2.904-2.542,2.956c-1.447,0.056-2.286-0.683-2.305-2.031
		C74.366,195.008,75.589,193.598,76.938,193.518z M73.965,210.148c1.339-0.246,2.416,1.393,2.445,2.395
		c0.038,1.303-1.058,2.331-2.477,2.376c-1.254,0.04-2.464-1.297-2.444-2.703C71.504,211.117,72.664,210.148,73.965,210.148z
		 M74.119,234.38c-1.43,0.032-2.502-1.235-2.477-2.927c0.016-1.094,1.062-2.108,2.189-2.124c1.335-0.019,2.555,1.186,2.632,2.597
		C76.538,233.31,75.546,234.349,74.119,234.38z M77.726,254.523c-1.149,0.084-2.041-0.922-2.082-2.353
		c-0.042-1.44,0.763-2.558,1.875-2.603c1.068-0.043,2.478,1.5,2.488,2.725C80.017,253.548,79.126,254.419,77.726,254.523z
		 M85.592,262.062c1.471-0.022,2.564,0.787,2.581,1.914c0.019,1.252-1.17,2.508-2.386,2.521c-1.319,0.013-2.83-1.408-2.88-2.71
		C82.867,262.764,83.919,262.088,85.592,262.062z M81.74,184.635c-1.327,0.086-2.333-1.1-2.464-2.907
		c-0.084-1.151,0.936-2.052,2.332-2.059c1.221-0.006,2.622,1.169,2.683,2.25C84.348,182.938,82.819,184.564,81.74,184.635z
		 M90.231,168.777c-1.402-0.001-2.302-1.152-2.208-2.827c0.068-1.243,1.49-2.394,2.886-2.335c1.416,0.059,2.546,1.152,2.484,2.4
		C93.325,167.356,91.698,168.778,90.231,168.777z M98.511,155.84c-1.176-0.032-2.634-1.573-2.525-2.669
		c0.087-0.88,1.819-2.399,2.702-2.37c1.289,0.043,2.558,1.402,2.528,2.707C101.181,155.033,100.191,155.886,98.511,155.84z
		 M110.796,146.263c-1.34-0.01-2.774-1.417-2.758-2.704c0.01-0.788,1.602-2.171,2.556-2.221c1.098-0.057,2.853,1.644,2.875,2.786
		C113.492,145.305,112.281,146.274,110.796,146.263z M124.084,139.889c-1.181,0.079-2.201-0.953-2.208-2.234
		c-0.007-1.376,0.84-2.346,2.042-2.337c1.523,0.011,2.673,0.934,2.64,2.119C126.527,138.633,125.344,139.805,124.084,139.889z
		 M140.464,137.615c-1.118,0.001-1.853-0.764-1.877-1.958c-0.028-1.319,0.917-2.431,2.057-2.422
		c1.128,0.008,2.248,1.165,2.241,2.313C142.877,136.703,141.812,137.613,140.464,137.615z M122.863,160.713
		c-1.409,0-2.048-0.729-2.029-2.312c0.015-1.236,0.564-1.881,1.608-1.886c1.426-0.007,2.585,1.14,2.583,2.557
		C125.023,160.155,124.288,160.713,122.863,160.713z M130.4,172.072c-1.198-0.012-2.516-1.229-2.559-2.36
		c-0.033-0.881,1.2-2.005,2.253-2.053c1.268-0.058,2.344,1.179,2.344,2.694C132.438,171.452,131.686,172.085,130.4,172.072z
		 M142.178,179.185c-1.192-0.002-2.449-1.242-2.499-2.465c-0.049-1.196,1.134-2.09,2.708-2.046c1.233,0.035,1.977,0.873,1.939,2.186
		C144.285,178.323,143.486,179.188,142.178,179.185z M156.932,177.3c-1.256,0.03-2.153-0.94-2.147-2.323
		c0.007-1.659,0.557-2.245,2.087-2.224c1.45,0.02,2.516,0.895,2.478,2.033C159.304,176.138,158.217,177.269,156.932,177.3z
		 M159.574,146.104c-1.529-0.021-2.726-1.307-2.724-2.927c0.002-1.295,0.433-1.678,1.923-1.707c1.65-0.032,3.192,1.16,3.217,2.485
		C162.01,144.966,160.712,146.12,159.574,146.104z M164.76,163.448c-1.182-0.099-2.233-1.359-2.088-2.5
		c0.111-0.87,1.309-1.923,2.186-1.921c1.221,0.003,2.602,1.333,2.528,2.435C167.317,162.473,165.901,163.544,164.76,163.448z"/>
	<path id="c1h-fill" fill="#1D7056" d="M115.146,126.357c1.532-0.864,3.211-1.402,4.901-1.905c3.659-1.089,3.695-1.115,3.203-5.021
		c-0.644-5.114-0.227-10.171,0.799-15.179c1.056-5.152,2.537-10.204,3.849-15.295c1.106-4.292,2.851-8.272,5.128-12.065
		c1.003-1.67,2.251-3.226,3.012-5.247c-1.274-0.115-2.179,0.426-3.07,0.88c-5.222,2.66-9.833,6.212-14.198,10.066
		c-3.618,3.194-8.238,10.948-9.794,15.566c-1.854,5.498-4.018,10.883-4.758,16.712c-0.553,4.358-0.794,8.717-0.751,13.1
		c0.008,0.82,0.353,1.542,0.831,2.507C107.919,128.802,111.774,128.258,115.146,126.357z M114.422,123.38
		c-0.998,0.388-2.226,0.045-2.688-0.789c-0.189-0.341-0.268-0.742-0.415-1.108c-0.692-1.716-0.303-2.348,1.489-2.401
		c1.294-0.039,2.985,1.089,3.062,2.105C115.949,122.258,115.422,122.992,114.422,123.38z M119.262,88.292
		c1.122-0.055,2.04,0.778,2.049,1.859c0.008,1.063-0.997,1.988-2.238,2.06c-0.946,0.054-1.792-0.844-1.743-1.851
		C117.386,89.222,118.206,88.344,119.262,88.292z M112.304,101.768c0.077-1.555,0.859-2.459,2.075-2.4
		c1.213,0.06,2.326,1.195,2.28,2.327c-0.047,1.175-1.245,2.004-2.825,1.956C112.642,103.614,112.238,103.117,112.304,101.768z
		 M112.82,109.789c0.954-0.036,2.441,1.026,2.533,1.809c0.101,0.869-1.289,2.254-2.358,2.349c-1.143,0.101-2.32-0.945-2.41-2.141
		C110.509,110.793,111.57,109.836,112.82,109.789z"/>
</g>
</svg>
