<?xml version="1.0" encoding="utf-8"?>
<!-- Generator: Adobe Illustrator 16.0.0, SVG Export Plug-In . SVG Version: 6.00 Build 0)  -->
<!DOCTYPE svg PUBLIC "-//W3C//DTD SVG 1.1//EN" "http://www.w3.org/Graphics/SVG/1.1/DTD/svg11.dtd">
<svg version="1.1" id="contact" xmlns="http://www.w3.org/2000/svg" xmlns:xlink="http://www.w3.org/1999/xlink" x="0px" y="0px"
	 width="502px" height="240px" viewBox="0 0 502 240" enable-background="new 0 0 502 240" xml:space="preserve">
<g id="contact-points">
	<g id="contact-point-t2">
		<path id="d5b_1_" fill="#22252E" d="M491.416,119.771c0.015,0.798-0.463,1.142-1.178,1.217c-1.005,0.106-1.74-0.457-1.861-1.382
			c-0.109-0.84,0.167-1.41,1.075-1.516C490.328,117.986,491.357,118.877,491.416,119.771z"/>
		<path id="d5h_1_" fill="#22252E" d="M490.332,110.149c-0.101,0.815-0.801,1.097-1.509,1.163c-0.726,0.066-1.483-0.12-1.683-1.003
			c-0.153-0.683,0.854-1.739,1.62-1.774C489.521,108.5,490.304,109.265,490.332,110.149z"/>
		<path id="d4_1_" fill="#22252E" d="M479.321,113.293c0.917,0.01,1.512,0.703,1.46,1.711c-0.035,0.759-1.103,1.531-2.162,1.336
			c-0.679-0.125-1.693-0.034-1.804-1.146C476.711,114.129,477.849,113.278,479.321,113.293z"/>
		<path id="d3_1_" fill="#22252E" d="M468.607,116.062c-0.898,0.032-1.598-0.319-1.722-1.247c-0.12-0.9,1.032-1.73,2.201-1.688
			c0.896,0.035,1.543,0.363,1.525,1.398C470.601,115.485,469.835,116.068,468.607,116.062z"/>
		<path id="d2_1_" fill="#22252E" d="M456.489,113.375c1.097,0.014,1.978,0.932,1.899,1.978c-0.068,0.924-0.842,1.68-1.683,1.642
			c-1.013-0.045-1.696-0.814-1.693-1.902C455.016,113.951,455.521,113.361,456.489,113.375z"/>
		<path id="d1_1_" fill="#22252E" d="M445.973,115.9c-0.016,0.734-1.4,1.67-2.363,1.596c-0.938-0.072-1.627-0.844-1.546-1.736
			c0.077-0.842,1.078-1.864,1.863-1.905C444.59,113.82,445.987,115.217,445.973,115.9z"/>
		<path id="g5b" fill="#22252E" d="M370.071,119.151c-1.11,0.009-1.936-0.682-1.876-1.666c0.053-0.828,0.294-1.604,1.35-1.612
			c1.116-0.009,2.329,0.988,2.4,1.93C372.005,118.576,371.22,119.143,370.071,119.151z"/>
		<path id="g5h" fill="#22252E" d="M369.967,111.502c-1.406-0.004-2.161-0.559-2.146-1.5c0.017-0.861,0.801-1.521,1.792-1.504
			c0.941,0.016,2.161,1.191,1.972,2.008C371.381,111.365,370.576,111.407,369.967,111.502z"/>
		<path id="g4" fill="#22252E" d="M380.372,115.078c-1.312-0.031-2.348-0.812-2.352-1.772c-0.003-0.826,0.782-1.457,1.812-1.454
			c1.397,0.004,2.385,0.842,2.383,2.077C382.213,115.258,381.25,115.115,380.372,115.078z"/>
		<path id="g3_1_" fill="#22252E" d="M390.199,115.539c-0.764-0.099-1.266-0.59-1.218-1.545c0.047-0.941,0.963-1.72,1.937-1.668
			c0.693,0.036,1.621,1.039,1.632,1.77C392.557,114.703,391.242,115.574,390.199,115.539z"/>
		<path id="g2_1_" fill="#22252E" d="M402.14,114.533c-0.259,0.764-0.986,1.024-1.8,1.043c-1.104,0.027-2.104-0.791-2.037-1.578
			c0.062-0.726,1.038-1.57,1.812-1.567C401.059,112.435,402.139,113.478,402.14,114.533z"/>
		<path id="g1_1_" fill="#22252E" d="M412.148,113.308c1.35-0.013,2.008,0.676,2.069,1.905c0.05,1.007-0.513,1.468-1.392,1.574
			c-1.004,0.123-2.073-1.033-2.062-2.158C410.779,113.61,411.374,113.248,412.148,113.308z"/>
		<path id="_x31_0_3_" fill="#22252E" d="M426.979,114.851c0.62,0.157,1.274,0.603,1.419,1.428c0.188,1.056-1.087,2.255-2.265,2.253
			c-0.917-0.001-1.481-0.501-1.664-1.355C424.295,116.357,425.776,114.914,426.979,114.851z"/>
		<path id="_x39__4_" fill="#22252E" d="M428.332,129.064c0.067,0.828-1.022,1.67-2.214,1.742c-0.96,0.058-1.525-0.403-1.638-1.315
			c-0.104-0.852,0.978-1.833,2.048-1.966C427.321,127.428,428.262,128.231,428.332,129.064z"/>
		<path id="_x38__4_" fill="#22252E" d="M428.256,140.791c-0.023,0.933-0.908,1.703-1.934,1.686
			c-1.062-0.02-1.631-0.694-1.607-1.914c0.016-0.883,1.225-1.882,2.146-1.773C427.463,138.861,428.276,140.027,428.256,140.791z"/>
		<path id="_x37__5_" fill="#22252E" d="M426.609,153.449c-0.992,0.059-1.686-0.679-1.708-1.816c-0.016-0.789,0.88-1.606,1.897-1.73
			c0.605-0.072,1.717,1.087,1.8,1.883C428.668,152.449,427.54,153.395,426.609,153.449z"/>
		<path id="_x36__3_" fill="#22252E" d="M426.007,166.774c-1.037-0.041-1.74-0.851-1.638-1.883c0.093-0.938,1.096-1.718,2.216-1.722
			c0.851-0.004,1.834,0.943,1.866,1.797C428.483,165.803,427.108,166.818,426.007,166.774z"/>
		<path id="_x35__3_" fill="#22252E" d="M426.201,179.451c-0.861,0.049-1.439-0.256-1.406-1.322c0.042-1.34,0.793-2.131,2.021-2.045
			c0.668,0.047,1.688,1.308,1.643,2.026C428.408,178.851,427.395,179.473,426.201,179.451z"/>
		<path id="_x34__3_" fill="#22252E" d="M423.935,190.959c-0.02-0.764,1.033-1.705,1.941-1.736c0.697-0.024,1.729,1.091,1.794,1.945
			c0.066,0.875-0.849,1.644-1.935,1.621C424.793,192.771,423.959,191.922,423.935,190.959z"/>
		<path id="_x33__3_" fill="#22252E" d="M425.9,205.985c-1.167-0.019-1.831-0.61-1.858-1.663c-0.03-1.101,0.977-2.129,2.091-2.136
			c0.771-0.005,1.929,1.239,1.96,2.106C428.122,205.138,427.003,206.002,425.9,205.985z"/>
		<path id="_x32__3_" fill="#22252E" d="M427.598,216.205c0.011,0.914-0.859,1.653-1.933,1.644c-1.075-0.013-1.674-0.55-1.699-1.527
			c-0.032-1.112,0.793-2.188,1.696-2.211C426.392,214.09,427.588,215.385,427.598,216.205z"/>
		<path id="_x31_d_1_" fill="#22252E" d="M434.859,226.6c0.137,0.74-0.331,1.031-0.929,1.109c-1.249,0.164-2.04-0.599-2.228-1.928
			c-0.134-0.933,0.308-1.375,1.111-1.482C433.656,224.186,434.776,225.502,434.859,226.6z"/>
		<path id="_x31_g_1_" fill="#22252E" d="M419.728,223.765c0.732-0.081,1.423,0.725,1.543,1.801c0.095,0.854-0.657,1.836-1.43,1.865
			c-0.803,0.028-1.962-0.987-1.984-1.741C417.838,225.078,419.04,223.84,419.728,223.765z"/>
	</g>
	<g id="contact-point-c2">
		<path id="_x35_b_1_" fill="#22252E" d="M386.849,216.922c0.138-1.762,0.576-2.349,1.701-2.272s2.279,1.147,2.217,2.062
			c-0.071,1.052-1.369,2.104-2.466,2.004C387.008,218.599,386.742,218.272,386.849,216.922z"/>
		<path id="_x35_h_2_" fill="#22252E" d="M387.041,176.746c-0.104,0.777-0.054,1.656-1.218,1.68c-1.5,0.027-3.119-1.271-3.043-2.454
			c0.068-1.011,1.098-2.105,1.938-2.06C385.99,173.979,387.062,175.287,387.041,176.746z"/>
		<path id="_x34_b_2_" fill="#22252E" d="M380.919,221.209c-0.032,1.078-1.448,2.441-2.485,2.395
			c-1.221-0.061-2.164-0.948-2.18-2.057c-0.021-1.344,1.036-2.678,2.123-2.685C379.585,218.855,380.952,220.117,380.919,221.209z"/>
		<path id="_x34_h_2_" fill="#22252E" d="M371.164,173.635c0.005-1.365,0.727-2.441,1.665-2.48c1.501-0.062,3.009,1.204,2.959,2.484
			c-0.043,1.096-1.557,2.496-2.745,2.542C371.949,176.223,371.158,175.151,371.164,173.635z"/>
		<path id="_x33_b_2_" fill="#22252E" d="M365.06,216.703c1.068,0.021,2.7,1.709,2.615,2.704c-0.066,0.765-1.54,1.806-2.518,1.778
			c-1.221-0.034-2.173-0.923-2.19-2.043C362.945,217.86,363.957,216.682,365.06,216.703z"/>
		<path id="_x33_h_2_" fill="#22252E" d="M366.236,178.682c-0.117,1.26-1.005,1.859-2.561,1.736
			c-1.312-0.104-2.079-0.938-1.939-2.104c0.176-1.464,0.942-2.111,2.351-1.98C365.889,176.502,366.392,177.051,366.236,178.682z"/>
		<path id="_x32_b_2_" fill="#22252E" d="M358.461,209.682c0.029,1.258-0.803,2.265-1.908,2.311
			c-1.215,0.051-2.721-1.123-2.782-2.169c-0.065-1.12,1.161-2.71,2.147-2.782C357.132,206.953,358.428,208.297,358.461,209.682z"/>
		<path id="_x32_h_1_" fill="#22252E" d="M356.367,188.99c-1.084,0.049-2.35-0.953-2.397-1.902
			c-0.067-1.289,0.877-2.271,2.194-2.284c1.061-0.013,1.899,0.835,1.967,1.977C358.189,187.828,357.296,188.951,356.367,188.99z"/>
		<path id="_x31__4_" fill="#22252E" d="M356.095,197.145c0.03,1.25-0.601,1.955-1.562,2.277c-0.896,0.299-1.557-0.252-1.91-1.024
			c-0.26-0.562-0.78-1.001-0.762-1.708c0.024-0.965,0.995-2.395,1.879-2.518c1.107-0.154,1.431,0.828,1.896,1.521
			C355.941,196.154,356.117,196.699,356.095,197.145z"/>
	</g>
	<g id="contact-point-a">
		<path id="_x39__3_" fill="#22252E" d="M327.506,226.453c1.65,0.037,2.547,0.655,2.535,1.752c-0.008,1.053-0.951,1.737-2.385,1.731
			c-1.484-0.006-2.129-0.601-2.088-1.927C325.609,226.729,325.996,226.418,327.506,226.453z"/>
		<path id="_x38__3_" fill="#22252E" d="M326.478,216.629c0.015,1.193-0.71,1.886-1.944,1.854c-0.939-0.023-1.799-0.865-1.854-1.82
			c-0.067-1.143,0.708-2.084,1.742-2.111C325.678,214.519,326.461,215.309,326.478,216.629z"/>
		<path id="_x37__4_" fill="#22252E" d="M321.625,205.371c-1.309-0.029-2.104-0.717-2.041-1.771
			c0.094-1.653,0.859-2.497,2.267-2.501c0.985-0.003,2.147,1.14,2.16,2.123C324.023,204.338,322.847,205.398,321.625,205.371z"/>
		<path id="_x36_h" fill="#22252E" d="M320.654,194.125c-0.949,0.035-1.802-0.746-1.853-1.694c-0.058-1.074,1.067-2.354,2.124-2.416
			c1.225-0.071,2.146,0.725,2.214,1.909C323.214,193.191,322.227,194.064,320.654,194.125z"/>
		<path id="_x35_h_1_" fill="#22252E" d="M316.714,178.847c1.159,0.032,2.366,1.215,2.319,2.271
			c-0.054,1.115-1.088,2.029-2.246,1.981c-1.291-0.054-2.287-0.903-2.281-1.946C314.512,179.89,315.541,178.813,316.714,178.847z"/>
		<path id="_x34_b_1_" fill="#22252E" d="M313.494,215.504c-0.057,1.05-1.164,1.893-2.365,1.797
			c-0.977-0.077-1.819-0.938-1.828-1.863c-0.01-1.047,1.129-2.152,2.143-2.085C312.709,213.438,313.554,214.326,313.494,215.504z"/>
		<path id="_x34_h_1_" fill="#22252E" d="M307.562,176.765c-0.057,1.045-0.969,1.813-2.1,1.772c-1.27-0.049-2.108-0.922-2.016-2.099
			c0.084-1.052,0.965-1.81,2.092-1.804C306.75,174.646,307.627,175.569,307.562,176.765z"/>
		<path id="_x33_b_1_" fill="#22252E" d="M301.012,219.67c-0.001,1.082-0.697,1.804-1.751,1.811
			c-1.362,0.009-2.507-0.966-2.452-2.088c0.042-0.848,1.046-1.812,1.902-1.828C300.144,217.539,301.012,218.334,301.012,219.67z"/>
		<path id="_x33_h_1_" fill="#22252E" d="M293.272,183.276c-1.036,0.005-1.715-0.68-1.767-1.787
			c-0.053-1.092,0.777-1.877,1.975-1.87c1.092,0.008,1.916,0.711,1.949,1.66C295.471,182.459,294.598,183.269,293.272,183.276z"/>
		<path id="_x32_b_1_" fill="#22252E" d="M288.679,217.357c-1.217-0.045-1.685-0.572-1.591-1.798
			c0.083-1.087,0.814-1.938,1.682-1.953c1.082-0.021,2.213,1.101,2.109,2.091C290.775,216.703,289.852,217.399,288.679,217.357z"/>
		<path id="_x32_h" fill="#22252E" d="M286.361,192.438c-0.971-0.004-1.558-0.655-1.516-1.684c0.043-1.082,0.631-1.768,1.48-1.727
			c1.002,0.051,1.748,0.854,1.731,1.863C288.046,191.836,287.379,192.442,286.361,192.438z"/>
		<path id="_x31__3_" fill="#22252E" d="M285.595,202.474c-0.042,1.053-1.119,2.259-2.024,2.265
			c-0.963,0.008-1.685-0.941-1.658-2.184c0.021-0.999,1.174-1.967,2.311-1.939C285.023,200.635,285.634,201.461,285.595,202.474z"/>
	</g>
	<g id="contact-point-t1">
		<path id="d5h" fill="#22252E" d="M309.347,109.26c-1.165,0.021-2.048-0.78-2.013-1.822c0.033-0.934,1.054-1.721,2.217-1.707
			c0.961,0.011,1.763,0.878,1.734,1.876C311.259,108.586,310.49,109.241,309.347,109.26z"/>
		<path id="d5b" fill="#22252E" d="M309.824,115.938c0.854,0.01,1.742,0.97,1.685,1.875c-0.05,0.771-1.022,1.589-1.813,1.523
			c-0.688-0.059-1.636-1.312-1.58-2.076C308.185,116.207,309.003,116.105,309.824,115.938z"/>
		<path id="d4" fill="#22252E" d="M299.521,112.856c0.036,1.167-0.877,2.042-2.11,2.024c-1.109-0.018-2.078-0.739-2.105-1.574
			c-0.033-0.952,1.311-2.174,2.469-2.249C298.828,110.989,299.482,111.662,299.521,112.856z"/>
		<path id="d3" fill="#22252E" d="M286.753,115.154c-1.767,0.021-2.55-0.537-2.526-1.805c0.02-1.081,1.23-2.233,2.374-2.258
			c1.277-0.028,2.153,0.939,2.126,2.35C288.699,114.82,288.337,115.135,286.753,115.154z"/>
		<path id="d2" fill="#22252E" d="M275.106,114.944c-1.319,0.026-2.269-0.78-2.266-1.927c0.003-1.114,0.927-1.939,2.248-2.008
			c1.178-0.062,2.688,1.238,2.624,2.256C277.66,114.1,276.389,114.92,275.106,114.944z"/>
		<path id="d1" fill="#22252E" d="M264.897,116.125c-1.446,0.014-2.298-0.685-2.235-1.828c0.062-1.109,0.908-1.889,2.026-1.864
			c1.021,0.021,1.913,0.903,1.99,1.966C266.75,115.373,265.984,116.115,264.897,116.125z"/>
		<path id="g4h" fill="#22252E" d="M199.688,107.291c-0.029,1.008-1.369,2.082-2.546,2.039c-1.041-0.037-2.019-0.815-2.062-1.643
			c-0.049-0.909,1.596-2.199,2.757-2.164C198.861,105.556,199.716,106.371,199.688,107.291z"/>
		<path id="g4b" fill="#22252E" d="M202.104,116.748c0.038,0.947-0.981,2.073-1.917,2.121c-0.943,0.047-2.195-0.961-2.24-1.803
			c-0.039-0.703,1.405-2.045,2.305-2.145C201.055,114.834,202.068,115.834,202.104,116.748z"/>
		<path id="g3" fill="#22252E" d="M213.138,114.18c-1.047,0.012-2.283-1.045-2.261-1.934c0.033-1.357,1-2.404,2.172-2.353
			c1.025,0.045,1.953,1.104,2.021,2.306C215.132,113.258,214.244,114.166,213.138,114.18z"/>
		<path id="g2" fill="#22252E" d="M224.314,110.752c0.902,0.02,2.129,1.314,2.088,2.207c-0.052,1.148-1.236,2.168-2.431,2.092
			c-1.179-0.074-2.126-1.049-2.094-2.152C221.906,111.929,223.269,110.728,224.314,110.752z"/>
		<path id="g1" fill="#22252E" d="M236.102,114.939c-1.288,0.01-2.761-1.186-2.703-2.191c0.064-1.119,1.579-2.219,3.02-2.193
			c1.082,0.019,1.764,0.736,1.74,1.83C238.132,113.603,237.062,114.933,236.102,114.939z"/>
		<path id="_x31_0_2_" fill="#22252E" d="M250.777,112.283c1.389,0.012,2.322,0.891,2.264,2.131
			c-0.055,1.162-0.827,1.943-1.916,1.937c-1.541-0.011-2.352-0.588-2.372-1.696C248.727,113.383,249.674,112.274,250.777,112.283z"
			/>
		<path id="_x39__2_" fill="#22252E" d="M253.466,127.709c-0.029,0.137-0.062,0.541-0.202,0.901
			c-0.368,0.938-1.919,1.575-2.777,1.175c-0.748-0.349-0.939-1.462-0.365-2.512c0.218-0.398,0.539-0.8,0.914-1.042
			c0.494-0.317,1.016-0.901,1.693-0.428C253.277,126.188,253.496,126.785,253.466,127.709z"/>
		<path id="_x38__2_" fill="#22252E" d="M253.953,141.412c-0.032,1.006-1.373,2.309-2.356,2.289
			c-0.999-0.021-1.81-0.875-1.747-1.841c0.084-1.312,1.107-2.657,1.954-2.569C253.025,139.416,253.988,140.365,253.953,141.412z"/>
		<path id="_x37__3_" fill="#22252E" d="M252.314,154.804c-1.316-0.04-2.121-0.738-2.037-1.767c0.086-1.072,1.183-2.263,2.086-2.268
			c1.174-0.007,2.303,1.128,2.267,2.279C254.593,154.222,253.767,154.848,252.314,154.804z"/>
		<path id="_x36__2_" fill="#22252E" d="M252.969,168.722c-1.1-0.054-2.191-0.905-2.221-1.732c-0.034-1.003,1.369-2.483,2.24-2.362
			c0.904,0.127,1.935,1.455,1.875,2.42C254.806,167.98,253.916,168.767,252.969,168.722z"/>
		<path id="_x35__2_" fill="#22252E" d="M254.791,179.185c0.045,1.071-0.961,1.955-2.227,1.959
			c-1.383,0.004-2.445-0.761-2.416-1.738c0.031-1.047,1.334-2.292,2.372-2.267C253.602,177.166,254.752,178.201,254.791,179.185z"/>
		<path id="_x34__2_" fill="#22252E" d="M252.044,192.922c-1.517-0.017-2.302-0.664-2.238-1.851
			c0.051-0.964,1.442-2.151,2.515-2.146c0.838,0.004,1.926,1.169,1.969,2.113C254.345,192.195,253.462,192.936,252.044,192.922z"/>
		<path id="_x33__2_" fill="#22252E" d="M249.551,203.285c0.045-1.117,1.754-2.976,2.759-3c0.833-0.02,2.085,1.639,2.002,2.648
			c-0.092,1.129-1.2,1.871-2.651,1.775C250.236,204.616,249.516,204.129,249.551,203.285z"/>
		<path id="_x32__2_" fill="#22252E" d="M251.621,211.84c0.623-0.069,1.504,0.957,1.552,1.81c0.063,1.117-1.093,2.331-2.378,2.495
			c-0.989,0.127-1.874-0.402-2.018-1.205C248.615,214.026,250.507,211.963,251.621,211.84z"/>
		<path id="_x31_d" fill="#22252E" d="M263.543,225.938c0.019,0.727-1.58,2.299-2.356,2.316c-0.454,0.012-1.927-1.584-1.959-2.123
			c-0.057-0.963,1.022-2.146,2.06-2.248C262.117,223.799,263.521,225.078,263.543,225.938z"/>
		<path id="_x31_g" fill="#22252E" d="M242.363,227.674c-1.177-0.027-2.004-0.68-1.983-1.563c0.022-0.964,1.087-1.94,2.087-1.916
			c1.033,0.026,1.915,0.81,1.951,1.731C244.459,227.041,243.68,227.705,242.363,227.674z"/>
	</g>
	<g id="contact-point-n">
		<path id="_x31_1_1_" fill="#22252E" d="M220.67,216.664c-0.021,0.771-0.918,1.455-1.891,1.445c-1.025-0.011-2.252-1.055-2.15-1.83
			c0.083-0.628,1.484-1.63,2.186-1.56C219.515,214.791,220.687,216.018,220.67,216.664z"/>
		<path id="_x31_0_1_" fill="#22252E" d="M218.557,208.25c-1.365-0.041-2.168-0.543-2.197-1.371
			c-0.043-1.213,1.307-2.655,2.377-2.541c0.957,0.104,2.084,1.379,2.078,2.354C220.811,207.695,219.943,208.293,218.557,208.25z"/>
		<path id="_x39__1_" fill="#22252E" d="M216.941,195.013c-1.211,0.005-2.152-0.897-2.166-2.074
			c-0.012-0.987,1.151-1.978,2.312-1.969c1.056,0.009,2.167,0.938,2.197,1.838C219.322,193.963,218.214,195.008,216.941,195.013z"/>
		<path id="_x38__1_" fill="#22252E" d="M212.503,176.615c1.015,0.018,2.22,1.256,2.271,2.332c0.045,0.94-1.16,2.143-2.164,2.16
			c-1.248,0.021-2.195-0.812-2.219-1.956C210.356,177.562,211.164,176.592,212.503,176.615z"/>
		<path id="_x37__2_" fill="#22252E" d="M205.437,169.321c0.007,0.915-1.082,1.812-2.157,1.777
			c-1.053-0.033-2.326-0.917-2.389-1.658c-0.08-0.946,1.139-2.31,2.044-2.283C204.08,167.19,205.43,168.356,205.437,169.321z"/>
		<path id="_x36__1_" fill="#22252E" d="M191.515,168.205c0.01,1.5-0.752,2.156-2.483,2.139c-1.371-0.014-2.089-0.711-2.072-2.014
			c0.017-1.316,1.125-2.646,2.247-2.693C190.388,165.584,191.506,166.83,191.515,168.205z"/>
		<path id="_x35__1_" fill="#22252E" d="M174.122,158.506c0.885,0.05,2.015,1.418,1.939,2.35c-0.094,1.146-1.113,2.13-2.16,2.084
			c-1.309-0.057-2.258-1.214-2.127-2.592C171.872,159.311,172.98,158.44,174.122,158.506z"/>
		<path id="_x34__1_" fill="#22252E" d="M181.297,174.139c-0.044,0.837-1.253,1.804-2.246,1.797
			c-1.175-0.01-2.069-0.988-2.012-2.205c0.056-1.188,1.088-2.264,2.116-2.205C179.885,171.567,181.339,173.34,181.297,174.139z"/>
		<path id="_x33__1_" fill="#22252E" d="M175.939,186.463c-0.004-1.238,0.921-2.277,2.136-2.398c0.752-0.075,1.99,1.438,2.036,2.489
			c0.056,1.274-0.87,2.381-2.05,2.448C176.745,189.076,175.946,188.121,175.939,186.463z"/>
		<path id="_x32__1_" fill="#22252E" d="M177.898,200.063c1.253,0.157,2.276,1.466,2.068,2.647
			c-0.161,0.914-1.074,1.434-2.197,1.248c-0.995-0.164-1.924-1.569-1.783-2.697C176.097,200.385,176.826,199.929,177.898,200.063z"
			/>
		<path id="_x31__2_" fill="#22252E" d="M180.557,216.396c-0.065,1.126-0.935,2.081-1.866,2.051
			c-1.003-0.033-2.038-1.029-2.014-1.939c0.027-1.051,1.194-2.123,2.194-2.016C179.861,214.599,180.613,215.447,180.557,216.396z"/>
	</g>
	<g id="contact-point-o">
		<path id="_x37__1_" fill="#22252E" d="M148.256,197.105c-1.308-0.025-2.194-0.818-2.199-1.969
			c-0.004-0.955,1.164-2.027,2.232-2.051c1.121-0.023,2.187,1.34,2.108,2.696C150.351,196.569,149.446,197.129,148.256,197.105z"/>
		<path id="_x36_b" fill="#22252E" d="M146.586,210.08c-0.021,1.162-0.839,1.952-1.955,1.891c-1.06-0.061-2.389-1.385-2.327-2.316
			c0.059-0.885,1.151-1.854,2.12-1.881C145.608,207.739,146.609,208.808,146.586,210.08z"/>
		<path id="_x35_b" fill="#22252E" d="M134.132,221.481c-1.144-0.042-2.503-1.263-2.456-2.204c0.053-1.045,1.483-2.222,2.698-2.221
			c0.995,0.001,2.015,1.189,1.951,2.273C136.266,220.324,135.052,221.516,134.132,221.481z"/>
		<path id="_x35_h" fill="#22252E" d="M148.604,180.856c-0.009,0.907-1.233,2.007-2.263,2.034c-1.101,0.029-2.057-1.153-1.969-2.438
			c0.065-0.945,1.104-1.957,2.021-1.968C147.421,178.477,148.616,179.758,148.604,180.856z"/>
		<path id="_x34_b" fill="#22252E" d="M121.154,219.31c0.907-0.024,2.156,1.218,2.17,2.161c0.018,1.146-1.084,2.328-2.203,2.365
			c-1.254,0.043-2.038-0.633-2.025-1.744C119.113,220.655,120.084,219.34,121.154,219.31z"/>
		<path id="_x34_h" fill="#22252E" d="M138.961,172.992c-1.396-0.008-2.654-1.258-2.593-2.576c0.043-0.934,0.792-1.668,1.692-1.66
			c1.292,0.009,3.102,1.6,3,2.636C140.979,172.215,139.953,172.998,138.961,172.992z"/>
		<path id="_x33_b" fill="#22252E" d="M110.979,219.268c-1.195-0.057-1.993-0.971-1.955-2.241c0.033-1.095,0.793-1.882,1.758-1.819
			c1.294,0.08,2.137,1.061,2.095,2.431C112.843,218.748,112.175,219.322,110.979,219.268z"/>
		<path id="_x33_h" fill="#22252E" d="M122.89,170.918c-1.167-0.033-1.947-0.838-1.901-1.965c0.048-1.166,1.276-2.517,2.229-2.451
			c1.056,0.074,2.076,1.213,2.044,2.285C125.225,170.057,124.226,170.953,122.89,170.918z"/>
		<path id="_x32_b" fill="#22252E" d="M102.828,204.396c0.001-1.267,0.616-1.89,1.867-1.894c1.17-0.002,2.406,1.332,2.324,2.512
			c-0.063,0.906-0.958,1.74-1.895,1.765C103.699,206.814,102.827,205.91,102.828,204.396z"/>
		<path id="_x32_a" fill="#22252E" d="M111.442,179.336c-1.405-0.021-2.321-0.787-2.269-1.893c0.055-1.169,1.369-2.639,2.376-2.658
			c1.144-0.021,2.28,1.364,2.193,2.672C113.66,178.67,112.817,179.358,111.442,179.336z"/>
		<path id="_x31__1_" fill="#22252E" d="M104.776,192.166c-0.988-0.039-1.889-1.067-1.805-2.062
			c0.092-1.094,1.115-2.077,2.187-2.104c0.951-0.023,2.284,1.566,2.236,2.67C107.359,191.5,106.1,192.219,104.776,192.166z"/>
	</g>
	<g id="contact-point-c1">
		<path id="_x32_5" fill="#22252E" d="M81.17,207.357c0.025,1.574-0.938,2.727-2.299,2.748c-0.95,0.016-2.344-1.648-2.392-2.855
			c-0.04-0.99,1.394-2.656,2.29-2.66C79.885,204.584,81.15,206.043,81.17,207.357z"/>
		<path id="_x32_4" fill="#22252E" d="M66.233,216.39c-1.254-0.026-2.189-0.898-2.183-2.036c0.007-1.365,1.083-2.453,2.396-2.422
			c1.181,0.027,2.249,1.16,2.204,2.337C68.605,215.432,67.484,216.416,66.233,216.39z"/>
		<path id="_x32_3" fill="#22252E" d="M55.744,215.66c0.014,1.141-1.054,1.93-2.767,2.045c-1.115,0.075-2.327-1.295-2.271-2.566
			c0.044-0.996,1.354-1.99,2.614-1.984C54.481,213.157,55.728,214.447,55.744,215.66z"/>
		<path id="_x32_2" fill="#22252E" d="M39.477,214.478c-1.232,0.011-1.866-0.683-1.815-1.981c0.046-1.16,1.703-2.689,2.91-2.689
			c1.147,0.001,2.196,0.938,2.257,2.01C42.913,213.274,41.42,214.461,39.477,214.478z"/>
		<path id="_x32_1" fill="#22252E" d="M28.146,198.293c1.471-0.022,2.564,0.787,2.581,1.914c0.019,1.252-1.17,2.508-2.386,2.521
			c-1.319,0.013-2.83-1.408-2.88-2.71C25.422,198.994,26.474,198.318,28.146,198.293z"/>
		<path id="_x32_0" fill="#22252E" d="M18.2,188.402c-0.042-1.439,0.763-2.558,1.875-2.604c1.068-0.041,2.478,1.502,2.488,2.726
			c0.01,1.254-0.881,2.125-2.281,2.229C19.132,190.838,18.241,189.832,18.2,188.402z"/>
		<path id="_x31_9" fill="#22252E" d="M16.674,170.61c-1.43,0.032-2.502-1.235-2.477-2.927c0.016-1.094,1.062-2.107,2.189-2.124
			c1.335-0.019,2.555,1.187,2.632,2.597C19.093,169.541,18.101,170.58,16.674,170.61z"/>
		<path id="_x31_8" fill="#22252E" d="M16.52,146.379c1.339-0.246,2.416,1.393,2.445,2.395c0.038,1.303-1.058,2.331-2.477,2.376
			c-1.254,0.04-2.464-1.297-2.444-2.703C14.059,147.348,15.219,146.379,16.52,146.379z"/>
		<path id="_x31_7" fill="#22252E" d="M16.943,132.689c-0.021-1.451,1.202-2.861,2.55-2.941c0.893-0.053,2.283,1.166,2.298,2.017
			c0.027,1.504-1.177,2.903-2.542,2.956C17.801,134.776,16.962,134.037,16.943,132.689z"/>
		<path id="_x31_6" fill="#22252E" d="M26.845,118.149c0.058,1.019-1.471,2.646-2.55,2.716c-1.327,0.086-2.333-1.1-2.464-2.906
			c-0.084-1.151,0.936-2.053,2.332-2.06C25.383,115.894,26.784,117.068,26.845,118.149z"/>
		<path id="_x31_5" fill="#22252E" d="M33.463,99.846c1.416,0.059,2.546,1.152,2.484,2.4c-0.067,1.34-1.695,2.762-3.162,2.762
			c-1.402-0.002-2.302-1.152-2.208-2.827C30.646,100.938,32.067,99.787,33.463,99.846z"/>
		<path id="_x31_4" fill="#22252E" d="M41.066,92.07c-1.176-0.031-2.634-1.572-2.525-2.669c0.087-0.88,1.819-2.399,2.702-2.37
			c1.289,0.043,2.558,1.402,2.528,2.707C43.736,91.264,42.746,92.116,41.066,92.07z"/>
		<path id="_x31_3" fill="#22252E" d="M53.351,82.494c-1.34-0.011-2.774-1.418-2.758-2.705c0.01-0.787,1.602-2.17,2.556-2.221
			c1.098-0.057,2.853,1.645,2.875,2.786C56.047,81.535,54.835,82.504,53.351,82.494z"/>
		<path id="_x31_2" fill="#22252E" d="M64.432,73.885c-0.007-1.377,0.84-2.346,2.042-2.338c1.523,0.012,2.673,0.935,2.64,2.119
			c-0.033,1.196-1.216,2.369-2.475,2.453C65.458,76.198,64.438,75.166,64.432,73.885z"/>
		<path id="_x31_1" fill="#22252E" d="M83.019,73.846c-1.118,0.001-1.853-0.764-1.877-1.958c-0.028-1.319,0.917-2.431,2.057-2.423
			c1.128,0.009,2.248,1.166,2.241,2.313C85.432,72.934,84.367,73.844,83.019,73.846z"/>
		<path id="_x31_0" fill="#22252E" d="M99.406,79.407c0.002-1.295,0.433-1.678,1.923-1.706c1.65-0.033,3.192,1.159,3.217,2.484
			c0.02,1.011-1.278,2.164-2.417,2.148C100.6,82.314,99.404,81.028,99.406,79.407z"/>
		<path id="_x39_" fill="#22252E" d="M109.939,97.692c-0.068,1.011-1.484,2.083-2.625,1.986c-1.182-0.099-2.233-1.359-2.088-2.5
			c0.111-0.87,1.309-1.923,2.186-1.921C108.633,95.26,110.014,96.592,109.939,97.692z"/>
		<path id="_x38_" fill="#22252E" d="M97.339,111.207c0.007-1.658,0.557-2.244,2.087-2.224c1.45,0.021,2.516,0.896,2.478,2.033
			c-0.045,1.353-1.133,2.483-2.418,2.515C98.229,113.561,97.333,112.59,97.339,111.207z"/>
		<path id="_x37_" fill="#22252E" d="M86.882,113.09c-0.042,1.464-0.84,2.328-2.148,2.326c-1.192-0.002-2.449-1.242-2.499-2.465
			c-0.049-1.197,1.134-2.091,2.708-2.047C86.175,110.938,86.918,111.776,86.882,113.09z"/>
		<path id="_x36_" fill="#22252E" d="M74.993,106.584c0,1.099-0.752,1.732-2.038,1.72c-1.198-0.013-2.516-1.229-2.559-2.36
			c-0.033-0.881,1.2-2.005,2.253-2.053C73.917,103.832,74.993,105.068,74.993,106.584z"/>
		<path id="_x35_" fill="#22252E" d="M65.417,96.943c-1.409,0-2.048-0.729-2.029-2.312c0.015-1.235,0.564-1.881,1.608-1.885
			c1.426-0.008,2.585,1.139,2.583,2.557C67.578,96.385,66.843,96.943,65.417,96.943z"/>
		<path id="_x34_" fill="#22252E" d="M55.363,55.312c1.294-0.039,2.985,1.089,3.062,2.105c0.08,1.069-0.448,1.804-1.447,2.191
			c-0.998,0.389-2.226,0.045-2.688-0.789c-0.189-0.341-0.268-0.742-0.415-1.107C53.181,55.998,53.571,55.365,55.363,55.312z"/>
		<path id="_x33_" fill="#22252E" d="M55.375,46.02c0.954-0.036,2.441,1.026,2.533,1.809c0.101,0.869-1.289,2.254-2.358,2.349
			c-1.143,0.101-2.32-0.945-2.41-2.141C53.063,47.023,54.125,46.066,55.375,46.02z"/>
		<path id="_x32_" fill="#22252E" d="M56.39,39.88c-1.193-0.037-1.597-0.534-1.531-1.882c0.077-1.555,0.859-2.459,2.075-2.4
			c1.213,0.06,2.326,1.195,2.28,2.327C59.167,39.101,57.97,39.93,56.39,39.88z"/>
		<path id="_x31_" fill="#22252E" d="M63.867,26.382c0.008,1.063-0.997,1.988-2.238,2.06c-0.946,0.054-1.792-0.844-1.743-1.851
			c0.055-1.138,0.875-2.016,1.932-2.068C62.938,24.468,63.856,25.301,63.867,26.382z"/>
	</g>
</g>
<g id="contact-lettres">
	<path id="o-interieur" fill="#1D7056" stroke="#1D7056" stroke-miterlimit="10" d="M141.726,191.215
		c0.166,5.697-1.646,10.838-4.745,15.488c-1.678,2.519-4.008,4.553-6.792,5.842c-3.777,1.748-7.604,0.994-11.443-0.022
		c-3.047-0.81-5.423-2.472-6.744-5.263c-1.225-2.588-1.899-5.407-1.467-8.327c0.557-3.767,0.895-7.585,2.527-11.119
		c1.245-2.694,2.697-5.218,4.91-7.267c0.929-0.859,1.794-1.834,2.497-2.883c1.258-1.883,3.074-2.373,5.146-2.399
		c2.081-0.028,4.136,0.289,6.165,0.663c3.834,0.707,6.575,2.738,8.199,6.47C141.226,185.265,141.644,188.185,141.726,191.215z
		 M126.797,177.455c-1.622-0.095-3.049,0.487-4.222,1.465c-3.524,2.938-6.506,6.371-8.131,10.713
		c-1.494,3.992-1.951,8.19-1.796,12.468c0.077,2.116,0.885,3.889,2.231,5.397c3.209,3.604,7.442,4.512,11.932,3.756
		c5.039-0.846,8.292-4.187,10.293-8.75c1.413-3.223,2.233-6.588,2.539-10.133c0.35-4.059-0.453-7.703-2.728-11.062
		c-0.987-1.457-2.305-2.46-3.998-2.823C130.896,178.053,128.839,177.791,126.797,177.455z"/>
	<path id="a-interieur" fill="#1D7056" stroke="#1D7056" stroke-miterlimit="10" d="M289.019,202.857
		c0.228-4.279,1.304-8.33,3.431-12.076c0.67-1.18,1.334-2.374,2.135-3.464c3.092-4.208,7.055-5.771,12.062-3.508
		c3.137,1.416,5.342,3.644,7.35,6.501c3.295,4.686,2.144,9.26,0.625,13.9c-0.604,1.838-1.354,3.711-2.676,5.291
		c-2.861,3.424-7.766,6.019-12.429,4.646c-0.914-0.271-1.866-0.454-2.792-0.615c-3.246-0.567-4.969-2.932-6.643-5.354
		C288.986,206.592,288.959,204.724,289.019,202.857z M314.107,197.311c0.284-2.368-0.293-4.46-1.773-6.295
		c-0.648-0.807-1.189-1.749-1.979-2.385c-2.722-2.199-5.271-4.649-9.419-3.023c-2.3,0.9-3.909,2.329-5.289,4.166
		c-1.55,2.062-2.209,4.557-3.12,6.93c-1.576,4.104-1.205,8.033,0.748,11.907c0.646,1.278,1.555,2.315,2.858,2.745
		c4.022,1.32,7.983,1.314,11.626-1.184C312.279,207.073,314.06,202.594,314.107,197.311z"/>
	<path id="c1" fill="#1D7056" stroke="#1D7056" stroke-miterlimit="10" d="M53.125,98.375c-3.682,2.877-6.903,6.181-9.523,10.133
		c-2.154,3.25-4.612,6.298-6.646,9.64c-2.152,3.536-4.076,7.206-5.59,11.038c-0.802,2.029-1.259,4.29-1.171,6.546
		c0.066,1.696-0.17,3.344-0.57,4.97c-0.482,1.959-0.566,3.916-0.381,5.924c0.791,8.588,2.423,17.041,4.061,25.489
		c1.022,5.271,2.911,10.29,5.206,15.104c2.244,4.707,5.846,8.104,10.822,10.145c4.649,1.906,9.433,3.029,14.38,3.018
		c3.021-0.01,5.878-1.377,8.506-2.94c3.035-1.81,5.939-3.874,8.053-6.709c1.925-2.581,3.99-5.177,4.557-8.532
		c0.115-0.68,0.24-1.352,0.981-1.792c1.396-0.831,1.954-0.718,2.443,0.822c0.913,2.873,2.268,5.563,2.953,8.554
		c0.917,3.998,0.593,7.869-0.035,11.816c-0.609,3.822-2.039,7.338-3.677,10.801c-1.377,2.909-3.409,5.312-5.847,7.335
		c-2.508,2.079-5.082,4.106-7.801,5.896c-1.893,1.244-3.932,2.449-6.413,2.234c-0.625-0.054-1.287,0.033-1.902,0.178
		c-5.021,1.174-10.084,1.067-15.199,0.823c-4.511-0.216-8.815-1.173-13.119-2.403c-2.73-0.781-5.201-2.104-7.518-3.594
		c-4.087-2.623-7.991-5.539-11.377-9.084c-1.512-1.58-2.751-3.354-3.541-5.354c-1.236-3.133-2.801-6.074-4.578-8.913
		c-0.431-0.688-0.781-1.397-1.024-2.147c-1.472-4.543-3.138-9.021-4.199-13.699c-0.854-3.765-1.066-7.578-1.253-11.396
		c-0.055-1.118-0.207-2.216-0.338-3.312c-0.738-6.135-0.256-12.293-0.437-18.435c-0.198-6.7,0.958-13.2,2.498-19.64
		c0.961-4.018,2.214-7.973,3.862-11.791c0.947-2.193,1.631-4.496,2.458-6.741c2.289-6.214,5.326-12.073,8.267-17.979
		c0.771-1.549,1.877-2.943,2.913-4.348c3.64-4.935,7.101-10.041,11.969-13.9c1.562-1.238,2.987-2.633,4.576-3.83
		c1.627-1.226,2.56-3.252,4.643-3.956c0.441-0.149,0.339-0.623,0.262-1.039c-0.247-1.333-0.472-2.671-0.666-4.011
		c-0.667-4.612-0.147-9.198,0.668-13.712c0.803-4.451,1.573-8.917,3.119-13.224c4.021-11.206,11.088-20.001,20.78-26.765
		c2.366-1.651,5.112-2.603,7.77-3.648c1.919-0.755,3.948-1.241,5.872-2.038c0.901-0.373,1.862-0.677,2.632,0.634
		c0.699,1.189,0.121,1.749-0.56,2.452c-3.569,3.688-6.569,7.783-8.821,12.408c-1.437,2.954-2.178,6.108-2.971,9.286
		c-1.18,4.729-1.958,9.525-2.884,14.295c-0.878,4.525-1.63,9.08-0.955,13.736c0.282,1.946,0.42,2.104,2.355,1.959
		c2.786-0.208,5.488-0.995,8.31-1.004c5.602-0.016,10.958,1.22,16.006,3.459c4.596,2.039,8.977,4.619,12.61,8.166
		c2.31,2.255,4.639,4.509,6.013,7.617c1.053,2.381,2.611,4.531,3.5,7.037c1.499,4.223,2.733,8.479,2.792,13.008
		c0.073,5.531-1.106,10.83-3.746,15.629c-1.702,3.097-3.967,5.91-6.884,8.123c-1.67,1.269-3.383,2.287-5.407,2.83
		c-4.852,1.299-9.687,2.854-14.785,2.429c-4.19-0.349-8.375-0.829-12.306-2.609c-2.902-1.313-5.82-2.585-8.71-3.928
		c-4.062-1.888-6.346-5.333-8.831-8.624c-2.42-3.205-3.789-6.997-5.122-10.766c-0.159-0.449-0.362-0.885-0.578-1.311
		C53.535,98.608,53.355,98.543,53.125,98.375z M87.326,185.429c-1.176,0.475-1.485,1.307-1.823,2.108
		c-0.657,1.564-1.577,2.973-2.785,4.146c-2.284,2.221-4.576,4.451-7.232,6.23c-2.915,1.953-5.904,3.719-9.456,4.402
		c-2.087,0.402-4.125,0.273-6.18,0.141c-4.65-0.305-9.187-1.154-13.386-3.295c-2.957-1.507-5.486-3.6-7.512-6.199
		c-1.908-2.449-4.495-4.565-4.58-8.069c-2.054-4.188-2.932-8.745-4.038-13.222c-1.262-5.109-2.389-10.244-2.609-15.543
		c-0.204-4.924-1.253-9.758-0.938-14.772c0.308-4.908,1.083-9.661,2.361-14.374c0.374-1.379,0.52-2.836,1.02-4.164
		c1.873-4.969,5.303-9.012,8.254-13.316c1.837-2.681,4.14-5.051,6.478-7.342c2.623-2.57,5.108-5.311,8.031-7.535
		c5.607-4.268,11.879-7.43,18.23-10.41c2.382-1.117,4.949-1.92,7.625-1.797c2.782,0.127,5.553,0.494,8.326,0.783
		c0.891,0.094,1.631,0.562,2.397,1.016c1.814,1.074,2.985,2.875,4.661,4.056c2.067,1.456,3.008,3.534,3.428,5.812
		c0.43,2.334,0.766,4.791-0.745,6.955c-1.72,2.465-6.979,4.809-10.504,2.825c-3.308-1.86-6.173-4.225-8.042-7.625
		c-1.458-2.651-2.765-5.376-3.974-8.149c-0.254-0.584-0.575-1.137-0.844-1.713c-0.26-0.556-0.721-0.68-1.177-0.398
		c-2.781,1.715-5.851,2.872-8.645,4.572c-2.323,1.416-4.371,3.168-6.521,4.801c-1.641,1.247-1.68,1.23-1.068,3.23
		c1.789,5.854,4.562,11.062,8.961,15.491c2.209,2.226,4.665,3.874,7.358,5.205c4.523,2.234,9.32,3.832,14.333,4.453
		c3.799,0.472,7.597,0.362,11.364-0.897c2.22-0.744,4.24-1.815,6.307-2.805c4.217-2.02,7.347-5.104,9.458-9.413
		c2.831-5.778,3.542-11.838,3.452-18.125c-0.056-3.876-1.38-7.384-3.257-10.618c-1.715-2.955-3.807-5.719-5.963-8.379
		c-1.025-1.266-1.931-2.755-3.399-3.604c-1.97-1.14-4.211-1.901-5.282-4.175c-0.051-0.108-0.287-0.12-0.428-0.194
		c-4.405-2.319-9.03-4.112-13.987-4.593c-7.668-0.744-15.246,0.105-22.714,1.996c-2.272,0.576-4.237,1.82-6.368,2.676
		c-3.198,1.283-6.126,3.011-9.015,4.826c-2.011,1.266-4.035,2.511-5.801,4.147c-3.761,3.484-6.892,7.529-10.226,11.388
		c-3.91,4.526-7.014,9.619-10.08,14.75c-2.835,4.742-4.704,9.888-6.779,14.945c-1.967,4.794-3.26,9.83-4.721,14.801
		c-1.098,3.734-1.923,7.541-2.587,11.369c-0.641,3.698-0.535,7.459-0.574,11.203c-0.012,1.113-0.178,2.223-0.254,3.336
		c-0.301,4.372-0.33,8.737-0.043,13.118c0.344,5.269,1.354,10.421,2.346,15.585c0.858,4.473,2.056,8.834,3.773,13.062
		c1.273,3.142,3.446,5.697,5.239,8.498c0.699,1.093,1.018,2.334,1.749,3.392c1.787,2.58,3.815,4.862,6.526,6.571
		c4.249,2.682,8.497,5.361,13.148,7.277c4.774,1.969,9.786,2.491,14.954,2.396c6.309-0.115,12.334-1.232,18.18-3.602
		c5.878-2.385,10.07-6.732,13.342-11.854c2.825-4.425,4.004-9.534,3.825-14.876C88.797,192.426,88.568,188.945,87.326,185.429z
		 M46.852,66.707c3.623-1.675,7.477-2.219,10.849-4.119c1.532-0.864,3.211-1.402,4.901-1.905c3.659-1.089,3.695-1.115,3.203-5.021
		c-0.644-5.114-0.227-10.171,0.799-15.179c1.056-5.152,2.537-10.204,3.849-15.295c1.106-4.292,2.851-8.272,5.128-12.065
		c1.003-1.67,2.251-3.226,3.012-5.247c-1.274-0.115-2.179,0.426-3.07,0.88c-5.222,2.66-9.833,6.212-14.198,10.066
		c-3.618,3.194-8.238,10.948-9.794,15.566c-1.854,5.498-4.018,10.883-4.758,16.712c-0.553,4.358-0.794,8.717-0.751,13.1
		C46.03,65.021,46.374,65.742,46.852,66.707z M79.131,85.258c-0.239,0-0.478,0.005-0.716,0c-1.916-0.043-2.278,0.486-1.28,2.19
		c0.45,0.771,0.642,1.609,1.03,2.382c1.888,3.754,3.63,7.592,7.009,10.352c1.986,1.622,4.038,2.449,6.497,1.122
		c1.322-0.714,2.763-1.324,3.614-2.617c0.872-1.326,0.082-2.548-0.542-3.735c-0.069-0.132-0.05-0.312-0.069-0.47
		c-0.273-2.244-1.571-3.756-3.459-4.849c-0.825-0.479-1.609-1.047-2.476-1.43C85.659,86.842,82.645,85.23,79.131,85.258z"/>
	<path id="t2" fill="#1D7056" stroke="#1D7056" stroke-miterlimit="10" d="M363.084,114.799c-1.284-1.168-2.385-2.186-3.502-3.183
		c-2.151-1.921-3.151-4.584-4.428-7.044c-0.58-1.121,0.566-2.393,0.24-3.705c-0.109-0.451,0.65-0.637,1.139-0.484
		c0.836,0.264,1.662,0.572,2.471,0.914c4.982,2.1,10.308,2.57,15.576,3.383c5.242,0.809,10.521,0.637,15.771,0.683
		c7.559,0.067,15.13-0.274,22.679-0.731c3.808-0.23,7.619-0.418,11.427-0.696c0.939-0.069,1.905,0.081,2.854,0.194
		c2.405,0.293,4.766-0.416,7.147-0.319c3.986,0.159,7.975,0.606,11.966,0.321c5.906-0.42,11.758,0.613,17.648,0.527
		c4.15-0.059,8.302-0.082,12.451-0.193c2.632-0.07,5.22-0.242,7.818-0.668c2.647-0.433,5.002-1.557,7.371-2.689
		c0.502-0.24,0.964-0.645,1.485-0.742c1.072-0.201,1.679-0.804,2.055-1.779c0.138-0.358,0.46-0.646,0.696-0.967
		c0.426-0.57,0.991-0.77,1.684-0.65c0.803,0.14,0.935,0.779,1.037,1.421c0.907,5.733-0.1,10.915-4.371,15.157
		c-0.278,0.275-0.497,0.611-0.858,1.062c2.473,1.352,3.896,3.52,4.909,5.966c1.107,2.673,1.499,5.528,1.644,8.382
		c0.096,1.86-0.646,2.225-2.378,1.484c-0.435-0.186-0.876-0.417-1.226-0.727c-6.019-5.314-13.287-6.985-21.021-6.981
		c-7.257,0.003-14.506,0.506-21.764,0.667c-4.548,0.102-8.974,1.424-13.232,3.075c-3.566,1.383-4.321,2.868-4.126,6.592
		c0.165,3.146,0.095,6.31-0.003,9.461c-0.084,2.786-0.267,5.575-0.545,8.349c-0.39,3.887-0.988,7.75-1.153,11.662
		c-0.104,2.396-0.231,4.783-0.115,7.188c0.219,4.545,0.283,9.099,0.512,13.645c0.196,3.883,0.611,7.756,0.779,11.639
		c0.12,2.791,0.246,5.625-0.087,8.386c-0.441,3.647,0.093,7.172,0.715,10.698c0.907,5.142,3.369,9.719,5.535,14.392
		c0.531,1.146,1.188,2.229,2.356,2.942c0.646,0.396,1.036,1.018,1.082,1.971c0.064,1.336-0.468,1.799-1.628,2.165
		c-3.272,1.033-6.378,0.809-9.481-0.689c-1.847-0.891-4.011-1.146-5.367-2.938c-0.765-1.008-1.24-2.24-2.398-3.062
		c-1.298,0.983-2.579,2.041-3.94,2.976c-2.804,1.919-5.754,3.29-9.318,3.229c-2.34-0.039-4.598-0.488-6.893-0.742
		c-0.657-0.072-1.408-0.308-1.51-1.271c-0.097-0.939,0.536-1.124,1.162-1.533c5.014-3.277,8.472-7.541,9.251-13.771
		c0.6-4.763,0.893-9.533,1.229-14.312c0.462-6.517,0.84-13.039,0.847-19.563c0.005-5.024,0.382-10.031,0.405-15.05
		c0.034-7.252,0.133-14.504,0.107-21.754c-0.012-3.908-0.164-7.811-0.079-11.727c0.059-2.751-0.43-5.548-1.455-8.188
		c-0.309-0.789-0.816-1.353-1.429-1.879c-2.561-2.203-5.606-3.315-8.863-3.942c-3.237-0.623-6.472-0.384-9.745-0.179
		c-4.771,0.301-9.572,0.195-14.36,0.175c-5.594-0.024-10.929,0.77-15.865,3.717c-1.679,1.002-3.552,1.72-5.263,2.748
		c-0.987,0.593-1.776,1.291-2.553,2.096c-0.857,0.89-1.646,0.665-1.808-0.546c-0.354-2.671-0.019-5.26,1.354-7.636
		c1.277-2.218,2.747-4.296,4.646-6.043C362.598,115.465,362.77,115.189,363.084,114.799z M496.642,102.795
		c-0.87-0.388-1.242,0.058-1.679,0.406c-1.316,1.051-2.759,1.901-4.363,2.424c-3.719,1.213-7.545,2.086-11.443,2.127
		c-6.366,0.067-12.721,0.545-19.083,0.57c-8.21,0.033-16.422,0.018-24.628-0.181c-3.896-0.095-7.784,0.336-11.706-0.212
		c-2.149-0.301-4.434-0.116-6.678,0.126c-3.627,0.392-7.3,0.54-10.948,0.489c-5.337-0.073-10.668-0.472-16.004-0.627
		c-6.78-0.197-13.561-0.396-20.276-1.445c-3.764-0.587-7.632-0.719-11.126-2.516c-0.256-0.131-0.584-0.311-1.112,0.258
		c2.44,3.283,3.67,7.701,8.53,8.834c0.521,0.121,1.156,0.436,1.186,1.056c0.027,0.604-0.157,1.159-0.88,1.526
		c-0.905,0.459-1.693,1.168-2.491,1.82c-2.271,1.853-3.57,4.293-4.293,7.172c2.412-1.34,5.161-1.576,7.479-2.865
		c2.211-1.229,4.665-1.621,7.039-2.139c5.298-1.156,10.725-1.596,16.125-1.904c7.182-0.409,14.341-0.166,21.101,2.844
		c2.212,0.984,4.592,2.016,5.88,3.98c1.812,2.762,3.184,5.838,3.218,9.35c0.078,7.645-0.459,15.281-0.177,22.93
		c0.052,1.406,0.247,2.848,0.035,4.273c-0.604,4.051-0.289,8.128-0.31,12.193c-0.014,2.219,0.2,4.442,0.134,6.657
		c-0.066,2.138-0.561,4.241-0.329,6.415c0.166,1.575,0.229,3.204,0.019,4.768c-0.445,3.328-0.243,6.666-0.354,9.998
		c-0.125,3.66,0.163,7.33-0.383,10.982c-0.447,2.995-1.075,5.955-1.86,8.87c-0.945,3.515-2.714,6.591-5.378,9.142
		c-0.658,0.629-1.565,1.078-1.985,2.027c5.004,0.986,5.834,0.947,9.474-1.157c1.354-0.784,2.614-1.763,3.809-2.831
		c0.801-0.717,1.555-1.357,1.787-2.434c0.191-0.895,0.716-1.438,1.631-1.438c0.763,0.002,1.666,1.131,1.769,2.066
		c0.287,2.654,2.8,5.633,5.1,6.033c1.337,0.232,2.67,0.513,4.018,0.658c1.214,0.131,2.449,0.455,4.059,0.031
		c-1.812-1.468-2.607-3.242-3.416-5.019c-2.854-6.271-5.249-12.654-5.17-19.694c0.006-0.474-0.146-0.947-0.184-1.424
		c-0.267-3.496-1.168-6.934-1.079-10.456c0.157-6.308-0.821-12.565-0.686-18.876c0.072-3.33-0.336-6.666,0.104-10
		c0.222-1.658,0.396-3.328,0.46-4.998c0.191-4.854,0.415-9.71,0.447-14.566c0.04-5.994,1.239-11.903,1.164-17.902
		c-0.02-1.59,0.684-2.959,2.099-3.811c3.062-1.843,6.146-3.688,9.738-4.291c4.556-0.766,9.115-1.469,13.759-1.468
		c3.341,0.001,6.688-0.006,10.018-0.228c3.002-0.198,5.971-0.49,9.007-0.449c4.584,0.062,8.715,1.646,12.981,2.877
		c1.999,0.576,3.405,2.011,5.042,3.128c0.774,0.531,1.248,0.291,1.207-0.571c-0.104-2.113-0.677-4.027-2.242-5.589
		c-1.298-1.293-2.648-2.499-4.172-3.526c-1.354-0.912-1.337-1.645-0.058-2.74c0.242-0.208,0.444-0.48,0.717-0.633
		C495.252,110.605,495.57,106.521,496.642,102.795z"/>
	<path id="t1" fill="#1D7056" stroke="#1D7056" stroke-miterlimit="10" d="M251.184,226.676c-1.882,1.764-3.773,3.354-5.447,5.146
		c-3.217,3.441-7.179,5.153-11.789,5.71c-2.168,0.265-4.3-0.1-6.449-0.005c-0.771,0.033-1.424-0.304-1.713-1.067
		c-0.293-0.776,0.293-1.125,0.815-1.523c2.961-2.27,4.966-5.312,7.043-8.355c3.226-4.73,5.621-9.815,7.392-15.224
		c1.381-4.217,1.592-8.608,1.867-12.996c0.199-3.172,0.024-6.344,0.568-9.526c0.452-2.645,0.234-5.412,0.205-8.125
		c-0.023-2.152-0.219-4.304,0.146-6.448c0.08-0.468,0.047-0.959,0.017-1.438c-0.289-4.53-0.259-9.071-0.47-13.602
		c-0.256-5.5-0.129-11.002-0.336-16.493c-0.144-3.82,0.025-7.656-0.487-11.471c-0.259-1.932-1.076-3.34-2.388-4.775
		c-3.05-3.338-6.987-4.468-11.18-5.326c-7.232-1.479-14.433-0.801-21.665-0.058c-4,0.411-7.825,1.415-11.631,2.621
		c-2.445,0.774-4.828,1.627-6.681,3.509c-0.446,0.453-1.009,0.546-1.54,0.314c-0.586-0.258-0.634-0.836-0.615-1.436
		c0.108-3.439,1.643-6.286,3.708-8.9c1.129-1.429,2.324-2.806,3.479-4.195c-0.781-1.172-2.035-1.661-2.936-2.564
		c-3.175-3.186-5.164-7.008-6.155-11.367c-0.312-1.373,0.303-2.029,1.686-1.662c0.741,0.195,1.506,0.36,2.228,0.777
		c5.088,2.942,10.743,3.939,16.479,4.532c4.904,0.506,9.824,0.869,14.738,1.288c5.414,0.462,10.828,0.064,16.241-0.02
		c1.956-0.031,3.929-0.257,5.867,0.164c1.131,0.246,2.235-0.021,3.333-0.103c4.68-0.347,9.377-0.036,14.049-0.401
		c8.008-0.626,16.034-0.965,24.057-1.082c3.736-0.057,7.468-0.287,11.188-0.443c4.44-0.188,8.948-0.313,13.296-1.383
		c4.268-1.049,8.432-2.451,11.684-5.664c0.455-0.45,0.931-0.709,1.679-0.66c1.504,0.101,1.889,0.484,1.239,1.83
		c-0.354,0.735-0.635,1.416-0.616,2.25c0.075,3.432-0.876,6.606-2.334,9.688c-0.533,1.127-1.304,1.963-2.158,2.803
		c-0.646,0.631-0.882,1.301,0.181,1.881c1.721,0.941,2.454,2.688,3.192,4.344c1.185,2.648,1.582,5.498,1.787,8.377
		c0.049,0.678,0.082,1.349-0.622,1.624c-0.598,0.233-1.109,0.698-1.957,0.208c-5.17-2.996-10.811-4.78-16.697-5.461
		c-7.054-0.814-14.156-1.355-21.271-1.047c-3.646,0.158-7.316,0.332-10.881,1.262c-2.071,0.542-3.724,1.441-5.196,3.318
		c-1.438,1.834-2.783,3.59-3.604,5.756c-0.625,1.647-0.902,3.317-0.984,5.104c-0.18,3.897-0.728,7.778-0.562,11.697
		c0.205,4.86,0.307,9.722,0.6,14.583c0.26,4.27,0.113,8.572,0.108,12.857c-0.002,2.836,0.11,5.735,0.438,8.57
		c0.338,2.93,0.072,5.852,0.371,8.781c0.515,5.062,0.613,10.164,1.053,15.24c0.316,3.648,0.372,7.332,1.367,10.873
		c1.431,5.074,3.885,9.586,7.791,13.225c0.562,0.521,1.285,0.581,1.929,0.859c0.619,0.271,1.382,0.203,1.873,0.915
		c1.396,2.019,1.026,3.215-1.415,3.605c-4.387,0.703-8.729,0.731-12.863-1.312c-1.066-0.527-2.273-0.78-3.316-1.346
		c-2.49-1.348-4.646-3.062-5.947-5.701C252.486,228.234,251.707,227.406,251.184,226.676z M189.674,123.336
		c0.133,0.125,0.266,0.252,0.398,0.377c0.797-0.353,1.592-0.709,2.392-1.057c3.896-1.691,7.944-2.914,12.146-3.488
		c6.149-0.842,12.315-1.448,18.549-1.092c4.246,0.243,8.373,0.838,12.338,2.473c4.982,2.058,7.92,5.775,8.986,10.953
		c0.461,2.237,0.752,4.51,0.678,6.853c-0.086,2.69-0.019,5.399,0.326,8.106c0.289,2.271,0.469,4.629,0.062,6.914
		c-0.621,3.477-0.379,6.961-0.399,10.449c-0.027,5.027,0.68,10.027,0.621,15.045c-0.084,7.241-0.259,14.483-0.777,21.709
		c-0.131,1.826-0.08,3.688-0.388,5.469c-0.637,3.68-1.532,7.297-2.872,10.822c-2.203,5.803-5.379,11.019-8.96,16.029
		c-0.468,0.654-1.309,1.082-1.487,2.299c3.012-0.917,5.998-1.164,8.481-2.84c3.724-2.512,7.113-5.402,9.207-9.495
		c0.386-0.751,0.802-1.106,1.606-1.118c0.912-0.014,1.525,0.354,1.81,1.244c0.097,0.303,0.228,0.598,0.368,0.883
		c1.826,3.678,3.992,6.949,7.74,9.125c3.806,2.207,7.707,2.711,12.037,2.207c-0.187-0.389-0.229-0.666-0.391-0.791
		c-4.521-3.494-7.085-8.293-9.254-13.434c-1.087-2.575-1.602-5.27-1.593-7.925c0.017-5.892-0.712-11.733-0.983-17.599
		c-0.246-5.33-0.445-10.68-0.719-16.015c-0.355-6.921-0.413-13.858-0.625-20.788c-0.073-2.375-0.372-4.75-0.303-7.117
		c0.092-3.188,0.308-6.363-0.094-9.551c-0.33-2.62-0.297-5.288,0.041-7.879c0.563-4.312,2.799-7.945,5.539-11.214
		c1.047-1.248,2.299-2.451,3.977-2.957c3.607-1.09,7.339-1.681,11.07-1.665c6.916,0.027,13.854-0.023,20.732,0.891
		c4.982,0.661,9.969,1.317,14.714,3.127c1.775,0.676,3.593,1.25,5.466,1.896c0.481-3.788-1.188-6.527-3.859-8.731
		c-1.376-1.135-2.814-2.183-4.906-1.818c-1.207,0.211-1.729-0.707-1.582-2.043c0.105-0.961,0.796-1.603,1.814-1.305
		c2.322,0.68,3.625-0.634,4.785-2.23c1.521-2.092,2.438-4.475,2.992-6.984c0.133-0.609,0.717-1.285-0.012-2.02
		c-2.025,1.121-4.014,2.299-6.188,3.086c-7.627,2.761-15.574,3.212-23.574,3.258c-6.391,0.036-12.781-0.167-19.168,0.121
		c-6.609,0.297-13.209,0.796-19.83,0.816c-4.709,0.014-9.419,0.045-14.127,0.125c-4.135,0.07-8.277,0.463-12.395,0.273
		c-5.255-0.242-10.521-0.51-15.757-0.993c-4.59-0.423-9.178-1.083-13.627-2.478c-2.171-0.68-4.25-1.577-6.497-2.559
		c-0.038,1.35,0.592,2.266,1.067,3.088c2.083,3.598,4.142,7.33,9.118,7.316c-0.229,1.93-0.219,1.943-1.424,2.754
		C193.441,116.224,191.634,119.834,189.674,123.336z"/>
	<path id="n" fill="#1D7056" stroke="#1D7056" stroke-miterlimit="10" d="M185.757,196.371c-0.103,6.922,1.307,13.614,2.84,20.318
		c0.903,3.943,2.344,7.542,4.718,10.8c0.816,1.12,0.481,1.718-0.932,1.818c-0.636,0.045-1.286-0.04-1.915,0.045
		c-3.325,0.453-6.073-0.94-8.687-2.708c-1.755-1.188-1.704-1.198-3.42-0.064c-4.277,2.824-9.079,3.764-14.106,3.762
		c-1.395,0-1.563-0.354-0.902-1.604c0.967-1.831,2.601-3.204,3.507-5.104c0.515-1.078,1.006-2.123,1.313-3.301
		c1.8-6.908,2.672-13.935,2.92-21.055c0.075-2.15,0.267-4.3,0.345-6.451c0.186-5.117-0.48-10.197-0.764-15.295
		c-0.131-2.355,0.069-4.72-0.482-7.085c-0.933-3.999-2.629-7.466-5.812-10.139c-1.635-1.373-3.116-2.917-4.994-4.009
		c-1.177-0.683-1.154-1.28-0.146-2.258c1.013-0.982,2.327-1.438,3.641-1.711c6.357-1.315,12.307-0.383,17.862,3.148
		c3.998,2.541,8.332,4.139,13.16,4.543c4.312,0.361,8.612,0.152,12.914,0.307c0.315,0.01,0.659,0.074,0.942-0.023
		c2.595-0.906,4.506,0.639,6.528,1.787c2.457,1.396,3.531,3.769,4.383,6.283c0.56,1.652,1.578,3.074,2.123,4.765
		c1.594,4.938,2.824,9.97,3.523,15.083c0.569,4.156,0.789,8.375,0.846,12.599c0.08,6.123,0.229,12.267,1.455,18.3
		c0.453,2.227,1.422,4.244,3.584,5.424c0.336,0.183,0.642,0.476,0.871,0.785c0.866,1.168,0.664,1.764-0.701,2.258
		c-2.93,1.062-5.959,1.035-8.994,0.779c-1.065-0.09-1.93-0.803-2.684-1.469c-0.769-0.678-1.283-0.65-2.031-0.048
		c-3.312,2.676-7.228,3.123-11.287,2.899c-0.528-0.027-1.09-0.293-1.545-0.586c-0.905-0.58-0.95-1.718,0.023-2.053
		c2.137-0.734,2.781-2.52,3.393-4.324c1.548-4.563,2.307-9.25,1.947-14.089c-0.457-6.122-0.908-12.243-2.23-18.262
		c-0.497-2.263-1.092-4.506-1.958-6.646c-1.114-2.748-3.095-4.924-5.669-6.266c-2.355-1.227-4.866-0.666-6.955,0.939
		c-3.157,2.429-5.007,5.709-5.87,9.586C185.901,190.801,185.799,193.582,185.757,196.371z M190.33,226.762
		c-1.309-1.44-1.835-3.123-2.54-4.725c-1.207-2.742-1.292-5.746-2.076-8.58c-2.066-7.468-2.53-15.069-2.14-22.764
		c0.307-6.058,2.925-10.87,7.912-14.271c1.954-1.332,4.142-2.373,6.704-1.82c4.497,0.97,7.104,3.962,8.59,8.081
		c0.265,0.731,0.433,1.513,0.748,2.243c1.526,3.539,2.032,7.367,2.514,11.102c0.298,2.317,0.765,4.678,0.763,7.071
		c-0.001,1.181-0.16,2.396,0.033,3.562c0.836,5.035,0.108,9.971-0.827,14.9c-0.393,2.062-1.321,3.953-2.102,5.941
		c2.764,0.156,5.717-1.369,7.668-3.846c1.236-1.572,2.178-1.652,3.191-0.039c1.941,3.088,5.146,3.616,9.157,2.381
		c-1.609-1.799-2.666-3.588-3.082-5.685c-0.435-2.185-0.761-4.394-1.05-6.603c-0.61-4.681-0.459-9.4-0.682-14.102
		c-0.246-5.188-0.384-10.388-1.734-15.419c-1.238-4.614-2.85-9.13-4.17-13.726c-0.498-1.731-1.34-3.235-2.284-4.713
		c-0.57-0.892-1.318-1.623-2.371-1.922c-2.22-0.632-4.42-1.271-6.788-1.211c-3.114,0.078-6.232-0.027-9.35-0.047
		c-5.396-0.035-10.444-1.426-14.988-4.285c-3.112-1.957-6.407-3.14-10.005-3.701c-3.15-0.492-6.241-0.689-9.601,0.74
		c1.121,0.803,2.021,1.424,2.895,2.082c1.207,0.907,2.363,1.82,3.317,3.063c3.668,4.778,4.849,10.37,5.332,16.14
		c0.324,3.863,0.193,7.766,0.311,11.646c0.097,3.183-0.113,6.348-0.257,9.521c-0.191,4.215-0.184,8.442-0.595,12.645
		c-0.579,5.906-2.036,11.568-5.163,16.703c-0.11,0.183-0.098,0.438-0.174,0.813c4.233-0.247,7.755-1.858,10.7-4.726
		c1.69-1.646,2.125-1.741,3.445,0.128c1.271,1.8,3.12,2.728,4.995,3.567C187.65,227.377,188.887,227.778,190.33,226.762z"/>
	<path id="c2" fill="#1D7056" stroke="#1D7056" stroke-miterlimit="10" d="M392.079,193.49c-1.106-0.371-1.229-1.365-1.643-2.092
		c-1.477-2.588-3.266-4.92-5.729-6.6c-3.727-2.534-9.828-2.014-13.452,0.74c-2.269,1.725-3.758,3.838-4.642,6.486
		c-0.9,2.714-1.939,5.391-1.931,8.312c0.012,2.945,1.098,5.336,3.229,7.438c6.2,6.108,13.214,5.776,20.587,2.812
		c3.144-1.268,5.98-3.002,7.768-6.049c0.324-0.558,0.622-1.201,1.424-1.009c0.876,0.214,0.922,0.993,1.021,1.714
		c0.456,3.413-0.219,6.648-1.398,9.85c-2.617,7.104-7.943,11.234-14.765,13.871c-3.554,1.373-7.243,2.031-10.986,2.037
		c-2.763,0.002-5.434-0.721-7.961-2.146c-4.679-2.637-8.43-6.319-11.69-10.408c-4.18-5.237-5.773-11.567-6.774-18.146
		c-0.747-4.905,0.633-9.266,2.22-13.672c2.405-6.674,6.477-12.238,11.883-16.754c2.437-2.035,5.306-3.555,8.281-4.711
		c1.465-0.569,2.865-1.277,4.447-1.649c4.517-1.062,8.179,0.43,11.805,2.978c2.907,2.043,5.32,4.545,7.636,7.135
		c3.214,3.597,4.798,7.812,3.646,12.72C394.451,188.897,393.947,191.502,392.079,193.49z M392.322,188.832
		c1.206-3.707,1.729-6.968,0.171-10.115c-2.152-4.354-5.607-7.641-9.368-10.654c-3.396-2.721-7.361-3.186-11.244-2.293
		c-4.005,0.92-7.714,2.834-11.027,5.498c-6.312,5.074-10.363,11.592-12.826,19.179c-1.594,4.907-1.27,9.888-0.205,14.854
		c0.604,2.82,1.646,5.486,3.047,7.986c1.967,3.51,4.672,6.473,7.461,9.327c3.826,3.919,8.36,6.345,14.023,6.03
		c1.993-0.109,3.993-0.232,5.968-0.51c3.025-0.42,5.894-1.295,8.471-3.062c4.382-3.007,8.151-6.464,9.398-11.909
		c0.434-1.885,1.123-3.754,0.81-6.06c-2.076,1.892-4.094,3.373-6.356,4.505c-3.916,1.957-8.146,2.734-12.426,3.189
		c-1.87,0.199-3.833,0.08-5.622-0.779c-1.43-0.688-2.947-1.246-4.265-2.107c-1.719-1.123-3.506-2.269-4.43-4.238
		c-1.808-3.854-1.841-7.826-0.823-11.9c0.764-3.059,1.995-5.909,3.753-8.486c2.3-3.379,5.184-5.908,9.533-6.451
		c3.764-0.472,7.024,0.75,10.188,2.414C388.802,184.43,390.647,186.174,392.322,188.832z"/>
	<path id="a-exterieur" fill="#1D7056" stroke="#1D7056" stroke-miterlimit="10" d="M308.84,168.56
		c2.447,0.146,4.915-0.621,7.357,0.014c2.849,0.74,5.498,1.716,7.736,3.845c1.557,1.479,3.043,2.989,4.528,4.533
		c2.007,2.086,2.44,4.547,2.655,7.189c0.291,3.561,0.166,7.131,0.299,10.691c0.172,4.607,0.133,9.23,0.664,13.832
		c0.236,2.047,0.039,4.121,0.312,6.196c0.6,4.562,2.016,8.8,4.421,12.702c1.165,1.891,2.095,3.941,3.862,5.425
		c0.904,0.758,0.605,1.571-0.266,2.162c-1.258,0.852-2.584,1.62-4.14,1.715c-1.673,0.104-3.354,0.161-5.026,0.101
		c-2.115-0.079-3.938-0.808-5.668-2.188c-2.135-1.703-4.06-3.597-6-5.488c-1.002-0.979-1.537-2.222-1.947-3.527
		c-0.217-0.682-0.438-1.363-0.635-2.053c-0.256-0.897-0.762-0.896-1.426-0.431c-1.437,1.013-2.85,2.06-4.32,3.017
		c-5.562,3.627-11.401,4.203-17.519,1.504c-0.362-0.16-0.733-0.311-1.112-0.424c-5.031-1.531-8.295-5.102-10.769-9.496
		c-1.722-3.062-2.981-6.348-4.183-9.64c-0.721-1.974-0.278-4.093-0.301-6.123c-0.056-4.858,0.799-9.635,1.938-14.368
		c0.828-3.435,2.999-6.023,5.188-8.492c5.254-5.933,11.998-9.375,19.799-10.664C305.771,168.351,307.324,168.56,308.84,168.56z
		 M338.302,233.537c-0.229-0.904-0.869-1.521-1.406-2.207c-4.098-5.23-6.353-11.264-6.893-17.789
		c-0.513-6.185-0.416-12.418-0.612-18.629c-0.138-4.363-0.158-8.732-0.999-13.054c-0.493-2.534-1.626-4.716-3.669-6.203
		c-1.464-1.065-3.161-1.84-4.646-2.917c-1.328-0.962-2.856-1.296-4.438-1.497c-0.631-0.079-1.259-0.194-1.893-0.263
		c-3.661-0.396-7.32-0.689-10.963,0.16c-4.478,1.044-8.489,3.133-12.263,5.667c-3.417,2.296-6.438,4.989-7.454,9.271
		c-0.125,0.529-0.545,0.98-0.729,1.504c-2.021,5.664-3.884,11.353-2.123,17.481c0.239,0.839,0.354,1.714,0.518,2.575
		c0.579,3.086,1.599,6.027,3.374,8.613c2.555,3.717,5.771,6.81,9.463,9.407c1.412,0.995,2.922,1.538,4.704,1.39
		c1.433-0.121,2.863-0.323,4.284-0.379c5.646-0.225,9.943-3.006,13.707-6.894c0.389-0.399,0.66-1.063,1.293-0.83
		c0.708,0.265,0.977,0.879,0.962,1.718c-0.044,2.891,0.864,5.452,2.786,7.657c2.833,3.252,6.4,5.154,10.598,6.004
		C334.128,234.777,336.315,235.124,338.302,233.537z"/>
	<path id="o-exterieur" fill="#1D7056" stroke="#1D7056" stroke-miterlimit="10" d="M127.263,159.086
		c2.58,0.455,5.419-0.026,8.132,0.9c1.588,0.542,3.086,1.346,4.53,2.087c2.933,1.509,6.062,2.644,8.62,5.013
		c1.756,1.627,3.238,3.47,4.934,5.125c1.037,1.014,1.456,2.514,1.776,3.879c1.213,5.179,2.797,10.32,2.465,15.731
		c-0.333,5.446-0.7,10.906-3.077,15.958c-2.229,4.735-5.297,8.854-9.313,12.227c-2.251,1.892-4.469,3.814-6.899,5.502
		c-1.839,1.275-3.926,1.707-5.951,2.354c-5.015,1.604-10.082,2.201-15.303,0.812c-1.684-0.446-3.369-0.912-5.05-1.375
		c-3.354-0.924-6.23-2.959-8.154-5.605c-2.453-3.377-4.362-7.199-5.585-11.306c-1.973-6.625-2.089-13.251-1.017-20.065
		c0.726-4.609,1.649-9.104,3.758-13.246c3.03-5.951,6.66-11.397,12.816-14.725C118.519,159.881,121.226,159.041,127.263,159.086z
		 M124.396,227.094c6.018,0.304,11.299-1.543,15.998-5.271c2.008-1.593,3.997-3.217,5.738-5.072c2.721-2.905,5.352-5.93,6.72-9.774
		c1.444-4.058,2.335-8.243,2.895-12.519c0.515-3.937,0.407-7.789-0.837-11.584c-0.122-0.371-0.076-0.795-0.169-1.182
		c-1.242-5.115-3.146-9.812-7.852-12.833c-1.341-0.86-2.771-1.567-4.089-2.442c-3.777-2.513-7.781-4.129-12.384-4.623
		c-5.877-0.629-11.213,0.646-16.382,3.24c-2.078,1.041-3.337,2.915-4.855,4.524c-1.578,1.674-3.101,3.386-4.197,5.459
		c-0.662,1.252-1.265,2.53-1.927,3.778c-1.693,3.191-3.055,6.562-3.495,10.098c-0.874,7.036-1.442,14.097,0.827,21.068
		c1.315,4.041,3.569,7.408,6.327,10.539c1.471,1.67,3.386,2.582,5.336,3.506C115.971,225.865,119.952,227.426,124.396,227.094z"/>
	<path id="t2-fill" fill="#1D7056" d="M496.642,102.795c-1.071,3.726-1.39,7.811-5.368,10.047c-0.271,0.152-0.474,0.425-0.716,0.632
		c-1.281,1.097-1.298,1.829,0.056,2.741c1.523,1.026,2.874,2.232,4.174,3.525c1.565,1.561,2.141,3.477,2.24,5.59
		c0.041,0.861-0.431,1.102-1.207,0.57c-1.635-1.117-3.043-2.552-5.042-3.128c-4.267-1.229-8.396-2.815-12.979-2.877
		c-3.036-0.041-6.005,0.251-9.007,0.45c-3.329,0.221-6.679,0.228-10.019,0.227c-4.643-0.001-9.204,0.703-13.758,1.467
		c-3.593,0.604-6.676,2.449-9.739,4.291c-1.416,0.853-2.115,2.221-2.098,3.812c0.075,6-1.124,11.909-1.164,17.901
		c-0.032,4.857-0.256,9.713-0.448,14.567c-0.063,1.669-0.237,3.341-0.459,4.998c-0.439,3.334-0.032,6.67-0.104,10
		c-0.14,6.31,0.843,12.569,0.686,18.876c-0.089,3.521,0.812,6.96,1.079,10.456c0.036,0.478,0.188,0.95,0.183,1.424
		c-0.078,7.04,2.317,13.425,5.171,19.694c0.809,1.775,1.604,3.551,3.416,5.018c-1.607,0.424-2.846,0.102-4.059-0.031
		c-1.348-0.146-2.681-0.426-4.018-0.657c-2.3-0.4-4.812-3.377-5.101-6.033c-0.102-0.938-1.005-2.065-1.768-2.067
		c-0.915,0-1.438,0.545-1.631,1.438c-0.232,1.074-0.986,1.717-1.787,2.436c-1.192,1.066-2.453,2.047-3.811,2.829
		c-3.638,2.105-4.468,2.146-9.472,1.157c0.42-0.949,1.327-1.396,1.985-2.027c2.664-2.551,4.433-5.625,5.378-9.142
		c0.785-2.915,1.413-5.875,1.858-8.87c0.548-3.65,0.26-7.322,0.385-10.982c0.11-3.33-0.094-6.668,0.354-9.998
		c0.21-1.562,0.147-3.19-0.019-4.768c-0.229-2.174,0.263-4.277,0.329-6.415c0.066-2.215-0.146-4.438-0.136-6.657
		c0.021-4.065-0.293-8.143,0.312-12.193c0.212-1.426,0.017-2.867-0.035-4.273c-0.282-7.648,0.255-15.285,0.177-22.93
		c-0.036-3.51-1.406-6.588-3.218-9.35c-1.288-1.965-3.668-2.996-5.88-3.98c-6.76-3.009-13.919-3.253-21.103-2.843
		c-5.398,0.308-10.825,0.747-16.125,1.903c-2.374,0.518-4.826,0.91-7.037,2.14c-2.317,1.288-5.066,1.522-7.479,2.864
		c0.722-2.879,2.021-5.319,4.293-7.172c0.798-0.651,1.586-1.36,2.491-1.82c0.723-0.367,0.907-0.922,0.88-1.526
		c-0.027-0.62-0.663-0.935-1.188-1.056c-4.858-1.133-6.087-5.551-8.528-8.834c0.529-0.567,0.857-0.389,1.113-0.258
		c3.494,1.797,7.361,1.929,11.123,2.516c6.72,1.049,13.496,1.249,20.278,1.445c5.336,0.156,10.667,0.554,16.004,0.627
		c3.648,0.051,7.321-0.098,10.948-0.489c2.244-0.243,4.526-0.427,6.678-0.126c3.92,0.548,7.812,0.117,11.706,0.212
		c8.206,0.198,16.418,0.214,24.628,0.181c6.362-0.025,12.715-0.503,19.083-0.57c3.898-0.041,7.727-0.914,11.443-2.127
		c1.604-0.522,3.047-1.373,4.363-2.424C495.399,102.853,495.771,102.407,496.642,102.795z M426.007,166.774
		c1.102,0.043,2.477-0.972,2.444-1.808c-0.032-0.854-1.018-1.801-1.866-1.797c-1.12,0.004-2.123,0.783-2.216,1.722
		C424.267,165.926,424.97,166.733,426.007,166.774z M380.371,115.076c0.879,0.039,1.842,0.182,1.844-1.147
		c0.002-1.235-0.983-2.073-2.383-2.077c-1.027-0.003-1.812,0.628-1.812,1.454C378.026,114.267,379.061,115.047,380.371,115.076z
		 M425.9,205.985c1.104,0.017,2.224-0.848,2.19-1.692c-0.031-0.867-1.188-2.109-1.96-2.104c-1.114,0.007-2.121,1.035-2.091,2.136
		C424.069,205.375,424.733,205.967,425.9,205.985z M426.979,114.851c-1.202,0.063-2.684,1.507-2.51,2.323
		c0.183,0.855,0.747,1.355,1.664,1.356c1.178,0.002,2.45-1.196,2.265-2.253C428.253,115.453,427.599,115.006,426.979,114.851z
		 M427.598,216.205c-0.01-0.817-1.206-2.113-1.936-2.097c-0.903,0.021-1.729,1.097-1.696,2.211c0.025,0.979,0.624,1.517,1.699,1.527
		C426.738,217.858,427.608,217.119,427.598,216.205z M426.201,179.451c1.191,0.021,2.206-0.601,2.257-1.343
		c0.048-0.719-0.975-1.979-1.643-2.026c-1.229-0.084-1.979,0.707-2.021,2.045C424.762,179.195,425.34,179.5,426.201,179.451z
		 M423.935,190.959c0.024,0.965,0.858,1.812,1.803,1.83c1.086,0.021,2.001-0.746,1.935-1.621c-0.065-0.854-1.095-1.972-1.794-1.945
		C424.968,189.254,423.915,190.195,423.935,190.959z M445.973,115.9c0.015-0.684-1.383-2.081-2.046-2.046
		c-0.785,0.041-1.786,1.063-1.863,1.905c-0.081,0.893,0.605,1.664,1.546,1.736C444.572,117.571,445.957,116.637,445.973,115.9z
		 M479.321,113.293c-1.473-0.015-2.608,0.836-2.506,1.901c0.108,1.11,1.125,1.021,1.804,1.146c1.062,0.195,2.127-0.577,2.162-1.336
		C480.831,113.998,480.238,113.304,479.321,113.293z M426.609,153.449c0.933-0.055,2.061-1,1.989-1.664
		c-0.083-0.796-1.192-1.957-1.8-1.883c-1.02,0.124-1.913,0.941-1.897,1.73C424.924,152.771,425.617,153.508,426.609,153.449z
		 M456.489,113.375c-0.968-0.014-1.474,0.576-1.477,1.717c-0.003,1.088,0.683,1.856,1.693,1.902
		c0.841,0.038,1.612-0.718,1.683-1.642C458.465,114.306,457.584,113.388,456.489,113.375z M428.256,140.791
		c0.021-0.764-0.793-1.93-1.396-2c-0.921-0.109-2.13,0.89-2.146,1.772c-0.021,1.219,0.547,1.896,1.607,1.914
		C427.348,142.494,428.232,141.724,428.256,140.791z M428.332,129.064c-0.07-0.833-1.013-1.637-1.804-1.539
		c-1.07,0.133-2.149,1.114-2.048,1.966c0.11,0.912,0.676,1.374,1.636,1.315C427.31,130.734,428.401,129.893,428.332,129.064z
		 M370.071,119.151c1.148-0.009,1.936-0.575,1.874-1.351c-0.071-0.94-1.284-1.938-2.4-1.93c-1.056,0.008-1.297,0.786-1.35,1.613
		C368.136,118.47,368.959,119.16,370.071,119.151z M402.14,114.533c-0.001-1.056-1.081-2.099-2.025-2.103
		c-0.771-0.003-1.75,0.842-1.812,1.567c-0.067,0.785,0.935,1.605,2.037,1.578C401.153,115.558,401.881,115.297,402.14,114.533z
		 M412.148,113.308c-0.772-0.06-1.369,0.303-1.382,1.321c-0.014,1.125,1.058,2.281,2.062,2.158c0.879-0.106,1.439-0.567,1.392-1.574
		C414.156,113.983,413.496,113.295,412.148,113.308z M369.967,111.502c0.609-0.096,1.414-0.138,1.615-0.996
		c0.189-0.816-1.028-1.992-1.972-2.008c-0.991-0.018-1.775,0.643-1.792,1.504C367.806,110.943,368.561,111.5,369.967,111.502z
		 M419.728,223.765c-0.688,0.075-1.89,1.312-1.871,1.925c0.022,0.754,1.184,1.771,1.984,1.741c0.771-0.029,1.522-1.011,1.43-1.865
		C421.15,224.489,420.46,223.684,419.728,223.765z M390.199,115.539c1.046,0.035,2.357-0.836,2.351-1.444
		c-0.011-0.729-0.938-1.733-1.632-1.771c-0.974-0.05-1.89,0.728-1.937,1.668C388.934,114.949,389.436,115.44,390.199,115.539z
		 M468.606,116.062c1.229,0.006,1.994-0.577,2.008-1.537c0.018-1.035-0.629-1.363-1.525-1.398c-1.169-0.043-2.321,0.787-2.201,1.688
		C467.01,115.742,467.707,116.094,468.606,116.062z M434.859,226.6c-0.083-1.098-1.203-2.414-2.043-2.301
		c-0.806,0.107-1.245,0.552-1.111,1.482c0.188,1.329,0.979,2.092,2.228,1.928C434.528,227.631,434.994,227.34,434.859,226.6z
		 M491.417,119.771c-0.062-0.895-1.089-1.785-1.966-1.682c-0.907,0.105-1.186,0.676-1.074,1.516
		c0.121,0.925,0.856,1.489,1.861,1.382C490.953,120.912,491.431,120.568,491.417,119.771z M490.332,110.149
		c-0.028-0.885-0.812-1.649-1.569-1.614c-0.768,0.035-1.773,1.092-1.62,1.773c0.197,0.883,0.957,1.07,1.685,1.003
		C489.533,111.246,490.233,110.965,490.332,110.149z"/>
	<path id="c2-fill" fill="#1D7056" d="M392.021,189.116c-1.675-2.657-3.521-4.401-5.771-5.586
		c-3.163-1.663-6.428-2.884-10.188-2.414c-4.352,0.544-7.233,3.074-9.535,6.451c-1.756,2.579-2.988,5.431-3.75,8.488
		c-1.019,4.073-0.984,8.047,0.822,11.901c0.924,1.971,2.711,3.114,4.428,4.237c1.317,0.861,2.835,1.419,4.267,2.106
		c1.789,0.859,3.752,0.979,5.622,0.779c4.276-0.455,8.51-1.231,12.426-3.188c2.265-1.132,4.28-2.614,6.354-4.505
		c0.315,2.306-0.376,4.175-0.808,6.059c-1.247,5.446-5.019,8.903-9.4,11.91c-2.575,1.77-5.441,2.643-8.469,3.062
		c-1.975,0.273-3.975,0.396-5.968,0.508c-5.663,0.312-10.198-2.11-14.022-6.028c-2.789-2.856-5.496-5.819-7.461-9.33
		c-1.4-2.499-2.443-5.165-3.049-7.985c-1.062-4.969-1.388-9.945,0.205-14.854c2.462-7.587,6.514-14.105,12.827-19.18
		c3.312-2.662,7.021-4.577,11.027-5.498c3.883-0.891,7.85-0.428,11.242,2.294c3.763,3.014,7.218,6.301,9.368,10.655
		C393.748,182.148,393.228,185.408,392.021,189.116z M358.16,209.967c-0.033-1.385-1.33-2.73-2.543-2.644
		c-0.986,0.072-2.213,1.662-2.147,2.782c0.062,1.046,1.567,2.221,2.782,2.169C357.359,212.23,358.189,211.224,358.16,209.967z
		 M370.863,173.92c-0.006,1.517,0.785,2.586,1.879,2.545c1.19-0.047,2.702-1.446,2.745-2.543c0.052-1.279-1.458-2.545-2.959-2.483
		C371.59,171.478,370.867,172.554,370.863,173.92z M380.617,221.494c0.032-1.093-1.335-2.354-2.541-2.348
		c-1.089,0.006-2.145,1.341-2.123,2.686c0.016,1.105,0.959,1.996,2.18,2.056C379.17,223.935,380.586,222.571,380.617,221.494z
		 M355.794,197.429c0.021-0.445-0.153-0.99-0.46-1.449c-0.465-0.694-0.786-1.679-1.896-1.522c-0.882,0.123-1.853,1.553-1.878,2.519
		c-0.021,0.707,0.502,1.146,0.761,1.708c0.355,0.771,1.019,1.322,1.91,1.023C355.195,199.383,355.826,198.679,355.794,197.429z
		 M364.759,216.987c-1.104-0.021-2.114,1.157-2.093,2.438c0.018,1.121,0.972,2.01,2.19,2.043c0.978,0.027,2.449-1.014,2.518-1.777
		C367.459,218.696,365.827,217.008,364.759,216.987z M365.936,178.965c0.155-1.631-0.348-2.18-2.149-2.346
		c-1.406-0.13-2.175,0.518-2.351,1.981c-0.14,1.165,0.628,1.998,1.939,2.103C364.931,180.826,365.816,180.226,365.936,178.965z
		 M386.74,177.028c0.021-1.458-1.051-2.766-2.321-2.834c-0.84-0.045-1.867,1.05-1.938,2.06c-0.078,1.185,1.543,2.483,3.043,2.455
		C386.688,178.687,386.639,177.808,386.74,177.028z M356.068,189.274c0.928-0.04,1.82-1.163,1.762-2.212
		c-0.063-1.143-0.904-1.986-1.965-1.977c-1.317,0.013-2.265,0.996-2.194,2.285C353.719,188.32,354.982,189.322,356.068,189.274z
		 M386.548,217.207c-0.105,1.352,0.159,1.676,1.452,1.793c1.097,0.103,2.395-0.953,2.466-2.004c0.062-0.914-1.092-1.988-2.217-2.062
		C387.124,214.86,386.686,215.444,386.548,217.207z"/>
	<path id="a-fill" fill="#1D7056" d="M338,233.82c-1.985,1.588-4.174,1.241-6.402,0.789c-4.193-0.85-7.764-2.752-10.596-6.004
		c-1.922-2.205-2.83-4.77-2.786-7.658c0.013-0.838-0.254-1.453-0.962-1.717c-0.633-0.234-0.906,0.43-1.293,0.83
		c-3.764,3.887-8.062,6.669-13.707,6.893c-1.422,0.055-2.854,0.258-4.284,0.379c-1.783,0.149-3.292-0.394-4.706-1.39
		c-3.689-2.599-6.907-5.69-9.461-9.407c-1.777-2.587-2.795-5.527-3.374-8.613c-0.162-0.86-0.276-1.735-0.519-2.575
		c-1.761-6.132,0.103-11.816,2.123-17.481c0.188-0.521,0.605-0.974,0.73-1.503c1.018-4.278,4.037-6.976,7.454-9.271
		c3.771-2.533,7.784-4.623,12.262-5.668c3.644-0.85,7.304-0.558,10.964-0.159c0.633,0.067,1.262,0.183,1.893,0.263
		c1.58,0.201,3.111,0.535,4.438,1.497c1.484,1.077,3.183,1.853,4.646,2.917c2.043,1.484,3.176,3.668,3.669,6.203
		c0.841,4.318,0.861,8.688,0.999,13.054c0.196,6.211,0.1,12.444,0.612,18.628c0.539,6.526,2.795,12.559,6.893,17.789
		C337.132,232.299,337.772,232.916,338,233.82z M288.718,203.142c-0.06,1.866-0.032,3.733,1.062,5.321
		c1.674,2.424,3.396,4.787,6.644,5.354c0.925,0.162,1.878,0.348,2.792,0.615c4.663,1.371,9.564-1.225,12.427-4.646
		c1.321-1.582,2.074-3.453,2.677-5.291c1.52-4.643,2.672-9.217-0.623-13.9c-2.011-2.858-4.215-5.086-7.351-6.502
		c-5.008-2.262-8.972-0.699-12.062,3.509c-0.802,1.09-1.465,2.285-2.136,3.464C290.021,194.812,288.945,198.862,288.718,203.142z
		 M321.324,205.655c1.224,0.027,2.398-1.032,2.388-2.147c-0.015-0.982-1.177-2.127-2.16-2.123c-1.407,0.005-2.175,0.849-2.269,2.5
		C319.223,204.938,320.016,205.627,321.324,205.655z M316.412,179.131c-1.172-0.033-2.201,1.043-2.207,2.306
		c-0.006,1.043,0.99,1.894,2.281,1.946c1.157,0.048,2.192-0.866,2.244-1.981C318.781,180.346,317.572,179.164,316.412,179.131z
		 M320.354,194.408c1.572-0.06,2.561-0.933,2.485-2.199c-0.068-1.188-0.99-1.981-2.214-1.912c-1.057,0.062-2.182,1.344-2.125,2.416
		C318.552,193.664,319.404,194.443,320.354,194.408z M327.205,226.736c-1.51-0.035-1.897,0.277-1.938,1.559
		c-0.041,1.326,0.604,1.92,2.089,1.928c1.434,0.006,2.376-0.68,2.385-1.732C329.752,227.393,328.856,226.774,327.205,226.736z
		 M313.193,215.789c0.062-1.18-0.785-2.065-2.051-2.15c-1.014-0.068-2.152,1.037-2.143,2.085c0.009,0.927,0.853,1.784,1.828,1.862
		C312.029,217.681,313.139,216.838,313.193,215.789z M300.711,219.955c0-1.336-0.868-2.131-2.301-2.104
		c-0.856,0.015-1.86,0.979-1.902,1.828c-0.055,1.12,1.09,2.097,2.451,2.088C300.014,221.758,300.709,221.037,300.711,219.955z
		 M292.972,183.561c1.325-0.008,2.198-0.816,2.157-1.997c-0.033-0.95-0.858-1.653-1.949-1.66c-1.197-0.007-2.025,0.778-1.975,1.87
		C291.257,182.881,291.935,183.565,292.972,183.561z M307.262,177.049c0.064-1.195-0.812-2.119-2.023-2.127
		c-1.127-0.008-2.007,0.75-2.091,1.803c-0.094,1.177,0.745,2.05,2.015,2.097C306.293,178.863,307.205,178.094,307.262,177.049z
		 M285.294,202.758c0.038-1.014-0.571-1.84-1.374-1.858c-1.137-0.026-2.29,0.94-2.311,1.938c-0.024,1.242,0.695,2.189,1.658,2.185
		C284.175,205.017,285.252,203.811,285.294,202.758z M326.177,216.914c-0.017-1.32-0.8-2.109-2.06-2.078
		c-1.033,0.026-1.812,0.97-1.742,2.11c0.059,0.954,0.916,1.796,1.854,1.82C325.467,218.799,326.191,218.108,326.177,216.914z
		 M288.378,217.642c1.173,0.042,2.096-0.654,2.2-1.66c0.104-0.991-1.027-2.11-2.109-2.091c-0.866,0.016-1.6,0.865-1.682,1.953
		C286.695,217.069,287.16,217.597,288.378,217.642z M286.06,192.722c1.019,0.005,1.687-0.603,1.699-1.546
		c0.017-1.012-0.731-1.813-1.731-1.862c-0.852-0.041-1.438,0.644-1.48,1.726C284.503,192.066,285.09,192.717,286.06,192.722z"/>
	<path id="t1-fill" fill="#1D7056" d="M189.674,123.336c1.959-3.5,3.767-7.112,7.273-9.473c1.205-0.811,1.194-0.824,1.422-2.754
		c-4.976,0.014-7.036-3.719-9.118-7.316c-0.475-0.821-1.105-1.738-1.067-3.088c2.246,0.98,4.325,1.877,6.497,2.559
		c4.449,1.394,9.037,2.054,13.627,2.478c5.236,0.483,10.502,0.751,15.756,0.993c4.118,0.189,8.262-0.203,12.395-0.273
		c4.709-0.08,9.419-0.111,14.128-0.125c6.62-0.021,13.221-0.52,19.829-0.816c6.388-0.287,12.779-0.084,19.168-0.121
		c8-0.045,15.949-0.497,23.576-3.258c2.174-0.787,4.16-1.965,6.187-3.085c0.729,0.733,0.146,1.409,0.011,2.019
		c-0.554,2.51-1.471,4.893-2.99,6.984c-1.162,1.597-2.465,2.91-4.787,2.23c-1.02-0.298-1.709,0.342-1.813,1.305
		c-0.146,1.337,0.375,2.254,1.582,2.044c2.093-0.365,3.53,0.683,4.906,1.817c2.674,2.205,4.343,4.944,3.86,8.731
		c-1.875-0.646-3.689-1.22-5.467-1.896c-4.744-1.811-9.729-2.467-14.714-3.127c-6.881-0.916-13.815-0.863-20.733-0.891
		c-3.73-0.016-7.461,0.575-11.069,1.665c-1.677,0.506-2.929,1.709-3.976,2.957c-2.74,3.269-4.977,6.901-5.539,11.214
		c-0.338,2.592-0.371,5.26-0.041,7.879c0.4,3.188,0.186,6.361,0.093,9.551c-0.068,2.367,0.229,4.743,0.303,7.117
		c0.211,6.93,0.271,13.866,0.625,20.788c0.272,5.335,0.472,10.683,0.72,16.013c0.271,5.865,1,11.707,0.982,17.601
		c-0.008,2.653,0.506,5.35,1.593,7.925c2.169,5.141,4.733,9.938,9.254,13.434c0.161,0.125,0.204,0.402,0.39,0.791
		c-4.33,0.504-8.229,0-12.035-2.207c-3.75-2.176-5.916-5.445-7.741-9.123c-0.142-0.285-0.272-0.58-0.368-0.885
		c-0.284-0.89-0.896-1.258-1.809-1.242c-0.805,0.012-1.223,0.365-1.607,1.116c-2.094,4.093-5.482,6.983-9.207,9.495
		c-2.484,1.676-5.471,1.923-8.482,2.84c0.18-1.217,1.021-1.644,1.488-2.299c3.581-5.013,6.756-10.229,8.961-16.029
		c1.338-3.524,2.234-7.145,2.871-10.82c0.309-1.781,0.256-3.645,0.387-5.469c0.521-7.228,0.694-14.47,0.778-21.709
		c0.058-5.021-0.649-10.02-0.62-15.045c0.02-3.488-0.223-6.974,0.398-10.451c0.408-2.283,0.229-4.641-0.061-6.912
		c-0.346-2.709-0.412-5.418-0.328-8.107c0.074-2.343-0.215-4.613-0.676-6.852c-1.068-5.178-4.005-8.896-8.986-10.953
		c-3.965-1.637-8.094-2.23-12.338-2.473c-6.234-0.356-12.4,0.25-18.549,1.09c-4.203,0.576-8.25,1.797-12.146,3.49
		c-0.799,0.346-1.595,0.704-2.392,1.057C189.939,123.588,189.807,123.461,189.674,123.336z M236.102,114.939
		c0.96-0.007,2.03-1.337,2.057-2.557c0.023-1.092-0.658-1.811-1.738-1.829c-1.441-0.025-2.956,1.075-3.02,2.192
		C233.341,113.754,234.813,114.949,236.102,114.939z M275.106,114.944c1.282-0.024,2.556-0.845,2.606-1.679
		c0.064-1.02-1.446-2.317-2.624-2.256c-1.321,0.068-2.245,0.895-2.248,2.008C272.838,114.164,273.787,114.972,275.106,114.944z
		 M249.551,203.285c-0.035,0.846,0.686,1.331,2.109,1.426c1.451,0.096,2.56-0.646,2.651-1.775c0.083-1.012-1.17-2.668-2.002-2.646
		C251.305,200.31,249.596,202.168,249.551,203.285z M224.314,110.752c-1.046-0.023-2.408,1.177-2.437,2.146
		c-0.032,1.104,0.915,2.079,2.094,2.153c1.194,0.076,2.379-0.944,2.431-2.094C226.443,112.066,225.217,110.771,224.314,110.752z
		 M286.753,115.154c1.584-0.02,1.946-0.334,1.974-1.713c0.027-1.41-0.849-2.378-2.126-2.35c-1.144,0.024-2.354,1.177-2.374,2.258
		C284.203,114.619,284.986,115.176,286.753,115.154z M252.044,192.922c1.418,0.014,2.301-0.729,2.245-1.883
		c-0.043-0.944-1.131-2.109-1.969-2.113c-1.07-0.006-2.463,1.184-2.515,2.146C249.742,192.258,250.527,192.907,252.044,192.922z
		 M253.953,141.412c0.035-1.046-0.928-1.996-2.149-2.123c-0.847-0.086-1.87,1.258-1.954,2.57c-0.062,0.967,0.748,1.819,1.747,1.84
		C252.58,143.721,253.921,142.418,253.953,141.412z M254.791,179.185c-0.041-0.983-1.189-2.019-2.271-2.046
		c-1.036-0.025-2.34,1.22-2.372,2.267c-0.029,0.978,1.033,1.742,2.416,1.738C253.83,181.14,254.836,180.256,254.791,179.185z
		 M250.777,112.283c-1.104-0.009-2.05,1.1-2.024,2.372c0.021,1.107,0.831,1.685,2.372,1.696c1.089,0.007,1.861-0.773,1.916-1.938
		C253.1,113.174,252.166,112.295,250.777,112.283z M252.314,154.804c1.453,0.044,2.278-0.582,2.315-1.755
		c0.036-1.15-1.093-2.286-2.267-2.279c-0.904,0.005-2,1.195-2.086,2.268C250.193,154.064,250.998,154.764,252.314,154.804z
		 M213.138,114.18c1.106-0.014,1.994-0.922,1.933-1.98c-0.068-1.203-0.996-2.261-2.021-2.306c-1.171-0.052-2.139,0.995-2.172,2.353
		C210.854,113.135,212.09,114.191,213.138,114.18z M251.621,211.84c-1.114,0.123-3.008,2.187-2.844,3.1
		c0.145,0.803,1.028,1.332,2.018,1.205c1.285-0.164,2.441-1.378,2.378-2.495C253.125,212.797,252.244,211.771,251.621,211.84z
		 M263.543,225.938c-0.022-0.859-1.426-2.139-2.256-2.055c-1.037,0.104-2.117,1.285-2.061,2.248
		c0.032,0.539,1.504,2.135,1.959,2.123C261.964,228.236,263.562,226.664,263.543,225.938z M199.688,107.291
		c0.028-0.92-0.826-1.734-1.852-1.767c-1.161-0.036-2.805,1.255-2.758,2.164c0.043,0.826,1.021,1.604,2.062,1.644
		C198.318,109.373,199.658,108.299,199.688,107.291z M299.521,112.856c-0.038-1.194-0.69-1.867-1.749-1.799
		c-1.16,0.075-2.502,1.297-2.469,2.249c0.029,0.835,0.996,1.557,2.107,1.574C298.644,114.899,299.557,114.023,299.521,112.856z
		 M252.969,168.722c0.947,0.045,1.837-0.74,1.895-1.675c0.06-0.967-0.971-2.293-1.875-2.42c-0.871-0.123-2.273,1.358-2.24,2.361
		C250.777,167.816,251.869,168.668,252.969,168.722z M253.466,127.709c0.03-0.926-0.188-1.521-0.737-1.904
		c-0.678-0.475-1.199,0.111-1.693,0.428c-0.375,0.241-0.696,0.643-0.914,1.042c-0.574,1.05-0.381,2.163,0.365,2.511
		c0.857,0.401,2.409-0.236,2.777-1.174C253.406,128.25,253.437,127.847,253.466,127.709z M264.897,116.125
		c1.087-0.009,1.853-0.752,1.781-1.728c-0.077-1.062-0.972-1.944-1.99-1.966c-1.118-0.024-1.965,0.755-2.026,1.863
		C262.599,115.439,263.451,116.138,264.897,116.125z M309.347,109.26c1.144-0.019,1.912-0.674,1.938-1.652
		c0.026-0.998-0.773-1.865-1.734-1.876c-1.163-0.013-2.184,0.772-2.217,1.707C307.299,108.48,308.182,109.28,309.347,109.26z
		 M202.104,116.748c-0.036-0.914-1.05-1.912-1.854-1.826c-0.898,0.099-2.344,1.441-2.305,2.145c0.047,0.842,1.299,1.85,2.241,1.803
		C201.123,118.821,202.143,117.694,202.104,116.748z M242.363,227.674c1.316,0.029,2.098-0.635,2.055-1.748
		c-0.036-0.922-0.918-1.705-1.951-1.731c-1-0.024-2.064,0.952-2.087,1.916C240.359,226.994,241.186,227.646,242.363,227.674z
		 M309.824,115.938c-0.819,0.169-1.64,0.27-1.713,1.322c-0.054,0.764,0.895,2.018,1.582,2.076c0.789,0.065,1.766-0.752,1.813-1.523
		C311.565,116.906,310.678,115.946,309.824,115.938z"/>
	<path id="n-fill" fill="#1D7056" d="M190.029,227.045c-1.443,1.018-2.68,0.615-3.704,0.156c-1.875-0.841-3.724-1.769-4.995-3.566
		c-1.32-1.869-1.754-1.772-3.445-0.127c-2.945,2.865-6.467,4.478-10.7,4.725c0.076-0.377,0.063-0.633,0.174-0.814
		c3.126-5.135,4.584-10.795,5.163-16.703c0.411-4.199,0.404-8.43,0.595-12.645c0.144-3.175,0.354-6.34,0.257-9.521
		c-0.118-3.883,0.013-7.782-0.311-11.646c-0.483-5.771-1.663-11.36-5.332-16.14c-0.954-1.243-2.11-2.156-3.317-3.064
		c-0.873-0.656-1.773-1.277-2.895-2.082c3.36-1.429,6.451-1.231,9.601-0.74c3.598,0.562,6.893,1.744,10.005,3.703
		c4.544,2.857,9.593,4.25,14.989,4.284c3.116,0.021,6.235,0.125,9.35,0.046c2.367-0.061,4.568,0.58,6.787,1.211
		c1.054,0.299,1.801,1.031,2.371,1.922c0.945,1.479,1.789,2.981,2.285,4.713c1.32,4.597,2.933,9.111,4.17,13.727
		c1.351,5.031,1.487,10.23,1.733,15.419c0.224,4.699,0.071,9.421,0.683,14.101c0.289,2.209,0.614,4.418,1.049,6.604
		c0.418,2.096,1.474,3.886,3.082,5.686c-4.01,1.234-7.215,0.707-9.156-2.383c-1.014-1.611-1.955-1.533-3.191,0.039
		c-1.949,2.477-4.904,4.002-7.668,3.848c0.78-1.989,1.709-3.879,2.102-5.942c0.936-4.933,1.662-9.865,0.826-14.901
		c-0.192-1.162-0.033-2.38-0.032-3.561c0.002-2.396-0.464-4.756-0.763-7.071c-0.48-3.731-0.987-7.562-2.514-11.103
		c-0.316-0.729-0.484-1.512-0.749-2.242c-1.485-4.118-4.092-7.111-8.589-8.081c-2.562-0.552-4.75,0.489-6.704,1.821
		c-4.986,3.399-7.604,8.211-7.912,14.271c-0.39,7.69,0.073,15.296,2.14,22.763c0.784,2.836,0.869,5.838,2.076,8.58
		C188.194,223.922,188.721,225.605,190.029,227.045z M191.215,168.488c-0.009-1.375-1.128-2.619-2.308-2.568
		c-1.122,0.049-2.23,1.377-2.247,2.693c-0.017,1.303,0.701,2,2.072,2.014C190.462,170.646,191.225,169.988,191.215,168.488z
		 M175.639,186.748c0.006,1.656,0.805,2.612,2.123,2.539c1.18-0.066,2.106-1.174,2.05-2.449c-0.046-1.051-1.284-2.562-2.036-2.487
		C176.56,184.47,175.635,185.51,175.639,186.748z M212.201,176.899c-1.338-0.022-2.146,0.946-2.111,2.536
		c0.023,1.145,0.97,1.977,2.219,1.956c1.003-0.019,2.208-1.22,2.164-2.16C214.422,178.155,213.217,176.918,212.201,176.899z
		 M173.822,158.789c-1.142-0.063-2.25,0.806-2.349,1.842c-0.13,1.377,0.819,2.535,2.127,2.592c1.047,0.046,2.066-0.938,2.16-2.084
		C175.837,160.209,174.707,158.84,173.822,158.789z M180.996,174.422c0.042-0.797-1.412-2.57-2.142-2.611
		c-1.028-0.059-2.061,1.018-2.116,2.205c-0.057,1.216,0.837,2.195,2.012,2.205C179.743,176.228,180.951,175.26,180.996,174.422z
		 M216.641,195.297c1.271-0.006,2.381-1.049,2.344-2.205c-0.029-0.899-1.142-1.829-2.197-1.838c-1.162-0.01-2.324,0.979-2.313,1.969
		C214.488,194.399,215.43,195.301,216.641,195.297z M218.257,208.535c1.386,0.043,2.253-0.556,2.258-1.559
		c0.005-0.977-1.121-2.251-2.078-2.354c-1.071-0.117-2.422,1.325-2.378,2.541C216.089,207.991,216.892,208.492,218.257,208.535z
		 M205.136,169.605c-0.007-0.965-1.354-2.131-2.502-2.164c-0.906-0.025-2.124,1.336-2.044,2.283c0.062,0.74,1.336,1.625,2.388,1.658
		C204.054,171.416,205.142,170.521,205.136,169.605z M177.598,200.348c-1.074-0.135-1.802,0.322-1.912,1.199
		c-0.141,1.127,0.789,2.533,1.783,2.697c1.123,0.185,2.037-0.337,2.197-1.25C179.874,201.813,178.852,200.504,177.598,200.348z
		 M180.257,216.681c0.056-0.948-0.696-1.798-1.686-1.904c-1-0.106-2.167,0.964-2.194,2.015c-0.024,0.91,1.011,1.908,2.014,1.94
		C179.322,218.762,180.192,217.807,180.257,216.681z M220.369,216.947c0.018-0.646-1.154-1.873-1.855-1.943
		c-0.7-0.068-2.104,0.934-2.186,1.562c-0.103,0.773,1.125,1.816,2.149,1.829C219.451,218.403,220.348,217.717,220.369,216.947z"/>
	<path id="o-fill" fill="#1D7056" d="M124.096,227.377c-4.444,0.332-8.426-1.229-12.347-3.086c-1.95-0.925-3.865-1.834-5.336-3.504
		c-2.757-3.133-5.012-6.5-6.327-10.539c-2.27-6.976-1.701-14.035-0.827-21.07c0.439-3.536,1.801-6.904,3.495-10.096
		c0.662-1.248,1.266-2.527,1.927-3.781c1.096-2.074,2.619-3.786,4.197-5.459c1.518-1.609,2.777-3.482,4.855-4.525
		c5.169-2.593,10.505-3.869,16.382-3.24c4.604,0.494,8.607,2.111,12.384,4.623c1.318,0.877,2.748,1.582,4.089,2.443
		c4.705,3.021,6.609,7.717,7.852,12.833c0.093,0.385,0.047,0.81,0.169,1.181c1.244,3.795,1.353,7.648,0.837,11.584
		c-0.56,4.274-1.451,8.461-2.895,12.52c-1.369,3.847-3.999,6.869-6.72,9.773c-1.741,1.856-3.73,3.48-5.738,5.073
		C135.395,225.834,130.113,227.682,124.096,227.377z M141.426,191.5c-0.083-3.029-0.5-5.951-1.749-8.816
		c-1.624-3.729-4.365-5.764-8.199-6.471c-2.028-0.373-4.083-0.69-6.165-0.662c-2.072,0.027-3.887,0.518-5.146,2.398
		c-0.703,1.051-1.568,2.023-2.497,2.885c-2.213,2.049-3.666,4.57-4.91,7.267c-1.632,3.534-1.97,7.353-2.527,11.118
		c-0.432,2.921,0.243,5.74,1.467,8.328c1.321,2.791,3.697,4.453,6.744,5.263c3.838,1.019,7.666,1.771,11.443,0.022
		c2.784-1.289,5.114-3.324,6.792-5.844C139.78,202.336,141.592,197.196,141.426,191.5z M111.141,179.621
		c1.375,0.021,2.219-0.666,2.3-1.877c0.087-1.309-1.049-2.693-2.193-2.672c-1.007,0.02-2.321,1.488-2.376,2.658
		C108.82,178.834,109.736,179.599,111.141,179.621z M133.831,221.766c0.92,0.033,2.135-1.157,2.193-2.151
		c0.064-1.084-0.956-2.272-1.951-2.272c-1.215-0.002-2.645,1.177-2.698,2.222C131.328,220.502,132.687,221.724,133.831,221.766z
		 M138.66,173.276c0.993,0.006,2.019-0.776,2.1-1.601c0.101-1.036-1.709-2.627-3-2.637c-0.9-0.007-1.648,0.728-1.692,1.66
		C136.006,172.02,137.263,173.27,138.66,173.276z M104.475,192.451c1.324,0.053,2.583-0.668,2.618-1.496
		c0.047-1.104-1.285-2.695-2.236-2.672c-1.071,0.026-2.094,1.012-2.187,2.104C102.587,191.381,103.488,192.412,104.475,192.451z
		 M120.853,219.594c-1.068,0.029-2.041,1.346-2.058,2.783c-0.013,1.108,0.771,1.785,2.025,1.744
		c1.119-0.037,2.221-1.223,2.203-2.367C123.009,220.812,121.76,219.568,120.853,219.594z M102.528,204.68
		c-0.001,1.514,0.871,2.419,2.296,2.383c0.937-0.023,1.832-0.857,1.895-1.766c0.082-1.178-1.154-2.515-2.324-2.51
		C103.144,202.791,102.529,203.414,102.528,204.68z M122.589,171.201c1.336,0.037,2.335-0.859,2.372-2.13
		c0.031-1.073-0.988-2.212-2.044-2.284c-0.952-0.065-2.181,1.285-2.229,2.449C120.642,170.362,121.423,171.17,122.589,171.201z
		 M146.285,210.363c0.023-1.271-0.978-2.34-2.162-2.307c-0.968,0.025-2.061,0.994-2.12,1.88c-0.062,0.933,1.267,2.257,2.327,2.315
		C145.446,212.316,146.263,211.526,146.285,210.363z M147.955,197.39c1.19,0.022,2.096-0.536,2.141-1.321
		c0.079-1.357-0.987-2.722-2.108-2.697c-1.069,0.022-2.237,1.096-2.232,2.051C145.761,196.571,146.646,197.364,147.955,197.39z
		 M148.304,181.141c0.011-1.1-1.184-2.381-2.211-2.369c-0.916,0.009-1.956,1.021-2.021,1.966c-0.088,1.284,0.868,2.468,1.969,2.438
		C147.071,183.147,148.295,182.047,148.304,181.141z M110.68,219.551c1.195,0.056,1.863-0.521,1.898-1.631
		c0.042-1.371-0.8-2.351-2.095-2.432c-0.965-0.062-1.725,0.727-1.758,1.82C108.686,218.582,109.484,219.496,110.68,219.551z"/>
	<path id="c1b-fill" fill="#1D7056" d="M114.054,81.873c-1.715-2.955-3.807-5.718-5.963-8.379c-1.025-1.265-1.931-2.754-3.399-3.604
		c-1.97-1.139-4.211-1.901-5.282-4.176c-0.051-0.107-0.287-0.119-0.428-0.193c-4.405-2.318-9.03-4.111-13.987-4.593
		c-7.668-0.744-15.246,0.106-22.714,1.997c-2.272,0.574-4.237,1.818-6.368,2.675c-3.198,1.284-6.126,3.011-9.015,4.827
		c-2.011,1.265-4.035,2.51-5.801,4.146c-3.761,3.484-6.892,7.529-10.226,11.389c-3.91,4.525-7.014,9.619-10.08,14.748
		c-2.835,4.744-4.704,9.889-6.779,14.946c-1.967,4.794-3.26,9.83-4.721,14.8c-1.098,3.735-1.923,7.541-2.587,11.371
		c-0.641,3.697-0.535,7.459-0.574,11.202c-0.012,1.113-0.178,2.224-0.254,3.336c-0.301,4.372-0.33,8.737-0.043,13.118
		c0.344,5.27,1.354,10.421,2.346,15.585c0.858,4.472,2.056,8.834,3.773,13.063c1.273,3.141,3.446,5.697,5.239,8.498
		c0.699,1.092,1.018,2.334,1.749,3.391c1.787,2.58,3.815,4.863,6.526,6.572c4.249,2.681,8.497,5.361,13.148,7.277
		c4.774,1.969,9.786,2.49,14.954,2.396c6.309-0.115,12.334-1.232,18.18-3.603c5.878-2.384,10.07-6.731,13.342-11.854
		c2.825-4.426,4.004-9.534,3.825-14.876c-0.117-3.511-0.346-6.99-1.589-10.507c-1.176,0.475-1.485,1.307-1.823,2.107
		c-0.657,1.565-1.577,2.973-2.785,4.147c-2.284,2.221-4.576,4.452-7.232,6.231c-2.915,1.952-5.904,3.719-9.456,4.401
		c-2.087,0.401-4.125,0.272-6.18,0.142c-4.65-0.306-9.187-1.156-13.386-3.295c-2.957-1.508-5.486-3.601-7.512-6.199
		c-1.908-2.451-4.495-4.566-4.58-8.07c-2.054-4.189-2.932-8.745-4.038-13.221c-1.262-5.11-2.389-10.246-2.609-15.543
		c-0.204-4.926-1.253-9.76-0.938-14.773c0.308-4.908,1.083-9.661,2.361-14.374c0.374-1.379,0.52-2.836,1.02-4.164
		c1.873-4.969,5.303-9.012,8.254-13.317c1.837-2.68,4.14-5.05,6.478-7.341c2.623-2.571,5.108-5.311,8.031-7.534
		c5.607-4.269,11.879-7.431,18.23-10.41c2.382-1.119,4.949-1.92,7.625-1.797c2.782,0.127,5.553,0.494,8.326,0.782
		c0.891,0.093,1.631,0.562,2.397,1.017c1.814,1.072,2.985,2.873,4.661,4.055c2.067,1.456,3.008,3.534,3.428,5.812
		c0.43,2.332,0.766,4.791-0.745,6.953c-1.72,2.465-6.979,4.809-10.504,2.826c-3.308-1.861-6.173-4.225-8.042-7.625
		c-1.458-2.652-2.765-5.376-3.974-8.15c-0.254-0.582-0.575-1.136-0.844-1.713c-0.26-0.555-0.721-0.679-1.177-0.397
		c-2.781,1.715-5.851,2.872-8.645,4.573c-2.323,1.414-4.371,3.166-6.521,4.8c-1.641,1.247-1.68,1.229-1.068,3.229
		c1.789,5.854,4.562,11.062,8.961,15.492c2.209,2.225,4.665,3.874,7.358,5.205c4.523,2.234,9.32,3.832,14.333,4.453
		c3.799,0.471,7.597,0.361,11.364-0.898c2.22-0.742,4.24-1.814,6.307-2.804c4.217-2.021,7.347-5.104,9.458-9.413
		c2.831-5.777,3.542-11.838,3.452-18.125C117.255,88.615,115.931,85.107,114.054,81.873z M78.769,204.588
		c1.116-0.006,2.38,1.453,2.401,2.77c0.025,1.574-0.938,2.727-2.299,2.748c-0.95,0.016-2.344-1.648-2.392-2.855
		C76.439,206.258,77.873,204.592,78.769,204.588z M66.446,211.932c1.181,0.027,2.249,1.16,2.204,2.337
		c-0.044,1.163-1.167,2.147-2.417,2.121c-1.254-0.026-2.189-0.898-2.183-2.036C64.057,212.988,65.133,211.9,66.446,211.932z
		 M53.32,213.152c1.162,0.005,2.408,1.295,2.424,2.508c0.014,1.141-1.054,1.93-2.767,2.045c-1.115,0.075-2.327-1.295-2.271-2.566
		C50.75,214.141,52.06,213.146,53.32,213.152z M40.572,209.805c1.147,0.001,2.196,0.936,2.257,2.01
		c0.084,1.46-1.409,2.646-3.352,2.663c-1.232,0.011-1.866-0.683-1.815-1.981C37.707,211.336,39.364,209.805,40.572,209.805z
		 M19.493,129.748c0.893-0.053,2.283,1.166,2.298,2.017c0.027,1.504-1.177,2.903-2.542,2.956c-1.447,0.056-2.286-0.684-2.305-2.031
		C16.921,131.238,18.144,129.828,19.493,129.748z M16.52,146.379c1.339-0.246,2.416,1.393,2.445,2.395
		c0.038,1.303-1.058,2.331-2.477,2.376c-1.254,0.04-2.464-1.297-2.444-2.703C14.059,147.348,15.219,146.379,16.52,146.379z
		 M16.674,170.61c-1.43,0.032-2.502-1.235-2.477-2.927c0.016-1.094,1.062-2.107,2.189-2.124c1.335-0.019,2.555,1.187,2.632,2.597
		C19.093,169.541,18.101,170.58,16.674,170.61z M20.281,190.754c-1.149,0.084-2.041-0.922-2.082-2.354
		c-0.042-1.439,0.763-2.559,1.875-2.604c1.068-0.043,2.478,1.5,2.488,2.726C22.572,189.778,21.681,190.649,20.281,190.754z
		 M28.146,198.293c1.471-0.022,2.564,0.787,2.581,1.914c0.019,1.252-1.17,2.508-2.386,2.521c-1.319,0.013-2.83-1.408-2.88-2.71
		C25.422,198.994,26.474,198.318,28.146,198.293z M24.295,120.865c-1.327,0.086-2.333-1.1-2.464-2.906
		c-0.084-1.151,0.936-2.053,2.332-2.06c1.221-0.006,2.622,1.169,2.683,2.25C26.903,119.168,25.374,120.795,24.295,120.865z
		 M32.786,105.008c-1.402-0.002-2.302-1.152-2.208-2.827c0.068-1.243,1.49-2.394,2.886-2.335c1.416,0.059,2.546,1.152,2.484,2.4
		C35.88,103.586,34.253,105.008,32.786,105.008z M41.066,92.07c-1.176-0.031-2.634-1.572-2.525-2.669
		c0.087-0.88,1.819-2.399,2.702-2.37c1.289,0.043,2.558,1.402,2.528,2.707C43.736,91.264,42.746,92.116,41.066,92.07z
		 M53.351,82.494c-1.34-0.011-2.774-1.418-2.758-2.705c0.01-0.787,1.602-2.17,2.556-2.221c1.098-0.057,2.853,1.645,2.875,2.786
		C56.047,81.535,54.835,82.504,53.351,82.494z M66.639,76.119c-1.181,0.079-2.201-0.953-2.208-2.233
		c-0.007-1.376,0.84-2.347,2.042-2.337c1.523,0.011,2.673,0.934,2.64,2.119C69.082,74.863,67.899,76.035,66.639,76.119z
		 M83.019,73.846c-1.118,0.001-1.853-0.764-1.877-1.958c-0.028-1.319,0.917-2.431,2.057-2.423c1.128,0.009,2.248,1.166,2.241,2.313
		C85.432,72.934,84.367,73.844,83.019,73.846z M65.417,96.943c-1.409,0-2.048-0.729-2.029-2.312
		c0.015-1.235,0.564-1.881,1.608-1.885c1.426-0.008,2.585,1.139,2.583,2.557C67.578,96.385,66.843,96.943,65.417,96.943z
		 M72.955,108.303c-1.198-0.012-2.516-1.229-2.559-2.36c-0.033-0.881,1.2-2.005,2.253-2.053c1.268-0.058,2.344,1.179,2.344,2.694
		C74.993,107.683,74.241,108.315,72.955,108.303z M84.733,115.416c-1.192-0.002-2.449-1.242-2.499-2.465
		c-0.049-1.197,1.134-2.091,2.708-2.047c1.233,0.035,1.977,0.873,1.939,2.186C86.84,114.554,86.041,115.418,84.733,115.416z
		 M99.487,113.53c-1.256,0.03-2.153-0.94-2.147-2.323c0.007-1.658,0.557-2.244,2.087-2.224c1.45,0.021,2.516,0.896,2.478,2.033
		C101.859,112.369,100.771,113.5,99.487,113.53z M102.129,82.334c-1.529-0.021-2.726-1.307-2.724-2.927
		c0.002-1.295,0.433-1.678,1.923-1.706c1.65-0.033,3.192,1.159,3.217,2.484C104.564,81.196,103.267,82.351,102.129,82.334z
		 M107.314,99.679c-1.182-0.099-2.233-1.359-2.088-2.5c0.111-0.87,1.309-1.923,2.186-1.921c1.221,0.002,2.602,1.332,2.528,2.435
		C109.872,98.703,108.456,99.774,107.314,99.679z"/>
	<path id="c1h-fill" fill="#1D7056" d="M57.701,62.588c1.532-0.864,3.211-1.402,4.901-1.905c3.659-1.089,3.695-1.115,3.203-5.021
		c-0.644-5.114-0.227-10.171,0.799-15.179c1.056-5.152,2.537-10.204,3.849-15.295c1.106-4.292,2.851-8.272,5.128-12.065
		c1.003-1.67,2.251-3.226,3.012-5.247c-1.274-0.115-2.179,0.426-3.07,0.88c-5.222,2.66-9.833,6.212-14.198,10.066
		c-3.618,3.194-8.238,10.948-9.794,15.566c-1.854,5.498-4.018,10.883-4.758,16.712c-0.553,4.358-0.794,8.717-0.751,13.1
		c0.008,0.82,0.353,1.542,0.831,2.508C50.474,65.032,54.329,64.488,57.701,62.588z M56.977,59.61
		c-0.998,0.388-2.226,0.045-2.688-0.789c-0.189-0.341-0.268-0.741-0.415-1.108c-0.692-1.715-0.303-2.348,1.489-2.4
		c1.294-0.039,2.985,1.089,3.062,2.105C58.504,58.488,57.977,59.223,56.977,59.61z M61.817,24.522
		c1.122-0.055,2.04,0.778,2.049,1.859c0.008,1.063-0.997,1.988-2.238,2.06c-0.946,0.054-1.792-0.844-1.743-1.851
		C59.941,25.453,60.761,24.574,61.817,24.522z M54.859,37.999c0.077-1.555,0.859-2.459,2.075-2.4c1.213,0.06,2.326,1.195,2.28,2.327
		c-0.047,1.175-1.245,2.004-2.825,1.956C55.197,39.845,54.792,39.348,54.859,37.999z M55.375,46.02
		c0.954-0.036,2.441,1.026,2.533,1.809c0.101,0.869-1.289,2.254-2.358,2.349c-1.143,0.101-2.32-0.945-2.41-2.141
		C53.063,47.023,54.125,46.066,55.375,46.02z"/>
</g>
</svg>
