<svg xmlns="http://www.w3.org/2000/svg" width="502" height="240" viewBox="0 0 502 240"><g id="contact-points" fill="#D7FFFB"><g id="contact-point-t2"><path id="d5b_1_" d="M491.416 119.77c.015.798-.463 1.143-1.178 1.218-1.005.105-1.74-.457-1.86-1.382-.11-.84.166-1.41 1.074-1.516.876-.104 1.905.787 1.964 1.68z"/><path id="d5h_1_" d="M490.332 110.15c-.1.814-.8 1.096-1.51 1.162-.726.066-1.482-.12-1.683-1.003-.153-.684.853-1.74 1.62-1.775.76-.035 1.544.73 1.572 1.614z"/><path id="d4_1_" d="M479.32 113.293c.918.01 1.513.703 1.46 1.71-.034.76-1.103 1.532-2.16 1.337-.68-.125-1.694-.034-1.805-1.146-.104-1.065 1.034-1.916 2.506-1.9z"/><path id="d3_1_" d="M468.607 116.062c-.898.032-1.6-.32-1.723-1.247-.12-.9 1.032-1.73 2.2-1.688.897.035 1.544.363 1.526 1.398-.01.96-.775 1.543-2.003 1.537z"/><path id="d2_1_" d="M456.49 113.375c1.096.014 1.977.932 1.897 1.978-.067.924-.842 1.68-1.683 1.642-1.013-.045-1.696-.814-1.693-1.902.006-1.142.51-1.732 1.48-1.718z"/><path id="d1_1_" d="M445.973 115.9c-.016.734-1.4 1.67-2.362 1.596-.937-.072-1.626-.844-1.545-1.736.076-.842 1.077-1.864 1.862-1.905.663-.035 2.06 1.362 2.046 2.045z"/><path id="g5b" d="M370.07 119.15c-1.11.01-1.936-.68-1.875-1.665.053-.828.294-1.604 1.35-1.612 1.116-.01 2.33.988 2.4 1.93.06.773-.724 1.34-1.875 1.348z"/><path id="g5h" d="M369.967 111.502c-1.406-.004-2.16-.56-2.146-1.5.02-.86.803-1.52 1.794-1.504.94.016 2.16 1.19 1.972 2.008-.205.86-1.01.9-1.62.996z"/><path id="g4" d="M380.372 115.078c-1.312-.03-2.35-.812-2.353-1.772-.003-.826.782-1.457 1.81-1.454 1.397.004 2.386.842 2.384 2.077 0 1.328-.964 1.185-1.842 1.148z"/><path id="g3_1_" d="M390.2 115.54c-.765-.1-1.267-.59-1.22-1.546.047-.94.963-1.72 1.938-1.668.693.036 1.62 1.04 1.632 1.77.007.607-1.308 1.478-2.35 1.443z"/><path id="g2_1_" d="M402.14 114.533c-.26.764-.985 1.024-1.8 1.043-1.104.027-2.104-.79-2.037-1.578.062-.726 1.038-1.57 1.812-1.567.944.005 2.024 1.048 2.026 2.103z"/><path id="g1_1_" d="M412.148 113.308c1.35-.013 2.008.676 2.068 1.905.05 1.007-.513 1.468-1.392 1.574-1.005.123-2.073-1.033-2.062-2.158.017-1.02.612-1.382 1.386-1.322z"/><path id="_x31_0_3_" d="M426.98 114.85c.62.158 1.273.604 1.42 1.43.187 1.055-1.09 2.254-2.267 2.252-.917 0-1.48-.5-1.664-1.355-.175-.82 1.306-2.263 2.51-2.326z"/><path id="_x39__4_" d="M428.332 129.064c.067.828-1.022 1.67-2.214 1.742-.96.058-1.525-.404-1.638-1.315-.104-.852.978-1.832 2.048-1.965.793-.097 1.734.705 1.804 1.54z"/><path id="_x38__4_" d="M428.256 140.79c-.022.935-.908 1.704-1.934 1.687-1.062-.02-1.63-.693-1.607-1.914.017-.883 1.226-1.88 2.146-1.772.603.07 1.416 1.237 1.396 2z"/><path id="_x37__5_" d="M426.61 153.45c-.993.058-1.688-.68-1.71-1.817-.016-.79.88-1.605 1.897-1.73.605-.07 1.717 1.088 1.8 1.884.07.662-1.057 1.608-1.988 1.662z"/><path id="_x36__3_" d="M426.007 166.773c-1.037-.04-1.74-.85-1.638-1.883.092-.938 1.095-1.718 2.215-1.722.85-.004 1.834.942 1.866 1.797.033.838-1.342 1.853-2.443 1.808z"/><path id="_x35__3_" d="M426.2 179.45c-.86.05-1.438-.255-1.405-1.32.042-1.34.793-2.132 2.02-2.046.67.047 1.69 1.31 1.644 2.025-.052.742-1.065 1.363-2.26 1.34z"/><path id="_x34__3_" d="M423.935 190.96c-.02-.765 1.033-1.706 1.94-1.737.698-.023 1.73 1.092 1.795 1.945.066.875-.85 1.645-1.935 1.62-.942-.017-1.776-.866-1.8-1.83z"/><path id="_x33__3_" d="M425.9 205.984c-1.167-.02-1.83-.61-1.858-1.662-.03-1.102.977-2.13 2.09-2.137.772-.004 1.93 1.24 1.96 2.106.03.85-1.09 1.712-2.192 1.694z"/><path id="_x32__3_" d="M427.598 216.205c.012.914-.858 1.652-1.933 1.645-1.075-.014-1.674-.55-1.7-1.527-.03-1.112.794-2.188 1.697-2.21.73-.023 1.926 1.272 1.936 2.092z"/><path id="_x31_d_1_" d="M434.86 226.6c.136.74-.332 1.03-.93 1.11-1.25.163-2.04-.6-2.23-1.93-.133-.933.31-1.374 1.112-1.48.844-.114 1.964 1.202 2.047 2.3z"/><path id="_x31_g_1_" d="M419.73 223.766c.73-.082 1.422.725 1.542 1.8.095.855-.658 1.837-1.43 1.866-.804.027-1.963-.988-1.984-1.742-.02-.612 1.182-1.85 1.87-1.924z"/></g><g id="contact-point-c2"><path id="_x35_b_1_" d="M386.85 216.922c.137-1.762.575-2.35 1.7-2.27 1.125.075 2.28 1.145 2.218 2.06-.072 1.053-1.37 2.105-2.467 2.005-1.292-.117-1.558-.446-1.45-1.795z"/><path id="_x35_h_2_" d="M387.04 176.746c-.103.777-.054 1.656-1.217 1.68-1.5.027-3.12-1.27-3.044-2.453.067-1.012 1.098-2.105 1.937-2.06 1.273.066 2.345 1.374 2.324 2.833z"/><path id="_x34_b_2_" d="M380.92 221.21c-.033 1.077-1.45 2.44-2.486 2.394-1.22-.06-2.164-.947-2.18-2.057-.02-1.344 1.036-2.678 2.123-2.686 1.208-.005 2.575 1.257 2.542 2.35z"/><path id="_x34_h_2_" d="M371.164 173.635c.005-1.365.727-2.44 1.665-2.48 1.5-.062 3.008 1.205 2.958 2.484-.043 1.095-1.558 2.495-2.745 2.542-1.094.04-1.885-1.032-1.88-2.547z"/><path id="_x33_b_2_" d="M365.06 216.703c1.068.02 2.7 1.71 2.615 2.704-.065.765-1.54 1.806-2.518 1.778-1.222-.035-2.173-.924-2.19-2.043-.022-1.283.99-2.46 2.094-2.44z"/><path id="_x33_h_2_" d="M366.236 178.682c-.117 1.26-1.006 1.86-2.562 1.736-1.312-.104-2.08-.938-1.938-2.104.176-1.465.94-2.11 2.35-1.98 1.803.168 2.307.717 2.15 2.348z"/><path id="_x32_b_2_" d="M358.46 209.682c.03 1.258-.802 2.266-1.907 2.312-1.215.05-2.72-1.123-2.78-2.17-.066-1.12 1.16-2.71 2.145-2.78 1.214-.09 2.51 1.253 2.543 2.638z"/><path id="_x32_h_1_" d="M356.367 188.99c-1.084.05-2.35-.953-2.396-1.902-.067-1.29.878-2.27 2.194-2.283 1.06-.014 1.898.834 1.967 1.977.06 1.046-.834 2.17-1.763 2.208z"/><path id="_x31__4_" d="M356.096 197.145c.03 1.25-.602 1.955-1.562 2.277-.896.3-1.557-.252-1.91-1.023-.26-.563-.78-1.003-.762-1.71.023-.965.994-2.395 1.88-2.518 1.106-.154 1.43.828 1.895 1.52.304.462.48 1.007.46 1.453z"/></g><g id="contact-point-a"><path id="_x39__3_" d="M327.506 226.453c1.65.037 2.547.654 2.535 1.752-.007 1.053-.95 1.736-2.384 1.73-1.484-.006-2.13-.6-2.088-1.927.04-1.28.428-1.59 1.938-1.555z"/><path id="_x38__3_" d="M326.48 216.63c.014 1.192-.712 1.886-1.945 1.853-.938-.022-1.8-.864-1.854-1.82-.065-1.143.71-2.083 1.743-2.11 1.255-.033 2.038.756 2.056 2.076z"/><path id="_x37__4_" d="M321.625 205.37c-1.31-.028-2.104-.716-2.04-1.77.093-1.652.858-2.496 2.267-2.5.984-.004 2.146 1.14 2.16 2.123.01 1.115-1.164 2.175-2.387 2.148z"/><path id="_x36_h" d="M320.654 194.125c-.95.035-1.803-.746-1.854-1.693-.058-1.074 1.067-2.354 2.124-2.416 1.226-.072 2.146.725 2.214 1.908.076 1.267-.91 2.14-2.484 2.2z"/><path id="_x35_h_1_" d="M316.714 178.848c1.16.03 2.366 1.215 2.32 2.27-.056 1.115-1.09 2.03-2.247 1.982-1.29-.055-2.287-.904-2.28-1.947.005-1.262 1.034-2.34 2.207-2.305z"/><path id="_x34_b_1_" d="M313.494 215.504c-.057 1.05-1.164 1.893-2.365 1.797-.978-.075-1.82-.937-1.83-1.862-.01-1.047 1.13-2.15 2.144-2.084 1.265.084 2.11.972 2.05 2.15z"/><path id="_x34_h_1_" d="M307.562 176.766c-.058 1.045-.97 1.812-2.1 1.77-1.272-.048-2.11-.92-2.018-2.1.085-1.05.966-1.81 2.093-1.803 1.213.013 2.09.935 2.025 2.133z"/><path id="_x33_b_1_" d="M301.012 219.67c0 1.082-.697 1.805-1.75 1.81-1.363.01-2.508-.964-2.453-2.087.042-.848 1.046-1.812 1.9-1.828 1.435-.026 2.302.77 2.302 2.105z"/><path id="_x33_h_1_" d="M293.27 183.275c-1.034.006-1.714-.68-1.766-1.786-.053-1.094.777-1.88 1.976-1.87 1.092.007 1.916.71 1.95 1.66.04 1.18-.832 1.99-2.16 1.995z"/><path id="_x32_b_1_" d="M288.68 217.357c-1.218-.045-1.686-.572-1.592-1.8.083-1.085.814-1.937 1.682-1.952 1.082-.02 2.213 1.102 2.11 2.092-.105 1.006-1.028 1.7-2.2 1.66z"/><path id="_x32_h" d="M286.36 192.438c-.97-.004-1.558-.654-1.515-1.684.043-1.082.63-1.768 1.48-1.727 1 .05 1.747.854 1.73 1.863-.01.946-.676 1.55-1.694 1.548z"/><path id="_x31__3_" d="M285.596 202.475c-.043 1.053-1.12 2.258-2.025 2.265-.962.008-1.683-.94-1.656-2.185.02-.998 1.174-1.967 2.312-1.938.797.018 1.408.844 1.37 1.858z"/></g><g id="contact-point-t1"><path id="d5h" d="M309.348 109.26c-1.166.02-2.05-.78-2.014-1.822.033-.934 1.055-1.72 2.217-1.707.962.012 1.765.88 1.735 1.877-.026.98-.795 1.634-1.937 1.653z"/><path id="d5b" d="M309.824 115.938c.854.01 1.742.97 1.685 1.875-.05.77-1.023 1.59-1.814 1.523-.688-.06-1.635-1.312-1.58-2.076.07-1.053.887-1.155 1.708-1.322z"/><path id="d4" d="M299.52 112.856c.036 1.167-.876 2.042-2.11 2.024-1.108-.018-2.077-.74-2.103-1.574-.033-.952 1.31-2.174 2.47-2.25 1.05-.067 1.705.606 1.744 1.8z"/><path id="d3" d="M286.753 115.154c-1.767.02-2.55-.537-2.526-1.805.02-1.082 1.23-2.234 2.375-2.26 1.276-.027 2.152.94 2.125 2.35-.028 1.38-.39 1.695-1.974 1.714z"/><path id="d2" d="M275.105 114.944c-1.318.026-2.27-.78-2.266-1.927.002-1.114.927-1.94 2.247-2.008 1.178-.063 2.688 1.237 2.624 2.255-.05.835-1.32 1.655-2.605 1.68z"/><path id="d1" d="M264.896 116.125c-1.445.014-2.297-.685-2.234-1.828.062-1.11.908-1.89 2.025-1.864 1.02.02 1.914.903 1.99 1.966.073.973-.693 1.715-1.78 1.725z"/><path id="g4h" d="M199.688 107.29c-.03 1.01-1.37 2.083-2.546 2.04-1.04-.037-2.02-.815-2.062-1.643-.05-.91 1.596-2.2 2.757-2.164 1.024.033 1.88.848 1.85 1.768z"/><path id="g4b" d="M202.104 116.748c.038.947-.98 2.073-1.917 2.12-.943.048-2.195-.96-2.24-1.802-.04-.703 1.405-2.045 2.305-2.145.803-.086 1.816.914 1.852 1.828z"/><path id="g3" d="M213.138 114.18c-1.047.012-2.283-1.045-2.26-1.934.032-1.357 1-2.404 2.17-2.353 1.026.045 1.954 1.104 2.022 2.306.062 1.058-.826 1.966-1.932 1.98z"/><path id="g2" d="M224.314 110.752c.902.02 2.13 1.314 2.088 2.207-.052 1.147-1.236 2.167-2.43 2.09-1.18-.073-2.127-1.048-2.095-2.15.03-.97 1.392-2.172 2.437-2.148z"/><path id="g1" d="M236.102 114.94c-1.288.01-2.76-1.187-2.703-2.192.063-1.12 1.578-2.22 3.02-2.193 1.08.02 1.763.736 1.74 1.83-.028 1.218-1.098 2.548-2.058 2.554z"/><path id="_x31_0_2_" d="M250.777 112.283c1.39.012 2.323.89 2.264 2.13-.054 1.163-.826 1.944-1.915 1.938-1.54-.01-2.352-.587-2.372-1.695-.026-1.272.92-2.38 2.024-2.372z"/><path id="_x39__2_" d="M253.466 127.71c-.028.136-.062.54-.202.9-.367.937-1.918 1.575-2.777 1.175-.748-.35-.94-1.462-.365-2.512.218-.398.54-.8.914-1.043.493-.316 1.017-.9 1.692-.428.55.386.768.983.738 1.907z"/><path id="_x38__2_" d="M253.953 141.412c-.032 1.006-1.373 2.31-2.355 2.29-1-.022-1.81-.876-1.748-1.843.084-1.313 1.107-2.657 1.955-2.57 1.22.126 2.183 1.075 2.148 2.122z"/><path id="_x37__3_" d="M252.314 154.805c-1.316-.04-2.122-.738-2.038-1.768.086-1.072 1.183-2.264 2.086-2.268 1.174-.01 2.303 1.126 2.267 2.277-.037 1.176-.862 1.8-2.316 1.758z"/><path id="_x36__2_" d="M252.97 168.723c-1.1-.055-2.192-.906-2.222-1.732-.034-1.003 1.37-2.482 2.24-2.36.904.126 1.935 1.454 1.875 2.42-.056.93-.947 1.718-1.894 1.673z"/><path id="_x35__2_" d="M254.79 179.186c.046 1.07-.96 1.955-2.226 1.96-1.383.003-2.445-.763-2.417-1.74.03-1.046 1.334-2.292 2.372-2.267 1.082.026 2.232 1.06 2.27 2.046z"/><path id="_x34__2_" d="M252.044 192.922c-1.517-.018-2.302-.664-2.238-1.852.05-.963 1.442-2.15 2.514-2.146.84.005 1.927 1.17 1.97 2.113.056 1.158-.828 1.9-2.246 1.885z"/><path id="_x33__2_" d="M249.55 203.285c.046-1.117 1.755-2.977 2.76-3 .833-.02 2.085 1.64 2.003 2.648-.092 1.13-1.2 1.87-2.65 1.774-1.427-.09-2.147-.578-2.112-1.422z"/><path id="_x32__2_" d="M251.62 211.84c.624-.068 1.505.957 1.553 1.81.063 1.118-1.093 2.33-2.378 2.495-.99.127-1.874-.4-2.018-1.205-.162-.915 1.73-2.977 2.844-3.1z"/><path id="_x31_d" d="M263.543 225.938c.02.728-1.58 2.3-2.355 2.316-.455.012-1.928-1.584-1.96-2.123-.057-.962 1.022-2.145 2.06-2.247.83-.084 2.233 1.195 2.255 2.055z"/><path id="_x31_g" d="M242.363 227.674c-1.177-.027-2.004-.68-1.983-1.562.022-.965 1.087-1.94 2.087-1.916 1.033.025 1.915.81 1.95 1.73.042 1.115-.737 1.78-2.054 1.748z"/></g><g id="contact-point-n"><path id="_x31_1_1_" d="M220.67 216.664c-.02.77-.918 1.455-1.89 1.445-1.026-.013-2.253-1.056-2.15-1.83.082-.63 1.483-1.632 2.185-1.562.7.073 1.872 1.3 1.855 1.946z"/><path id="_x31_0_1_" d="M218.557 208.25c-1.365-.04-2.168-.543-2.197-1.37-.043-1.214 1.307-2.655 2.377-2.542.957.104 2.084 1.38 2.078 2.354-.004 1.003-.872 1.6-2.258 1.558z"/><path id="_x39__1_" d="M216.94 195.014c-1.21.004-2.15-.897-2.165-2.074-.012-.987 1.15-1.98 2.312-1.97 1.056.01 2.167.94 2.197 1.84.038 1.153-1.07 2.198-2.343 2.204z"/><path id="_x38__1_" d="M212.503 176.615c1.015.018 2.22 1.256 2.27 2.332.046.94-1.16 2.143-2.163 2.16-1.248.02-2.195-.812-2.22-1.957-.034-1.588.774-2.558 2.113-2.535z"/><path id="_x37__2_" d="M205.437 169.32c.007.916-1.082 1.812-2.157 1.777-1.053-.033-2.326-.916-2.39-1.658-.08-.946 1.14-2.31 2.045-2.283 1.145.032 2.495 1.198 2.502 2.163z"/><path id="_x36__1_" d="M191.515 168.205c.01 1.5-.752 2.156-2.483 2.14-1.37-.015-2.09-.712-2.072-2.015.017-1.316 1.125-2.646 2.247-2.693 1.18-.053 2.3 1.193 2.308 2.568z"/><path id="_x35__1_" d="M174.122 158.506c.885.05 2.015 1.418 1.94 2.35-.095 1.146-1.114 2.13-2.16 2.084-1.31-.057-2.26-1.213-2.128-2.592.098-1.037 1.206-1.91 2.348-1.842z"/><path id="_x34__1_" d="M181.297 174.14c-.044.837-1.253 1.804-2.246 1.796-1.174-.01-2.068-.987-2.01-2.205.055-1.187 1.087-2.263 2.115-2.204.73.04 2.184 1.814 2.142 2.613z"/><path id="_x33__1_" d="M175.94 186.463c-.005-1.238.92-2.277 2.135-2.398.752-.074 1.99 1.438 2.036 2.49.057 1.273-.87 2.38-2.05 2.447-1.315.074-2.114-.88-2.12-2.54z"/><path id="_x32__1_" d="M177.898 200.062c1.253.158 2.276 1.467 2.068 2.647-.16.913-1.074 1.434-2.197 1.247-.996-.164-1.925-1.57-1.784-2.697.11-.875.84-1.33 1.912-1.198z"/><path id="_x31__2_" d="M180.557 216.396c-.065 1.125-.935 2.08-1.866 2.05-1.002-.032-2.037-1.028-2.013-1.938.027-1.05 1.194-2.123 2.194-2.016.99.108 1.743.955 1.687 1.904z"/></g><g id="contact-point-o"><path id="_x37__1_" d="M148.256 197.105c-1.308-.025-2.194-.818-2.2-1.97-.003-.954 1.165-2.026 2.233-2.05 1.12-.023 2.186 1.34 2.107 2.695-.046.788-.95 1.35-2.14 1.325z"/><path id="_x36_b" d="M146.586 210.08c-.02 1.162-.84 1.952-1.955 1.89-1.06-.06-2.388-1.384-2.326-2.314.06-.886 1.15-1.854 2.12-1.882 1.184-.035 2.185 1.035 2.162 2.306z"/><path id="_x35_b" d="M134.132 221.48c-1.144-.04-2.503-1.263-2.456-2.203.053-1.045 1.483-2.223 2.698-2.22.995 0 2.015 1.187 1.95 2.27-.058.997-1.272 2.19-2.192 2.153z"/><path id="_x35_h" d="M148.604 180.855c-.01.908-1.233 2.008-2.263 2.035-1.1.028-2.056-1.154-1.968-2.438.065-.945 1.104-1.957 2.02-1.968 1.03-.007 2.224 1.274 2.212 2.37z"/><path id="_x34_b" d="M121.154 219.31c.907-.023 2.156 1.218 2.17 2.16.018 1.147-1.084 2.33-2.203 2.366-1.253.043-2.037-.633-2.024-1.744.017-1.438.988-2.752 2.058-2.78z"/><path id="_x34_h" d="M138.96 172.992c-1.395-.008-2.653-1.258-2.592-2.576.043-.934.792-1.668 1.692-1.66 1.292.01 3.102 1.6 3 2.637-.08.822-1.107 1.605-2.1 1.6z"/><path id="_x33_b" d="M110.98 219.268c-1.196-.057-1.994-.97-1.956-2.24.033-1.096.793-1.883 1.758-1.82 1.294.08 2.137 1.063 2.095 2.432-.034 1.108-.702 1.682-1.898 1.628z"/><path id="_x33_h" d="M122.89 170.918c-1.167-.033-1.947-.838-1.9-1.965.047-1.166 1.275-2.518 2.228-2.45 1.056.073 2.076 1.212 2.044 2.284-.037 1.27-1.036 2.166-2.372 2.13z"/><path id="_x32_b" d="M102.828 204.396c0-1.268.616-1.89 1.867-1.895 1.17 0 2.406 1.333 2.324 2.513-.064.906-.96 1.74-1.896 1.766-1.425.034-2.297-.87-2.296-2.384z"/><path id="_x32_a" d="M111.442 179.336c-1.405-.02-2.32-.787-2.27-1.893.056-1.17 1.37-2.64 2.377-2.658 1.143-.02 2.28 1.363 2.192 2.672-.082 1.213-.925 1.9-2.3 1.88z"/><path id="_x31__1_" d="M104.776 192.166c-.988-.04-1.89-1.066-1.805-2.062.093-1.094 1.116-2.076 2.188-2.104.95-.023 2.284 1.566 2.236 2.67-.035.83-1.294 1.55-2.618 1.496z"/></g><g id="contact-point-c1"><path id="_x32_5" d="M81.17 207.357c.025 1.574-.938 2.727-2.3 2.748-.95.016-2.343-1.648-2.39-2.855-.04-.99 1.393-2.656 2.29-2.66 1.115-.006 2.38 1.453 2.4 2.767z"/><path id="_x32_4" d="M66.233 216.39c-1.254-.025-2.19-.897-2.183-2.036.007-1.364 1.083-2.453 2.396-2.422 1.18.027 2.25 1.16 2.204 2.338-.045 1.162-1.166 2.146-2.417 2.12z"/><path id="_x32_3" d="M55.744 215.66c.014 1.14-1.054 1.93-2.767 2.045-1.115.074-2.327-1.295-2.27-2.566.043-.997 1.353-1.99 2.613-1.984 1.16 0 2.408 1.29 2.424 2.504z"/><path id="_x32_2" d="M39.477 214.48c-1.232.01-1.866-.685-1.815-1.982.046-1.16 1.703-2.688 2.91-2.688 1.147 0 2.196.938 2.257 2.01.083 1.453-1.41 2.64-3.353 2.66z"/><path id="_x32_1" d="M28.146 198.293c1.47-.02 2.564.787 2.58 1.914.02 1.252-1.17 2.508-2.385 2.52-1.318.014-2.83-1.407-2.88-2.71-.038-1.023 1.014-1.7 2.686-1.724z"/><path id="_x32_0" d="M18.2 188.402c-.042-1.44.763-2.56 1.875-2.604 1.068-.04 2.478 1.502 2.488 2.726.01 1.254-.88 2.125-2.28 2.23-1.15.084-2.042-.922-2.083-2.352z"/><path id="_x31_9" d="M16.674 170.61c-1.43.032-2.502-1.235-2.477-2.927.016-1.095 1.062-2.107 2.19-2.125 1.334-.02 2.554 1.188 2.63 2.598.076 1.385-.916 2.424-2.343 2.453z"/><path id="_x31_8" d="M16.52 146.38c1.34-.247 2.416 1.392 2.445 2.394.038 1.304-1.058 2.332-2.477 2.377-1.254.04-2.464-1.296-2.444-2.702.015-1.1 1.175-2.07 2.476-2.07z"/><path id="_x31_7" d="M16.943 132.69c-.02-1.452 1.202-2.862 2.55-2.942.893-.053 2.283 1.166 2.298 2.018.028 1.504-1.176 2.902-2.54 2.955-1.45.055-2.288-.683-2.307-2.03z"/><path id="_x31_6" d="M26.845 118.15c.058 1.018-1.47 2.645-2.55 2.715-1.327.086-2.333-1.1-2.464-2.906-.083-1.152.937-2.054 2.333-2.06 1.22-.006 2.62 1.168 2.682 2.25z"/><path id="_x31_5" d="M33.463 99.846c1.416.06 2.546 1.152 2.484 2.4-.067 1.34-1.695 2.762-3.162 2.762-1.402-.002-2.302-1.152-2.208-2.827.07-1.242 1.49-2.393 2.886-2.334z"/><path id="_x31_4" d="M41.066 92.07c-1.176-.03-2.634-1.572-2.525-2.67.088-.88 1.82-2.398 2.703-2.37 1.29.044 2.558 1.403 2.528 2.708-.034 1.526-1.024 2.378-2.704 2.332z"/><path id="_x31_3" d="M53.35 82.494c-1.34-.01-2.773-1.418-2.757-2.705.01-.788 1.602-2.17 2.556-2.222 1.097-.057 2.852 1.645 2.874 2.786.023 1.18-1.19 2.15-2.673 2.14z"/><path id="_x31_2" d="M64.432 73.885c-.007-1.377.84-2.346 2.042-2.338 1.523.012 2.673.935 2.64 2.12-.033 1.195-1.216 2.368-2.475 2.452-1.182.078-2.202-.954-2.208-2.235z"/><path id="_x31_1" d="M83.02 73.846c-1.12 0-1.854-.764-1.878-1.958-.028-1.32.917-2.43 2.057-2.423 1.127.01 2.247 1.166 2.24 2.313-.008 1.156-1.073 2.066-2.42 2.068z"/><path id="_x31_0" d="M99.406 79.407c.002-1.295.433-1.678 1.923-1.706 1.65-.032 3.19 1.16 3.216 2.485.02 1.01-1.278 2.164-2.417 2.148-1.53-.02-2.726-1.305-2.724-2.926z"/><path id="_x39_" d="M109.94 97.692c-.07 1.01-1.485 2.083-2.626 1.986-1.182-.1-2.233-1.36-2.088-2.5.11-.87 1.31-1.923 2.186-1.92 1.22.002 2.602 1.334 2.527 2.434z"/><path id="_x38_" d="M97.34 111.207c.006-1.658.556-2.244 2.086-2.224 1.45.02 2.516.896 2.478 2.033-.045 1.353-1.133 2.483-2.418 2.515-1.257.03-2.153-.94-2.147-2.323z"/><path id="_x37_" d="M86.882 113.09c-.042 1.464-.84 2.328-2.148 2.326-1.192-.002-2.45-1.242-2.5-2.465-.048-1.196 1.135-2.09 2.71-2.046 1.23.034 1.974.872 1.938 2.186z"/><path id="_x36_" d="M74.993 106.584c0 1.1-.752 1.732-2.038 1.72-1.198-.013-2.516-1.23-2.56-2.36-.032-.88 1.2-2.005 2.254-2.053 1.267-.058 2.343 1.178 2.343 2.694z"/><path id="_x35_" d="M65.417 96.943c-1.41 0-2.048-.73-2.03-2.312.016-1.234.565-1.88 1.61-1.884 1.425-.008 2.584 1.14 2.582 2.557-.002 1.082-.737 1.64-2.163 1.64z"/><path id="_x34_" d="M55.363 55.312c1.294-.04 2.985 1.09 3.062 2.105.08 1.07-.448 1.804-1.447 2.19-.998.39-2.226.046-2.688-.788-.19-.342-.268-.743-.415-1.108-.694-1.714-.304-2.347 1.488-2.4z"/><path id="_x33_" d="M55.375 46.02c.954-.036 2.44 1.026 2.533 1.81.1.868-1.29 2.253-2.358 2.348-1.143.1-2.32-.945-2.41-2.14-.077-1.015.985-1.972 2.235-2.018z"/><path id="_x32_" d="M56.39 39.88c-1.193-.037-1.597-.534-1.53-1.882.076-1.555.858-2.46 2.074-2.4 1.213.06 2.326 1.195 2.28 2.327-.047 1.176-1.244 2.005-2.824 1.955z"/><path id="_x31_" d="M63.867 26.382c.008 1.063-.997 1.988-2.238 2.06-.947.054-1.793-.844-1.744-1.85.055-1.14.875-2.017 1.932-2.07 1.12-.054 2.038.78 2.05 1.86z"/></g></g><g id="contact-lettres" fill="#1D7056"><path id="contact-lettres-o-interieur" stroke="#1D7056" stroke-miterlimit="10" d="M141.726 191.215c.166 5.697-1.646 10.838-4.745 15.488-1.677 2.52-4.007 4.553-6.79 5.842-3.778 1.748-7.605.994-11.444-.02-3.047-.812-5.423-2.474-6.744-5.265-1.225-2.588-1.9-5.406-1.467-8.326.557-3.768.895-7.586 2.527-11.12 1.245-2.693 2.697-5.218 4.91-7.267.93-.86 1.794-1.834 2.497-2.883 1.257-1.883 3.073-2.373 5.145-2.398 2.08-.03 4.136.29 6.165.662 3.834.707 6.575 2.738 8.2 6.47 1.246 2.868 1.664 5.788 1.746 8.817zm-14.93-13.76c-1.62-.096-3.048.486-4.22 1.465-3.525 2.938-6.507 6.37-8.132 10.713-1.494 3.992-1.95 8.19-1.796 12.47.077 2.114.885 3.888 2.23 5.395 3.21 3.604 7.443 4.512 11.933 3.756 5.04-.846 8.293-4.188 10.294-8.75 1.413-3.223 2.233-6.588 2.54-10.133.35-4.058-.454-7.702-2.73-11.06-.986-1.458-2.304-2.46-3.997-2.823-2.02-.434-4.078-.696-6.12-1.032z"/><path id="contact-lettres-a-interieur" stroke="#1D7056" stroke-miterlimit="10" d="M289.02 202.857c.228-4.28 1.304-8.33 3.43-12.076.67-1.18 1.335-2.373 2.136-3.464 3.093-4.207 7.056-5.77 12.062-3.508 3.138 1.416 5.343 3.645 7.35 6.502 3.296 4.686 2.145 9.26.626 13.9-.604 1.837-1.354 3.71-2.676 5.29-2.86 3.424-7.767 6.02-12.43 4.646-.913-.27-1.866-.453-2.792-.614-3.246-.567-4.97-2.933-6.643-5.354-1.097-1.586-1.124-3.453-1.063-5.32zm25.087-5.546c.283-2.366-.293-4.458-1.773-6.294-.648-.807-1.19-1.748-1.98-2.385-2.722-2.198-5.27-4.647-9.42-3.022-2.3.9-3.907 2.33-5.288 4.166-1.55 2.062-2.21 4.558-3.12 6.93-1.575 4.105-1.204 8.033.75 11.908.645 1.277 1.554 2.314 2.856 2.744 4.02 1.32 7.983 1.314 11.626-1.184 4.52-3.1 6.303-7.578 6.35-12.86z"/><path id="contact-lettres-c1" stroke="#1D7056" stroke-miterlimit="10" d="M53.125 98.375c-3.682 2.877-6.903 6.18-9.523 10.133-2.154 3.25-4.612 6.298-6.646 9.64-2.152 3.536-4.076 7.206-5.59 11.038-.802 2.03-1.26 4.29-1.17 6.547.065 1.695-.17 3.344-.57 4.97-.483 1.96-.567 3.916-.382 5.924.79 8.588 2.423 17.04 4.06 25.49 1.023 5.27 2.912 10.288 5.207 15.103 2.245 4.707 5.847 8.104 10.823 10.146 4.65 1.905 9.433 3.028 14.38 3.018 3.02-.01 5.878-1.377 8.506-2.94 3.034-1.81 5.938-3.873 8.052-6.71 1.925-2.58 3.99-5.175 4.557-8.53.114-.68.24-1.352.98-1.792 1.396-.83 1.954-.718 2.443.82.913 2.874 2.268 5.564 2.953 8.556.917 3.998.593 7.87-.035 11.816-.608 3.82-2.038 7.338-3.676 10.8-1.377 2.91-3.41 5.313-5.847 7.335-2.508 2.08-5.082 4.105-7.8 5.895-1.894 1.244-3.933 2.45-6.414 2.234-.625-.056-1.287.032-1.902.177-5.02 1.174-10.083 1.066-15.198.823-4.51-.216-8.815-1.173-13.12-2.403-2.73-.78-5.2-2.104-7.517-3.594-4.087-2.623-7.99-5.54-11.377-9.084-1.512-1.58-2.75-3.355-3.54-5.355-1.237-3.134-2.802-6.074-4.58-8.914-.43-.687-.78-1.395-1.023-2.145-1.472-4.543-3.138-9.02-4.2-13.7-.853-3.764-1.065-7.577-1.252-11.395-.055-1.117-.207-2.215-.338-3.312-.738-6.135-.256-12.293-.437-18.435-.198-6.7.958-13.2 2.498-19.64.96-4.02 2.214-7.974 3.862-11.792.947-2.192 1.63-4.495 2.458-6.74 2.29-6.214 5.326-12.073 8.267-17.98.77-1.548 1.877-2.942 2.913-4.347 3.64-4.935 7.1-10.04 11.97-13.9 1.56-1.238 2.986-2.633 4.575-3.83 1.628-1.226 2.56-3.252 4.644-3.956.44-.15.34-.623.262-1.04-.247-1.332-.472-2.67-.666-4.01-.667-4.612-.147-9.198.668-13.712.803-4.45 1.573-8.917 3.12-13.224 4.02-11.205 11.087-20 20.78-26.764 2.365-1.65 5.11-2.603 7.77-3.647 1.918-.756 3.947-1.242 5.87-2.04.902-.372 1.863-.676 2.633.635.7 1.19.122 1.75-.56 2.452-3.568 3.688-6.568 7.783-8.82 12.408-1.437 2.954-2.178 6.108-2.97 9.286-1.18 4.73-1.96 9.526-2.885 14.296-.878 4.525-1.63 9.08-.955 13.736.282 1.946.42 2.104 2.355 1.96 2.786-.21 5.488-.996 8.31-1.005 5.602-.016 10.958 1.22 16.006 3.46 4.597 2.038 8.978 4.618 12.61 8.165 2.31 2.255 4.64 4.51 6.014 7.617 1.053 2.38 2.61 4.53 3.5 7.036 1.5 4.223 2.733 8.48 2.792 13.008.073 5.53-1.106 10.83-3.746 15.63-1.702 3.096-3.967 5.91-6.884 8.122-1.67 1.27-3.383 2.287-5.407 2.83-4.853 1.3-9.688 2.854-14.786 2.43-4.19-.35-8.375-.83-12.306-2.61-2.902-1.312-5.82-2.584-8.71-3.927-4.062-1.89-6.346-5.334-8.83-8.625-2.42-3.205-3.79-6.997-5.123-10.766-.16-.45-.362-.886-.578-1.312-.062-.13-.242-.195-.472-.363zm34.2 87.055c-1.175.475-1.484 1.307-1.822 2.107-.657 1.564-1.577 2.973-2.785 4.146-2.284 2.22-4.576 4.45-7.232 6.23-2.915 1.952-5.904 3.718-9.456 4.4-2.087.402-4.125.273-6.18.142-4.65-.306-9.187-1.154-13.386-3.295-2.957-1.507-5.486-3.6-7.512-6.2-1.908-2.447-4.495-4.564-4.58-8.068-2.054-4.188-2.932-8.744-4.038-13.222-1.262-5.108-2.39-10.244-2.61-15.543-.203-4.924-1.252-9.758-.937-14.772.308-4.907 1.083-9.66 2.36-14.373.375-1.38.52-2.836 1.02-4.164 1.874-4.97 5.304-9.012 8.255-13.316 1.837-2.68 4.14-5.05 6.478-7.342 2.623-2.57 5.108-5.31 8.03-7.535 5.608-4.268 11.88-7.43 18.23-10.41 2.383-1.117 4.95-1.92 7.626-1.797 2.782.127 5.553.494 8.326.783.89.095 1.63.563 2.397 1.017 1.813 1.074 2.984 2.875 4.66 4.056 2.067 1.456 3.008 3.534 3.428 5.812.43 2.334.766 4.79-.745 6.955-1.72 2.465-6.98 4.81-10.504 2.825-3.31-1.86-6.174-4.225-8.043-7.625-1.458-2.65-2.765-5.376-3.974-8.15-.254-.583-.575-1.136-.844-1.712-.26-.556-.722-.68-1.178-.398-2.78 1.715-5.85 2.872-8.645 4.572-2.323 1.416-4.37 3.168-6.52 4.8-1.642 1.248-1.68 1.23-1.07 3.23 1.79 5.855 4.563 11.063 8.962 15.492 2.208 2.226 4.664 3.874 7.357 5.205 4.523 2.234 9.32 3.832 14.333 4.453 3.8.472 7.597.36 11.364-.897 2.22-.744 4.24-1.815 6.307-2.805 4.218-2.02 7.348-5.103 9.46-9.412 2.83-5.778 3.54-11.838 3.45-18.125-.055-3.876-1.38-7.384-3.256-10.618-1.715-2.955-3.807-5.72-5.963-8.38-1.024-1.265-1.93-2.754-3.398-3.603-1.97-1.14-4.21-1.9-5.282-4.175-.05-.108-.287-.12-.428-.194-4.405-2.32-9.03-4.112-13.987-4.593-7.668-.744-15.246.105-22.714 1.996-2.27.576-4.236 1.82-6.367 2.676-3.198 1.283-6.126 3.01-9.015 4.826-2.01 1.266-4.035 2.51-5.8 4.147-3.762 3.484-6.893 7.53-10.227 11.388-3.91 4.526-7.013 9.62-10.08 14.75-2.834 4.742-4.703 9.888-6.778 14.945-1.967 4.794-3.26 9.83-4.72 14.8-1.1 3.734-1.924 7.542-2.588 11.37-.64 3.698-.535 7.46-.574 11.202-.012 1.113-.178 2.224-.254 3.337-.3 4.372-.33 8.737-.043 13.118.344 5.27 1.354 10.42 2.346 15.584.857 4.473 2.055 8.833 3.772 13.06 1.273 3.144 3.446 5.698 5.24 8.5.698 1.093 1.017 2.333 1.748 3.392 1.787 2.58 3.815 4.86 6.526 6.57 4.25 2.682 8.497 5.36 13.148 7.277 4.774 1.968 9.786 2.49 14.954 2.395 6.31-.115 12.334-1.232 18.18-3.603 5.878-2.386 10.07-6.73 13.342-11.854 2.825-4.425 4.004-9.533 3.825-14.875-.118-3.507-.347-6.988-1.59-10.503zM46.853 66.707c3.623-1.675 7.477-2.22 10.85-4.12 1.53-.863 3.21-1.4 4.9-1.904 3.66-1.09 3.695-1.115 3.203-5.02-.644-5.115-.227-10.172.8-15.18 1.055-5.152 2.536-10.204 3.848-15.295 1.106-4.292 2.85-8.272 5.128-12.065 1.004-1.67 2.252-3.226 3.013-5.247-1.274-.115-2.18.426-3.07.88-5.222 2.66-9.833 6.212-14.198 10.066-3.618 3.194-8.238 10.948-9.794 15.566-1.853 5.498-4.017 10.883-4.757 16.712-.553 4.358-.794 8.717-.75 13.1.007.82.35 1.542.83 2.507zm32.28 18.55c-.24 0-.48.006-.717 0-1.916-.042-2.278.487-1.28 2.19.45.772.642 1.61 1.03 2.383 1.888 3.754 3.63 7.592 7.01 10.352 1.985 1.622 4.037 2.45 6.496 1.122 1.323-.714 2.764-1.324 3.615-2.617.872-1.326.082-2.548-.542-3.735-.07-.132-.05-.312-.07-.47-.272-2.244-1.57-3.756-3.458-4.85-.825-.478-1.61-1.046-2.476-1.43-3.08-1.36-6.095-2.972-9.61-2.944z"/><path id="contact-lettres-t2" stroke="#1D7056" stroke-miterlimit="10" d="M363.084 114.8c-1.284-1.17-2.385-2.187-3.502-3.184-2.15-1.92-3.15-4.584-4.428-7.044-.58-1.12.566-2.393.24-3.705-.11-.45.65-.637 1.14-.484.835.264 1.66.572 2.47.914 4.982 2.1 10.31 2.57 15.576 3.383 5.242.81 10.52.637 15.77.683 7.56.067 15.13-.274 22.68-.73 3.808-.23 7.618-.42 11.427-.697.938-.07 1.905.08 2.854.194 2.406.293 4.768-.416 7.148-.32 3.986.16 7.975.607 11.966.322 5.906-.42 11.758.613 17.648.527 4.15-.06 8.302-.083 12.45-.194 2.633-.07 5.22-.242 7.818-.668 2.647-.433 5.002-1.557 7.37-2.69.503-.24.965-.644 1.486-.74 1.07-.202 1.68-.805 2.055-1.78.14-.358.46-.646.697-.967.426-.57.99-.77 1.684-.65.804.14.937.78 1.038 1.422.907 5.733-.1 10.915-4.37 15.157-.28.274-.498.61-.86 1.06 2.475 1.353 3.897 3.52 4.91 5.967 1.107 2.673 1.5 5.528 1.645 8.382.096 1.858-.646 2.224-2.378 1.483-.436-.187-.876-.418-1.227-.728-6.02-5.313-13.287-6.985-21.02-6.98-7.258.003-14.507.506-21.766.667-4.548.102-8.974 1.424-13.23 3.074-3.567 1.383-4.322 2.868-4.127 6.592.165 3.146.095 6.31-.003 9.46-.084 2.788-.268 5.577-.545 8.35-.39 3.888-.988 7.75-1.153 11.663-.104 2.397-.23 4.784-.115 7.19.218 4.544.282 9.1.512 13.645.195 3.883.61 7.756.778 11.64.12 2.79.246 5.625-.087 8.385-.44 3.647.093 7.172.715 10.7.907 5.14 3.37 9.718 5.535 14.39.53 1.147 1.188 2.23 2.356 2.943.645.396 1.035 1.018 1.08 1.97.064 1.337-.468 1.8-1.627 2.165-3.272 1.033-6.378.81-9.48-.688-1.848-.892-4.012-1.146-5.368-2.938-.765-1.008-1.24-2.24-2.397-3.062-1.298.983-2.58 2.04-3.94 2.976-2.804 1.92-5.754 3.29-9.318 3.23-2.34-.04-4.598-.49-6.893-.743-.657-.07-1.408-.308-1.51-1.27-.098-.94.535-1.126 1.162-1.534 5.013-3.278 8.47-7.542 9.25-13.772.6-4.763.893-9.533 1.228-14.312.462-6.517.84-13.04.847-19.563.006-5.023.383-10.03.405-15.05.034-7.252.134-14.504.107-21.754-.013-3.908-.164-7.813-.08-11.73.06-2.75-.43-5.546-1.454-8.187-.31-.79-.816-1.354-1.43-1.88-2.56-2.202-5.605-3.313-8.862-3.94-3.236-.623-6.47-.385-9.744-.18-4.77.3-9.572.195-14.36.176-5.594-.025-10.93.77-15.864 3.716-1.68 1.002-3.553 1.72-5.264 2.748-.986.592-1.775 1.29-2.553 2.096-.857.89-1.646.665-1.81-.547-.353-2.67-.018-5.26 1.355-7.635 1.277-2.22 2.747-4.296 4.646-6.043.232-.22.404-.496.718-.886zm133.558-12.005c-.87-.388-1.24.058-1.68.406-1.314 1.052-2.758 1.902-4.362 2.425-3.72 1.213-7.545 2.086-11.442 2.127-6.366.067-12.722.545-19.083.57-8.21.033-16.422.018-24.628-.18-3.896-.096-7.784.335-11.706-.213-2.148-.302-4.433-.117-6.677.125-3.627.392-7.3.54-10.948.49-5.337-.074-10.67-.473-16.005-.628-6.78-.197-13.56-.396-20.275-1.445-3.764-.587-7.632-.72-11.126-2.516-.257-.13-.585-.31-1.113.258 2.44 3.283 3.67 7.7 8.53 8.834.52.12 1.156.436 1.187 1.056.026.604-.158 1.16-.88 1.526-.905.46-1.693 1.168-2.49 1.82-2.272 1.853-3.57 4.293-4.294 7.172 2.412-1.34 5.16-1.576 7.48-2.865 2.21-1.23 4.664-1.62 7.038-2.14 5.298-1.155 10.725-1.595 16.125-1.903 7.182-.41 14.34-.166 21.102 2.845 2.21.982 4.592 2.015 5.88 3.978 1.81 2.762 3.184 5.838 3.218 9.35.078 7.646-.46 15.28-.178 22.93.053 1.407.248 2.85.035 4.273-.604 4.053-.29 8.13-.31 12.194-.015 2.22.2 4.442.134 6.657-.066 2.14-.56 4.24-.33 6.415.167 1.576.23 3.205.02 4.77-.444 3.327-.242 6.665-.354 9.997-.125 3.66.163 7.33-.383 10.98-.447 2.997-1.075 5.956-1.86 8.872-.944 3.515-2.714 6.59-5.378 9.142-.66.63-1.565 1.077-1.985 2.026 5.004.986 5.834.947 9.474-1.156 1.353-.784 2.613-1.764 3.81-2.832.8-.717 1.554-1.356 1.785-2.434.19-.895.717-1.438 1.632-1.438.763.002 1.666 1.13 1.77 2.066.286 2.653 2.8 5.633 5.1 6.032 1.336.23 2.67.513 4.018.658 1.214.13 2.45.455 4.06.03-1.813-1.467-2.607-3.24-3.417-5.02-2.854-6.27-5.25-12.652-5.17-19.693.006-.474-.146-.946-.184-1.424-.268-3.495-1.168-6.933-1.08-10.454.158-6.31-.82-12.565-.686-18.877.072-3.33-.336-6.667.104-10 .222-1.66.396-3.33.46-5 .19-4.853.415-9.708.447-14.564.04-5.994 1.237-11.903 1.163-17.9-.02-1.592.684-2.96 2.1-3.813 3.06-1.843 6.145-3.688 9.737-4.29 4.556-.768 9.114-1.47 13.76-1.47 3.34 0 6.687-.005 10.017-.228 3.002-.198 5.972-.49 9.008-.45 4.584.063 8.715 1.647 12.98 2.877 2 .576 3.405 2.012 5.042 3.13.774.53 1.248.29 1.207-.572-.104-2.113-.677-4.027-2.242-5.59-1.298-1.292-2.647-2.498-4.172-3.525-1.354-.912-1.337-1.645-.058-2.74.24-.208.443-.48.717-.633 3.962-2.227 4.28-6.31 5.352-10.037z"/><path id="contact-lettres-t1" stroke="#1D7056" stroke-miterlimit="10" d="M251.184 226.676c-1.882 1.764-3.773 3.354-5.447 5.146-3.217 3.44-7.18 5.152-11.79 5.71-2.167.265-4.3-.1-6.448-.005-.772.033-1.425-.305-1.714-1.067-.293-.776.293-1.125.815-1.522 2.962-2.27 4.967-5.312 7.044-8.355 3.226-4.73 5.62-9.814 7.392-15.225 1.38-4.217 1.592-8.607 1.867-12.996.2-3.172.024-6.344.568-9.525.453-2.645.235-5.412.206-8.125-.023-2.152-.22-4.304.146-6.447.08-.47.047-.96.017-1.438-.29-4.53-.26-9.07-.47-13.603-.257-5.5-.13-11.002-.337-16.492-.144-3.82.025-7.656-.487-11.472-.26-1.932-1.076-3.34-2.388-4.774-3.05-3.338-6.987-4.47-11.18-5.326-7.232-1.48-14.433-.8-21.665-.06-4 .413-7.825 1.417-11.63 2.622-2.446.774-4.83 1.627-6.682 3.51-.445.453-1.008.545-1.54.313-.585-.258-.633-.836-.614-1.437.108-3.438 1.643-6.285 3.708-8.9 1.13-1.428 2.324-2.805 3.48-4.194-.782-1.172-2.036-1.66-2.937-2.564-3.175-3.186-5.164-7.008-6.155-11.367-.312-1.373.303-2.03 1.686-1.662.74.196 1.506.36 2.228.778 5.088 2.942 10.743 3.94 16.48 4.532 4.903.506 9.823.87 14.737 1.288 5.414.462 10.828.064 16.24-.02 1.957-.03 3.93-.257 5.868.164 1.132.246 2.236-.02 3.334-.103 4.68-.348 9.376-.037 14.048-.402 8.008-.626 16.035-.965 24.058-1.082 3.735-.057 7.468-.287 11.188-.443 4.44-.188 8.947-.313 13.295-1.383 4.27-1.05 8.433-2.45 11.685-5.664.455-.45.93-.71 1.68-.66 1.503.1 1.888.484 1.238 1.83-.354.735-.636 1.416-.616 2.25.075 3.432-.876 6.606-2.334 9.688-.533 1.127-1.304 1.963-2.158 2.803-.646.63-.882 1.3.182 1.88 1.72.942 2.453 2.69 3.19 4.345 1.187 2.648 1.583 5.498 1.788 8.376.05.678.082 1.35-.622 1.625-.598.232-1.108.697-1.957.207-5.17-2.996-10.812-4.78-16.697-5.46-7.055-.815-14.156-1.355-21.27-1.048-3.647.158-7.317.332-10.882 1.262-2.07.543-3.724 1.44-5.195 3.318-1.438 1.834-2.782 3.59-3.604 5.756-.624 1.647-.9 3.317-.982 5.104-.18 3.897-.728 7.78-.562 11.697.205 4.86.307 9.722.6 14.583.26 4.27.113 8.57.107 12.856-.002 2.835.11 5.734.438 8.568.34 2.93.072 5.853.372 8.78.515 5.063.612 10.165 1.053 15.24.316 3.65.372 7.333 1.367 10.874 1.43 5.074 3.885 9.586 7.79 13.225.563.52 1.286.582 1.93.86.62.27 1.383.202 1.873.914 1.396 2.02 1.026 3.217-1.415 3.605-4.387.703-8.73.73-12.862-1.312-1.066-.526-2.273-.78-3.316-1.346-2.49-1.35-4.646-3.062-5.947-5.7-.49-.973-1.268-1.8-1.79-2.53zm-61.51-103.34l.398.377c.797-.354 1.592-.71 2.392-1.057 3.896-1.69 7.944-2.914 12.146-3.488 6.15-.842 12.315-1.448 18.55-1.092 4.245.243 8.372.838 12.337 2.473 4.982 2.058 7.92 5.774 8.986 10.952.46 2.237.752 4.51.678 6.854-.085 2.69-.018 5.398.327 8.105.29 2.272.47 4.63.062 6.915-.622 3.477-.38 6.96-.4 10.45-.027 5.026.68 10.026.62 15.044-.083 7.24-.258 14.48-.776 21.708-.13 1.826-.08 3.688-.388 5.47-.637 3.68-1.532 7.296-2.872 10.82-2.203 5.804-5.38 11.02-8.96 16.03-.468.653-1.31 1.082-1.487 2.3 3.012-.92 5.998-1.165 8.48-2.84 3.725-2.513 7.114-5.403 9.208-9.497.386-.75.802-1.104 1.606-1.116.913-.014 1.525.354 1.81 1.244.1.303.23.598.37.883 1.825 3.68 3.99 6.95 7.74 9.126 3.805 2.207 7.706 2.71 12.036 2.207-.187-.39-.23-.666-.392-.79-4.52-3.495-7.084-8.294-9.254-13.435-1.087-2.576-1.602-5.27-1.593-7.926.017-5.892-.712-11.732-.983-17.6-.246-5.33-.444-10.68-.72-16.014-.353-6.922-.41-13.858-.624-20.79-.072-2.374-.37-4.75-.303-7.115.092-3.188.31-6.363-.094-9.552-.33-2.618-.297-5.286.04-7.878.563-4.312 2.8-7.944 5.54-11.213 1.047-1.25 2.3-2.453 3.977-2.96 3.607-1.09 7.34-1.68 11.07-1.664 6.916.027 13.854-.023 20.732.89 4.98.662 9.97 1.318 14.713 3.128 1.775.676 3.594 1.25 5.467 1.896.48-3.788-1.188-6.526-3.86-8.73-1.375-1.135-2.813-2.183-4.905-1.818-1.207.21-1.73-.707-1.582-2.043.105-.962.797-1.604 1.814-1.306 2.32.68 3.624-.634 4.784-2.23 1.52-2.092 2.438-4.475 2.992-6.984.133-.61.717-1.285-.013-2.02-2.024 1.12-4.014 2.3-6.188 3.086-7.627 2.76-15.573 3.212-23.573 3.258-6.392.036-12.78-.167-19.168.12-6.608.298-13.21.797-19.83.817-4.71.015-9.42.046-14.127.126-4.135.07-8.277.463-12.395.273-5.255-.243-10.52-.51-15.757-.994-4.59-.423-9.178-1.083-13.627-2.478-2.17-.68-4.25-1.577-6.497-2.56-.037 1.35.593 2.267 1.068 3.09 2.083 3.597 4.142 7.33 9.118 7.315-.23 1.93-.22 1.943-1.424 2.754-3.5 2.367-5.308 5.977-7.268 9.48z"/><path id="contact-lettres-n" stroke="#1D7056" stroke-miterlimit="10" d="M185.757 196.37c-.103 6.923 1.307 13.614 2.84 20.32.903 3.94 2.344 7.54 4.718 10.8.816 1.12.48 1.717-.932 1.816-.636.045-1.286-.04-1.915.045-3.325.454-6.073-.938-8.687-2.706-1.754-1.188-1.703-1.2-3.42-.064-4.276 2.824-9.078 3.764-14.105 3.762-1.395 0-1.563-.354-.902-1.604.967-1.83 2.6-3.204 3.507-5.104.515-1.077 1.006-2.123 1.313-3.3 1.8-6.91 2.672-13.936 2.92-21.057.075-2.15.267-4.3.345-6.45.186-5.117-.48-10.197-.764-15.295-.13-2.355.07-4.72-.482-7.085-.933-4-2.63-7.467-5.812-10.14-1.635-1.372-3.116-2.917-4.994-4.01-1.177-.682-1.154-1.278-.146-2.257 1.013-.982 2.327-1.438 3.64-1.71 6.358-1.315 12.308-.384 17.863 3.147 3.998 2.54 8.332 4.14 13.16 4.543 4.312.36 8.612.15 12.914.307.315.01.66.074.942-.023 2.594-.906 4.505.64 6.527 1.787 2.457 1.397 3.53 3.77 4.383 6.284.56 1.652 1.578 3.074 2.123 4.766 1.594 4.938 2.824 9.97 3.523 15.082.57 4.156.79 8.375.846 12.6.08 6.123.23 12.267 1.455 18.3.453 2.228 1.422 4.244 3.584 5.424.337.183.643.476.872.785.866 1.17.664 1.766-.7 2.26-2.93 1.06-5.96 1.034-8.995.778-1.065-.09-1.93-.804-2.684-1.47-.77-.678-1.283-.65-2.03-.047-3.313 2.677-7.23 3.124-11.288 2.9-.528-.028-1.09-.294-1.545-.587-.905-.58-.95-1.72.023-2.053 2.137-.734 2.78-2.52 3.393-4.324 1.548-4.562 2.307-9.25 1.947-14.09-.457-6.12-.908-12.242-2.23-18.262-.497-2.263-1.092-4.506-1.958-6.646-1.114-2.748-3.095-4.924-5.67-6.267-2.354-1.226-4.865-.665-6.954.94-3.156 2.43-5.006 5.71-5.87 9.586-.61 2.755-.71 5.536-.753 8.325zm4.573 30.392c-1.31-1.44-1.835-3.123-2.54-4.725-1.207-2.742-1.292-5.746-2.076-8.58-2.066-7.47-2.53-15.068-2.14-22.764.307-6.06 2.925-10.87 7.912-14.27 1.954-1.333 4.142-2.374 6.704-1.82 4.497.97 7.104 3.962 8.59 8.08.265.73.433 1.513.748 2.243 1.526 3.54 2.032 7.367 2.514 11.102.298 2.317.765 4.68.763 7.072 0 1.18-.16 2.396.033 3.562.836 5.034.108 9.97-.827 14.9-.392 2.06-1.32 3.952-2.1 5.94 2.763.156 5.716-1.37 7.667-3.846 1.236-1.572 2.178-1.652 3.19-.04 1.942 3.09 5.147 3.616 9.158 2.382-1.61-1.8-2.666-3.588-3.082-5.686-.435-2.185-.76-4.394-1.05-6.603-.61-4.682-.46-9.4-.682-14.104-.245-5.188-.383-10.388-1.733-15.418-1.238-4.614-2.85-9.13-4.17-13.727-.498-1.73-1.34-3.233-2.284-4.712-.57-.893-1.318-1.623-2.37-1.922-2.22-.633-4.42-1.27-6.79-1.21-3.113.077-6.23-.028-9.35-.048-5.395-.035-10.443-1.426-14.987-4.285-3.112-1.957-6.407-3.14-10.005-3.7-3.15-.493-6.24-.69-9.6.74 1.12.802 2.02 1.423 2.895 2.08 1.207.907 2.363 1.82 3.317 3.063 3.668 4.778 4.85 10.37 5.332 16.14.324 3.864.193 7.767.31 11.647.098 3.183-.112 6.35-.256 9.52-.19 4.217-.184 8.443-.595 12.647-.58 5.906-2.036 11.567-5.163 16.703-.11.183-.098.438-.174.813 4.233-.248 7.755-1.858 10.7-4.727 1.69-1.647 2.125-1.742 3.445.127 1.272 1.8 3.12 2.728 4.996 3.567 1.024.473 2.26.873 3.704-.142z"/><path id="contact-lettres-c2" stroke="#1D7056" stroke-miterlimit="10" d="M392.08 193.49c-1.107-.37-1.23-1.365-1.645-2.092-1.477-2.588-3.266-4.92-5.73-6.6-3.726-2.535-9.827-2.015-13.45.74-2.27 1.725-3.76 3.837-4.643 6.484-.9 2.715-1.94 5.392-1.932 8.312.012 2.945 1.098 5.336 3.23 7.438 6.2 6.108 13.213 5.776 20.586 2.812 3.145-1.268 5.98-3.002 7.768-6.05.324-.558.623-1.2 1.424-1.01.877.216.922.995 1.02 1.716.457 3.413-.218 6.648-1.397 9.85-2.616 7.104-7.94 11.234-14.764 13.87-3.554 1.374-7.243 2.032-10.985 2.038-2.763.002-5.434-.72-7.96-2.146-4.68-2.637-8.43-6.318-11.69-10.407-4.18-5.237-5.772-11.567-6.774-18.146-.746-4.906.633-9.267 2.22-13.673 2.405-6.674 6.478-12.237 11.884-16.754 2.438-2.035 5.306-3.556 8.28-4.71 1.466-.57 2.866-1.277 4.447-1.65 4.517-1.062 8.18.43 11.806 2.98 2.906 2.042 5.32 4.544 7.636 7.134 3.213 3.598 4.797 7.812 3.645 12.72-.604 2.55-1.108 5.155-2.976 7.143zm.242-4.658c1.205-3.707 1.73-6.968.17-10.115-2.15-4.354-5.606-7.64-9.367-10.654-3.396-2.72-7.36-3.186-11.244-2.293-4.004.92-7.713 2.834-11.026 5.498-6.312 5.074-10.362 11.592-12.826 19.18-1.594 4.906-1.27 9.888-.204 14.854.604 2.82 1.646 5.486 3.047 7.986 1.968 3.51 4.673 6.473 7.462 9.326 3.826 3.92 8.36 6.346 14.022 6.03 1.994-.108 3.994-.23 5.97-.51 3.024-.42 5.893-1.295 8.47-3.062 4.382-3.008 8.15-6.465 9.398-11.91.434-1.885 1.123-3.753.81-6.06-2.076 1.893-4.094 3.374-6.356 4.505-3.916 1.957-8.146 2.734-12.426 3.19-1.87.198-3.832.08-5.62-.78-1.432-.688-2.948-1.246-4.267-2.106-1.72-1.122-3.506-2.268-4.43-4.237-1.81-3.854-1.842-7.825-.823-11.9.764-3.06 1.995-5.908 3.753-8.485 2.3-3.38 5.184-5.908 9.533-6.45 3.764-.474 7.023.75 10.188 2.413 2.248 1.18 4.092 2.924 5.768 5.582z"/><path id="contact-lettres-a-exterieur" stroke="#1D7056" stroke-miterlimit="10" d="M308.84 168.56c2.447.147 4.915-.62 7.357.015 2.85.74 5.498 1.716 7.736 3.845 1.557 1.48 3.043 2.99 4.527 4.533 2.007 2.086 2.44 4.547 2.655 7.188.29 3.563.166 7.132.3 10.692.17 4.607.132 9.23.663 13.832.235 2.047.04 4.12.312 6.195.6 4.56 2.017 8.8 4.422 12.702 1.164 1.89 2.095 3.94 3.86 5.424.905.76.606 1.572-.265 2.162-1.258.853-2.584 1.62-4.14 1.716-1.673.104-3.355.16-5.026.1-2.114-.078-3.937-.807-5.667-2.187-2.135-1.703-4.06-3.598-6-5.488-1.002-.98-1.537-2.224-1.947-3.528-.217-.682-.438-1.363-.635-2.053-.255-.897-.76-.897-1.425-.433-1.438 1.014-2.85 2.06-4.32 3.018-5.562 3.627-11.4 4.203-17.52 1.504-.36-.16-.732-.312-1.11-.425-5.032-1.53-8.296-5.102-10.77-9.496-1.723-3.063-2.98-6.35-4.184-9.64-.72-1.975-.277-4.094-.3-6.124-.056-4.858.8-9.636 1.937-14.368.828-3.436 3-6.023 5.188-8.492 5.254-5.933 11.998-9.375 19.8-10.664 1.486-.24 3.04-.03 4.555-.03zm29.462 64.977c-.23-.904-.868-1.52-1.405-2.207-4.1-5.23-6.354-11.264-6.894-17.79-.513-6.185-.416-12.417-.612-18.628-.137-4.363-.157-8.732-.997-13.055-.494-2.533-1.627-4.715-3.67-6.203-1.464-1.064-3.16-1.84-4.646-2.916-1.328-.963-2.856-1.297-4.438-1.497-.632-.078-1.26-.193-1.894-.262-3.66-.396-7.32-.69-10.963.16-4.48 1.043-8.49 3.133-12.264 5.666-3.417 2.297-6.44 4.99-7.454 9.27-.125.53-.545.98-.73 1.505-2.02 5.663-3.883 11.353-2.122 17.48.24.84.354 1.714.52 2.574.577 3.087 1.598 6.027 3.372 8.613 2.556 3.717 5.77 6.81 9.463 9.407 1.41.994 2.922 1.537 4.704 1.39 1.433-.12 2.863-.323 4.283-.38 5.646-.225 9.943-3.005 13.707-6.893.39-.398.66-1.062 1.293-.83.71.266.978.88.963 1.72-.045 2.89.863 5.45 2.785 7.656 2.834 3.252 6.4 5.154 10.598 6.004 2.225.457 4.41.804 6.4-.783z"/><path id="contact-lettres-o-exterieur" stroke="#1D7056" stroke-miterlimit="10" d="M127.263 159.086c2.58.455 5.42-.025 8.132.9 1.588.54 3.086 1.346 4.53 2.087 2.933 1.51 6.062 2.644 8.62 5.013 1.756 1.627 3.238 3.47 4.934 5.125 1.036 1.015 1.455 2.515 1.775 3.88 1.213 5.18 2.797 10.32 2.465 15.73-.333 5.447-.7 10.906-3.077 15.96-2.23 4.733-5.297 8.853-9.313 12.226-2.25 1.893-4.47 3.814-6.9 5.502-1.838 1.275-3.925 1.707-5.95 2.354-5.015 1.604-10.082 2.2-15.303.812-1.684-.445-3.37-.912-5.05-1.375-3.354-.925-6.23-2.96-8.154-5.606-2.453-3.377-4.362-7.198-5.585-11.305-1.973-6.626-2.09-13.253-1.017-20.066.727-4.61 1.65-9.104 3.76-13.246 3.03-5.95 6.66-11.397 12.815-14.726 4.574-2.47 7.28-3.31 13.318-3.266zm-2.867 68.008c6.018.305 11.3-1.543 15.998-5.27 2.008-1.594 3.997-3.22 5.738-5.073 2.72-2.904 5.352-5.93 6.72-9.773 1.444-4.058 2.335-8.242 2.895-12.52.515-3.936.407-7.788-.837-11.583-.122-.37-.076-.795-.17-1.183-1.24-5.113-3.145-9.81-7.85-12.83-1.342-.86-2.772-1.568-4.09-2.443-3.777-2.513-7.78-4.13-12.384-4.623-5.877-.63-11.213.646-16.382 3.24-2.078 1.04-3.337 2.915-4.855 4.524-1.58 1.674-3.102 3.385-4.198 5.46-.662 1.25-1.265 2.528-1.927 3.776-1.693 3.19-3.055 6.562-3.495 10.098-.874 7.036-1.442 14.098.827 21.068 1.315 4.04 3.57 7.408 6.327 10.54 1.47 1.67 3.386 2.58 5.336 3.505 3.92 1.86 7.902 3.42 12.346 3.09z"/><path id="contact-lettres-t2-fill" d="M496.642 102.795c-1.07 3.726-1.39 7.81-5.367 10.047-.27.152-.475.425-.717.632-1.28 1.097-1.298 1.83.057 2.74 1.522 1.027 2.874 2.233 4.174 3.526 1.563 1.56 2.14 3.477 2.24 5.59.04.86-.433 1.102-1.208.57-1.636-1.117-3.043-2.553-5.042-3.13-4.268-1.228-8.396-2.813-12.98-2.875-3.035-.04-6.004.25-9.006.45-3.33.22-6.68.228-10.02.227-4.643-.002-9.203.703-13.758 1.467-3.593.603-6.676 2.448-9.738 4.29-1.416.854-2.115 2.22-2.1 3.812.076 6-1.123 11.908-1.163 17.9-.03 4.857-.256 9.713-.447 14.566-.063 1.67-.237 3.342-.46 4.998-.438 3.334-.03 6.67-.103 10-.14 6.31.843 12.57.687 18.877-.09 3.52.812 6.96 1.078 10.455.036.48.188.95.184 1.425-.078 7.04 2.316 13.425 5.17 19.694.81 1.774 1.605 3.55 3.417 5.018-1.606.424-2.845.102-4.058-.03-1.35-.147-2.682-.427-4.02-.657-2.3-.4-4.81-3.378-5.1-6.033-.103-.938-1.006-2.065-1.77-2.067-.914 0-1.437.545-1.63 1.438-.232 1.073-.986 1.717-1.787 2.436-1.19 1.066-2.452 2.047-3.812 2.83-3.637 2.103-4.467 2.145-9.47 1.156.42-.95 1.325-1.396 1.983-2.027 2.664-2.55 4.434-5.624 5.378-9.142.785-2.914 1.413-5.875 1.858-8.87.548-3.65.26-7.32.385-10.98.11-3.33-.094-6.67.354-10 .212-1.56.148-3.188-.018-4.767-.23-2.173.263-4.276.33-6.415.065-2.215-.147-4.438-.138-6.656.02-4.065-.293-8.144.312-12.194.212-1.426.018-2.867-.035-4.272-.28-7.648.257-15.285.18-22.93-.038-3.51-1.407-6.59-3.22-9.35-1.287-1.966-3.668-2.997-5.88-3.98-6.76-3.01-13.92-3.253-21.103-2.843-5.398.31-10.825.748-16.125 1.904-2.375.518-4.826.91-7.037 2.14-2.317 1.288-5.066 1.522-7.48 2.864.722-2.88 2.022-5.32 4.294-7.172.796-.65 1.585-1.36 2.49-1.82.722-.367.906-.922.88-1.526-.027-.62-.664-.935-1.19-1.056-4.857-1.133-6.086-5.55-8.527-8.834.53-.567.857-.39 1.113-.258 3.494 1.797 7.36 1.93 11.123 2.516 6.72 1.05 13.495 1.25 20.276 1.445 5.336.156 10.668.554 16.004.627 3.648.05 7.32-.098 10.948-.49 2.244-.242 4.526-.426 6.68-.125 3.92.548 7.81.117 11.704.212 8.206.198 16.418.214 24.63.18 6.36-.024 12.714-.502 19.08-.57 3.9-.04 7.73-.913 11.444-2.126 1.604-.52 3.047-1.372 4.363-2.423.45-.354.82-.8 1.692-.412zm-70.635 63.978c1.103.043 2.478-.972 2.444-1.808-.03-.854-1.018-1.8-1.865-1.797-1.12.004-2.123.783-2.216 1.722-.103 1.036.6 1.842 1.637 1.883zm-45.636-51.697c.88.04 1.843.182 1.845-1.147.002-1.236-.982-2.074-2.383-2.078-1.027-.003-1.812.628-1.812 1.454.005.96 1.04 1.74 2.35 1.77zm45.53 90.908c1.104.018 2.224-.848 2.19-1.69-.032-.868-1.19-2.11-1.96-2.105-1.115.005-2.122 1.034-2.092 2.135.03 1.05.695 1.642 1.862 1.66zm1.08-91.133c-1.202.064-2.685 1.508-2.51 2.324.183.855.746 1.355 1.663 1.356 1.178.002 2.45-1.196 2.266-2.253-.147-.824-.8-1.27-1.42-1.426zm.618 101.355c-.01-.816-1.206-2.113-1.936-2.098-.903.02-1.73 1.098-1.696 2.21.025.98.624 1.52 1.7 1.528 1.072.012 1.942-.726 1.932-1.64zM426.2 179.45c1.19.022 2.207-.6 2.258-1.343.048-.72-.975-1.98-1.643-2.025-1.23-.084-1.98.707-2.02 2.045-.033 1.068.545 1.373 1.406 1.324zm-2.265 11.51c.024.964.858 1.81 1.804 1.83 1.085.02 2-.747 1.934-1.622-.064-.854-1.095-1.973-1.794-1.945-.912.03-1.965.972-1.945 1.736zm22.038-75.06c.016-.684-1.383-2.08-2.046-2.046-.785.04-1.786 1.063-1.862 1.905-.08.892.604 1.663 1.546 1.735.962.076 2.347-.858 2.363-1.595zm33.348-2.607c-1.473-.015-2.607.836-2.505 1.9.107 1.11 1.125 1.022 1.804 1.147 1.06.195 2.126-.577 2.16-1.336.05-1.006-.542-1.7-1.46-1.71zm-52.71 40.156c.932-.056 2.06-1 1.987-1.665-.083-.796-1.19-1.957-1.8-1.883-1.02.123-1.913.94-1.896 1.73.024 1.14.717 1.876 1.71 1.817zm29.88-40.075c-.97-.014-1.476.576-1.48 1.717-.002 1.088.685 1.856 1.694 1.902.84.038 1.612-.718 1.683-1.642.078-1.046-.803-1.964-1.898-1.977zm-28.234 27.416c.02-.763-.793-1.93-1.396-2-.92-.108-2.13.892-2.146 1.772-.02 1.22.547 1.896 1.607 1.914 1.028.018 1.912-.75 1.936-1.685zm.076-11.726c-.07-.834-1.013-1.638-1.804-1.54-1.07.134-2.15 1.114-2.048 1.967.11.912.676 1.375 1.636 1.316 1.194-.072 2.285-.913 2.216-1.742zm-58.262-9.913c1.148-.008 1.937-.574 1.875-1.35-.07-.94-1.284-1.938-2.4-1.93-1.056.008-1.297.786-1.35 1.613-.06.987.764 1.677 1.875 1.668zm32.07-4.617c0-1.056-1.08-2.1-2.024-2.103-.77-.003-1.75.842-1.812 1.567-.066.785.936 1.605 2.037 1.578.812-.017 1.54-.278 1.8-1.042zm10.008-1.225c-.772-.06-1.37.303-1.383 1.32-.014 1.126 1.06 2.282 2.062 2.16.88-.107 1.44-.568 1.393-1.575-.064-1.23-.724-1.918-2.072-1.905zm-42.18-1.806c.608-.096 1.413-.138 1.614-.996.19-.816-1.027-1.992-1.973-2.008-.99-.018-1.775.643-1.792 1.504-.01.94.743 1.498 2.15 1.5zm49.76 112.264c-.687.074-1.89 1.312-1.87 1.924.02.754 1.184 1.77 1.983 1.742.772-.03 1.523-1.012 1.432-1.865-.122-1.078-.812-1.883-1.543-1.8zM390.2 115.54c1.047.034 2.358-.837 2.352-1.445-.01-.73-.938-1.733-1.632-1.77-.975-.05-1.89.727-1.938 1.667-.046.957.456 1.448 1.22 1.547zm78.408.522c1.23.006 1.993-.577 2.008-1.537.018-1.035-.63-1.363-1.525-1.398-1.17-.043-2.322.787-2.202 1.688.122.927.82 1.28 1.718 1.247zM434.86 226.6c-.084-1.098-1.204-2.414-2.044-2.3-.807.106-1.245.552-1.11 1.48.187 1.33.978 2.093 2.227 1.93.595-.08 1.06-.37.926-1.11zm56.557-106.83c-.062-.894-1.09-1.784-1.966-1.68-.906.104-1.186.675-1.073 1.515.12.924.856 1.49 1.86 1.38.716-.073 1.194-.417 1.18-1.214zm-1.085-9.62c-.028-.886-.812-1.65-1.57-1.615-.767.035-1.77 1.092-1.62 1.773.198.883.958 1.07 1.687 1.003.703-.064 1.403-.345 1.502-1.16z"/><path id="contact-lettres-c2-fill" d="M392.02 189.116c-1.675-2.657-3.52-4.4-5.77-5.587-3.163-1.663-6.428-2.884-10.188-2.414-4.353.544-7.233 3.073-9.535 6.45-1.756 2.58-2.988 5.432-3.75 8.488-1.02 4.073-.984 8.047.822 11.9.923 1.972 2.71 3.115 4.427 4.238 1.316.86 2.834 1.418 4.267 2.105 1.79.86 3.752.98 5.622.78 4.275-.456 8.51-1.23 12.426-3.19 2.266-1.132 4.28-2.614 6.354-4.505.316 2.307-.375 4.176-.807 6.06-1.25 5.446-5.02 8.903-9.4 11.91-2.576 1.77-5.442 2.643-8.47 3.06-1.976.274-3.976.397-5.97.51-5.66.31-10.196-2.11-14.02-6.028-2.79-2.856-5.496-5.82-7.46-9.33-1.4-2.5-2.444-5.166-3.05-7.985-1.062-4.97-1.39-9.945.205-14.855 2.46-7.586 6.514-14.104 12.826-19.18 3.313-2.662 7.022-4.576 11.028-5.498 3.883-.89 7.85-.428 11.242 2.294 3.763 3.016 7.218 6.303 9.367 10.656 1.56 3.152 1.042 6.412-.166 10.12zm-33.86 20.85c-.033-1.384-1.33-2.73-2.543-2.643-.986.07-2.213 1.66-2.146 2.782.063 1.045 1.567 2.22 2.782 2.168 1.107-.043 1.937-1.048 1.908-2.306zm12.703-36.046c-.006 1.518.785 2.586 1.88 2.545 1.188-.047 2.7-1.445 2.743-2.543.053-1.28-1.457-2.545-2.96-2.482-.936.04-1.66 1.115-1.663 2.48zm9.754 47.574c.03-1.094-1.335-2.354-2.54-2.348-1.09.006-2.146 1.34-2.124 2.686.016 1.105.96 1.996 2.18 2.057 1.037.046 2.453-1.32 2.484-2.396zm-24.823-24.064c.02-.445-.153-.99-.46-1.45-.465-.693-.786-1.68-1.896-1.52-.88.122-1.853 1.552-1.877 2.518-.02.707.503 1.146.76 1.71.356.77 1.02 1.32 1.91 1.02.965-.325 1.596-1.028 1.564-2.278zm8.965 19.556c-1.105-.02-2.115 1.158-2.094 2.438.018 1.12.973 2.01 2.19 2.043.978.027 2.448-1.014 2.518-1.776.085-.995-1.547-2.682-2.615-2.704zm1.176-38.02c.155-1.632-.348-2.18-2.148-2.347-1.406-.13-2.176.517-2.352 1.98-.14 1.165.63 1.997 1.94 2.103 1.556.123 2.44-.476 2.56-1.738zm20.804-1.94c.02-1.456-1.05-2.765-2.32-2.833-.84-.045-1.868 1.05-1.94 2.06-.077 1.187 1.544 2.483 3.044 2.456 1.164-.022 1.115-.9 1.216-1.683zm-30.672 12.247c.928-.04 1.82-1.162 1.762-2.21-.062-1.145-.904-1.987-1.965-1.98-1.317.014-2.266.997-2.194 2.286.05.95 1.312 1.952 2.398 1.903zm30.48 27.934c-.104 1.352.16 1.676 1.452 1.793 1.098.104 2.395-.953 2.466-2.004.062-.914-1.092-1.988-2.217-2.062s-1.564.51-1.702 2.273z"/><path id="contact-lettres-a-fill" d="M338 233.82c-1.984 1.588-4.174 1.24-6.402.79-4.193-.852-7.764-2.753-10.596-6.005-1.922-2.205-2.83-4.77-2.786-7.658.013-.838-.254-1.453-.962-1.717-.633-.234-.906.43-1.293.83-3.763 3.887-8.06 6.668-13.706 6.893-1.422.055-2.854.258-4.284.38-1.782.147-3.292-.396-4.706-1.392-3.688-2.598-6.906-5.688-9.46-9.405-1.778-2.587-2.796-5.527-3.374-8.613-.162-.86-.277-1.734-.52-2.574-1.762-6.133.104-11.816 2.123-17.48.188-.522.605-.975.73-1.504 1.018-4.278 4.036-6.977 7.453-9.27 3.77-2.534 7.784-4.624 12.262-5.67 3.645-.85 7.305-.557 10.965-.157.633.066 1.262.183 1.893.262 1.58.2 3.11.534 4.438 1.497 1.484 1.076 3.184 1.853 4.646 2.916 2.043 1.484 3.176 3.668 3.67 6.203.84 4.318.86 8.688.998 13.055.196 6.212.1 12.444.612 18.63.538 6.525 2.795 12.56 6.893 17.788.54.68 1.178 1.298 1.407 2.202zm-49.282-30.677c-.06 1.865-.032 3.732 1.062 5.32 1.675 2.424 3.396 4.787 6.645 5.354.926.162 1.878.35 2.792.615 4.663 1.37 9.563-1.225 12.427-4.646 1.32-1.582 2.074-3.453 2.678-5.29 1.52-4.645 2.672-9.22-.623-13.9-2.013-2.86-4.216-5.087-7.353-6.503-5.008-2.262-8.972-.698-12.062 3.51-.802 1.09-1.466 2.284-2.136 3.464-2.13 3.745-3.205 7.794-3.432 12.076zm32.606 2.51c1.224.028 2.398-1.03 2.388-2.145-.015-.982-1.177-2.127-2.16-2.123-1.407.006-2.175.85-2.27 2.5-.06 1.053.734 1.742 2.042 1.77zm-4.912-26.522c-1.172-.032-2.2 1.044-2.207 2.308-.006 1.043.99 1.894 2.28 1.945 1.157.05 2.192-.865 2.245-1.98.05-1.057-1.158-2.24-2.318-2.272zm3.942 15.278c1.572-.06 2.562-.934 2.485-2.2-.068-1.187-.99-1.98-2.215-1.91-1.057.06-2.182 1.343-2.125 2.415.052.95.904 1.73 1.854 1.695zm6.85 32.328c-1.51-.035-1.895.277-1.937 1.56-.04 1.325.604 1.92 2.088 1.927 1.435.006 2.377-.68 2.386-1.73.012-1.1-.885-1.72-2.535-1.757zm-14.01-10.947c.06-1.18-.786-2.065-2.052-2.15-1.015-.07-2.152 1.036-2.144 2.085.01.926.853 1.783 1.828 1.86 1.203.097 2.313-.747 2.367-1.796zm-12.483 4.165c0-1.336-.867-2.13-2.3-2.104-.855.016-1.86.98-1.902 1.83-.055 1.118 1.09 2.095 2.45 2.087 1.056-.01 1.75-.73 1.753-1.812zm-7.737-36.394c1.324-.007 2.197-.814 2.156-1.995-.034-.95-.858-1.653-1.95-1.66-1.197-.008-2.025.777-1.975 1.87.052 1.106.73 1.79 1.768 1.786zm14.29-6.51c.063-1.196-.813-2.12-2.024-2.128-1.128-.008-2.007.75-2.09 1.803-.095 1.178.743 2.05 2.014 2.098 1.13.04 2.04-.73 2.098-1.774zm-21.97 25.708c.04-1.014-.57-1.84-1.373-1.857-1.137-.025-2.29.94-2.31 1.94-.025 1.24.694 2.188 1.657 2.185.908-.007 1.985-1.214 2.027-2.267zm40.884 14.156c-.017-1.32-.8-2.11-2.06-2.078-1.033.025-1.812.97-1.742 2.11.06.954.916 1.796 1.854 1.82 1.237.033 1.96-.66 1.947-1.852zm-37.8.73c1.174.04 2.098-.655 2.2-1.66.105-.992-1.026-2.11-2.108-2.093-.866.018-1.6.866-1.683 1.954-.092 1.224.373 1.754 1.59 1.8zm-2.316-24.92c1.02.003 1.688-.605 1.7-1.548.016-1.012-.732-1.812-1.732-1.86-.852-.042-1.438.643-1.48 1.725-.045 1.026.542 1.677 1.513 1.683z"/><path id="contact-lettres-t1-fill" d="M189.674 123.336c1.96-3.5 3.767-7.112 7.273-9.473 1.205-.81 1.194-.824 1.422-2.754-4.977.013-7.037-3.72-9.12-7.317-.474-.82-1.104-1.738-1.066-3.088 2.246.98 4.325 1.877 6.497 2.56 4.45 1.393 9.038 2.053 13.628 2.477 5.236.483 10.502.75 15.756.993 4.118.19 8.262-.203 12.395-.273 4.708-.08 9.418-.11 14.127-.125 6.62-.02 13.222-.52 19.83-.816 6.388-.286 12.778-.083 19.167-.12 8-.045 15.95-.497 23.576-3.258 2.174-.787 4.16-1.965 6.188-3.085.73.733.146 1.41.01 2.02-.553 2.51-1.47 4.892-2.99 6.983-1.16 1.597-2.465 2.91-4.786 2.23-1.02-.298-1.71.342-1.813 1.305-.147 1.337.374 2.254 1.58 2.044 2.095-.366 3.53.682 4.907 1.816 2.674 2.205 4.344 4.944 3.86 8.73-1.875-.645-3.69-1.22-5.468-1.895-4.745-1.81-9.73-2.466-14.714-3.126-6.88-.916-13.815-.863-20.733-.89-3.73-.017-7.46.574-11.07 1.664-1.676.506-2.928 1.708-3.975 2.957-2.74 3.27-4.978 6.9-5.54 11.215-.338 2.592-.37 5.26-.04 7.88.4 3.187.187 6.36.093 9.55-.067 2.367.23 4.743.304 7.117.21 6.93.27 13.865.625 20.787.27 5.336.472 10.684.72 16.014.27 5.865 1 11.707.98 17.602-.007 2.652.508 5.35 1.594 7.924 2.17 5.142 4.733 9.938 9.254 13.435.162.124.205.4.39.79-4.33.504-8.228 0-12.034-2.207-3.75-2.176-5.916-5.444-7.74-9.123-.143-.285-.273-.58-.37-.885-.282-.89-.895-1.26-1.808-1.242-.805.013-1.223.365-1.607 1.116-2.095 4.092-5.483 6.98-9.208 9.493-2.484 1.677-5.47 1.924-8.482 2.84.18-1.217 1.02-1.643 1.488-2.3 3.58-5.01 6.756-10.228 8.96-16.027 1.34-3.524 2.235-7.146 2.872-10.82.31-1.78.256-3.645.387-5.47.52-7.227.694-14.47.778-21.708.058-5.02-.65-10.02-.62-15.045.02-3.488-.223-6.974.398-10.45.408-2.283.23-4.643-.06-6.913-.347-2.71-.413-5.418-.33-8.106.075-2.344-.214-4.613-.675-6.853-1.068-5.177-4.005-8.895-8.986-10.95-3.965-1.64-8.094-2.23-12.338-2.475-6.234-.356-12.4.25-18.55 1.09-4.202.576-8.25 1.797-12.145 3.49-.8.346-1.596.704-2.393 1.057-.138-.134-.27-.26-.403-.386zm46.428-8.397c.96-.008 2.03-1.338 2.057-2.558.022-1.092-.66-1.81-1.74-1.83-1.44-.024-2.955 1.076-3.02 2.193-.06 1.01 1.413 2.204 2.702 2.194zm39.003.004c1.283-.024 2.557-.845 2.606-1.68.064-1.02-1.445-2.316-2.623-2.255-1.32.067-2.245.894-2.248 2.007-.002 1.147.947 1.955 2.265 1.927zm-25.554 88.34c-.034.847.687 1.332 2.11 1.427 1.45.097 2.56-.645 2.65-1.774.084-1.012-1.17-2.668-2.002-2.646-1.003.02-2.712 1.878-2.757 2.995zm-25.236-92.532c-1.046-.023-2.408 1.177-2.437 2.146-.032 1.104.915 2.08 2.094 2.153 1.195.077 2.38-.943 2.432-2.093.04-.89-1.185-2.186-2.088-2.205zm62.44 4.402c1.583-.02 1.945-.334 1.973-1.713.027-1.41-.85-2.377-2.125-2.35-1.145.025-2.354 1.178-2.375 2.26-.024 1.27.76 1.826 2.526 1.804zm-34.71 77.768c1.418.014 2.302-.73 2.245-1.883-.044-.944-1.132-2.11-1.97-2.114-1.07-.006-2.463 1.184-2.515 2.146-.063 1.186.722 1.835 2.24 1.85zm1.91-51.51c.034-1.046-.93-1.996-2.15-2.123-.847-.087-1.87 1.257-1.954 2.57-.062.966.748 1.817 1.748 1.84.982.02 2.323-1.282 2.355-2.288zm.837 37.774c-.04-.983-1.188-2.02-2.27-2.047-1.036-.025-2.34 1.22-2.372 2.267-.03.978 1.033 1.742 2.417 1.738 1.265-.004 2.27-.89 2.226-1.96zm-4.013-66.903c-1.104-.01-2.05 1.1-2.024 2.372.02 1.107.83 1.685 2.372 1.696 1.09.008 1.86-.772 1.916-1.937.06-1.24-.874-2.118-2.263-2.13zm1.537 42.522c1.453.043 2.277-.582 2.314-1.756.036-1.15-1.093-2.286-2.268-2.28-.903.006-2 1.195-2.085 2.27-.082 1.024.723 1.724 2.04 1.765zm-39.176-40.625c1.106-.014 1.994-.922 1.933-1.98-.067-1.203-.995-2.26-2.02-2.306-1.17-.052-2.14.995-2.172 2.353-.024.888 1.212 1.944 2.26 1.933zm38.483 97.66c-1.113.123-3.007 2.188-2.843 3.1.145.804 1.028 1.332 2.018 1.205 1.285-.164 2.44-1.377 2.378-2.494-.048-.853-.93-1.88-1.552-1.81zm11.923 14.098c-.02-.858-1.426-2.14-2.256-2.055-1.037.104-2.117 1.285-2.06 2.248.03.54 1.503 2.136 1.958 2.124.78-.018 2.377-1.59 2.358-2.316zM199.688 107.29c.028-.92-.826-1.733-1.852-1.766-1.16-.036-2.805 1.255-2.758 2.164.043.826 1.02 1.604 2.062 1.644 1.178.04 2.518-1.033 2.548-2.04zm99.833 5.566c-.038-1.194-.69-1.867-1.75-1.8-1.16.076-2.5 1.298-2.468 2.25.03.835.996 1.557 2.107 1.574 1.235.02 2.147-.857 2.11-2.024zm-46.55 55.867c.946.045 1.837-.74 1.894-1.676.06-.967-.97-2.293-1.875-2.42-.87-.123-2.273 1.357-2.24 2.36.027.83 1.12 1.68 2.22 1.736zm.496-41.014c.03-.927-.188-1.522-.737-1.905-.68-.475-1.2.11-1.693.428-.375.242-.696.644-.914 1.043-.574 1.05-.38 2.162.365 2.51.857.402 2.41-.235 2.777-1.174.14-.362.173-.764.2-.903zm11.43-11.585c1.088-.01 1.854-.752 1.78-1.728-.075-1.062-.97-1.944-1.99-1.966-1.116-.023-1.964.756-2.024 1.864-.062 1.145.79 1.844 2.234 1.83zm44.452-6.865c1.144-.02 1.91-.674 1.938-1.652.025-.998-.773-1.865-1.734-1.876-1.162-.013-2.184.772-2.217 1.707-.036 1.04.847 1.84 2.013 1.82zm-107.244 7.488c-.036-.914-1.05-1.912-1.854-1.826-.898.1-2.344 1.44-2.305 2.145.047.842 1.3 1.85 2.24 1.803.938-.05 1.958-1.176 1.92-2.122zm40.26 110.926c1.315.03 2.097-.635 2.054-1.748-.036-.922-.918-1.705-1.95-1.73-1-.024-2.065.95-2.088 1.916-.02.882.806 1.534 1.983 1.562zm67.46-111.736c-.82.17-1.64.27-1.713 1.322-.054.764.896 2.018 1.583 2.076.79.065 1.766-.752 1.812-1.523.06-.907-.827-1.867-1.68-1.875z"/><path id="contact-lettres-n-fill" d="M190.03 227.045c-1.444 1.018-2.68.615-3.705.156-1.875-.84-3.724-1.77-4.995-3.565-1.32-1.87-1.754-1.77-3.445-.127-2.945 2.865-6.467 4.48-10.7 4.725.076-.377.063-.633.174-.813 3.125-5.135 4.583-10.795 5.162-16.703.41-4.198.404-8.43.595-12.646.144-3.173.354-6.34.257-9.52-.118-3.883.013-7.782-.31-11.646-.484-5.77-1.664-11.36-5.333-16.14-.953-1.243-2.11-2.157-3.316-3.064-.873-.656-1.773-1.277-2.895-2.082 3.36-1.43 6.45-1.23 9.6-.74 3.598.562 6.893 1.744 10.005 3.703 4.544 2.857 9.593 4.25 14.99 4.285 3.115.02 6.234.125 9.35.046 2.366-.06 4.567.58 6.786 1.212 1.055.3 1.802 1.03 2.372 1.922.945 1.48 1.79 2.98 2.285 4.713 1.32 4.597 2.933 9.11 4.17 13.728 1.35 5.03 1.487 10.23 1.733 15.418.224 4.7.07 9.422.683 14.102.29 2.21.614 4.418 1.05 6.604.417 2.096 1.473 3.886 3.08 5.686-4.01 1.233-7.214.707-9.155-2.383-1.014-1.61-1.955-1.533-3.19.04-1.95 2.477-4.905 4-7.67 3.847.78-1.99 1.71-3.88 2.103-5.942.937-4.933 1.663-9.864.827-14.9-.192-1.162-.033-2.38-.032-3.56.002-2.397-.464-4.757-.763-7.072-.48-3.73-.987-7.562-2.514-11.103-.316-.73-.484-1.513-.75-2.242-1.484-4.118-4.09-7.11-8.588-8.08-2.562-.552-4.75.49-6.704 1.82-4.986 3.4-7.604 8.212-7.912 14.272-.39 7.69.073 15.296 2.14 22.763.784 2.836.87 5.838 2.076 8.58.704 1.587 1.23 3.27 2.54 4.71zm1.185-58.557c-.01-1.375-1.128-2.62-2.308-2.568-1.122.05-2.23 1.377-2.247 2.693-.017 1.303.7 2 2.072 2.014 1.73.02 2.493-.64 2.483-2.14zm-15.576 18.26c.005 1.656.804 2.61 2.122 2.54 1.18-.067 2.106-1.175 2.05-2.45-.046-1.05-1.284-2.562-2.036-2.486-1.216.12-2.14 1.158-2.137 2.396zm36.56-9.85c-1.337-.02-2.145.947-2.11 2.537.023 1.145.97 1.977 2.22 1.955 1.002-.02 2.207-1.22 2.163-2.16-.05-1.076-1.256-2.312-2.272-2.332zm-38.378-18.11c-1.142-.06-2.25.808-2.35 1.843-.13 1.378.82 2.536 2.128 2.593 1.047.047 2.066-.938 2.16-2.084.077-.93-1.053-2.3-1.938-2.35zm7.174 15.634c.042-.797-1.412-2.57-2.142-2.61-1.028-.06-2.06 1.018-2.116 2.204-.057 1.217.837 2.195 2.012 2.205.993.01 2.2-.96 2.246-1.798zm35.645 20.875c1.272-.006 2.382-1.05 2.345-2.205-.03-.898-1.142-1.828-2.197-1.838-1.162-.01-2.324.98-2.313 1.97.013 1.174.955 2.077 2.166 2.073zm1.617 13.238c1.386.043 2.253-.557 2.258-1.56.005-.977-1.12-2.25-2.078-2.353-1.07-.117-2.422 1.325-2.378 2.54.03.83.832 1.33 2.197 1.373zm-13.12-38.93c-.008-.965-1.355-2.13-2.503-2.164-.906-.024-2.124 1.337-2.044 2.284.062.74 1.336 1.625 2.388 1.657 1.076.036 2.164-.86 2.158-1.775zm-27.54 30.743c-1.073-.135-1.8.322-1.91 1.2-.142 1.126.788 2.532 1.782 2.696 1.122.186 2.036-.337 2.196-1.25.208-1.182-.814-2.49-2.068-2.646zm2.66 16.334c.056-.95-.696-1.8-1.686-1.904-1-.106-2.166.964-2.193 2.015-.024.91 1.01 1.908 2.014 1.94.932.03 1.802-.926 1.867-2.05zm40.112.265c.017-.646-1.155-1.873-1.856-1.943-.7-.068-2.104.934-2.186 1.562-.103.772 1.125 1.815 2.15 1.828.973.008 1.87-.677 1.89-1.447z"/><path id="contact-lettres-o-fill" d="M124.096 227.377c-4.444.332-8.426-1.23-12.347-3.086-1.95-.924-3.866-1.833-5.337-3.503-2.757-3.133-5.012-6.5-6.327-10.54-2.27-6.976-1.7-14.034-.827-21.07.438-3.534 1.8-6.903 3.494-10.095.662-1.248 1.266-2.527 1.927-3.78 1.097-2.075 2.62-3.786 4.198-5.46 1.518-1.61 2.777-3.482 4.855-4.525 5.17-2.592 10.505-3.868 16.382-3.24 4.604.494 8.607 2.11 12.384 4.624 1.317.878 2.747 1.583 4.088 2.443 4.705 3.02 6.61 7.717 7.852 12.834.093.385.047.81.17 1.18 1.243 3.796 1.352 7.648.836 11.585-.56 4.274-1.45 8.46-2.895 12.52-1.368 3.847-3.998 6.87-6.72 9.773-1.74 1.856-3.73 3.48-5.737 5.073-4.698 3.726-9.98 5.574-15.997 5.27zm17.33-35.877c-.083-3.03-.5-5.95-1.75-8.816-1.623-3.73-4.364-5.764-8.198-6.47-2.028-.374-4.083-.69-6.165-.663-2.072.028-3.887.52-5.146 2.4-.703 1.05-1.568 2.022-2.497 2.884-2.213 2.05-3.666 4.57-4.91 7.268-1.632 3.533-1.97 7.353-2.527 11.117-.432 2.92.243 5.74 1.467 8.327 1.32 2.79 3.697 4.453 6.744 5.264 3.838 1.02 7.666 1.772 11.443.022 2.784-1.29 5.114-3.324 6.792-5.844 3.1-4.652 4.912-9.793 4.746-15.488zm-30.285-11.88c1.376.022 2.22-.665 2.3-1.876.088-1.31-1.048-2.693-2.192-2.672-1.007.02-2.32 1.488-2.376 2.658-.052 1.104.864 1.87 2.27 1.89zm22.69 42.146c.92.033 2.136-1.156 2.194-2.15.064-1.084-.956-2.272-1.95-2.272-1.216-.002-2.646 1.177-2.7 2.222-.046.936 1.313 2.16 2.457 2.2zm4.83-48.49c.993.006 2.02-.776 2.1-1.602.1-1.036-1.71-2.627-3-2.637-.9-.007-1.648.728-1.692 1.66-.062 1.323 1.195 2.573 2.592 2.578zm-34.185 19.175c1.324.054 2.583-.667 2.618-1.495.047-1.104-1.285-2.695-2.236-2.672-1.07.025-2.094 1.012-2.187 2.104-.083.994.818 2.025 1.805 2.064zm16.378 27.144c-1.068.03-2.04 1.346-2.058 2.783-.013 1.107.77 1.785 2.025 1.744 1.12-.036 2.22-1.222 2.203-2.366-.014-.942-1.263-2.186-2.17-2.16zm-18.325-14.914c0 1.514.87 2.42 2.296 2.383.937-.022 1.832-.856 1.895-1.766.08-1.178-1.155-2.515-2.325-2.51-1.25.004-1.866.627-1.867 1.893zm20.06-33.48c1.337.038 2.336-.858 2.373-2.13.032-1.072-.987-2.21-2.043-2.283-.952-.064-2.18 1.285-2.23 2.45-.045 1.124.736 1.933 1.902 1.964zm23.697 39.163c.023-1.27-.978-2.34-2.162-2.307-.968.024-2.06.993-2.12 1.88-.062.933 1.267 2.257 2.327 2.314 1.116.066 1.933-.725 1.955-1.887zm1.67-12.972c1.19.022 2.096-.536 2.14-1.32.08-1.357-.986-2.722-2.107-2.697-1.07.022-2.237 1.096-2.232 2.05.005 1.147.89 1.94 2.2 1.968zm.35-16.25c.01-1.1-1.185-2.38-2.212-2.368-.916.01-1.956 1.02-2.02 1.967-.09 1.282.867 2.467 1.968 2.437 1.03-.03 2.255-1.13 2.264-2.036zm-37.625 38.41c1.195.058 1.863-.52 1.898-1.63.042-1.37-.8-2.352-2.095-2.432-.965-.062-1.725.727-1.758 1.82-.04 1.274.76 2.188 1.955 2.243z"/><path id="contact-lettres-c1b-fill" d="M114.054 81.873c-1.715-2.955-3.807-5.718-5.963-8.38-1.024-1.264-1.93-2.753-3.398-3.603-1.97-1.14-4.21-1.9-5.282-4.176-.05-.107-.287-.12-.428-.193-4.405-2.317-9.03-4.11-13.987-4.592-7.668-.744-15.246.106-22.714 1.997-2.27.574-4.236 1.818-6.367 2.675-3.198 1.284-6.126 3.01-9.015 4.827-2.01 1.265-4.035 2.51-5.8 4.146-3.762 3.484-6.893 7.53-10.227 11.39-3.91 4.524-7.013 9.618-10.08 14.747-2.834 4.744-4.703 9.89-6.778 14.946-1.967 4.794-3.26 9.83-4.72 14.8-1.1 3.735-1.924 7.54-2.588 11.37-.64 3.697-.535 7.46-.574 11.203-.012 1.112-.178 2.223-.254 3.335-.3 4.37-.33 8.736-.043 13.117.344 5.27 1.354 10.422 2.346 15.586.857 4.472 2.055 8.834 3.772 13.062 1.273 3.14 3.446 5.697 5.24 8.498.698 1.092 1.017 2.334 1.748 3.39 1.787 2.58 3.815 4.864 6.526 6.573 4.25 2.683 8.497 5.362 13.148 7.278 4.774 1.97 9.786 2.49 14.954 2.396 6.31-.115 12.334-1.232 18.18-3.604 5.878-2.385 10.07-6.73 13.342-11.854 2.825-4.427 4.004-9.535 3.825-14.877-.117-3.512-.346-6.99-1.59-10.508-1.175.476-1.484 1.308-1.822 2.107-.657 1.564-1.577 2.972-2.785 4.146-2.284 2.22-4.576 4.45-7.232 6.23-2.915 1.95-5.904 3.72-9.456 4.4-2.087.4-4.125.272-6.18.143-4.65-.308-9.187-1.157-13.386-3.296-2.957-1.508-5.486-3.602-7.512-6.2-1.908-2.45-4.495-4.565-4.58-8.07-2.054-4.187-2.932-8.743-4.038-13.22-1.262-5.11-2.39-10.246-2.61-15.543-.203-4.925-1.252-9.76-.937-14.772.308-4.908 1.083-9.66 2.36-14.373.375-1.38.52-2.836 1.02-4.164 1.874-4.97 5.304-9.012 8.255-13.316 1.837-2.68 4.14-5.05 6.478-7.34 2.623-2.572 5.108-5.312 8.03-7.535 5.608-4.27 11.88-7.432 18.23-10.41 2.383-1.12 4.95-1.92 7.626-1.798 2.782.127 5.553.494 8.326.782.89.093 1.63.562 2.397 1.017 1.813 1.073 2.984 2.874 4.66 4.056 2.067 1.456 3.008 3.534 3.428 5.812.43 2.332.766 4.79-.745 6.953-1.72 2.466-6.98 4.81-10.504 2.827-3.31-1.86-6.174-4.225-8.043-7.625-1.458-2.652-2.765-5.376-3.974-8.15-.254-.582-.575-1.136-.844-1.713-.26-.556-.722-.68-1.178-.398-2.78 1.715-5.85 2.872-8.645 4.573-2.323 1.414-4.37 3.166-6.52 4.8-1.642 1.247-1.68 1.23-1.07 3.23 1.79 5.853 4.563 11.06 8.962 15.49 2.208 2.226 4.664 3.875 7.357 5.206 4.523 2.235 9.32 3.833 14.333 4.454 3.8.472 7.597.36 11.364-.897 2.22-.742 4.24-1.813 6.307-2.804 4.218-2.02 7.348-5.104 9.46-9.413 2.83-5.777 3.54-11.838 3.45-18.125-.055-3.87-1.38-7.378-3.256-10.612zM78.77 204.588c1.115-.006 2.38 1.453 2.4 2.77.025 1.574-.938 2.728-2.3 2.748-.95.017-2.343-1.647-2.39-2.854-.04-.994 1.393-2.66 2.29-2.664zm-12.324 7.344c1.18.027 2.25 1.16 2.204 2.338-.044 1.162-1.167 2.146-2.417 2.12-1.254-.025-2.19-.897-2.183-2.036.007-1.366 1.083-2.454 2.396-2.422zm-13.126 1.22c1.162.005 2.408 1.295 2.424 2.508.014 1.14-1.054 1.93-2.767 2.045-1.115.074-2.327-1.295-2.27-2.566.043-1 1.353-1.994 2.613-1.988zm-12.748-3.347c1.147.002 2.196.937 2.257 2.01.083 1.46-1.41 2.646-3.353 2.664-1.232.01-1.866-.685-1.815-1.982.045-1.162 1.702-2.693 2.91-2.693zm-21.08-80.057c.894-.053 2.284 1.166 2.3 2.018.026 1.504-1.178 2.902-2.543 2.955-1.448.058-2.287-.683-2.306-2.03-.023-1.452 1.2-2.862 2.55-2.942zm-2.972 16.63c1.34-.245 2.416 1.394 2.445 2.396.038 1.304-1.058 2.332-2.477 2.377-1.254.04-2.464-1.296-2.444-2.702.015-1.1 1.175-2.07 2.476-2.07zm.154 24.23c-1.43.034-2.502-1.233-2.477-2.925.016-1.095 1.062-2.107 2.19-2.125 1.334-.02 2.554 1.188 2.63 2.598.076 1.385-.916 2.424-2.343 2.453zm3.607 20.146c-1.148.084-2.04-.922-2.08-2.354-.043-1.44.762-2.56 1.874-2.604 1.068-.043 2.478 1.5 2.488 2.726.01 1.255-.88 2.126-2.28 2.232zm7.866 7.54c1.47-.022 2.564.786 2.58 1.913.02 1.252-1.17 2.508-2.385 2.52-1.318.014-2.83-1.407-2.88-2.71-.038-1.023 1.014-1.7 2.686-1.724zm-3.85-77.43c-1.328.087-2.334-1.1-2.465-2.905-.083-1.152.937-2.054 2.333-2.06 1.22-.007 2.622 1.168 2.683 2.25.057 1.018-1.472 2.645-2.55 2.715zm8.49-15.856c-1.402-.002-2.302-1.152-2.208-2.827.068-1.242 1.49-2.393 2.886-2.334 1.416.06 2.546 1.152 2.484 2.4-.068 1.34-1.695 2.762-3.162 2.762zm8.28-12.938c-1.176-.03-2.634-1.572-2.525-2.67.088-.88 1.82-2.398 2.703-2.37 1.29.044 2.558 1.403 2.528 2.708-.034 1.526-1.024 2.378-2.704 2.332zm12.285-9.576c-1.34-.01-2.773-1.418-2.757-2.705.01-.788 1.602-2.17 2.556-2.222 1.097-.057 2.852 1.645 2.874 2.786.023 1.18-1.19 2.15-2.673 2.14zm13.29-6.375c-1.182.078-2.202-.954-2.21-2.234-.006-1.376.84-2.347 2.043-2.337 1.523.01 2.673.933 2.64 2.118-.03 1.195-1.214 2.367-2.474 2.45zm16.38-2.274c-1.12 0-1.854-.764-1.878-1.958-.028-1.32.917-2.43 2.057-2.423 1.127.01 2.247 1.166 2.24 2.313-.008 1.156-1.073 2.066-2.42 2.068zM65.416 96.943c-1.41 0-2.048-.73-2.03-2.312.016-1.234.565-1.88 1.61-1.884 1.425-.008 2.584 1.14 2.582 2.557-.002 1.082-.737 1.64-2.163 1.64zm7.538 11.36c-1.198-.012-2.516-1.23-2.56-2.36-.032-.88 1.2-2.005 2.254-2.053 1.267-.058 2.343 1.18 2.343 2.694 0 1.1-.752 1.73-2.038 1.72zm11.778 7.113c-1.192-.002-2.45-1.242-2.5-2.465-.048-1.196 1.135-2.09 2.71-2.046 1.232.035 1.976.873 1.938 2.186-.04 1.464-.84 2.328-2.147 2.326zm14.754-1.886c-1.256.03-2.153-.94-2.147-2.323.007-1.658.557-2.244 2.087-2.224 1.45.02 2.516.896 2.478 2.033-.046 1.353-1.134 2.484-2.418 2.514zm2.642-31.196c-1.53-.02-2.727-1.307-2.725-2.927.002-1.295.433-1.678 1.923-1.706 1.65-.032 3.192 1.16 3.217 2.485.02 1.01-1.278 2.166-2.416 2.15zm5.184 17.345c-1.182-.1-2.233-1.36-2.088-2.5.11-.87 1.31-1.924 2.186-1.922 1.22.002 2.602 1.332 2.528 2.435-.068 1.01-1.484 2.08-2.626 1.986z"/><path id="contact-lettres-c1h-fill" d="M57.7 62.588c1.533-.864 3.212-1.402 4.902-1.905 3.66-1.09 3.695-1.115 3.203-5.02-.644-5.115-.227-10.172.8-15.18 1.055-5.152 2.536-10.204 3.848-15.295 1.106-4.292 2.85-8.272 5.128-12.065 1.004-1.67 2.252-3.226 3.013-5.247-1.274-.115-2.18.426-3.07.88-5.222 2.66-9.833 6.212-14.198 10.066-3.618 3.194-8.238 10.948-9.794 15.566-1.853 5.498-4.017 10.883-4.757 16.712-.553 4.358-.794 8.717-.75 13.1.007.82.352 1.542.83 2.508 3.62-1.676 7.476-2.22 10.848-4.12zm-.723-2.978c-.998.388-2.226.045-2.688-.79-.19-.34-.27-.74-.416-1.107-.692-1.715-.303-2.348 1.49-2.4 1.293-.04 2.984 1.09 3.06 2.105.08 1.07-.447 1.805-1.447 2.192zm4.84-35.088c1.122-.055 2.04.778 2.05 1.86.007 1.062-.998 1.987-2.24 2.06-.945.053-1.79-.845-1.742-1.852.056-1.137.876-2.016 1.932-2.068zM54.86 38c.076-1.556.858-2.46 2.074-2.4 1.213.06 2.326 1.194 2.28 2.326-.047 1.175-1.245 2.004-2.825 1.956-1.193-.037-1.598-.534-1.53-1.883zm.515 8.02c.954-.036 2.44 1.026 2.533 1.81.1.868-1.29 2.253-2.358 2.348-1.143.1-2.32-.945-2.41-2.14-.077-1.015.985-1.972 2.235-2.018z"/></g></svg>