<svg xmlns="http://www.w3.org/2000/svg" width="200.786" height="159.056" viewBox="0 0 200.786 159.056"><g id="email-envelope-outlines" fill-rule="evenodd" clip-rule="evenodd" fill="#D7FFFB"><path id="email-envelope-envelope" d="M147.883 151.26l.042-.186c-2.12.896-4.347.005-6.52.232v-.346c-.688.128-1.39.254-2.09.39-.67.13-1.433.688-1.813-.422-.258.186-.498.503-.757.52-1.526.098-3.058.12-4.586.176-1.46.053-2.918.115-4.377.174-1.526.06-3.052.173-4.578.168-2.304-.007-4.607-.115-6.912-.145-2.057-.024-4.123.116-6.17-.023-3.642-.25-7.272.167-10.908.033-1.66-.06-3.324-.037-4.985-.006-3.14.06-6.276.153-9.415.227-3.658.087-7.317.154-10.975.252-4.54.122-9.08.256-13.62.407-2.797.093-5.592.258-8.39.337-1.88.053-3.765-.016-5.647.015-2.306.038-4.61.153-6.917.177-3.348.034-6.698.072-10.045.008-3.317-.064-6.67.003-9.937-.468-2.89-.416-5.89-.947-8.37-2.722-1.525-1.09-2.826-2.408-2.866-4.52-.013-.7-.27-1.393-.4-2.09-.044-.23-.146-.512-.058-.688.824-1.66.05-3.327.052-4.986.002-2.005-.057-4.01-.104-6.016-.072-3.072-.082-6.147-.25-9.215-.236-4.265-.698-8.52-.873-12.785-.23-5.58-.295-11.166-.39-16.75-.055-3.235.036-6.474-.058-9.707-.093-3.205-.373-6.405-.506-9.61-.207-4.99-.48-9.98-.5-14.973-.017-4.49.29-8.983.417-13.476.055-1.947-.066-3.903.047-5.846.178-3.05.418-6.1.758-9.135.382-3.41.742-6.837 1.426-10.192.43-2.104 1.433-4.092 2.186-6.13.123-.33.312-.64.42-.975.374-1.172.535-2.524 2.242-2.497 1.52-1.763 3.75-1.453 5.688-1.79 2.16-.376 4.408-.218 6.612-.368 2.303-.156 4.6-.412 6.9-.596.49-.04.997.104 1.487.062C35.23 7.6 37.31 7.3 39.4 7.21c3.634-.155 7.274-.257 10.91-.252 4.83.006 9.66.193 14.49.19 2.382 0 4.763-.313 7.147-.377 2.738-.073 5.48-.016 8.22-.038 3.435-.028 6.87-.12 10.305-.104 1.947.01 3.895.278 5.84.255 3.94-.048 7.88-.275 11.822-.317 3.875-.042 7.752.08 11.628.082 2.92.002 5.843-.125 8.763-.088 2.027.025 4.056.188 6.077.36 5.778.497 11.55.944 17.364.605 2.55-.15 5.12.072 7.68.042 3.538-.04 7.074-.244 10.61-.22 2.786.018 5.57.303 8.357.407 1.073.04 2.16-.198 3.228-.127 2.712.18 5.31.965 7.743 2.095 2.514 1.167 3.985 3.354 4.82 5.99.528 1.67 1.235 3.287 1.71 4.972.243.867.16 1.83.21 2.75.154 2.738.336 5.476.434 8.217.037 1.046-.172 2.097-.188 3.147-.045 3.117-.035 6.234-.08 9.35-.01.766-.192 1.526-.227 2.292-.138 3.093-.3 6.186-.353 9.28-.03 1.803.218 3.61.17 5.41-.046 1.612-.37 3.215-.49 4.828-.103 1.355-.105 2.72-.124 4.08-.01.807.038 1.616.052 2.425.03 1.82.26 3.627-.067 5.464-.197 1.115.083 2.306.038 3.458-.073 1.886-.306 3.768-.335 5.653-.024 1.52.18 3.044.23 4.568.027.92-.063 1.843-.077 2.766-.012.797.04 1.596.01 2.392-.06 1.717-.2 3.432-.23 5.148-.063 3.348-.043 6.696-.11 10.043-.057 2.75-.21 5.5-.28 8.25-.026 1.018.078 2.038.103 3.06.055 2.313-.02 4.64.176 6.94.264 3.108.78 6.194 1.08 9.3.076.795-.06 1.748-.452 2.42-.643 1.1-1.217 2.266-2.28 3.126-1.23.995-2.308 2.18-3.414 3.315-1.162 1.195-2.76 1.31-4.214 1.775-2.802.9-5.698.812-8.592.77-2.04-.03-4.08.04-6.12.012-.523-.007-1.044-.22-1.497-.322-.642.14-1.288.37-1.944.4-1.58.074-3.17.106-4.75.05-.776-.027-1.55-.443-2.314-.418-2.9.098-5.797.312-8.695.468-1.3.068-2.605.107-3.902.16zM11.285 15.09C9.3 18.416 9.17 22.01 8.86 25.52c-.25 2.84-.08 5.714-.21 8.568-.17 3.775-.548 7.542-.65 11.318-.08 2.94.155 5.89.195 8.836.035 2.556-.012 5.11-.017 7.667-.005 3.18.017 6.356-.014 9.533C8.147 73.175 7.95 74.91 8 76.64c.073 2.438.345 4.87.445 7.31.09 2.228-.395 4.44-.264 6.674.113 1.93.208 3.862.377 5.788.35 3.98.758 7.957 1.116 11.938.133 1.48.175 2.97.287 4.454.104 1.375.32 2.745.355 4.12.064 2.46.023 4.923.04 7.383.016 2.5.09 5.002.06 7.502-.02 1.488-.232 2.974-.28 4.463-.055 1.768.253 3.6-.123 5.288-.31 1.393.135 2.52.354 3.742.125.697.3 1.515.75 1.998 1.095 1.17 2.486 1.906 4.098 2.246 4.196.887 8.412 1.49 12.717 1.44 2.382-.028 4.767.18 7.148.146 3.373-.045 6.743-.242 10.116-.317 3.263-.073 6.528-.07 9.793-.108 4.103-.05 8.205-.12 12.308-.155 1.404-.012 2.81.132 4.212.088 3.645-.113 7.287-.302 10.93-.442 2.307-.09 4.614-.183 6.92-.207 3.58-.037 7.162.072 10.737-.045 4.166-.137 8.33-.395 12.486-.71 1.946-.15 3.874-.1 5.818-.094 5.24.02 10.482-.27 15.724-.364 3.627-.065 7.258-.074 10.884.01 2.012.045 4.02.49 6.027.47 3.408-.032 6.812-.335 10.22-.44 3.077-.095 6.156-.067 9.233-.11 3.003-.044 6.006-.152 9.01-.153 4.073-.003 8.008-.338 10.946-3.69.286-.326.65-.583.97-.88.938-.874 1.883-1.637 1.5-3.25-.27-1.126.016-2.376-.007-3.568-.042-2.18-.06-4.365-.218-6.538-.184-2.52-.557-5.025-.76-7.543-.213-2.636-.375-5.277-.46-7.92-.086-2.628-.147-5.264-.044-7.89.146-3.744.49-7.48.675-11.225.19-3.824.3-7.65.426-11.476.118-3.572.158-7.147.333-10.716.13-2.657.456-5.303.634-7.958.23-3.397.405-6.798.584-10.197.23-4.32.474-8.64.645-12.96.138-3.497.264-6.998.232-10.495-.025-2.65-.4-5.295-.453-7.946-.08-3.98-1.105-7.55-4.098-10.48-.627.82-1.205 1.726-1.93 2.492-2.394 2.53-4.79 5.062-7.28 7.492-2.598 2.532-5.31 4.946-7.968 7.415-1.467 1.363-2.957 2.702-4.388 4.102-1.494 1.46-2.94 2.97-4.385 4.48-1.05 1.102-1.99 2.32-3.11 3.346-2.852 2.615-5.748 5.184-8.682 7.707-2.424 2.083-4.902 4.107-7.406 6.095-3.083 2.448-6.21 4.842-9.333 7.238-3.763 2.885-7.556 5.728-11.636 8.16-.46.274-.924.552-1.345.88-.94.734-1.796 1.592-2.79 2.238-2.675 1.738-5.57 3.056-8.56 4.146-1.626.594-3.286 1.11-4.963 1.535-1.183.3-2.472.693-3.622.5-2.07-.35-4.123-.975-6.09-1.73-2.67-1.026-5.332-2.138-7.855-3.48-3.124-1.662-6.16-3.51-9.128-5.438-3.986-2.59-7.94-5.24-11.78-8.042-3.604-2.632-7.02-5.52-10.553-8.252-2.838-2.193-5.732-4.312-8.59-6.477-3.62-2.743-7.253-5.47-10.838-8.256-2.48-1.928-4.9-3.935-7.324-5.934-1.47-1.21-2.905-2.46-4.337-3.714-1.217-1.065-2.382-2.19-3.618-3.233-3.275-2.763-6.677-5.386-9.17-8.955-.718-1.03-1.564-1.965-2.437-3.05zm178-2.755c-.93-.507-1.332-.665-1.66-.918-1.4-1.077-2.882-1.693-4.692-1.17-.332.095-.753-.092-1.126-.178-.34-.08-.67-.285-1.002-.28-2.188.03-4.375.115-6.563.154-1.69.03-3.385.08-5.073.005-1.638-.072-3.27-.41-4.904-.416-3.48-.014-6.96.164-10.44.167-3.265.004-6.53-.2-9.795-.16-4.013.047-8.024.307-12.038.37-2.295.038-4.594-.188-6.892-.197-5.236-.02-10.473.04-15.71.027-3.85-.01-7.698-.063-11.547-.136-3.142-.06-6.285-.297-9.423-.235-4.768.093-9.53.376-14.296.583-3.48.15-6.956.35-10.437.457-4.457.135-8.916.292-13.373.264-4.258-.028-8.514-.358-12.772-.413-3.462-.043-6.926.137-10.39.193-2.278.037-4.564-.073-6.834.07-2.143.137-4.382-.083-6.236 1.52-1.02.884-1.214 1.658-.214 2.685 2.962 3.04 5.923 6.078 8.9 9.102 1.348 1.37 2.664 2.78 4.117 4.03 1.52 1.307 3.152 2.49 4.796 3.643 1.584 1.11 2.782 2.658 4.43 3.7.992.627 1.833 1.49 2.756 2.23 2.118 1.695 4.26 3.358 6.356 5.082.638.525 1.103 1.26 1.74 1.787.557.46 1.29.706 1.866 1.15 2.844 2.185 5.674 4.39 8.485 6.617 2.064 1.634 4.076 3.334 6.138 4.97 2.068 1.642 4.134 3.286 6.263 4.844 1.95 1.426 3.996 2.718 5.974 4.105 1.634 1.145 3.147 2.49 4.864 3.485 2.334 1.354 4.836 2.41 7.214 3.69 1.243.67 2.296 1.723 3.573 2.29 2.77 1.23 5.66 2.194 8.447 3.392 2.74 1.178 5.517.72 8.018-.247 3.737-1.443 7.362-3.268 10.833-5.277 3.126-1.81 5.993-4.07 8.952-6.165 1.89-1.34 3.762-2.71 5.605-4.113 3.024-2.302 6-4.665 9.033-6.957 2-1.512 4.153-2.83 6.07-4.438 2.447-2.053 4.714-4.32 7.08-6.47 1.224-1.112 2.526-2.138 3.736-3.263 1.726-1.604 3.398-3.264 5.093-4.9.458-.442.925-.876 1.37-1.332 1.308-1.342 2.596-2.706 3.915-4.037 1.392-1.404 2.848-2.745 4.206-4.18 1.385-1.466 2.61-3.086 4.04-4.504 1.705-1.693 3.587-3.21 5.33-4.867 1.507-1.434 2.906-2.98 4.397-4.432.498-.486 1.13-.832 1.824-1.33z"/><path id="email-envelope-a-bottom" d="M114.91 112.066c-2 .667-3.862 1.276-5.716 1.91-2.77.944-5.67.99-8.53 1.04-2.624.045-5.26-.292-7.778-1.223-2.685-.99-5.434-1.814-8.088-2.876-2.58-1.03-4.913-2.475-6.883-4.522-1.043-1.086-2.526-1.74-3.61-2.798-1.227-1.198-2.405-2.52-3.29-3.98-1.618-2.664-3.07-5.437-4.463-8.228-1.098-2.198-1.245-4.607-.997-7.02.212-2.055.427-4.12.835-6.14.225-1.11.877-2.128 1.29-3.205.33-.856.483-1.797.918-2.59.254-.462.907-.707 1.38-1.05.218-.156.47-.28.65-.474.976-1.044 2.065-1.28 3.54-1.125 1.43.15 1.95 1.16 2.576 1.973.587.762.705 1.89 1.012 2.86.095.3.163.613.197.925.075.687.364 1.473.135 2.046-1.144 2.864-.033 5.47.55 8.212.405 1.916.79 3.748 1.83 5.426 1.406 2.27 3.165 4.224 5.157 5.985 2.886 2.55 6.228 4.266 9.848 5.523 3.294 1.145 6.55.748 9.854.086 1.84-.368 3.335-1.088 4.66-2.484.925-.975 2.37-1.432 3.45-2.285 1.472-1.162 3.03-2.316 4.168-3.772 1.688-2.156 3.33-4.445 4.438-6.926.785-1.753.67-3.913.935-5.895.2-1.49.05-3.115.615-4.444.896-2.113 2.32-3.96 4.836-4.466.95-.19 3.325.866 3.753 1.73 1.157 2.327 1.9 4.85 1.812 7.396-.095 2.786-.705 5.533-1.8 8.195-1.104 2.682-1.726 5.56-2.584 8.343-.596 1.936-.953 3.882-.67 5.924.054.383-.365.812-.384 1.227-.108 2.376 2.493 5.115 4.826 4.917.836-.07 1.765-.595 2.402-1.183 1.937-1.786 3.782-3.675 5.604-5.58 1.363-1.426 2.744-2.857 3.928-4.43 3.553-4.713 6.15-9.853 6.683-15.86.133-1.507.503-3 .548-4.507.042-1.422-.103-2.868-.338-4.275-.53-3.16-1.225-6.292-1.74-9.454-.375-2.292-.764-4.61-.794-6.923-.04-2.868 1.513-5.525 4.656-6.36 1.625-.432 3.324-.004 4.916.98 2.432 1.504 3.12 3.746 3.458 6.328.256 1.958.812 3.878 1.047 5.837.25 2.083.373 4.192.38 6.29.006 2.012-.084 4.04-.354 6.032-.544 4.007-1.087 8.025-1.925 11.976-.55 2.6-1.617 5.09-2.453 7.627-.487 1.48-.878 3-1.486 4.43-.98 2.304-1.965 4.627-3.204 6.796-1.204 2.107-2.723 3.986-4.54 5.696-3.757 3.536-8.36 5.318-13 7.212-2.767 1.128-5.488 1.095-8.308.926-.197-.012-.41-.012-.587-.083-2.84-1.144-5.67-2.308-8.51-3.446-2.652-1.063-3.938-3.218-4.706-5.8-.065-.22-.146-.434-.15-.444zM67.35 85.262c.466 1.87.943 3.735 1.396 5.606.743 3.066 2.57 5.58 4.27 8.123 1.85 2.763 4.433 4.863 7.165 6.687 2.647 1.767 5.355 3.5 8.514 4.298 1.574.396 3.165.745 4.705 1.246 3.803 1.238 7.686 1.91 11.65 1.257 2.172-.357 4.305-1.07 6.385-1.817.96-.345 1.797-1.102 2.61-1.77.913-.748 1.99-.74 2.34.168.184.474.35 1.01.315 1.503-.152 2.134 1.044 3.57 2.426 4.918 2.15 2.097 5.044 2.69 7.7 3.75.902.358 1.877.572 2.84.734 3.585.604 6.71-.85 9.744-2.414 2.707-1.396 5.312-2.992 7.938-4.542.84-.496 1.85-.96 2.36-1.72 1.904-2.846 3.81-5.718 5.37-8.758 1.087-2.123 1.577-4.547 2.392-6.815.772-2.15 1.682-4.253 2.407-6.418.47-1.4.768-2.868 1.05-4.323.245-1.27.403-2.564.526-3.854.298-3.145.692-6.29.783-9.443.072-2.535-.144-5.092-.42-7.62-.238-2.184-.627-4.368-1.164-6.5-.413-1.64-1.37-2.967-3.292-3.187-.72-.082-1.504-.478-2.136-.297-1.792.513-3.327 2.902-3.24 4.86.083 1.87.177 3.745.42 5.6.49 3.72 1.032 7.436 1.655 11.137.673 4.007-.17 7.91-.835 11.788-.434 2.528-1.387 4.996-2.348 7.396-1.203 3.004-2.562 5.887-4.792 8.408-1.983 2.242-4.124 4.23-6.508 5.953-1.704 1.23-3.546 2.405-5.504 3.11-1.827.66-3.893.603-5.192-1.38-1.236-1.888-2.078-3.97-2.287-6.21-.373-3.976.326-7.82 1.57-11.615 1.27-3.863 2.45-7.77 3.353-11.73.318-1.397-.107-3.07-.573-4.492-.238-.726-1.292-1.62-2.02-1.662-1.813-.1-3.49 1.5-3.603 2.992-.15 1.994-.155 3.998-.283 5.994-.068 1.06-.058 2.196-.443 3.152-1.03 2.556-2.552 4.862-4.367 6.924-2.04 2.318-3.93 4.807-6.535 6.57-1.497 1.014-2.9 2.233-4.524 2.97-1.584.72-3.373 1.157-5.11 1.34-3.33.35-6.684.188-9.96-.582-1.226-.29-2.417-.81-3.56-1.358-1.598-.767-3.293-1.462-4.654-2.553-1.558-1.248-2.855-2.843-4.157-4.38-1.67-1.97-3.46-3.906-4.24-6.436-.588-1.906-.852-3.91-1.407-5.828-.778-2.682-.782-5.326-.073-8.01.39-1.48-.69-3.294-2.213-3.86-.984-.367-2.514.44-3.194 1.758-.438.845-.84 1.72-1.155 2.615-.984 2.796-1.882 5.618-2.095 8.722z"/><path id="email-envelope-baz-bottom" d="M168.21 112.665c-.26 2.197-1.008 4.162-2.016 6.163-1.17 2.32-3.222 3.757-4.73 5.71-.63.817-1.603 1.407-2.503 1.97-2.445 1.526-4.883 3.082-7.423 4.44-2.48 1.325-5.168 2.166-7.94 2.73-2.198.447-4.36 1.102-6.575 1.437-2.024.308-4.093.316-6.143.448-2.12.136-4.247.447-6.352.336-1.803-.097-3.48.36-5.218.523-1.587.147-3.198.023-4.8.048-3.762.06-7.526.184-11.29.187-3.393.002-6.79-.064-10.18-.216-1.31-.058-2.64-.73-3.9-.593-1.91.21-3.584-.474-5.353-.807-3.074-.58-5.856-1.915-8.49-3.52-2.98-1.813-5.89-3.748-8.77-5.722-1.12-.77-2.08-1.778-3.095-2.695-1.757-1.586-3.615-3.08-5.217-4.81-1.423-1.537-2.84-3.2-3.76-5.056-1.976-3.983-3.616-8.133-5.425-12.2-.387-.87-.955-1.66-1.358-2.524-.913-1.95-1.93-3.876-2.597-5.912-.37-1.13-.087-2.465-.16-3.704-.085-1.41-.363-2.818-.336-4.224.046-2.4.11-4.82.45-7.193.48-3.34 1.147-6.657 1.86-9.956.582-2.69 1.914-5.124 3.512-7.29 1.478-2.005 3.73-3.302 6.304-2.363 1.652.605 2.994 1.973 3.398 3.903.55 2.617-.194 5.023-1.19 7.4-1.645 3.923-2.996 7.903-2.798 12.268.088 1.94-.164 3.895-.143 5.84.047 4.423 1.1 8.596 3.068 12.576 1.92 3.882 4.434 7.352 6.9 10.88 1.897 2.712 3.94 5.208 6.65 7.118 3.32 2.342 6.754 4.44 10.757 5.482 3.23.84 6.38 2.01 9.63 2.75 2.304.522 4.71.678 7.084.81 4.852.27 9.71.545 14.565.563 4.304.016 8.632-.093 12.904-.56 3.482-.38 6.922-1.272 10.338-2.113 3.14-.774 6.316-1.55 9.298-2.765 2.14-.87 3.99-2.456 5.957-3.742 2.63-1.72 3.925-4.562 5.85-6.876 1.14-1.373 2.198-3.086 4.12-3.644 1.3-.378 2.46.19 3.523.844 1.525.94 1.626 2.468 1.594 4.06zM128.506 133.8c1.59 0 2.902.188 4.137-.035 4.105-.746 8.224-1.487 12.26-2.532 2.657-.688 5.34-1.61 7.72-2.946 2.773-1.557 5.308-3.58 7.797-5.586 1.985-1.6 3.835-3.4 4.604-5.996.485-1.64 1.674-3.132 1.16-4.966-.186-.664-.695-1.238-1.057-1.853-.737.56-1.79-.23-2.533.804-1.312 1.82-2.813 3.517-4.336 5.173-1.19 1.293-2.447 2.55-3.825 3.635-1.593 1.253-3.273 2.442-5.06 3.39-1.56.827-3.51.995-4.94 1.966-2.11 1.432-4.536 1.604-6.815 2.145-3.39.802-6.742 1.89-10.326 1.903-3.845.013-7.687.417-11.533.586-1.176.05-2.36-.172-3.542-.17-2.36.006-4.73.2-7.083.09-2.027-.096-4.042-.488-6.057-.78-2.805-.405-5.624-.745-8.402-1.29-2.426-.477-4.89-.974-7.186-1.857-4.884-1.88-9.84-3.622-13.848-7.284-2.08-1.9-3.973-3.947-5.46-6.264-1.763-2.745-3.827-5.282-5.242-8.3-1.347-2.868-3.054-5.553-3.63-8.735-.515-2.833-1.36-5.65-1.475-8.5-.132-3.27.146-6.608.685-9.844.396-2.38 1.444-4.66 2.298-6.948.945-2.53 2.05-5 1.158-7.81-.55-1.733-1.82-2.398-3.556-1.938-1.31.347-2.04 1.27-2.788 2.25-2.08 2.732-3.19 5.938-3.94 9.182-1.014 4.4-1.25 8.935-1.055 13.462.073 1.706.237 3.415.464 5.108.2 1.478.347 3.01.872 4.384.77 2.01 1.882 3.89 2.797 5.848.344.738.49 1.568.822 2.314.46 1.04 1.014 2.042 1.52 3.063.87 1.758 1.633 3.578 2.625 5.264 1.77 3.007 3.47 5.98 6.282 8.338 3.34 2.8 6.28 6.07 10.136 8.25 2.175 1.23 4.052 2.93 6.63 3.5 3.613.8 7.132 2.03 10.753 2.775 2.44.5 4.895 1.042 7.507.603 2.125-.358 4.36-.058 6.546-.056 2.797.003 5.596-.053 8.39.014 1.894.046 3.79.43 5.673.36 3.723-.138 7.44-.483 10.85-.72z"/><path id="email-envelope-a-top" d="M150.08 43.37c-.074.48-.162.99-.23 1.5-.236 1.81-1.558 2.562-3.07 3.038-2.454.77-4.64-.146-6.737-1.28-2.142-1.16-4.22-2.437-6.362-3.6-3.042-1.654-6.21-3.052-9.25-4.735-3.245-1.797-6.727-3.28-10.533-3.59-1.642-.135-3.296-.296-4.938-.237-2.43.087-4.853.35-7.277.555-4.232.357-8.428 1.023-12.452 2.358-2.42.804-4.783 1.925-6.982 3.224-1.972 1.164-3.7 2.745-5.506 4.18-2.67 2.122-5.292 4.305-7.978 6.406-1.662 1.3-3.445 1.794-5.57.906-2.518-1.053-3.065-1.95-3.41-4.592-.41-3.146 1.475-5.137 3.143-7.22 2.498-3.123 5.59-5.596 9.013-7.678 1.485-.903 2.77-2.133 4.25-3.047 1.635-1.01 3.34-1.944 5.103-2.707 3.062-1.325 6.147-2.628 9.31-3.683 2.462-.82 5.035-1.37 7.597-1.83 5.383-.964 10.778-.34 16.157.17 5.756.547 11.25 2.255 16.735 3.963 2.402.75 4.825 1.515 7.1 2.57 2.948 1.37 5.73 3.098 7.788 5.707 2.04 2.587 3.243 5.587 4.01 8.77.06.262.058.54.09.852zm-45.85-20.58c-3.842-.094-7.57.65-11.146 1.8-4.362 1.404-8.812 2.694-12.705 5.278-3.304 2.193-6.592 4.413-9.95 6.522-2.446 1.538-4.513 3.477-6.477 5.56-1.605 1.7-2.42 3.71-2.144 6.03.078.653.588 1.568 1.135 1.792 1.397.575 2.926.754 4.222-.41 1.188-1.07 2.366-2.15 3.53-3.242 1.992-1.868 3.898-3.834 5.972-5.604 2.353-2.01 5.012-3.568 8.01-4.457 1.133-.337 2.452-.345 3.396-.952 2.353-1.515 5.04-1.825 7.63-2.44 1.698-.403 3.495-.393 5.248-.55 1.35-.12 2.706-.17 4.05-.324 3.34-.377 6.662-.26 9.855.786 3.823 1.252 7.602 2.65 11.357 4.097 2.108.812 4.208 1.71 6.168 2.824 3.09 1.757 6.054 3.737 9.088 5.596.623.382 1.29.74 1.985.947 2.468.74 4.802-.404 4.653-2.508-.118-1.668-.777-3.403-1.597-4.887-.88-1.59-2.354-2.844-3.33-4.395-.776-1.236-1.77-2.15-2.94-2.907-.98-.63-2.02-1.183-3.083-1.66-.954-.427-1.963-.743-2.968-1.04-3.025-.897-6.06-1.755-9.09-2.64-2.105-.615-4.172-1.42-6.315-1.827-2.17-.414-4.415-.438-6.625-.642-2.644-.242-5.288-.497-7.932-.748z"/><path id="email-envelope-baz-top" d="M127.01 62.877c-.048.552-.01 1.127-.16 1.648-.293 1.025-.697 1.946-1.863 2.387-1.9.718-3.447.26-4.834-1.103-2.816-2.768-5.548-5.644-9.164-7.418-3.52-1.727-7.27-1.796-10.998-1.15-3 .518-5.93 1.437-8.892 2.185-.224.056-.455.116-.655.224-2.382 1.277-4.76 2.563-7.137 3.847-.068.037-.136.082-.188.14-.848.9-1.795 1.215-3.006.69-.924-.398-1.968-.545-2.854-1.005-1.29-.668-2.055-2.693-1.467-3.986.734-1.615 1.7-3.064 3.05-4.325 2.69-2.507 6.01-3.676 9.343-4.858 1.826-.647 3.66-1.32 5.542-1.754 2.508-.577 5.062-.96 7.605-1.374 2.965-.483 5.942-.314 8.783.56 4.594 1.414 9.173 2.95 12.55 6.7.39.43.886.774 1.367 1.11 1.24.87 2.03 1.954 2.22 3.535.155 1.318.587 2.603.896 3.904l-.14.043zm-2.123-1.18c.105-1.553-.405-2.74-1.278-3.718-.963-1.08-1.998-2.116-3.113-3.035-1.79-1.477-3.61-2.896-5.96-3.504-2.125-.548-4.19-1.337-6.277-2.028-.38-.126-.748-.408-1.125-.417-.917-.02-1.836.112-2.754.12-.777.008-1.57-.18-2.333-.09-1.807.208-3.606.5-5.4.812-1.79.31-3.607.548-5.34 1.062-1.958.58-3.878 1.335-5.736 2.187-2.604 1.196-5.275 2.314-6.857 5-.922 1.565-.124 3.633 1.71 3.834 1.278.14 2.524.003 3.652-.774.905-.623 1.873-1.162 2.84-1.686 3.317-1.79 6.722-3.433 10.415-4.233 2.687-.583 5.406-.66 8.223-.36 6.26.663 10.802 3.978 14.686 8.54.82.964 2.14 1.62 3.173 1.31 1.25-.376 1.19-1.537 1.465-2.488.063-.223.01-.478.01-.532z"/></g><g id="email-envelope-fills" fill-rule="evenodd" clip-rule="evenodd"><path id="email-envelope-a-bottom-fill" fill="#D7FFFB" d="M67.35 85.262c.213-3.104 1.11-5.926 2.096-8.724.315-.896.717-1.77 1.155-2.615.682-1.317 2.21-2.125 3.195-1.76 1.52.568 2.603 2.384 2.213 3.86-.708 2.686-.705 5.33.073 8.012.557 1.918.82 3.922 1.408 5.828.78 2.53 2.57 4.467 4.24 6.437 1.3 1.536 2.6 3.13 4.157 4.378 1.36 1.09 3.056 1.786 4.653 2.553 1.144.55 2.335 1.07 3.562 1.36 3.275.77 6.628.93 9.958.58 1.738-.182 3.526-.618 5.11-1.338 1.624-.737 3.028-1.957 4.525-2.97 2.604-1.765 4.494-4.253 6.535-6.57 1.815-2.063 3.337-4.37 4.367-6.925.385-.956.375-2.092.443-3.152.128-1.996.132-4 .283-5.994.113-1.492 1.792-3.09 3.603-2.99.73.04 1.783.937 2.02 1.662.467 1.422.892 3.096.574 4.49-.902 3.96-2.083 7.87-3.352 11.732-1.246 3.796-1.944 7.64-1.57 11.616.208 2.238 1.05 4.32 2.287 6.21 1.3 1.98 3.365 2.038 5.192 1.38 1.958-.706 3.8-1.88 5.504-3.11 2.385-1.723 4.525-3.71 6.508-5.953 2.23-2.52 3.59-5.404 4.792-8.407.96-2.4 1.915-4.867 2.348-7.396.666-3.878 1.51-7.78.834-11.788-.623-3.7-1.164-7.417-1.654-11.138-.244-1.854-.34-3.73-.42-5.6-.087-1.957 1.448-4.347 3.24-4.858.63-.18 1.415.215 2.135.297 1.924.22 2.88 1.547 3.293 3.188.537 2.13.926 4.315 1.165 6.5.276 2.527.492 5.084.42 7.62-.09 3.152-.485 6.298-.784 9.442-.123 1.29-.28 2.583-.527 3.854-.282 1.456-.58 2.923-1.05 4.324-.725 2.165-1.634 4.268-2.406 6.418-.813 2.27-1.304 4.692-2.392 6.815-1.56 3.04-3.465 5.912-5.37 8.758-.51.76-1.52 1.224-2.36 1.72-2.624 1.55-5.23 3.146-7.937 4.542-3.034 1.565-6.158 3.02-9.744 2.414-.96-.16-1.937-.375-2.838-.734-2.656-1.06-5.55-1.652-7.7-3.75-1.383-1.348-2.58-2.783-2.427-4.916.036-.493-.13-1.03-.313-1.503-.35-.907-1.428-.916-2.34-.167-.814.667-1.65 1.424-2.61 1.77-2.082.746-4.214 1.46-6.386 1.816-3.963.653-7.846-.02-11.65-1.256-1.54-.5-3.13-.85-4.705-1.246-3.16-.797-5.867-2.53-8.513-4.298-2.73-1.823-5.316-3.924-7.164-6.686-1.702-2.543-3.528-5.057-4.27-8.123-.456-1.87-.932-3.736-1.398-5.605z"/><path id="email-envelope-baz-bottom-fill" fill="#D7FFFB" d="M128.506 133.8c-3.41.235-7.126.58-10.85.716-1.883.07-3.78-.314-5.672-.36-2.795-.066-5.594-.01-8.39-.014-2.187-.002-4.422-.303-6.547.056-2.612.44-5.068-.102-7.508-.603-3.622-.745-7.14-1.977-10.753-2.775-2.58-.57-4.456-2.27-6.63-3.5-3.857-2.18-6.797-5.45-10.138-8.25-2.814-2.358-4.513-5.33-6.283-8.338-.992-1.686-1.754-3.506-2.625-5.263-.506-1.022-1.06-2.023-1.52-3.064-.33-.746-.48-1.576-.823-2.314-.916-1.96-2.028-3.837-2.798-5.848-.525-1.373-.672-2.906-.87-4.384-.228-1.693-.393-3.402-.465-5.108-.194-4.527.04-9.06 1.056-13.462.748-3.244 1.86-6.45 3.94-9.18.746-.98 1.477-1.905 2.787-2.252 1.735-.46 3.004.205 3.556 1.94.893 2.808-.213 5.276-1.158 7.808-.854 2.288-1.902 4.57-2.298 6.948-.54 3.235-.817 6.572-.685 9.845.115 2.848.96 5.665 1.474 8.5.576 3.182 2.284 5.866 3.63 8.735 1.416 3.017 3.48 5.554 5.242 8.3 1.487 2.315 3.38 4.36 5.46 6.262 4.008 3.662 8.964 5.404 13.848 7.284 2.295.885 4.76 1.382 7.186 1.857 2.778.546 5.598.886 8.402 1.292 2.016.29 4.03.683 6.057.777 2.354.11 4.72-.083 7.083-.09 1.18 0 2.365.22 3.54.17 3.847-.17 7.69-.573 11.534-.586 3.584-.012 6.936-1.1 10.326-1.903 2.28-.54 4.704-.713 6.814-2.145 1.43-.97 3.382-1.14 4.942-1.966 1.786-.947 3.466-2.137 5.06-3.39 1.376-1.084 2.635-2.342 3.824-3.635 1.522-1.655 3.024-3.35 4.336-5.173.745-1.035 1.796-.244 2.533-.804.362.614.872 1.188 1.057 1.853.514 1.834-.675 3.327-1.16 4.966-.768 2.597-2.618 4.396-4.604 5.997-2.49 2.005-5.024 4.028-7.796 5.585-2.38 1.336-5.064 2.258-7.722 2.946-4.035 1.046-8.154 1.787-12.26 2.533-1.234.225-2.545.036-4.136.036z"/><path id="email-envelope-baz-top-fill" fill="#D7FFFB" d="M104.23 22.79c2.644.25 5.287.506 7.93.75 2.212.205 4.456.228 6.626.64 2.143.41 4.21 1.213 6.315 1.828 3.03.885 6.066 1.742 9.09 2.64 1.006.297 2.015.613 2.97 1.04 1.062.477 2.103 1.03 3.082 1.66 1.17.755 2.164 1.67 2.94 2.907.977 1.55 2.45 2.804 3.33 4.395.82 1.484 1.48 3.22 1.598 4.887.15 2.104-2.185 3.248-4.653 2.508-.695-.208-1.362-.565-1.985-.947-3.034-1.858-5.997-3.84-9.088-5.595-1.96-1.113-4.06-2.01-6.168-2.824-3.755-1.448-7.535-2.846-11.358-4.098-3.193-1.046-6.514-1.164-9.854-.786-1.345.152-2.702.204-4.05.325-1.754.157-3.55.147-5.248.55-2.59.615-5.278.925-7.63 2.44-.945.607-2.264.615-3.396.95-3 .89-5.658 2.447-8.012 4.458-2.073 1.77-3.98 3.736-5.97 5.604-1.166 1.093-2.344 2.173-3.532 3.24-1.296 1.166-2.825.987-4.222.412-.547-.225-1.058-1.14-1.136-1.793-.277-2.32.54-4.33 2.144-6.03 1.964-2.08 4.03-4.02 6.478-5.558 3.357-2.11 6.645-4.33 9.948-6.522 3.893-2.584 8.343-3.874 12.705-5.278 3.578-1.153 7.306-1.896 11.147-1.802z"/><path id="email-envelope-a-top-fill" fill="#D7FFFB" d="M124.887 61.698c0 .054.054.31-.01.53-.272.95-.213 2.11-1.464 2.486-1.034.31-2.354-.345-3.174-1.308-3.885-4.562-8.426-7.878-14.687-8.542-2.817-.3-5.536-.222-8.223.36-3.693.802-7.097 2.443-10.414 4.234-.97.523-1.937 1.062-2.84 1.686-1.128.777-2.375.915-3.652.775-1.834-.202-2.633-2.27-1.71-3.835 1.58-2.686 4.25-3.804 6.857-5 1.86-.852 3.78-1.608 5.737-2.188 1.733-.513 3.55-.752 5.34-1.062 1.794-.31 3.593-.604 5.4-.812.764-.088 1.556.1 2.334.09.92-.008 1.84-.14 2.755-.12.378.008.744.29 1.125.417 2.088.69 4.15 1.48 6.277 2.03 2.35.606 4.17 2.026 5.96 3.503 1.115.92 2.15 1.955 3.112 3.034.872.98 1.382 2.168 1.277 3.72z"/><path id="email-envelope-envelope-bottom-fill" fill="#22252E" d="M11.285 15.09c.873 1.083 1.72 2.02 2.435 3.044 2.494 3.57 5.896 6.192 9.17 8.955 1.236 1.042 2.4 2.167 3.62 3.232 1.432 1.253 2.868 2.504 4.336 3.714 2.424 2 4.844 4.005 7.324 5.934 3.585 2.788 7.217 5.514 10.837 8.255 2.86 2.165 5.753 4.284 8.59 6.477 3.533 2.73 6.95 5.62 10.554 8.252 3.838 2.803 7.794 5.45 11.78 8.04 2.97 1.93 6.004 3.777 9.128 5.44 2.523 1.342 5.185 2.453 7.856 3.48 1.966.755 4.02 1.38 6.09 1.73 1.15.192 2.438-.202 3.62-.5 1.678-.426 3.338-.942 4.963-1.536 2.99-1.09 5.885-2.408 8.56-4.146.994-.646 1.85-1.504 2.79-2.238.42-.328.885-.605 1.345-.88 4.08-2.433 7.873-5.275 11.635-8.16 3.124-2.396 6.25-4.79 9.333-7.238 2.504-1.987 4.98-4.012 7.406-6.095 2.935-2.52 5.83-5.09 8.683-7.706 1.118-1.025 2.057-2.245 3.11-3.346 1.443-1.51 2.89-3.02 4.384-4.48 1.43-1.4 2.92-2.74 4.388-4.1 2.66-2.47 5.37-4.883 7.967-7.416 2.492-2.43 4.887-4.962 7.28-7.492.726-.767 1.303-1.673 1.93-2.492 2.993 2.93 4.018 6.5 4.097 10.48.053 2.65.428 5.296.453 7.946.032 3.497-.094 6.998-.233 10.494-.17 4.322-.417 8.64-.645 12.96-.18 3.4-.356 6.8-.583 10.198-.18 2.655-.504 5.3-.635 7.958-.175 3.568-.215 7.144-.333 10.716-.126 3.825-.237 7.65-.426 11.475-.185 3.743-.53 7.48-.675 11.225-.1 2.626-.04 5.262.044 7.89.086 2.643.248 5.284.46 7.92.204 2.518.577 5.023.76 7.543.16 2.173.177 4.357.22 6.538.022 1.193-.263 2.443.005 3.568.384 1.614-.562 2.377-1.5 3.25-.32.298-.685.555-.97.88-2.938 3.354-6.873 3.69-10.947 3.69-3.003.002-6.006.11-9.01.153-3.077.045-6.155.018-9.23.112-3.41.105-6.814.408-10.222.44-2.006.02-4.014-.425-6.026-.47-3.626-.084-7.257-.075-10.884-.01-5.242.096-10.483.384-15.724.365-1.944-.007-3.872-.056-5.818.093-4.156.316-8.32.574-12.486.71-3.575.118-7.158.01-10.736.047-2.308.024-4.615.118-6.92.207-3.645.14-7.287.33-10.93.442-1.403.044-2.81-.1-4.213-.088-4.103.034-8.206.106-12.308.155-3.265.04-6.53.035-9.793.108-3.373.076-6.744.273-10.116.318-2.38.032-4.766-.175-7.147-.147-4.306.052-8.522-.552-12.718-1.438-1.612-.34-3.003-1.076-4.097-2.246-.45-.483-.626-1.3-.75-1.998-.22-1.224-.666-2.35-.355-3.74.376-1.69.068-3.522.124-5.29.047-1.488.26-2.974.278-4.463.03-2.5-.043-5-.06-7.502-.016-2.46.025-4.922-.04-7.382-.035-1.375-.25-2.745-.354-4.12-.112-1.483-.154-2.973-.287-4.454-.356-3.98-.764-7.957-1.115-11.938-.17-1.926-.265-3.858-.376-5.788-.13-2.233.354-4.446.263-6.673-.1-2.44-.372-4.872-.444-7.312-.052-1.73.145-3.464.162-5.196.03-3.178.01-6.355.014-9.533.004-2.556.05-5.11.017-7.667-.038-2.942-.273-5.89-.193-8.832.102-3.775.48-7.542.65-11.317.13-2.853-.04-5.727.21-8.567.31-3.51.44-7.106 2.425-10.434zm103.625 96.976c.003.01.085.225.15.444.768 2.582 2.053 4.736 4.705 5.8 2.84 1.138 5.672 2.302 8.51 3.445.18.07.39.07.588.083 2.82.17 5.54.202 8.308-.926 4.643-1.894 9.245-3.676 13-7.213 1.818-1.71 3.337-3.59 4.54-5.697 1.24-2.17 2.226-4.492 3.205-6.797.607-1.43 1-2.95 1.486-4.43.837-2.537 1.903-5.027 2.454-7.626.838-3.95 1.38-7.97 1.924-11.976.27-1.99.36-4.02.354-6.03-.007-2.1-.13-4.21-.38-6.292-.235-1.96-.79-3.88-1.047-5.837-.338-2.582-1.026-4.824-3.458-6.328-1.59-.984-3.29-1.412-4.916-.98-3.143.835-4.694 3.492-4.655 6.36.03 2.312.42 4.63.793 6.924.516 3.163 1.21 6.295 1.74 9.455.237 1.407.38 2.854.34 4.275-.046 1.507-.416 3-.55 4.508-.533 6.006-3.13 11.146-6.683 15.86-1.184 1.57-2.564 3.003-3.928 4.43-1.822 1.904-3.667 3.793-5.604 5.58-.637.587-1.565 1.11-2.402 1.183-2.332.2-4.933-2.54-4.825-4.916.02-.415.438-.844.385-1.227-.283-2.042.074-3.988.67-5.924.858-2.784 1.48-5.66 2.583-8.342 1.096-2.66 1.706-5.408 1.8-8.194.088-2.547-.654-5.07-1.81-7.397-.43-.863-2.804-1.92-3.755-1.73-2.515.506-3.94 2.353-4.836 4.466-.564 1.33-.416 2.955-.615 4.443-.265 1.98-.15 4.14-.935 5.894-1.11 2.48-2.75 4.77-4.438 6.927-1.14 1.457-2.696 2.61-4.167 3.773-1.082.854-2.526 1.31-3.45 2.285-1.326 1.396-2.822 2.116-4.66 2.484-3.306.662-6.562 1.06-9.855-.086-3.62-1.258-6.962-2.973-9.848-5.523-1.992-1.762-3.75-3.716-5.158-5.985-1.04-1.678-1.424-3.51-1.83-5.426-.582-2.742-1.692-5.348-.55-8.213.23-.574-.06-1.36-.134-2.047-.034-.312-.102-.626-.197-.925-.308-.972-.425-2.1-1.012-2.86-.626-.812-1.146-1.82-2.576-1.973-1.475-.155-2.564.08-3.54 1.126-.18.193-.432.318-.65.475-.473.343-1.126.588-1.38 1.05-.435.793-.588 1.733-.917 2.59-.414 1.077-1.066 2.096-1.29 3.205-.41 2.02-.625 4.085-.836 6.14-.25 2.412-.102 4.82.997 7.02 1.395 2.79 2.847 5.563 4.463 8.228.885 1.46 2.064 2.78 3.292 3.98 1.083 1.056 2.566 1.71 3.61 2.797 1.97 2.048 4.302 3.49 6.882 4.522 2.654 1.062 5.404 1.885 8.088 2.876 2.52.93 5.154 1.268 7.78 1.222 2.856-.05 5.758-.095 8.528-1.04 1.855-.632 3.717-1.242 5.717-1.91zm53.3.6c.032-1.594-.07-3.123-1.592-4.06-1.063-.65-2.222-1.22-3.524-.843-1.92.558-2.978 2.27-4.12 3.644-1.924 2.314-3.218 5.156-5.85 6.876-1.965 1.286-3.816 2.87-5.956 3.742-2.982 1.214-6.158 1.99-9.298 2.765-3.416.84-6.856 1.734-10.34 2.114-4.27.466-8.6.574-12.903.558-4.856-.02-9.713-.295-14.564-.563-2.373-.133-4.78-.288-7.085-.812-3.25-.738-6.4-1.908-9.63-2.75-4.002-1.042-7.436-3.14-10.757-5.48-2.707-1.91-4.752-4.407-6.647-7.118-2.467-3.53-4.98-7-6.9-10.88-1.968-3.98-3.02-8.154-3.068-12.576-.02-1.946.23-3.9.143-5.84-.198-4.364 1.153-8.345 2.798-12.268.997-2.377 1.74-4.783 1.19-7.4-.404-1.93-1.746-3.3-3.398-3.902-2.572-.938-4.826.358-6.304 2.363-1.598 2.166-2.93 4.6-3.512 7.29-.713 3.3-1.38 6.616-1.86 9.955-.338 2.372-.403 4.792-.45 7.193-.028 1.405.25 2.813.334 4.224.074 1.238-.21 2.573.16 3.704.668 2.036 1.685 3.96 2.598 5.912.404.864.97 1.653 1.358 2.523 1.81 4.067 3.45 8.217 5.425 12.2.92 1.855 2.337 3.52 3.76 5.055 1.603 1.73 3.46 3.225 5.217 4.81 1.016.918 1.975 1.927 3.096 2.696 2.878 1.975 5.788 3.91 8.768 5.724 2.634 1.604 5.417 2.94 8.49 3.52 1.77.332 3.443 1.015 5.353.806 1.264-.14 2.593.535 3.903.594 3.39.15 6.786.218 10.18.216 3.763-.003 7.526-.128 11.29-.186 1.6-.024 3.212.1 4.8-.048 1.737-.162 3.414-.62 5.217-.524 2.105.11 4.233-.2 6.35-.336 2.05-.132 4.12-.14 6.144-.448 2.213-.336 4.376-.99 6.576-1.438 2.77-.563 5.458-1.404 7.94-2.73 2.54-1.357 4.977-2.913 7.423-4.44.9-.562 1.875-1.15 2.504-1.968 1.506-1.954 3.56-3.392 4.73-5.71 1.005-2.005 1.754-3.97 2.013-6.167z"/><path id="email-envelope-envelope-top-fill" fill="#22252E" d="M189.284 12.335c-.694.498-1.326.844-1.823 1.328-1.49 1.452-2.89 2.998-4.396 4.432-1.743 1.658-3.625 3.173-5.33 4.867-1.43 1.418-2.655 3.04-4.04 4.503-1.357 1.436-2.814 2.777-4.206 4.18-1.32 1.333-2.607 2.696-3.916 4.038-.444.456-.91.89-1.37 1.332-1.693 1.636-3.366 3.296-5.09 4.9-1.21 1.125-2.513 2.15-3.736 3.262-2.367 2.15-4.634 4.418-7.082 6.47-1.916 1.607-4.07 2.927-6.07 4.44-3.03 2.29-6.008 4.654-9.032 6.956-1.844 1.403-3.714 2.774-5.605 4.113-2.96 2.095-5.826 4.355-8.952 6.165-3.47 2.01-7.096 3.835-10.833 5.278-2.5.966-5.276 1.425-8.018.247-2.788-1.197-5.676-2.16-8.447-3.392-1.277-.567-2.33-1.62-3.573-2.29-2.378-1.28-4.88-2.337-7.213-3.69-1.716-.996-3.23-2.34-4.863-3.486-1.978-1.388-4.024-2.68-5.974-4.105-2.13-1.558-4.195-3.202-6.262-4.843-2.06-1.638-4.073-3.338-6.137-4.973-2.81-2.228-5.64-4.432-8.485-6.618-.576-.444-1.31-.69-1.867-1.15-.635-.527-1.1-1.262-1.738-1.787-2.095-1.723-4.238-3.387-6.356-5.083-.923-.74-1.764-1.602-2.756-2.23-1.648-1.04-2.845-2.59-4.43-3.7-1.643-1.15-3.276-2.334-4.795-3.642-1.453-1.25-2.77-2.662-4.117-4.03-2.977-3.024-5.938-6.063-8.9-9.102-1-1.026-.807-1.8.214-2.684 1.854-1.604 4.093-1.384 6.236-1.52 2.27-.145 4.556-.035 6.834-.07 3.464-.057 6.928-.237 10.39-.193 4.258.053 8.514.384 12.772.412 4.457.028 8.916-.13 13.373-.264 3.48-.106 6.958-.306 10.437-.457 4.765-.207 9.53-.49 14.296-.583 3.138-.062 6.28.177 9.423.235 3.85.072 7.698.126 11.548.136 5.237.013 10.474-.048 15.71-.027 2.298.01 4.597.236 6.892.2 4.014-.065 8.025-.324 12.04-.373 3.263-.04 6.53.165 9.794.162 3.48-.004 6.96-.18 10.44-.168 1.634.006 3.266.344 4.903.415 1.687.074 3.38.025 5.072-.005 2.188-.04 4.375-.125 6.563-.155.333-.004.663.202 1.002.28.374.086.795.273 1.126.177 1.81-.522 3.293.095 4.69 1.17.33.256.733.414 1.66.92zM150.08 43.37c-.032-.313-.03-.59-.093-.853-.767-3.184-1.97-6.184-4.01-8.77-2.056-2.61-4.84-4.338-7.787-5.707-2.275-1.057-4.697-1.823-7.1-2.57-5.483-1.71-10.98-3.418-16.735-3.963-5.378-.51-10.773-1.135-16.157-.17-2.562.46-5.134 1.007-7.598 1.83-3.162 1.053-6.247 2.357-9.31 3.682-1.762.762-3.466 1.696-5.102 2.706-1.48.915-2.765 2.144-4.25 3.047-3.423 2.082-6.515 4.556-9.013 7.677-1.668 2.084-3.553 4.075-3.143 7.22.345 2.643.892 3.54 3.41 4.593 2.125.888 3.908.395 5.57-.906 2.686-2.102 5.307-4.285 7.978-6.406 1.806-1.434 3.535-3.015 5.506-4.18 2.2-1.298 4.56-2.42 6.983-3.223 4.023-1.335 8.22-2 12.45-2.357 2.425-.204 4.848-.468 7.277-.555 1.64-.06 3.295.102 4.938.237 3.806.312 7.288 1.793 10.533 3.59 3.04 1.684 6.208 3.082 9.25 4.735 2.142 1.164 4.22 2.44 6.363 3.6 2.1 1.135 4.284 2.052 6.737 1.28 1.513-.476 2.835-1.227 3.072-3.037.068-.51.156-1.02.23-1.5zm-23.07 19.507l.14-.043c-.31-1.3-.742-2.586-.898-3.905-.188-1.582-.98-2.665-2.22-3.535-.48-.337-.977-.68-1.366-1.11-3.377-3.75-7.957-5.287-12.55-6.7-2.84-.876-5.818-1.044-8.783-.56-2.543.414-5.098.796-7.605 1.373-1.882.433-3.715 1.106-5.542 1.754-3.334 1.182-6.654 2.35-9.342 4.86-1.35 1.26-2.317 2.71-3.05 4.324-.59 1.293.176 3.318 1.466 3.986.887.46 1.93.606 2.854 1.006 1.21.523 2.158.21 3.006-.692.052-.057.12-.102.188-.14 2.378-1.283 4.755-2.568 7.137-3.845.2-.106.432-.167.655-.223 2.96-.747 5.89-1.667 8.892-2.186 3.73-.644 7.48-.574 10.997 1.152 3.614 1.774 6.347 4.65 9.163 7.417 1.387 1.362 2.935 1.82 4.834 1.102 1.166-.44 1.57-1.36 1.863-2.387.15-.52.112-1.096.16-1.648z"/></g></svg>