<svg id="hello-i-am-aurelien" xmlns="http://www.w3.org/2000/svg" viewBox="0 0 666.546 260.941"><linearGradient id="hello-i-am-aurelien-aurelien_1_" gradientUnits="userSpaceOnUse" x1="549.734" y1="429.619" x2="867.934" y2="429.619" gradientTransform="translate(-202 -333.059)"><stop offset="0" stop-color="#A982F7"/><stop offset=".492" stop-color="#F8CEFC"/><stop offset="1" stop-color="#A982F7"/></linearGradient><path id="hello-i-am-aurelien-aurelien" fill="url(#hello-i-am-aurelien-aurelien_1_)" stroke="#8790DD" stroke-miterlimit="10" d="M665.873 114.303c-.234-2.096-.553-4.185-.676-6.284-.096-1.63-.547-3.147-1.29-4.526-1.183-2.193-2.405-4.363-4.212-6.17-1.393-1.394-2.906-2.53-4.658-3.4-1.338-.66-2.627-1.422-3.965-2.08-.555-.272-1.174-.442-1.78-.568-.62-.128-1.263-.153-1.897-.204-.47-.038-.945-.1-1.408-.053-1.934.187-3.662 1.045-5.455 1.69-1.688.605-2.947 1.81-3.955 3.175-1.06 1.434-1.887 3.05-2.688 4.647-.94 1.875-1.298 3.91-1.243 6.008.01.27.025.56.125.807.41 1.03.82 2.064 1.293 3.068.72 1.524 1.97 2.576 3.553 2.938 2.014.46 4.11.604 6.168.186 1.178-.242 2.24-.887 2.99-1.83.658-.828 1.168-1.79 1.678-2.727.916-1.688.924-3.4-.016-5.096-.113-.208-.26-.405-.346-.625-.543-1.416-1.594-2.104-3.076-2.263-.8-.086-1.488.16-1.855.803-.67 1.174-1.185 2.4-.837 3.855.188.79.145 1.654.098 2.48-.046.73-.378.987-1.106.903-.588-.065-1.203-.18-1.73-.436-.798-.39-1.485-.96-1.51-1.97-.028-1.104-.007-2.21-.036-3.314-.023-.89 0-1.78.494-2.544.994-1.538 2.004-3.063 3.932-3.627.81-.24 1.576-.414 2.44-.285 1.757.263 3.288 1.076 4.88 1.783 1.408.625 2.44 1.626 3.242 2.878 1.168 1.833 2.354 3.664 3.346 5.593.752 1.468 1.27 3.067 1.777 4.647.65 2.057.91 4.19.99 6.353.077 1.98.163 3.942-.31 5.91-.594 2.46-1.746 4.652-2.98 6.818-.69 1.216-1.645 2.22-2.717 3.11-.635.53-1.42.877-2.16.58-1.64-.66-3.104-1.616-4.076-3.17-.148-.236-.34-.447-.492-.68-.646-.965-1.432-1.843-1.605-3.073-.062-.44-.396-.846-.604-1.27-.43-.876-.947-1.725-1.264-2.642-.707-2.065-1.572-4.065-2.63-5.962-.534-.957-1.48-1.687-2.267-2.5-.123-.128-.367-.13-.545-.213-1.637-.765-3.416-.81-5.152-.87-1.824-.064-3.688-.012-5.48.297-1.437.247-2.997.35-4.18 1.484-.593.57-1.007.518-1.513-.15-.76-1.002-1.795-1.496-2.936-1.892-1.917-.665-3.825-1.352-5.907-1.014-1.53.246-3.088.404-4.19 1.734-.282.345-.735.548-1.155.847-.588-.627-1.068-1.21-1.62-1.717-.558-.508-.995-1.15-1.976-1.06-.645.06-1.37-.208-1.988-.485-.55-.243-1.027-.405-1.64-.296-.813.147-1.665.323-2.474.238-1.66-.175-3.14.5-4.627.95-1.127.34-2.105 1.205-3.115 1.885-2.1 1.414-3.6 3.323-4.504 5.686-.51 1.334-.982 2.685-1.523 4.17-1 .022-2.067.116-3.13.045-.588-.04-1.13-.44-1.256-1.08-.43-2.19-.617-4.365.408-6.472.227-.463.34-.98.525-1.462.113-.295.2-.64.41-.85.9-.905 1.172-2.03 1.254-3.24.052-.755-.247-1.275-.933-1.447-.615-.152-1.246-.28-1.877-.332-1.996-.16-3.98-.155-5.973.225-1.348.256-2.02 1.332-2.127 2.346-.11 1.016-.023 2.09.188 3.093.26 1.22.428 2.418.21 3.645-.157.886-.388 1.758-.62 2.783-1.69-.794-3.055-1.744-4.047-3.103-.837-1.144-1.5-2.414-2.25-3.623-.23-.372-.52-.708-.73-1.09-.36-.668-.26-.873.283-1.44.656-.68 1.326-1.37 1.846-2.15 1.103-1.67 2.126-3.395 3.15-5.11.446-.746.853-1.52 1.216-2.31.324-.704.484-1.492.863-2.16.565-1 1.36-1.88 1.442-3.104 1.266-1.488 1.545-3.45 2.445-5.118.412-.765.77-1.575 1.023-2.404.486-1.577.914-3.174 1.3-4.778.18-.727.056-1.55.323-2.226.582-1.463.35-3 .53-4.487.282-2.31-.497-4.557-.925-6.815-.027-.153-.096-.31-.174-.444-.938-1.59-1.36-3.436-2.695-4.854-.855-.904-1.798-1.728-2.788-2.35-1.14-.714-2.605-1.023-4.008-.796-2.29.37-4.422 1.132-5.98 2.998-.127.15-.252.32-.412.43-1.436.952-2.14 2.49-3.033 3.857-.522.792-.767 1.757-1.255 2.57-.785 1.316-1.39 2.7-2 4.105-.615 1.427-1.088 2.9-1.686 4.326-.985 2.348-1.44 4.847-1.483 7.332-.043 2.41-.55 4.82-.145 7.24.037.227-.066.472-.055.704.084 1.626.088 3.265.3 4.873.245 1.84.726 3.645 1.017 5.48.29 1.813.74 3.575 1.566 5.21.406.808.588 1.432-.25 2.082-.316.246-.424.75-.656 1.115-.314.497-.6 1.042-1.008 1.453-2.225 2.24-4.523 4.388-7.242 6.057-2.436 1.497-4.973 2.684-7.795 3.226-1.278.245-2.526.098-3.753-.247-.65-.183-1.143-.643-1.535-1.118.95-1.01 2.14-1.276 3.314-1.505 1.533-.296 2.992-.765 4.352-1.532 1.646-.934 3.045-2.098 3.674-3.974.395-1.166.73-2.354 1.217-3.48.362-.85.224-1.646.024-2.442-.168-.684-.48-1.334-.756-1.99-.613-1.443-1.672-2.427-3.076-3.133-1.3-.652-2.678-.952-4.06-1.307-3.017-.772-5.82-.373-8.48 1.227-.34.205-.71.374-1.084.503-1.273.443-2.23 1.357-3.22 2.208-.862.743-1.34 1.772-1.878 2.748-.756 1.37-1.38 2.796-1.627 4.345-.205 1.292-.252 2.574.092 3.894.28 1.083.992 1.773 1.77 2.586-1.487.966-2.942 1.77-4.616 2.22-1.933.52-3.847 1.02-5.85.66-.606-.106-1.237-.346-1.74-.697-.335-.234-.46-.77-.683-1.176.332-.176.664-.354.998-.527.107-.055.22-.114.332-.133 1.748-.253 2.865-1.382 3.867-2.713 1.805-2.394 2.71-5.052 2.834-8.067.104-2.57-.555-4.816-2.186-6.756-.904-1.074-1.953-2.03-2.957-3.02-.158-.158-.42-.218-.645-.305-.37-.147-.752-.263-1.12-.414-1.618-.673-3.28-1.113-5.052-1.006-1.258.076-2.52.112-3.77.247-1.933.206-3.858.38-5.554 1.558-.95.66-1.738 1.436-2.2 2.437-.68 1.472-1.146 3.038-1.763 4.54-.49 1.196-.57 2.427-.565 3.695.006 1.984-.117 3.97-.072 5.953.03 1.372-.346 2.613-.996 3.75-.52.9-1.283 1.623-2.512 1.368-.354-.073-.72-.068-1.068-.146-.86-.19-1.555-.602-1.838-1.51-.263-.835-.548-1.663-.804-2.5-.52-1.696-1.084-3.382-1.518-5.1-.562-2.24-.457-4.486.246-6.698.133-.417.197-.855.28-1.287.124-.652.302-1.305.325-1.962.01-.284-.247-.714-.5-.842-.56-.28-1.183-.514-1.794-.58-1.654-.186-3.318-.375-4.98-.362-1.17.01-2.55-.103-3.11 1.446.438 1.097.68 2.247.593 3.46-.038.55.015 1.108.058 1.663.215 2.82.23 5.622-.805 8.33-.473 1.23-.89 2.502-1.953 3.354-.887.71-1.88 1.294-2.812 1.948-1.81 1.267-5.262-.02-5.553-2.267-.035-.27-.223-.516-.285-.783-.383-1.664-.79-3.323-1.11-5-.198-1.05-.43-2.137-.353-3.186.164-2.256.525-4.498.787-6.747.152-1.307-.004-2.536-1.04-3.585-1.282.077-2.577.186-3.874.226-1.223.038-2.307.458-3.336 1.063-.63.373-.82.807-.645 1.487.106.424.296.83.376 1.26.736 3.924.785 7.815-.533 11.653-.676 1.963-1.713 3.662-3.45 4.827-.905.604-1.872 1.195-2.896 1.52-1.455.464-3.027.396-3.936-1.437-.49-.99-.9-2.02-1.272-3.062-.533-1.49-1.027-3-1.486-4.516-.217-.72-.29-1.48-.47-2.21-.626-2.516-1.298-5.02-1.9-7.535-.724-3.02-.968-6.137-1.892-9.115-.236-.76-.438-1.536-.6-2.313-.48-2.297-1.47-4.475-1.576-6.86-.02-.546-.18-1.11-.39-1.62-1.144-2.793-1.517-5.764-2.046-8.7-.2-1.096-.248-2.224-.502-3.305-.543-2.325-1.188-4.626-1.766-6.943-.387-1.54-.705-3.095-1.105-4.63-.527-2.038-1.127-4.056-1.654-6.093-.354-1.38-.59-2.797-.972-4.17-.348-1.245-.197-2.33.574-3.378.62-.844 1.143-1.757 1.777-2.75-.46-.39-.806-.77-1.23-1.024-1.512-.9-3.223-1.16-4.926-1.173-2.422-.02-4.85.066-7.263.26-1.816.148-3.617.556-5.432.813-.877.125-1.576.47-2.05 1.252-.223.368-.517.692-.823 1.096.254.378.455.77.74 1.088.31.347.69.623 1.12.998-.17 1.444-.344 2.938-.522 4.434-.266 2.174-.508 4.352-.81 6.52-.23 1.653-.57 3.29-.804 4.944-.123.865-.052 1.762-.194 2.623-.25 1.494-.603 2.97-.904 4.455-.125.606-.407 1.25-.31 1.822.153.868-.017 1.654-.16 2.476-.187 1.05-.33 2.105-.493 3.16-.147.94-.273 1.886-.45 2.82-.115.618-.332 1.22-.447 1.837-.16.86-.255 1.732-.402 2.597-.206 1.21-.514 2.404-.647 3.622-.33 2.96-.975 5.885-1.04 8.877-.005.194-.065.393-.1.59-.32 1.877-.645 3.755-.958 5.635-.435 2.584-.882 5.167-1.277 7.757-.27 1.77-.327 3.586-.737 5.32-.594 2.52-1.253 5.048-2.193 7.45-.994 2.535-2.297 4.956-3.572 7.37-.727 1.377-1.84 2.483-3.105 3.41-2.027 1.484-4.177 2.7-6.557 3.61-2.098.8-4.178 1.484-6.41 1.67-1.48.125-2.952.066-4.33-.484-1.948-.78-3.88-1.617-5.766-2.538-1.713-.836-3.448-1.683-5.004-2.77-2.144-1.497-3.396-3.79-4.52-6.076-.996-2.02-1.768-4.156-2.13-6.415-.267-1.653-.45-3.323-.272-4.98.272-2.556 1.304-4.833 3.036-6.745 1.88-2.073 4.113-3.62 6.932-4.07 1.428-.228 2.882-.11 3.88 1.155 1.446 1.835 2.64 3.762 1.417 6.222-.053.106-.094.222-.13.333-.64 2.16-2.878 3.25-4.96 2.41-1.002-.4-1.176-1.163-.48-1.974.53-.615 1.215-.657 1.95-.66 1.07-.006 1.32-.21 1.663-1.165.51-1.424-.012-2.633-.8-3.774-.128-.185-.362-.314-.572-.423-2.128-1.087-5.4.406-6.015 2.715-.32 1.208-.344 2.438-.41 3.674-.064 1.137.27 2.16.89 3.026.896 1.254 1.936 2.414 2.975 3.562.27.298.74.48 1.152.568 1.587.34 3.146.004 4.7-.305.457-.092.938-.22 1.333-.46 1.924-1.16 3.29-2.817 4.273-4.832 1.312-2.683.766-5.428.346-8.166-.267-1.732-1.32-3.13-2.153-4.612-.218-.39-.648-.67-1.01-.965-.3-.244-.652-.418-.958-.653-.564-.437-1.098-.917-1.672-1.34-1.39-1.02-3.057-1.318-4.688-1.646-.592-.12-1.438-.12-1.835.217-.572.486-1.197.544-1.816.73-.487.147-1.024.15-1.495.336-2.438.947-4.215 2.752-5.903 4.654-.073.083-.065.23-.127.332-.28.475-.556.95-.864 1.406-.377.56-.83 1.073-1.174 1.65-.692 1.16-1.366 2.336-1.98 3.54-.315.62-.603 1.3-.702 1.98-.147 1.02-.137 2.067-.162 3.104-.02.713.033 1.43.012 2.142-.02.672-.17 1.346-.14 2.013.055 1.27.252 2.532.286 3.803.058 2.007.617 3.818 1.74 5.487.95 1.413 1.812 2.888 2.74 4.313.908 1.394 1.703 2.904 2.823 4.104 1.358 1.46 2.57 3.13 4.4 4.104.208.11.38.292.56.45 1.188 1.06 2.604 1.756 4.107 2.105 2.27.53 4.582.925 6.896 1.217 1.73.22 3.493.23 5.24.25 2.228.02 4.446.014 6.68-.206 2.187-.215 4.203-.81 6.103-1.818.825-.44 1.478-1.19 2.262-1.727 2.172-1.485 3.54-3.71 5.17-5.673 1.485-1.787 2.343-4.02 3.774-5.87.29-.376.494-.814.748-1.22 1.496-2.383 2.117-5.135 3.252-7.67.567-1.277.775-2.648 1.08-4.008.532-2.39 1.438-4.692 2.17-7.036.51-1.63 1.096-3.25 1.447-4.916.38-1.784.5-3.622.777-5.43.124-.81.193-1.688.568-2.386.604-1.122 1.64-1.806 2.957-1.982 1.735-.235 3.47-.487 5.2-.763 1.1-.176 2.132.067 3.153.41.895.3 1.43.947 1.705 1.844.213.685.455 1.357.71 2.026.485 1.292.907 2.602 1.185 3.956.164.812.36 1.615.594 2.408.41 1.4 1.02 2.753.916 4.27-.02.306.137.618.205.93.27 1.195.537 2.392.807 3.587.076.336.18.668.238 1.007.342 1.932 1.662 3.52 1.922 5.49.055.41.318.826.58 1.168.695.915 1.443 1.788 2.166 2.682.396.49.736 1.034 1.178 1.48 1.107 1.105 2.248 2.18 3.396 3.245.197.182.48.315.74.374 1.504.33 3.008.86 4.52.896 3.034.066 6.09.27 9.015-1.114 1.305-.616 2.547-1.264 3.69-2.115.27-.2.452-.533.647-.825.445-.672.88-1.355 1.35-2.08 3.344 4.334 7.697 5.754 12.03 5.174 4.954-.665 7.94-3.758 9.933-8.05.113.056.164.062.176.09.108.212.22.424.308.645.69 1.733 1.848 3.114 3.203 4.365.917.846 2.015 1.365 3.07 1.982 1.73 1.01 3.505 1.73 5.528 1.516 1.363-.145 2.613-.654 3.543-1.718.897-1.03 1.5-2.224 1.76-3.576.036-.187.04-.396.134-.55.578-.94.723-1.992.852-3.05.066-.536.135-1.07.213-1.69 1.24.256 2.12.848 2.89 1.583.83.794 1.402 1.82 2.127 2.682.98 1.158 1.996 2.28 2.936 3.486 1.277 1.646 3.02 2.65 5.064 3.06 2.418.48 4.832.397 7.2-.303.903-.268 1.796-.635 2.632-1.072 1.284-.677 2.517-1.452 3.735-2.167 1.143.674 2.174 1.478 3.344 1.93 1.854.72 3.794 1.246 5.81 1.316 1.675.06 3.355-.022 5.024.06 2.146.105 4.238-.21 6.25-.853 2.73-.874 5.113-2.404 7.242-4.32.385-.346.705-.762 1.1-1.094 1.105-.935 2.027-2.01 2.664-3.316.188-.38.346-.772.81-1.02.89 1.447 2.187 2.365 3.51 3.252 2.046 1.373 4.32 2.174 6.733 2.603.512.09 1.025.14 1.543.216.516.075.805.314.98.87.278.87.04 1.667-.16 2.46-.448 1.786-.605 3.58-.36 5.403.025.215.162.507.334.597.86.45 1.588 1.136 2.646 1.255 1.64.186 3.29.094 4.914.585.73.223 1.75.06 2.32-.6.697-.803 1.1-1.757.896-2.943-.19-1.122-.197-2.29-.164-3.433.035-1.346.48-1.888 1.754-2.177 1.438-.326 2.895-.555 4.396-.833.11.508.15 1.02.34 1.474.537 1.282 1.166 2.527 1.7 3.81.49 1.168 1.483 1.888 2.43 2.544 1.097.762 2.384 1.256 3.608 1.814 1.318.603 2.71.998 4.168.88 1.895-.155 3.824-.12 5.65-.743 1.08-.368 2.186-.74 3.15-1.32.752-.452 1.406-1.157 1.924-1.878.617-.865.566-1.827.312-2.927-.354-1.503-1.27-2.07-2.635-2.525-.788 1.52-2.147 2.13-3.647 2.51-.04.01-.07.043-.107.052-1.262.284-2.508.85-3.824.43-1.055-.34-2.14-.68-3.088-1.23-1.59-.928-2.367-2.35-1.688-4.07.074-.02.162-.072.223-.053.41.14.827.27 1.218.45 3.182 1.476 5.89.192 8.484-1.508 1.68-1.104 2.613-2.883 3.54-4.574 1.07-1.953 2.75-2.91 4.753-3.45 1.094-.296 2.215.23 2.762 1.153.242.408.477.84.604 1.293.636 2.227 1.056 4.477 1.022 6.816-.03 1.912.145 3.826.232 5.74.01.158-.002.334.062.472.305.644.268 1.288.19 1.98-.114 1.043.288 1.557 1.28 2.04.678.327 1.326.706 1.885 1.007.35-.16.62-.325.915-.41.344-.096.713-.1 1.06-.182.933-.222 1.61-.934 1.624-1.824.01-.707-.12-1.416-.2-2.123-.04-.34-.158-.68-.15-1.017.064-3.104.773-6.066 2.094-8.872.297-.63.68-1.278 1.184-1.745 1.326-1.23 2.975-1.204 4.61-.87 1.605.328 2.57 1.46 3.194 2.892.62 1.417 1.19 2.856 1.766 4.29.117.294.19.61.252.922.396 2.077 1.145 4.023 2.16 5.88.242.45.49.954.527 1.448.062.812.49 1.373.88 2.024.333.555.892.623 1.288.984 1.086.978 2.572.856 3.852 1.32.06.022.146-.046.23-.056 1.57-.2 3.132-.4 4.665-.86 1.908-.574 3.594-1.397 4.855-3.01.557-.713 1.305-1.272 1.938-1.932 1.537-1.604 3.023-3.243 3.943-5.312.61-1.374 1.29-2.72 1.918-4.087.33-.72.72-1.433.896-2.19.436-1.852.848-3.716 1.104-5.596.248-1.812.293-3.65.418-5.48.023-.143-.034-.303-.05-.46zm-243.995-26.68c0 .66-.533 1.07-1.15 1.39-2.396 1.232-4.986 2.182-7.72 2.235-.472.01-1.013-.08-1.476-.187-1.29-.294-1.984-1.172-1.8-2.496.213-1.53.522-3.043.802-4.563.385-2.105.797-4.207 1.13-6.323.44-2.8 1.17-5.52 2.065-8.2.375-1.125.718-2.27 1.187-3.354.437-1.005 1.9-1.17 2.65-.365.604.646 1.07 1.346 1.266 2.256.322 1.514.844 2.984 1.146 4.503.38 1.896.91 3.816 1.157 5.736.225 1.73-.264 3.478.736 5.122.005 1.48.005 2.865.005 4.248zm86.405 24.767c-.73 1.443-1.73 2.596-3.28 3.25-1.08.457-2.103 1.035-3.294 1.22-1.435.22-2.413-.455-2.577-1.91-.154-1.38-.27-2.767-.354-4.154-.02-.27.165-.606.354-.82.635-.705 1.486-1.038 2.402-1.188.467-.076.95-.056 1.428-.08 1.727-.092 3.312.252 4.707 1.345.902.702 1.117 1.335.613 2.337zm21.435 4.91c-.34-.433-.338-.968-.02-1.452.63-.958 1.22-1.947 1.926-2.847.22-.277.752-.33 1.15-.453.486-.15.986-.27 1.45-.395.722.144 1.468.306 1.726.988.27.71.54 1.497.02 2.272-.742 1.113-1.836 1.667-3.062 2.02-.535.15-1.1.23-1.62.42-.697.25-1.19-.07-1.57-.55zm29.776-9.833c-.557-.435-.78-1.05-.846-1.64-.523-4.653-.31-9.278.643-13.87.29-1.398.407-2.846.804-4.213.71-2.438 1.46-4.877 2.4-7.233.79-1.978 1.797-3.876 3.24-5.514.77-.874 1.693-1.244 2.855-1.42.437 1.1.567 2.11.485 3.155-.014.16-.027.32-.004.478.366 2.52-.17 4.962-.655 7.408-.23 1.17-.395 2.36-.72 3.502-.54 1.905-1.12 3.804-1.808 5.662-.918 2.498-1.885 4.982-2.955 7.418-.946 2.163-1.99 4.296-3.438 6.27zm40.984 14.075c-.242.606-.572 1.185-1.133 1.472-1.102.563-2.277.973-3.547.894-.28-.017-.576-.21-.81-.394-.276-.22-.5-.507-.73-.778-.95-1.124-.698-2.26.675-2.873 1.53-.686 3.07-.818 4.666.204l.446-.66c.035.033.11.07.115.113.02.312-.06.662.06.928.158.358.446.634.258 1.094z"/><linearGradient id="hello-i-am-aurelien-h_1_" gradientUnits="userSpaceOnUse" x1="201.998" y1="498.41" x2="326.438" y2="498.41" gradientTransform="translate(-202 -333.059)"><stop offset="0" stop-color="#A982F7"/><stop offset=".492" stop-color="#F8CEFC"/><stop offset="1" stop-color="#A982F7"/></linearGradient><path id="hello-i-am-aurelien-h" fill="url(#hello-i-am-aurelien-h_1_)" stroke="#8790DD" stroke-miterlimit="10" d="M85.02 210.115c-.362-.164-.758-.25-1.128-.396-1.045-.413-1.883-1.016-2.383-2.105-1.49-3.25-3.088-6.444-4.398-9.78-.697-1.772-1.555-3.48-2.015-5.35-.642-2.605-1.833-5.007-3.017-7.386-1.3-2.615-1.994-5.448-3.195-8.1-1.083-2.388-1.91-4.893-2.833-7.353-.627-1.672-1.257-3.344-1.826-5.035-.57-1.695-1.113-3.402-1.574-5.13-.295-1.107-.424-2.26-.62-3.395-.046-.27-.003-.567-.094-.82-.306-.853-.704-1.677-.97-2.538-.33-1.063-.713-2.14-.803-3.23-.157-1.913-.65-3.745-1.028-5.605-.634-3.11-1.383-6.2-1.23-9.42.126-2.698.102-5.403.228-8.104.14-2.972 1.025-5.797 1.915-8.61.444-1.402.886-2.813 1.442-4.177.585-1.43 1.305-2.808 1.97-4.206.665-1.393 1.305-2.798 2.01-4.17.836-1.628 1.808-3.188 2.582-4.845 1.054-2.254 2.557-4.218 3.848-6.318 1.124-1.827 2.862-3.084 4.353-4.567.7-.698 1.4-1.4 2.126-2.07 1.084-1.002 2.164-2.008 3.295-2.953.632-.528 1.37-.928 2.05-1.4.987-.69 2.083-1.127 3.22-1.514 1.405-.48 2.775-1.07 4.354-.97l-.05-.706c.65-.203 1.283-.438 1.934-.6 2.948-.74 5.964-1.015 8.985-1.187 1.905-.108 3.82-.103 5.73-.057 1.854.044 3.63.518 5.218 1.484.872.532 1.572 1.354 2.456 1.856.792.453 1.276 1.12 1.622 1.85 2.268 4.797 1.84 9.396-1.2 13.735-.5.712-1.057 1.4-1.684 2-.57.546-1.26.976-1.92 1.42-2.008 1.355-3.93 2.79-6.612 2.64-1.246-.067-2.187-.31-3.105-1.163-.958-.888-1.18-1.965-1.17-3.127.016-2.193.87-4.018 2.688-5.31.253-.18.77-.328.946-.197.265.197.45.65.462 1 .01.31-.254.63-.415.937-.218.417-.456.82-.68 1.234-.294.538-.006 1.034.374 1.235.574.304 1.268.547 1.903.533 1.382-.032 2.51-.715 3.277-1.868 1.09-1.64.91-3.333-.05-4.946-.788-1.328-2.14-2.027-3.5-2.575-2.02-.813-4.068-.28-6.082.196-.21.05-.403.25-.568.416-.67.677-1.266 1.44-1.998 2.038-1.693 1.384-2.205 3.294-2.33 5.297-.114 1.863.382 3.68 1.08 5.415.13.324.26.673.482.933.986 1.142 2.076 2.18 3.426 2.884.768.397 1.71.567 2.333 1.116.81.71 1.753.865 2.687 1.128.674.188 1.38.36 2.072.36 1.002-.002 2.005-.25 3.005-.236 1.164.016 2.2-.247 3.156-.895.23-.154.49-.29.754-.354 1.328-.33 2.345-1.184 3.297-2.065 2.518-2.338 4.358-5.166 5.64-8.345.353-.88.667-1.818.768-2.755.25-2.335.29-4.672.026-7.03-.422-3.795-2.188-6.85-4.904-9.375-1.32-1.23-2.834-2.264-4.327-3.29-1.47-1.008-2.99-1.952-4.548-2.815-1.503-.832-3.14-1.335-4.87-1.457-.512-.034-1.025-.025-1.538-.042-1.432-.042-2.866-.153-4.295-.107-1.55.05-3.102.214-4.56.826-.844.354-1.678.73-2.527 1.07-1.21.49-2.424.978-3.65 1.43-1.535.564-2.922 1.356-4.23 2.354-.788.6-1.578 1.354-2.71 1.32-.104-.004-.222.09-.315.162-1.163.89-2.345 1.758-3.478 2.685-1.746 1.43-3.377 3.013-5.204 4.324-2.412 1.732-3.985 4.177-5.848 6.377-.738.872-1.29 1.9-1.985 2.81-1.525 1.995-2.745 4.178-3.966 6.358-.66 1.177-1.328 2.35-1.96 3.54-.93 1.754-1.766 3.56-2.762 5.273-1.073 1.845-1.468 4.054-3.04 5.627-.078.076-.11.21-.14.323-.82 3.03-1.642 6.062-2.455 9.095-.174.646-.322 1.302-.472 1.955-.32 1.39-.742 2.767-.924 4.175-.264 2.045-.444 4.103-.58 6.167-.234 3.51-.07 6.973.343 10.443.215 1.812.357 3.638.638 5.438.195 1.247.52 2.48.875 3.69.344 1.18.89 2.3 1.186 3.484.63 2.52 1.737 4.847 2.813 7.185.765 1.656 1.708 3.233 2.5 4.884.548 1.146.984 2.346 1.453 3.526.892 2.254 1.75 4.52 2.663 6.765.497 1.225-.02 2.085-.916 2.81-1.28 1.03-2.678 1.87-4.222 2.46-1.446.553-2.885 1.125-4.326 1.69-.882.344-1.754.717-2.647 1.03-1.012.353-2.1.54-3.05 1.008-1.848.902-3.77 1.178-5.787 1.102-1.992-.075-3.588-.96-4.547-2.63-.986-1.716-1.728-3.58-2.492-5.415-1.042-2.503-1.997-5.042-3.004-7.56-.488-1.22-1.02-2.42-1.514-3.638-.372-.92-.66-1.88-1.076-2.777-.63-1.366-1.365-2.687-2-4.053-.183-.395-.396-.517-.798-.555-1.423-.135-2.83-.072-4.218.276-1.708.43-2.924 1.73-2.783 3.37.122 1.4.515 2.805.95 4.153.32.997 1.047 1.87 1.33 2.872.59 2.083 1.654 3.957 2.403 5.966.515 1.382 1.2 2.71 1.584 4.123.932 3.436 2.694 6.517 3.988 9.792.476 1.203 1.14 2.33 1.678 3.515.638 1.404 1.228 2.83 1.846 4.245.617 1.414 1.29 2.806 1.857 4.237 1.08 2.73 2.722 5.22 3.432 8.104.028.116.07.23.113.34.863 2.23 1.788 4.436 2.572 6.69.678 1.946 1.2 3.948 1.783 5.93.56 1.902 1.168 3.795 1.65 5.717.6 2.402.302 4.853.033 7.256-.17 1.526-.785 2.998-1.13 4.51-.188.825-.64 1.497-1.21 2.018-.87.794-1.817 1.56-2.856 2.097-.93.48-2.007.762-3.05.912-1.888.27-3.802.338-5.697.56-2.725.322-5.4.158-8.055-.548-1.757-.466-3.417-1.146-4.84-2.263-1.485-1.163-2.87-2.45-4.29-3.695-.598-.52-1.23-1.02-1.743-1.62-1.615-1.893-2.485-4.14-2.927-6.558-.272-1.488-.5-2.983-.734-4.48-.05-.31-.073-.636-.05-.947.213-2.72 1.11-5.07 3.353-6.835 1.067-.84 2.18-1.294 3.5-1.254 1.587.05 3.177.124 4.76.246 1.414.107 2.134 1.09 2.614 2.29.367.917-.252 1.603-.79 2.097-.59.54-1.43.813-2.187 1.146-.192.085-.48-.048-.815-.092l.886-1.354c-.685-1.58-2.38-2.35-3.942-1.76-.568.213-1.36.19-1.6.9-.405 1.187-1.03 2.382-.515 3.683.27.683.72 1.29 1.04 1.954.376.775 1.24.945 1.77 1.487 1.287 1.32 2.873 1.175 4.352.812 1.248-.308 2.406-1.035 3.55-1.678.498-.278.994-.733 1.26-1.232 1.133-2.142 1.888-4.403 1.63-6.873-.12-1.16-.28-2.348-1.352-3.12-.672-.486-1.454-.89-1.972-1.506-.994-1.187-2.384-1.59-3.722-1.928-1.526-.386-3.144-.47-4.73-.548-2.4-.116-4.714.475-6.76 1.648-2.032 1.168-3.59 2.96-4.81 4.975-.527.873-.937 1.856-1.192 2.845-.344 1.33-.474 2.716-.716 4.07-.316 1.775-.452 3.568-.12 5.338.386 2.06.93 4.09 1.4 6.133.456 1.978 1.193 3.85 2.218 5.59.553.938 1.21 1.826 1.918 2.655.63.736 1.366 1.39 2.1 2.024.566.49 1.182.93 1.81 1.337 1.7 1.103 3.39 2.23 5.14 3.248 1.397.812 2.8 1.624 4.45 1.926 2.127.392 4.164 1.198 6.388 1.18 1.25-.014 2.506.404 3.758.4 2.253-.01 4.506.166 6.757-.414 1.754-.45 3.42-1.063 4.948-1.974.966-.574 1.767-1.455 2.568-2.27 1.055-1.076 2.207-2.11 3.014-3.36 1.376-2.13 2.575-4.38 3.73-6.64.614-1.2 1.105-2.496 1.428-3.805.418-1.695.68-3.44.88-5.18.13-1.142-.072-2.32.067-3.458.24-1.957-.183-3.783-.703-5.64-.753-2.69-1.668-5.31-2.77-7.87-.456-1.058-.75-2.187-1.253-3.214-.802-1.638-1.747-3.2-2.57-4.827-.41-.81-.728-1.68-1.01-2.545-.49-1.513-.93-3.04-1.375-4.565-.242-.827-.033-1.562.494-2.235.418-.535.72-1.18 1.202-1.646.776-.753 1.373-1.753 2.59-1.974.358-.063.69-.366.998-.607.364-.286.64-.718 1.036-.92 1.594-.812 3.196-1.613 4.842-2.312 2.052-.868 4.158-1.608 6.226-2.443 1.31-.528 2.735-.812 4.034-.515 2.294.53 4 1.954 4.81 4.296.305.887.537 1.807 1.152 2.574.284.354.414.852.556 1.3.373 1.17.705 2.353 1.07 3.527.653 2.104 1.39 4.188 1.946 6.317.252.967.19 1.942-.686 2.822-1.182 1.188-1.447 2.837-1.387 4.453.05 1.398 1.575 2.686 2.928 2.517 1.212-.15 2.473-.327 3.585-.794 2.12-.893 4.18-1.937 6.2-3.034 1.262-.69 2.37-1.542 2.225-3.322-.11-1.36-.643-2.48-1.888-3.043z"/><linearGradient id="hello-i-am-aurelien-dribble2_1_" gradientUnits="userSpaceOnUse" x1="504.281" y1="382.986" x2="753.613" y2="382.986" gradientTransform="translate(-202 -333.059)"><stop offset="0" stop-color="#A982F7"/><stop offset=".492" stop-color="#F8CEFC"/><stop offset="1" stop-color="#A982F7"/></linearGradient><path id="hello-i-am-aurelien-dribble2" fill="url(#hello-i-am-aurelien-dribble2_1_)" stroke="#8790DD" stroke-miterlimit="10" d="M303.31 54.918c.057.77.408 1.516.61 2.274.3 1.116 1.203 1.86 1.72 2.837.612 1.158 1.22 2.32 2.137 3.268 1.108 1.146 1.84 2.695 3.486 3.275.216.076.382.285.587.406 1.228.72 2.267 1.778 3.733 2.07 1.13.225 2.254.5 3.393.667 2.58.382 5.165.66 7.79.468 2.45-.182 4.922.195 7.372-.312 2.215-.458 4.48-.697 6.68-1.21 1.73-.406 3.47-.934 5.08-1.673 2.162-.99 4.212-2.226 6.3-3.375 1.73-.955 3.48-1.883 5.163-2.92 2.295-1.413 4.527-2.926 6.798-4.38 1.334-.855 2.704-1.656 4.03-2.52 1.334-.87 2.646-1.77 3.944-2.686 2.117-1.492 4.21-3.02 6.324-4.51 1.267-.893 2.564-1.736 3.838-2.62.808-.56 1.604-1.137 2.385-1.73 1.263-.96 2.52-1.93 3.76-2.92 1.147-.912 2.345-1.78 3.388-2.802 1.27-1.244 2.594-2.405 4.012-3.463 1.972-1.47 3.998-2.863 5.953-4.354 2.72-2.07 5.438-4.138 8.426-5.817.762-.43 1.464-.96 2.19-1.45.46-.307.92-.61 1.37-.93.48-.34.927-.742 1.435-1.032 1.35-.767 2.71-1.505 4.086-2.22 2.255-1.168 4.517-2.328 7.036-2.842.467-.095.94-.23 1.37-.427 1.622-.728 3.35-1.102 5.062-1.507.855-.2 1.73-.313 2.594-.455 1.865-.305 3.69-.824 5.615-.832 1.646-.007 3.287-.267 4.936-.326 1.71-.062 3.428-.058 5.14-.008 3.458.1 6.917.222 10.374.396 1.3.066 2.602.27 3.89.48 1.864.304 3.722.652 5.57 1.02 2.292.46 4.575.97 6.864 1.442 1.13.234 2.257.483 3.394.654 1.486.223 3.008.262 4.47.588 1.784.396 3.73.105 5.362 1.208.105.07.31-.014.465-.003.274.02.562.013.815.097 1.38.454 2.756.933 4.133 1.4 1.688.576 3.375 1.147 5.062 1.726.295.103.61.168.873.327 1.977 1.205 4.055 2.185 6.207 3.04 2.13.846 4.18 1.897 6.3 2.773 1.52.627 2.923 1.433 4.3 2.31.803.512 1.598 1.046 2.445 1.472 1.787.898 3.443 1.98 4.98 3.254.937.775 1.882 1.384 2.825 2.148-.012-.012-.023-.187-.037-.187h.023c-.04 0-.084-.03-.125-.12-.042-.094-.085-.26-.022-.43.168.18.338.55.588.55h-.438c.006 0 .012.177.018.188-.002 0-.004.072-.006.07.965.913 1.836 2.003 2.924 2.73 1.906 1.277 3.078 3.205 4.48 4.896.756.915 1.37 2.033 1.96 3.078 1.194 2.098 2.237 4.313 3.07 6.58 1.18 3.196 1.845 6.556 2.374 9.92.203 1.29.336 2.63.22 3.923-.23 2.606-.68 5.193-.997 7.795-.366 3.023-1.66 5.696-3.09 8.32-.948 1.738-2.29 3.257-2.92 5.178-.073.223-.214.432-.358.62-.86 1.137-1.793 2.224-2.586 3.402-1.352 2.012-3.434 2.396-5.582 2.686-.148.02-.338-.006-.46-.085-1.17-.758-2.515-1.114-3.784-1.645-1.23-.514-2.355-1.145-3.113-2.3-.455-.7-.943-1.376-1.398-2.078-.462-.714-.42-1.95.06-2.592.857-1.14 3.336-1.645 4.562-.9.176.107.258.368.488.717-.465 0-.695-.024-.92.005-.588.077-1.188.104-1.438.83-.26.758-.412 1.486.297 2.063.417.34.91.82 1.374.825.967.01 1.938-.25 2.904-.416.096-.017.172-.16.252-.25 1.084-1.208 1.504-2.64 1.56-4.248.042-1.14-.237-2.107-.954-2.973-.125-.152-.2-.347-.31-.513-.896-1.337-2.134-2.153-3.667-2.64-1.292-.41-2.446-.006-3.58.425-2.454.933-4.038 2.668-4.784 5.23-.326 1.117-.12 2.202-.172 3.297-.123 2.66.36 5.14 2.516 7.008.266.23.453.554.64.86.747 1.25 1.952 1.945 3.19 2.56.912.452 1.932.696 2.824 1.17 1.61.854 3.373.873 5.102 1.117.19.027.395-.03.594-.055 1.645-.205 3.105-.94 4.557-1.66.8-.4 1.49-1.032 2.195-1.604 1.283-1.035 2.158-2.435 3.133-3.73.85-1.127 1.77-2.235 2.254-3.608.14-.4.372-.78.608-1.14.76-1.16 1.633-2.253 2.293-3.463 1.024-1.88 1.84-3.88 2.888-5.748.793-1.414 1.352-2.885 1.746-4.44.156-.616.182-1.286.438-1.855.865-1.927.705-3.997.82-6 .107-1.89-.18-3.807-.336-5.707-.197-2.378-.424-4.753-.662-7.127-.23-2.27-.47-4.54-.746-6.81-.062-.502-.232-1.012-.453-1.47-.994-2.067-2.096-4.07-3.496-5.9-2.1-2.74-3.776-5.79-6.22-8.275-.94-.957-1.748-2.044-2.686-3.004-.693-.707-1.45-1.37-2.264-1.94-1.855-1.3-3.762-2.535-5.65-3.786-.562-.37-1.162-.68-1.713-1.062-.77-.54-1.47-1.194-2.273-1.668-1.227-.724-2.508-1.354-3.787-1.982-1.674-.82-3.354-1.638-5.06-2.387-1.605-.703-3.27-1.268-4.868-1.98-2.806-1.25-5.653-2.376-8.62-3.18-.613-.167-1.273-.21-1.848-.462-4.445-1.95-9.164-3.082-13.746-4.62-1.95-.655-3.955-1.154-5.955-1.642-2.608-.638-5.23-1.21-7.858-1.77-1.047-.225-2.115-.337-3.172-.52-1.29-.222-2.562-.566-3.86-.672-2.93-.236-5.845-.683-8.804-.6-2.695.075-5.396.005-8.096.02-.594.004-1.19.094-1.78.14-1.347.104-2.702.134-4.036.32-3.387.476-6.766.998-10.14 1.546-1.728.28-3.466.553-5.15 1.013-3.938 1.076-7.85 2.255-11.77 3.408-1.145.336-2.302.653-3.404 1.102-2.782 1.127-5.638 2.09-8.274 3.56-2.076 1.154-4.197 2.227-6.267 3.392-1.458.82-2.88 1.708-4.285 2.613-1.604 1.03-3.24 2.028-4.746 3.19-2.927 2.257-5.776 4.607-8.644 6.938-2.63 2.135-5.27 4.254-7.846 6.45-1.844 1.57-3.703 3.126-5.305 4.968-1.433 1.648-2.95 3.224-4.45 4.812-1.145 1.215-2.323 2.397-3.49 3.595-.554.566-1.087 1.16-1.673 1.693-1.873 1.714-3.75 3.427-5.662 5.097-1.064.93-2.168 1.824-3.322 2.636-.938.66-1.984 1.16-2.973 1.75-1.398.834-2.742 1.778-4.195 2.505-1.484.744-3.066 1.305-4.62 1.907-1 .387-2.015.757-3.046 1.042-1.725.476-3.464.91-5.21 1.302-2.14.48-4.287.936-6.47.186-1.242-.427-2.514-.766-3.743-1.223-1.413-.525-2.798-1.13-4.185-1.724-.246-.105-.467-.308-.653-.507-.942-1.015-1.9-2.016-2.79-3.07-.48-.57-.954-1.196-1.223-1.878-.463-1.17-.83-2.39-1.105-3.618-.144-.638-.044-1.34.01-2.01.06-.747.18-1.492.295-2.234.11-.705.21-1.415.39-2.104.227-.88.468-1.767.814-2.603.56-1.353.675-2.96 2.1-3.854.122-.078.208-.25.26-.397.388-1.057 1.274-1.5 2.256-1.744 2.053-.515 4.16-.538 6.23-.24 1.113.16 2.27.48 3.2 1.253.362.302.728.604 1.124.863.818.532 1.527 1.164 1.94 2.063.41.9.79 1.815 1.175 2.728.04.098.026.23.003.338-.15.7-.22 1.437-.49 2.088-.3.718-.663 1.486-1.21 2.01-1.53 1.457-3.423 1.676-5.416 1.29-.37-1.5.13-2.056 1.538-1.77.116.022.225.09.34.106 1.35.19 2.55-.006 3.35-1.27.123-.196.265-.38.367-.524-.177-.68-.33-1.297-.5-1.91-.393-1.402-1.8-2.5-3.275-2.442-.788.03-1.567.253-2.353.376-.582.092-1.04.354-1.375.85-.398.587-.798 1.177-1.252 1.72-.608.725-1.012 1.544-1.173 2.457-.255 1.436-.268 2.806.714 4.085.85 1.11 1.79 1.97 3.14 2.397 2.2.695 4.393.532 6.553-.07.66-.183 1.227-.726 1.814-1.135 1.333-.93 2.413-2.146 3.164-3.54 1.07-1.983 1.28-4.217 1.28-6.45-.002-.39-.1-.788-.206-1.166-.4-1.397-1.13-2.635-1.962-3.808-1.128-1.59-2.315-3.13-4.08-4.094-.486-.267-.998-.518-1.418-.868-1.517-1.27-3.3-1.77-5.205-1.625-1.768.136-3.53.453-5.27.812-3.576.74-6.494 2.652-8.886 5.355-1.067 1.205-1.98 2.55-2.954 3.836-.144.188-.298.396-.36.617-.42 1.485-.918 2.96-1.187 4.477-.192 1.084.033 2.24-.12 3.336-.093.67-.075 1.23.235 1.812.447.87.67 1.77.742 2.748z"/><linearGradient id="hello-i-am-aurelien-dribble1_1_" gradientUnits="userSpaceOnUse" x1="392.416" y1="483.164" x2="551.165" y2="483.164" gradientTransform="translate(-202 -333.059)"><stop offset="0" stop-color="#A982F7"/><stop offset=".492" stop-color="#F8CEFC"/><stop offset="1" stop-color="#A982F7"/></linearGradient><path id="hello-i-am-aurelien-dribble1" fill="url(#hello-i-am-aurelien-dribble1_1_)" stroke="#8790DD" stroke-miterlimit="10" d="M346.617 143.345c-.586-.713-1.12-1.484-1.98-2.016-1.356-.834-2.766-1.252-4.33-1.396-1.478-.138-2.898.18-4.35.263-2.557.147-4.02 1.77-5.167 3.7-1.143 1.92-.26 5.14 1.576 6.495.25.185.545.332.84.43.6.202 1.245.295 1.82.546 1.61.7 2.853-.003 4.013-.996.306-.262.61-.5.71-1.02.305-1.59-.688-3.025-2.305-3.147-.572-.043-1.037.12-1.28.667-.16.354-.313.657-.907.546 0-.285-.064-.54.012-.745.424-1.142 1.85-2.008 3.074-1.848.906.118 1.807.29 2.7.48.6.127 1.055.466 1.42.998 1.36 1.968.702 4.055-.702 5.81-1.385 1.728-3.396 2.743-5.18 4-1.062.75-2.29 1.276-3.476 1.83-.715.334-1.48.672-2.25.757-3.05.334-6.112.482-9.163-.05-.666-.115-1.326-.265-1.987-.406-1.597-.34-3.187-.718-4.79-1.02-1.48-.28-2.835-1.04-4.377-1.096-.63-.02-1.265-.13-1.88-.27-1.005-.235-1.988-.57-2.996-.792-3.333-.73-6.605-1.662-9.795-2.882-1.892-.726-3.762-1.525-5.7-2.097-2.01-.59-3.983-1.337-6.102-1.546-2.407-.235-4.798-.67-7.208-.828-1.614-.104-3.254.063-4.875.2-2.557.214-5.125.395-7.656.796-2.31.367-4.61.89-6.85 1.562-2.5.752-4.938 1.717-7.377 2.657-2.28.88-4.524 1.846-6.782 2.777-.874.36-1.807.637-2.605 1.124-2.822 1.73-5.875 2.968-8.874 4.322-1.005.455-2.086.743-3.122 1.138-.774.295-1.578.56-2.283.98-1.165.692-2.323 1.33-3.694 1.54-.698.106-1.37.397-2.05.61-1.707.53-3.413.925-5.24.897-.738-.01-1.35-.283-2.027-.387-1.446-.223-2.862-.637-4.307-.866-1.723-.277-3.235-1.016-4.75-1.828-.628-.338-1.327-.584-1.76-1.145-1.043-1.353-2.08-2.717-2.993-4.152-.867-1.363-1.063-2.948-1.24-4.543-.292-2.636-.418-5.25.316-7.83.5-1.757 1.12-3.48 1.57-5.248.335-1.315 1.165-2.27 2.11-3.083 1.294-1.112 2.814-1.925 4.405-2.562 1.36-.548 2.738-.98 4.21-1.24 2.208-.39 3.942.207 5.518 1.702.87.825 1.46 1.853 2.217 2.747.61.72.958 1.554 1.19 2.367.604 2.11.607 4.308.51 6.49-.013.272-.126.544-.23.8-.728 1.783-2.18 2.918-3.73 3.874-1.087.674-2.342.693-3.515-.007-.233-.14-.485-.247-.733-.356-1.23-.556-2.382-1.184-3.182-2.352-.784-1.143-1.198-2.403-1.524-3.726-.29-1.17-.068-2.19.667-3.117.47-.59 1.995-.646 2.442-.05.135.18.138.518.09.762-.05.263-.23.5-.357.75-.345.666-.276 1.31.142 1.913.75 1.073 1.85 1.616 3.082 1.894.272.062.7-.02.883-.21.745-.753 1.434-1.544 1.76-2.61.298-.984.052-1.866-.188-2.8-.673-2.618-2.416-4.213-4.857-5.104-.644-.235-1.396-.282-2.056.117-.873.527-1.723 1.096-2.608 1.6-.96.548-1.625 1.44-2.065 2.334-.76 1.544-1.048 3.258-1.147 5.02-.176 3.115 1.392 5.41 3.39 7.46.924.946 2.164 1.594 3.28 2.346.804.54 1.7.867 2.672.96.278.026.565.034.83.113 2.516.76 4.855.347 7.055-1.034 1.957-1.23 3.32-2.998 4.167-5.08.638-1.57.952-3.274 1.363-4.93.504-2.032.513-4.023-.065-6.1-.587-2.105-1.765-3.778-3.297-5.153-1.308-1.177-2.56-2.507-4.262-3.19-.106-.042-.194-.13-.287-.204-1.983-1.55-4.022-2.966-6.706-2.878-.12.004-.243.007-.36-.016-1.566-.31-3.063.05-4.553.473-1.303.37-2.494.988-3.718 1.56-1.952.912-3.556 2.32-5.335 3.47-1.127.728-1.904 1.977-2.978 2.812-1.55 1.206-2.32 2.903-3.144 4.56-.577 1.158-.932 2.395-.756 3.794.14 1.12-.254 2.3-.158 3.434.137 1.604.58 3.178.76 4.78.293 2.59 1.255 4.874 2.774 6.968.652.898 1.293 1.83 1.768 2.828.435.913.895 1.763 1.65 2.446.44.4.823.87 1.28 1.25 1.002.837 2.035 1.638 3.057 2.45.062.05.132.09.205.115 1.292.462 2.4 1.457 3.89 1.348 1.924.825 3.987 1.014 6.026 1.32 1.097.166 2.184.392 3.276.58 1.214.214 2.43.597 3.643.595 3.22-.003 6.414-.312 9.573-1.057 3.09-.727 6.114-1.646 9.046-2.828 2.526-1.018 4.986-2.214 7.433-3.42 2.77-1.364 5.498-2.813 8.232-4.25 1.372-.72 2.71-1.5 4.08-2.227.798-.426 1.605-.848 2.44-1.195 3.012-1.263 6.142-2.18 9.306-2.96 1.188-.294 2.436-.448 3.66-.467 2.7-.042 5.408-.062 8.1.105 2.197.14 4.394.3 6.372 1.622 2.085 1.396 4.516 2.14 6.9 2.895 1.82.574 3.63 1.154 5.354 1.98.17.08.347.152.527.204.64.19 1.312.294 1.92.552 2.272.957 4.477 2.09 6.792 2.918 2.952 1.06 5.918 2.06 9.077 2.5 3.307.466 6.586.563 9.885.235 1.938-.192 3.866-.505 5.786-.84.976-.17 1.932-.472 2.875-.784.98-.322 1.934-.72 2.89-1.103 2.41-.97 4.708-2.074 6.17-4.398.803-1.276 1.702-2.49 2.573-3.722.64-.9.995-1.9 1.13-2.987.06-.47.18-.934.215-1.405.142-1.922.143-3.845-.71-5.625-.5-1.027-1.048-2.07-1.768-2.945z"/><linearGradient id="hello-i-am-aurelien-ello_1_" gradientUnits="userSpaceOnUse" x1="281.707" y1="495.509" x2="380.711" y2="495.509" gradientTransform="translate(-202 -333.059)"><stop offset="0" stop-color="#A982F7"/><stop offset=".492" stop-color="#F8CEFC"/><stop offset="1" stop-color="#A982F7"/></linearGradient><path id="hello-i-am-aurelien-ello" fill="url(#hello-i-am-aurelien-ello_1_)" stroke="#8790DD" stroke-miterlimit="10" d="M178.04 154.922c-.04-.058-.046-.158-.03-.23.157-.715-.29-1.178-.627-1.73-.607-.99-1.4-1.76-2.362-2.384-.544-.354-1.173-.64-1.6-1.104-.704-.77-1.527-1.247-2.51-1.517-.38-.104-.742-.275-1.12-.393-1.677-.515-3.353-.858-5.1-.25-1.58.552-3.02 1.296-4.358 2.324-1.438 1.104-2.623 2.4-3.747 3.81-.795.996-1.068 2.198-1.633 3.277-.45.858-.78 1.892-.79 2.85-.016 1.754.228 3.512.406 5.263.043.43.156.91.405 1.24.688.906.54 1.746.004 2.632-.185.307-.32.646-.443.98-.78 2.172-3.042 2.893-4.71 2.644-1.437-.214-2.942-.462-4.246-1.3-.948-.608-1.22-1.092-.91-2.148.248-.843.53-1.676.757-2.522.32-1.19.685-2.38.875-3.592.17-1.1.152-2.23.183-3.348.047-1.753.08-3.507.094-5.26.018-2.108.055-4.22 0-6.33-.04-1.39-.195-2.783-.358-4.168-.2-1.697-.41-3.396-.713-5.077-.323-1.798-.75-3.576-1.15-5.358-.445-1.982-1.23-3.853-2.09-5.673-.553-1.17-1.144-2.338-1.708-3.498-.808-1.66-2.064-2.752-3.456-3.804-.504-.38-1.01-.77-1.45-1.225-1.2-1.24-2.688-1.868-4.36-1.787-1.33.064-2.67.37-3.962.72-1.917.523-3.364 1.826-4.445 3.403-.968 1.41-1.5 3.096-1.555 4.827-.086 2.738-.075 5.482-.032 8.222.023 1.514.116 3.034.322 4.532.238 1.73.618 3.44.97 5.152.262 1.286.48 2.595.89 3.836.53 1.602 1.198 3.16 1.866 4.71.455 1.057.998 2.075 1.53 3.096.332.636.78 1.215 1.068 1.867.925 2.1 1.876 4.184 2.977 6.197.513.938 1.065 1.854 1.546 2.808.726 1.438 1.416 2.895 2.1 4.35.26.555.582 1.12.653 1.705.112.915-.042 1.842-.662 2.597-.626.765-1.22 1.573-1.947 2.23-.41.37-1.046.584-1.61.67-1.895.295-3.59-.258-5.152-1.343-.314-.22-.638-.438-1.136-.484-.535-.05-1.09-.6-1.488-1.06-.182-.208-.023-.728.008-1.103.087-1.026.25-2.05.27-3.076.05-2.475-.174-4.932-.38-7.396-.228-2.73-.3-5.465-.822-8.17-.392-2.03-.515-4.12-1.016-6.12-.52-2.07-1.342-4.07-2.043-6.098-.27-.78-.514-1.574-.865-2.316-.8-1.688-1.763-3.308-2.456-5.036-.54-1.344-1.24-2.566-2.013-3.766-.233-.36-.53-.743-.894-.942-1.555-.854-2.974-1.923-4.558-2.74-1.466-.76-3.003-.817-4.53-.724-.955.062-1.933.48-2.805.92-1.107.564-1.844 1.602-2.467 2.642-.438.73-.783 1.577-.922 2.413-.5 3.016-1 6.037-1.048 9.105-.043 2.798.293 5.56 1 8.26.34 1.303.906 2.543 1.223 3.85.468 1.924 1.273 3.712 2.064 5.503.7 1.59 1.51 3.132 2.325 4.667.498.94 1.035 1.875 1.666 2.73.895 1.214 1.96 2.306 2.83 3.533 1.578 2.23 3.02 4.553 4.606 6.775.98 1.373 1.94 2.693 1.625 4.516-.032.187.068.393.08.59.087 1.353.18 2.696-.258 4.03-.733 2.234-1.683 4.37-3.008 6.302-.892 1.3-1.987 2.47-3.37 3.296-.783.472-1.612.867-2.366 1.38-2.193 1.485-4.63 1.895-7.16 1.437-2.436-.442-4.583-1.71-6.78-3.03.177-.056.35-.13.53-.166 1.638-.325 3.283-.612 4.914-.974 2.07-.457 4.016-1.278 5.952-2.133 1.35-.6 2.38-1.56 3.303-2.646 1.14-1.342 1.882-2.896 2.49-4.562.86-2.354.758-4.672.17-7.02-.434-1.725-1.338-3.225-2.362-4.658-1.3-1.823-3.07-3.04-5.17-3.654-2.872-.84-5.824-.65-8.756-.278-.585.074-1.21.148-1.727.403-2.422 1.193-4.78 2.51-6.587 4.587-.96 1.102-1.934 2.208-2.385 3.646-.188.604-.47 1.115-.85 1.647-.51.714-.865 1.655-.943 2.53-.11 1.24.042 2.52.17 3.77.14 1.38.187 2.776.66 4.108.264.748.45 1.52.687 2.28.188.603.335 1.232.61 1.8.878 1.802 1.98 3.516 2.668 5.384.712 1.932 2.324 2.75 3.824 3.722 2.212 1.436 4.81 1.893 7.3 2.585 1.067.298 2.19.464 3.296.53 1.31.08 2.632.043 3.943-.04 1.782-.113 3.61-.097 5.195-1.125.585-.38 1.183-.756 1.707-1.212.836-.73 1.733-1.43 2.397-2.3 1.375-1.807 2.67-3.675 3.895-5.586 1.48-2.313 2.892-4.678 4.256-7.062.787-1.376 1.423-2.84 2.137-4.284.198.04.47.013.568.128.905 1.06 2.15 1.634 3.316 2.285.817.458 1.746.772 2.664.976.722.156 1.546.21 2.25.022 1.49-.393 2.955-.922 4.12-2.02 1.216-1.148 2.286-2.42 3.18-3.837.63-1.003 1.24-2.02 1.91-3.117.328.198.623.388.928.56.484.27.948.62 1.47.777 2.367.713 4.767.914 7.195.28 3.42-.893 6.215-2.695 8.27-5.607.365-.52.788-1.004 1.232-1.458.605-.62 1.196-1.232 1.23-2.27 1.754 1.316 3.53 1.998 5.653 1.61 1.954-.353 3.77-1.05 5.265-2.298 1.482-1.235 2.892-2.556 4.082-4.152 1.343-1.805 2.333-3.688 2.777-5.854.155-.76.078-1.578.053-2.368-.054-1.595.407-3.263-.613-4.74zM88.916 189.48c-.627-.962-1.486-1.813-1.255-2.706.296-3.042 1.176-5.282 3.278-7.07 2.054-1.748 4.417-2.343 6.94-2.176 3.066.203 4.844 2.74 4.393 5.896-.358 2.515-1.847 4.26-3.91 5.542-1.206.75-2.488 1.39-3.77 2.01-1.988.964-4.35.534-5.674-1.496zm28.6-19.522c-.02.312-.123.624-.23.92-.272.75-.785 1.078-1.458.762-1.05-.498-2.107-1.004-2.85-1.987-1.392-1.84-2.68-3.745-3.804-5.76-.848-1.52-1.752-3.013-2.52-4.57-.978-1.992-1.935-4.002-2.215-6.258-.285-2.285-.693-4.557-.964-6.842-.166-1.4.12-2.79.612-4.098.508-1.347 2.607-2.16 4.05-1.772 1.226.33 2.096 1.155 2.882 2.02 1.612 1.767 2.447 3.962 3.066 6.24.47 1.726.976 3.445 1.116 5.243.01.116.05.232.097.343.913 2.095 1.108 4.378 1.68 6.56.42 1.605.533 3.286.795 5.015-.08 1.34-.154 2.763-.258 4.183zm22.9-13.743c-.298 1.92-.497 3.857-.75 5.786-.03.233-.12.46-.196.742-1.566-.02-2.497-.827-3.31-1.95-1.298-1.8-2.784-3.49-3.67-5.533-1.132-2.605-2.086-5.286-3.097-7.943-1.043-2.74-1.52-5.606-1.578-8.52-.053-2.667.112-5.34 1.016-7.893.783-2.206 3.237-2.723 4.96-1.096 1.033.977 1.753 2.16 2.34 3.423.685 1.474 1.375 2.957 1.886 4.494.66 1.988 1.367 3.974 1.64 6.08.233 1.8.676 3.576.837 5.38.207 2.338.29 4.687-.076 7.03zm31.49 4.453c-.018 1.37-.292 2.63-.927 3.81-.404.75-.92 1.36-1.67 1.794-1.158.666-2.29 1.382-3.678 1.46-.197.012-.51.086-.573-.005-.48-.688-1.295-.51-1.923-.802-1.287-.597-1.855-1.627-2.024-2.973-.162-1.293-.005-2.476.594-3.686.513-1.034 1.055-2.03 1.682-2.996.427-.658.985-1.113 1.683-1.458 1.465-.727 2.963-1.077 4.603-.728.78.168 1.407.586 1.576 1.292.335 1.42.8 2.837.655 4.292z"/><linearGradient id="hello-i-am-aurelien-am_1_" gradientUnits="userSpaceOnUse" x1="467.5" y1="456.439" x2="541.024" y2="456.439" gradientTransform="translate(-202 -333.059)"><stop offset="0" stop-color="#A982F7"/><stop offset=".492" stop-color="#F8CEFC"/><stop offset="1" stop-color="#A982F7"/></linearGradient><path id="hello-i-am-aurelien-am" fill="url(#hello-i-am-aurelien-am_1_)" stroke="#8790DD" stroke-miterlimit="10" d="M266.75 131.696c.335 1.743 1.237 3.042 2.59 4.12.707.56 1.364 1.19 2 1.835.604.615 1.356.922 2.14 1.19.263.09.532.158.8.23 1.22.33 3.534.938 4.97.737 1.773-.25 3.54-.403 4.966-1.66.083-.073.218-.086.33-.125 1.89-.665 3.566-1.613 4.687-3.368.223-.348.632-.577 1.06-.954.345.736.562 1.294.854 1.808.562.99 1.385 1.745 2.563 1.674 1.19-.073 2.386-.458 3.295-1.24 1.84-1.58 3.425-3.385 4.67-5.502.654-1.11 1.507-2.13 2.91-2.476 1.274-.31 1.674-.107 2.19 1.07.662 1.514.57 3.09.53 4.667-.028 1.095.553 2.292 1.526 2.586 1.686.51 3.422.814 5.184.363 1.09-.28 1.975-1.195 1.986-2.115.008-.63-.122-1.263-.204-1.893-.092-.708-.25-1.412-.286-2.123-.052-1.034-.018-2.07-.023-3.107-.008-1.503.43-2.896 1.106-4.21.405-.79.825-.912 1.694-.71.944.218 1.623.802 2.146 1.58.833 1.237 1.31 2.615 1.62 4.07.478 2.25 1.124 4.448 2.08 6.56.51 1.126 1.538 1.29 2.498 1.435.5.073 1.204-.244 1.59-.618.522-.502.833-1.226 1.215-1.863.048-.08.003-.24-.037-.348-.288-.782-.478-1.626-.906-2.32-.613-.994-.868-2.05-.954-3.17-.058-.753-.082-1.514-.062-2.27.04-1.517.163-3.028.815-4.43.114-.243.404-.496.654-.55.184-.038.467.207.648.385.165.162.296.39.366.613.51 1.628 1.27 3.198 1.35 4.932.087 1.912.91 3.554 1.758 5.193.103.198.285.417.482.492 1.032.394 2.066.688 3.213.4 1.52-.382 2.524-1.902 2.204-3.427-.27-1.284-.53-2.573-.72-3.87-.126-.858-.063-1.747-.19-2.605-.206-1.412-.47-2.818-.768-4.216-.162-.77-.42-1.526-.677-2.275-.412-1.202-.895-2.382-1.283-3.59-.71-2.195-1.762-4.094-4.092-4.912-.782-.275-1.594-.478-2.402-.666-2.027-.477-3.91.624-4.8 2.29-.275.514-.645.977-.918 1.49-.37.69-.835 1.352-.747 2.216.03.276-.118.572-.23 1.063-.443-.482-.714-.87-1.067-1.15-1.33-1.072-2.63-2.204-4.057-3.136-1.16-.755-2.545-.833-3.73-.018-1.383.95-2.305 2.29-2.66 3.97-.12.562-.25 1.122-.438 1.95-.262-.4-.366-.55-.46-.705-.792-1.334-1.996-2.13-3.433-2.617-.885-.3-1.71-.194-2.497.334-1.146.773-2.01 1.8-2.69 2.982-1.55 2.688-3.082 5.386-5.02 7.825-.592.743-1.14 1.52-1.742 2.257-.18.218-.47.346-.9.65-.21-1.102-.45-1.98-.537-2.88-.197-2.01-.278-4.033-.482-6.047-.255-2.51-2.396-4.938-4.79-5.52-1.376-.337-2.747-.718-4.14-.958-1.442-.248-2.92-.557-4.36-.46-1.805.12-3.588.625-5.137 1.67-.522.35-.998.772-1.477 1.186-.796.686-1.67 1.31-2.34 2.103-.602.713-1.03 1.593-1.435 2.443-.542 1.14-.98 2.325-1.484 3.48-.187.432-.48.82-.64 1.26-.605 1.634-1.055 3.312-1.12 5.062-.017.458.08.943.234 1.38.31.865.846 1.67 1.015 2.55zm8.8-9.842c.344-.376.547-.88.893-1.254 2.002-2.167 5.042-2.89 7.72-1.67 2.127.968 3.576 3.278 2.94 5.91-.093.388-.237.768-.287 1.16-.422 3.27-4.43 5.845-7.02 5.738-.195-.008-.42-.026-.585.056-1.007.508-1.682-.083-2.447-.62-1.762-1.23-2.45-2.96-2.523-5.02-.007-.198-.02-.397-.03-.597-.084-1.425.373-2.645 1.34-3.703z"/><linearGradient id="hello-i-am-aurelien-i_1_" gradientUnits="userSpaceOnUse" x1="422.197" y1="449.976" x2="453.476" y2="449.976" gradientTransform="translate(-202 -333.059)"><stop offset="0" stop-color="#A982F7"/><stop offset=".492" stop-color="#F8CEFC"/><stop offset="1" stop-color="#A982F7"/></linearGradient><path id="hello-i-am-aurelien-i" fill="url(#hello-i-am-aurelien-i_1_)" stroke="#8790DD" stroke-miterlimit="10" d="M223.51 96.032c1.72.446 2.923 1.543 3.927 2.916.967 1.322 1.543 2.825 2.16 4.34 1.914 4.694 3.14 9.554 4.086 14.514.254 1.33.447 2.654.557 3.998.21 2.563.446 5.124.638 7.688.122 1.62.214 3.244.26 4.867.026.987-.058 1.98-.102 2.972-.02.462.057.98-.12 1.373-.495 1.11-.706 2.348-1.55 3.31-.33.374-.486.902-.725 1.36-.488.937-.465 1.937-.207 2.9.344 1.29 1.71 1.917 3.28 1.616 1.873-.358 3.755-.674 5.615-1.09 2.48-.552 4.923-1.24 7.287-2.187.517-.208 1.053-.382 1.54-.647 1.075-.58 1.663-2.548 1.11-3.648-.113-.225-.313-.407-.492-.59-.552-.562-1.133-1.1-1.667-1.68-.77-.836-1.46-1.756-2.282-2.538-.55-.52-.994-1.117-1.092-1.798-.345-2.41-1.83-4.506-1.862-6.994-.004-.3-.2-.598-.305-.896-.183-.527-.39-1.047-.54-1.583-.646-2.296-1.19-4.625-1.934-6.888-.715-2.186-1.375-4.376-1.81-6.628-.624-3.25-1.25-6.5-1.782-9.766-.182-1.124-.198-2.31-.06-3.438.095-.79.483-1.598.923-2.276.4-.615.994-1.14 1.592-1.582 1.256-.93 1.84-2.267 2.323-3.655.417-1.198-.43-2.8-1.623-3.337-1.666-.75-3.422-.858-5.21-.77-.553 0-1.116-.06-1.66.01-3.28.43-6.5 1.087-9.413 2.757-.613.353-1.157.83-1.787 1.142-.81.396-1.414.992-1.895 1.714-.716 1.07-.635 2.012.153 3.06.675.892 1.68 1.196 2.67 1.452z"/><linearGradient id="hello-i-am-aurelien-accenti_1_" gradientUnits="userSpaceOnUse" x1="779.435" y1="431.084" x2="791.127" y2="431.084" gradientTransform="translate(-202 -333.059)"><stop offset="0" stop-color="#A982F7"/><stop offset=".492" stop-color="#F8CEFC"/><stop offset="1" stop-color="#A982F7"/></linearGradient><path id="hello-i-am-aurelien-accenti" fill="url(#hello-i-am-aurelien-accenti_1_)" stroke="#8790DD" stroke-miterlimit="10" d="M577.472 98.082c-.043 1.546.406 2.813 1.54 3.65 1.14.84 2.382 1.572 3.67 2.15.913.412 2 .6 2.968.03 1.127-.66 2.23-1.345 2.79-2.65.997-2.31.974-4.476-.493-6.606-1.316-1.915-3.287-2.513-5.395-2.863-.354-.06-.785.1-1.125.27-.525.263-1.02.603-1.5.948-.48.35-1.127.657-1.34 1.143-.558 1.277-1.33 2.538-1.115 3.93zm4.28-.42c.96-.17 1.92-.433 2.657.688-.55.597-1.063 1.14-1.86.794-.57-.248-.978-.684-.8-1.482z"/></svg>
