<svg xmlns="http://www.w3.org/2000/svg" viewBox="-0.2 -1 379 334"><path fill="#9CDAF1" d="M296.94 295.43c0 20.533-47.56 37.176-106.22 37.176-58.67 0-106.23-16.643-106.23-37.176s47.558-37.18 106.23-37.18c58.66 0 106.22 16.65 106.22 37.18z"/><g fill="#7DBBE6"><path d="M161.85 331.22v-26.5c0-3.422-.62-6.284-1.653-8.7 6.853 5.32 7.316 18.694 7.316 18.694v17.004c6.166.48 12.534.773 19.053.86l-.172-16.92c-.944-23.13-20.77-25.96-20.77-25.96-7.244-1.645-7.136 1.99-6.408 4.34-7.108-12.122-26.158-10.556-26.158-10.556-6.61 2.357-.475 6.607-.475 6.607 10.387 3.774 11.33 15.104 11.33 15.104v23.622c5.72.98 11.71 1.79 17.94 2.4zM245.4 283.48s-19.053-1.566-26.16 10.56c.728-2.35.84-5.99-6.408-4.344 0 0-19.824 2.832-20.768 25.96l-.174 16.947c6.51-.025 12.876-.254 19.054-.67v-17.22s.465-13.373 7.316-18.695c-1.034 2.417-1.653 5.278-1.653 8.7v26.776c6.214-.544 12.21-1.28 17.937-2.188v-24.113s.944-11.33 11.33-15.105c0-.01 6.13-4.26-.48-6.62z"/></g><path d="M378.18 141.32l.28-1.39c-31.162-6.23-63.14-6.293-82.487-5.49 3.178-11.45 4.134-24.626 4.134-39.32 0-21.072-7.917-37.93-20.77-50.758 2.246-7.25 5.246-23.35-2.996-43.963 0 0-14.54-4.618-47.43 17.395-12.884-3.22-26.596-4.81-40.328-4.81-15.11 0-30.376 1.924-44.615 5.83C110.027-4.34 95.044.405 95.044.405c-9.78 24.456-3.733 42.565-1.896 47.062-11.495 12.406-18.513 28.243-18.513 47.66 0 14.657 1.67 27.807 5.745 39.236-19.51-.71-50.323-.437-80.373 5.572l.276 1.39c30.23-6.047 61.237-6.257 80.63-5.523.897 2.366 1.898 4.66 3.02 6.88-19.177.617-51.922 3.06-83.303 11.914l.387 1.36c31.63-8.918 64.658-11.3 83.65-11.882 11.457 21.358 34.047 35.152 74.235 39.484-5.704 3.833-11.523 10.35-13.88 21.374-7.774 3.718-32.38 12.793-47.143-12.6 0 0-8.265-15.108-24.083-16.29 0 0-15.344-.236-1.06 9.56 0 0 10.268 4.84 17.352 23.02 0 0 9.24 31.01 53.834 21.06v32.033s-.943 11.33-11.33 15.105c0 0-6.137 4.25.475 6.606 0 0 28.79 2.36 28.79-21.238v-34.93s-1.14-13.85 5.664-18.666v57.37s-.47 13.69-7.55 18.882c0 0-4.724 8.494 5.662 6.137 0 0 19.824-2.83 20.77-25.96l.448-58.06h4.765l.452 58.06c.943 23.13 20.768 25.96 20.768 25.96 10.383 2.358 5.663-6.136 5.663-6.136-7.08-5.193-7.55-18.88-7.55-18.88v-56.877c6.8 5.296 5.662 18.17 5.662 18.17v34.93c0 23.6 28.793 21.238 28.793 21.238 6.606-2.357.474-6.606.474-6.606-10.386-3.776-11.33-15.106-11.33-15.106v-45.786c0-17.854-7.518-27.31-14.87-32.3 42.86-4.25 63.426-18.09 72.903-39.59 18.773.515 52.557 2.802 84.873 11.918l.384-1.36c-32.13-9.063-65.692-11.408-84.655-11.96.898-2.172 1.682-4.43 2.378-6.755 19.25-.8 51.38-.79 82.66 5.46z"/><path fill="#F4CBB2" d="M258.19 94.132c9.23 8.363 14.63 18.462 14.63 29.343 0 50.804-37.87 52.18-84.584 52.18-46.72 0-84.59-7.034-84.59-52.18 0-10.81 5.325-20.845 14.442-29.174 15.208-13.88 40.946-6.53 70.147-6.53 29.07-.004 54.72-7.43 69.95 6.357z"/><path fill="#FFF" d="M160.1 126.06c0 13.994-7.88 25.336-17.6 25.336-9.72 0-17.6-11.342-17.6-25.336 0-13.992 7.88-25.33 17.6-25.33 9.72.01 17.6 11.34 17.6 25.33zm94.43 0c0 13.994-7.88 25.336-17.6 25.336-9.72 0-17.6-11.342-17.6-25.336 0-13.992 7.88-25.33 17.6-25.33 9.72.01 17.6 11.34 17.6 25.33z"/><g fill="#AD5C51"><path d="M154.46 126.38c0 9.328-5.26 16.887-11.734 16.887s-11.733-7.56-11.733-16.887c0-9.33 5.255-16.894 11.733-16.894 6.47 0 11.73 7.56 11.73 16.89zm94.42 0c0 9.328-5.26 16.887-11.734 16.887s-11.733-7.56-11.733-16.887c0-9.33 5.255-16.894 11.733-16.894 6.47 0 11.73 7.56 11.73 16.89z"/><circle cx="188.5" cy="148.56" r="4.401"/><path d="M178.23 159.69c-.26-.738.128-1.545.86-1.805.738-.26 1.547.128 1.806.86 1.134 3.2 4.167 5.347 7.55 5.347s6.418-2.147 7.552-5.346c.26-.738 1.067-1.12 1.805-.86s1.12 1.066.862 1.804c-1.53 4.324-5.64 7.23-10.218 7.23s-8.68-2.89-10.21-7.22z"/></g><path fill="#C3E4D8" d="M80.64 179.82c0 1.174-1.375 2.122-3.07 2.122-1.692 0-3.07-.948-3.07-2.122 0-1.175 1.378-2.127 3.07-2.127 1.695 0 3.07.95 3.07 2.13zm8.5 4.72c0 1.174-1.375 2.122-3.07 2.122-1.692 0-3.07-.948-3.07-2.122 0-1.175 1.378-2.127 3.07-2.127 1.695 0 3.07.95 3.07 2.13zm5.194 6.14c0 1.174-1.376 2.122-3.07 2.122-1.693 0-3.07-.948-3.07-2.122 0-1.175 1.377-2.127 3.07-2.127 1.694 0 3.07.95 3.07 2.13zm4.72 7.08c0 1.174-1.376 2.122-3.07 2.122-1.693 0-3.07-.948-3.07-2.122 0-1.175 1.377-2.127 3.07-2.127 1.694 0 3.07.95 3.07 2.13zm5.188 6.61c0 1.174-1.376 2.122-3.07 2.122-1.693 0-3.07-.948-3.07-2.122 0-1.175 1.377-2.127 3.07-2.127 1.694 0 3.07.95 3.07 2.13zm7.09 5.66c0 1.174-1.376 2.122-3.07 2.122-1.693 0-3.07-.948-3.07-2.122 0-1.175 1.377-2.127 3.07-2.127 1.694 0 3.07.95 3.07 2.13zm9.91 3.78c0 1.174-1.376 2.122-3.07 2.122-1.693 0-3.07-.948-3.07-2.122 0-1.175 1.377-2.127 3.07-2.127 1.694 0 3.07.95 3.07 2.13zm9.87 0c0 1.174-1.376 2.122-3.07 2.122-1.693 0-3.07-.948-3.07-2.122 0-1.175 1.377-2.127 3.07-2.127 1.694 0 3.07.95 3.07 2.13zm10.01-1.64c0 1.174-1.376 2.122-3.07 2.122-1.693 0-3.07-.948-3.07-2.122 0-1.175 1.377-2.127 3.07-2.127 1.694 0 3.07.95 3.07 2.13z"/><path fill="#9CDAF1" d="M69.37 186.12l-3.067 10.683s-.8 3.86 2.84 4.546c3.8-.075 3.486-3.628 3.223-4.782z"/></svg>