<?xml version="1.0" encoding="utf-8"?>
<!-- Generator: Adobe Illustrator 16.0.0, SVG Export Plug-In . SVG Version: 6.00 Build 0)  -->
<!DOCTYPE svg PUBLIC "-//W3C//DTD SVG 1.1//EN" "http://www.w3.org/Graphics/SVG/1.1/DTD/svg11.dtd">
<svg version="1.1" id="planete-vie" xmlns="http://www.w3.org/2000/svg" xmlns:xlink="http://www.w3.org/1999/xlink" x="0px"
	 y="0px" width="1179.118px" height="1286.758px" viewBox="-13.735 -286.758 1179.118 1286.758"
	 enable-background="new -13.735 -286.758 1179.118 1286.758" xml:space="preserve">
<path id="planete-vie-oceans" fill="#4242FC" d="M999.277,499.151c0,276.1-223.826,499.926-499.928,499.926
	c-276.101,0-499.926-223.826-499.926-499.926c0-276.097,223.826-499.923,499.927-499.923
	C775.452-0.772,999.277,223.054,999.277,499.151z"/>
<g id="planete-vie-continents">
	<path fill="#1B8E65" d="M614.145,833.061c0,0-63.826-69.145-71.805-82.439c-7.977-13.295-37.228-85.102-50.522-93.078
		c-13.296-7.979-87.76-53.189-98.404-61.167c-10.637-7.977-114.352-26.591-114.352-26.591l-77.122,50.522l-58.501,66.485
		l-86.212,45.852c77.769,146.944,226.613,250.447,400.764,264.722l7.227-31.339l74.464-82.44L614.145,833.061z"/>
	<path fill="#1B8E65" d="M93.876,206.716l30.94,25.322l26.599,50.527c0,0,31.91,23.933,39.887,23.933
		c7.978,0,39.895-5.314,39.895-5.314l101.056,5.314l29.25,42.554c0,0,63.827,5.318,74.463,5.318
		c10.637,0,106.374-34.569,106.374-34.569l2.659-53.19c0,0-45.205-37.231-58.501-39.891c-13.295-2.66-47.872-10.637-47.872-10.637
		l-10.637-55.846l13.296-53.19l-37.228-71.801l-22.798-21.953C263.791,41.748,162.541,111.674,93.876,206.716z"/>
	<path fill="#1B8E65" d="M558.295,72.479l10.645,79.778l95.736,37.232l85.102-66.482l19.673-44.598
		c-44.38-28.544-93.559-50.261-146.074-63.666L558.295,72.479z"/>
	<path fill="#1B8E65" d="M779.025,375.644l-61.167,5.318l-55.844,61.168l5.319,69.146c0,0,85.101,29.251,98.396,34.568
		c13.295,5.318,77.122-29.251,77.122-29.251l-5.317-90.418L779.025,375.644z"/>
</g>
<path id="planete-vie-ombre" opacity="0.1" fill="#22252E" enable-background="new    " d="M807.135,105.354
	C873.561,190.221,913.26,297.01,913.26,413.135c0,276.1-223.825,499.928-499.926,499.928c-116.131,0-222.91-39.7-307.777-106.135
	c91.5,116.92,233.817,192.149,393.793,192.149c276.102,0,499.928-223.826,499.928-499.926
	C999.277,339.174,924.048,196.861,807.135,105.354z"/>
<g id="planete-vie-contact">
	<g id="planete-vie-contact-letters">
		
			<path id="t2" fill-rule="evenodd" clip-rule="evenodd" fill="#1B8E65" stroke="#1B8E65" stroke-width="3" stroke-miterlimit="10" d="
			M1158.565,244.21c-0.348-0.819-0.949-1.289-1.848-1.349c-0.505-0.035-1.034-0.183-1.512-0.083
			c-1.297,0.269-2.354,0.037-3.306-0.97c-0.465-0.49-1.212-0.706-1.813-1.078c-2.834-1.751-5.646-3.49-7.925-6.021
			c-2.236-2.483-4.192-5.127-6.073-7.887c-2.965-4.354-5.838-8.766-8.747-13.155c-4.13-6.23-7.042-13.182-11.541-19.197
			c-3.04-4.065-5.297-8.627-7.862-12.992c-1.531-2.606-3.905-4.641-5.244-7.408c-0.524-1.088-1.027-2.222-1.747-3.178
			c-2.908-3.871-5.724-7.812-8.58-11.716c-5.662-7.742-11.222-15.589-16.332-23.701c-3.549-5.633-7.354-11.149-10.088-17.3
			c-2.746-6.18-5.896-12.184-7.071-18.943c-0.19-1.096-0.426-2.189-0.72-3.262c-0.172-0.624-0.892-1.311-1.298-0.881
			c-1.177,1.249-3.321,0.896-4.119,2.284c-1.75,3.047-3.908,5.941-4.48,9.556c-0.298,1.876-0.629,3.748-0.996,5.919
			c-0.632-0.068-1.044-0.063-1.427-0.162c-3.167-0.827-6.392-0.968-9.636-0.813c-3.476,0.167-6.471,1.583-9.078,3.792
			c-1.184,1.002-0.881,2,0.656,2.304c1.394,0.277,2.678,0.639,3.988,1.287c2.271,1.121,4.321,2.626,6.542,3.732
			c6.531,3.246,11.035,8.396,14.848,14.383c3.26,5.122,6.441,10.319,10.032,15.205c2.468,3.354,4.938,6.64,6.495,10.523
			c1.563,3.904,2.466,7.92,1.87,12.165c-0.142,1.012-0.394,1.942-1.024,2.81c-2.113,2.906-4.765,5.344-7.74,7.168
			c-4.236,2.596-8.295,5.435-12.459,8.127c-7.722,4.999-15.528,9.866-23.291,14.802c-5.372,3.418-10.975,6.448-16.34,9.89
			c-6.969,4.468-14.189,8.538-21.459,12.513c-5.333,2.916-10.625,5.874-16.116,8.503c-7.183,3.437-14.106,2.671-21.041-0.43
			c-0.866-0.387-1.495-0.937-2.433-0.188c-0.959,0.767-0.693,1.729-0.319,2.479c1.303,2.623,2.369,5.342,3.933,7.866
			c2.379,3.846,5.866,6.056,9.835,7.73c1.934,0.814,3.938,1.457,5.88,2.167c-0.084,1.801-1.07,3.155-1.624,4.662
			c-0.979,2.677,0.23,5.162,0.546,7.742c0.529,4.342,2.419,7.808,5.769,10.594c1.186,0.987,2.044,1.236,3.426,0.252
			c0.986-0.702,1.381-1.547,1.36-2.505c-0.04-1.74,0.665-3.181,1.523-4.537c3.502-5.515,6.697-11.282,11.561-15.776
			c3.339-3.083,6.733-6.069,10.93-8.1c3.173-1.537,6.109-3.615,9.005-5.657c4.03-2.842,7.88-5.942,11.889-8.814
			c4.693-3.361,9.509-6.552,14.209-9.903c2.486-1.772,5.123-3.271,7.75-4.806c4.29-2.507,8.823-4.514,13.239-6.764
			c3.148-1.606,6.251-3.322,9.283-5.144c3.428-2.061,6.854-4.152,10.097-6.486c3.841-2.763,5.943-2.976,9.865-0.118
			c4.683,3.414,9.129,7.229,12.356,12.014c5.149,7.636,10.656,15.026,15.636,22.77c5.309,8.25,8.512,17.154,6.967,27.221
			c-0.09,0.585-0.036,1.214,0.065,1.806c0.398,2.355,1.294,2.896,3.213,1.52c2.947-2.112,5.727-4.488,7.819-7.502
			c1.915-2.761,3.254-5.768,3-9.331c0.729,0.076,1.239,0.079,1.725,0.187c7.457,1.651,13.678-0.827,19.173-5.729
			C1158.376,245.741,1158.967,245.161,1158.565,244.21z M1058.336,128.857c-0.042,0.153-0.069,0.315-0.082,0.482
			C1058.267,129.172,1058.294,129.011,1058.336,128.857z M1118.281,226.325c-0.648-0.938-0.752-1.924,0.151-2.692
			c-0.903,0.769-0.8,1.754-0.149,2.693c0.418,0.658,0.912,1.09,1.433,1.278C1119.195,227.416,1118.7,226.983,1118.281,226.325z
			 M1128.082,253.034c0.376,0.372,0.801,0.554,1.282,0.448C1128.883,253.588,1128.458,253.406,1128.082,253.034z"/>
		
			<path id="c" fill-rule="evenodd" clip-rule="evenodd" fill="#1B8E65" stroke="#1B8E65" stroke-width="3" stroke-miterlimit="10" d="
			M992.838,166.107c-0.645-5.585-2.318-10.314-7.134-13.699c-1.687-1.186-3.538-1.915-5.313-2.825
			c-3.605-1.845-7.468-3.283-11.449-3.875c-8.838-1.316-17.544-0.48-25.898,2.868c-5.513,2.211-10.809,4.579-14.826,9.424
			c-5.39,6.496-10.045,13.345-11.483,21.724c-1.124,6.537-1.452,13.199-0.006,19.857c0.781,3.596,2.35,6.736,4.682,9.351
			c3.161,3.544,6.896,6.484,11.195,8.694c8.249,4.24,16.655,5.807,25.596,2.295c4.026-1.58,7.662-3.669,10.513-6.979
			c0.601-0.699,1.301-1.402,0.765-2.411c-0.493-0.923-1.354-0.662-2.155-0.5c-4.395,0.879-8.432-0.348-12.282-2.26
			c-9.028-4.486-15.256-10.85-14.697-21.88c0.192-3.792,1.543-6.837,4.324-9.333c2.764-2.476,6.175-3.746,9.507-5.18
			c3.255-1.398,6.516-1.768,10.061-1.073c5.667,1.112,11.308,6.456,12.045,12.124c0.49,3.753-0.213,7.415-1.42,10.996
			c-0.338,1.005-1.18,1.958-0.599,3.319c3.461,0.093,6.352-1.626,9.272-3.207c5.62-3.046,8.281-8.102,8.98-14.178
			C993.018,174.981,993.353,170.585,992.838,166.107z"/>
		
			<path id="a" fill-rule="evenodd" clip-rule="evenodd" fill="#1B8E65" stroke="#1B8E65" stroke-width="3" stroke-miterlimit="10" d="
			M937.53,115.555c-0.181-2.712-0.392-5.393-0.695-8.098c-0.435-3.896-2.212-7.007-4.373-10.05
			c-1.854-2.612-4.873-3.882-7.133-6.021c-1.472-1.239-2.809-2.708-4.439-3.677c-8.628-5.118-17.986-7.281-27.93-5.812
			c-4.138,0.612-8.362,1.355-11.968,4.011c-4.975,3.667-9.701,7.606-13.616,12.369c-1.636,1.989-3.795,3.687-4.707,6.19
			c-1.521,4.177-2.98,8.397-3.808,12.773c-1.187,6.288-0.935,12.417,2.701,18.011c0.275,0.422,0.515,0.869,0.735,1.321
			c3.733,7.613,9.874,11.822,18.236,12.842c2.211,0.271,4.438,0.408,6.657,0.599c1.026,0.088,1.519,0.5,1.033,1.581
			c-0.37,0.83-0.713,1.672-1.062,2.51c-0.665,1.606-1.161,3.248-0.986,5.017c0.339,3.422,0.661,6.831,1.343,10.227
			c0.553,2.753,1.729,4.946,3.719,6.75c1.574,1.426,3.254,2.74,4.962,4.007c1.588,1.178,3.503,1.515,5.419,1.715
			c1.328,0.138,2.281-0.41,2.021-1.884c-0.508-2.883,0.269-5.635,0.68-8.42c0.849-5.754,2.932-11.024,6.076-15.943
			c1.432-2.239,3.316-4.09,4.759-6.272c3.238-4.901,7.051-9.357,10.648-13.972c2.779-3.564,5.814-6.93,8.438-10.624
			C936.19,121.963,937.777,119.218,937.53,115.555z M910.388,116.042c-0.061,2.992-1.207,5.494-3.416,7.561
			c-4.36,5.09-9.746,7.987-16.665,7.303c-5.576-0.548-9.427-3.774-12.255-8.341c-0.914-1.48-0.951-3.232-0.534-4.999
			c1.267-5.356,4.115-9.475,8.995-12.173c2.823-1.559,5.497-3.442,8.688-4.179c2.84-0.657,5.568-0.729,8.536,0.273
			c5.356,1.808,5.83,6.267,6.678,10.625C910.659,113.371,910.414,114.729,910.388,116.042z"/>
		
			<path id="t" fill-rule="evenodd" clip-rule="evenodd" fill="#1B8E65" stroke="#1B8E65" stroke-width="3" stroke-miterlimit="10" d="
			M998.363,11.33c-0.724-0.617-1.402-0.715-2.205-0.601c-5.744,0.802-11.042-0.926-16.178-3.094
			c-5.233-2.208-9.913-5.496-14.571-8.673c-3.905-2.662-7.874-5.254-11.717-8.03c-8.25-5.96-16.67-11.7-25.291-17.134
			c-5.028-3.169-9.569-7.048-14.593-10.242c-1.18-0.75-2.506-1.315-3.47-2.423c-1.651-1.896-3.829-3.163-5.842-4.614
			c-5.571-4.018-11.378-7.717-16.535-12.292c-4.68-4.152-9.41-8.25-14.014-12.482c-5.386-4.951-10.382-10.252-13.329-17.103
			c-0.416-0.97-1.068-1.718-1.675-2.479c-1.126-1.421-2.251-1.219-2.975,0.412c-2.296,5.186-3.171,10.582-2.356,16.229
			c0.231,1.602,1.136,3.049,1.043,4.833c-2.231,0.537-4.491,1.032-6.721,1.629c-4.081,1.094-7.801,2.825-10.518,6.244
			c-0.474,0.593-0.864,1.219-0.463,1.926c0.363,0.638,1.006,0.969,1.805,0.847c3.311-0.509,6.381,0.43,9.455,1.495
			c4.785,1.658,9.438,3.537,13.817,6.151c7.92,4.727,15.757,9.496,21.992,16.482c3.613,4.049,6.762,8.184,7.334,13.892
			c0.246,2.455,0.009,4.506-1.191,6.667c-2.369,4.27-5.45,8.043-8.199,12.038c-3.954,5.741-8.252,11.242-12.162,17.031
			c-3.219,4.767-6.692,9.365-9.833,14.19c-0.33,0.51-0.672,1.036-1.104,1.45c-1.999,1.906-3.43,4.24-5.039,6.448
			c-2.024,2.781-3.903,5.762-6.366,8.109c-2.966,2.826-5.193,6.186-7.8,9.261c-3.606,4.251-7.148,8.562-11.75,11.804
			c-5.899,4.157-12.19,7.514-19.058,9.88c-4.422,1.524-8.769,3.099-13.5,3.162c-0.836,0.01-1.693-0.081-1.984,0.935
			c-0.286,0.995,0.121,1.832,0.933,2.383c2.257,1.532,4.15,3.517,6.556,4.893c5.109,2.928,10.439,4.19,16.318,3.128
			c3.062-0.554,6.191-0.738,9.442-1.104c-0.021,1.14,0.145,2.572-0.104,3.927c-0.679,3.673,0.215,7.051,1.726,10.309
			c0.634,1.364,1.67,2.536,2.354,3.881c2.656,5.212,7.097,8.478,12.09,11.086c2.783,1.453,4.064,0.514,4.174-2.597
			c0.04-1.095-0.787-1.606-1.212-2.35c-0.441-0.771-1.133-1.379-1.308-2.336c-1.219-6.663-0.295-13.112,2.099-19.357
			c1.67-4.357,4.406-8.145,6.85-12.096c3.402-5.499,7.17-10.762,10.482-16.302c1.92-3.207,4.406-5.978,6.281-9.212
			c1.815-3.133,3.898-6.166,6.052-9.05c3.253-4.356,6.664-8.622,9.635-13.161c3.389-5.166,6.97-10.187,10.444-15.288
			c2.805-4.111,6.303-7.642,9.44-11.471c1.438-1.755,2.986-3.243,4.869-4.445c2.48-1.582,5.178-2.35,8.03-3.123
			c2.923-0.791,5.284-0.456,7.805,0.565c4.327,1.754,8.195,4.36,12.021,6.963c7.471,5.08,14.285,11.015,20.842,17.19
			c5.474,5.156,9.857,11.246,12.846,18.212c0.488,1.141,1.364,1.059,2.147,1.272c0.925,0.254,1.399-0.453,1.863-1.181
			c1.974-3.083,3.728-6.283,4.532-9.875c0.504-2.242,1.081-4.576,0.043-6.84c-0.638-1.394,0.112-1.895,1.245-2.048
			c1.506-0.206,2.923-0.473,4.32-1.214c3.817-2.028,7.194-4.536,9.717-8.084c0.614-0.861,1.416-1.34,2.335-1.82
			C999.918,13.253,999.817,12.572,998.363,11.33z"/>
		
			<path id="n" fill-rule="evenodd" clip-rule="evenodd" fill="#1B8E65" stroke="#1B8E65" stroke-width="3" stroke-miterlimit="10" d="
			M819.384,0.915c-1.188-2.701-1.959-5.721-5.287-6.766c-0.36-0.115-0.664-0.44-0.975-0.691c-4.259-3.417-8.79-6.464-12.903-10.101
			c-4.604-4.071-7.802-8.982-9.942-14.597c-2.973-7.802-8.318-13.263-15.783-16.743c-1.543-0.719-3.224-1.251-4.999-1.021
			c-1.767,0.231-2.243,0.823-1.563,2.409c1.083,2.534,1.42,5.227,2.041,7.863c1.211,5.131,0.308,9.945-1.774,14.718
			c-1.232,2.824-3.229,5.076-4.881,7.573c-3.574,5.398-6.748,11.07-10.816,16.136c-1.71,2.129-3.535,4.168-5.242,6.3
			c-5.65,7.054-11.861,13.541-18.928,19.201c-1.206,0.965-2.497,1.655-3.84,2.363c-2.361,1.245-5.063,1.403-7.436,2.532
			c-1.621,0.771-1.717,1.258-0.297,2.315c5.111,3.814,10.707,6.498,17.198,6.867c2.604,0.148,2.545,0.122,3.431,2.659
			c1.317,3.778,3.058,7.279,6.781,9.338c0.705,0.391,1.303,0.97,1.982,1.406c1.516,0.969,2.309,0.615,2.326-1.143
			c0.055-5.114,1.315-9.865,3.39-14.561c3.521-7.982,7.16-15.858,12.511-22.821c2.158-2.807,4.369-5.557,7.071-7.887
			c3.815-3.289,8.186-5.223,13.236-5.3c3.343-0.05,6.32,1.283,7.787,4.316c1.603,3.314,1.968,7.03,1.019,10.668
			c-0.741,2.833-1.837,5.566-3.046,8.243c-3.217,7.124-7.397,13.693-11.574,20.267c-3.303,5.195-7.626,9.384-12.659,12.855
			c-1.993,1.373-4,2.697-6.731,1.825c-1.244-0.397-2.061,0.792-1.578,2.071c0.24,0.644,0.611,1.337,1.125,1.767
			c3.963,3.303,8.284,5.816,13.682,5.605c1.22-0.047,1.763,0.317,2.029,1.588c0.263,1.249,0.6,2.629,1.617,3.527
			c2.894,2.56,5.953,4.886,9.738,6.024c1.764,0.531,2.422,0.081,2.426-1.766c0.001-0.488-0.088-1.018-0.291-1.458
			c-1.305-2.836-0.76-5.625,0.467-8.233c3.324-7.066,7.83-13.426,12.39-19.715c3.146-4.338,6.119-8.795,8.691-13.455
			c3.164-5.732,5.727-11.782,7.852-18.013c0.726-2.132,0.767-4.35,1.452-6.457C820.118,7.426,820.824,4.198,819.384,0.915z"/>
		
			<path id="o" fill-rule="evenodd" clip-rule="evenodd" fill="#1B8E65" stroke="#1B8E65" stroke-width="3" stroke-miterlimit="10" d="
			M742.949-37.121c-1.47-2.622-2.613-5.396-4.168-8.005c-2.263-3.798-5.666-6.301-8.692-9.188c-1.491-1.42-3.026-2.934-4.766-4.163
			c-2.969-2.101-6.598-2.531-9.572-4.008c-7.331-2.218-10.927-2.166-17.379-0.799c-8.684,1.843-15.052,7.173-20.87,13.327
			c-4.05,4.284-6.783,9.424-9.319,14.773c-3.746,7.909-5.978,16.014-5.951,24.783c0.016,5.434,0.971,10.771,2.746,15.759
			c1.393,3.911,4.164,7.418,7.914,9.744c1.882,1.164,3.766,2.334,5.654,3.483c5.855,3.562,12.234,4.648,18.913,4.495
			c2.695-0.063,5.39,0.158,8.084-0.733c3.563-1.184,6.951-2.73,10.368-4.225c6.096-2.665,11.304-6.577,15.712-11.541
			c4.703-5.296,7.104-11.809,9.465-18.318c2.34-6.465,2.256-13.291,2.635-20.026C743.821-33.539,743.847-35.516,742.949-37.121z
			 M696.509,0.836c-5.734-0.69-10.557-3.312-13.174-8.845c-1.097-2.321-1.447-4.768-0.781-7.371
			c1.344-5.258,3.403-10.205,6.652-14.528c3.531-4.699,8.392-7.811,13.731-10.122c1.779-0.77,3.726-0.966,5.664-0.271
			c2.364,1.141,4.775,2.196,7.08,3.448c1.928,1.049,3.173,2.741,3.852,4.867c1.564,4.902,1.236,9.625-0.645,14.438
			c-1.641,4.206-3.845,8.006-6.719,11.42C708.101-1.287,702.945,1.611,696.509,0.836z"/>
		
			<path id="c1" fill-rule="evenodd" clip-rule="evenodd" fill="#1B8E65" stroke="#1B8E65" stroke-width="3" stroke-miterlimit="10" d="
			M704.986-171.973c-0.746-3.288-2.39-6.229-3.36-9.386c-1.27-4.12-3.866-7.307-6.44-10.491c-4.048-5.009-9.184-8.913-14.669-12.166
			c-6.025-3.574-12.589-5.928-19.647-6.743c-3.559-0.41-7.08,0.177-10.62,0.025c-2.46-0.106-2.608-0.327-2.675-2.82
			c-0.155-5.967,1.469-11.593,3.25-17.162c1.876-5.871,3.57-11.797,5.762-17.58c1.473-3.886,2.877-7.749,5.127-11.256
			c3.524-5.492,7.914-10.202,12.961-14.316c0.963-0.785,1.774-1.403,1.071-3.006c-0.775-1.766-2.03-1.527-3.221-1.191
			c-2.543,0.717-5.172,1.027-7.7,1.692c-3.505,0.922-7.106,1.712-10.334,3.439c-13.217,7.076-23.429,17.103-30.165,30.621
			c-2.589,5.196-4.226,10.707-5.899,16.195c-1.7,5.565-3.037,11.266-2.885,17.174c0.044,1.72,0.129,3.438,0.24,5.152
			c0.037,0.535,0.094,1.147-0.484,1.269c-2.729,0.579-4.206,2.992-6.438,4.292c-2.181,1.272-4.183,2.815-6.336,4.144
			c-6.709,4.136-11.831,10.053-17.148,15.727c-1.515,1.614-3.116,3.207-4.318,5.044c-4.585,7.001-9.284,13.93-13.094,21.418
			c-1.377,2.704-2.581,5.502-4.102,8.125c-2.646,4.563-4.812,9.36-6.623,14.278c-2.898,7.882-5.322,15.899-6.072,24.37
			c-0.687,7.764-2.211,15.449-2.194,23.287c0,1.4,0.028,2.806-0.069,4.223c-0.331,4.837-0.634,9.674-0.118,14.543
			c0.638,6.053,2.071,11.94,3.249,17.883c0.193,0.98,0.531,1.928,0.97,2.859c1.816,3.841,3.349,7.78,4.438,11.91
			c0.696,2.638,1.995,5.056,3.664,7.273c3.738,4.97,8.221,9.225,12.979,13.14c2.699,2.219,5.614,4.255,8.937,5.645
			c5.238,2.194,10.518,4.041,16.167,4.985c6.408,1.07,12.771,1.957,19.27,1.227c0.797-0.09,1.646-0.1,2.424,0.061
			c3.093,0.639,5.842-0.576,8.411-1.859c3.693-1.846,7.237-4.019,10.705-6.265c3.375-2.184,6.292-4.909,8.459-8.368
			c2.582-4.12,4.906-8.333,6.244-13.061c1.378-4.878,2.361-9.707,1.805-14.879c-0.418-3.867-1.725-7.461-2.445-11.216
			c-0.39-2.013-1.074-2.24-2.955-1.401c-1.002,0.445-1.26,1.273-1.505,2.112c-1.215,4.143-4.202,7.105-7.012,10.07
			c-3.086,3.256-7.052,5.425-11.146,7.251c-3.544,1.581-7.346,2.877-11.153,2.438c-6.235-0.721-12.094-2.848-17.668-5.942
			c-5.964-3.313-9.996-8.129-12.12-14.394c-2.174-6.406-3.807-13.009-4.309-19.802c-0.806-10.889-1.602-21.78-1.317-32.717
			c0.065-2.556,0.465-5.01,1.363-7.406c0.747-1.989,1.289-4.028,1.46-6.176c0.224-2.856,1.137-5.636,2.45-8.072
			c2.479-4.603,5.449-8.938,8.688-13.073c3.06-3.907,6.609-7.379,9.809-11.153c3.889-4.588,8.438-8.271,13.506-11.346
			c0.265,0.246,0.481,0.354,0.541,0.52c0.211,0.568,0.402,1.147,0.534,1.736c1.118,4.947,2.275,9.928,4.848,14.326
			c2.641,4.516,5.004,9.196,9.841,12.18c3.439,2.124,6.928,4.16,10.388,6.247c4.687,2.829,9.889,4.056,15.112,5.121
			c6.359,1.294,12.683,0.057,18.988-0.856c2.629-0.382,4.939-1.411,7.233-2.758c4.004-2.354,7.276-5.561,9.882-9.207
			c4.041-5.654,6.315-12.153,7.049-19.134C707.166-160.883,706.245-166.429,704.986-171.973z M675.217-156.67
			c-1.267,1.502-3.174,2.056-4.943,2.758c-3.296,1.307-5.758-0.042-8.018-2.382c-3.846-3.98-5.468-9.073-7.29-14.083
			c-0.374-1.031-0.49-2.117-0.94-3.155c-1.003-2.296-0.47-2.91,1.938-2.569c0.302,0.042,0.604,0.071,0.903,0.106
			c4.431,0.488,7.986,2.969,11.666,5.143c1.034,0.611,1.937,1.444,2.904,2.169c2.218,1.659,3.627,3.757,3.636,6.625
			c0.001,0.202-0.05,0.426,0.019,0.603C675.698-159.868,676.513-158.211,675.217-156.67z"/>
	</g>
</g>
</svg>
