<?xml version="1.0" encoding="utf-8"?>
<!-- Generator: Adobe Illustrator 16.0.0, SVG Export Plug-In . SVG Version: 6.00 Build 0)  -->
<!DOCTYPE svg PUBLIC "-//W3C//DTD SVG 1.1//EN" "http://www.w3.org/Graphics/SVG/1.1/DTD/svg11.dtd">
<svg version="1.1" id="Layer_1" xmlns="http://www.w3.org/2000/svg" xmlns:xlink="http://www.w3.org/1999/xlink" x="0px" y="0px"
	 width="1000px" height="1000px" viewBox="0 0 1000 1000" enable-background="new 0 0 1000 1000" xml:space="preserve">
<circle fill="#D7FFFB" cx="498.472" cy="499.021" r="499.048"/>
<g>
	<path fill="#ADF4E4" d="M695.087,957.785L12.908,383.964C5.21,416.567,0.732,450.394-0.224,485.119l598.022,503.031
		C631.601,981.323,664.145,971.06,695.087,957.785z"/>
	<path fill="#ADF4E4" d="M84.696,219.935c-16.285,24.1-30.397,49.76-42.33,76.602l733.742,617.191
		c24.31-16.31,47.025-34.758,68.048-54.967L84.696,219.935z"/>
	<path fill="#ADF4E4" d="M335.826,27.231l655.329,551.227c4.142-25.878,6.364-52.393,6.364-79.437c0-9.442-0.318-18.8-0.83-28.108
		L440.872,3.391C404.52,7.571,369.376,15.667,335.826,27.231z"/>
	<path fill="#ADF4E4" d="M915.56,772.952c16.017-24.344,30.003-50.138,41.626-77.206L226.194,80.882
		c-24.586,16.045-47.655,34.184-68.979,54.183L915.56,772.952z"/>
</g>
<path opacity="0.1" fill="#22252E" d="M805.709,105.925c66.312,84.711,105.942,191.308,105.942,307.229
	c0,275.616-223.432,499.048-499.047,499.048c-115.921,0-222.519-39.63-307.237-105.943
	c91.352,116.71,233.411,191.811,393.105,191.811c275.615,0,499.048-223.433,499.048-499.048
	C997.52,339.328,922.419,197.26,805.709,105.925z"/>
</svg>
