<svg xmlns="http://www.w3.org/2000/svg" width="1102" height="617" viewBox="0 0 1102 617"><path fill="#FFFACF" d="M854.535 307.947c0 170.178-137.957 308.134-308.134 308.134S238.27 478.126 238.27 307.948c0-170.175 137.954-308.13 308.13-308.13s308.135 137.955 308.135 308.13z"/><g fill="#F0CEE7"><path d="M326.78 256.567c70.7-10.395 139.107-27.884 208.9-42.815 64.528-13.804 126.277-30.903 186.238-58.91 22.867-10.683 49.69-17.184 74.752-26.544-3.08-4.28-6.26-8.482-9.546-12.595-27.3 10.915-57.553 17.635-82.526 29.3-67.118 31.35-136.956 45.758-208.596 62.307-65.68 15.173-130.52 28.398-197.11 38.828-18.838 2.95-37.775 6.484-56.4 11.114-.88 5.328-1.634 10.693-2.24 16.108 28.375-7.818 57.814-12.572 86.528-16.793zM654.137 19.22C535.115 75.707 414.04 134.557 283.595 147.054c-1.842 3.004-3.586 6.07-5.328 9.14 137.71-12.187 264.234-72.76 389.405-131.56-4.457-1.91-8.97-3.71-13.535-5.412zM844.12 326.452c3.376-1.88 6.738-3.774 10.09-5.69.174-4.257.325-8.516.325-12.814 0-3.775-.15-7.517-.285-11.26-4.88 2.832-9.76 5.64-14.624 8.416-55.17 31.507-113.765 55.738-170.722 83.67-56.73 27.826-110.438 61.816-166.446 91.12-48.496 25.374-98.185 48.384-149.234 68.046 6.273 5.056 12.73 9.89 19.394 14.45 41.095-16.275 81.31-34.622 120.843-54.535 58.665-29.55 114.482-64.21 172.718-94.472 58.64-30.477 120.117-54.767 177.94-86.93zM778.372 432.822c-53.192 13.933-106.475 29.85-153.73 58.675-10.367 6.327 8.597 11.81 14.948 7.935 54.28-33.116 116.69-48.212 177.645-63.94 3.623-.937 7.336-2.01 11.074-3.158 2.385-5.4 4.65-10.862 6.728-16.42-19.023 7.18-38.91 12.256-56.666 16.908zM538.995 397.66c4.335-2.725-11.474-15.282-15.73-12.607-71.12 44.724-141.995 89.033-224.523 106.214 3.455 4.66 7.037 9.218 10.747 13.67 84.68-16.392 156.95-61.655 229.505-107.276zM430.672 280.884c-57.68 35.434-123.402 54.063-190.086 64.283.628 5.21 1.385 10.378 2.27 15.503 69.872-10.598 138.942-30.005 199.256-67.058 11.6-7.127-2.18-18.418-11.44-12.728zM337.185 419.463c31.45-15.512 61.937-33.108 94.43-46.41 35.3-14.45 74.284-19.875 111.17-29.032 34.715-8.617 68.612-19.65 101.064-34.762 33.35-15.53 65.287-32.774 100.094-45.08 31.477-11.13 64.263-17.552 97.28-21.993 2-.27 4.007-.533 6.023-.797-1.185-5.356-2.506-10.654-3.96-15.9-3.363.453-6.72.894-10.055 1.34-35.202 4.688-69.553 11.415-103.258 22.78-32.352 10.91-63.1 26.217-93.394 41.81-33.97 17.482-70.884 28.62-107.768 38.036-34.815 8.882-70.74 14.494-104.655 26.535-35.22 12.505-67.408 32.676-100.942 48.906-19.413 9.394-39.242 18.02-59.12 26.557 2.56 5.852 5.316 11.593 8.224 17.242 21.826-9.337 43.618-18.752 64.865-29.232z"/></g><g fill="#BE8DF8"><path d="M1099.86 106.5c-7.43-28.137-49.372-43.01-121.3-43.01-8.848 0-18.262.23-27.978.68-53.924 2.505-117.464 11.863-185.793 26.475 1.153 1.16 2.313 2.318 3.448 3.498 67.105-14.24 129.485-23.348 182.54-25.812 9.65-.45 19-.675 27.783-.675 69.828 0 110.378 13.8 117.274 39.91 4.794 18.15-2.306 70.73-171.382 166.75C704 399.515 356.634 509.175 150.11 518.775c-9.646.448-18.994.676-27.782.676-69.82 0-110.37-13.802-117.268-39.91-4.792-18.148 2.308-70.732 171.385-166.753 20.08-11.405 41.236-22.674 63.218-33.755.153-1.644.314-3.283.492-4.92-22.904 11.5-44.907 23.206-65.768 35.056C53.567 377.782-9.617 440.272 1.037 480.605c7.433 28.134 49.374 43.01 121.292 43.01 8.85 0 18.263-.23 27.976-.682 207.07-9.623 555.277-119.53 776.207-244.998 120.817-68.616 184.003-131.1 173.348-171.434zM119.945 441.232c6.116 23.156 40.482 35.396 99.38 35.396 7.233 0 14.926-.187 22.862-.553 169.087-7.86 453.417-97.602 633.82-200.053 98.78-56.103 150.424-107.27 141.676-140.375-6.116-23.156-40.48-35.397-99.386-35.397-7.23 0-14.92.188-22.852.555-32.73 1.52-69.802 6.14-109.567 13.292.984 1.218 1.957 2.45 2.926 3.683 38.747-6.89 74.864-11.328 106.833-12.814 7.868-.365 15.493-.55 22.66-.55 55.995 0 89.862 11.47 95.36 32.295 3.897 14.732-1.932 57.44-139.71 135.693-179.92 102.174-463.414 191.675-631.955 199.51-69.338 3.228-111.815-8.25-118.02-31.743-3.64-13.773 1.243-52.014 114.508-120.884-.057-1.586-.055-3.188-.09-4.78-83.554 50.698-126.475 96.326-118.445 126.726zM233.405 303.587C127.275 363.86 71.785 418.8 81.167 454.31c6.556 24.816 43.45 37.936 106.69 37.936 7.772 0 16.036-.2 24.564-.595 181.75-8.448 487.367-104.907 681.27-215.03 106.126-60.27 161.616-115.21 152.235-150.726-6.557-24.814-43.442-37.932-106.672-37.932-7.774 0-16.046.202-24.58.598-39.995 1.858-85.995 7.986-135.48 17.578 1.042 1.204 2.083 2.414 3.108 3.633 48.38-9.285 93.373-15.228 132.57-17.05 8.466-.395 16.672-.594 24.383-.594 60.26 0 96.717 12.372 102.646 34.832 4.19 15.873-2.06 61.873-150.27 146.042C698.21 382.85 393.43 479.068 212.23 487.487 137.59 490.95 91.885 478.58 85.192 453.25 81 437.374 87.25 391.38 235.462 307.207c.94-.535 1.922-1.062 2.866-1.594.012-1.618.085-3.22.122-4.83-1.667.934-3.39 1.865-5.045 2.803zM200.068 306.555c-114.29 64.907-174.053 124.04-163.965 162.23 7.042 26.657 46.733 40.752 114.78 40.752 8.38 0 17.288-.217 26.48-.646 195.805-9.09 525.084-113.018 734.014-231.67 114.296-64.91 174.06-124.043 163.976-162.236-7.044-26.66-46.744-40.75-114.802-40.75-8.372 0-17.277.214-26.465.642-47.618 2.212-103.17 10.07-162.922 22.348 1.11 1.18 2.195 2.378 3.28 3.573C833.032 88.863 887.5 81.21 934.28 79.037c9.122-.426 17.963-.64 26.27-.64 65.02 0 104.357 13.372 110.775 37.65 4.523 17.138-2.2 66.794-162.008 157.554-208.453 118.383-536.892 222.07-732.15 231.134-80.484 3.74-129.804-9.626-137.038-37.012-4.528-17.137 2.195-66.796 161.996-157.546 11.842-6.727 24.12-13.398 36.69-20.013.093-1.648.253-3.277.373-4.916-13.437 7.04-26.506 14.144-39.122 21.308z"/></g><path opacity=".1" fill="#22252E" d="M736.104 65.23c40.943 52.307 65.413 118.127 65.413 189.7 0 170.178-137.956 308.134-308.134 308.134-71.575 0-137.394-24.47-189.7-65.413 56.4 72.063 144.116 118.432 242.718 118.432 170.178 0 308.135-137.956 308.135-308.134 0-98.602-46.368-186.318-118.43-242.718z"/></svg>