<?xml version="1.0" encoding="utf-8"?>
<!-- Generator: Adobe Illustrator 16.0.0, SVG Export Plug-In . SVG Version: 6.00 Build 0)  -->
<!DOCTYPE svg PUBLIC "-//W3C//DTD SVG 1.1//EN" "http://www.w3.org/Graphics/SVG/1.1/DTD/svg11.dtd">
<svg version="1.1" id="Layer_1" xmlns="http://www.w3.org/2000/svg" xmlns:xlink="http://www.w3.org/1999/xlink" x="0px" y="0px"
	 width="1102px" height="617px" viewBox="0 0 1102 617" enable-background="new 0 0 1102 617" xml:space="preserve">
<path fill="#FFFACF" d="M854.535,307.947c0,170.178-137.957,308.134-308.134,308.134S238.27,478.125,238.27,307.947
	c0-170.175,137.954-308.131,308.131-308.131S854.535,137.772,854.535,307.947z"/>
<g>
	<path fill="#F0CEE7" d="M326.78,256.567c70.7-10.395,139.107-27.884,208.901-42.815c64.527-13.804,126.276-30.903,186.237-58.909
		c22.867-10.684,49.691-17.185,74.752-26.545c-3.08-4.281-6.261-8.482-9.546-12.595c-27.301,10.915-57.553,17.635-82.526,29.301
		c-67.118,31.35-136.956,45.757-208.596,62.306c-65.681,15.173-130.521,28.398-197.109,38.828
		c-18.839,2.95-37.776,6.484-56.4,11.114c-0.882,5.328-1.635,10.693-2.241,16.108C268.627,265.542,298.066,260.788,326.78,256.567z"
		/>
	<path fill="#F0CEE7" d="M654.137,19.221C535.115,75.706,414.039,134.556,283.595,147.053c-1.842,3.004-3.586,6.07-5.328,9.139
		c137.709-12.186,264.234-72.76,389.405-131.558C663.215,22.723,658.701,20.922,654.137,19.221z"/>
	<path fill="#F0CEE7" d="M844.119,326.452c3.377-1.879,6.739-3.774,10.091-5.689c0.174-4.258,0.325-8.517,0.325-12.815
		c0-3.775-0.151-7.517-0.285-11.26c-4.881,2.832-9.76,5.641-14.624,8.416c-55.17,31.507-113.765,55.738-170.722,83.671
		c-56.731,27.825-110.438,61.815-166.446,91.12c-48.496,25.373-98.185,48.383-149.234,68.045
		c6.273,5.056,12.731,9.891,19.394,14.449c41.095-16.274,81.309-34.621,120.843-54.534c58.664-29.551,114.481-64.211,172.717-94.472
		C724.817,382.906,786.295,358.616,844.119,326.452z"/>
	<path fill="#F0CEE7" d="M778.372,432.822c-53.192,13.933-106.475,29.85-153.731,58.675c-10.366,6.327,8.598,11.81,14.949,7.935
		c54.279-33.116,116.691-48.212,177.645-63.941c3.623-0.936,7.336-2.01,11.074-3.157c2.386-5.399,4.651-10.862,6.729-16.421
		C816.015,423.094,796.128,428.17,778.372,432.822z"/>
	<path fill="#F0CEE7" d="M538.995,397.661c4.335-2.726-11.474-15.283-15.73-12.608c-71.121,44.724-141.995,89.033-224.523,106.214
		c3.455,4.659,7.037,9.218,10.747,13.671C394.17,488.545,466.44,443.282,538.995,397.661z"/>
	<path fill="#F0CEE7" d="M430.672,280.884c-57.681,35.434-123.402,54.063-190.086,64.283c0.628,5.21,1.385,10.378,2.269,15.503
		c69.873-10.598,138.943-30.005,199.257-67.058C453.712,286.485,439.932,275.194,430.672,280.884z"/>
	<path fill="#F0CEE7" d="M337.185,419.463c31.451-15.512,61.937-33.108,94.43-46.41c35.3-14.449,74.284-19.875,111.171-29.032
		c34.714-8.618,68.611-19.65,101.063-34.763c33.352-15.529,65.288-32.774,100.095-45.08c31.477-11.131,64.263-17.552,97.281-21.993
		c2-0.269,4.006-0.533,6.022-0.797c-1.185-5.356-2.506-10.654-3.961-15.901c-3.362,0.454-6.719,0.895-10.054,1.34
		c-35.202,4.689-69.553,11.416-103.258,22.782c-32.352,10.909-63.101,26.216-93.394,41.808
		c-33.97,17.483-70.884,28.622-107.768,38.037c-34.815,8.882-70.74,14.494-104.655,26.535
		c-35.22,12.506-67.408,32.677-100.942,48.907c-19.413,9.394-39.242,18.02-59.121,26.557c2.562,5.852,5.317,11.593,8.225,17.242
		C294.146,439.358,315.938,429.943,337.185,419.463z"/>
</g>
<g>
	<path fill="#BE8DF8" d="M1099.861,106.501c-7.431-28.138-49.373-43.01-121.3-43.01c-8.849,0-18.263,0.228-27.979,0.68
		c-53.924,2.504-117.464,11.862-185.793,26.474c1.154,1.161,2.314,2.318,3.449,3.498c67.105-14.24,129.485-23.348,182.54-25.812
		c9.651-0.45,18.999-0.676,27.783-0.676c69.827,0,110.377,13.801,117.273,39.909c4.794,18.15-2.306,70.731-171.382,166.751
		C703.999,399.515,356.634,509.174,150.11,518.776c-9.646,0.447-18.994,0.675-27.782,0.675c-69.82,0-110.37-13.803-117.268-39.91
		c-4.792-18.149,2.308-70.733,171.385-166.754c20.08-11.405,41.236-22.674,63.218-33.755c0.153-1.644,0.314-3.283,0.492-4.919
		c-22.904,11.499-44.907,23.205-65.768,35.055C53.567,377.782-9.617,440.272,1.036,480.605c7.434,28.134,49.375,43.01,121.293,43.01
		c8.851,0,18.264-0.231,27.977-0.682c207.071-9.623,555.277-119.53,776.207-244.998
		C1047.33,209.319,1110.516,146.836,1099.861,106.501z"/>
	<path fill="#BE8DF8" d="M119.945,441.232c6.116,23.156,40.482,35.396,99.381,35.396c7.232,0,14.925-0.187,22.861-0.553
		c169.087-7.861,453.417-97.602,633.819-200.053c98.78-56.103,150.425-107.269,141.677-140.375
		c-6.116-23.156-40.479-35.397-99.386-35.397c-7.23,0-14.921,0.188-22.852,0.555c-32.73,1.521-69.802,6.139-109.567,13.292
		c0.984,1.218,1.957,2.45,2.926,3.683c38.747-6.891,74.864-11.328,106.833-12.814c7.868-0.365,15.493-0.551,22.66-0.551
		c55.995,0,89.862,11.47,95.361,32.296c3.896,14.731-1.933,57.44-139.71,135.692C694.028,374.577,410.533,464.078,241.992,471.912
		c-69.338,3.229-111.815-8.249-118.021-31.742c-3.64-13.773,1.244-52.014,114.509-120.884c-0.057-1.586-0.055-3.188-0.089-4.779
		C154.836,365.204,111.915,410.832,119.945,441.232z"/>
	<path fill="#BE8DF8" d="M233.405,303.587C127.275,363.861,71.784,418.8,81.167,454.31c6.556,24.816,43.449,37.936,106.691,37.936
		c7.771,0,16.035-0.199,24.563-0.595c181.75-8.449,487.366-104.908,681.269-215.03c106.126-60.272,161.616-115.21,152.235-150.727
		c-6.557-24.814-43.442-37.932-106.672-37.932c-7.774,0-16.046,0.202-24.58,0.598c-39.995,1.858-85.995,7.986-135.479,17.578
		c1.041,1.204,2.082,2.414,3.107,3.633c48.379-9.286,93.372-15.229,132.569-17.051c8.466-0.395,16.672-0.594,24.383-0.594
		c60.261,0,96.717,12.372,102.646,34.832c4.192,15.873-2.058,61.873-150.268,146.042
		C698.209,382.849,393.428,479.068,212.228,487.487c-74.637,3.464-120.343-8.906-127.036-34.238
		C81,437.375,87.25,391.381,235.463,307.208c0.938-0.535,1.921-1.062,2.865-1.594c0.012-1.618,0.085-3.221,0.122-4.831
		C236.783,301.718,235.059,302.649,233.405,303.587z"/>
	<path fill="#BE8DF8" d="M200.068,306.555C85.778,371.462,26.015,430.594,36.103,468.784c7.042,26.658,46.733,40.753,114.78,40.753
		c8.38,0,17.288-0.217,26.479-0.646c195.806-9.09,525.085-113.019,734.015-231.671c114.296-64.911,174.06-124.043,163.976-162.236
		c-7.044-26.66-46.744-40.751-114.802-40.751c-8.373,0-17.278,0.215-26.466,0.643c-47.618,2.212-103.17,10.071-162.922,22.348
		c1.111,1.18,2.195,2.378,3.281,3.573c58.587-11.934,113.056-19.588,159.835-21.761c9.123-0.425,17.964-0.638,26.271-0.638
		c65.021,0,104.357,13.371,110.775,37.65c4.523,17.137-2.2,66.793-162.008,157.553C700.864,391.983,372.425,495.67,177.168,504.734
		c-80.485,3.74-129.805-9.626-137.039-37.012c-4.527-17.137,2.196-66.796,161.997-157.546c11.842-6.727,24.119-13.398,36.689-20.013
		c0.094-1.648,0.254-3.277,0.374-4.916C225.753,292.286,212.684,299.391,200.068,306.555z"/>
</g>
<path opacity="0.1" fill="#22252E" d="M736.104,65.23c40.943,52.307,65.413,118.127,65.413,189.7
	c0,170.178-137.956,308.134-308.134,308.134c-71.575,0-137.394-24.47-189.7-65.413c56.4,72.062,144.116,118.431,242.718,118.431
	c170.177,0,308.134-137.956,308.134-308.134C854.535,209.346,808.167,121.63,736.104,65.23z"/>
</svg>
