<svg "planete-rouge" version="1.1" xmlns="http://www.w3.org/2000/svg" xmlns:xlink="http://www.w3.org/1999/xlink" x="0" y="0" width="1000" height="1000" viewBox="0 0 1000 1000" enable-background="new 0 0 1000 1000" xml:space="preserve">
  <path id="planete-rouge-core" fill="#A40612" stroke="#A40612" stroke-miterlimit="10" d="M999.1 499.8c0 276.1-223.8 499.9-499.9 499.9S-0.6 775.9-0.6 499.8c0-276.1 223.8-499.8 499.9-499.8S999.1 223.8 999.1 499.8z"/>
  <g id="planete-rouge-circles">
    <circle fill="#C32428" stroke="#C32428" stroke-miterlimit="10" cx="152.7" cy="359.2" r="32.3"/>
    <path fill="#C32428" stroke="#C32428" stroke-miterlimit="10" d="M217.2 561.4c0 23.8 19.3 43 43 43 23.8 0 43-19.3 43-43 0-23.8-19.2-43-43-43C236.5 518.4 217.2 537.6 217.2 561.4z"/>
    <path fill="#C32428" stroke="#C32428" stroke-miterlimit="10" d="M565.6 787.1c0-28.5-23.1-51.6-51.6-51.6 -28.5 0-51.6 23.1-51.6 51.6s23.1 51.6 51.6 51.6C542.5 838.7 565.6 815.6 565.6 787.1z"/>
    <path fill="#C32428" stroke="#C32428" stroke-miterlimit="10" d="M316.2 59.3c0 38.6 31.3 69.9 69.9 69.9s69.9-31.3 69.9-69.9c0-22-10.2-41.6-26.1-54.4 -37.6 5.2-73.9 14.6-108.4 27.8C318.1 40.9 316.2 49.9 316.2 59.3z"/>
    <path fill="#C32428" stroke="#C32428" stroke-miterlimit="10" d="M431.2 417.3c-18.4 0-33.3 14.9-33.3 33.3 0 18.4 14.9 33.3 33.3 33.3s33.3-14.9 33.3-33.3C464.5 432.2 449.6 417.3 431.2 417.3z"/>
    <circle fill="#C32428" stroke="#C32428" stroke-miterlimit="10" cx="353.8" cy="235.6" r="35.5"/>
    <path fill="#C32428" stroke="#C32428" stroke-miterlimit="10" d="M188.2 890.9c10.2-14.5 16.2-32.1 16.2-51.1 0-49.3-39.9-89.2-89.2-89.2 -15.2 0-29.5 3.8-42 10.5C103.7 810.8 142.7 854.7 188.2 890.9z"/>
    <circle fill="#C32428" stroke="#C32428" stroke-miterlimit="10" cx="630.1" cy="410.8" r="55.9"/>
    <path fill="#C32428" stroke="#C32428" stroke-miterlimit="10" d="M719.3 920.4c-31.1 0-56.7 23.2-60.7 53.1 33.1-11.1 64.7-25.6 94.3-43.1C743.3 924.2 731.7 920.4 719.3 920.4z"/>
    <path fill="#C32428" stroke="#C32428" stroke-miterlimit="10" d="M903.1 659.2c0-18.4-14.9-33.3-33.3-33.3s-33.3 14.9-33.3 33.3c0 18.4 14.9 33.3 33.3 33.3S903.1 677.6 903.1 659.2z"/>
    <circle fill="#C32428" stroke="#C32428" stroke-miterlimit="10" cx="670.9" cy="634.5" r="60.2"/>
    <circle fill="#C32428" stroke="#C32428" stroke-miterlimit="10" cx="885.9" cy="387.2" r="66.7"/>
    <path fill="#C32428" stroke="#C32428" stroke-miterlimit="10" d="M703.2 103.4c0 42.8 34.7 77.4 77.4 77.4 28.8 0 53.9-15.8 67.2-39.1 -36.8-35.8-79.1-66-125.5-89.2C710.4 66.1 703.2 83.9 703.2 103.4z"/>
  </g>
  <path id="planete-rouge-shadow" opacity="0.1" fill="#22252E" d="M807 106.1c66.4 84.9 106.1 191.6 106.1 307.7 0 276.1-223.8 499.9-499.9 499.9 -116.1 0-222.9-39.7-307.7-106.1 91.5 116.9 233.8 192.1 393.7 192.1 276.1 0 499.9-223.8 499.9-499.9C999.1 339.9 923.9 197.6 807 106.1z"/>
</svg>
