<?xml version="1.0" encoding="utf-8"?>
<!-- Generator: Adobe Illustrator 16.0.0, SVG Export Plug-In . SVG Version: 6.00 Build 0)  -->
<!DOCTYPE svg PUBLIC "-//W3C//DTD SVG 1.1//EN" "http://www.w3.org/Graphics/SVG/1.1/DTD/svg11.dtd">
<svg version="1.1" id="planete-rouge" xmlns="http://www.w3.org/2000/svg" xmlns:xlink="http://www.w3.org/1999/xlink" x="0px"
	 y="0px" width="984.099px" height="1088.74px" viewBox="-136.744 -88.74 984.099 1088.74"
	 enable-background="new -136.744 -88.74 984.099 1088.74" xml:space="preserve">
<path id="planete-rouge-core" fill="#A40612" stroke="#A40612" stroke-miterlimit="10" d="M839.987,579.658
	c0,231.989-188.046,420.035-420.035,420.035C187.961,999.693,0,811.647,0,579.658c0-231.99,188.046-419.952,420.036-419.952
	C652.027,159.707,839.987,347.751,839.987,579.658z"/>
<g id="planete-rouge-circles">
	<circle fill="#C32428" stroke="#C32428" stroke-miterlimit="10" cx="128.809" cy="461.521" r="27.14"/>
	<path fill="#C32428" stroke="#C32428" stroke-miterlimit="10" d="M183.004,631.417c0,19.998,16.216,36.131,36.13,36.131
		c19.999,0,36.13-16.219,36.13-36.131c0-19.997-16.132-36.129-36.13-36.129C199.221,595.288,183.004,611.42,183.004,631.417z"/>
	<path fill="#C32428" stroke="#C32428" stroke-miterlimit="10" d="M475.744,821.059c0-23.947-19.41-43.355-43.356-43.355
		c-23.946,0-43.356,19.408-43.356,43.355c0,23.946,19.41,43.356,43.356,43.356C456.334,864.415,475.744,845.005,475.744,821.059z"/>
	<path fill="#C32428" stroke="#C32428" stroke-miterlimit="10" d="M266.188,209.533c0,32.433,26.299,58.733,58.733,58.733
		c32.433,0,58.732-26.3,58.732-58.733c0-18.486-8.57-34.954-21.93-45.709c-31.593,4.369-62.094,12.268-91.082,23.359
		C267.785,194.072,266.188,201.634,266.188,209.533z"/>
	<path fill="#C32428" stroke="#C32428" stroke-miterlimit="10" d="M362.815,510.338c-15.461,0-27.98,12.521-27.98,27.98
		c0,15.461,12.519,27.979,27.98,27.979c15.46,0,27.98-12.519,27.98-27.979C390.795,522.858,378.276,510.338,362.815,510.338z"/>
	<circle fill="#C32428" stroke="#C32428" stroke-miterlimit="10" cx="297.781" cy="357.667" r="29.828"/>
	<path fill="#C32428" stroke="#C32428" stroke-miterlimit="10" d="M158.637,908.276c8.571-12.184,13.612-26.973,13.612-42.937
		c0-41.426-33.526-74.95-74.949-74.95c-12.772,0-24.787,3.193-35.29,8.822C87.637,840.973,120.407,877.858,158.637,908.276z"/>
	<circle fill="#C32428" stroke="#C32428" stroke-miterlimit="10" cx="529.938" cy="504.877" r="46.969"/>
	<path fill="#C32428" stroke="#C32428" stroke-miterlimit="10" d="M604.889,933.062c-26.132,0-47.642,19.492-51.005,44.618
		c27.814-9.327,54.366-21.511,79.236-36.215C625.054,936.256,615.307,933.062,604.889,933.062z"/>
	<path fill="#C32428" stroke="#C32428" stroke-miterlimit="10" d="M759.324,713.592c0-15.46-12.52-27.979-27.979-27.979
		c-15.461,0-27.981,12.52-27.981,27.979c0,15.461,12.521,27.979,27.981,27.979C746.805,741.571,759.324,729.053,759.324,713.592z"/>
	<circle fill="#C32428" stroke="#C32428" stroke-miterlimit="10" cx="564.221" cy="692.839" r="50.582"/>
	<circle fill="#C32428" stroke="#C32428" stroke-miterlimit="10" cx="744.872" cy="485.048" r="56.045"/>
	<path fill="#C32428" stroke="#C32428" stroke-miterlimit="10" d="M591.361,246.587c0,35.962,29.155,65.035,65.033,65.035
		c24.199,0,45.289-13.276,56.464-32.853c-30.919-30.081-66.463-55.456-105.449-74.95
		C597.41,215.246,591.361,230.202,591.361,246.587z"/>
</g>
<path id="planete-rouge-shadow" opacity="0.1" fill="#22252E" enable-background="new    " d="M678.577,248.856
	c55.793,71.336,89.15,160.99,89.15,258.542c0,231.989-188.047,420.036-420.037,420.036c-97.552,0-187.289-33.357-258.542-89.151
	c76.882,98.226,196.448,161.411,330.803,161.411c231.989,0,420.035-188.046,420.035-420.035
	C839.987,445.304,776.802,325.738,678.577,248.856z"/>
<g id="planete-rouge-about-me-letters">
	<path id="planete-rouge-about-me-m" fill="#A40612" d="M821.806,206.594c-7.295-11.262-16.342-18.244-30.951-18.242
		c-11.197-0.003-20.445,2.905-27.932,10.535c-6.977,7.109-10.084,15.972-6.297,25.896c1.199,3.143,3.494,5.938,5.605,8.655
		c6.705,8.659,16.561,8.276,24.752,3.541c3.596-2.078,5.057-7.745,3.549-11.179c-1.588-3.614-3.219-3.935-9.229-2.629
		c-2.162,0.465-4.627,0.575-6.725,0.008c-3.447-0.923-5.078-4.325-4.627-8.295c0.441-3.913,3.297-7.318,7.512-7.607
		c6.52-0.451,12.82-0.18,17.988,5.274c7.131,7.519,10.652,16.458,6.766,25.781c-5.09,12.199-13.859,21.841-27.76,24.699
		c-5.213,1.07-10.682,0.83-15.91,1.835c-6.617,1.28-12.586-0.495-18.316-3.174c-10.824-5.043-18.33-13.756-24.605-23.604
		c-4.859-7.631-7.77-15.922-8.359-25.059c-0.373-5.733-1.574-11.412-1.934-17.135c-0.475-7.472-0.438-14.979-0.713-22.465
		c-0.217-5.741-0.812-11.479-0.812-17.222c0-9.798,0.365-19.601,0.541-29.391c0.131-7.236,0.166-14.475,0.359-21.71
		c0.17-6.135,0.59-12.268,0.75-18.405c0.242-9.217,0.27-18.439,0.549-27.652c0.238-7.496,0.668-14.983,1.123-22.467
		c1.066-17.612,6.391-34.387,10.48-51.383c1.299-5.419,2.768-11.319,8.924-13.99c0.705-0.306,1.227-1.445,1.49-2.303
		c2.295-7.495-0.807-13.064-9.777-15.711c-2.207-0.65-4.498-1.255-6.775-1.346c-5.525-0.211-11.135-0.665-16.578,0.024
		c-6.193,0.783-8.92,6.797-5.592,12.036c2.947,4.633,3.238,9.393,2.393,14.425c-0.922,5.494-1.857,11.006-3.236,16.397
		c-1.363,5.367-2.842,10.788-5.045,15.848c-4.691,10.755-10.959,20.646-18.014,30.013c-1.582,2.095-3.619,3.837-5.658,5.966
		c-5.031-4.271-6.363-7.563-6.148-15.004c0.389-13.838,1.285-27.673,1.227-41.507c-0.039-8.142,2.787-14.886,6.873-21.519
		c1.486-2.407,2.654-5.133,3.373-7.87c1.41-5.355-1.521-9.742-7.043-10.4c-9.938-1.185-19.926-2.109-29.896-3
		c-3.25-0.291-6.209,1.22-7.904,3.743c-1.689,2.509-0.955,5.665,0.498,8.284c1.023,1.828,2.316,3.569,3.791,5.057
		c2.26,2.281,2.895,4.871,2.385,7.917c-0.736,4.366-1.555,8.722-2.1,13.111c-1.316,10.675-2.92,21.248-6.465,31.503
		c-2.064,5.959-3.061,12.28-4.674,18.401c-1.998,7.597-4.061,15.18-6.266,22.72c-0.699,2.37-1.98,4.564-2.947,6.858
		c-3.043,7.233-5.387,14.862-9.27,21.614c-5.625,9.796-12.133,19.113-18.662,28.354c-7.404,10.483-17.279,17.926-29.479,22.18
		c-6.832,2.38-13.779,3.592-20.963,2.041c-5.738-1.243-11.348-3.319-14.893-8.095c-5.178-6.968-8.27-14.796-5.984-23.819
		c0.426-1.673,0.627-3.42,0.807-5.133c1.309-12.136,7.479-21.169,17.594-27.709c4.98-3.223,13.393-2.144,18.748,2.426
		c3.088,2.628,3.963,8.772,1.998,14.051c-1.801,4.856-3.004,5.276-7.602,2.672c-2.635-1.493-7.232-0.642-9.326,1.721
		c-1.875,2.113-1.566,5.691,1.014,8.267c5.266,5.255,12.043,7.51,18.967,5.796c6.709-1.661,11.719-6.674,13.561-13.653
		c2.689-10.185,1.781-19.922-3.182-29.608c-5.316-10.384-14.285-14.48-24.68-15.411c-11.621-1.04-21.887,4.128-30.152,11.778
		c-11.76,10.886-18.893,24.549-20.164,40.873c-0.693,8.931-0.68,17.698,4.312,25.695c0.994,1.611,1.51,3.536,2.229,5.319
		c5.467,13.55,12.906,25.23,27.865,29.992c3.105,0.985,5.986,3.104,9.123,3.483c9.252,1.126,18.551,2.227,27.604-1.758
		c4.877-2.15,10.348-3.004,15.09-5.356c6.988-3.457,13.902-7.286,20.229-11.828c4.244-3.041,7.629-7.41,11.004-11.51
		c4.023-4.884,8.111-9.836,11.285-15.275c3.912-6.722,6.984-13.952,10.307-21.008c3.504-7.45,6.846-14.976,10.322-22.433
		c0.453-0.968,1.277-1.756,1.947-2.642c3.893,1.284,5.057,4.463,6.426,7.384c1.807,3.889,3.844,7.579,7.557,9.99
		c4.158,2.708,7.434,2.511,10.922-0.912c2.053-2.004,3.713-4.397,5.621-6.545c2.02-2.275,3.924-4.734,6.27-6.638
		c2.527-2.052,4.73-1.178,5.641,1.883c0.377,1.261,0.443,2.649,0.439,3.983c0,14.018-0.027,28.036-0.062,42.054
		c-0.047,19.436,0.604,38.822,3.779,58.048c1.967,11.896,3.957,23.795,5.676,35.73c1.488,10.285,6.699,19.055,11.141,28.095
		c2.256,4.596,6.633,8.221,8.564,12.887c2.076,5.041,5.896,7.64,10.094,9.603c10.041,4.708,20.141,9.537,30.672,12.893
		c10.662,3.403,22.1,4.132,32.916,0.735c10.09-3.168,20.205-6.316,28.143-14.636c10.182-10.678,18.018-22.043,19.832-37.054
		C828.925,223.663,827.13,214.826,821.806,206.594z"/>
	<path id="planete-rouge-about-me-bout" fill="#A40612" d="M345.271-74.515c-5.54,2.164-7.516,7.414-10.947,11.432
		c-1.82,2.134-3.807,4.424-6.217,5.708c-12.718,6.785-25.68,13.114-38.389,19.92c-7.445,3.988-14.706,8.36-21.796,12.955
		c-8.545,5.536-17.396,9.575-27.906,8.729c-1.875-0.15-3.849,0.259-5.708,0.702c-6.414,1.524-9.453,7.248-6.992,13.28
		c1.6,3.924,3.484,7.731,5.243,11.584c1.2,2.63,2.293,5.319,3.634,7.873c2.154,4.112,7.548,7.119,11.417,6.395
		c4.537-0.846,5.098-4.457,5.86-8.2c0.437-2.158,1.583-4.394,3.006-6.1c7.384-8.817,17.548-12.773,28.322-15.407
		c1.087-0.265,3.173,0.699,3.756,1.697c3.077,5.282,6.185,10.6,8.584,16.208c2.786,6.496,4.422,13.5,7.345,19.926
		c4.256,9.364,6.93,19.17,9.154,29.098c2.543,11.35,1.706,22.56-3.146,33.285c-2.062,4.562-4.794,5.57-11.672,4.482
		c-3.228-0.51-5.104-2.558-5.236-7.042c-0.095-3.147-1.268-5.501-3.229-8.091c-4.809,0.976-9.16,1.775-13.471,2.75
		c-10.13,2.292-12.308,9.182-5.838,17.077c6.462,7.887,7.414,17.071,4.488,26.587c-1.594,5.181-6.849,6.425-10.827,2.725
		c-1.927-1.799-3.542-4.043-4.909-6.314c-2.79-4.631-2.654-9.869-2.865-15.08c-0.147-3.76-0.624-7.632-1.77-11.195
		c-1.097-3.427-3.869-4.915-7.35-3.913c-6.604,1.905-13.33,3.854-17.786,9.833c-3.304,4.436-3.401,5.926,0.611,9.867
		c6.349,6.235,7.513,13.549,4.947,21.721c-1.404,4.463-5.743,7.228-10.322,6.229c-2.555-0.556-5.072-1.743-7.336-3.098
		c-6.747-4.038-13.366-8.276-20.875-10.86c-5.34-1.837-10.695-1.913-15.78,0.389c-13.618,6.164-23.158,16.018-26.966,30.846
		c-1.288,5.006-2.493,10.058-4.173,14.941c-1.731,5.037-5.464,7.606-10.983,7.67c-4.301,0.05-7.849-1.407-11.015-4.174
		c-10.997-9.611-23.242-10.854-36.478-5.386c-2.137,0.881-4.258,1.864-6.475,2.488c-6.823,1.915-13.142,1.933-18.552-3.921
		c-2.83-3.061-5.82-5.858-8.401-9.25c-11.177-14.68-20.751-30.211-28.023-47.202c-2.235-5.224-3.002-10.204-1.425-15.664
		c0.436-1.502,0.48-3.421-0.065-4.853c-2.003-5.246-9.052-7.098-14.596-3.962c-6.859,3.882-13.703,7.801-20.483,11.819
		c-1.788,1.059-3.54,2.345-4.929,3.871c-3.889,4.268-3.077,9.147,2.334,10.837c4.734,1.483,6.529,4.941,8.454,8.685
		c0.522,1.015,0.934,2.083,1.474,3.088c4.81,8.954,9.724,17.854,14.424,26.866c2.934,5.63,5.258,11.586,8.36,17.114
		c5.27,9.376,10.909,18.543,16.445,27.769c4.639,7.743,9.456,15.381,14,23.182c3.541,6.081,6.787,12.338,10.158,18.518
		c3.723,6.83,7.982,13.317,13.476,18.83c3.097,3.104,6.766,5.91,11.634,5.041c1.959-0.352,3.807-1.467,5.638-2.372
		c11.797-5.829,23.654-11.542,35.333-17.6c6.175-3.206,11.269-7.74,15.113-13.768c3.815-5.981,8.126-11.663,12.4-17.338
		c4.317-5.737,10.304-7.378,16.965-5.428c8.402,2.464,16.756,3.834,25.554,2.69c7.882-1.024,14.809-4.062,20.684-9.167
		c7.247-6.297,11.544-14.594,14.843-23.537c2.187-5.941,4.713-11.799,7.642-17.406c3.552-6.8,7.455-7.839,14.504-4.329
		c4.09,2.034,8.07,4.331,11.94,6.762c9.528,5.986,21.234,1.285,27.478-5.792c8.133-9.212,12.553-20.585,16.843-31.867
		c2.583-6.788,6.303-12.71,10.947-18.163c2.921-3.434,6.717-4.72,10.505-4.916c3.247,5.391,6.351,10.202,9.105,15.213
		c3.035,5.515,6.335,10.922,2.535,17.711c-1.998,3.569-0.412,6.326,3.528,7.515c3.952,1.2,7.945,1.097,11.823-0.625
		c6.163-2.731,12.536-5.078,18.465-8.231c3.457-1.843,6.717-4.576,9.167-7.627c2.245-2.779,3.136-6.304,0.639-10.093
		c-1.719-2.599-3.809-4.351-6.518-5.285c-4.148-1.446-6.614-4.303-8.421-8.128c-1.801-3.828-3.904-7.507-5.837-11.274
		c-6.236-12.129-12.975-24.043-18.467-36.506c-2.45-5.569-5.538-10.773-7.957-16.334c-4.201-9.682-8.867-19.163-13.11-28.829
		c-2.471-5.621-4.559-11.413-6.727-17.163c-1.828-4.819-3.532-9.69-5.225-14.394c5.478-5.493,18.796-11.508,26.047-11.745
		c7.3-0.241,14.599-0.218,21.896-0.51c5.542-0.22,7.036-2.756,4.918-7.909c-3.635-8.866-7.163-17.777-11.008-26.548
		c-1.208-2.757-2.996-5.403-5.034-7.623C352.512-76.241,349.623-76.21,345.271-74.515z M182.766,175.78
		c-2.19-4.756,0.035-10.452,5.044-12.907c3.163-1.546,12.105,2.573,13.527,6.226c1.257,3.243-3.226,10.881-7.401,12.608
		C189.087,183.711,185.56,181.839,182.766,175.78z M95.632,237.515c-2.521-4.738-5.144-9.571-7.675-14.454
		c-2.014-3.879-3.968-7.794-5.85-11.738c-1.815-3.802-1.452-5.608,1.797-7.732c6.321-4.136,13.252-5.891,20.798-4.731
		c3.432,0.527,5.914,2.31,7.661,5.417c6.068,10.801,4.479,19.279-5.454,27.183C103.699,234.01,100.939,237.528,95.632,237.515z"/>
	<path id="planete-rouge-about-me-e" fill="#A40612" d="M750.575,168.213c10.725,1.793,21.445,4.265,32.516,3.667
		c4.16-0.222,8.42,0.735,12.572,1.504c2.971,0.552,5.971,1.242,7.922,4.143c1.387,2.059,4.078,2.109,5.754,1.087
		c2.674-1.631,5.674-3.481,5.49-7.464c-0.42-9.561-0.561-19.142-1.277-28.679c-0.35-4.723-5.615-7.559-9.832-5.395
		c-2.615,1.337-5.26,3.396-6.805,5.828c-2.127,3.348-5.039,4.602-8.486,5.086c-2.268,0.317-4.631,0.207-6.916,0.005
		c-7.807-0.686-15.604-1.65-23.416-2.212c-5.811-0.417-9.59-3.072-11.453-8.688c3.463-2.209,7.16-1.705,10.742-1.886
		c4-0.194,8.082-0.118,11.975-0.918c9.662-1.983,17.717-6.855,24.107-14.486c5.568-6.637,7.082-14.109,5.436-22.457
		c-1.598-8.152-8.076-12.471-13.838-17.064c-11.029-8.789-23.779-8.928-36.729-5.585c-10.193,2.633-18.77,8.102-23.838,17.553
		c-2.771,5.179-4.709,10.95-6.104,16.679c-1.258,5.165-1.271,10.634-1.807,15.97c-1.135,11.123,2.428,21.018,9.459,29.219
		C732.38,161.517,740.983,166.607,750.575,168.213z M770.157,106.619c-0.145,1.107-1.658,2.468-2.863,2.929
		c-4.582,1.745-15.805,2.104-21.496,1.005c-0.271-5.349,4.068-10.774,9.889-10.755l12.588,3.145
		C769.263,103.284,770.31,105.444,770.157,106.619z"/>
	<path id="planete-rouge-about-me-a" fill="#A40612" d="M70.553,272.304c-3.202,0.127-7.009,0.443-9.546-1.037
		c-5.906-3.449-12.486-5.342-18.204-9.381c-8.579-6.055-18.072-10.801-27.125-16.192c-13.135-7.822-26.36-15.506-39.288-23.659
		c-10.802-6.808-21.16-14.324-31.866-21.292c-7.024-4.573-14.282-8.794-21.52-13.026c-2.278-1.332-4.11-2.828-4.653-5.501
		c-0.741-3.625-2.974-6.106-6.125-8.25c-1.366,0.671-3.006,1.046-4.012,2.051c-5.168,5.159-10.229,10.427-15.223,15.755
		c-4.454,4.754-8.883,9.544-13.111,14.499c-2.086,2.448-4.068,5.131-5.424,8.021c-2.155,4.571-0.907,7.116,3.809,9.047
		c1.045,0.429,2.271,0.882,3.333,0.731c3.656-0.527,5.784,1.307,7.439,4.213c0.857,1.501,1.94,2.869,2.803,4.368
		c6.505,11.321,12.703,22.833,19.526,33.958c11.148,18.168,20.975,37.048,30.787,55.929c6.103,11.744,11.265,23.97,16.949,35.937
		c1.508,3.178,2.327,6.336,2.44,9.924c0.138,4.181,1.029,8.391,2.046,12.477c1.96,7.854,8.276,10.045,15.014,5.389
		c1.733-1.196,3.175-3.018,5.06-3.755c7.461-2.911,11.884-9.473,17.688-14.352c2.399-2.008,3.303-5.125,2.529-9.009
		c-4.878-1.822-9.285-3.678-11.313-9.057c-6.861-18.215-17.54-34.521-26.348-51.761c-0.922-1.804-1.552-3.916-1.703-5.928
		c-0.659-8.661,4.899-18.008,12.659-21.616c0.663-0.305,1.755-0.698,2.157-0.397c3.368,2.529,7.733,1.708,11.403,4.198
		c8.392,5.69,17.447,10.415,26.333,15.361c4.697,2.606,9.912,4.385,14.354,7.361c8.593,5.752,19.179,9.489,22.37,21.167
		c0.759,2.782,3.229,3.244,6.224,2.349c4.563-1.359,7.494-4.345,9.291-8.714c2.838-6.879,6.079-13.605,8.669-20.574
		c1.235-3.333,1.818-7.054,1.919-10.621C80.058,274.479,76.953,272.055,70.553,272.304z M-50.134,263.079
		c-3.066,0.977-5.391,0.563-7.113-1.809c-4.605-6.334-9.114-12.746-13.416-19.288c-1.744-2.649-3.197-5.647-2.079-9.34
		c6.138-0.355,11.557,1.337,16.549,4.238c4.632,2.691,9.094,5.698,13.482,8.779c3.731,2.618,4.235,4.471,1.491,8.164
		C-43.747,257.22-45.326,261.549-50.134,263.079z"/>
</g>
</svg>
