<svg xmlns="http://www.w3.org/2000/svg" width="1179.118" height="1286.758" viewBox="-13.735 -286.758 1179.118 1286.758" enable-background="new -13.735 -286.758 1179.118 1286.758"><path id="planete-vie-oceans" fill="#4242FC" d="M999.277 499.15c0 276.1-223.826 499.927-499.928 499.927S-.578 775.25-.578 499.15C-.577 223.055 223.25-.77 499.35-.77c276.102 0 499.927 223.826 499.927 499.923z"/><g id="planete-vie-continents" fill="#1B8E65"><path d="M614.145 833.06s-63.826-69.144-71.805-82.438c-7.977-13.295-37.228-85.102-50.522-93.078-13.296-7.98-87.76-53.19-98.404-61.167-10.637-7.977-114.352-26.59-114.352-26.59l-77.122 50.52-58.5 66.486-86.213 45.852C134.997 879.59 283.84 983.092 457.99 997.367l7.228-31.34 74.464-82.44 74.463-50.526zM93.876 206.716l30.94 25.322 26.6 50.527s31.91 23.933 39.886 23.933c7.978 0 39.895-5.314 39.895-5.314l101.056 5.314 29.25 42.554s63.827 5.318 74.463 5.318c10.637 0 106.374-34.57 106.374-34.57l2.66-53.19s-45.206-37.23-58.502-39.89c-13.295-2.66-47.872-10.637-47.872-10.637l-10.637-55.846 13.295-53.19-37.228-71.8-22.798-21.954c-117.47 28.455-218.72 98.38-287.384 193.423zM558.295 72.48l10.645 79.777 95.736 37.232 85.102-66.483L769.45 78.41c-44.38-28.545-93.558-50.262-146.073-63.667L558.295 72.48zM779.025 375.644l-61.167 5.318-55.844 61.168 5.32 69.146s85.1 29.25 98.395 34.568c13.294 5.318 77.12-29.25 77.12-29.25l-5.316-90.42-58.51-50.53z"/></g><path id="planete-vie-ombre" opacity=".1" fill="#22252E" enable-background="new" d="M807.135 105.354C873.56 190.22 913.26 297.01 913.26 413.134c0 276.1-223.825 499.93-499.926 499.93-116.13 0-222.91-39.7-307.777-106.136 91.5 116.92 233.817 192.15 393.793 192.15 276.102 0 499.928-223.827 499.928-499.927 0-159.976-75.23-302.29-192.143-393.796z"/><g id="planete-vie-contact-letters" fill-rule="evenodd" clip-rule="evenodd" fill="#1B8E65" stroke="#1B8E65" stroke-width="3" stroke-miterlimit="10"><path id="t2" d="M1158.565 244.21c-.348-.82-.95-1.29-1.848-1.35-.505-.034-1.034-.182-1.512-.082-1.297.27-2.354.037-3.306-.97-.466-.49-1.213-.706-1.814-1.078-2.834-1.75-5.646-3.49-7.925-6.02-2.235-2.484-4.19-5.128-6.072-7.888-2.965-4.354-5.838-8.766-8.747-13.155-4.13-6.23-7.04-13.182-11.54-19.197-3.04-4.065-5.297-8.627-7.862-12.992-1.53-2.606-3.905-4.64-5.244-7.408-.524-1.088-1.027-2.222-1.747-3.178-2.908-3.87-5.724-7.812-8.58-11.716-5.662-7.742-11.222-15.59-16.332-23.7-3.55-5.634-7.354-11.15-10.088-17.3-2.746-6.18-5.896-12.185-7.07-18.944-.19-1.096-.427-2.19-.72-3.262-.173-.624-.893-1.31-1.3-.88-1.176 1.248-3.32.895-4.118 2.283-1.75 3.047-3.91 5.94-4.48 9.556-.3 1.875-.63 3.747-.997 5.918-.632-.068-1.044-.063-1.427-.162-3.167-.827-6.392-.968-9.636-.813-3.476.167-6.47 1.583-9.078 3.792-1.184 1.002-.88 2 .656 2.304 1.394.276 2.678.638 3.988 1.286 2.27 1.12 4.32 2.626 6.542 3.732 6.53 3.246 11.035 8.396 14.848 14.383 3.26 5.123 6.44 10.32 10.032 15.206 2.468 3.354 4.938 6.64 6.495 10.523 1.563 3.903 2.466 7.92 1.87 12.164-.142 1.012-.394 1.942-1.024 2.81-2.114 2.906-4.766 5.344-7.74 7.168-4.237 2.596-8.296 5.435-12.46 8.127-7.722 4.998-15.528 9.865-23.29 14.8-5.373 3.42-10.976 6.45-16.34 9.89-6.97 4.47-14.19 8.54-21.46 12.514-5.333 2.916-10.625 5.874-16.116 8.503-7.183 3.437-14.106 2.67-21.04-.43-.867-.387-1.496-.937-2.434-.188-.96.766-.693 1.728-.32 2.478 1.304 2.623 2.37 5.342 3.934 7.866 2.38 3.846 5.866 6.056 9.835 7.73 1.933.814 3.937 1.457 5.88 2.167-.085 1.802-1.07 3.156-1.625 4.663-.98 2.677.23 5.162.546 7.742.53 4.342 2.42 7.808 5.77 10.594 1.186.986 2.044 1.235 3.426.25.986-.7 1.38-1.546 1.36-2.504-.04-1.74.665-3.18 1.523-4.537 3.5-5.516 6.696-11.283 11.56-15.777 3.34-3.083 6.733-6.07 10.93-8.1 3.173-1.537 6.11-3.615 9.005-5.657 4.03-2.842 7.88-5.942 11.89-8.814 4.692-3.36 9.508-6.552 14.208-9.903 2.486-1.773 5.123-3.272 7.75-4.807 4.29-2.507 8.823-4.514 13.24-6.764 3.147-1.607 6.25-3.323 9.282-5.145 3.428-2.06 6.854-4.152 10.097-6.486 3.84-2.764 5.943-2.977 9.865-.12 4.683 3.415 9.13 7.23 12.356 12.015 5.15 7.636 10.656 15.026 15.636 22.77 5.308 8.25 8.51 17.154 6.966 27.22-.09.586-.036 1.215.065 1.807.4 2.355 1.295 2.896 3.214 1.52 2.947-2.112 5.727-4.488 7.82-7.502 1.914-2.76 3.253-5.768 3-9.33.728.075 1.238.078 1.724.186 7.457 1.65 13.678-.827 19.173-5.73.616-.555 1.207-1.135.805-2.086zm-100.23-115.353c-.04.153-.068.315-.08.482.012-.168.04-.33.08-.483zm59.946 97.468c-.647-.938-.75-1.924.152-2.692-.903.77-.8 1.754-.15 2.693.42.658.913 1.09 1.434 1.278-.52-.188-1.016-.62-1.435-1.28zm9.802 26.71c.376.37.8.553 1.282.447-.48.106-.906-.076-1.282-.448z"/><path id="c" d="M992.838 166.107c-.645-5.585-2.318-10.314-7.134-13.7-1.687-1.185-3.538-1.914-5.313-2.824-3.604-1.845-7.467-3.283-11.448-3.875-8.838-1.316-17.544-.48-25.898 2.868-5.513 2.21-10.81 4.58-14.826 9.424-5.39 6.496-10.045 13.345-11.483 21.724-1.124 6.537-1.452 13.2-.006 19.857.78 3.597 2.35 6.737 4.68 9.352 3.162 3.544 6.897 6.484 11.196 8.694 8.25 4.24 16.655 5.807 25.596 2.295 4.026-1.58 7.662-3.668 10.513-6.978.6-.7 1.3-1.402.765-2.41-.493-.924-1.354-.663-2.155-.5-4.395.878-8.432-.35-12.282-2.26-9.028-4.487-15.256-10.85-14.697-21.88.192-3.793 1.543-6.838 4.324-9.334 2.764-2.476 6.175-3.746 9.507-5.18 3.255-1.398 6.516-1.768 10.06-1.073 5.668 1.112 11.31 6.456 12.046 12.124.49 3.752-.213 7.414-1.42 10.995-.338 1.005-1.18 1.958-.6 3.32 3.462.092 6.353-1.627 9.273-3.208 5.62-3.046 8.28-8.102 8.98-14.178.502-4.38.837-8.775.322-13.253z"/><path id="a" d="M937.53 115.555c-.18-2.712-.392-5.393-.695-8.098-.435-3.896-2.212-7.007-4.373-10.05-1.854-2.612-4.873-3.882-7.133-6.02-1.473-1.24-2.81-2.71-4.44-3.678-8.628-5.12-17.986-7.282-27.93-5.813-4.138.612-8.362 1.355-11.968 4.01-4.975 3.668-9.7 7.607-13.616 12.37-1.636 1.99-3.795 3.687-4.707 6.19-1.522 4.177-2.98 8.397-3.81 12.773-1.186 6.288-.934 12.417 2.702 18.01.275.423.515.87.735 1.322 3.733 7.613 9.874 11.822 18.236 12.842 2.21.27 4.438.408 6.657.6 1.026.087 1.52.5 1.033 1.58-.37.83-.713 1.672-1.062 2.51-.664 1.606-1.16 3.248-.985 5.017.34 3.423.66 6.832 1.343 10.228.553 2.753 1.73 4.946 3.72 6.75 1.573 1.426 3.253 2.74 4.96 4.007 1.59 1.178 3.504 1.515 5.42 1.715 1.328.138 2.28-.41 2.02-1.884-.507-2.883.27-5.635.68-8.42.85-5.754 2.933-11.024 6.077-15.943 1.432-2.24 3.316-4.09 4.76-6.272 3.237-4.9 7.05-9.356 10.647-13.97 2.78-3.565 5.814-6.93 8.438-10.625 1.95-2.742 3.537-5.487 3.29-9.15zm-27.142.487c-.06 2.992-1.207 5.494-3.416 7.56-4.36 5.09-9.746 7.988-16.665 7.304-5.576-.548-9.427-3.774-12.255-8.34-.914-1.48-.95-3.233-.534-5 1.267-5.356 4.115-9.475 8.995-12.173 2.823-1.56 5.497-3.442 8.688-4.18 2.84-.656 5.57-.728 8.537.274 5.356 1.808 5.83 6.267 6.678 10.625.244 1.26 0 2.617-.027 3.93z"/><path id="t" d="M998.363 11.33c-.724-.617-1.402-.715-2.205-.6-5.744.8-11.042-.927-16.178-3.095-5.233-2.208-9.913-5.496-14.57-8.673-3.906-2.662-7.875-5.254-11.718-8.03-8.25-5.96-16.67-11.7-25.29-17.134-5.03-3.17-9.57-7.048-14.594-10.242-1.18-.75-2.506-1.315-3.47-2.423-1.65-1.896-3.83-3.163-5.842-4.614-5.57-4.02-11.378-7.718-16.535-12.293-4.68-4.152-9.41-8.25-14.013-12.482-5.386-4.95-10.382-10.252-13.33-17.103-.415-.97-1.067-1.718-1.674-2.48-1.126-1.42-2.25-1.218-2.975.413-2.296 5.186-3.17 10.582-2.356 16.23.23 1.6 1.136 3.048 1.043 4.832-2.23.537-4.49 1.032-6.72 1.63-4.082 1.093-7.802 2.824-10.52 6.243-.473.593-.863 1.22-.462 1.926.363.638 1.006.97 1.805.847 3.31-.51 6.38.43 9.455 1.495 4.785 1.658 9.438 3.537 13.817 6.15 7.92 4.728 15.757 9.497 21.992 16.483 3.613 4.05 6.762 8.185 7.334 13.893.246 2.455.01 4.506-1.19 6.667-2.37 4.27-5.45 8.043-8.2 12.038-3.954 5.74-8.252 11.242-12.162 17.03-3.22 4.768-6.692 9.366-9.833 14.19-.33.51-.67 1.037-1.103 1.45-2 1.907-3.43 4.24-5.04 6.45-2.023 2.78-3.902 5.76-6.365 8.108-2.966 2.826-5.193 6.186-7.8 9.26-3.606 4.252-7.148 8.563-11.75 11.805-5.9 4.158-12.19 7.515-19.058 9.88-4.422 1.525-8.77 3.1-13.5 3.163-.836.01-1.693-.08-1.984.935-.286.995.12 1.832.933 2.383 2.257 1.533 4.15 3.518 6.556 4.894 5.108 2.928 10.438 4.19 16.317 3.128 3.062-.554 6.19-.738 9.442-1.104-.022 1.14.144 2.572-.105 3.927-.68 3.673.215 7.05 1.726 10.31.635 1.363 1.67 2.535 2.355 3.88 2.656 5.212 7.097 8.478 12.09 11.086 2.783 1.454 4.064.515 4.174-2.596.04-1.095-.788-1.606-1.213-2.35-.44-.77-1.133-1.38-1.308-2.336-1.22-6.663-.296-13.112 2.098-19.357 1.67-4.356 4.406-8.144 6.85-12.095 3.402-5.5 7.17-10.762 10.482-16.302 1.92-3.207 4.406-5.978 6.28-9.212 1.816-3.132 3.9-6.165 6.053-9.05 3.253-4.355 6.664-8.62 9.635-13.16 3.39-5.166 6.97-10.187 10.444-15.288 2.805-4.11 6.303-7.642 9.44-11.47 1.438-1.756 2.986-3.244 4.87-4.446 2.48-1.582 5.177-2.35 8.03-3.123 2.922-.79 5.283-.456 7.804.565 4.327 1.754 8.195 4.36 12.02 6.963 7.472 5.08 14.286 11.016 20.843 17.19 5.473 5.157 9.856 11.247 12.845 18.213.488 1.14 1.364 1.06 2.147 1.272.925.254 1.4-.453 1.863-1.18 1.974-3.084 3.728-6.284 4.532-9.876.504-2.243 1.08-4.577.043-6.84-.638-1.395.112-1.896 1.245-2.05 1.506-.205 2.923-.472 4.32-1.213 3.817-2.028 7.194-4.536 9.717-8.084.614-.86 1.416-1.34 2.335-1.82 1.68-.88 1.58-1.56.126-2.803z"/><path id="n" d="M819.384.915c-1.188-2.7-1.96-5.72-5.287-6.766-.36-.116-.664-.44-.975-.692-4.26-3.417-8.79-6.464-12.903-10.1-4.605-4.072-7.803-8.983-9.943-14.598-2.973-7.802-8.318-13.263-15.783-16.743-1.543-.72-3.224-1.25-5-1.02-1.766.23-2.242.822-1.562 2.408 1.083 2.534 1.42 5.227 2.04 7.863 1.212 5.13.31 9.945-1.773 14.718-1.233 2.824-3.23 5.076-4.882 7.573-3.574 5.397-6.748 11.07-10.816 16.135-1.71 2.13-3.535 4.168-5.242 6.3-5.65 7.054-11.86 13.54-18.928 19.2-1.206.966-2.497 1.656-3.84 2.364-2.36 1.244-5.063 1.402-7.436 2.53-1.62.772-1.717 1.26-.297 2.316 5.11 3.814 10.706 6.498 17.197 6.867 2.604.148 2.545.122 3.43 2.66 1.318 3.777 3.06 7.278 6.782 9.337.704.39 1.302.97 1.98 1.406 1.517.97 2.31.615 2.327-1.143.055-5.114 1.315-9.865 3.39-14.56 3.52-7.983 7.16-15.86 12.51-22.822 2.16-2.806 4.37-5.556 7.072-7.886 3.814-3.29 8.185-5.223 13.235-5.3 3.343-.05 6.32 1.283 7.787 4.316 1.603 3.314 1.968 7.03 1.02 10.668-.742 2.833-1.838 5.566-3.047 8.243-3.217 7.125-7.397 13.694-11.574 20.268-3.302 5.195-7.625 9.384-12.658 12.855-1.993 1.373-4 2.697-6.73 1.825-1.245-.397-2.062.792-1.58 2.07.24.645.612 1.338 1.126 1.768 3.963 3.303 8.284 5.816 13.682 5.605 1.22-.046 1.763.318 2.03 1.59.262 1.248.6 2.628 1.616 3.526 2.894 2.56 5.953 4.886 9.738 6.024 1.764.53 2.422.08 2.426-1.766 0-.488-.088-1.018-.29-1.458-1.306-2.836-.76-5.625.466-8.233 3.324-7.066 7.83-13.426 12.39-19.715 3.146-4.338 6.12-8.795 8.69-13.455 3.165-5.732 5.728-11.782 7.853-18.013.725-2.132.766-4.35 1.45-6.457 1.038-3.197 1.744-6.425.304-9.708z"/><path id="o" d="M742.95-37.12c-1.47-2.623-2.614-5.397-4.17-8.006-2.262-3.798-5.665-6.3-8.69-9.188-1.492-1.42-3.027-2.934-4.767-4.163-2.97-2.1-6.598-2.53-9.572-4.008-7.33-2.218-10.926-2.166-17.378-.8-8.684 1.844-15.052 7.174-20.87 13.328-4.05 4.284-6.783 9.424-9.32 14.773-3.745 7.91-5.977 16.014-5.95 24.783.016 5.433.97 10.77 2.746 15.758 1.393 3.91 4.164 7.418 7.914 9.744 1.882 1.164 3.766 2.334 5.654 3.483 5.855 3.562 12.234 4.648 18.913 4.495 2.694-.063 5.39.158 8.083-.733 3.563-1.184 6.95-2.73 10.368-4.225 6.097-2.665 11.305-6.577 15.713-11.54 4.703-5.297 7.104-11.81 9.465-18.32 2.34-6.464 2.256-13.29 2.635-20.025.098-1.776.124-3.753-.774-5.358zM696.51.835c-5.735-.69-10.558-3.312-13.175-8.845-1.097-2.32-1.447-4.767-.78-7.37 1.343-5.258 3.402-10.205 6.65-14.528 3.532-4.7 8.393-7.81 13.732-10.122 1.78-.77 3.726-.966 5.664-.27 2.365 1.14 4.776 2.195 7.08 3.447 1.93 1.05 3.174 2.74 3.853 4.867 1.564 4.902 1.236 9.625-.645 14.438-1.64 4.206-3.845 8.006-6.72 11.42-4.067 4.84-9.223 7.74-15.66 6.964z"/><path id="c1" d="M704.986-171.973c-.746-3.288-2.39-6.23-3.36-9.386-1.27-4.12-3.866-7.306-6.44-10.49-4.048-5.01-9.184-8.913-14.67-12.166-6.024-3.574-12.588-5.928-19.646-6.743-3.56-.41-7.08.178-10.62.026-2.46-.106-2.608-.327-2.675-2.82-.155-5.967 1.47-11.593 3.25-17.162 1.876-5.87 3.57-11.797 5.762-17.58 1.473-3.886 2.877-7.75 5.127-11.256 3.524-5.492 7.914-10.202 12.96-14.316.964-.785 1.775-1.403 1.072-3.006-.775-1.766-2.03-1.527-3.22-1.19-2.544.716-5.173 1.026-7.7 1.69-3.506.923-7.107 1.713-10.335 3.44-13.216 7.076-23.428 17.103-30.164 30.62-2.59 5.197-4.226 10.708-5.9 16.196-1.7 5.565-3.036 11.266-2.884 17.174.044 1.72.13 3.438.24 5.152.037.535.094 1.147-.484 1.27-2.73.578-4.206 2.99-6.438 4.29-2.18 1.273-4.183 2.816-6.336 4.145-6.71 4.136-11.83 10.053-17.148 15.727-1.515 1.614-3.116 3.207-4.318 5.044-4.585 7-9.284 13.93-13.094 21.418-1.377 2.704-2.58 5.502-4.102 8.125-2.646 4.563-4.812 9.36-6.623 14.278-2.9 7.882-5.323 15.9-6.073 24.37-.687 7.764-2.21 15.45-2.194 23.287 0 1.4.028 2.806-.07 4.223-.33 4.837-.633 9.674-.117 14.543.638 6.053 2.07 11.94 3.25 17.883.192.98.53 1.93.97 2.86 1.815 3.84 3.348 7.78 4.437 11.91.696 2.638 1.995 5.056 3.664 7.273 3.738 4.97 8.22 9.225 12.98 13.14 2.698 2.22 5.613 4.255 8.936 5.645C588.26-2.168 593.54-.322 599.19.623c6.408 1.07 12.77 1.957 19.27 1.227.797-.09 1.646-.1 2.424.06 3.093.64 5.842-.575 8.41-1.858 3.694-1.846 7.238-4.02 10.706-6.265 3.375-2.184 6.292-4.91 8.46-8.368 2.58-4.12 4.905-8.334 6.243-13.062 1.378-4.878 2.36-9.707 1.805-14.88-.418-3.866-1.725-7.46-2.445-11.215-.39-2.013-1.074-2.24-2.955-1.4-1.002.444-1.26 1.272-1.505 2.11-1.215 4.144-4.202 7.106-7.012 10.07-3.085 3.257-7.05 5.426-11.145 7.252-3.544 1.58-7.346 2.877-11.153 2.438-6.235-.72-12.094-2.848-17.668-5.942-5.964-3.312-9.996-8.128-12.12-14.393-2.174-6.406-3.807-13.01-4.31-19.802-.805-10.89-1.6-21.78-1.316-32.717.065-2.556.465-5.01 1.363-7.406.748-1.99 1.29-4.028 1.46-6.176.225-2.856 1.138-5.636 2.45-8.072 2.48-4.603 5.45-8.938 8.69-13.073 3.06-3.906 6.608-7.378 9.808-11.152 3.89-4.588 8.438-8.27 13.506-11.346.265.246.48.354.54.52.212.568.403 1.147.535 1.736 1.117 4.947 2.274 9.928 4.847 14.326 2.64 4.516 5.004 9.196 9.84 12.18 3.44 2.124 6.93 4.16 10.39 6.247 4.686 2.83 9.888 4.057 15.11 5.122 6.36 1.294 12.684.057 18.99-.856 2.628-.382 4.938-1.41 7.232-2.758 4.003-2.354 7.275-5.56 9.88-9.207 4.042-5.653 6.316-12.152 7.05-19.133.596-5.71-.325-11.256-1.584-16.8zm-29.77 15.303c-1.266 1.502-3.173 2.056-4.942 2.758-3.296 1.307-5.758-.042-8.018-2.382-3.846-3.98-5.468-9.073-7.29-14.083-.374-1.03-.49-2.117-.94-3.155-1.003-2.296-.47-2.91 1.938-2.57.302.043.604.072.903.107 4.43.488 7.986 2.97 11.666 5.143 1.034.61 1.937 1.444 2.904 2.17 2.218 1.658 3.627 3.756 3.636 6.624 0 .202-.05.426.02.603.605 1.587 1.42 3.244.124 4.785z"/></g></svg>