<?xml version="1.0" encoding="utf-8"?>
<!-- Generator: Adobe Illustrator 16.0.0, SVG Export Plug-In . SVG Version: 6.00 Build 0)  -->
<!DOCTYPE svg PUBLIC "-//W3C//DTD SVG 1.1//EN" "http://www.w3.org/Graphics/SVG/1.1/DTD/svg11.dtd">
<svg version="1.1" id="Layer_1" xmlns="http://www.w3.org/2000/svg" xmlns:xlink="http://www.w3.org/1999/xlink" x="0px" y="0px"
	 width="1000px" height="1000px" viewBox="0 0 1000 1000" enable-background="new 0 0 1000 1000" xml:space="preserve">
<path fill="#4242FC" d="M999.277,499.151c0,276.1-223.826,499.926-499.927,499.926S-0.576,775.251-0.576,499.151
	c0-276.097,223.826-499.923,499.927-499.923S999.277,223.054,999.277,499.151z"/>
<g>
	<path fill="#1B8E65" d="M614.145,833.061c0,0-63.827-69.145-71.805-82.44c-7.977-13.295-37.228-85.101-50.523-93.078
		c-13.296-7.978-87.76-53.189-98.404-61.167c-10.637-7.977-114.352-26.591-114.352-26.591l-77.122,50.523l-58.501,66.485
		l-86.212,45.852c77.769,146.944,226.613,250.447,400.764,264.721l7.227-31.339l74.464-82.44L614.145,833.061z"/>
	<path fill="#1B8E65" d="M93.876,206.716l30.94,25.322l26.599,50.527c0,0,31.91,23.933,39.887,23.933
		c7.978,0,39.895-5.314,39.895-5.314l101.056,5.314l29.25,42.554c0,0,63.827,5.318,74.463,5.318
		c10.637,0,106.374-34.569,106.374-34.569l2.659-53.19c0,0-45.205-37.231-58.501-39.891c-13.295-2.66-47.872-10.637-47.872-10.637
		l-10.637-55.846l13.296-53.19l-37.228-71.801l-22.798-21.953C263.791,41.748,162.541,111.674,93.876,206.716z"/>
	<path fill="#1B8E65" d="M558.295,72.479l10.644,79.778l95.737,37.232l85.101-66.482l19.673-44.598
		c-44.38-28.544-93.558-50.261-146.074-63.666L558.295,72.479z"/>
	<path fill="#1B8E65" d="M779.025,375.644l-61.167,5.318l-55.843,61.168l5.319,69.145c0,0,85.101,29.251,98.396,34.569
		s77.123-29.251,77.123-29.251l-5.318-90.418L779.025,375.644z"/>
</g>
<path opacity="0.1" fill="#22252E" d="M807.135,105.354C873.561,190.221,913.26,297.01,913.26,413.135
	c0,276.099-223.825,499.927-499.926,499.927c-116.131,0-222.91-39.7-307.777-106.134c91.5,116.92,233.817,192.149,393.794,192.149
	c276.101,0,499.927-223.826,499.927-499.926C999.277,339.174,924.048,196.861,807.135,105.354z"/>
</svg>
