<?xml version="1.0" encoding="utf-8"?>
<!-- Generator: Adobe Illustrator 16.0.0, SVG Export Plug-In . SVG Version: 6.00 Build 0)  -->
<!DOCTYPE svg PUBLIC "-//W3C//DTD SVG 1.1//EN" "http://www.w3.org/Graphics/SVG/1.1/DTD/svg11.dtd">
<svg version="1.1" id="Layer_1" xmlns="http://www.w3.org/2000/svg" xmlns:xlink="http://www.w3.org/1999/xlink" x="0px" y="0px"
	 width="1000px" height="1000px" viewBox="0 0 1000 1000" enable-background="new 0 0 1000 1000" xml:space="preserve">
<path fill="#A40612" stroke="#A40612" stroke-miterlimit="10" d="M999.131,499.827c0,276.061-223.793,499.854-499.854,499.854
	S-0.576,775.888-0.576,499.827c0-276.056,223.793-499.849,499.854-499.849S999.131,223.771,999.131,499.827z"/>
<g>
	<circle fill="#C32428" stroke="#C32428" stroke-miterlimit="10" cx="152.74" cy="359.244" r="32.252"/>
	<path fill="#C32428" stroke="#C32428" stroke-miterlimit="10" d="M217.245,561.359c0,23.752,19.25,43.003,43.003,43.003
		c23.752,0,43.003-19.251,43.003-43.003c0-23.753-19.25-43.004-43.003-43.004C236.496,518.355,217.245,537.606,217.245,561.359z"/>
	<path fill="#C32428" stroke="#C32428" stroke-miterlimit="10" d="M565.571,787.126c0-28.498-23.106-51.604-51.604-51.604
		c-28.499,0-51.604,23.106-51.604,51.604s23.106,51.604,51.604,51.604C542.465,838.729,565.571,815.624,565.571,787.126z"/>
	<path fill="#C32428" stroke="#C32428" stroke-miterlimit="10" d="M316.152,59.296c0,38.594,31.287,69.88,69.88,69.88
		s69.88-31.287,69.88-69.88c0-22.001-10.188-41.596-26.079-54.409c-37.636,5.237-73.929,14.648-108.398,27.776
		C318.051,40.877,316.152,49.86,316.152,59.296z"/>
	<path fill="#C32428" stroke="#C32428" stroke-miterlimit="10" d="M431.186,417.298c-18.402,0-33.328,14.921-33.328,33.327
		c0,18.407,14.925,33.328,33.328,33.328s33.328-14.921,33.328-33.328C464.514,432.219,449.588,417.298,431.186,417.298z"/>
	<circle fill="#C32428" stroke="#C32428" stroke-miterlimit="10" cx="353.78" cy="235.61" r="35.478"/>
	<path fill="#C32428" stroke="#C32428" stroke-miterlimit="10" d="M188.185,890.93c10.154-14.488,16.16-32.093,16.16-51.125
		c0-49.286-39.946-89.231-89.232-89.231c-15.194,0-29.48,3.812-41.995,10.516C103.665,810.812,142.72,854.713,188.185,890.93z"/>
	<circle fill="#C32428" stroke="#C32428" stroke-miterlimit="10" cx="630.076" cy="410.848" r="55.904"/>
	<path fill="#C32428" stroke="#C32428" stroke-miterlimit="10" d="M719.308,920.436c-31.085,0-56.693,23.165-60.675,53.149
		c33.109-11.137,64.682-25.601,94.288-43.079C743.262,924.156,731.729,920.436,719.308,920.436z"/>
	<path fill="#C32428" stroke="#C32428" stroke-miterlimit="10" d="M903.146,659.191c0-18.411-14.925-33.328-33.327-33.328
		s-33.328,14.917-33.328,33.328c0,18.41,14.926,33.327,33.328,33.327S903.146,677.602,903.146,659.191z"/>
	<circle fill="#C32428" stroke="#C32428" stroke-miterlimit="10" cx="670.929" cy="634.464" r="60.205"/>
	<circle fill="#C32428" stroke="#C32428" stroke-miterlimit="10" cx="885.945" cy="387.196" r="66.655"/>
	<path fill="#C32428" stroke="#C32428" stroke-miterlimit="10" d="M703.182,103.375c0,42.751,34.654,77.406,77.405,77.406
		c28.801,0,53.88-15.765,67.21-39.102c-36.797-35.81-79.069-65.975-125.466-89.16C710.438,66.125,703.182,83.885,703.182,103.375z"
		/>
</g>
<path opacity="0.1" fill="#22252E" d="M807.011,106.092c66.42,84.852,106.113,191.625,106.113,307.729
	c0,276.061-223.793,499.854-499.853,499.854c-116.109,0-222.877-39.694-307.733-106.114c91.5,116.898,233.788,192.12,393.74,192.12
	c276.061,0,499.854-223.793,499.854-499.854C999.131,339.875,923.909,197.583,807.011,106.092z"/>
</svg>
