<svg xmlns="http://www.w3.org/2000/svg" width="1000" height="1000" viewBox="0 0 1000 1000"><circle fill="#D7FFFB" cx="498.472" cy="499.021" r="499.048"/><g fill="#ADF4E4"><path d="M695.087 957.785l-682.18-573.82C5.21 416.566.733 450.394-.222 485.118l598.02 503.03c33.804-6.827 66.348-17.09 97.29-30.365zM84.696 219.935c-16.285 24.1-30.397 49.76-42.33 76.602l733.742 617.19c24.31-16.31 47.025-34.757 68.048-54.966L84.696 219.936zM335.826 27.23l655.33 551.228c4.14-25.878 6.363-52.393 6.363-79.437 0-9.44-.32-18.8-.83-28.107L440.87 3.39c-36.352 4.18-71.496 12.277-105.046 23.84zM915.56 772.952c16.017-24.344 30.003-50.138 41.626-77.206L226.194 80.882c-24.586 16.045-47.655 34.184-68.98 54.183L915.56 772.952z"/></g><path opacity=".1" fill="#22252E" d="M805.71 105.925c66.31 84.71 105.94 191.308 105.94 307.23 0 275.615-223.43 499.047-499.046 499.047-115.92 0-222.52-39.63-307.237-105.943 91.352 116.71 233.41 191.81 393.105 191.81 275.615 0 499.048-223.433 499.048-499.048 0-159.694-75.1-301.762-191.81-393.097z"/></svg>