<svg xmlns="http://www.w3.org/2000/svg" width="1000" height="1000" viewBox="0 0 1000 1000"><path fill="#8790DD" d="M999.132 499.83c0 276.06-223.794 499.856-499.856 499.856S-.576 775.89-.576 499.83C-.576 223.772 223.214-.022 499.276-.022S999.132 223.772 999.132 499.83z"/><path fill="#6F86D8" d="M313.618 277.925c0 40.315-18.47 72.997-41.256 72.997-22.787 0-41.256-32.68-41.256-72.997 0-40.312 18.47-72.993 41.256-72.993s41.256 32.682 41.256 72.993z"/><path fill="#5C75C4" d="M239.706 295.126c0-40.312 18.47-72.992 41.256-72.992 9.924 0 19.028 6.207 26.143 16.538-7.328-20.267-20.133-33.74-34.743-33.74-22.787 0-41.256 32.682-41.256 72.994 0 22.757 5.888 43.075 15.114 56.458-4.104-11.343-6.514-24.79-6.514-39.258z"/><ellipse fill="#6F86D8" cx="554.03" cy="154.021" rx="30.505" ry="50.689"/><path fill="#5C75C4" d="M529.89 165.97c0-27.995 13.658-50.69 30.507-50.69 7.332 0 14.06 4.314 19.326 11.487-5.418-14.073-14.892-23.43-25.693-23.43-16.85 0-30.505 22.69-30.505 50.685 0 15.803 4.35 29.914 11.18 39.207-3.034-7.88-4.814-17.215-4.814-27.26z"/><path fill="#6F86D8" d="M809.766 387.584c0 48.626-21.72 88.048-48.514 88.048s-48.513-39.42-48.513-88.048c0-48.623 21.72-88.043 48.512-88.043s48.514 39.42 48.514 88.044z"/><path fill="#5C75C4" d="M722.852 408.33c0-48.623 21.72-88.04 48.513-88.04 11.675 0 22.376 7.484 30.74 19.948-8.616-24.45-23.668-40.698-40.853-40.698-26.793 0-48.513 39.42-48.513 88.043 0 27.448 6.928 51.957 17.77 68.1-4.82-13.682-7.658-29.9-7.658-47.353z"/><path fill="#6F86D8" d="M536.543 449.94c0 40.314-24.09 72.996-53.813 72.996-29.72 0-53.81-32.68-53.81-72.997 0-40.313 24.09-72.994 53.81-72.994 29.724 0 53.813 32.68 53.813 72.993z"/><path fill="#5C75C4" d="M440.138 467.14c0-40.312 24.093-72.992 53.813-72.992 12.944 0 24.82 6.207 34.093 16.538-9.56-20.267-26.256-33.74-45.313-33.74-29.72 0-53.81 32.682-53.81 72.994 0 22.76 7.682 43.07 19.713 56.458-5.35-11.34-8.495-24.794-8.495-39.258z"/><path fill="#6F86D8" d="M757.086 696.133c0 29.036-15.697 52.57-35.074 52.57-19.368 0-35.075-23.534-35.075-52.57 0-29.035 15.707-52.562 35.075-52.562 19.377 0 35.074 23.528 35.074 52.563z"/><path fill="#5C75C4" d="M694.253 708.52c0-29.034 15.697-52.56 35.074-52.56 8.44 0 16.177 4.46 22.224 11.9-6.223-14.59-17.107-24.29-29.538-24.29-19.368 0-35.075 23.526-35.075 52.562 0 16.396 5.006 31.02 12.85 40.66-3.485-8.163-5.534-17.855-5.534-28.27z"/><path fill="#6F86D8" d="M566.26 859.814c0 46.69-24.963 84.554-55.772 84.554-30.8 0-55.766-37.862-55.766-84.554 0-46.698 24.966-84.545 55.766-84.545 30.81 0 55.77 37.846 55.77 84.544z"/><path fill="#5C75C4" d="M466.35 879.737c0-46.698 24.963-84.537 55.77-84.537 13.415 0 25.72 7.173 35.336 19.142-9.902-23.467-27.213-39.072-46.968-39.072-30.8 0-55.766 37.847-55.766 84.545 0 26.365 7.958 49.89 20.43 65.396-5.542-13.136-8.8-28.716-8.8-45.473z"/><path fill="#6F86D8" d="M291.58 628.672c0 29.774-21.238 53.914-47.44 53.914-26.2 0-47.437-24.14-47.437-53.914 0-29.775 21.237-53.905 47.438-53.905 26.2 0 47.44 24.13 47.44 53.905z"/><path fill="#5C75C4" d="M206.592 641.38c0-29.775 21.237-53.906 47.438-53.906 11.41 0 21.88 4.578 30.06 12.204-8.428-14.96-23.15-24.91-39.95-24.91-26.2 0-47.437 24.13-47.437 53.904 0 16.814 6.77 31.808 17.378 41.7-4.716-8.373-7.488-18.31-7.488-28.992z"/><path opacity=".1" fill="#22252E" d="M807.01 106.092c66.42 84.852 106.115 191.625 106.115 307.73 0 276.062-223.794 499.856-499.856 499.856-116.11 0-222.88-39.694-307.73-106.114 91.49 116.898 233.784 192.12 393.736 192.12 276.062 0 499.856-223.794 499.856-499.855 0-159.953-75.223-302.247-192.12-393.738z"/></svg>