<?xml version="1.0" encoding="utf-8"?>
<!-- Generator: Adobe Illustrator 16.0.0, SVG Export Plug-In . SVG Version: 6.00 Build 0)  -->
<!DOCTYPE svg PUBLIC "-//W3C//DTD SVG 1.1//EN" "http://www.w3.org/Graphics/SVG/1.1/DTD/svg11.dtd">
<svg version="1.1" id="Layer_1" xmlns="http://www.w3.org/2000/svg" xmlns:xlink="http://www.w3.org/1999/xlink" x="0px" y="0px"
	  viewBox="0 0 1000 1000" enable-background="new 0 0 1000 1000" xml:space="preserve">
<circle fill="#F3CB42" cx="498.472" cy="499.021" r="499.048"/>
<g>
	<path fill="#FFFACF" d="M695.087,957.785l-682.18-573.82C5.21,416.566,0.733,450.394-0.222,485.118l598.02,503.03
		c33.804-6.827,66.349-17.091,97.29-30.365L695.087,957.785z M84.696,219.935c-16.285,24.1-30.397,49.76-42.33,76.602
		l733.742,617.189c24.31-16.31,47.024-34.757,68.048-54.966L84.696,219.935L84.696,219.935z M335.826,27.23l655.33,551.228
		c4.14-25.878,6.362-52.393,6.362-79.437c0-9.44-0.319-18.801-0.829-28.107L440.87,3.39c-36.352,4.18-71.496,12.277-105.046,23.84
		H335.826z M915.56,772.952c16.018-24.344,30.003-50.138,41.626-77.206L226.194,80.882c-24.586,16.045-47.655,34.184-68.98,54.183
		L915.56,772.952z"/>
</g>
<path opacity="0.1" fill="#22252E" enable-background="new    " d="M805.71,105.925c66.31,84.71,105.94,191.308,105.94,307.23
	c0,275.614-223.431,499.047-499.046,499.047c-115.92,0-222.52-39.63-307.237-105.943c91.352,116.71,233.41,191.811,393.104,191.811
	c275.615,0,499.048-223.434,499.048-499.048C997.52,339.327,922.42,197.259,805.71,105.925L805.71,105.925z"/>
</svg>
