<svg id="planete-rouge" xmlns="http://www.w3.org/2000/svg" viewBox="-136.744 -88.74 984.099 1088.74"><path id="planete-rouge-core" fill="#A40612" stroke="#A40612" stroke-miterlimit="10" d="M839.987 579.658c0 231.99-188.046 420.035-420.035 420.035C187.962 999.693 0 811.647 0 579.658c0-231.99 188.046-419.952 420.036-419.952s419.95 188.045 419.95 419.952z"/><g id="planete-rouge-circles" fill="#C32428" stroke="#C32428" stroke-miterlimit="10"><circle cx="128.809" cy="461.521" r="27.14"/><path d="M183.004 631.417c0 19.998 16.216 36.13 36.13 36.13 20 0 36.13-16.218 36.13-36.13 0-19.997-16.132-36.13-36.13-36.13-19.913 0-36.13 16.133-36.13 36.13zm292.74 189.643c0-23.948-19.41-43.356-43.356-43.356s-43.356 19.408-43.356 43.355c0 23.944 19.41 43.354 43.356 43.354s43.356-19.41 43.356-43.356zM266.188 209.533c0 32.433 26.3 58.733 58.733 58.733 32.435 0 58.734-26.3 58.734-58.733 0-18.486-8.57-34.954-21.93-45.71-31.593 4.37-62.094 12.27-91.082 23.36-2.855 6.89-4.452 14.45-4.452 22.35zm96.627 300.805c-15.46 0-27.98 12.52-27.98 27.98s12.52 27.98 27.98 27.98 27.98-12.52 27.98-27.98-12.52-27.98-27.98-27.98z"/><circle cx="297.781" cy="357.667" r="29.828"/><path d="M158.637 908.276c8.57-12.184 13.612-26.973 13.612-42.937 0-41.428-33.528-74.95-74.95-74.95-12.773 0-24.788 3.19-35.29 8.82 25.626 41.762 58.396 78.647 96.626 109.065z"/><circle cx="529.938" cy="504.877" r="46.969"/><path d="M604.89 933.062c-26.133 0-47.643 19.492-51.006 44.618 27.814-9.327 54.366-21.51 79.236-36.215-8.066-5.21-17.813-8.403-28.23-8.403zm154.434-219.47c0-15.46-12.52-27.98-27.98-27.98s-27.98 12.52-27.98 27.98 12.52 27.98 27.98 27.98 27.98-12.52 27.98-27.98z"/><circle cx="564.221" cy="692.839" r="50.582"/><circle cx="744.872" cy="485.048" r="56.045"/><path d="M591.36 246.587c0 35.962 29.156 65.035 65.034 65.035 24.2 0 45.29-13.276 56.464-32.853-30.92-30.083-66.463-55.458-105.45-74.95-9.998 11.425-16.047 26.38-16.047 42.766z"/></g><path id="planete-rouge-shadow" opacity=".1" fill="#22252E" enable-background="new" d="M678.577 248.856c55.793 71.336 89.15 160.99 89.15 258.542 0 231.99-188.047 420.036-420.037 420.036-97.552 0-187.29-33.357-258.542-89.15 76.882 98.225 196.448 161.41 330.803 161.41 231.99 0 420.037-188.046 420.037-420.035 0-134.357-63.184-253.923-161.41-330.805z"/><g id="planete-rouge-about-me-letters" fill="#A40612" stroke="#A40612" stroke-width="3" stroke-miterlimit="10"><path id="planete-rouge-about-me-m" d="M821.806 206.594c-7.295-11.262-16.342-18.244-30.95-18.242-11.198-.003-20.446 2.905-27.933 10.535-6.977 7.11-10.084 15.972-6.297 25.896 1.2 3.143 3.494 5.938 5.605 8.655 6.707 8.66 16.563 8.276 24.754 3.54 3.596-2.077 5.057-7.744 3.55-11.178-1.59-3.614-3.22-3.935-9.23-2.63-2.162.466-4.627.576-6.725.01-3.448-.924-5.08-4.326-4.628-8.296.442-3.913 3.298-7.318 7.513-7.607 6.52-.45 12.82-.18 17.988 5.274 7.132 7.52 10.653 16.46 6.767 25.783-5.09 12.2-13.86 21.84-27.76 24.7-5.213 1.07-10.682.83-15.91 1.834-6.617 1.28-12.586-.495-18.316-3.174-10.823-5.043-18.33-13.756-24.604-23.604-4.86-7.63-7.77-15.923-8.36-25.06-.372-5.733-1.573-11.41-1.933-17.135-.475-7.472-.438-14.98-.713-22.465-.217-5.742-.812-11.48-.812-17.223 0-9.798.365-19.6.54-29.39.132-7.237.167-14.476.36-21.71.17-6.136.59-12.27.75-18.406.242-9.215.27-18.437.55-27.65.237-7.496.667-14.983 1.122-22.467 1.066-17.612 6.39-34.387 10.48-51.383 1.3-5.42 2.768-11.32 8.924-13.99.705-.307 1.227-1.446 1.49-2.304 2.295-7.495-.807-13.064-9.777-15.71-2.206-.65-4.497-1.256-6.774-1.347-5.525-.213-11.135-.667-16.578.022-6.193.783-8.92 6.797-5.592 12.036 2.947 4.632 3.238 9.392 2.393 14.424-.923 5.494-1.858 11.006-3.237 16.397-1.364 5.367-2.843 10.79-5.046 15.85-4.69 10.753-10.96 20.644-18.014 30.01-1.582 2.096-3.62 3.838-5.658 5.967-5.03-4.27-6.363-7.563-6.148-15.004.39-13.838 1.285-27.673 1.227-41.507-.038-8.142 2.788-14.886 6.874-21.52 1.486-2.406 2.654-5.132 3.373-7.87 1.41-5.354-1.52-9.74-7.042-10.4-9.938-1.184-19.926-2.108-29.896-3-3.25-.29-6.21 1.22-7.904 3.744-1.69 2.51-.955 5.666.498 8.285 1.023 1.828 2.316 3.57 3.79 5.057 2.26 2.28 2.896 4.87 2.386 7.917-.736 4.364-1.555 8.72-2.1 13.11-1.316 10.674-2.92 21.247-6.465 31.502-2.064 5.96-3.06 12.28-4.674 18.4-2 7.598-4.062 15.18-6.267 22.72-.7 2.37-1.98 4.565-2.947 6.86-3.044 7.232-5.388 14.86-9.27 21.613-5.626 9.796-12.134 19.113-18.663 28.354-7.404 10.482-17.28 17.925-29.48 22.18-6.83 2.38-13.778 3.59-20.962 2.04-5.738-1.243-11.348-3.32-14.893-8.095-5.18-6.968-8.27-14.796-5.985-23.82.426-1.672.627-3.42.807-5.132 1.31-12.136 7.48-21.17 17.594-27.71 4.98-3.222 13.393-2.143 18.748 2.427 3.088 2.63 3.963 8.773 1.998 14.052-1.8 4.856-3.004 5.276-7.602 2.672-2.635-1.493-7.232-.642-9.326 1.72-1.875 2.114-1.566 5.692 1.014 8.268 5.266 5.255 12.043 7.51 18.967 5.796 6.71-1.66 11.72-6.674 13.56-13.653 2.69-10.185 1.782-19.922-3.18-29.608-5.317-10.384-14.286-14.48-24.68-15.41-11.622-1.04-21.888 4.127-30.153 11.777-11.76 10.886-18.893 24.55-20.164 40.873-.693 8.93-.68 17.698 4.312 25.695.994 1.61 1.51 3.536 2.23 5.32 5.466 13.55 12.905 25.23 27.864 29.99 3.105.986 5.986 3.105 9.123 3.484 9.25 1.126 18.55 2.227 27.603-1.758 4.878-2.15 10.35-3.004 15.09-5.356 6.99-3.457 13.903-7.286 20.23-11.828 4.244-3.04 7.63-7.41 11.004-11.51 4.023-4.884 8.11-9.836 11.285-15.275 3.91-6.724 6.983-13.954 10.306-21.01 3.504-7.45 6.846-14.976 10.322-22.433.453-.968 1.277-1.756 1.947-2.642 3.893 1.284 5.057 4.463 6.426 7.384 1.808 3.89 3.845 7.58 7.558 9.99 4.16 2.707 7.435 2.51 10.923-.913 2.053-2.004 3.713-4.397 5.62-6.545 2.02-2.275 3.925-4.734 6.27-6.638 2.528-2.052 4.73-1.178 5.642 1.883.377 1.26.443 2.65.44 3.983 0 14.02-.028 28.037-.063 42.055-.048 19.436.603 38.822 3.778 58.048 1.967 11.896 3.957 23.795 5.676 35.73 1.488 10.285 6.7 19.055 11.14 28.095 2.257 4.596 6.634 8.22 8.565 12.887 2.076 5.04 5.896 7.64 10.094 9.603 10.04 4.708 20.14 9.537 30.672 12.893 10.662 3.405 22.1 4.134 32.916.737 10.09-3.168 20.206-6.316 28.144-14.636 10.182-10.677 18.018-22.042 19.832-37.053 1.2-9.713-.596-18.55-5.92-26.782z"/><path id="planete-rouge-about-me-bout" d="M345.27-74.515c-5.54 2.164-7.515 7.414-10.946 11.432-1.82 2.134-3.807 4.424-6.217 5.708-12.718 6.785-25.68 13.114-38.39 19.92-7.444 3.988-14.705 8.36-21.795 12.955-8.545 5.536-17.396 9.575-27.906 8.73-1.875-.15-3.85.258-5.708.7-6.414 1.525-9.453 7.25-6.992 13.28 1.6 3.925 3.484 7.732 5.243 11.585 1.2 2.63 2.29 5.32 3.632 7.873 2.154 4.112 7.548 7.12 11.417 6.395 4.536-.846 5.097-4.457 5.86-8.2.436-2.158 1.582-4.394 3.005-6.1C263.86.946 274.025-3.01 284.798-5.644c1.087-.265 3.173.7 3.756 1.697 3.077 5.282 6.185 10.6 8.584 16.208 2.786 6.498 4.422 13.5 7.345 19.928 4.256 9.364 6.93 19.17 9.154 29.098 2.543 11.35 1.706 22.56-3.146 33.285-2.06 4.563-4.792 5.57-11.67 4.483-3.23-.51-5.104-2.558-5.236-7.042-.095-3.146-1.268-5.5-3.23-8.09-4.808.976-9.16 1.775-13.47 2.75-10.13 2.29-12.308 9.18-5.838 17.077 6.462 7.887 7.414 17.07 4.488 26.587-1.594 5.18-6.85 6.425-10.827 2.725-1.927-1.8-3.542-4.044-4.91-6.315-2.79-4.63-2.653-9.87-2.864-15.08-.147-3.76-.624-7.632-1.77-11.195-1.097-3.428-3.87-4.916-7.35-3.914-6.604 1.905-13.33 3.854-17.786 9.833-3.304 4.434-3.4 5.924.61 9.865 6.35 6.235 7.514 13.55 4.948 21.72-1.404 4.464-5.743 7.23-10.322 6.23-2.555-.556-5.072-1.743-7.336-3.098-6.747-4.038-13.366-8.276-20.875-10.86-5.34-1.837-10.694-1.913-15.78.39-13.617 6.163-23.157 16.017-26.965 30.845-1.288 5.006-2.493 10.058-4.173 14.94-1.73 5.038-5.464 7.607-10.983 7.67-4.3.05-7.85-1.406-11.015-4.173-10.997-9.61-23.242-10.855-36.478-5.387-2.137.88-4.258 1.864-6.475 2.488-6.822 1.916-13.14 1.934-18.55-3.92-2.83-3.06-5.82-5.86-8.402-9.25-11.177-14.68-20.75-30.21-28.023-47.202-2.235-5.225-3.002-10.205-1.425-15.665.436-1.502.48-3.42-.065-4.853-2.003-5.246-9.052-7.098-14.596-3.962-6.86 3.882-13.703 7.8-20.483 11.82-1.788 1.058-3.54 2.344-4.93 3.87-3.888 4.268-3.076 9.147 2.335 10.837 4.735 1.483 6.53 4.94 8.455 8.685.522 1.015.934 2.083 1.474 3.088 4.81 8.954 9.724 17.854 14.424 26.866 2.934 5.63 5.258 11.586 8.36 17.114 5.27 9.376 10.91 18.543 16.445 27.77 4.64 7.742 9.455 15.38 14 23.18 3.54 6.082 6.786 12.34 10.157 18.52 3.723 6.83 7.982 13.316 13.476 18.83 3.097 3.103 6.766 5.91 11.634 5.04 1.96-.352 3.807-1.467 5.638-2.372 11.797-5.83 23.654-11.542 35.333-17.6 6.175-3.206 11.27-7.74 15.113-13.768 3.816-5.98 8.127-11.663 12.4-17.338 4.318-5.737 10.305-7.378 16.966-5.428 8.402 2.464 16.756 3.834 25.554 2.69 7.88-1.024 14.808-4.062 20.683-9.167 7.247-6.297 11.544-14.594 14.843-23.537 2.187-5.94 4.713-11.8 7.642-17.406 3.552-6.8 7.455-7.84 14.504-4.33 4.09 2.035 8.07 4.332 11.94 6.763 9.528 5.986 21.234 1.285 27.478-5.792 8.133-9.212 12.553-20.585 16.843-31.867 2.583-6.788 6.303-12.71 10.947-18.163 2.92-3.434 6.717-4.72 10.505-4.916 3.247 5.39 6.35 10.2 9.105 15.212 3.035 5.514 6.335 10.92 2.535 17.71-1.998 3.57-.412 6.326 3.528 7.515 3.952 1.2 7.945 1.097 11.823-.625 6.163-2.73 12.536-5.078 18.465-8.23 3.46-1.844 6.72-4.577 9.17-7.628 2.244-2.78 3.135-6.304.64-10.093-1.72-2.6-3.81-4.35-6.52-5.286-4.148-1.446-6.614-4.303-8.42-8.128-1.8-3.83-3.905-7.508-5.838-11.275-6.235-12.13-12.974-24.042-18.466-36.505-2.45-5.57-5.538-10.774-7.957-16.335-4.2-9.682-8.868-19.163-13.11-28.83-2.47-5.62-4.56-11.412-6.728-17.162-1.828-4.82-3.532-9.69-5.225-14.394 5.478-5.494 18.796-11.51 26.047-11.746 7.3-.24 14.6-.218 21.896-.51 5.542-.22 7.036-2.756 4.918-7.91-3.635-8.865-7.163-17.776-11.008-26.547-1.208-2.756-2.996-5.402-5.034-7.622-3.162-3.415-6.05-3.384-10.403-1.69zM182.767 175.78c-2.19-4.756.035-10.452 5.044-12.907 3.164-1.546 12.106 2.573 13.528 6.226 1.257 3.24-3.226 10.88-7.4 12.606-4.85 2.004-8.377.132-11.17-5.927zm-87.134 61.735c-2.52-4.738-5.144-9.57-7.675-14.454-2.014-3.877-3.968-7.792-5.85-11.736-1.815-3.802-1.452-5.608 1.797-7.732 6.32-4.135 13.252-5.89 20.798-4.73 3.432.527 5.914 2.31 7.66 5.417 6.07 10.8 4.48 19.28-5.453 27.182-3.21 2.55-5.97 6.068-11.278 6.055z"/><path id="planete-rouge-about-me-e" d="M750.575 168.213c10.725 1.793 21.445 4.265 32.516 3.667 4.16-.222 8.42.735 12.574 1.504 2.97.552 5.97 1.242 7.922 4.143 1.387 2.06 4.078 2.11 5.754 1.087 2.673-1.63 5.673-3.48 5.49-7.464-.42-9.56-.562-19.142-1.278-28.68-.35-4.722-5.615-7.558-9.832-5.394-2.615 1.337-5.26 3.396-6.805 5.828-2.127 3.348-5.04 4.602-8.486 5.086-2.27.317-4.633.207-6.918.005-7.807-.686-15.604-1.65-23.416-2.212-5.81-.417-9.59-3.072-11.453-8.688 3.463-2.21 7.16-1.705 10.742-1.886 4-.196 8.082-.12 11.975-.92 9.663-1.983 17.718-6.855 24.108-14.486 5.568-6.637 7.082-14.11 5.436-22.457-1.598-8.152-8.076-12.47-13.838-17.064-11.03-8.79-23.78-8.928-36.73-5.585-10.192 2.632-18.77 8.1-23.837 17.552-2.773 5.18-4.71 10.95-6.106 16.68-1.258 5.164-1.27 10.633-1.807 15.97-1.135 11.122 2.428 21.017 9.46 29.218 6.332 7.397 14.935 12.487 24.527 14.093zm19.582-61.594c-.145 1.105-1.658 2.466-2.863 2.927-4.582 1.745-15.805 2.104-21.496 1.005-.27-5.35 4.068-10.774 9.89-10.755l12.587 3.145c.988.34 2.035 2.5 1.882 3.676z"/><path id="planete-rouge-about-me-a" d="M70.553 272.304c-3.202.127-7.01.443-9.546-1.037-5.906-3.45-12.486-5.342-18.204-9.38-8.58-6.056-18.072-10.802-27.125-16.193-13.135-7.822-26.36-15.506-39.288-23.66-10.802-6.807-21.16-14.323-31.866-21.29-7.024-4.574-14.282-8.795-21.52-13.027-2.278-1.332-4.11-2.828-4.653-5.5-.74-3.626-2.972-6.107-6.123-8.25-1.366.67-3.006 1.045-4.012 2.05-5.168 5.16-10.23 10.427-15.223 15.755-4.453 4.754-8.882 9.544-13.11 14.5-2.086 2.447-4.068 5.13-5.424 8.02-2.155 4.57-.907 7.116 3.81 9.047 1.044.427 2.27.88 3.332.73 3.656-.528 5.784 1.306 7.44 4.212.856 1.5 1.94 2.87 2.802 4.368 6.505 11.322 12.703 22.834 19.526 33.96 11.148 18.167 20.975 37.047 30.787 55.928 6.103 11.744 11.265 23.97 16.95 35.937 1.507 3.178 2.326 6.336 2.44 9.924.137 4.18 1.028 8.39 2.045 12.475 1.96 7.854 8.276 10.045 15.014 5.39 1.733-1.197 3.175-3.02 5.06-3.756 7.46-2.91 11.884-9.474 17.688-14.353 2.4-2.008 3.303-5.125 2.53-9.01-4.88-1.82-9.286-3.677-11.314-9.056-6.86-18.214-17.54-34.52-26.348-51.76-.922-1.804-1.552-3.916-1.703-5.93-.66-8.66 4.9-18.006 12.66-21.614.662-.305 1.754-.698 2.156-.397 3.37 2.53 7.734 1.707 11.404 4.197 8.392 5.69 17.447 10.415 26.333 15.36 4.697 2.607 9.912 4.386 14.354 7.362 8.594 5.75 19.18 9.49 22.37 21.166.76 2.782 3.23 3.244 6.225 2.35 4.562-1.36 7.493-4.346 9.29-8.715 2.84-6.88 6.08-13.604 8.67-20.573 1.234-3.333 1.817-7.054 1.92-10.62.162-6.44-2.943-8.863-9.343-8.614zm-120.687-9.225c-3.066.975-5.39.56-7.113-1.81-4.605-6.335-9.114-12.747-13.416-19.29-1.744-2.65-3.197-5.646-2.08-9.34 6.14-.354 11.558 1.338 16.55 4.24 4.632 2.69 9.094 5.697 13.482 8.78 3.73 2.616 4.233 4.47 1.49 8.162-2.528 3.397-4.107 7.726-8.915 9.256z"/></g></svg>
