<?xml version="1.0" encoding="utf-8"?>
<!-- Generator: Adobe Illustrator 16.0.0, SVG Export Plug-In . SVG Version: 6.00 Build 0)  -->
<!DOCTYPE svg PUBLIC "-//W3C//DTD SVG 1.1//EN" "http://www.w3.org/Graphics/SVG/1.1/DTD/svg11.dtd">
<svg version="1.1" id="Layer_1" xmlns="http://www.w3.org/2000/svg" xmlns:xlink="http://www.w3.org/1999/xlink" x="0px" y="0px"
	 width="1000px" height="1000px" viewBox="0 0 1000 1000" enable-background="new 0 0 1000 1000" xml:space="preserve">
<path fill="#8790DD" d="M999.132,499.83c0,276.061-223.794,499.856-499.856,499.856c-276.062,0-499.852-223.795-499.852-499.856
	c0-276.058,223.79-499.852,499.852-499.852C775.338-0.022,999.132,223.772,999.132,499.83z"/>
<g>
	<path fill="#6F86D8" d="M313.618,277.925c0,40.315-18.469,72.997-41.256,72.997c-22.787,0-41.256-32.681-41.256-72.997
		c0-40.312,18.47-72.993,41.256-72.993C295.148,204.933,313.618,237.614,313.618,277.925z"/>
	<path fill="#5C75C4" d="M239.706,295.126c0-40.312,18.47-72.992,41.256-72.992c9.924,0,19.028,6.207,26.143,16.538
		c-7.328-20.267-20.133-33.739-34.743-33.739c-22.787,0-41.256,32.681-41.256,72.993c0,22.757,5.888,43.075,15.114,56.458
		C242.116,323.041,239.706,309.594,239.706,295.126z"/>
</g>
<g>
	<ellipse fill="#6F86D8" cx="554.03" cy="154.021" rx="30.505" ry="50.689"/>
	<path fill="#5C75C4" d="M529.891,165.969c0-27.994,13.657-50.688,30.506-50.688c7.332,0,14.06,4.313,19.326,11.486
		c-5.418-14.073-14.892-23.429-25.693-23.429c-16.849,0-30.505,22.69-30.505,50.684c0,15.803,4.351,29.914,11.179,39.207
		C531.671,185.351,529.891,176.015,529.891,165.969z"/>
</g>
<g>
	<path fill="#6F86D8" d="M809.766,387.584c0,48.626-21.721,88.048-48.514,88.048s-48.513-39.421-48.513-88.048
		c0-48.623,21.72-88.043,48.513-88.043S809.766,338.961,809.766,387.584z"/>
	<path fill="#5C75C4" d="M722.852,408.33c0-48.623,21.72-88.04,48.513-88.04c11.675,0,22.376,7.484,30.741,19.948
		c-8.617-24.45-23.669-40.698-40.854-40.698c-26.793,0-48.513,39.421-48.513,88.043c0,27.448,6.929,51.957,17.772,68.1
		C725.69,442.001,722.852,425.783,722.852,408.33z"/>
</g>
<g>
	<path fill="#6F86D8" d="M536.543,449.939c0,40.315-24.089,72.997-53.813,72.997c-29.72,0-53.809-32.681-53.809-72.997
		c0-40.312,24.088-72.993,53.809-72.993C512.454,376.946,536.543,409.627,536.543,449.939z"/>
	<path fill="#5C75C4" d="M440.138,467.14c0-40.312,24.093-72.992,53.813-72.992c12.943,0,24.82,6.207,34.092,16.538
		c-9.559-20.267-26.256-33.739-45.313-33.739c-29.72,0-53.809,32.681-53.809,72.993c0,22.761,7.681,43.07,19.712,56.458
		C443.283,495.059,440.138,481.604,440.138,467.14z"/>
</g>
<g>
	<path fill="#6F86D8" d="M757.086,696.133c0,29.036-15.697,52.57-35.074,52.57c-19.368,0-35.075-23.534-35.075-52.57
		c0-29.035,15.707-52.562,35.075-52.562C741.389,643.571,757.086,667.098,757.086,696.133z"/>
	<path fill="#5C75C4" d="M694.253,708.521c0-29.035,15.697-52.562,35.074-52.562c8.441,0,16.177,4.46,22.224,11.902
		c-6.224-14.59-17.108-24.291-29.539-24.291c-19.368,0-35.075,23.526-35.075,52.562c0,16.396,5.006,31.019,12.851,40.66
		C696.302,728.629,694.253,718.937,694.253,708.521z"/>
</g>
<g>
	<path fill="#6F86D8" d="M566.259,859.814c0,46.691-24.962,84.554-55.771,84.554c-30.799,0-55.766-37.862-55.766-84.554
		c0-46.698,24.966-84.545,55.766-84.545C541.297,775.27,566.259,813.116,566.259,859.814z"/>
	<path fill="#5C75C4" d="M466.351,879.737c0-46.698,24.962-84.537,55.77-84.537c13.414,0,25.719,7.173,35.335,19.142
		c-9.902-23.467-27.213-39.072-46.968-39.072c-30.799,0-55.766,37.847-55.766,84.545c0,26.365,7.958,49.891,20.431,65.396
		C469.61,912.074,466.351,896.494,466.351,879.737z"/>
</g>
<g>
	<path fill="#6F86D8" d="M291.579,628.672c0,29.774-21.237,53.914-47.438,53.914c-26.201,0-47.438-24.14-47.438-53.914
		c0-29.775,21.237-53.905,47.438-53.905C270.341,574.767,291.579,598.896,291.579,628.672z"/>
	<path fill="#5C75C4" d="M206.592,641.38c0-29.775,21.237-53.906,47.438-53.906c11.41,0,21.88,4.578,30.061,12.204
		c-8.429-14.959-23.152-24.911-39.95-24.911c-26.201,0-47.438,24.13-47.438,53.905c0,16.814,6.77,31.808,17.378,41.701
		C209.364,661.999,206.592,652.063,206.592,641.38z"/>
</g>
<path opacity="0.1" fill="#22252E" d="M807.011,106.092c66.42,84.852,106.114,191.625,106.114,307.73
	c0,276.062-223.794,499.856-499.856,499.856c-116.109,0-222.878-39.694-307.73-106.114
	c91.491,116.898,233.785,192.121,393.737,192.121c276.062,0,499.856-223.795,499.856-499.856
	C999.132,339.877,923.909,197.583,807.011,106.092z"/>
</svg>
