<?xml version="1.0" encoding="utf-8"?>
<!-- Generator: Adobe Illustrator 16.0.0, SVG Export Plug-In . SVG Version: 6.00 Build 0)  -->
<!DOCTYPE svg PUBLIC "-//W3C//DTD SVG 1.1//EN" "http://www.w3.org/Graphics/SVG/1.1/DTD/svg11.dtd">
<svg version="1.1" id="planete-rouge" xmlns="http://www.w3.org/2000/svg" xmlns:xlink="http://www.w3.org/1999/xlink" x="0px"
	 y="0px" width="1000px" height="1000px" viewBox="0 0 1000 1000" enable-background="new 0 0 1000 1000" xml:space="preserve">
<path id="planete-rouge-core" fill="#A40612" stroke="#A40612" stroke-miterlimit="10" d="M839.987,579.658
	c0,231.989-188.046,420.035-420.035,420.035C187.961,999.693,0,811.647,0,579.658c0-231.99,188.046-419.952,420.036-419.952
	C652.027,159.707,839.987,347.751,839.987,579.658z"/>
<g id="planete-rouge-circles">
	<circle fill="#C32428" stroke="#C32428" stroke-miterlimit="10" cx="128.809" cy="461.521" r="27.14"/>
	<path fill="#C32428" stroke="#C32428" stroke-miterlimit="10" d="M183.004,631.417c0,19.998,16.216,36.131,36.13,36.131
		c19.999,0,36.13-16.219,36.13-36.131c0-19.997-16.132-36.129-36.13-36.129C199.221,595.288,183.004,611.42,183.004,631.417z"/>
	<path fill="#C32428" stroke="#C32428" stroke-miterlimit="10" d="M475.744,821.059c0-23.947-19.41-43.355-43.356-43.355
		c-23.946,0-43.356,19.408-43.356,43.355c0,23.946,19.41,43.356,43.356,43.356C456.334,864.415,475.744,845.005,475.744,821.059z"/>
	<path fill="#C32428" stroke="#C32428" stroke-miterlimit="10" d="M266.188,209.533c0,32.433,26.299,58.733,58.733,58.733
		c32.433,0,58.732-26.3,58.732-58.733c0-18.486-8.57-34.954-21.93-45.709c-31.593,4.369-62.094,12.268-91.082,23.359
		C267.785,194.072,266.188,201.634,266.188,209.533z"/>
	<path fill="#C32428" stroke="#C32428" stroke-miterlimit="10" d="M362.815,510.338c-15.461,0-27.98,12.521-27.98,27.98
		c0,15.461,12.519,27.979,27.98,27.979c15.46,0,27.98-12.519,27.98-27.979C390.795,522.858,378.276,510.338,362.815,510.338z"/>
	<circle fill="#C32428" stroke="#C32428" stroke-miterlimit="10" cx="297.781" cy="357.667" r="29.828"/>
	<path fill="#C32428" stroke="#C32428" stroke-miterlimit="10" d="M158.637,908.276c8.571-12.184,13.612-26.973,13.612-42.937
		c0-41.426-33.526-74.95-74.949-74.95c-12.772,0-24.787,3.193-35.29,8.822C87.637,840.973,120.407,877.858,158.637,908.276z"/>
	<circle fill="#C32428" stroke="#C32428" stroke-miterlimit="10" cx="529.938" cy="504.877" r="46.969"/>
	<path fill="#C32428" stroke="#C32428" stroke-miterlimit="10" d="M604.889,933.062c-26.132,0-47.642,19.492-51.005,44.618
		c27.814-9.327,54.366-21.511,79.236-36.215C625.054,936.256,615.307,933.062,604.889,933.062z"/>
	<path fill="#C32428" stroke="#C32428" stroke-miterlimit="10" d="M759.324,713.592c0-15.46-12.52-27.979-27.979-27.979
		c-15.461,0-27.981,12.52-27.981,27.979c0,15.461,12.521,27.979,27.981,27.979C746.805,741.571,759.324,729.053,759.324,713.592z"/>
	<circle fill="#C32428" stroke="#C32428" stroke-miterlimit="10" cx="564.221" cy="692.839" r="50.582"/>
	<circle fill="#C32428" stroke="#C32428" stroke-miterlimit="10" cx="744.872" cy="485.048" r="56.045"/>
	<path fill="#C32428" stroke="#C32428" stroke-miterlimit="10" d="M591.361,246.587c0,35.962,29.155,65.035,65.033,65.035
		c24.199,0,45.289-13.276,56.464-32.853c-30.919-30.081-66.463-55.456-105.449-74.95
		C597.41,215.246,591.361,230.202,591.361,246.587z"/>
</g>
<path id="planete-rouge-shadow" opacity="0.1" fill="#22252E" enable-background="new    " d="M678.577,248.856
	c55.793,71.336,89.15,160.99,89.15,258.542c0,231.989-188.047,420.036-420.037,420.036c-97.552,0-187.289-33.357-258.542-89.151
	c76.882,98.226,196.448,161.411,330.803,161.411c231.989,0,420.035-188.046,420.035-420.035
	C839.987,445.304,776.802,325.738,678.577,248.856z"/>
<g id="planete-rouge-about-me-letters">
	<path id="planete-rouge-about-me-m" fill="#A40612" d="M757.16,205.832c-4.916-7.589-11.012-12.294-20.857-12.292
		c-7.544-0.003-13.776,1.958-18.821,7.099c-4.7,4.791-6.795,10.763-4.242,17.45c0.808,2.118,2.354,4.002,3.776,5.833
		c4.519,5.835,11.16,5.577,16.68,2.386c2.422-1.4,3.407-5.219,2.391-7.533c-1.069-2.436-2.168-2.651-6.219-1.771
		c-1.456,0.313-3.117,0.387-4.53,0.005c-2.324-0.622-3.423-2.915-3.118-5.59c0.297-2.637,2.222-4.932,5.062-5.126
		c4.394-0.304,8.639-0.121,12.122,3.554c4.805,5.066,7.178,11.09,4.558,17.373c-3.429,8.22-9.338,14.717-18.705,16.644
		c-3.513,0.721-7.198,0.559-10.721,1.236c-4.46,0.862-8.481-0.333-12.343-2.139c-7.295-3.398-12.352-9.27-16.58-15.905
		c-3.274-5.142-5.236-10.729-5.634-16.886c-0.251-3.863-1.06-7.69-1.303-11.547c-0.319-5.035-0.294-10.094-0.48-15.138
		c-0.146-3.869-0.548-7.736-0.548-11.605c0-6.603,0.247-13.208,0.365-19.805c0.089-4.876,0.111-9.754,0.242-14.63
		c0.114-4.134,0.396-8.267,0.505-12.402c0.164-6.211,0.182-12.425,0.37-18.633c0.16-5.051,0.45-10.096,0.757-15.14
		c0.718-11.868,4.306-23.171,7.062-34.624c0.876-3.652,1.865-7.627,6.014-9.427c0.475-0.207,0.827-0.974,1.005-1.552
		c1.546-5.05-0.544-8.803-6.589-10.587c-1.487-0.438-3.031-0.846-4.565-0.907c-3.724-0.143-7.504-0.448-11.171,0.016
		c-4.174,0.527-6.011,4.58-3.769,8.11c1.986,3.122,2.183,6.33,1.612,9.72c-0.622,3.702-1.252,7.417-2.181,11.049
		c-0.919,3.617-1.915,7.27-3.399,10.679c-3.161,7.247-7.385,13.912-12.139,20.224c-1.066,1.412-2.438,2.585-3.813,4.02
		c-3.39-2.878-4.287-5.097-4.142-10.111c0.262-9.325,0.865-18.647,0.826-27.969c-0.026-5.486,1.878-10.031,4.631-14.5
		c1.002-1.622,1.788-3.458,2.272-5.303c0.951-3.609-1.024-6.564-4.745-7.008c-6.697-0.798-13.428-1.421-20.146-2.021
		c-2.19-0.196-4.185,0.822-5.326,2.522c-1.14,1.691-0.645,3.817,0.335,5.583c0.689,1.232,1.561,2.405,2.555,3.408
		c1.522,1.537,1.95,3.282,1.606,5.334c-0.495,2.942-1.048,5.877-1.414,8.835c-0.888,7.193-1.968,14.318-4.356,21.228
		c-1.392,4.016-2.062,8.274-3.15,12.399c-1.346,5.119-2.735,10.229-4.222,15.31c-0.471,1.597-1.334,3.076-1.986,4.622
		c-2.05,4.874-3.629,10.015-6.245,14.565c-3.791,6.601-8.177,12.879-12.576,19.106c-4.989,7.064-11.644,12.08-19.863,14.946
		c-4.604,1.604-9.285,2.42-14.127,1.375c-3.866-0.838-7.646-2.237-10.035-5.455c-3.488-4.696-5.572-9.971-4.032-16.051
		c0.287-1.127,0.422-2.305,0.544-3.459c0.882-8.178,5.039-14.265,11.854-18.672c3.356-2.171,9.025-1.445,12.634,1.635
		c2.08,1.771,2.671,5.911,1.346,9.468c-1.213,3.272-2.023,3.556-5.122,1.801c-1.775-1.006-4.872-0.433-6.284,1.159
		c-1.264,1.424-1.056,3.835,0.684,5.571c3.549,3.541,8.114,5.061,12.78,3.906c4.521-1.12,7.896-4.497,9.138-9.2
		c1.812-6.863,1.201-13.424-2.144-19.952c-3.582-6.997-9.626-9.757-16.631-10.385c-7.83-0.701-14.748,2.782-20.318,7.937
		c-7.925,7.335-12.729,16.542-13.587,27.542c-0.467,6.019-0.458,11.926,2.905,17.315c0.671,1.085,1.019,2.382,1.503,3.584
		c3.683,9.131,8.696,17.002,18.776,20.21c2.093,0.664,4.034,2.091,6.147,2.347c6.234,0.759,12.5,1.5,18.601-1.185
		c3.287-1.449,6.973-2.024,10.168-3.609c4.709-2.33,9.369-4.91,13.632-7.97c2.859-2.049,5.141-4.993,7.415-7.756
		c2.711-3.292,5.466-6.628,7.604-10.293c2.637-4.53,4.707-9.401,6.945-14.156c2.362-5.02,4.614-10.091,6.957-15.116
		c0.305-0.652,0.86-1.184,1.311-1.78c2.623,0.865,3.408,3.007,4.331,4.976c1.217,2.621,2.59,5.107,5.091,6.732
		c2.803,1.825,5.01,1.692,7.36-0.614c1.383-1.351,2.502-2.963,3.788-4.411c1.36-1.533,2.644-3.19,4.225-4.473
		c1.702-1.382,3.188-0.794,3.801,1.269c0.254,0.85,0.299,1.785,0.296,2.684c0,9.446-0.018,18.892-0.042,28.338
		c-0.031,13.097,0.406,26.16,2.548,39.116c1.324,8.016,2.666,16.034,3.823,24.077c1.003,6.931,4.515,12.84,7.508,18.932
		c1.52,3.097,4.47,5.54,5.771,8.684c1.399,3.397,3.975,5.148,6.802,6.471c6.767,3.172,13.572,6.427,20.668,8.688
		c7.185,2.293,14.893,2.785,22.181,0.496c6.8-2.135,13.615-4.256,18.965-9.863c6.86-7.195,12.141-14.854,13.363-24.969
		C761.957,217.334,760.748,211.379,757.16,205.832z"/>
	<path id="planete-rouge-about-me-bout" fill="#A40612" d="M459.386,4.222c-3.983,0.446-6.182,3.52-9.114,5.54
		c-1.556,1.073-3.248,2.218-5.04,2.635c-9.459,2.205-18.999,4.072-28.456,6.294c-5.54,1.302-11.027,2.886-16.442,4.644
		c-6.525,2.119-12.99,3.209-19.686,0.832c-1.194-0.424-2.551-0.5-3.837-0.535c-4.441-0.123-7.415,3.076-6.861,7.43
		c0.36,2.833,0.925,5.64,1.399,8.454c0.324,1.921,0.569,3.861,0.997,5.757c0.688,3.052,3.676,5.946,6.321,6.148
		c3.1,0.238,4.094-2.015,5.241-4.319c0.66-1.329,1.794-2.585,3.017-3.448c6.34-4.457,13.646-5.266,21.118-5.107
		c0.754,0.017,1.944,1.006,2.15,1.758c1.085,3.974,2.184,7.976,2.771,12.044c0.686,4.714,0.532,9.558,1.318,14.25
		c1.143,6.836,1.179,13.686,0.9,20.536c-0.317,7.831-2.812,14.983-7.834,21.123c-2.136,2.611-4.09,2.793-8.379,0.889
		c-2.013-0.894-2.878-2.553-2.185-5.496c0.486-2.065,0.131-3.802-0.694-5.829c-3.301-0.201-6.272-0.437-9.249-0.552
		c-6.994-0.269-9.61,3.838-6.771,10.103c2.836,6.259,1.859,12.403-1.7,18.09c-1.939,3.096-5.576,2.992-7.522-0.108
		c-0.942-1.506-1.603-3.248-2.098-4.964c-1.011-3.501-0.012-6.887,0.756-10.316c0.558-2.474,0.92-5.078,0.794-7.596
		c-0.118-2.422-1.664-3.872-4.105-3.825c-4.631,0.092-9.348,0.192-13.288,3.309c-2.922,2.313-3.244,3.267-1.317,6.53
		c3.05,5.164,2.535,10.127-0.556,15.001c-1.689,2.662-4.996,3.707-7.802,2.261c-1.567-0.807-3-2.017-4.238-3.292
		c-3.69-3.801-7.263-7.711-11.702-10.699c-3.157-2.125-6.63-3.105-10.341-2.491c-9.938,1.645-17.862,6.402-22.919,15.394
		c-1.708,3.035-3.371,6.115-5.314,9.002c-2.002,2.978-4.879,4.002-8.484,3.084c-2.809-0.716-4.865-2.281-6.445-4.632
		c-5.489-8.17-13.245-11.108-22.812-9.849c-1.544,0.202-3.096,0.474-4.648,0.494c-4.774,0.061-8.893-1.027-11.396-5.778
		c-1.31-2.485-2.77-4.826-3.861-7.482c-4.724-11.5-8.258-23.276-10.037-35.602c-0.547-3.789-0.181-7.165,1.795-10.446
		c0.544-0.902,0.907-2.144,0.801-3.17c-0.392-3.764-4.659-6.195-8.814-5.118c-5.141,1.335-10.277,2.696-15.39,4.134
		c-1.348,0.377-2.713,0.911-3.882,1.663c-3.273,2.103-3.593,5.42-0.364,7.462c2.825,1.788,3.391,4.351,3.994,7.124
		c0.163,0.751,0.246,1.519,0.423,2.266c1.575,6.666,3.226,13.314,4.719,19.999c0.931,4.176,1.41,8.458,2.468,12.595
		c1.801,7.02,3.878,13.969,5.878,20.938c1.674,5.847,3.482,11.658,5.084,17.526c1.249,4.575,2.273,9.213,3.395,13.822
		c1.236,5.093,2.881,10.057,5.5,14.602c1.477,2.56,3.377,5.024,6.698,5.305c1.337,0.111,2.733-0.294,4.083-0.564
		c8.693-1.744,17.406-3.402,26.062-5.316c4.578-1.013,8.683-3.08,12.233-6.335c3.524-3.231,7.318-6.181,11.087-9.133
		c3.808-2.984,7.991-3.011,11.988-0.584c5.041,3.065,10.243,5.41,16.169,6.194c5.31,0.703,10.347-0.07,15.06-2.372
		c5.812-2.839,10.053-7.494,13.755-12.743c2.456-3.488,5.12-6.862,8.001-10.004c3.495-3.809,6.216-3.807,10.196-0.296
		c2.309,2.036,4.5,4.223,6.597,6.478c5.163,5.554,13.601,4.529,18.897,1.006c6.896-4.583,11.751-11.219,16.506-17.818
		c2.862-3.97,6.313-7.179,10.284-9.922c2.5-1.728,5.194-1.905,7.694-1.374c1.176,4.074,2.361,7.746,3.283,11.487
		c1.017,4.117,2.226,8.212-1.429,11.971c-1.922,1.977-1.368,4.047,0.99,5.506c2.365,1.467,4.982,2.094,7.807,1.648
		c4.486-0.707,9.043-1.126,13.452-2.149c2.571-0.598,5.168-1.811,7.295-3.372c1.944-1.419,3.138-3.559,2.17-6.46
		c-0.667-1.991-1.724-3.494-3.324-4.574c-2.45-1.662-3.558-3.951-4.07-6.756c-0.507-2.805-1.236-5.565-1.84-8.354
		c-1.951-8.981-4.267-17.909-5.676-26.977c-0.627-4.052-1.732-7.977-2.341-12.018c-1.052-7.034-2.441-14.018-3.522-21.048
		c-0.632-4.089-0.985-8.224-1.396-12.343c-0.352-3.455-0.615-6.922-0.899-10.279c4.521-2.624,14.237-4.225,19-3.118
		c4.795,1.112,9.542,2.396,14.344,3.474c3.646,0.821,5.06-0.571,4.577-4.294c-0.825-6.403-1.573-12.818-2.551-19.198
		c-0.308-2.005-1.011-4.037-1.952-5.837C464.401,4.357,462.515,3.875,459.386,4.222z M310.075,138.92
		c-0.599-3.477,1.839-6.798,5.528-7.525c2.327-0.457,7.434,3.779,7.724,6.405c0.254,2.33-3.992,6.523-7.011,6.921
		C312.812,145.183,310.84,143.351,310.075,138.92z M242.614,163.963c-0.817-3.522-1.685-7.125-2.484-10.744
		c-0.636-2.875-1.228-5.764-1.768-8.659c-0.521-2.791,0.03-3.903,2.515-4.721c4.834-1.594,9.652-1.532,14.363,0.536
		c2.143,0.939,3.448,2.531,4.045,4.859c2.074,8.086-0.435,13.33-8.276,16.749C248.476,163.085,246.067,164.895,242.614,163.963z"/>
	<path id="planete-rouge-about-me-e" fill="#A40612" d="M709.162,180.979c7.226,1.208,14.45,2.874,21.91,2.471
		c2.803-0.149,5.673,0.496,8.471,1.013c2.003,0.373,4.024,0.837,5.339,2.792c0.934,1.388,2.748,1.421,3.877,0.733
		c1.802-1.099,3.823-2.346,3.7-5.03c-0.282-6.442-0.378-12.898-0.861-19.325c-0.235-3.183-3.784-5.094-6.625-3.635
		c-1.762,0.901-3.545,2.288-4.585,3.927c-1.434,2.256-3.396,3.101-5.719,3.428c-1.528,0.214-3.12,0.139-4.66,0.003
		c-5.261-0.462-10.515-1.112-15.779-1.491c-3.915-0.281-6.462-2.07-7.718-5.855c2.334-1.488,4.825-1.149,7.239-1.271
		c2.695-0.131,5.445-0.079,8.069-0.619c6.511-1.336,11.938-4.619,16.244-9.761c3.752-4.472,4.772-9.508,3.663-15.133
		c-1.077-5.493-5.442-8.403-9.325-11.499c-7.432-5.922-16.023-6.016-24.75-3.764c-6.867,1.774-12.647,5.459-16.062,11.828
		c-1.868,3.49-3.175,7.378-4.113,11.239c-0.848,3.48-0.857,7.166-1.218,10.761c-0.765,7.495,1.637,14.163,6.374,19.689
		C696.899,176.468,702.698,179.897,709.162,180.979z M722.356,139.475c-0.097,0.746-1.117,1.663-1.929,1.973
		c-3.089,1.176-10.651,1.418-14.485,0.678c-0.184-3.604,2.741-7.26,6.663-7.248l8.482,2.119
		C721.753,137.228,722.459,138.683,722.356,139.475z"/>
	<path id="planete-rouge-about-me-a" fill="#A40612" d="M217.583,180.552c-2.15-0.197-4.722-0.322-6.286-1.535
		c-3.642-2.825-7.87-4.669-11.334-7.872c-5.197-4.802-11.121-8.809-16.693-13.209c-8.085-6.384-16.243-12.684-24.161-19.27
		c-6.616-5.501-12.873-11.435-19.411-17.034c-4.289-3.675-8.766-7.135-13.228-10.6c-1.405-1.09-2.497-2.251-2.624-4.085
		c-0.175-2.487-1.448-4.341-3.364-6.051c-0.972,0.328-2.1,0.434-2.861,1.017c-3.907,2.99-7.753,6.063-11.559,9.183
		c-3.395,2.783-6.776,5.592-10.037,8.53c-1.609,1.451-3.17,3.069-4.331,4.879c-1.842,2.864-1.233,4.674,1.747,6.379
		c0.66,0.379,1.439,0.79,2.161,0.783c2.49-0.029,3.749,1.383,4.599,3.471c0.44,1.078,1.042,2.088,1.487,3.165
		c3.347,8.137,6.473,16.374,10.05,24.407c5.845,13.121,10.746,26.6,15.635,40.079c3.042,8.384,5.412,17.007,8.154,25.502
		c0.727,2.256,0.995,4.438,0.755,6.845c-0.277,2.805-0.052,5.696,0.267,8.516c0.617,5.419,4.643,7.44,9.555,4.924
		c1.263-0.646,2.387-1.737,3.711-2.063c5.241-1.287,8.775-5.281,13.082-8.028c1.779-1.13,2.659-3.132,2.484-5.795
		c-3.098-1.647-5.879-3.276-6.759-7.048c-2.978-12.774-8.673-24.61-13.037-36.903c-0.458-1.287-0.692-2.752-0.615-4.11
		c0.324-5.844,4.86-11.598,10.363-13.324c0.469-0.146,1.234-0.311,1.476-0.075c2.027,1.986,5.015,1.823,7.247,3.81
		c5.105,4.542,10.737,8.497,16.237,12.584c2.908,2.156,6.235,3.804,8.94,6.183c5.233,4.601,11.976,8.031,13.078,16.114
		c0.262,1.925,1.871,2.452,3.951,2.118c3.168-0.505,5.39-2.241,6.976-5.002c2.502-4.345,5.26-8.553,7.605-12.98
		c1.119-2.118,1.837-4.552,2.219-6.926C223.741,182.844,221.881,180.951,217.583,180.552z M137.771,163.747
		c-2.134,0.382-3.651-0.1-4.592-1.835c-2.518-4.638-4.965-9.319-7.262-14.069c-0.931-1.924-1.638-4.055-0.565-6.423
		c4.132,0.304,7.603,1.913,10.682,4.291c2.857,2.207,5.573,4.609,8.233,7.054c2.262,2.078,2.435,3.36,0.276,5.585
		C142.555,160.396,141.118,163.149,137.771,163.747z"/>
</g>
</svg>
