<svg xmlns="http://www.w3.org/2000/svg" xmlns:xlink="http://www.w3.org/1999/xlink" id="stamp" viewBox="0 0 159.333 93"><g fill-rule="evenodd" clip-rule="evenodd"><path id="stamp-outside" d="M2.192 57.906c-.093-.084-.39-.224-.402-.385-.09-1.178-.028-2.327 1.042-3.13.222-.168.507-.323.618-.554.283-.585.822-1.093-.153-1.76-.99-.68-1.937-1.525-1.84-3.074.07-1.098.54-1.675 1.395-2.134.366-.196.728-.402 1.012-.56.01-1.476-1.203-1.8-1.985-2.445-1.1-.906-1.18-2.054-.062-2.99.148-.125.366-.164.523-.28 1.566-1.17 1.59-1.522.22-2.88-1.477-1.46-1.4-3.373.19-4.766.21-.182.414-.367.774-.688-.4-.342-.747-.6-1.05-.902-.605-.608-1.326-1.16-1.746-1.882-.656-1.13-.24-2.002.956-2.584.566-.276 1.157-.557 1.628-.96.964-.828.858-1.324-.226-1.982-1.05-.638-2.253-1.324-2.002-2.77.15-.862.66-1.766 1.262-2.42 1.142-1.24 1.146-1.626-.375-2.158-.946-.33-1.637-.982-1.7-1.957-.062-1 .423-1.79 1.477-2.192 1.122-.43 2.263-.97 2.34-2.395.025-.435-.197-.99-.496-1.314-1.05-1.138-1.37-2.383-.782-3.56.55-1.103 2.127-2.105 3.31-1.717 1.288.422 1.714-.47 2.2-1.12.657-.88 1.406-1.15 2.277-.49.34.258.712.48 1.02.77 1.84 1.72 2.752.613 3.984-.807.1-.115.12-.294.208-.422 1.147-1.64 2.554-1.5 3.468.347.813 1.642 1.657 1.823 3.027.653.18-.154.424-.258.555-.444 1.417-2.015 3.06-1.27 4.496.057.316.293.65.566.962.863 1.153 1.094 2.13 1.07 3.25-.073.5-.51.954-1.114 1.55-1.472 1.322-.792 2.544-.103 3.696.524.654.356 1.244.85 1.817 1.333.745.63 1.39.512 2.14-.03 1.046-.758 2.103-1.54 3.262-2.088 1.447-.684 2.846-.4 3.97.826.162.176.294.378.45.56 1.24 1.43 2.197 1.388 3.18-.213.615-1 1.285-1.705 2.6-1.758 1.155-.046 2.038.275 2.722 1.142.396.502.69 1.085 1.03 1.63l.52-.293c.34-.41.73-.788 1.016-1.234 1.062-1.666 2.66-1.91 4.137-.56.677.62 1.272 1.326 1.924 1.973.753.746 1.547.71 2.043-.207.903-1.668 2.532-1.957 4.104-2.177.664-.093 1.448.44 2.133.78 1 .496 1.947 1.103 2.944 1.61 1.08.548 1.895.197 2.47-.838 1.48-2.663 3.11-2.12 4.796-1.08.412.253.668.774.97 1.193.322.45.53 1.026.938 1.363.672.554 1.472.806 2.244.084.52-.486 1.09-.932 1.538-1.48 1.835-2.24 3.457-1.366 4.806.475.282.386.586.755.913 1.173.667-.82 1.184-1.46 1.708-2.096 1.27-1.537 2.77-1.392 3.734.31.346.61.844 1.133 1.264 1.686.736-.89 1.312-1.71 2.01-2.407 1.41-1.405 3.366-1.258 4.652.284.1.12.125.297.224.417 1.664 2.013 2.293 1.973 3.704-.188.755-1.156 1.992-1.464 3.205-1.375 1.045.076 1.685.915 2.304 1.82.338.493 1.46.715 2.158.61.508-.08.97-.852 1.333-1.394.835-1.25 2.054-1.437 3.157-.377.484.465.888 1.012 1.36 1.493 1.162 1.187 1.806.902 2.568-.344.28-.457.493-.98.854-1.36 1.096-1.153 2.592-.854 3.38.548.27.482.727.93 1.207 1.197.27.15.82-.01 1.14-.2.355-.21.637-.586.87-.942 1.07-1.635 2.837-1.77 4.135-.29.38.434.724.903 1.122 1.32.83.873 1.325.75 2.354-.54.998-1.25 2.996-2.014 4.087-1.13 1.422 1.152 2.257.787 3.397-.278.438-.408 1.594-.624 2.005-.334.51.36.62 1.324.83 2.047.096.323.017.698.017 1.105.345 0 .584.042.804-.007.945-.208 1.73.043 2.282.83.606.863.87 1.856.296 2.798-.638 1.044-1.522 1.94-2.128 3-.248.433-.276 1.285-.007 1.664.717 1.007 1.482 2.017 2.527 2.747 1.595 1.112 1.665 2.608-.173 4.13-.57.472-1.074 1.057-1.504 1.665-.93 1.313-.268 2.183.777 2.81.366.22.777.376 1.12.627 1.44 1.06 1.573 2.6.327 3.875-.33.337-.754.58-1.116.888-1.09.932-1.023 1.32-.06 2.367.64.697 1.117 1.575 1.54 2.435.414.847.076 1.628-.566 2.266-.367.365-.805.667-1.14 1.06-.578.68-.74 1.31.113 2.02 1.184.983 1.388 3.382.425 4.558-.266.325-.806.442-1.237.607-.83.317-.97.74-.5 1.548.663 1.14 1.278 2.332 1.728 3.568.316.873.306 1.778-.762 2.397-.71.414-1.244 1.134-1.964 1.818 1.556.772 2.333 1.885 2.716 3.32.518 1.94-1.548 2.082-2.23 3.282 1.13 1.17 2.28 2.367 3.66 3.797-1.067 1.12-1.974 2.12-2.936 3.062-.747.73-.742 1.354.02 2.132.76.78 1.56 1.553 2.147 2.458.598.924.187 1.728-.742 2.298-1.135.698-1.27 1.314-.563 2.44.505.808 1.01 1.618 1.574 2.383 1.532 2.08 1.165 3.485-1.188 4.404-1.34.523-1.432 1.007-.632 2.208.512.77.967 1.62 1.222 2.5.303 1.046.02 2.027-.892 2.777-.86.708-1.665.527-2.53.038-.444-.25-.927-.48-1.42-.588-.768-.17-1.49-.19-1.714.88-.183.878-.75 1.24-1.73 1.22-1.53-.03-2.873-.34-4.067-1.366-1.058-.907-1.407-.798-2.256.395-.874 1.226-2.715 1.446-3.852.434-.592-.527-1.134-1.11-1.713-1.65-.667-.623-1.285-.567-1.795.2-1.464 2.197-2.56 2.27-4.432.278-1.51-1.607-1.51-1.607-2.9.122-1.435 1.782-3.758 2.368-5.837 1.322-.785-.395-1.406-1.117-2.103-1.688-.43-.353-.85-.718-1.298-1.048-.737-.543-1.41-.715-1.912.327-.17.352-.48.636-.725.95-.858 1.097-2.305 1.223-3.294.243-.716-.71-1.375-1.478-2.15-2.316-.353 1.805-1.6 2.913-3.105 3.057-1.335.13-1.67-.965-2.296-1.72-.337-.41-.667-.822-1.04-1.283-.86.99-.458 2.632-2.195 2.76-2.094.156-2.4-1.756-3.627-2.738-.516.71-1.073 1.496-1.647 2.27-.842 1.132-3.052.823-3.86-.463-.315-.5-.826-.903-1.315-1.258-.505-.37-.91-.27-1.202.392-.736 1.673-2.29 2.304-3.898 2.667-.547.123-1.287-.27-1.84-.593-.704-.415-1.265-1.078-1.978-1.47-.262-.143-.817.12-1.17.32-.2.113-.267.47-.385.722-.744 1.57-2.215 1.824-3.547.59-.707-.655-1.385-1.34-2.357-2.284-.5.657-1.02 1.14-1.288 1.738-.616 1.382-2.173 1.557-3.398.285-.33-.342-.614-.728-.914-1.097-.94-1.158-1.848-1.067-2.567.206-.545.964-.857 2.095-2.262 2.358-1.287.24-2.462-.164-3.102-1.314-.3-.54-.687-1.068-1.148-1.47-.738-.644-1.06.227-1.378.59-.753.853-2.547.77-3.095-.228-.057-.104-.08-.238-.157-.32-.48-.503-.974-.996-1.462-1.492-.433.493-.868.984-1.3 1.478-.47.535-.88 1.143-1.422 1.59-.66.544-1.38.428-2.048-.128-.785-.653-1.614-1.252-2.4-1.904-.5-.414-.844-.284-1.182.2-.25.355-.52.698-.814 1.018-1.438 1.563-3.467 1.365-4.507-.53-.708-1.29-1.737-1.34-3.004-1.073 1.002.626.52 1.29.024 1.887-.594.714-1.375.828-2.12.285-.437-.32-.748-.818-1.098-1.25-.77-.95-1.3-.958-2.043-.03-.272.34-.603.634-.864.98-1.476 1.958-3.998 1.762-5.09-.407-.733-1.454-2.578-2.136-3.673-.256-.12.205-.21.426-.337.625-1.702 2.656-2.85 2.465-4.897.626-2.1-1.885-2.115-1.906-3.762.246-.84 1.098-2.172 1.805-3.665.22-.51-.54-1.11-1-1.682-1.506-.858.68-1.557 1.34-2.357 1.837-.816.507-1.708.835-2.59-.018-1.2-1.16-1.71-2.566-1.14-3.565.382-.668.508-1.087-.242-1.687-1.187-.947-1.147-2.125-.118-3.268.132-.147.307-.257.435-.408 1.013-1.192 1.01-1.194-.314-2.087-1.39-.94-1.345-2.173.084-2.998.54-.31 1.02-.717 1.71-1.21-.492-.134-.818-.175-1.102-.308-1.71-.802-2.132-3.19-.747-4.66.567-.602.976-1.386 1.315-2.15.096-.217-.282-.93-.484-.948-1.14-.103-1.87-.633-2.14-1.726-.333-1.35-.14-2.623.833-3.678.42-.458.912-.862 1.408-1.243.824-.633.78-1.417-.077-2.044-.542-.396-1.03-.872-1.46-1.378-.165-.194-.11-.574-.168-.962zm147.71 32.264c.363-1.75 1.258-2.345 3.002-1.955.694.155 1.376.405 2.032.683 1.028.435 1.79-.008 1.65-1.106-.084-.68-.293-1.424-.683-1.973-1.487-2.1-1.13-3.8 1.238-4.63 1.162-.407.968-1.03.574-1.718-.487-.852-1.116-1.624-1.688-2.427-1.073-1.51-.898-3.402.512-4.543.624-.504.528-.916.08-1.386-.303-.315-.633-.618-.994-.86-1.82-1.217-1.865-3.796-.073-5.044 1.87-1.302 1.886-1.86-.062-3.096-1.89-1.197-1.867-3.13-.107-4.49.984-.758 1.033-1.16.204-2.074-.294-.325-.582-.658-.906-.95-1.374-1.243-1.295-2.683.305-3.687 1.025-.645 1.547-1.37.895-2.538-.53-.948-1.11-1.868-1.65-2.81-.145-.256-.397-.674-.303-.807.557-.79 1.094-1.664 1.847-2.23.834-.63 1.222-1.26.72-2.203-.2-.375-.503-.727-.836-.994-.876-.704-.84-1.586-.467-2.463.24-.568.625-1.116 1.065-1.55 1.285-1.274 1.326-1.78.177-3.142-.48-.568-1.013-1.145-1.298-1.813-.702-1.644.594-2.415 1.626-3.23 1.367-1.077 1.317-1.67-.274-2.458-1.656-.822-2.333-1.85-2.126-3.313.224-1.582.95-2.9 2.342-3.716.885-.52.84-1.146.31-1.738-.904-1.01-1.938-1.905-2.895-2.872-.21-.212-.434-.514-.457-.79-.146-1.747.15-3.285 1.686-4.48.517-.4.724-1.334.847-2.062.09-.532-.348-.934-.94-.527-.845.58-1.603.53-2.145-.325-.54-.85-.896-1.783.427-2.425l-1.11-.422c-1.82 1.97-2.257 2.05-4.522.828-1.434-.774-1.73-.706-2.826.54-.367.418-.743.88-1.216 1.137-.513.28-1.298.647-1.697.446-1.407-.713-2.376-1.928-3.12-3.682-.83.81-1.76 1.46-2.328 2.344-.636.986-1.405 1.212-2.31.81-.76-.34-1.525-.867-2.04-1.51-.988-1.24-.92-1.303-1.914-.086-.162.2-.245.468-.353.71-.786 1.75-2.536 2.183-3.964.933-.622-.544-1.152-1.192-1.735-1.782-.814-.824-1.244-.794-1.65.254-.435 1.122-1.187 1.926-2.318 2.062-1.34.16-2.36-.585-3.088-1.72-.974-1.525-2.523-1.53-3.52-.015-.173.262-.277.57-.435.844-.69 1.19-2.51 1.544-3.54.645-.71-.622-1.378-1.296-2.02-1.988-.836-.898-1.952-.95-2.724-.046-.355.416-.778.84-.944 1.337-.372 1.106-1.185 1.147-2.12 1.14-.95-.008-1.366-.624-1.755-1.344-.292-.54-.645-1.046-.997-1.61-.38.298-.668.452-.854.686-.44.554-.816 1.162-1.25 1.72-.856 1.1-1.938 1.18-2.893.166-.368-.39-.62-.9-.886-1.378-.592-1.064-1.6-1.204-2.403-.296-.392.444-.74.927-1.12 1.38-1.172 1.388-2.26 1.762-3.796.932-.82-.443-1.59-1.257-2.008-2.092-.482-.96-1.185-1.514-2.08-1.464-.458.026-.937.838-1.29 1.37-.984 1.485-2.343 2.174-3.934 1.622-1.013-.352-2.062-.904-2.81-1.65-1.405-1.4-4.507-1.182-5.147.857-.302.962-2.145 1.548-2.834.995-.917-.737-1.805-1.52-2.634-2.357-1.338-1.348-1.786-1.305-2.733.397-.723 1.3-1.763 1.573-2.938.73-.666-.48-1.278-1.034-1.934-1.53-.838-.632-2.076-.44-2.624.34-.516.73-1.01 1.515-1.67 2.098-.347.308-1.168.487-1.536.286-.92-.502-1.67-1.3-2.55-1.89-.532-.357-1.158-.7-1.776-.777-1.275-.162-2.205.556-3.106 1.415-1.666 1.587-2.68 2.15-4.806.34-.242-.205-.48-.42-.74-.596-1.928-1.295-3.05-1.285-4.332.44-.992 1.333-2.342 1.658-3.778.902-.814-.428-1.49-1.122-2.222-1.703-1.41-1.118-1.694-1.196-2.756-.047-.318.343-.836.53-1.08.907-.816 1.265-1.827.852-2.8.36-.437-.22-.772-.663-1.118-1.037-.453-.49-.87-1.01-1.303-1.518-.72.807-1.358 1.5-1.972 2.216-1.177 1.375-2.247 1.513-3.793.457-.67-.458-1.33-.933-2.03-1.427l-1.81 2.535c-.36-.133-.773-.254-1.16-.436-.955-.452-1.847-.515-2.517.45-.65.936-.067 1.597.55 2.274.36.397.842.888.865 1.356.11 2.227-.864 3.63-2.777 4.454-.438.19-.827.492-1.477.887.62.37.947.677 1.327.77 2.23.55 2.734 1.918 1.375 3.777-.52.71-1.478 1.532-1.37 2.154.125.73 1.16 1.338 1.863 1.92 1.39 1.15 1.5 2.327.177 3.56-.446.416-1.034.734-1.612.943-1.227.442-1.42 1.015-.532 1.916.22.223.457.478.737.59 1.928.766 2.38 2.523.435 4.156-1.02.858-.973 1.748.07 2.57.19.15.384.287.574.433 1.132.87 1.203 2.25.155 3.243-.71.67-1.434 1.325-2.21 2.04.59.352 1.15.647 1.664 1.005C5.79 44.906 5.58 47.3 3.75 48.245c-.346.178-.75.85-.657 1.144.194.607.602 1.248 1.105 1.638 1.77 1.372 1.857 2.81.144 4.247-1.698 1.423-1.587 2.65.3 3.82.688.425 1.25.87 1.338 1.89.132 1.526-.437 2.416-1.704 3.122-.964.538-1.392 1.502-1.332 2.6.056 1.003.983.832 1.607 1.066 1.24.465 1.792 1.54 1.216 2.755-.464.98-1.17 1.854-1.826 2.732-.548.733-.58 1.38.12 1.993.33.286.693.535 1.062.768.75.474 1.04 1.132.496 1.857-.55.733-1.267 1.342-1.97 2.066.188.136.432.312.673.49.54.4 1.562.864 1.52 1.193-.107.868-.48 1.89-1.104 2.47-1.4 1.306-1.495 1.316.015 2.506.632.498.964.89.257 1.7-.744.852-.465 2.143.468 2.99.51-.4 1.08-.762 1.553-1.226 1.43-1.405 2.627-1.186 3.777-.322.316.237.59.532.868.817.62.64 1.042 1.003 1.772-.07 1.423-2.097 2.85-2.785 5.062-.856.92.802 1.68 1.956 3.197 1.304.096-.042.252.056.41.096-.073-.396-.23-.724-.164-.995.295-1.192 1.706-2.314 2.984-2.4 1.282-.083 3.3.87 3.717 1.902.44 1.083 1.63 1.308 2.47.48.382-.38.622-.902.932-1.356.785-1.15 2.462-1.38 3.52-.44.523.46.968 1.01 1.575 1.656.357-.557.61-1.15 1.035-1.564.475-.462 1.255-1.185 1.64-1.05.996.352 2.03.954 2.714 1.745 1.12 1.3 1.915 1.35 2.802-.173.753-1.294 1.892-1.612 3.14-.836.626.39 1.243.807 1.805 1.28 1.265 1.07 1.485 1.036 2.352-.313.41-.638.82-1.41 1.435-1.756 1.053-.59 2.356-.376 2.968.81.65 1.262 1.31 1.34 2.324.502.89-.733 2.05-.684 2.853.2.447.494.817 1.067 1.16 1.64.562.948 1.36 1.148 2.145.377.495-.487.77-1.2 1.27-1.68.5-.482 1.13-1.08 1.747-1.133 1.19-.104 2.31.31 3.088 1.38.97 1.33 1.12 1.283 2.247.065 2.022-2.18 2.418-1.816 4.413.005.145.132.235.324.37.468.925.97 1.714.825 2.224-.405.613-1.48 2.107-1.892 3.352-.914.372.29.715.62 1.083.916 1.482 1.192 2.666 1.09 3.948-.35.264-.295.467-.645.725-.946.79-.923 2.066-1.335 2.824-.806.672.47 1.262 1.066 1.842 1.652.53.535 1.104.846 1.733.303.383-.332.634-.834.886-1.293.988-1.792 2.263-1.82 3.41-.11.355.526.815 1.155 1.363 1.344 1.115.387.91-.803 1.207-1.33.892-1.587 1.87-1.66 3.03-.178.363.463.76.9 1.15 1.34.897 1.008 1.47.94 2.085-.243.604-1.162 1.527-1.756 2.516-1.403.673.24 1.31.694 1.843 1.184.75.69 1.668.692 2.256-.175.25-.37.39-.815.535-1.128.314-.062.594-.172.87-.16.686.028 1.454-.062 2.035.217.762.365 1.388 1.024 2.05 1.584 1.2 1.017 2.44 1.905 4.146 1.544 1.392-.295 2.217-1.306 2.96-2.4.67-.984 1.6-1.13 2.514-.343.444.383.88.787 1.266 1.23 1.097 1.265 1.572 1.203 2.604-.12.36-.46 1.027-.786 1.615-.943 1.456-.388 2.054.907 2.884 1.68 1.144 1.065 2.007 1.065 2.935-.095 1.107-1.385 2.323-1.473 3.7-.34 1.028.845 2.142 1.53 3.653 1.008z"/><path id="stamp-outside-fill" fill="#375DB5" d="M149.903 90.17c-1.51.52-2.625-.163-3.654-1.01-1.377-1.133-2.593-1.045-3.7.34-.93 1.16-1.792 1.16-2.936.095-.83-.773-1.428-2.068-2.885-1.68-.59.157-1.257.482-1.616.943-1.03 1.323-1.507 1.385-2.604.12-.385-.443-.82-.847-1.266-1.23-.913-.79-1.844-.643-2.513.342-.744 1.094-1.568 2.104-2.96 2.4-1.708.36-2.948-.527-4.148-1.544-.66-.56-1.287-1.22-2.05-1.584-.58-.28-1.348-.19-2.035-.217-.275-.012-.555.098-.87.16-.144.313-.283.758-.534 1.128-.587.867-1.506.864-2.256.176-.533-.49-1.17-.945-1.843-1.185-.99-.353-1.913.24-2.516 1.402-.615 1.182-1.188 1.25-2.084.244-.39-.44-.788-.877-1.15-1.34-1.16-1.482-2.14-1.41-3.03.178-.297.527-.093 1.717-1.208 1.33-.548-.188-1.007-.817-1.362-1.344-1.148-1.708-2.423-1.68-3.41.11-.253.46-.504.962-.887 1.293-.63.543-1.205.232-1.733-.303-.58-.586-1.17-1.183-1.842-1.652-.758-.53-2.035-.117-2.824.806-.258.302-.46.65-.725.947-1.282 1.438-2.466 1.54-3.948.35-.37-.297-.712-.626-1.083-.918-1.245-.978-2.738-.566-3.353.914-.51 1.23-1.3 1.377-2.224.406-.136-.144-.226-.335-.37-.468-1.996-1.822-2.392-2.187-4.414-.005-1.128 1.218-1.278 1.265-2.247-.065-.78-1.07-1.898-1.484-3.088-1.38-.617.054-1.248.65-1.748 1.133-.5.482-.775 1.194-1.27 1.68-.784.772-1.583.572-2.146-.375-.342-.574-.712-1.147-1.16-1.64-.8-.884-1.96-.934-2.852-.2-1.016.835-1.673.758-2.324-.503-.612-1.187-1.915-1.4-2.968-.81-.615.346-1.024 1.118-1.435 1.757-.867 1.348-1.087 1.38-2.352.313-.562-.475-1.18-.893-1.805-1.28-1.25-.777-2.387-.46-3.14.835-.887 1.523-1.68 1.472-2.802.173-.683-.79-1.718-1.393-2.713-1.743-.386-.136-1.167.587-1.64 1.05-.427.414-.68 1.006-1.036 1.563-.607-.646-1.052-1.195-1.574-1.657-1.06-.938-2.736-.708-3.52.44-.31.455-.55.978-.934 1.356-.84.83-2.03.603-2.47-.48-.416-1.033-2.434-1.986-3.716-1.9-1.278.083-2.688 1.206-2.984 2.397-.067.27.09.6.163.995-.157-.04-.312-.137-.41-.096-1.515.652-2.276-.5-3.196-1.304-2.212-1.93-3.64-1.24-5.062.855-.73 1.074-1.15.71-1.772.072-.277-.286-.552-.58-.868-.818-1.15-.863-2.347-1.083-3.777.322-.472.463-1.042.827-1.553 1.225-.933-.848-1.212-2.138-.468-2.99.707-.81.375-1.203-.256-1.7-1.51-1.19-1.415-1.2-.014-2.506.623-.58.997-1.602 1.105-2.47.042-.33-.98-.792-1.52-1.193-.24-.178-.484-.353-.67-.49.702-.724 1.418-1.332 1.968-2.065.543-.725.253-1.383-.496-1.856-.368-.234-.733-.483-1.06-.77-.7-.61-.67-1.26-.122-1.992.657-.877 1.362-1.752 1.826-2.732.575-1.215.023-2.29-1.215-2.755-.623-.23-1.55-.06-1.606-1.062-.06-1.1.368-2.063 1.332-2.6 1.268-.707 1.836-1.597 1.704-3.122-.088-1.02-.65-1.466-1.338-1.892-1.888-1.17-2-2.396-.3-3.82C6.056 53.84 5.97 52.4 4.198 51.03c-.503-.39-.91-1.03-1.105-1.64-.093-.292.31-.964.657-1.142 1.83-.944 2.04-3.34.324-4.537C3.56 43.35 3 43.054 2.41 42.7c.776-.715 1.5-1.37 2.21-2.04 1.047-.993.976-2.374-.156-3.244-.19-.146-.385-.283-.573-.432-1.043-.823-1.092-1.712-.07-2.57 1.944-1.634 1.493-3.39-.435-4.158-.28-.112-.516-.366-.737-.59-.888-.9-.694-1.473.532-1.916.58-.21 1.166-.527 1.612-.943 1.323-1.234 1.212-2.41-.177-3.56-.704-.583-1.738-1.19-1.864-1.92-.106-.622.853-1.444 1.372-2.154 1.36-1.86.854-3.228-1.375-3.776-.38-.094-.708-.402-1.326-.77.65-.396 1.04-.698 1.478-.887 1.913-.824 2.886-2.227 2.777-4.454-.023-.468-.505-.96-.866-1.356-.617-.677-1.2-1.338-.55-2.273.67-.965 1.562-.902 2.518-.45.386.18.8.302 1.158.435L9.748 3.11c.702.495 1.36.97 2.03 1.428 1.547 1.056 2.617.918 3.794-.456.614-.715 1.252-1.41 1.972-2.216.433.507.85 1.03 1.303 1.518.346.374.68.817 1.118 1.038.973.49 1.983.904 2.8-.36.244-.378.762-.565 1.08-.908 1.062-1.148 1.347-1.07 2.756.048.733.58 1.41 1.275 2.223 1.703 1.436.755 2.787.43 3.778-.902 1.284-1.725 2.405-1.735 4.332-.44.262.176.5.39.74.597 2.127 1.81 3.14 1.247 4.807-.34.9-.86 1.83-1.578 3.105-1.416.618.078 1.244.42 1.776.777.88.59 1.632 1.39 2.55 1.892.37.2 1.19.02 1.538-.286.66-.583 1.153-1.367 1.67-2.1.547-.777 1.785-.97 2.624-.337.655.494 1.268 1.048 1.934 1.527 1.175.844 2.215.57 2.94-.73.946-1.7 1.394-1.744 2.732-.395.83.836 1.717 1.62 2.635 2.357.69.552 2.532-.034 2.834-.996.64-2.04 3.742-2.256 5.146-.857.75.747 1.797 1.298 2.81 1.65 1.592.553 2.95-.136 3.935-1.62.353-.534.832-1.346 1.29-1.372.895-.05 1.598.504 2.08 1.464.418.833 1.188 1.647 2.008 2.09 1.536.832 2.624.457 3.788-.932.38-.455.73-.938 1.122-1.38.804-.91 1.81-.77 2.403.295.265.478.517.987.886 1.378.955 1.015 2.036.937 2.892-.164.436-.56.81-1.167 1.25-1.72.187-.235.475-.388.855-.687.352.562.705 1.07.997 1.608.39.72.804 1.336 1.756 1.344.934.007 1.747-.034 2.118-1.14.166-.496.588-.92.944-1.337.772-.904 1.888-.852 2.723.046.644.693 1.313 1.367 2.023 1.988 1.028.9 2.85.546 3.54-.645.157-.274.26-.582.434-.845.997-1.514 2.546-1.51 3.52.014.727 1.136 1.75 1.88 3.088 1.72 1.13-.134 1.883-.94 2.318-2.06.406-1.05.835-1.08 1.65-.255.583.59 1.113 1.237 1.735 1.78 1.43 1.25 3.178.82 3.964-.932.108-.242.19-.51.354-.71.993-1.217.926-1.154 1.915.086.515.644 1.28 1.17 2.04 1.51.904.403 1.674.177 2.31-.81.568-.882 1.498-1.532 2.328-2.343.744 1.754 1.713 2.968 3.12 3.68.4.202 1.185-.166 1.698-.445.473-.256.85-.72 1.216-1.136 1.097-1.247 1.393-1.315 2.826-.54 2.266 1.222 2.702 1.14 4.52-.83l1.112.423c-1.323.64-.966 1.573-.427 2.424.543.855 1.3.904 2.146.324.59-.406 1.027-.004.938.527-.123.73-.33 1.662-.847 2.063-1.535 1.194-1.83 2.732-1.685 4.478.023.277.247.58.457.79.956.968 1.99 1.862 2.896 2.873.53.59.574 1.218-.31 1.737-1.392.816-2.12 2.134-2.343 3.716-.207 1.464.47 2.49 2.126 3.313 1.593.79 1.643 1.38.275 2.46-1.032.813-2.328 1.584-1.626 3.228.284.668.817 1.245 1.297 1.813 1.15 1.363 1.108 1.868-.177 3.14-.44.437-.825.984-1.066 1.552-.372.876-.41 1.76.467 2.462.334.267.638.62.837.994.502.942.114 1.574-.72 2.202-.753.567-1.29 1.44-1.847 2.23-.095.134.157.552.304.807.54.943 1.12 1.863 1.65 2.81.65 1.168.13 1.894-.896 2.54-1.6 1.003-1.68 2.443-.305 3.685.324.293.612.626.906.95.828.916.78 1.316-.204 2.076-1.76 1.358-1.78 3.292.107 4.49 1.948 1.234 1.933 1.793.063 3.095-1.792 1.25-1.746 3.828.073 5.045.36.242.69.544.992.86.45.47.545.88-.08 1.386-1.41 1.142-1.584 3.033-.51 4.544.57.804 1.2 1.575 1.687 2.427.393.69.587 1.312-.574 1.72-2.368.83-2.726 2.53-1.238 4.628.39.55.6 1.293.684 1.973.138 1.1-.623 1.542-1.65 1.107-.657-.278-1.34-.527-2.033-.683-1.74-.388-2.635.206-2.997 1.956zM9.035 10.968c.313.677.746 1.243.822 1.854.136 1.094.08 2.214.065 3.323-.07 5.53-.16 11.06-.23 16.592-.078 6.102-.17 12.203-.206 18.305-.025 4.58.018 9.163.058 13.745.02 2.275.144 4.55.14 6.825-.004 2.453-.108 4.906-.16 7.36-.027 1.22.08 2.455-.08 3.655-.163 1.21.504 2.32 1.723 2.353 4.41.114 8.823.212 13.234.295 6.77.126 13.54.267 20.31.34 4.673.05 9.347-.028 14.02.003 6.668.043 13.335.16 20.003.193 3.44.017 6.88-.11 10.322-.125 6.305-.028 12.61-.023 18.915-.027 5.852-.004 11.705 0 17.557 0 3.987 0 7.974-.037 11.96.008 3.535.04 7.07.145 10.603.27 1.484.053 2.398-.592 2.34-1.85-.02-.504-.223-1.002-.228-1.504-.02-1.922.027-3.845.004-5.768-.03-2.455-.145-4.91-.158-7.363-.028-5.416-.015-10.833-.02-16.25-.008-4.868-.008-9.735-.03-14.603-.03-7.144-.077-14.287-.116-21.43-.01-1.496-.203-3.02.027-4.48.296-1.886-.15-2.63-2.11-2.577-.863.023-1.723.195-2.588.245-3.684.215-7.393-.443-11.06.33-.924-.817-1.985-.29-2.993-.318-1.375-.04-2.748-.192-4.12-.18-2.995.027-5.99.114-8.984.216-.352.012-.887.49-1.01.38-.757-.664-1.617-.43-2.45-.433-.862-.003-1.722.017-2.583.017-2.7 0-5.402-.018-8.103-.01-4.577.018-9.153.066-13.73.07-5.096.004-10.19-.048-15.287-.024-.91.004-1.82.375-2.73.362-.69-.01-1.37-.507-2.063-.53-2.333-.073-4.67-.027-7.007-.036-2.684-.01-5.367-.01-8.05-.048-3.285-.045-6.57-.167-9.855-.175-2.7-.007-5.402.18-8.1.14-3.122-.048-6.238.21-9.37-.17-2.122-.26-4.304.01-6.457-.03-3.126-.054-6.253-.263-9.377-.215-1.043.015-2.32.132-2.848 1.266z"/><path id="stamp-inside-outline" d="M9.035 10.968c.53-1.134 1.805-1.25 2.846-1.267 3.125-.047 6.252.162 9.38.217 2.152.038 4.334-.23 6.456.028 3.132.38 6.248.124 9.37.17 2.698.04 5.4-.146 8.1-.14 3.285.01 6.57.13 9.855.176 2.684.038 5.368.04 8.05.048 2.337.008 4.674-.038 7.008.037.693.022 1.375.52 2.064.53.908.01 1.818-.36 2.73-.363 5.094-.024 10.19.028 15.286.024 4.577-.004 9.153-.052 13.73-.07 2.7-.008 5.402.008 8.103.01.86 0 1.722-.02 2.583-.017.833.003 1.693-.232 2.45.432.125.11.66-.368 1.01-.38 2.995-.102 5.99-.188 8.985-.216 1.372-.012 2.745.14 4.12.18 1.007.03 2.068-.5 2.992.318 3.667-.773 7.376-.115 11.06-.33.865-.05 1.725-.222 2.59-.245 1.957-.054 2.404.69 2.107 2.576-.23 1.458-.036 2.984-.027 4.48.04 7.144.086 14.287.117 21.43.02 4.867.02 9.734.028 14.602.007 5.417-.007 10.835.02 16.252.015 2.455.128 4.91.16 7.363.022 1.922-.026 3.845-.005 5.768.006.503.207 1 .23 1.505.057 1.258-.857 1.902-2.342 1.85-3.533-.125-7.067-.23-10.603-.27-3.986-.045-7.974-.01-11.96-.01-5.852 0-11.705 0-17.557.002-6.305.004-12.61 0-18.915.027-3.44.016-6.88.143-10.322.126-6.667-.032-13.334-.15-20.002-.193-4.673-.03-9.347.048-14.02-.003-6.77-.074-13.54-.214-20.31-.34-4.41-.083-8.822-.18-13.233-.295-1.218-.032-1.886-1.142-1.724-2.354.162-1.2.055-2.436.08-3.655.053-2.453.157-4.906.162-7.36.004-2.274-.12-4.55-.14-6.824-.04-4.582-.083-9.164-.058-13.745.034-6.1.127-12.203.206-18.304.07-5.53.16-11.06.23-16.592.014-1.11.07-2.23-.065-3.323-.074-.61-.507-1.175-.82-1.852zM149.11 83.85c0-2.376.02-4.753-.003-7.13-.048-5.06-.153-10.12-.163-15.18-.008-3.763.132-7.526.146-11.29.02-5.167-.02-10.334-.02-15.502-.002-3.625.05-7.25.016-10.874-.032-3.535-.13-7.07-.23-10.603-.034-1.198-.3-1.724-1.768-1.734-.992-.007-1.984.054-2.976.045-3.613-.03-7.228-.12-10.84-.104-5.53.025-11.06.145-16.592.176-2.983.017-5.967-.108-8.95-.1-4.904.016-9.81.125-14.712.127-7.077.003-14.154-.044-21.23-.082-5.913-.032-11.825-.087-17.738-.12-6.82-.04-13.64-.053-20.458-.104-1.455-.01-2.91-.204-4.364-.19-1.813.015-3.626.22-5.44.232-3.685.025-7.37-.047-11.055-.03-1.9.007-1.855.054-1.855 1.897 0 6.39-.012 12.782-.062 19.173-.05 6.33-.185 12.66-.213 18.99-.02 4.376.027 8.75.138 13.125.16 6.313-.517 12.652.578 19.133 1.85 0 3.69-.034 5.527.01 2.064.048 4.125.207 6.19.246 3.172.06 6.345.038 9.517.087 5.75.09 11.5.25 17.25.3 7.277.062 14.556.033 21.834.066 4.565.02 9.13.125 13.694.113 4.268-.012 8.537-.2 12.804-.182 4.944.02 9.887.245 14.832.27 6.99.036 13.982.04 20.97-.078 4.93-.082 9.893.445 15.175-.686z"/><path id="stamp-inside-fill" fill="#fff" d="M149.11 83.85c-5.28 1.13-10.243.604-15.173.688-6.99.118-13.98.113-20.97.078-4.945-.025-9.888-.25-14.833-.27-4.268-.02-8.536.17-12.804.182-4.564.013-9.13-.092-13.694-.113-7.278-.033-14.557-.004-21.835-.067-5.75-.05-11.498-.21-17.248-.3-3.172-.048-6.345-.027-9.517-.087-2.064-.038-4.126-.197-6.19-.246-1.838-.043-3.68-.01-5.527-.01-1.094-6.48-.417-12.82-.577-19.13-.11-4.374-.156-8.75-.137-13.125.028-6.332.164-12.66.213-18.992.05-6.39.06-12.782.062-19.173 0-1.844-.045-1.89 1.855-1.898 3.685-.016 7.37.057 11.055.03 1.814-.012 3.626-.217 5.44-.232 1.454-.013 2.91.18 4.364.19 6.82.052 13.64.066 20.458.104 5.913.032 11.826.088 17.738.12 7.077.038 14.153.085 21.23.08 4.904-.002 9.808-.11 14.712-.125 2.983-.01 5.967.115 8.95.1 5.53-.032 11.06-.152 16.592-.177 3.612-.017 7.227.076 10.84.105.99.008 1.983-.053 2.976-.045 1.468.01 1.733.537 1.768 1.735.1 3.534.198 7.068.23 10.603.034 3.624-.018 7.25-.017 10.874 0 5.167.042 10.335.02 15.502-.015 3.764-.154 7.527-.146 11.29.01 5.06.115 10.12.163 15.18.022 2.374.004 4.75.004 7.128z"/></g><defs><mask id="stamp-mask"><image width="100%" height="100%" xlink:href="./img/stamp-mask.png"/></mask></defs><image mask="url(#stamp-mask)" width="100%" height="100%" xlink:href="./img/portrait-aurelien-2.jpg"/></svg>
