<svg xmlns="http://www.w3.org/2000/svg" xmlns:xlink="http://www.w3.org/1999/xlink" id="stamp" viewBox="0 0 159.333 93"><g fill-rule="evenodd" clip-rule="evenodd"><path id="stamp-outside" d="M2.192 57.906c-.093-.084-.39-.224-.402-.385-.09-1.177-.028-2.326 1.042-3.13.222-.167.507-.322.618-.553.283-.585.822-1.093-.153-1.76-.99-.68-1.937-1.525-1.84-3.074.07-1.098.54-1.675 1.395-2.134.366-.197.728-.403 1.012-.56.01-1.477-1.203-1.8-1.985-2.446-1.1-.906-1.18-2.054-.063-2.99.148-.125.366-.164.523-.28 1.566-1.17 1.59-1.522.22-2.88-1.477-1.46-1.4-3.373.19-4.766.21-.182.414-.367.774-.688-.4-.342-.747-.6-1.05-.902-.605-.608-1.326-1.16-1.746-1.882-.656-1.13-.24-2.002.956-2.584.566-.276 1.157-.557 1.628-.96.964-.828.858-1.324-.226-1.982-1.05-.638-2.253-1.324-2.002-2.77.15-.862.66-1.766 1.262-2.42 1.142-1.24 1.146-1.626-.375-2.158-.945-.33-1.636-.982-1.7-1.957-.06-1 .424-1.79 1.478-2.192 1.122-.43 2.263-.97 2.34-2.395.025-.435-.197-.99-.496-1.314-1.05-1.138-1.37-2.383-.782-3.56.55-1.103 2.127-2.105 3.31-1.717 1.288.422 1.714-.47 2.2-1.12.657-.88 1.406-1.15 2.277-.49.34.258.712.48 1.02.77 1.84 1.72 2.752.613 3.984-.807.1-.115.12-.294.21-.422 1.146-1.64 2.553-1.5 3.467.347.813 1.642 1.657 1.823 3.027.653.18-.154.424-.258.555-.444 1.416-2.015 3.06-1.27 4.495.057.316.294.65.567.962.864 1.153 1.094 2.13 1.07 3.25-.073.5-.51.954-1.113 1.55-1.47 1.322-.793 2.544-.104 3.696.523.654.356 1.244.85 1.817 1.333.745.63 1.39.512 2.14-.03 1.046-.758 2.103-1.54 3.262-2.088 1.447-.684 2.846-.4 3.97.826.162.176.294.378.45.56 1.24 1.43 2.197 1.388 3.18-.213.615-1 1.285-1.704 2.6-1.757 1.155-.046 2.038.275 2.722 1.142.396.502.69 1.085 1.03 1.63l.52-.293c.34-.41.73-.788 1.016-1.234 1.062-1.666 2.66-1.91 4.137-.56.677.62 1.272 1.326 1.924 1.973.754.747 1.548.71 2.044-.206.903-1.668 2.532-1.957 4.104-2.177.664-.093 1.448.44 2.133.78 1 .496 1.948 1.103 2.945 1.61 1.08.548 1.895.197 2.47-.838 1.48-2.664 3.11-2.12 4.796-1.08.413.252.67.773.97 1.192.323.45.53 1.026.94 1.363.67.554 1.47.806 2.243.084.52-.487 1.09-.933 1.538-1.48 1.836-2.24 3.458-1.367 4.807.474.282.386.586.755.913 1.173.667-.82 1.184-1.46 1.708-2.096 1.27-1.536 2.77-1.39 3.734.31.346.61.844 1.134 1.264 1.687.736-.89 1.312-1.71 2.01-2.407 1.41-1.405 3.366-1.258 4.652.284.1.12.125.297.224.417 1.664 2.014 2.293 1.974 3.704-.187C113.53.887 114.768.58 115.98.668c1.046.076 1.686.915 2.305 1.82.338.493 1.46.715 2.158.61.508-.08.97-.852 1.333-1.394.835-1.25 2.054-1.437 3.157-.377.484.465.888 1.012 1.36 1.493 1.162 1.187 1.806.902 2.568-.344.28-.457.494-.98.855-1.36 1.096-1.153 2.592-.854 3.38.548.27.482.727.93 1.207 1.197.27.15.82-.01 1.14-.2.355-.21.637-.585.87-.94 1.07-1.636 2.837-1.77 4.135-.29.38.433.724.902 1.122 1.32.83.872 1.324.75 2.353-.54.998-1.25 2.996-2.015 4.087-1.13 1.422 1.15 2.257.786 3.397-.28.438-.407 1.594-.623 2.005-.333.51.36.62 1.324.83 2.047.096.323.017.698.017 1.105.344 0 .583.04.803-.008.945-.208 1.73.043 2.282.83.606.863.87 1.856.296 2.798-.637 1.044-1.52 1.94-2.127 3-.248.433-.276 1.285-.007 1.664.717 1.007 1.482 2.017 2.527 2.747 1.595 1.113 1.665 2.61-.173 4.13-.57.473-1.074 1.058-1.504 1.666-.93 1.313-.268 2.183.777 2.81.366.22.777.376 1.12.627 1.44 1.06 1.573 2.6.327 3.875-.33.337-.754.58-1.116.888-1.09.932-1.023 1.32-.06 2.367.64.697 1.117 1.575 1.54 2.435.414.847.076 1.628-.566 2.266-.367.365-.805.667-1.14 1.06-.578.68-.74 1.31.113 2.02 1.185.983 1.39 3.382.426 4.558-.266.325-.806.442-1.237.607-.83.316-.97.74-.5 1.547.662 1.14 1.277 2.332 1.727 3.568.316.873.306 1.778-.762 2.397-.71.414-1.244 1.134-1.964 1.818 1.557.772 2.334 1.885 2.717 3.32.518 1.94-1.548 2.082-2.23 3.282 1.13 1.17 2.28 2.367 3.66 3.797-1.067 1.12-1.974 2.12-2.936 3.06-.746.73-.74 1.355.02 2.133.76.78 1.56 1.553 2.148 2.458.598.925.187 1.73-.742 2.3-1.135.697-1.27 1.313-.563 2.44.505.807 1.01 1.617 1.574 2.382 1.532 2.08 1.165 3.485-1.188 4.404-1.34.523-1.433 1.007-.633 2.208.512.77.967 1.62 1.222 2.5.302 1.046.02 2.027-.893 2.777-.86.71-1.665.528-2.53.04-.444-.25-.927-.48-1.42-.59-.768-.17-1.49-.19-1.714.88-.183.88-.75 1.24-1.73 1.22-1.53-.03-2.873-.34-4.067-1.365-1.058-.907-1.407-.798-2.256.395-.874 1.226-2.715 1.446-3.852.434-.592-.527-1.134-1.11-1.713-1.65-.667-.623-1.285-.567-1.795.2-1.464 2.197-2.56 2.27-4.432.278-1.51-1.607-1.51-1.607-2.9.122-1.435 1.782-3.758 2.368-5.837 1.322-.784-.395-1.405-1.117-2.102-1.688-.43-.353-.85-.718-1.298-1.048-.737-.543-1.41-.715-1.912.327-.17.352-.48.636-.725.95-.858 1.097-2.305 1.223-3.294.243-.717-.71-1.376-1.478-2.15-2.316-.354 1.805-1.6 2.913-3.106 3.057-1.335.13-1.67-.964-2.296-1.72-.337-.41-.667-.82-1.04-1.282-.86.99-.458 2.632-2.195 2.76-2.094.156-2.4-1.756-3.627-2.738-.516.71-1.073 1.496-1.647 2.27-.843 1.132-3.053.823-3.86-.463-.316-.5-.827-.903-1.316-1.258-.505-.37-.91-.27-1.202.39-.736 1.674-2.29 2.305-3.898 2.668-.547.123-1.287-.27-1.84-.593-.704-.415-1.265-1.078-1.978-1.47-.262-.143-.817.12-1.17.32-.2.113-.267.47-.385.722-.743 1.57-2.214 1.824-3.546.59-.707-.655-1.385-1.34-2.357-2.284-.5.657-1.02 1.14-1.288 1.738-.617 1.383-2.174 1.558-3.4.286-.33-.342-.613-.728-.913-1.097-.94-1.16-1.848-1.068-2.567.205-.545.964-.857 2.095-2.262 2.358-1.287.24-2.462-.164-3.102-1.314-.3-.54-.687-1.07-1.148-1.47-.738-.645-1.06.226-1.378.59-.753.852-2.547.77-3.095-.23-.057-.103-.08-.237-.157-.32-.48-.502-.974-.995-1.462-1.49-.433.492-.868.983-1.3 1.477-.47.535-.88 1.143-1.422 1.59-.66.544-1.38.428-2.048-.128-.785-.654-1.614-1.253-2.4-1.905-.5-.414-.844-.284-1.182.2-.25.355-.52.698-.814 1.018-1.438 1.563-3.467 1.365-4.507-.53-.708-1.29-1.737-1.34-3.004-1.073 1 .626.52 1.29.023 1.887-.594.714-1.375.828-2.12.285-.437-.32-.748-.818-1.098-1.25-.77-.95-1.3-.958-2.043-.03-.272.34-.603.634-.864.98-1.476 1.958-3.998 1.762-5.09-.407-.733-1.454-2.578-2.136-3.673-.256-.12.204-.21.425-.337.624-1.702 2.656-2.85 2.465-4.897.626-2.1-1.885-2.114-1.906-3.76.246-.84 1.098-2.173 1.805-3.666.22-.51-.54-1.11-1-1.682-1.506-.858.68-1.557 1.34-2.357 1.837-.816.507-1.708.835-2.59-.018-1.2-1.16-1.71-2.567-1.14-3.566.382-.668.508-1.087-.242-1.687-1.187-.947-1.147-2.125-.118-3.268.132-.148.307-.258.435-.41 1.013-1.19 1.01-1.193-.314-2.086-1.39-.94-1.345-2.173.084-2.998.54-.31 1.02-.717 1.71-1.21-.492-.134-.818-.175-1.102-.308-1.71-.802-2.132-3.19-.747-4.66.568-.602.977-1.386 1.316-2.15.096-.217-.282-.93-.484-.948-1.14-.103-1.87-.633-2.14-1.726-.333-1.35-.14-2.623.833-3.678.42-.458.912-.862 1.408-1.243.824-.633.78-1.417-.077-2.044-.542-.397-1.03-.873-1.46-1.38-.165-.193-.11-.573-.168-.96zm147.71 32.264c.363-1.75 1.258-2.345 3.002-1.955.694.155 1.376.405 2.032.683 1.028.435 1.79-.008 1.65-1.106-.084-.68-.293-1.424-.683-1.973-1.487-2.1-1.13-3.8 1.238-4.63 1.163-.408.97-1.03.575-1.72-.487-.85-1.116-1.623-1.688-2.426-1.073-1.51-.898-3.402.512-4.543.623-.503.527-.915.08-1.385-.304-.315-.634-.618-.995-.86-1.82-1.217-1.865-3.796-.073-5.044 1.87-1.3 1.886-1.86-.062-3.095-1.89-1.197-1.867-3.13-.107-4.49.984-.758 1.033-1.16.204-2.074-.294-.324-.582-.657-.906-.95-1.373-1.242-1.294-2.682.306-3.686 1.025-.645 1.547-1.37.895-2.538-.53-.948-1.11-1.868-1.65-2.81-.144-.256-.396-.674-.302-.807.557-.79 1.094-1.665 1.847-2.23.834-.63 1.222-1.26.72-2.204-.2-.375-.503-.727-.836-.994-.877-.704-.84-1.586-.468-2.463.24-.57.625-1.117 1.065-1.55 1.285-1.275 1.326-1.78.177-3.143-.48-.568-1.013-1.145-1.298-1.813-.702-1.644.594-2.415 1.626-3.23 1.367-1.077 1.317-1.67-.274-2.458-1.656-.822-2.333-1.85-2.126-3.313.224-1.582.95-2.9 2.342-3.716.885-.52.84-1.146.31-1.738-.904-1.01-1.938-1.906-2.895-2.873-.21-.212-.435-.514-.458-.79-.146-1.747.15-3.285 1.686-4.48.517-.4.724-1.334.847-2.062.09-.532-.348-.934-.94-.527-.845.58-1.603.53-2.145-.325-.54-.85-.896-1.783.427-2.425l-1.11-.422c-1.82 1.97-2.257 2.05-4.522.828-1.434-.774-1.73-.706-2.826.54-.368.418-.744.88-1.217 1.137-.513.28-1.298.648-1.697.447-1.407-.713-2.376-1.928-3.12-3.682-.83.81-1.76 1.46-2.328 2.344-.636.985-1.405 1.21-2.31.81-.76-.34-1.525-.868-2.04-1.51-.988-1.24-.92-1.304-1.914-.087-.162.2-.245.468-.353.71-.785 1.75-2.535 2.183-3.963.933-.622-.544-1.152-1.192-1.735-1.782-.814-.824-1.244-.794-1.65.254-.435 1.122-1.187 1.926-2.318 2.062-1.34.16-2.36-.585-3.088-1.72-.974-1.525-2.523-1.53-3.52-.015-.173.262-.277.57-.435.844-.69 1.19-2.51 1.543-3.54.644-.71-.622-1.377-1.296-2.02-1.988-.835-.898-1.95-.95-2.723-.046-.355.416-.778.84-.944 1.337-.372 1.106-1.185 1.147-2.12 1.14-.95-.008-1.366-.624-1.755-1.344-.292-.54-.645-1.046-.997-1.61-.38.298-.667.452-.853.686-.44.553-.816 1.16-1.25 1.72-.856 1.1-1.938 1.18-2.893.165-.368-.39-.62-.9-.886-1.378-.592-1.064-1.6-1.204-2.403-.296-.392.445-.74.928-1.12 1.38-1.172 1.39-2.26 1.763-3.796.933-.82-.443-1.59-1.257-2.01-2.092-.48-.96-1.184-1.513-2.08-1.463-.457.026-.936.838-1.29 1.37-.983 1.485-2.342 2.174-3.933 1.622-1.013-.353-2.062-.905-2.81-1.65-1.405-1.4-4.507-1.183-5.147.856-.302.962-2.145 1.548-2.834.995-.917-.736-1.805-1.52-2.634-2.356-1.338-1.348-1.786-1.305-2.733.397-.724 1.3-1.764 1.574-2.94.73-.665-.48-1.277-1.033-1.933-1.53-.838-.63-2.076-.44-2.624.34-.516.73-1.01 1.516-1.67 2.1-.347.307-1.168.486-1.536.285-.92-.502-1.67-1.3-2.55-1.89-.532-.357-1.158-.7-1.776-.777-1.274-.162-2.204.556-3.105 1.415-1.666 1.587-2.68 2.15-4.806.34-.243-.205-.48-.42-.74-.596-1.93-1.295-3.05-1.285-4.333.44-.992 1.333-2.342 1.658-3.778.902-.815-.43-1.49-1.123-2.223-1.704C25.197 2.078 24.913 2 23.85 3.15c-.317.342-.835.53-1.08.906-.815 1.265-1.826.852-2.8.36-.436-.22-.77-.663-1.117-1.037-.453-.49-.87-1.01-1.303-1.52-.72.808-1.358 1.5-1.972 2.217-1.177 1.375-2.247 1.513-3.793.457-.67-.458-1.33-.933-2.03-1.427l-1.81 2.535c-.36-.133-.773-.254-1.16-.436-.955-.452-1.847-.515-2.517.45-.65.936-.067 1.597.55 2.274.36.397.842.888.865 1.356.11 2.227-.864 3.63-2.777 4.454-.438.19-.827.492-1.477.887.62.37.946.677 1.326.77 2.23.55 2.734 1.918 1.375 3.777-.52.71-1.477 1.532-1.37 2.154.126.73 1.16 1.338 1.864 1.92 1.39 1.15 1.5 2.327.177 3.56-.445.416-1.033.734-1.61.943-1.228.443-1.42 1.016-.533 1.917.22.223.457.478.737.59 1.928.766 2.38 2.523.435 4.156-1.02.858-.974 1.748.07 2.57.19.15.383.287.573.433 1.132.87 1.203 2.25.155 3.243-.71.67-1.434 1.324-2.21 2.04.59.35 1.15.646 1.664 1.004 1.708 1.202 1.498 3.596-.332 4.54-.346.18-.75.85-.657 1.145.194.606.602 1.247 1.105 1.637 1.77 1.372 1.857 2.81.144 4.247-1.698 1.423-1.587 2.65.3 3.82.688.425 1.25.87 1.338 1.89.132 1.526-.437 2.416-1.704 3.122-.964.538-1.392 1.502-1.332 2.6.056 1.003.983.832 1.607 1.066 1.24.465 1.793 1.54 1.217 2.755-.464.98-1.17 1.854-1.826 2.732-.547.732-.58 1.38.12 1.992.33.286.694.535 1.063.768.75.474 1.04 1.132.496 1.857-.55.733-1.268 1.342-1.97 2.066.187.136.43.312.672.49.54.4 1.562.864 1.52 1.193-.107.868-.48 1.89-1.104 2.47-1.4 1.306-1.495 1.316.015 2.506.632.498.964.89.257 1.7-.744.852-.465 2.143.468 2.99.51-.4 1.08-.762 1.553-1.226 1.43-1.405 2.628-1.186 3.778-.322.316.237.59.532.868.817.62.64 1.042 1.004 1.772-.07 1.423-2.096 2.85-2.784 5.062-.855.92.802 1.68 1.956 3.197 1.304.096-.043.252.055.41.095-.073-.396-.23-.724-.164-.995.295-1.192 1.706-2.314 2.984-2.4 1.282-.083 3.3.87 3.717 1.902.44 1.083 1.63 1.308 2.47.48.382-.38.622-.902.932-1.356.785-1.15 2.462-1.38 3.52-.44.523.46.968 1.01 1.575 1.656.358-.557.61-1.15 1.036-1.564.475-.462 1.255-1.185 1.64-1.05.996.352 2.03.954 2.714 1.745 1.12 1.3 1.915 1.35 2.802-.173.753-1.294 1.892-1.612 3.14-.836.626.39 1.243.807 1.805 1.28 1.265 1.07 1.485 1.036 2.352-.313.41-.637.82-1.41 1.434-1.755 1.053-.59 2.356-.376 2.968.81.65 1.262 1.31 1.34 2.324.502.89-.733 2.05-.684 2.853.2.446.494.816 1.067 1.16 1.64.56.948 1.36 1.148 2.144.377.495-.487.77-1.2 1.27-1.68.5-.482 1.13-1.08 1.747-1.133 1.19-.103 2.31.31 3.09 1.38.97 1.33 1.12 1.284 2.246.066 2.022-2.18 2.418-1.816 4.413.005.144.133.234.325.37.47.924.97 1.713.824 2.223-.406.613-1.48 2.107-1.892 3.352-.914.372.29.715.62 1.083.916 1.482 1.192 2.666 1.09 3.948-.35.264-.295.467-.645.725-.946.79-.923 2.067-1.335 2.825-.806.672.47 1.262 1.066 1.842 1.652.53.535 1.104.846 1.733.303.383-.333.634-.835.886-1.294.988-1.792 2.263-1.82 3.41-.11.355.526.815 1.155 1.363 1.344 1.114.387.91-.803 1.206-1.33.892-1.587 1.87-1.66 3.03-.178.363.463.76.9 1.15 1.34.897 1.008 1.47.94 2.085-.243.605-1.163 1.528-1.757 2.517-1.404.673.24 1.31.694 1.843 1.184.75.69 1.668.692 2.256-.175.25-.37.39-.815.535-1.128.315-.062.595-.172.87-.16.687.028 1.455-.062 2.036.217.762.365 1.388 1.024 2.05 1.584 1.2 1.017 2.44 1.905 4.146 1.544 1.392-.295 2.217-1.306 2.96-2.4.67-.984 1.6-1.13 2.514-.343.444.382.88.786 1.266 1.23 1.097 1.264 1.572 1.202 2.604-.12.36-.46 1.027-.787 1.615-.944 1.457-.388 2.055.907 2.885 1.68 1.144 1.065 2.007 1.065 2.935-.095 1.107-1.384 2.323-1.472 3.7-.34 1.028.846 2.142 1.53 3.653 1.01z"/><path id="stamp-outside-fill" fill="#375DB5" d="M149.903 90.17c-1.51.52-2.625-.163-3.654-1.01-1.378-1.133-2.594-1.045-3.7.34-.93 1.16-1.793 1.16-2.937.095-.83-.773-1.428-2.068-2.885-1.68-.59.157-1.257.482-1.616.943-1.03 1.323-1.507 1.385-2.604.12-.385-.443-.82-.847-1.266-1.23-.913-.79-1.844-.643-2.513.342-.745 1.094-1.57 2.104-2.96 2.4-1.71.36-2.95-.527-4.15-1.544-.66-.56-1.286-1.22-2.05-1.584-.58-.28-1.347-.19-2.034-.217-.275-.012-.555.098-.87.16-.144.313-.283.758-.534 1.128-.587.867-1.506.864-2.256.176-.533-.49-1.17-.946-1.843-1.186-.99-.353-1.913.24-2.516 1.402-.615 1.182-1.188 1.25-2.084.244-.39-.44-.788-.877-1.15-1.34-1.16-1.482-2.14-1.41-3.03.178-.297.527-.093 1.717-1.208 1.33-.548-.188-1.007-.817-1.362-1.344-1.148-1.708-2.423-1.68-3.41.11-.253.46-.504.962-.887 1.293-.63.543-1.205.232-1.733-.303-.58-.586-1.17-1.183-1.842-1.652-.757-.53-2.034-.117-2.823.806-.258.302-.46.65-.725.947-1.282 1.438-2.466 1.54-3.948.35-.37-.297-.712-.626-1.083-.918-1.244-.978-2.737-.566-3.352.914-.51 1.23-1.3 1.378-2.224.407-.136-.144-.226-.335-.37-.468-1.996-1.823-2.392-2.188-4.414-.006-1.128 1.218-1.278 1.265-2.247-.065-.78-1.07-1.898-1.485-3.088-1.38-.617.053-1.248.65-1.748 1.132-.5.482-.775 1.194-1.27 1.68-.784.772-1.583.572-2.146-.375-.34-.574-.71-1.147-1.16-1.64-.8-.884-1.96-.934-2.85-.2-1.017.835-1.674.758-2.325-.503-.612-1.187-1.915-1.4-2.968-.81-.615.346-1.024 1.118-1.435 1.757-.867 1.35-1.087 1.38-2.352.314-.562-.475-1.18-.893-1.805-1.28-1.25-.777-2.387-.46-3.14.835-.887 1.522-1.68 1.47-2.802.172-.683-.79-1.718-1.393-2.713-1.743-.386-.137-1.167.586-1.64 1.05-.427.413-.68 1.005-1.036 1.562-.607-.646-1.052-1.195-1.574-1.657-1.06-.938-2.736-.708-3.52.44-.31.455-.55.978-.934 1.356-.84.83-2.03.604-2.47-.48-.416-1.032-2.434-1.985-3.716-1.9-1.278.084-2.688 1.207-2.984 2.398-.067.27.09.6.163.995-.158-.04-.313-.137-.41-.096-1.516.652-2.277-.5-3.197-1.304-2.212-1.93-3.64-1.24-5.062.855-.73 1.074-1.15.71-1.77.072-.278-.286-.553-.58-.87-.818-1.15-.863-2.346-1.083-3.776.322-.472.463-1.042.827-1.553 1.225-.932-.85-1.21-2.14-.467-2.99.707-.81.375-1.204-.256-1.7-1.51-1.19-1.415-1.2-.014-2.507.623-.58.997-1.602 1.105-2.47.042-.33-.98-.792-1.52-1.193-.24-.178-.484-.353-.67-.49.702-.724 1.418-1.332 1.968-2.065.543-.725.253-1.383-.496-1.856-.368-.235-.733-.484-1.06-.77-.7-.61-.67-1.26-.122-1.993.657-.877 1.362-1.752 1.826-2.732.575-1.215.023-2.29-1.215-2.755-.624-.23-1.55-.06-1.607-1.062-.06-1.1.368-2.063 1.332-2.6C5.543 63.4 6.11 62.51 5.98 60.986c-.09-1.02-.65-1.466-1.34-1.892-1.887-1.17-2-2.396-.3-3.82C6.057 53.84 5.97 52.4 4.2 51.03c-.503-.39-.91-1.03-1.105-1.64-.093-.292.31-.964.657-1.142 1.83-.944 2.04-3.34.324-4.537C3.56 43.35 3 43.055 2.41 42.7c.776-.715 1.5-1.37 2.21-2.04 1.047-.993.976-2.374-.156-3.244-.19-.146-.385-.283-.573-.432-1.042-.823-1.09-1.712-.07-2.57 1.945-1.634 1.494-3.39-.434-4.158-.28-.112-.516-.366-.737-.59-.89-.9-.695-1.473.53-1.916.58-.21 1.167-.527 1.613-.943 1.323-1.234 1.212-2.41-.177-3.56-.704-.583-1.738-1.19-1.864-1.92-.106-.622.853-1.444 1.372-2.154 1.36-1.86.854-3.228-1.375-3.776-.38-.094-.71-.402-1.327-.77.65-.396 1.04-.698 1.478-.887 1.914-.824 2.887-2.227 2.778-4.454-.023-.468-.505-.96-.866-1.356-.617-.677-1.2-1.338-.55-2.273.67-.965 1.562-.902 2.518-.45.386.18.8.302 1.158.435l1.81-2.532c.702.495 1.36.97 2.03 1.428 1.547 1.056 2.617.918 3.794-.456.614-.715 1.252-1.41 1.972-2.216.433.507.85 1.03 1.303 1.518.346.374.68.817 1.118 1.038.973.49 1.983.904 2.8-.36.244-.378.762-.565 1.08-.908 1.062-1.148 1.347-1.07 2.756.048.734.58 1.41 1.275 2.224 1.703 1.436.755 2.787.43 3.778-.902 1.284-1.725 2.405-1.735 4.332-.44.262.176.5.39.74.597 2.127 1.81 3.14 1.247 4.807-.34.9-.86 1.83-1.578 3.106-1.416.618.078 1.244.42 1.776.777.88.59 1.632 1.39 2.55 1.893.37.2 1.19.02 1.538-.286.66-.583 1.153-1.367 1.67-2.1.547-.777 1.785-.97 2.624-.337.655.494 1.268 1.048 1.934 1.527 1.175.844 2.215.57 2.94-.73.946-1.7 1.394-1.744 2.732-.395.83.836 1.717 1.62 2.635 2.357.69.55 2.532-.035 2.834-.997.64-2.04 3.74-2.256 5.145-.857.75.747 1.797 1.298 2.81 1.65 1.592.553 2.95-.136 3.935-1.62.353-.534.832-1.346 1.29-1.372.895-.05 1.598.504 2.08 1.464.418.833 1.188 1.647 2.008 2.09 1.536.832 2.624.457 3.788-.932.38-.455.73-.938 1.122-1.38.804-.91 1.81-.77 2.403.295.266.48.518.988.887 1.38.955 1.014 2.036.936 2.892-.165.435-.56.81-1.167 1.25-1.72.186-.235.474-.388.854-.687.352.562.705 1.07.997 1.608.39.72.805 1.336 1.757 1.344.934.007 1.747-.034 2.118-1.14.166-.496.588-.92.944-1.337.77-.904 1.887-.852 2.722.046.644.692 1.313 1.366 2.023 1.987 1.028.9 2.85.546 3.54-.645.157-.274.26-.582.434-.845.996-1.514 2.545-1.51 3.52.014.726 1.137 1.75 1.88 3.087 1.72 1.13-.133 1.883-.94 2.318-2.06.406-1.05.835-1.08 1.65-.254.583.59 1.113 1.237 1.735 1.78 1.43 1.25 3.178.82 3.964-.932.108-.242.19-.51.354-.71.993-1.217.926-1.154 1.915.086.515.644 1.28 1.17 2.04 1.51.904.403 1.674.177 2.31-.81.568-.882 1.498-1.532 2.328-2.343.745 1.754 1.714 2.968 3.12 3.68.4.202 1.186-.166 1.7-.445.472-.256.85-.72 1.215-1.136 1.097-1.247 1.393-1.315 2.826-.54 2.267 1.222 2.703 1.14 4.52-.83l1.113.423c-1.323.64-.966 1.572-.427 2.423.543.855 1.3.904 2.146.324.59-.406 1.027-.004.938.527-.123.73-.33 1.662-.847 2.063-1.535 1.194-1.83 2.732-1.685 4.478.023.277.247.58.457.79.956.968 1.99 1.862 2.896 2.873.53.59.575 1.218-.31 1.737-1.39.816-2.12 2.134-2.342 3.716-.207 1.465.47 2.49 2.126 3.314 1.593.79 1.643 1.38.275 2.46-1.033.813-2.33 1.584-1.627 3.228.284.668.817 1.245 1.297 1.813 1.15 1.363 1.108 1.868-.177 3.14-.44.437-.825.984-1.066 1.552-.372.876-.41 1.76.467 2.462.334.266.638.62.837.993.503.942.115 1.574-.72 2.202-.752.567-1.29 1.44-1.846 2.23-.095.134.157.552.304.807.54.943 1.12 1.863 1.65 2.81.65 1.168.13 1.894-.896 2.54-1.6 1.003-1.68 2.443-.305 3.685.324.293.612.626.906.95.828.916.78 1.316-.204 2.076-1.76 1.358-1.78 3.292.106 4.49 1.948 1.234 1.933 1.793.063 3.095-1.793 1.25-1.747 3.828.072 5.045.36.242.69.544.992.86.45.47.545.88-.08 1.386-1.41 1.14-1.584 3.032-.51 4.543.57.804 1.2 1.575 1.687 2.427.394.69.588 1.312-.573 1.72-2.368.83-2.726 2.53-1.238 4.628.39.55.6 1.293.683 1.973.138 1.1-.623 1.543-1.65 1.108-.657-.278-1.34-.527-2.033-.683-1.74-.388-2.635.206-2.997 1.956zM9.035 10.968c.313.677.746 1.243.822 1.854.136 1.094.08 2.214.065 3.323-.07 5.53-.16 11.06-.23 16.592-.078 6.102-.17 12.203-.206 18.305-.025 4.58.018 9.163.058 13.745.02 2.275.144 4.55.14 6.825-.004 2.453-.108 4.906-.16 7.36-.027 1.22.08 2.455-.08 3.655-.163 1.21.504 2.32 1.723 2.353 4.41.114 8.823.212 13.234.295 6.77.126 13.54.267 20.31.34 4.674.05 9.348-.028 14.02.003 6.67.043 13.336.16 20.004.193 3.44.018 6.88-.11 10.322-.124 6.305-.028 12.61-.023 18.915-.027 5.853-.005 11.706 0 17.558 0 3.987 0 7.974-.038 11.96.007 3.535.04 7.07.145 10.603.27 1.485.053 2.4-.592 2.34-1.85-.02-.504-.222-1.002-.227-1.504-.02-1.922.027-3.845.004-5.768-.03-2.455-.145-4.91-.158-7.363-.03-5.416-.016-10.833-.02-16.25-.01-4.868-.01-9.735-.03-14.603-.03-7.145-.078-14.288-.117-21.43-.01-1.497-.203-3.02.027-4.48.296-1.887-.15-2.63-2.11-2.578-.863.023-1.723.195-2.588.245-3.684.215-7.393-.443-11.06.33-.924-.817-1.985-.29-2.993-.318-1.376-.04-2.75-.193-4.12-.18-2.996.026-5.99.113-8.985.215-.352.012-.887.49-1.01.38-.757-.664-1.617-.43-2.45-.433-.862-.003-1.722.017-2.583.017-2.7 0-5.402-.02-8.103-.01-4.578.017-9.154.065-13.73.07-5.097.003-10.19-.05-15.288-.025-.91.004-1.82.375-2.73.362-.69-.01-1.37-.507-2.063-.53-2.334-.073-4.67-.027-7.008-.036-2.684-.01-5.367-.01-8.05-.047-3.285-.045-6.57-.167-9.855-.175-2.7-.007-5.402.18-8.1.14-3.122-.048-6.238.21-9.37-.17-2.122-.26-4.304.01-6.457-.03-3.126-.054-6.253-.263-9.377-.215-1.043.015-2.32.132-2.848 1.266z"/><path id="stamp-inside-outline" d="M9.035 10.968c.53-1.134 1.805-1.25 2.846-1.267 3.126-.046 6.253.163 9.38.218 2.153.038 4.335-.23 6.457.028 3.132.38 6.248.124 9.37.17 2.698.04 5.4-.146 8.1-.14 3.285.01 6.57.13 9.855.176 2.684.038 5.368.04 8.05.048 2.337.008 4.674-.038 7.008.037.693.022 1.375.52 2.064.53.908.01 1.818-.36 2.73-.363 5.094-.024 10.19.028 15.286.024 4.577-.004 9.153-.052 13.73-.07 2.7-.008 5.402.008 8.103.01.86 0 1.722-.02 2.583-.017.833.004 1.693-.23 2.45.433.125.11.66-.368 1.01-.38 2.995-.102 5.99-.188 8.985-.216 1.373-.012 2.746.14 4.12.18 1.008.03 2.07-.5 2.993.318 3.667-.773 7.376-.115 11.06-.33.865-.05 1.725-.222 2.59-.245 1.957-.054 2.404.69 2.107 2.576-.23 1.458-.036 2.984-.027 4.48.04 7.144.086 14.287.117 21.43.02 4.867.02 9.734.028 14.602.007 5.417-.007 10.835.02 16.252.015 2.455.128 4.91.16 7.363.022 1.922-.026 3.845-.005 5.768.006.504.207 1 .23 1.506.057 1.258-.857 1.902-2.342 1.85-3.532-.125-7.066-.23-10.602-.27-3.986-.045-7.974-.01-11.96-.01-5.852 0-11.705 0-17.557.002-6.304.004-12.61 0-18.914.027-3.44.016-6.88.143-10.322.126-6.667-.03-13.334-.15-20.002-.192-4.673-.03-9.347.048-14.02-.003-6.77-.074-13.54-.214-20.31-.34-4.41-.083-8.822-.18-13.233-.295-1.22-.032-1.887-1.142-1.725-2.354.162-1.2.055-2.436.08-3.655.053-2.452.157-4.905.162-7.36.004-2.273-.12-4.55-.14-6.823-.04-4.582-.083-9.164-.058-13.745.033-6.1.126-12.203.205-18.304.07-5.53.16-11.06.23-16.592.014-1.11.07-2.23-.065-3.323-.074-.61-.507-1.175-.82-1.852zM149.11 83.85c0-2.376.02-4.753-.003-7.13-.048-5.06-.153-10.12-.163-15.18-.008-3.763.132-7.526.146-11.29.02-5.167-.02-10.334-.02-15.502-.002-3.625.05-7.25.016-10.874-.032-3.535-.13-7.07-.23-10.603-.034-1.197-.3-1.723-1.768-1.733-.992-.007-1.984.054-2.976.045-3.613-.03-7.228-.12-10.84-.104-5.53.025-11.06.145-16.592.176-2.983.017-5.967-.108-8.95-.1-4.904.016-9.81.125-14.712.127-7.077.004-14.154-.043-21.23-.08-5.913-.033-11.825-.088-17.738-.12-6.82-.04-13.64-.054-20.458-.105-1.455-.01-2.91-.204-4.364-.19-1.813.015-3.626.22-5.44.232-3.685.025-7.37-.047-11.055-.03-1.9.007-1.855.054-1.855 1.897 0 6.39-.012 12.782-.062 19.173-.05 6.33-.185 12.66-.213 18.99-.02 4.376.027 8.75.138 13.125.16 6.313-.516 12.652.58 19.133 1.85 0 3.69-.034 5.526.01 2.064.048 4.125.207 6.19.246 3.172.06 6.345.04 9.517.088 5.75.09 11.5.25 17.25.3 7.277.062 14.556.033 21.834.066 4.565.02 9.13.125 13.694.113 4.27-.012 8.538-.2 12.805-.182 4.944.02 9.887.245 14.832.27 6.99.036 13.982.04 20.97-.078 4.93-.082 9.893.445 15.175-.686z"/><path id="stamp-inside-fill" fill="#fff" d="M149.11 83.85c-5.28 1.13-10.243.604-15.173.688-6.99.118-13.98.113-20.97.078-4.945-.025-9.888-.25-14.833-.27-4.268-.02-8.536.17-12.804.182-4.564.013-9.13-.092-13.694-.113-7.278-.033-14.557-.004-21.835-.067-5.75-.05-11.497-.21-17.247-.3-3.172-.048-6.345-.027-9.517-.087-2.064-.037-4.126-.196-6.19-.245-1.838-.043-3.68-.01-5.527-.01-1.095-6.48-.418-12.82-.578-19.13-.11-4.374-.156-8.75-.137-13.125.028-6.332.164-12.66.213-18.992.05-6.39.06-12.782.062-19.173 0-1.844-.045-1.89 1.855-1.898 3.685-.016 7.37.057 11.055.03 1.814-.012 3.626-.217 5.44-.232 1.454-.013 2.91.18 4.364.19 6.82.052 13.64.066 20.458.104 5.913.03 11.826.087 17.738.12 7.077.037 14.153.084 21.23.08 4.904-.003 9.808-.11 14.712-.126 2.983-.01 5.967.115 8.95.1 5.53-.032 11.06-.152 16.592-.177 3.612-.017 7.227.076 10.84.105.99.008 1.983-.053 2.976-.045 1.468.01 1.733.537 1.768 1.735.1 3.534.198 7.068.23 10.603.034 3.624-.018 7.25-.017 10.874 0 5.166.043 10.334.02 15.5-.014 3.765-.153 7.528-.145 11.29.01 5.06.115 10.12.163 15.18.022 2.375.004 4.75.004 7.13z"/></g><defs><mask id="stamp-mask"><image width="100%" height="100%" xlink:href="./img/stamp-mask.png"/></mask></defs><image mask="url(#stamp-mask)" width="100%" height="100%" xlink:href="./img/portrait-aurelien-2.jpg"/></svg>
